<?xml version="1.0" encoding="utf-8"?>
<!-- Generator: Adobe Illustrator 23.0.4, SVG Export Plug-In . SVG Version: 6.00 Build 0)  -->
<svg version="1.1" id="Layer_1" xmlns="http://www.w3.org/2000/svg" xmlns:xlink="http://www.w3.org/1999/xlink" x="0px" y="0px"
	 viewBox="0 0 222.81 219.4" style="enable-background:new 0 0 222.81 219.4;" xml:space="preserve">
<style type="text/css">
	.st0{clip-path:url(#SVGID_4_);}
	.st1{clip-path:url(#SVGID_6_);fill:#311F31;}
	.st2{clip-path:url(#SVGID_8_);}
	.st3{clip-path:url(#SVGID_10_);fill:#311F31;}
	.st4{clip-path:url(#SVGID_12_);}
	.st5{clip-path:url(#SVGID_14_);}
	.st6{clip-path:url(#SVGID_16_);}
	.st7{clip-path:url(#SVGID_18_);}
	.st8{clip-path:url(#SVGID_20_);}
	.st9{clip-path:url(#SVGID_22_);}
	.st10{clip-path:url(#SVGID_24_);}
	.st11{clip-path:url(#SVGID_26_);}
	.st12{clip-path:url(#SVGID_28_);}
	.st13{clip-path:url(#SVGID_30_);fill:#FFFFFF;}
	.st14{clip-path:url(#SVGID_32_);}
	.st15{clip-path:url(#SVGID_34_);}
	.st16{clip-path:url(#SVGID_36_);}
	.st17{clip-path:url(#SVGID_38_);fill:#FFFFFF;}
	.st18{clip-path:url(#SVGID_40_);}
	.st19{clip-path:url(#SVGID_42_);fill:#311F31;}
	.st20{clip-path:url(#SVGID_44_);}
	.st21{clip-path:url(#SVGID_46_);}
	.st22{clip-path:url(#SVGID_48_);}
	.st23{clip-path:url(#SVGID_50_);}
	.st24{clip-path:url(#SVGID_52_);}
	.st25{clip-path:url(#SVGID_54_);}
	.st26{clip-path:url(#SVGID_56_);}
	.st27{clip-path:url(#SVGID_58_);}
	.st28{clip-path:url(#SVGID_60_);}
	.st29{clip-path:url(#SVGID_62_);}
	.st30{clip-path:url(#SVGID_64_);}
	.st31{clip-path:url(#SVGID_66_);}
	.st32{clip-path:url(#SVGID_68_);}
	.st33{clip-path:url(#SVGID_70_);}
	.st34{clip-path:url(#SVGID_72_);}
	.st35{clip-path:url(#SVGID_74_);}
	.st36{clip-path:url(#SVGID_76_);}
	.st37{clip-path:url(#SVGID_78_);}
	.st38{clip-path:url(#SVGID_80_);}
	.st39{clip-path:url(#SVGID_82_);}
	.st40{clip-path:url(#SVGID_84_);}
	.st41{clip-path:url(#SVGID_86_);fill:#311F31;}
	.st42{clip-path:url(#SVGID_88_);}
	.st43{clip-path:url(#SVGID_90_);fill:#311F31;}
	.st44{clip-path:url(#SVGID_92_);}
	.st45{clip-path:url(#SVGID_94_);fill:#311F31;}
	.st46{clip-path:url(#SVGID_96_);}
	.st47{clip-path:url(#SVGID_98_);}
	.st48{clip-path:url(#SVGID_100_);}
	.st49{clip-path:url(#SVGID_102_);}
	.st50{clip-path:url(#SVGID_104_);}
	.st51{clip-path:url(#SVGID_106_);}
	.st52{clip-path:url(#SVGID_108_);}
	.st53{clip-path:url(#SVGID_110_);}
	.st54{clip-path:url(#SVGID_112_);}
	.st55{clip-path:url(#SVGID_114_);}
	.st56{clip-path:url(#SVGID_116_);}
	.st57{clip-path:url(#SVGID_118_);}
	.st58{clip-path:url(#SVGID_120_);}
	.st59{clip-path:url(#SVGID_122_);}
	.st60{clip-path:url(#SVGID_124_);}
	.st61{clip-path:url(#SVGID_126_);}
	.st62{clip-path:url(#SVGID_128_);}
	.st63{clip-path:url(#SVGID_130_);}
	.st64{clip-path:url(#SVGID_132_);}
	.st65{clip-path:url(#SVGID_134_);}
	.st66{clip-path:url(#SVGID_136_);}
	.st67{clip-path:url(#SVGID_138_);fill:#FFFFFF;}
	.st68{clip-path:url(#SVGID_140_);}
	.st69{clip-path:url(#SVGID_142_);}
	.st70{clip-path:url(#SVGID_144_);}
	.st71{clip-path:url(#SVGID_146_);fill:#9FA1A1;}
	.st72{clip-path:url(#SVGID_148_);}
	.st73{clip-path:url(#SVGID_150_);fill:#311F31;}
	.st74{clip-path:url(#SVGID_152_);}
	.st75{clip-path:url(#SVGID_154_);}
	.st76{clip-path:url(#SVGID_156_);}
	.st77{clip-path:url(#SVGID_158_);}
	.st78{clip-path:url(#SVGID_160_);}
	.st79{clip-path:url(#SVGID_162_);}
	.st80{clip-path:url(#SVGID_164_);}
	.st81{clip-path:url(#SVGID_166_);}
	.st82{clip-path:url(#SVGID_168_);}
	.st83{clip-path:url(#SVGID_170_);}
	.st84{clip-path:url(#SVGID_172_);}
	.st85{clip-path:url(#SVGID_174_);}
	.st86{clip-path:url(#SVGID_176_);}
	.st87{clip-path:url(#SVGID_178_);}
	.st88{clip-path:url(#SVGID_180_);}
	.st89{clip-path:url(#SVGID_182_);}
	.st90{clip-path:url(#SVGID_184_);}
	.st91{clip-path:url(#SVGID_186_);}
	.st92{clip-path:url(#SVGID_188_);}
	.st93{clip-path:url(#SVGID_190_);}
	.st94{clip-path:url(#SVGID_192_);}
	.st95{clip-path:url(#SVGID_194_);}
	.st96{clip-path:url(#SVGID_196_);}
	.st97{clip-path:url(#SVGID_198_);}
	.st98{clip-path:url(#SVGID_200_);}
	.st99{clip-path:url(#SVGID_202_);}
	.st100{clip-path:url(#SVGID_204_);}
	.st101{clip-path:url(#SVGID_206_);}
	.st102{clip-path:url(#SVGID_208_);}
	.st103{clip-path:url(#SVGID_210_);}
	.st104{clip-path:url(#SVGID_212_);}
	.st105{clip-path:url(#SVGID_214_);fill:#677532;}
	.st106{clip-path:url(#SVGID_216_);}
	.st107{clip-path:url(#SVGID_218_);fill:#677532;}
	.st108{clip-path:url(#SVGID_220_);}
	.st109{clip-path:url(#SVGID_222_);fill:#677532;}
	.st110{clip-path:url(#SVGID_224_);}
	.st111{clip-path:url(#SVGID_226_);fill:#677532;}
	.st112{clip-path:url(#SVGID_228_);}
	.st113{clip-path:url(#SVGID_230_);fill:#677532;}
	.st114{clip-path:url(#SVGID_232_);}
	.st115{clip-path:url(#SVGID_234_);fill:#AEBC47;}
	.st116{clip-path:url(#SVGID_236_);}
	.st117{clip-path:url(#SVGID_238_);fill:#677532;}
	.st118{clip-path:url(#SVGID_240_);}
	.st119{clip-path:url(#SVGID_242_);fill:#AEBC47;}
	.st120{clip-path:url(#SVGID_244_);}
	.st121{clip-path:url(#SVGID_246_);fill:#677532;}
	.st122{clip-path:url(#SVGID_248_);}
	.st123{clip-path:url(#SVGID_250_);fill:#677532;}
	.st124{clip-path:url(#SVGID_252_);}
	.st125{clip-path:url(#SVGID_254_);fill:#311F31;}
	.st126{clip-path:url(#SVGID_256_);}
	.st127{clip-path:url(#SVGID_258_);}
	.st128{clip-path:url(#SVGID_260_);}
	.st129{clip-path:url(#SVGID_262_);}
	.st130{clip-path:url(#SVGID_264_);}
	.st131{clip-path:url(#SVGID_266_);fill:#311F31;}
	.st132{clip-path:url(#SVGID_268_);}
	.st133{clip-path:url(#SVGID_270_);}
	.st134{clip-path:url(#SVGID_272_);}
	.st135{clip-path:url(#SVGID_274_);}
	.st136{clip-path:url(#SVGID_276_);}
	.st137{clip-path:url(#SVGID_278_);}
	.st138{clip-path:url(#SVGID_280_);}
	.st139{clip-path:url(#SVGID_282_);}
	.st140{clip-path:url(#SVGID_284_);}
	.st141{clip-path:url(#SVGID_286_);fill:#311F31;}
	.st142{clip-path:url(#SVGID_288_);}
	.st143{clip-path:url(#SVGID_290_);}
	.st144{clip-path:url(#SVGID_292_);}
	.st145{clip-path:url(#SVGID_294_);}
	.st146{clip-path:url(#SVGID_296_);}
	.st147{clip-path:url(#SVGID_298_);}
	.st148{clip-path:url(#SVGID_300_);}
	.st149{clip-path:url(#SVGID_302_);fill:#311F31;}
	.st150{clip-path:url(#SVGID_304_);}
	.st151{clip-path:url(#SVGID_306_);}
	.st152{clip-path:url(#SVGID_308_);}
	.st153{clip-path:url(#SVGID_310_);fill:#FFFFFF;}
	.st154{clip-path:url(#SVGID_312_);}
	.st155{clip-path:url(#SVGID_314_);fill:#FFFFFF;}
	.st156{clip-path:url(#SVGID_316_);}
	.st157{clip-path:url(#SVGID_318_);}
	.st158{clip-path:url(#SVGID_320_);}
	.st159{clip-path:url(#SVGID_322_);}
	.st160{clip-path:url(#SVGID_324_);}
	.st161{clip-path:url(#SVGID_326_);}
	.st162{clip-path:url(#SVGID_328_);}
	.st163{clip-path:url(#SVGID_330_);}
	.st164{clip-path:url(#SVGID_332_);}
	.st165{clip-path:url(#SVGID_334_);}
	.st166{clip-path:url(#SVGID_336_);}
	.st167{clip-path:url(#SVGID_338_);}
	.st168{clip-path:url(#SVGID_340_);}
	.st169{clip-path:url(#SVGID_342_);}
	.st170{clip-path:url(#SVGID_344_);}
	.st171{clip-path:url(#SVGID_346_);fill:#AEBC47;}
</style>
<g>
	<defs>
		<rect id="SVGID_1_" x="-210" y="-180" width="1200" height="1131"/>
	</defs>
	<clipPath id="SVGID_2_">
		<use xlink:href="#SVGID_1_"  style="overflow:visible;"/>
	</clipPath>
</g>
<g>
	<g>
		<defs>
			<path id="SVGID_3_" d="M178.42,24.14c-3.44,0-6.24-2.8-6.24-6.24c0-3.44,2.8-6.24,6.24-6.24c3.44,0,6.24,2.8,6.24,6.24
				C184.66,21.34,181.86,24.14,178.42,24.14z M178.42,13.64c-2.35,0-4.26,1.91-4.26,4.26c0,2.35,1.91,4.26,4.26,4.26
				s4.26-1.91,4.26-4.26C182.68,15.55,180.77,13.64,178.42,13.64z"/>
		</defs>
		<clipPath id="SVGID_4_">
			<use xlink:href="#SVGID_3_"  style="overflow:visible;"/>
		</clipPath>
		<g class="st0">
			<defs>
				<rect id="SVGID_5_" x="-210" y="-180" width="1200" height="1131"/>
			</defs>
			<clipPath id="SVGID_6_">
				<use xlink:href="#SVGID_5_"  style="overflow:visible;"/>
			</clipPath>
			<rect x="167.18" y="6.66" class="st1" width="22.48" height="22.48"/>
		</g>
	</g>
	<g>
		<defs>
			<path id="SVGID_7_" d="M218.35,174.07c-2.46,0-4.46-2-4.46-4.46c0-2.46,2-4.46,4.46-4.46s4.46,2,4.46,4.46
				C222.81,172.07,220.81,174.07,218.35,174.07z M218.35,166.34c-1.8,0-3.27,1.47-3.27,3.27c0,1.8,1.47,3.27,3.27,3.27
				s3.27-1.47,3.27-3.27C221.62,167.81,220.15,166.34,218.35,166.34z"/>
		</defs>
		<clipPath id="SVGID_8_">
			<use xlink:href="#SVGID_7_"  style="overflow:visible;"/>
		</clipPath>
		<g class="st2">
			<defs>
				<rect id="SVGID_9_" x="-210" y="-180" width="1200" height="1131"/>
			</defs>
			<clipPath id="SVGID_10_">
				<use xlink:href="#SVGID_9_"  style="overflow:visible;"/>
			</clipPath>
			<rect x="208.89" y="160.15" class="st3" width="18.91" height="18.92"/>
		</g>
	</g>
	<g>
		<defs>
			<path id="SVGID_11_" d="M191.49,31.14L191.49,31.14c-0.21,0-0.39-0.17-0.39-0.39v-1.08c0-0.21,0.17-0.39,0.39-0.39
				c0.21,0,0.39,0.17,0.39,0.39v1.08C191.88,30.97,191.7,31.14,191.49,31.14"/>
		</defs>
		<clipPath id="SVGID_12_">
			<use xlink:href="#SVGID_11_"  style="overflow:visible;"/>
		</clipPath>
		<g class="st4">
			<defs>
				<rect id="SVGID_13_" x="-210" y="-180" width="1200" height="1131"/>
			</defs>
			<clipPath id="SVGID_14_">
				<use xlink:href="#SVGID_13_"  style="overflow:visible;"/>
			</clipPath>
			<rect x="186.1" y="24.29" class="st5" width="10.77" height="11.85"/>
		</g>
	</g>
	<g>
		<defs>
			<path id="SVGID_15_" d="M191.49,34.19L191.49,34.19c-0.21,0-0.39-0.17-0.39-0.39v-1.08c0-0.21,0.17-0.39,0.39-0.39
				c0.21,0,0.39,0.17,0.39,0.39v1.08C191.88,34.02,191.7,34.19,191.49,34.19"/>
		</defs>
		<clipPath id="SVGID_16_">
			<use xlink:href="#SVGID_15_"  style="overflow:visible;"/>
		</clipPath>
		<g class="st6">
			<defs>
				<rect id="SVGID_17_" x="-210" y="-180" width="1200" height="1131"/>
			</defs>
			<clipPath id="SVGID_18_">
				<use xlink:href="#SVGID_17_"  style="overflow:visible;"/>
			</clipPath>
			<rect x="186.1" y="27.34" class="st7" width="10.77" height="11.85"/>
		</g>
	</g>
	<g>
		<defs>
			<path id="SVGID_19_" d="M194.05,31.74L194.05,31.74c0-0.21-0.17-0.39-0.39-0.39h-1.08c-0.21,0-0.39,0.17-0.39,0.39
				c0,0.21,0.17,0.39,0.39,0.39h1.08C193.87,32.13,194.05,31.95,194.05,31.74"/>
		</defs>
		<clipPath id="SVGID_20_">
			<use xlink:href="#SVGID_19_"  style="overflow:visible;"/>
		</clipPath>
		<g class="st8">
			<defs>
				<rect id="SVGID_21_" x="-210" y="-180" width="1200" height="1131"/>
			</defs>
			<clipPath id="SVGID_22_">
				<use xlink:href="#SVGID_21_"  style="overflow:visible;"/>
			</clipPath>
			<rect x="187.19" y="26.35" class="st9" width="11.85" height="10.77"/>
		</g>
	</g>
	<g>
		<defs>
			<path id="SVGID_23_" d="M190.81,31.74L190.81,31.74c0-0.21-0.17-0.39-0.39-0.39h-1.08c-0.21,0-0.39,0.17-0.39,0.39
				c0,0.21,0.17,0.39,0.39,0.39h1.08C190.64,32.13,190.81,31.95,190.81,31.74"/>
		</defs>
		<clipPath id="SVGID_24_">
			<use xlink:href="#SVGID_23_"  style="overflow:visible;"/>
		</clipPath>
		<g class="st10">
			<defs>
				<rect id="SVGID_25_" x="-210" y="-180" width="1200" height="1131"/>
			</defs>
			<clipPath id="SVGID_26_">
				<use xlink:href="#SVGID_25_"  style="overflow:visible;"/>
			</clipPath>
			<rect x="183.96" y="26.35" class="st11" width="11.85" height="10.77"/>
		</g>
	</g>
	<g>
		<defs>
			<path id="SVGID_27_" d="M68.74,215.28c0,1.7-1.37,3.07-3.07,3.07c-1.69,0-3.07-1.37-3.07-3.07s1.37-3.07,3.07-3.07
				C67.36,212.21,68.74,213.58,68.74,215.28"/>
		</defs>
		<clipPath id="SVGID_28_">
			<use xlink:href="#SVGID_27_"  style="overflow:visible;"/>
		</clipPath>
		<g class="st12">
			<defs>
				<rect id="SVGID_29_" x="-210" y="-180" width="1200" height="1131"/>
			</defs>
			<clipPath id="SVGID_30_">
				<use xlink:href="#SVGID_29_"  style="overflow:visible;"/>
			</clipPath>
			<rect x="57.6" y="207.21" class="st13" width="16.14" height="16.14"/>
		</g>
	</g>
	<g>
		<defs>
			<path id="SVGID_31_" d="M65.67,218.94c-2.02,0-3.66-1.64-3.66-3.66c0-2.02,1.64-3.66,3.66-3.66c2.02,0,3.66,1.64,3.66,3.66
				C69.33,217.3,67.69,218.94,65.67,218.94z M65.67,212.8c-1.36,0-2.47,1.11-2.47,2.48c0,1.36,1.11,2.48,2.47,2.48
				c1.37,0,2.48-1.11,2.48-2.48C68.14,213.92,67.03,212.8,65.67,212.8z"/>
		</defs>
		<clipPath id="SVGID_32_">
			<use xlink:href="#SVGID_31_"  style="overflow:visible;"/>
		</clipPath>
		<g class="st14">
			<defs>
				<rect id="SVGID_33_" x="-210" y="-180" width="1200" height="1131"/>
			</defs>
			<clipPath id="SVGID_34_">
				<use xlink:href="#SVGID_33_"  style="overflow:visible;"/>
			</clipPath>
			<rect x="57.01" y="206.62" class="st15" width="17.33" height="17.33"/>
		</g>
	</g>
	<g>
		<defs>
			<path id="SVGID_35_" d="M195.83,194.41c0,3.28-2.66,5.94-5.94,5.94c-3.28,0-5.94-2.66-5.94-5.94c0-3.28,2.66-5.94,5.94-5.94
				C193.17,188.46,195.83,191.13,195.83,194.41"/>
		</defs>
		<clipPath id="SVGID_36_">
			<use xlink:href="#SVGID_35_"  style="overflow:visible;"/>
		</clipPath>
		<g class="st16">
			<defs>
				<rect id="SVGID_37_" x="-210" y="-180" width="1200" height="1131"/>
			</defs>
			<clipPath id="SVGID_38_">
				<use xlink:href="#SVGID_37_"  style="overflow:visible;"/>
			</clipPath>
			<rect x="178.94" y="183.46" class="st17" width="21.88" height="21.89"/>
		</g>
	</g>
	<g>
		<defs>
			<path id="SVGID_39_" d="M189.89,201.14c-3.71,0-6.73-3.02-6.73-6.73c0-3.71,3.02-6.74,6.73-6.74c3.71,0,6.73,3.02,6.73,6.74
				C196.62,198.12,193.6,201.14,189.89,201.14z M189.89,189.26c-2.84,0-5.15,2.31-5.15,5.15c0,2.84,2.31,5.15,5.15,5.15
				c2.84,0,5.15-2.31,5.15-5.15C195.04,191.57,192.73,189.26,189.89,189.26z"/>
		</defs>
		<clipPath id="SVGID_40_">
			<use xlink:href="#SVGID_39_"  style="overflow:visible;"/>
		</clipPath>
		<g class="st18">
			<defs>
				<rect id="SVGID_41_" x="-210" y="-180" width="1200" height="1131"/>
			</defs>
			<clipPath id="SVGID_42_">
				<use xlink:href="#SVGID_41_"  style="overflow:visible;"/>
			</clipPath>
			<rect x="178.15" y="182.67" class="st19" width="23.47" height="23.47"/>
		</g>
	</g>
	<g>
		<defs>
			<path id="SVGID_43_" d="M152.45,123.53L152.45,123.53c-0.28,0-0.51-0.23-0.51-0.51v-1.41c0-0.28,0.23-0.51,0.51-0.51
				c0.28,0,0.5,0.23,0.5,0.51v1.41C152.96,123.3,152.73,123.53,152.45,123.53"/>
		</defs>
		<clipPath id="SVGID_44_">
			<use xlink:href="#SVGID_43_"  style="overflow:visible;"/>
		</clipPath>
		<g class="st20">
			<defs>
				<rect id="SVGID_45_" x="-210" y="-180" width="1200" height="1131"/>
			</defs>
			<clipPath id="SVGID_46_">
				<use xlink:href="#SVGID_45_"  style="overflow:visible;"/>
			</clipPath>
			<rect x="146.95" y="116.11" class="st21" width="11.01" height="12.42"/>
		</g>
	</g>
	<g>
		<defs>
			<path id="SVGID_47_" d="M152.45,127.52L152.45,127.52c-0.28,0-0.51-0.23-0.51-0.5v-1.41c0-0.28,0.23-0.5,0.51-0.5
				c0.28,0,0.5,0.23,0.5,0.5v1.41C152.96,127.29,152.73,127.52,152.45,127.52"/>
		</defs>
		<clipPath id="SVGID_48_">
			<use xlink:href="#SVGID_47_"  style="overflow:visible;"/>
		</clipPath>
		<g class="st22">
			<defs>
				<rect id="SVGID_49_" x="-210" y="-180" width="1200" height="1131"/>
			</defs>
			<clipPath id="SVGID_50_">
				<use xlink:href="#SVGID_49_"  style="overflow:visible;"/>
			</clipPath>
			<rect x="146.95" y="120.1" class="st23" width="11.01" height="12.42"/>
		</g>
	</g>
	<g>
		<defs>
			<path id="SVGID_51_" d="M155.79,124.31L155.79,124.31c0-0.28-0.23-0.51-0.5-0.51h-1.41c-0.28,0-0.5,0.23-0.5,0.51
				c0,0.28,0.23,0.5,0.5,0.5h1.41C155.56,124.82,155.79,124.59,155.79,124.31"/>
		</defs>
		<clipPath id="SVGID_52_">
			<use xlink:href="#SVGID_51_"  style="overflow:visible;"/>
		</clipPath>
		<g class="st24">
			<defs>
				<rect id="SVGID_53_" x="-210" y="-180" width="1200" height="1131"/>
			</defs>
			<clipPath id="SVGID_54_">
				<use xlink:href="#SVGID_53_"  style="overflow:visible;"/>
			</clipPath>
			<rect x="148.37" y="118.81" class="st25" width="12.42" height="11.01"/>
		</g>
	</g>
	<g>
		<defs>
			<path id="SVGID_55_" d="M151.57,124.31L151.57,124.31c0-0.28-0.23-0.51-0.51-0.51h-1.41c-0.28,0-0.51,0.23-0.51,0.51
				c0,0.28,0.23,0.5,0.51,0.5h1.41C151.34,124.82,151.57,124.59,151.57,124.31"/>
		</defs>
		<clipPath id="SVGID_56_">
			<use xlink:href="#SVGID_55_"  style="overflow:visible;"/>
		</clipPath>
		<g class="st26">
			<defs>
				<rect id="SVGID_57_" x="-210" y="-180" width="1200" height="1131"/>
			</defs>
			<clipPath id="SVGID_58_">
				<use xlink:href="#SVGID_57_"  style="overflow:visible;"/>
			</clipPath>
			<rect x="144.15" y="118.81" class="st27" width="12.42" height="11.01"/>
		</g>
	</g>
	<g>
		<defs>
			<path id="SVGID_59_" d="M162.92,55.26L162.92,55.26c-0.43,0-0.78-0.35-0.78-0.78v-2.16c0-0.43,0.35-0.78,0.78-0.78
				c0.43,0,0.78,0.35,0.78,0.78v2.16C163.7,54.91,163.35,55.26,162.92,55.26"/>
		</defs>
		<clipPath id="SVGID_60_">
			<use xlink:href="#SVGID_59_"  style="overflow:visible;"/>
		</clipPath>
		<g class="st28">
			<defs>
				<rect id="SVGID_61_" x="-210" y="-180" width="1200" height="1131"/>
			</defs>
			<clipPath id="SVGID_62_">
				<use xlink:href="#SVGID_61_"  style="overflow:visible;"/>
			</clipPath>
			<rect x="157.15" y="46.54" class="st29" width="11.55" height="13.72"/>
		</g>
	</g>
	<g>
		<defs>
			<path id="SVGID_63_" d="M162.92,61.39L162.92,61.39c-0.43,0-0.78-0.35-0.78-0.78v-2.16c0-0.43,0.35-0.78,0.78-0.78
				c0.43,0,0.78,0.35,0.78,0.78v2.16C163.7,61.04,163.35,61.39,162.92,61.39"/>
		</defs>
		<clipPath id="SVGID_64_">
			<use xlink:href="#SVGID_63_"  style="overflow:visible;"/>
		</clipPath>
		<g class="st30">
			<defs>
				<rect id="SVGID_65_" x="-210" y="-180" width="1200" height="1131"/>
			</defs>
			<clipPath id="SVGID_66_">
				<use xlink:href="#SVGID_65_"  style="overflow:visible;"/>
			</clipPath>
			<rect x="157.15" y="52.68" class="st31" width="11.55" height="13.72"/>
		</g>
	</g>
	<g>
		<defs>
			<path id="SVGID_67_" d="M168.05,56.47L168.05,56.47c0-0.43-0.35-0.78-0.78-0.78h-2.16c-0.43,0-0.78,0.35-0.78,0.78
				c0,0.43,0.35,0.78,0.78,0.78h2.16C167.71,57.24,168.05,56.9,168.05,56.47"/>
		</defs>
		<clipPath id="SVGID_68_">
			<use xlink:href="#SVGID_67_"  style="overflow:visible;"/>
		</clipPath>
		<g class="st32">
			<defs>
				<rect id="SVGID_69_" x="-210" y="-180" width="1200" height="1131"/>
			</defs>
			<clipPath id="SVGID_70_">
				<use xlink:href="#SVGID_69_"  style="overflow:visible;"/>
			</clipPath>
			<rect x="159.34" y="50.69" class="st33" width="13.72" height="11.55"/>
		</g>
	</g>
	<g>
		<defs>
			<path id="SVGID_71_" d="M161.56,56.47L161.56,56.47c0-0.43-0.35-0.78-0.78-0.78h-2.16c-0.43,0-0.78,0.35-0.78,0.78
				c0,0.43,0.35,0.78,0.78,0.78h2.16C161.22,57.24,161.56,56.9,161.56,56.47"/>
		</defs>
		<clipPath id="SVGID_72_">
			<use xlink:href="#SVGID_71_"  style="overflow:visible;"/>
		</clipPath>
		<g class="st34">
			<defs>
				<rect id="SVGID_73_" x="-210" y="-180" width="1200" height="1131"/>
			</defs>
			<clipPath id="SVGID_74_">
				<use xlink:href="#SVGID_73_"  style="overflow:visible;"/>
			</clipPath>
			<rect x="152.85" y="50.69" class="st35" width="13.72" height="11.55"/>
		</g>
	</g>
	<g>
		<defs>
			<path id="SVGID_75_" d="M171.65,99.61c-2.85,0-5.18-2.32-5.18-5.18c0-2.85,2.32-5.18,5.18-5.18c2.85,0,5.18,2.32,5.18,5.18
				C176.82,97.29,174.5,99.61,171.65,99.61z M171.65,90.28c-2.29,0-4.16,1.87-4.16,4.16c0,2.29,1.86,4.16,4.16,4.16
				c2.29,0,4.16-1.86,4.16-4.16C175.8,92.14,173.94,90.28,171.65,90.28z"/>
		</defs>
		<clipPath id="SVGID_76_">
			<use xlink:href="#SVGID_75_"  style="overflow:visible;"/>
		</clipPath>
		<g class="st36">
			<defs>
				<rect id="SVGID_77_" x="-210" y="-180" width="1200" height="1131"/>
			</defs>
			<clipPath id="SVGID_78_">
				<use xlink:href="#SVGID_77_"  style="overflow:visible;"/>
			</clipPath>
			<rect x="161.47" y="84.26" class="st37" width="20.35" height="20.35"/>
		</g>
	</g>
	<g>
		<defs>
			<path id="SVGID_79_" d="M189.83,111.76c-1.45,0-2.63-1.18-2.63-2.63c0-1.45,1.18-2.63,2.63-2.63c1.45,0,2.63,1.18,2.63,2.63
				C192.46,110.58,191.28,111.76,189.83,111.76z M189.83,107.51c-0.89,0-1.61,0.72-1.61,1.61c0,0.89,0.72,1.61,1.61,1.61
				c0.89,0,1.61-0.72,1.61-1.61C191.44,108.24,190.72,107.51,189.83,107.51z"/>
		</defs>
		<clipPath id="SVGID_80_">
			<use xlink:href="#SVGID_79_"  style="overflow:visible;"/>
		</clipPath>
		<g class="st38">
			<defs>
				<rect id="SVGID_81_" x="-210" y="-180" width="1200" height="1131"/>
			</defs>
			<clipPath id="SVGID_82_">
				<use xlink:href="#SVGID_81_"  style="overflow:visible;"/>
			</clipPath>
			<rect x="182.2" y="101.49" class="st39" width="15.26" height="15.26"/>
		</g>
	</g>
	<g>
		<defs>
			<path id="SVGID_83_" d="M65.14,14.78L65.14,14.78c-0.25,0-0.44-0.2-0.44-0.44V13.1c0-0.25,0.2-0.44,0.44-0.44
				c0.25,0,0.44,0.2,0.44,0.44v1.24C65.59,14.58,65.39,14.78,65.14,14.78"/>
		</defs>
		<clipPath id="SVGID_84_">
			<use xlink:href="#SVGID_83_"  style="overflow:visible;"/>
		</clipPath>
		<g class="st40">
			<defs>
				<rect id="SVGID_85_" x="-210" y="-180" width="1200" height="1131"/>
			</defs>
			<clipPath id="SVGID_86_">
				<use xlink:href="#SVGID_85_"  style="overflow:visible;"/>
			</clipPath>
			<rect x="59.7" y="7.65" class="st41" width="10.89" height="12.13"/>
		</g>
	</g>
	<g>
		<defs>
			<path id="SVGID_87_" d="M65.14,18.29L65.14,18.29c-0.25,0-0.44-0.2-0.44-0.44v-1.24c0-0.25,0.2-0.44,0.44-0.44
				c0.25,0,0.44,0.2,0.44,0.44v1.24C65.59,18.09,65.39,18.29,65.14,18.29"/>
		</defs>
		<clipPath id="SVGID_88_">
			<use xlink:href="#SVGID_87_"  style="overflow:visible;"/>
		</clipPath>
		<g class="st42">
			<defs>
				<rect id="SVGID_89_" x="-210" y="-180" width="1200" height="1131"/>
			</defs>
			<clipPath id="SVGID_90_">
				<use xlink:href="#SVGID_89_"  style="overflow:visible;"/>
			</clipPath>
			<rect x="59.7" y="11.16" class="st43" width="10.89" height="12.13"/>
		</g>
	</g>
	<g>
		<defs>
			<path id="SVGID_91_" d="M68.08,15.47L68.08,15.47c0-0.25-0.2-0.44-0.44-0.44h-1.24c-0.25,0-0.44,0.2-0.44,0.44
				c0,0.25,0.2,0.44,0.44,0.44h1.24C67.88,15.91,68.08,15.72,68.08,15.47"/>
		</defs>
		<clipPath id="SVGID_92_">
			<use xlink:href="#SVGID_91_"  style="overflow:visible;"/>
		</clipPath>
		<g class="st44">
			<defs>
				<rect id="SVGID_93_" x="-210" y="-180" width="1200" height="1131"/>
			</defs>
			<clipPath id="SVGID_94_">
				<use xlink:href="#SVGID_93_"  style="overflow:visible;"/>
			</clipPath>
			<rect x="60.95" y="10.03" class="st45" width="12.13" height="10.89"/>
		</g>
	</g>
	<g>
		<defs>
			<path id="SVGID_95_" d="M64.36,15.47L64.36,15.47c0-0.25-0.2-0.44-0.44-0.44h-1.24c-0.25,0-0.44,0.2-0.44,0.44
				c0,0.25,0.2,0.44,0.44,0.44h1.24C64.16,15.91,64.36,15.72,64.36,15.47"/>
		</defs>
		<clipPath id="SVGID_96_">
			<use xlink:href="#SVGID_95_"  style="overflow:visible;"/>
		</clipPath>
		<g class="st46">
			<defs>
				<rect id="SVGID_97_" x="-210" y="-180" width="1200" height="1131"/>
			</defs>
			<clipPath id="SVGID_98_">
				<use xlink:href="#SVGID_97_"  style="overflow:visible;"/>
			</clipPath>
			<rect x="57.24" y="10.03" class="st47" width="12.13" height="10.89"/>
		</g>
	</g>
	<g>
		<defs>
			<path id="SVGID_99_" d="M55.58,3.47L55.58,3.47c-0.4,0-0.73-0.32-0.73-0.73V0.73c0-0.4,0.33-0.73,0.73-0.73
				c0.4,0,0.73,0.32,0.73,0.73v2.02C56.3,3.15,55.98,3.47,55.58,3.47"/>
		</defs>
		<clipPath id="SVGID_100_">
			<use xlink:href="#SVGID_99_"  style="overflow:visible;"/>
		</clipPath>
		<g class="st48">
			<defs>
				<rect id="SVGID_101_" x="-210" y="-180" width="1200" height="1131"/>
			</defs>
			<clipPath id="SVGID_102_">
				<use xlink:href="#SVGID_101_"  style="overflow:visible;"/>
			</clipPath>
			<rect x="49.85" y="-5" class="st49" width="11.45" height="13.47"/>
		</g>
	</g>
	<g>
		<defs>
			<path id="SVGID_103_" d="M55.58,9.2L55.58,9.2c-0.4,0-0.73-0.32-0.73-0.73V6.45c0-0.4,0.33-0.73,0.73-0.73
				c0.4,0,0.73,0.32,0.73,0.73v2.02C56.3,8.88,55.98,9.2,55.58,9.2"/>
		</defs>
		<clipPath id="SVGID_104_">
			<use xlink:href="#SVGID_103_"  style="overflow:visible;"/>
		</clipPath>
		<g class="st50">
			<defs>
				<rect id="SVGID_105_" x="-210" y="-180" width="1200" height="1131"/>
			</defs>
			<clipPath id="SVGID_106_">
				<use xlink:href="#SVGID_105_"  style="overflow:visible;"/>
			</clipPath>
			<rect x="49.85" y="0.73" class="st51" width="11.45" height="13.47"/>
		</g>
	</g>
	<g>
		<defs>
			<path id="SVGID_107_" d="M60.37,4.6L60.37,4.6c0-0.4-0.32-0.73-0.73-0.73h-2.02c-0.4,0-0.73,0.33-0.73,0.73
				c0,0.4,0.32,0.73,0.73,0.73h2.02C60.04,5.33,60.37,5,60.37,4.6"/>
		</defs>
		<clipPath id="SVGID_108_">
			<use xlink:href="#SVGID_107_"  style="overflow:visible;"/>
		</clipPath>
		<g class="st52">
			<defs>
				<rect id="SVGID_109_" x="-210" y="-180" width="1200" height="1131"/>
			</defs>
			<clipPath id="SVGID_110_">
				<use xlink:href="#SVGID_109_"  style="overflow:visible;"/>
			</clipPath>
			<rect x="51.9" y="-1.13" class="st53" width="13.47" height="11.45"/>
		</g>
	</g>
	<g>
		<defs>
			<path id="SVGID_111_" d="M54.31,4.6L54.31,4.6c0-0.4-0.32-0.73-0.73-0.73h-2.02c-0.4,0-0.73,0.33-0.73,0.73
				c0,0.4,0.33,0.73,0.73,0.73h2.02C53.98,5.33,54.31,5,54.31,4.6"/>
		</defs>
		<clipPath id="SVGID_112_">
			<use xlink:href="#SVGID_111_"  style="overflow:visible;"/>
		</clipPath>
		<g class="st54">
			<defs>
				<rect id="SVGID_113_" x="-210" y="-180" width="1200" height="1131"/>
			</defs>
			<clipPath id="SVGID_114_">
				<use xlink:href="#SVGID_113_"  style="overflow:visible;"/>
			</clipPath>
			<rect x="45.83" y="-1.13" class="st55" width="13.47" height="11.45"/>
		</g>
	</g>
	<g>
		<defs>
			<path id="SVGID_115_" d="M70.83,59.07L70.83,59.07c-0.6,0-1.09-0.49-1.09-1.09v-3.05c0-0.6,0.49-1.09,1.09-1.09
				c0.6,0,1.09,0.49,1.09,1.09v3.05C71.92,58.57,71.43,59.07,70.83,59.07"/>
		</defs>
		<clipPath id="SVGID_116_">
			<use xlink:href="#SVGID_115_"  style="overflow:visible;"/>
		</clipPath>
		<g class="st56">
			<defs>
				<rect id="SVGID_117_" x="-210" y="-180" width="1200" height="1131"/>
			</defs>
			<clipPath id="SVGID_118_">
				<use xlink:href="#SVGID_117_"  style="overflow:visible;"/>
			</clipPath>
			<rect x="64.74" y="48.83" class="st57" width="12.19" height="15.24"/>
		</g>
	</g>
	<g>
		<defs>
			<path id="SVGID_119_" d="M70.83,67.7L70.83,67.7c-0.6,0-1.09-0.49-1.09-1.1v-3.05c0-0.6,0.49-1.09,1.09-1.09
				c0.6,0,1.09,0.49,1.09,1.09v3.05C71.92,67.21,71.43,67.7,70.83,67.7"/>
		</defs>
		<clipPath id="SVGID_120_">
			<use xlink:href="#SVGID_119_"  style="overflow:visible;"/>
		</clipPath>
		<g class="st58">
			<defs>
				<rect id="SVGID_121_" x="-210" y="-180" width="1200" height="1131"/>
			</defs>
			<clipPath id="SVGID_122_">
				<use xlink:href="#SVGID_121_"  style="overflow:visible;"/>
			</clipPath>
			<rect x="64.74" y="57.47" class="st59" width="12.19" height="15.24"/>
		</g>
	</g>
	<g>
		<defs>
			<path id="SVGID_123_" d="M78.06,60.77L78.06,60.77c0-0.6-0.49-1.09-1.09-1.09h-3.05c-0.6,0-1.09,0.49-1.09,1.09
				c0,0.6,0.49,1.09,1.09,1.09h3.05C77.57,61.86,78.06,61.37,78.06,60.77"/>
		</defs>
		<clipPath id="SVGID_124_">
			<use xlink:href="#SVGID_123_"  style="overflow:visible;"/>
		</clipPath>
		<g class="st60">
			<defs>
				<rect id="SVGID_125_" x="-210" y="-180" width="1200" height="1131"/>
			</defs>
			<clipPath id="SVGID_126_">
				<use xlink:href="#SVGID_125_"  style="overflow:visible;"/>
			</clipPath>
			<rect x="67.82" y="54.67" class="st61" width="15.23" height="12.19"/>
		</g>
	</g>
	<g>
		<defs>
			<path id="SVGID_127_" d="M68.91,60.77L68.91,60.77c0-0.6-0.49-1.09-1.09-1.09h-3.05c-0.6,0-1.09,0.49-1.09,1.09
				c0,0.6,0.49,1.09,1.09,1.09h3.05C68.42,61.86,68.91,61.37,68.91,60.77"/>
		</defs>
		<clipPath id="SVGID_128_">
			<use xlink:href="#SVGID_127_"  style="overflow:visible;"/>
		</clipPath>
		<g class="st62">
			<defs>
				<rect id="SVGID_129_" x="-210" y="-180" width="1200" height="1131"/>
			</defs>
			<clipPath id="SVGID_130_">
				<use xlink:href="#SVGID_129_"  style="overflow:visible;"/>
			</clipPath>
			<rect x="58.68" y="54.67" class="st63" width="15.23" height="12.19"/>
		</g>
	</g>
	<g>
		<defs>
			<path id="SVGID_131_" d="M107.71,52.77c-3.82,0-6.92-3.11-6.92-6.92c0-3.82,3.11-6.93,6.92-6.93c3.82,0,6.92,3.11,6.92,6.93
				C114.64,49.66,111.53,52.77,107.71,52.77z M107.71,40.28c-3.07,0-5.56,2.49-5.56,5.56c0,3.07,2.49,5.56,5.56,5.56
				c3.07,0,5.56-2.49,5.56-5.56C113.27,42.78,110.78,40.28,107.71,40.28z"/>
		</defs>
		<clipPath id="SVGID_132_">
			<use xlink:href="#SVGID_131_"  style="overflow:visible;"/>
		</clipPath>
		<g class="st64">
			<defs>
				<rect id="SVGID_133_" x="-210" y="-180" width="1200" height="1131"/>
			</defs>
			<clipPath id="SVGID_134_">
				<use xlink:href="#SVGID_133_"  style="overflow:visible;"/>
			</clipPath>
			<rect x="95.79" y="33.92" class="st65" width="23.85" height="23.85"/>
		</g>
	</g>
	<g>
		<defs>
			<path id="SVGID_135_" d="M216.91,114.72c0,56.89-46.11,103.01-102.99,103.01S10.92,171.61,10.92,114.72
				c0-56.89,46.11-103.01,102.99-103.01S216.91,57.82,216.91,114.72"/>
		</defs>
		<clipPath id="SVGID_136_">
			<use xlink:href="#SVGID_135_"  style="overflow:visible;"/>
		</clipPath>
		<g class="st66">
			<defs>
				<rect id="SVGID_137_" x="-210" y="-180" width="1200" height="1131"/>
			</defs>
			<clipPath id="SVGID_138_">
				<use xlink:href="#SVGID_137_"  style="overflow:visible;"/>
			</clipPath>
			<rect x="5.92" y="6.7" class="st67" width="215.99" height="216.03"/>
		</g>
	</g>
	<g>
		<defs>
			<path id="SVGID_139_" d="M113.81,219.4c-2.62,0-5.27-0.1-7.87-0.29c-0.76-0.06-1.34-0.72-1.28-1.49
				c0.06-0.76,0.72-1.34,1.49-1.28c2.53,0.19,5.11,0.28,7.66,0.28c10.74,0,21.32-1.67,31.44-4.96c0.53-0.17,1.09-0.01,1.45,0.38
				c0.05-0.52,0.39-1,0.92-1.18c6.8-2.4,13.37-5.55,19.53-9.35c0.65-0.4,1.51-0.2,1.91,0.45c0.4,0.65,0.2,1.51-0.45,1.91
				c-6.32,3.91-13.07,7.14-20.06,9.61c-0.54,0.19-1.12,0.03-1.48-0.37c-0.05,0.54-0.41,1.02-0.95,1.2
				C135.72,217.68,124.85,219.4,113.81,219.4z M84.46,215.15c-0.13,0-0.26-0.02-0.4-0.06c-0.82-0.24-1.65-0.5-2.46-0.76
				c-0.73-0.24-1.13-1.02-0.89-1.75c0.24-0.73,1.02-1.13,1.75-0.89c0.79,0.26,1.59,0.5,2.39,0.74c0.73,0.22,1.15,0.99,0.93,1.72
				C85.61,214.76,85.06,215.15,84.46,215.15z M47.18,194.94c-0.32,0-0.64-0.11-0.9-0.33c-5.66-4.81-10.82-10.23-15.33-16.11
				c-0.35-0.45-0.37-1.05-0.11-1.52c-0.52,0.12-1.09-0.07-1.43-0.54c-8.08-11.08-13.81-23.43-17.03-36.7
				c-0.18-0.74,0.28-1.49,1.02-1.68c0.74-0.18,1.49,0.28,1.67,1.02c3.14,12.92,8.72,24.94,16.58,35.72
				c0.33,0.45,0.35,1.04,0.09,1.49c0.51-0.12,1.07,0.06,1.41,0.51c4.4,5.73,9.42,11.01,14.93,15.69c0.58,0.5,0.65,1.37,0.16,1.95
				C47.97,194.77,47.58,194.94,47.18,194.94z M197.15,176.92c-0.28,0-0.57-0.09-0.81-0.27c-0.62-0.45-0.76-1.32-0.31-1.94
				c0.49-0.67,0.98-1.36,1.45-2.04c0.43-0.63,1.3-0.79,1.93-0.35c0.63,0.44,0.79,1.3,0.35,1.93c-0.49,0.7-0.99,1.41-1.49,2.1
				C198,176.73,197.58,176.92,197.15,176.92z M209.1,155.56c-0.18,0-0.35-0.03-0.53-0.1c-0.71-0.29-1.05-1.1-0.75-1.81
				c5.05-12.26,7.6-25.27,7.6-38.65l0-0.23c0-0.56,0.33-1.04,0.81-1.26c-0.48-0.21-0.83-0.68-0.84-1.24
				c-0.19-7.25-1.15-14.47-2.86-21.46c-0.18-0.74,0.27-1.49,1.02-1.68c0.74-0.18,1.49,0.27,1.68,1.02
				c1.75,7.18,2.74,14.6,2.94,22.05c0.01,0.57-0.32,1.07-0.81,1.3c0.5,0.21,0.84,0.7,0.84,1.27V115c0,13.74-2.63,27.1-7.81,39.7
				C210.16,155.24,209.64,155.56,209.1,155.56z M10.85,119.04c-0.75,0-1.37-0.6-1.39-1.35c-0.02-0.85-0.03-1.72-0.03-2.57
				c0-0.77,0.62-1.39,1.38-1.39c0,0,0,0,0,0c0.77,0,1.39,0.62,1.39,1.39c0,0.83,0.01,1.67,0.03,2.5c0.02,0.77-0.59,1.4-1.35,1.42
				C10.88,119.04,10.86,119.04,10.85,119.04z M18.48,77.32c-0.18,0-0.35-0.03-0.53-0.1c-0.71-0.29-1.05-1.1-0.76-1.81
				c2.81-6.86,6.38-13.44,10.6-19.56c0.33-0.47,0.89-0.68,1.42-0.57c-0.28-0.46-0.27-1.07,0.07-1.53
				c8.04-11.08,18.01-20.35,29.63-27.55c0.65-0.4,1.51-0.2,1.91,0.45c0.4,0.65,0.2,1.51-0.45,1.91
				c-11.32,7.01-21.02,16.04-28.85,26.82c-0.33,0.45-0.88,0.65-1.4,0.54c0.27,0.45,0.27,1.04-0.05,1.5
				c-4.11,5.96-7.58,12.37-10.31,19.04C19.55,76.99,19.03,77.32,18.48,77.32z M197.03,55.67c-0.43,0-0.85-0.2-1.12-0.57
				c-0.49-0.67-0.99-1.34-1.5-2c-0.47-0.61-0.35-1.48,0.25-1.94c0.61-0.47,1.48-0.35,1.94,0.25c0.52,0.68,1.04,1.37,1.54,2.06
				c0.45,0.62,0.32,1.49-0.3,1.94C197.6,55.58,197.31,55.67,197.03,55.67z M180.36,37.76c-0.32,0-0.64-0.11-0.9-0.33
				c-10.19-8.63-21.76-15.08-34.41-19.16c-0.53-0.17-0.89-0.64-0.95-1.16c-0.35,0.4-0.9,0.58-1.44,0.42
				c-6.91-2.04-14.08-3.35-21.3-3.88c-0.76-0.06-1.34-0.72-1.28-1.48c0.06-0.76,0.72-1.34,1.48-1.28
				c7.42,0.55,14.78,1.89,21.88,3.98c0.55,0.16,0.92,0.63,0.98,1.17c0.35-0.41,0.93-0.59,1.47-0.41
				c12.99,4.19,24.88,10.82,35.35,19.69c0.58,0.5,0.66,1.37,0.16,1.95C181.14,37.59,180.75,37.76,180.36,37.76z M79.43,19.25
				c-0.57,0-1.11-0.36-1.31-0.92c-0.26-0.72,0.12-1.51,0.84-1.77c0.8-0.28,1.62-0.56,2.43-0.83c0.73-0.24,1.51,0.16,1.75,0.89
				c0.24,0.73-0.16,1.51-0.89,1.75c-0.79,0.26-1.59,0.53-2.37,0.81C79.74,19.23,79.59,19.25,79.43,19.25z"/>
		</defs>
		<clipPath id="SVGID_140_">
			<use xlink:href="#SVGID_139_"  style="overflow:visible;"/>
		</clipPath>
		<g class="st68">
			<defs>
				<rect id="SVGID_141_" x="-210" y="-180" width="1200" height="1131"/>
			</defs>
			<clipPath id="SVGID_142_">
				<use xlink:href="#SVGID_141_"  style="overflow:visible;"/>
			</clipPath>
			<rect x="4.43" y="5.88" class="st69" width="218.76" height="218.52"/>
		</g>
	</g>
	<g>
		<defs>
			<path id="SVGID_143_" d="M114.5,211.87L114.5,211.87c-0.77,0-1.39-0.62-1.4-1.38v-0.02c0-0.75,0.62-1.37,1.38-1.38
				c1.69-0.01,3.39-0.07,5.07-0.17c0.77-0.04,1.42,0.54,1.47,1.3c0,0.03,0,0.06,0,0.09c0,0.73-0.57,1.33-1.3,1.38
				C117.99,211.8,116.23,211.86,114.5,211.87z M109.34,211.77c-0.02,0-0.04,0-0.06,0c-1.74-0.08-3.49-0.21-5.21-0.38
				c-0.71-0.07-1.25-0.66-1.25-1.38c0-0.05,0-0.1,0.01-0.14c0.08-0.76,0.76-1.32,1.52-1.24c1.67,0.17,3.37,0.29,5.06,0.37
				c0.74,0.03,1.32,0.64,1.32,1.38c0,0.02,0,0.05,0,0.07C110.69,211.19,110.08,211.77,109.34,211.77z M124.76,211.25
				c-0.7,0-1.3-0.53-1.38-1.23c-0.01-0.05-0.01-0.11-0.01-0.16c0-0.7,0.53-1.3,1.23-1.38c1.67-0.19,3.36-0.43,5.02-0.71
				c0.75-0.13,1.47,0.39,1.6,1.14c0.01,0.07,0.02,0.15,0.02,0.23c0,0.68-0.48,1.26-1.16,1.37c-1.71,0.29-3.45,0.54-5.17,0.73
				C124.87,211.25,124.81,211.25,124.76,211.25z M99.1,210.75c-0.07,0-0.14-0.01-0.21-0.02c-1.72-0.27-3.45-0.58-5.14-0.94
				c-0.64-0.14-1.1-0.71-1.1-1.36c0-0.09,0.01-0.19,0.03-0.28c0.15-0.73,0.91-1.23,1.64-1.07c1.65,0.35,3.33,0.65,4.99,0.91
				c0.67,0.1,1.18,0.69,1.17,1.37c0,0.07-0.01,0.14-0.02,0.21C100.36,210.24,99.77,210.75,99.1,210.75z M134.91,209.54
				c-0.64,0-1.21-0.46-1.35-1.08c-0.02-0.1-0.03-0.21-0.03-0.31c0-0.65,0.45-1.2,1.08-1.34c1.65-0.37,3.3-0.79,4.92-1.25
				c0.12-0.04,0.25-0.05,0.38-0.05c0.62,0,1.16,0.41,1.33,1.01c0.04,0.12,0.05,0.25,0.05,0.38c0,0.62-0.42,1.16-1.01,1.33
				c-1.66,0.47-3.37,0.9-5.06,1.29C135.11,209.52,135.01,209.54,134.91,209.54z M89.02,208.62c-0.12,0-0.24-0.02-0.36-0.05
				c-1.67-0.45-3.36-0.95-5.01-1.49c-0.57-0.19-0.96-0.72-0.96-1.32c0-0.14,0.02-0.29,0.07-0.43c0.19-0.57,0.72-0.96,1.32-0.96
				c0.14,0,0.29,0.02,0.43,0.07l0.02,0.01c1.6,0.52,3.23,1.01,4.85,1.44c0.6,0.16,1.03,0.71,1.03,1.34c0,0.12-0.02,0.24-0.05,0.36
				C90.2,208.2,89.65,208.62,89.02,208.62z M144.81,206.73c-0.59,0-1.12-0.38-1.31-0.94c-0.05-0.14-0.07-0.29-0.08-0.44
				c0-0.59,0.37-1.12,0.92-1.31l0.01-0.01c0.01,0,0.02-0.01,0.03-0.01c1.58-0.54,3.17-1.14,4.72-1.77c0.17-0.07,0.34-0.1,0.52-0.1
				c0.57,0,1.07,0.34,1.29,0.87c0.07,0.17,0.1,0.34,0.1,0.52c0,0.57-0.34,1.07-0.87,1.28c-1.61,0.65-3.26,1.27-4.89,1.83
				C145.12,206.7,144.96,206.73,144.81,206.73z M79.24,205.42c-0.17,0-0.34-0.03-0.5-0.09c-0.31-0.12-0.62-0.24-0.92-0.36
				l-0.05-0.02c-0.36-0.14-0.73-0.29-1.09-0.44c-0.93-0.39-1.85-0.79-2.75-1.19c-0.5-0.22-0.82-0.72-0.82-1.26
				c0-0.2,0.04-0.39,0.12-0.57c0.22-0.5,0.72-0.82,1.26-0.82c0.2,0,0.39,0.04,0.57,0.12c0.88,0.4,1.78,0.79,2.68,1.16
				c0.36,0.15,0.74,0.3,1.07,0.44c0.33,0.13,0.63,0.25,0.93,0.37c0.53,0.21,0.88,0.71,0.88,1.29c0,0.17-0.03,0.35-0.09,0.51
				C80.32,205.07,79.81,205.42,79.24,205.42z M154.34,202.87c-0.54,0-1.03-0.31-1.26-0.8c-0.09-0.19-0.13-0.38-0.13-0.59
				c0-0.53,0.31-1.03,0.79-1.26l0.01,0c0.01,0,0.02-0.01,0.03-0.01c1.51-0.71,3.03-1.47,4.5-2.26c0.2-0.11,0.43-0.17,0.65-0.17
				c0.51,0,0.98,0.28,1.22,0.73c0.11,0.2,0.17,0.43,0.17,0.66c0,0.51-0.28,0.98-0.73,1.22c-1.52,0.82-3.09,1.61-4.66,2.34
				C154.74,202.82,154.55,202.87,154.34,202.87z M69.86,201.17c-0.22,0-0.44-0.05-0.64-0.16c-1.53-0.8-3.06-1.64-4.54-2.52
				c-0.01-0.01-0.02-0.01-0.03-0.01l-0.01-0.01c-0.41-0.25-0.67-0.7-0.67-1.19c0-0.25,0.07-0.49,0.19-0.7
				c0.25-0.42,0.71-0.68,1.2-0.68c0.25,0,0.49,0.07,0.7,0.19c1.45,0.86,2.94,1.69,4.44,2.46c0.46,0.24,0.75,0.72,0.75,1.24
				c0,0.22-0.05,0.43-0.16,0.63C70.85,200.89,70.38,201.17,69.86,201.17z M163.4,198c-0.49,0-0.93-0.25-1.19-0.67
				c-0.13-0.22-0.2-0.47-0.2-0.72c0-0.49,0.25-0.93,0.67-1.19c1.44-0.88,2.87-1.8,4.26-2.75c0.23-0.16,0.5-0.24,0.78-0.24
				c0.46,0,0.89,0.23,1.15,0.6c0.16,0.23,0.24,0.51,0.24,0.79c0,0.46-0.23,0.88-0.6,1.14c-1.43,0.98-2.9,1.93-4.38,2.83
				C163.9,197.93,163.65,198,163.4,198z M60.99,195.94c-0.27,0-0.54-0.08-0.77-0.23c-1.44-0.96-2.87-1.97-4.27-3.01
				c-0.35-0.26-0.56-0.67-0.56-1.11c0-0.3,0.1-0.59,0.28-0.83c0.26-0.35,0.67-0.56,1.11-0.56c0.3,0,0.59,0.1,0.83,0.28
				c1.34,1,2.74,1.99,4.15,2.93c0.39,0.26,0.62,0.69,0.62,1.16c0,0.27-0.08,0.53-0.23,0.76C61.89,195.71,61.46,195.94,60.99,195.94z
				 M171.88,192.19c-0.43,0-0.84-0.2-1.1-0.54c-0.19-0.24-0.29-0.54-0.29-0.84c0-0.44,0.2-0.84,0.54-1.1
				c1.33-1.02,2.66-2.1,3.94-3.19l0.03-0.03v0c0.25-0.2,0.55-0.31,0.87-0.31c0.41,0,0.79,0.18,1.05,0.49
				c0.22,0.25,0.34,0.58,0.33,0.91c0,0.4-0.18,0.78-0.48,1.05c-1.32,1.13-2.68,2.23-4.05,3.29
				C172.48,192.09,172.19,192.19,171.88,192.19z M52.74,189.78c-0.32,0-0.64-0.11-0.89-0.32c-1.33-1.11-2.65-2.27-3.92-3.45
				c-0.28-0.26-0.44-0.63-0.44-1.01c0-0.35,0.13-0.69,0.37-0.94c0.5-0.54,1.42-0.57,1.96-0.07c1.23,1.14,2.51,2.27,3.8,3.35l0.01,0
				c0.32,0.27,0.5,0.66,0.5,1.07c0,0.32-0.12,0.63-0.32,0.88C53.54,189.6,53.15,189.78,52.74,189.78z M179.7,185.5
				c-0.38,0-0.74-0.15-1-0.43c-0.25-0.26-0.38-0.6-0.38-0.96c0-0.38,0.15-0.74,0.43-1c1.22-1.16,2.42-2.37,3.58-3.6
				c0.26-0.28,0.62-0.44,1.01-0.44c0.35,0,0.69,0.13,0.95,0.38c0.28,0.26,0.44,0.63,0.44,1.02c0,0.34-0.12,0.66-0.35,0.91h0
				l-0.03,0.03c-0.01,0.01-0.01,0.01-0.02,0.02c-1.18,1.25-2.41,2.49-3.66,3.69C180.39,185.36,180.05,185.5,179.7,185.5z
				 M45.2,182.77c-0.38,0-0.73-0.15-1-0.42c-1.21-1.25-2.4-2.55-3.53-3.85c-0.22-0.25-0.34-0.57-0.34-0.91
				c0-0.4,0.17-0.78,0.48-1.05c0.25-0.22,0.57-0.34,0.91-0.34c0.4,0,0.78,0.17,1.05,0.48c1.1,1.27,2.26,2.53,3.43,3.74
				c0.25,0.26,0.39,0.61,0.39,0.97c0,0.38-0.15,0.73-0.42,0.99C45.9,182.63,45.56,182.77,45.2,182.77z M186.75,178
				c-0.33,0-0.64-0.12-0.89-0.33c-0.31-0.26-0.49-0.65-0.49-1.06c0-0.33,0.12-0.64,0.33-0.89c1.09-1.29,2.15-2.62,3.17-3.96
				c0.26-0.35,0.67-0.55,1.11-0.55c0.3,0,0.59,0.1,0.84,0.28c0.35,0.26,0.55,0.66,0.55,1.1c0,0.31-0.1,0.6-0.28,0.84
				c-1.04,1.38-2.14,2.75-3.26,4.08C187.55,177.82,187.16,178,186.75,178z M38.45,175c-0.43,0-0.83-0.2-1.1-0.54
				c-0.15-0.19-0.29-0.38-0.44-0.57c-0.91-1.18-1.8-2.41-2.66-3.64c-0.16-0.23-0.25-0.51-0.25-0.79c0-0.46,0.22-0.88,0.6-1.14
				c0.23-0.16,0.51-0.25,0.79-0.25c0.45,0,0.88,0.22,1.14,0.59c0.83,1.19,1.7,2.38,2.58,3.53c0.14,0.19,0.28,0.37,0.43,0.55
				c0.19,0.25,0.29,0.54,0.29,0.86c0,0.43-0.2,0.83-0.53,1.09C39.05,174.9,38.76,175,38.45,175z M192.97,169.79
				c-0.28,0-0.54-0.08-0.78-0.24c-0.38-0.26-0.61-0.69-0.61-1.15c0-0.28,0.08-0.55,0.24-0.77c0.95-1.4,1.86-2.84,2.73-4.28
				c0.25-0.42,0.71-0.67,1.19-0.67c0.25,0,0.5,0.07,0.71,0.2c0.42,0.25,0.67,0.69,0.67,1.18c0,0.25-0.07,0.5-0.2,0.72
				c-0.89,1.48-1.83,2.96-2.79,4.39l-0.02,0.03C193.85,169.57,193.43,169.79,192.97,169.79z M32.57,166.55
				c-0.48,0-0.93-0.25-1.18-0.66c-0.91-1.47-1.8-2.99-2.63-4.51c-0.11-0.2-0.17-0.43-0.17-0.66c0-0.51,0.28-0.98,0.72-1.22
				c0.2-0.11,0.43-0.17,0.66-0.17c0.51,0,0.97,0.28,1.22,0.72c0.8,1.47,1.66,2.94,2.55,4.38l0.01,0.01
				c0.14,0.22,0.21,0.47,0.21,0.73c0,0.48-0.25,0.92-0.66,1.18C33.08,166.48,32.82,166.55,32.57,166.55z M198.27,160.95
				c-0.22,0-0.45-0.06-0.65-0.16c-0.46-0.24-0.74-0.71-0.74-1.23c0-0.22,0.06-0.45,0.16-0.65c0.79-1.49,1.55-3.02,2.25-4.56
				c0.23-0.49,0.72-0.81,1.26-0.81c0.2,0,0.4,0.04,0.58,0.13c0.49,0.22,0.8,0.72,0.81,1.25c0,0.2-0.04,0.4-0.13,0.59
				c-0.72,1.56-1.5,3.13-2.31,4.66l-0.02,0.04C199.25,160.68,198.78,160.95,198.27,160.95z M27.63,157.52
				c-0.53,0-1.02-0.31-1.25-0.79c-0.75-1.56-1.46-3.17-2.12-4.77c-0.07-0.17-0.1-0.34-0.11-0.52c0-0.57,0.34-1.07,0.86-1.29
				c0.17-0.07,0.35-0.11,0.53-0.11c0.56,0,1.07,0.34,1.28,0.86c0.63,1.53,1.32,3.07,2.03,4.57l0.03,0.06
				c0.09,0.19,0.14,0.39,0.14,0.6c0,0.53-0.31,1.02-0.79,1.25C28.04,157.47,27.84,157.52,27.63,157.52z M202.59,151.59
				c-0.17,0-0.35-0.03-0.51-0.1c-0.53-0.21-0.88-0.72-0.88-1.29c0-0.17,0.03-0.34,0.1-0.51c0.62-1.57,1.21-3.18,1.75-4.77
				c0.19-0.57,0.72-0.95,1.31-0.95c0.15,0,0.3,0.02,0.44,0.07c0.56,0.19,0.94,0.72,0.95,1.31c0,0.15-0.02,0.3-0.07,0.45
				c-0.55,1.65-1.16,3.3-1.8,4.92C203.67,151.25,203.16,151.59,202.59,151.59z M23.7,148c-0.59,0-1.11-0.37-1.31-0.93
				c-0.57-1.63-1.11-3.31-1.59-4.97c-0.04-0.12-0.05-0.25-0.06-0.38c0-0.62,0.41-1.17,1-1.34c0.13-0.04,0.26-0.06,0.39-0.06
				c0.61,0,1.16,0.41,1.33,1c0.46,1.59,0.97,3.18,1.52,4.75l0.03,0.08c0.05,0.15,0.08,0.3,0.08,0.46c0,0.59-0.37,1.11-0.93,1.31
				C24.01,147.98,23.86,148,23.7,148z M205.86,141.82c-0.12,0-0.25-0.02-0.37-0.05c-0.6-0.17-1.02-0.72-1.02-1.34
				c0-0.12,0.02-0.24,0.05-0.36c0.45-1.62,0.86-3.28,1.22-4.93l0.04-0.18V135c0.22-0.65,0.92-1.07,1.61-0.92
				c0.63,0.14,1.09,0.71,1.09,1.35c0,0.1-0.01,0.2-0.03,0.3c-0.37,1.69-0.79,3.4-1.25,5.07
				C207.03,141.4,206.48,141.82,205.86,141.82z M20.83,138.12c-0.65,0-1.2-0.44-1.35-1.07c-0.39-1.69-0.74-3.41-1.05-5.12
				c-0.01-0.08-0.02-0.16-0.02-0.25c0-0.67,0.48-1.24,1.15-1.36c0.75-0.13,1.47,0.38,1.61,1.12c0.29,1.64,0.62,3.28,1,4.89
				l0.02,0.08c0.02,0.1,0.04,0.21,0.04,0.31c0,0.65-0.44,1.2-1.07,1.35C21.04,138.11,20.93,138.12,20.83,138.12z M208.06,131.77
				c-0.07,0-0.15-0.01-0.22-0.02c-0.67-0.11-1.16-0.68-1.17-1.36c0-0.08,0.01-0.15,0.02-0.23c0.27-1.66,0.5-3.35,0.68-5.03
				c0.08-0.76,0.77-1.31,1.53-1.23c0.71,0.08,1.24,0.67,1.24,1.39c0,0.05,0,0.09-0.01,0.14c-0.18,1.73-0.42,3.47-0.7,5.18
				C209.31,131.28,208.74,131.77,208.06,131.77z M19.04,127.99c-0.7,0-1.29-0.52-1.37-1.22c-0.21-1.71-0.37-3.46-0.49-5.2
				c0-0.03,0-0.06,0-0.09c0-0.73,0.57-1.34,1.29-1.39c0.77-0.05,1.43,0.53,1.48,1.29c0.11,1.68,0.27,3.38,0.47,5.05
				c0.01,0.06,0.01,0.12,0.01,0.18c0,0.69-0.53,1.28-1.22,1.37C19.15,127.98,19.09,127.99,19.04,127.99z M209.15,121.53
				c-0.02,0-0.05,0-0.07,0c-0.74-0.04-1.32-0.65-1.31-1.39c0-0.01,0-0.02,0-0.02l0,0l0-0.08c0.09-1.67,0.13-3.36,0.13-5.04
				c0-0.88-0.01-1.78-0.04-2.65c0-0.01,0-0.02,0-0.04c0-0.76,0.59-1.37,1.35-1.39c0.78-0.03,1.4,0.58,1.42,1.35
				c0.03,0.9,0.04,1.82,0.04,2.73c0,1.73-0.05,3.47-0.14,5.19c0,0.01,0,0.02,0,0.03l0,0.02
				C210.49,120.96,209.88,121.53,209.15,121.53z M18.35,117.72c-0.75,0-1.38-0.61-1.39-1.37c-0.01-0.43-0.01-0.89-0.01-1.35
				c0-1.29,0.03-2.59,0.08-3.87c0.03-0.77,0.67-1.36,1.44-1.33c0.75,0.03,1.33,0.64,1.33,1.39c0,0.02,0,0.04,0,0.05
				c-0.05,1.25-0.07,2.52-0.07,3.76c0,0.45,0,0.89,0.01,1.32v0.02c0,0.75-0.61,1.38-1.37,1.39H18.35z M208.97,108.55
				c-0.72,0-1.32-0.56-1.38-1.27c-0.14-1.68-0.32-3.38-0.55-5.04c-0.01-0.06-0.01-0.13-0.01-0.19c0-0.69,0.52-1.27,1.2-1.37
				c0.75-0.1,1.46,0.44,1.56,1.19c0.23,1.71,0.42,3.46,0.56,5.19c0,0.04,0,0.07,0,0.11c0,0.72-0.56,1.33-1.27,1.39
				C209.04,108.55,209.01,108.55,208.97,108.55z M18.76,107.43v-0.02V107.43c-0.04,0-0.09,0-0.13-0.01
				c-0.72-0.07-1.26-0.66-1.26-1.38c0-0.04,0-0.08,0.01-0.12c0.16-1.72,0.37-3.47,0.62-5.19c0.11-0.74,0.83-1.28,1.57-1.17
				c0.67,0.1,1.18,0.69,1.18,1.36c0,0.07,0,0.14-0.01,0.21c-0.25,1.66-0.45,3.36-0.61,5.04C20.07,106.89,19.48,107.43,18.76,107.43z
				 M207.59,98.35c-0.66,0-1.24-0.47-1.36-1.13c-0.32-1.66-0.68-3.32-1.09-4.96c-0.03-0.11-0.04-0.22-0.04-0.33
				c0-0.64,0.43-1.2,1.05-1.35c0.11-0.03,0.22-0.04,0.33-0.04c0.63,0,1.18,0.43,1.34,1.04l0,0.01c0,0.01,0,0.02,0.01,0.03
				c0.41,1.67,0.79,3.38,1.11,5.07c0.02,0.09,0.02,0.17,0.02,0.26c0,0.66-0.47,1.24-1.13,1.36
				C207.76,98.35,207.67,98.35,207.59,98.35z M20.26,97.25c-0.09,0-0.19-0.01-0.28-0.03c-0.64-0.13-1.11-0.7-1.11-1.36
				c0-0.09,0.01-0.19,0.03-0.28c0.34-1.7,0.74-3.41,1.18-5.09c0.16-0.61,0.71-1.04,1.34-1.04c0.12,0,0.24,0.02,0.35,0.05
				c0.61,0.16,1.04,0.71,1.04,1.34c0,0.12-0.02,0.23-0.05,0.35c-0.42,1.62-0.81,3.27-1.14,4.92l0,0.02
				C21.49,96.78,20.92,97.25,20.26,97.25z M205.11,88.36c-0.61,0-1.15-0.39-1.33-0.98c-0.49-1.61-1.04-3.23-1.62-4.81
				c-0.06-0.15-0.09-0.31-0.09-0.48c0-0.58,0.37-1.1,0.91-1.3c0.15-0.06,0.32-0.09,0.48-0.09c0.58,0,1.1,0.37,1.3,0.91
				c0.6,1.62,1.15,3.28,1.66,4.93l0.01,0.02c0.04,0.13,0.06,0.27,0.06,0.41c0,0.61-0.4,1.14-0.98,1.32
				C205.38,88.34,205.25,88.36,205.11,88.36z M22.86,87.29c-0.14,0-0.29-0.02-0.42-0.07c-0.57-0.18-0.96-0.71-0.96-1.31
				c0-0.14,0.02-0.29,0.07-0.43c0.53-1.65,1.11-3.32,1.73-4.94c0.2-0.54,0.72-0.89,1.3-0.89c0.17,0,0.33,0.03,0.49,0.09
				c0.53,0.2,0.89,0.72,0.89,1.3c0,0.17-0.03,0.33-0.09,0.49c-0.6,1.57-1.16,3.19-1.68,4.8C23.99,86.9,23.46,87.29,22.86,87.29z
				 M201.57,78.71c-0.56,0-1.06-0.33-1.27-0.84c-0.66-1.54-1.38-3.09-2.13-4.6c-0.1-0.19-0.14-0.4-0.14-0.62
				c0-0.53,0.3-1.01,0.77-1.24c0.19-0.1,0.4-0.14,0.61-0.14c0.53,0,1.01,0.3,1.24,0.77c0.77,1.55,1.5,3.14,2.19,4.73
				c0.07,0.17,0.11,0.35,0.11,0.54c0,0.56-0.33,1.06-0.84,1.28C201.94,78.67,201.76,78.71,201.57,78.71z M26.52,77.65
				c-0.19,0-0.38-0.04-0.56-0.12c-0.5-0.22-0.83-0.72-0.82-1.28c0-0.19,0.04-0.38,0.12-0.55c0.71-1.59,1.46-3.18,2.25-4.72
				c0.24-0.47,0.71-0.76,1.24-0.76c0.22,0,0.43,0.05,0.63,0.15c0.47,0.24,0.76,0.71,0.76,1.23c0,0.22-0.05,0.43-0.15,0.63
				c-0.77,1.5-1.5,3.05-2.19,4.59C27.57,77.33,27.07,77.65,26.52,77.65z M197.01,69.5c-0.5,0-0.96-0.27-1.21-0.71
				c-0.83-1.46-1.7-2.92-2.61-4.34c-0.14-0.22-0.22-0.48-0.22-0.75c0-0.48,0.24-0.91,0.64-1.17c0.22-0.14,0.48-0.22,0.74-0.22
				c0.48,0,0.91,0.24,1.17,0.64c0.93,1.45,1.83,2.95,2.67,4.45c0,0.01,0.01,0.01,0.01,0.02l0,0.01c0.11,0.21,0.18,0.44,0.18,0.67
				c0,0.5-0.27,0.97-0.7,1.21C197.48,69.44,197.24,69.5,197.01,69.5z M31.21,68.47v-0.02V68.47c-0.24,0-0.48-0.07-0.7-0.19
				c-0.43-0.25-0.69-0.71-0.69-1.21c0-0.24,0.07-0.48,0.19-0.69c0.87-1.49,1.79-2.98,2.74-4.43c0-0.01,0.01-0.01,0.01-0.02
				l0.04-0.05v0c0.26-0.36,0.68-0.57,1.12-0.57c0.27,0,0.53,0.08,0.76,0.23c0.39,0.26,0.63,0.69,0.63,1.16
				c0,0.27-0.08,0.53-0.23,0.76c-0.92,1.41-1.82,2.86-2.67,4.32C32.17,68.21,31.71,68.47,31.21,68.47z M191.48,60.83v-0.02V60.83
				c-0.45,0-0.87-0.22-1.13-0.58c-0.98-1.37-2.01-2.73-3.06-4.04c-0.2-0.25-0.31-0.55-0.31-0.87c0-0.42,0.19-0.82,0.52-1.08
				c0.25-0.2,0.55-0.3,0.87-0.3c0.42,0,0.82,0.19,1.08,0.52c1.08,1.35,2.14,2.75,3.15,4.16c0.17,0.24,0.26,0.51,0.26,0.8
				c0,0.45-0.21,0.87-0.58,1.13C192.05,60.74,191.77,60.83,191.48,60.83z M36.86,59.86c-0.3,0-0.58-0.09-0.82-0.27
				c-0.36-0.26-0.57-0.68-0.56-1.12c0-0.28,0.09-0.55,0.25-0.78h0l0.02-0.03c0.01-0.01,0.01-0.01,0.02-0.02
				c1.02-1.38,2.09-2.76,3.19-4.1c0.26-0.32,0.66-0.51,1.07-0.51c0.32,0,0.63,0.11,0.88,0.32c0.32,0.26,0.51,0.65,0.51,1.07
				c0,0.32-0.11,0.63-0.32,0.88c-1.07,1.31-2.12,2.65-3.12,4.01C37.72,59.65,37.3,59.86,36.86,59.86z M185.04,52.8
				c-0.39,0-0.77-0.17-1.03-0.46c-1.12-1.25-2.29-2.5-3.48-3.69c-0.26-0.26-0.4-0.61-0.4-0.98c0-0.37,0.15-0.72,0.41-0.98
				c0.51-0.51,1.4-0.52,1.93-0.03v0l0.03,0.03c0.01,0.01,0.01,0.01,0.02,0.02c1.22,1.22,2.41,2.5,3.56,3.78
				c0.23,0.25,0.35,0.58,0.35,0.92c0,0.4-0.17,0.78-0.46,1.04C185.71,52.67,185.38,52.8,185.04,52.8z M43.4,51.9
				c-0.35,0-0.68-0.13-0.94-0.36c-0.29-0.26-0.45-0.64-0.45-1.03c0-0.35,0.13-0.68,0.36-0.93c1.17-1.27,2.39-2.54,3.63-3.76
				c0.53-0.52,1.44-0.51,1.96,0.02c0.25,0.26,0.4,0.6,0.4,0.97c0,0.38-0.15,0.73-0.42,0.99c-1.2,1.18-2.39,2.41-3.53,3.65
				l-0.03,0.04v0C44.13,51.75,43.77,51.9,43.4,51.9z M177.78,45.5c-0.34,0-0.67-0.13-0.93-0.36c-1.25-1.13-2.55-2.24-3.86-3.3
				c-0.33-0.27-0.51-0.66-0.51-1.08c0-0.32,0.11-0.62,0.31-0.87c0.26-0.33,0.66-0.51,1.08-0.51c0.32,0,0.63,0.11,0.87,0.31
				c1.35,1.09,2.68,2.24,3.97,3.4c0.29,0.26,0.46,0.63,0.46,1.03c0,0.35-0.13,0.68-0.36,0.93C178.55,45.33,178.18,45.5,177.78,45.5z
				 M50.75,44.69c-0.4,0-0.78-0.17-1.04-0.47c-0.22-0.26-0.35-0.58-0.35-0.92c0-0.4,0.17-0.77,0.47-1.04
				c1.3-1.15,2.65-2.27,4.01-3.34c0.25-0.2,0.54-0.3,0.86-0.3c0.43,0,0.82,0.19,1.09,0.53c0.19,0.25,0.3,0.54,0.3,0.86
				c0,0.43-0.19,0.83-0.53,1.09c-1.32,1.05-2.63,2.14-3.89,3.25C51.41,44.57,51.09,44.69,50.75,44.69z M169.78,39.02
				c-0.29,0-0.57-0.09-0.81-0.26c-1.36-0.99-2.77-1.95-4.19-2.87c-0.4-0.26-0.64-0.7-0.63-1.17c0-0.27,0.08-0.52,0.22-0.75
				c0.26-0.4,0.69-0.63,1.17-0.63c0.27,0,0.53,0.08,0.75,0.22c1.46,0.94,2.91,1.93,4.31,2.95c0.36,0.26,0.57,0.68,0.57,1.12
				c0,0.29-0.09,0.58-0.26,0.82C170.65,38.8,170.23,39.02,169.78,39.02z M58.82,38.32c-0.45,0-0.87-0.22-1.13-0.59
				c-0.17-0.24-0.25-0.52-0.25-0.8c0-0.45,0.22-0.87,0.59-1.13c1.42-1,2.88-1.97,4.34-2.89c0.22-0.14,0.48-0.21,0.74-0.21
				c0.48,0,0.92,0.24,1.18,0.65c0.14,0.22,0.21,0.47,0.21,0.73c0,0.48-0.24,0.92-0.64,1.17l-0.01,0.01
				c-0.01,0.01-0.02,0.01-0.02,0.01c-1.42,0.89-2.83,1.83-4.2,2.8C59.39,38.23,59.11,38.32,58.82,38.32z M161.13,33.43v-0.02V33.43
				c-0.24,0-0.48-0.06-0.69-0.18c-1.47-0.84-2.97-1.65-4.47-2.4l-0.01,0c-0.47-0.24-0.77-0.72-0.76-1.25c0-0.21,0.05-0.42,0.15-0.62
				c0.24-0.47,0.71-0.76,1.24-0.76c0.22,0,0.43,0.05,0.62,0.15c1.55,0.78,3.1,1.61,4.61,2.47c0.43,0.25,0.7,0.71,0.7,1.2
				c0,0.24-0.06,0.48-0.18,0.69C162.09,33.16,161.63,33.43,161.13,33.43z M67.53,32.85c-0.5,0-0.97-0.27-1.21-0.71
				c-0.11-0.21-0.17-0.44-0.17-0.68c0-0.5,0.27-0.97,0.71-1.21c1.51-0.84,3.06-1.64,4.61-2.4l0.12-0.06l-0.01,0.01
				c0.16-0.06,0.33-0.1,0.51-0.1c0.53,0,1.01,0.3,1.25,0.78c0.09,0.19,0.14,0.39,0.14,0.6c0,0.5-0.27,0.97-0.71,1.22h0.01l-0.1,0.05
				c-1.51,0.73-3.02,1.52-4.48,2.33C68,32.79,67.77,32.85,67.53,32.85z M151.92,28.8c-0.19,0-0.38-0.04-0.55-0.12
				c-1.54-0.67-3.13-1.31-4.71-1.9c-0.54-0.2-0.91-0.73-0.9-1.31c0-0.16,0.03-0.32,0.09-0.48c0.2-0.54,0.72-0.9,1.3-0.9
				c0.17,0,0.33,0.03,0.48,0.09c1.63,0.61,3.26,1.27,4.85,1.96c0.51,0.22,0.83,0.72,0.83,1.27c0,0.19-0.04,0.38-0.12,0.55
				C152.97,28.48,152.47,28.8,151.92,28.8z M76.77,28.35c-0.56,0-1.06-0.33-1.28-0.85c-0.07-0.17-0.11-0.35-0.11-0.54
				c0-0.56,0.33-1.06,0.85-1.28c1.6-0.67,3.23-1.31,4.86-1.89c0.15-0.05,0.31-0.08,0.47-0.08c0.58,0,1.11,0.37,1.3,0.92
				c0.05,0.15,0.08,0.3,0.08,0.46c0,0.59-0.37,1.11-0.92,1.31c-1.58,0.57-3.16,1.18-4.72,1.84C77.14,28.31,76.96,28.35,76.77,28.35z
				 M142.26,25.2v-0.02V25.2c-0.14,0-0.28-0.02-0.41-0.06c-1.61-0.5-3.25-0.96-4.88-1.38l-0.01,0c-0.61-0.16-1.03-0.71-1.03-1.33
				c0-0.12,0.01-0.23,0.04-0.35c0.16-0.62,0.71-1.05,1.34-1.05c0.11,0,0.23,0.01,0.34,0.04c1.68,0.43,3.38,0.9,5.03,1.42
				c0.58,0.18,0.97,0.71,0.97,1.32c0,0.14-0.02,0.28-0.06,0.41C143.4,24.81,142.87,25.2,142.26,25.2z M86.45,24.88
				c-0.61,0-1.15-0.41-1.33-0.99c-0.04-0.13-0.06-0.26-0.06-0.4c0-0.61,0.41-1.16,0.99-1.33c1.66-0.5,3.36-0.95,5.04-1.36
				c0.11-0.03,0.22-0.04,0.33-0.04c0.64,0,1.2,0.44,1.35,1.06c0.03,0.11,0.04,0.22,0.04,0.33c0,0.64-0.44,1.19-1.06,1.34
				c-1.61,0.39-3.23,0.82-4.82,1.3l-0.08,0.02C86.71,24.86,86.58,24.88,86.45,24.88z M132.28,22.68c-0.09,0-0.18-0.01-0.27-0.03
				c-1.65-0.32-3.33-0.61-5-0.84c-0.68-0.1-1.19-0.69-1.19-1.37c0-0.06,0-0.13,0.01-0.19c0.1-0.74,0.82-1.28,1.57-1.18
				c1.71,0.24,3.44,0.53,5.14,0.86l0.02,0c0.01,0,0.01,0,0.02,0l0.16,0.03h-0.03c0.57,0.18,0.97,0.72,0.97,1.33
				c0,0.09-0.01,0.18-0.03,0.26C133.51,22.21,132.94,22.68,132.28,22.68z M96.45,22.47c-0.67,0-1.24-0.48-1.36-1.14
				c-0.02-0.08-0.02-0.16-0.02-0.25c0-0.67,0.47-1.25,1.14-1.37c1.71-0.31,3.44-0.58,5.16-0.8c0.75-0.1,1.46,0.45,1.55,1.2
				c0.01,0.06,0.01,0.12,0.01,0.18c0,0.7-0.52,1.29-1.21,1.38c-1.67,0.22-3.36,0.48-5.01,0.78l-0.02,0v0
				C96.6,22.47,96.53,22.47,96.45,22.47z M122.09,21.25v-0.02V21.25c-0.04,0-0.08,0-0.12-0.01c-1.67-0.14-3.38-0.24-5.06-0.3
				c-0.75-0.02-1.34-0.63-1.34-1.38c0-0.02,0-0.04,0-0.05c0.02-0.77,0.66-1.37,1.43-1.34c1.74,0.06,3.49,0.16,5.21,0.31
				c0.72,0.06,1.27,0.65,1.27,1.38c0,0.04,0,0.08-0.01,0.12C123.41,20.69,122.8,21.25,122.09,21.25z M106.66,21.16
				c-0.72,0-1.33-0.56-1.38-1.28c0-0.04,0-0.07,0-0.11c0-0.71,0.56-1.32,1.27-1.38l0.02,0c0.01,0,0.02,0,0.03,0
				c1.71-0.13,3.46-0.21,5.18-0.24c0.01,0,0.02,0,0.03,0c0.75,0,1.37,0.61,1.39,1.36c0,0.01,0,0.02,0,0.04
				c0,0.76-0.6,1.36-1.36,1.38c-1.68,0.03-3.39,0.12-5.07,0.24C106.73,21.16,106.69,21.16,106.66,21.16z"/>
		</defs>
		<clipPath id="SVGID_144_">
			<use xlink:href="#SVGID_143_"  style="overflow:visible;"/>
		</clipPath>
		<g class="st70">
			<defs>
				<rect id="SVGID_145_" x="-210" y="-180" width="1200" height="1131"/>
			</defs>
			<clipPath id="SVGID_146_">
				<use xlink:href="#SVGID_145_"  style="overflow:visible;"/>
			</clipPath>
			<rect x="11.96" y="13.14" class="st71" width="203.72" height="203.73"/>
		</g>
	</g>
	<g>
		<defs>
			<path id="SVGID_147_" d="M53.5,210.95c-3.44,0-6.24-2.8-6.24-6.24s2.8-6.24,6.24-6.24c3.44,0,6.24,2.8,6.24,6.24
				S56.94,210.95,53.5,210.95z M53.5,200.45c-2.35,0-4.26,1.91-4.26,4.26s1.91,4.26,4.26,4.26c2.35,0,4.26-1.91,4.26-4.26
				S55.85,200.45,53.5,200.45z"/>
		</defs>
		<clipPath id="SVGID_148_">
			<use xlink:href="#SVGID_147_"  style="overflow:visible;"/>
		</clipPath>
		<g class="st72">
			<defs>
				<rect id="SVGID_149_" x="-210" y="-180" width="1200" height="1131"/>
			</defs>
			<clipPath id="SVGID_150_">
				<use xlink:href="#SVGID_149_"  style="overflow:visible;"/>
			</clipPath>
			<rect x="42.26" y="193.47" class="st73" width="22.48" height="22.48"/>
		</g>
	</g>
	<g>
		<defs>
			<path id="SVGID_151_" d="M19.99,201.13L19.99,201.13c-0.78,0-1.4-0.63-1.4-1.4v-3.91c0-0.78,0.63-1.4,1.4-1.4
				c0.78,0,1.4,0.63,1.4,1.4v3.91C21.4,200.5,20.77,201.13,19.99,201.13"/>
		</defs>
		<clipPath id="SVGID_152_">
			<use xlink:href="#SVGID_151_"  style="overflow:visible;"/>
		</clipPath>
		<g class="st74">
			<defs>
				<rect id="SVGID_153_" x="-210" y="-180" width="1200" height="1131"/>
			</defs>
			<clipPath id="SVGID_154_">
				<use xlink:href="#SVGID_153_"  style="overflow:visible;"/>
			</clipPath>
			<rect x="13.59" y="189.41" class="st75" width="12.81" height="16.72"/>
		</g>
	</g>
	<g>
		<defs>
			<path id="SVGID_155_" d="M19.99,212.21L19.99,212.21c-0.78,0-1.4-0.63-1.4-1.4v-3.91c0-0.78,0.63-1.4,1.4-1.4
				c0.78,0,1.4,0.63,1.4,1.4v3.91C21.4,211.58,20.77,212.21,19.99,212.21"/>
		</defs>
		<clipPath id="SVGID_156_">
			<use xlink:href="#SVGID_155_"  style="overflow:visible;"/>
		</clipPath>
		<g class="st76">
			<defs>
				<rect id="SVGID_157_" x="-210" y="-180" width="1200" height="1131"/>
			</defs>
			<clipPath id="SVGID_158_">
				<use xlink:href="#SVGID_157_"  style="overflow:visible;"/>
			</clipPath>
			<rect x="13.59" y="200.49" class="st77" width="12.81" height="16.72"/>
		</g>
	</g>
	<g>
		<defs>
			<path id="SVGID_159_" d="M29.27,203.31L29.27,203.31c0-0.78-0.63-1.4-1.4-1.4h-3.91c-0.78,0-1.4,0.63-1.4,1.4
				c0,0.78,0.63,1.4,1.4,1.4h3.91C28.64,204.71,29.27,204.08,29.27,203.31"/>
		</defs>
		<clipPath id="SVGID_160_">
			<use xlink:href="#SVGID_159_"  style="overflow:visible;"/>
		</clipPath>
		<g class="st78">
			<defs>
				<rect id="SVGID_161_" x="-210" y="-180" width="1200" height="1131"/>
			</defs>
			<clipPath id="SVGID_162_">
				<use xlink:href="#SVGID_161_"  style="overflow:visible;"/>
			</clipPath>
			<rect x="17.55" y="196.91" class="st79" width="16.72" height="12.81"/>
		</g>
	</g>
	<g>
		<defs>
			<path id="SVGID_163_" d="M17.54,203.31L17.54,203.31c0-0.78-0.63-1.4-1.4-1.4h-3.91c-0.78,0-1.4,0.63-1.4,1.4
				c0,0.78,0.63,1.4,1.4,1.4h3.91C16.91,204.71,17.54,204.08,17.54,203.31"/>
		</defs>
		<clipPath id="SVGID_164_">
			<use xlink:href="#SVGID_163_"  style="overflow:visible;"/>
		</clipPath>
		<g class="st80">
			<defs>
				<rect id="SVGID_165_" x="-210" y="-180" width="1200" height="1131"/>
			</defs>
			<clipPath id="SVGID_166_">
				<use xlink:href="#SVGID_165_"  style="overflow:visible;"/>
			</clipPath>
			<rect x="5.82" y="196.91" class="st81" width="16.72" height="12.81"/>
		</g>
	</g>
	<g>
		<defs>
			<path id="SVGID_167_" d="M5.97,78.16L5.97,78.16c-0.5,0-0.91-0.41-0.91-0.91V74.7c0-0.5,0.41-0.91,0.91-0.91
				c0.5,0,0.91,0.41,0.91,0.91v2.54C6.88,77.75,6.47,78.16,5.97,78.16"/>
		</defs>
		<clipPath id="SVGID_168_">
			<use xlink:href="#SVGID_167_"  style="overflow:visible;"/>
		</clipPath>
		<g class="st82">
			<defs>
				<rect id="SVGID_169_" x="-210" y="-180" width="1200" height="1131"/>
			</defs>
			<clipPath id="SVGID_170_">
				<use xlink:href="#SVGID_169_"  style="overflow:visible;"/>
			</clipPath>
			<rect x="0.05" y="68.79" class="st83" width="11.83" height="14.37"/>
		</g>
	</g>
	<g>
		<defs>
			<path id="SVGID_171_" d="M5.97,85.37L5.97,85.37c-0.5,0-0.91-0.41-0.91-0.91v-2.54c0-0.5,0.41-0.91,0.91-0.91
				c0.5,0,0.91,0.41,0.91,0.91v2.54C6.88,84.96,6.47,85.37,5.97,85.37"/>
		</defs>
		<clipPath id="SVGID_172_">
			<use xlink:href="#SVGID_171_"  style="overflow:visible;"/>
		</clipPath>
		<g class="st84">
			<defs>
				<rect id="SVGID_173_" x="-210" y="-180" width="1200" height="1131"/>
			</defs>
			<clipPath id="SVGID_174_">
				<use xlink:href="#SVGID_173_"  style="overflow:visible;"/>
			</clipPath>
			<rect x="0.05" y="76" class="st85" width="11.83" height="14.37"/>
		</g>
	</g>
	<g>
		<defs>
			<path id="SVGID_175_" d="M12,79.58L12,79.58c0-0.5-0.41-0.91-0.91-0.91H8.54c-0.5,0-0.91,0.41-0.91,0.91
				c0,0.5,0.41,0.91,0.91,0.91h2.54C11.59,80.49,12,80.08,12,79.58"/>
		</defs>
		<clipPath id="SVGID_176_">
			<use xlink:href="#SVGID_175_"  style="overflow:visible;"/>
		</clipPath>
		<g class="st86">
			<defs>
				<rect id="SVGID_177_" x="-210" y="-180" width="1200" height="1131"/>
			</defs>
			<clipPath id="SVGID_178_">
				<use xlink:href="#SVGID_177_"  style="overflow:visible;"/>
			</clipPath>
			<rect x="2.63" y="73.66" class="st87" width="14.37" height="11.83"/>
		</g>
	</g>
	<g>
		<defs>
			<path id="SVGID_179_" d="M4.37,79.58L4.37,79.58c0-0.5-0.41-0.91-0.91-0.91H0.91c-0.5,0-0.91,0.41-0.91,0.91
				c0,0.5,0.41,0.91,0.91,0.91h2.54C3.96,80.49,4.37,80.08,4.37,79.58"/>
		</defs>
		<clipPath id="SVGID_180_">
			<use xlink:href="#SVGID_179_"  style="overflow:visible;"/>
		</clipPath>
		<g class="st88">
			<defs>
				<rect id="SVGID_181_" x="-210" y="-180" width="1200" height="1131"/>
			</defs>
			<clipPath id="SVGID_182_">
				<use xlink:href="#SVGID_181_"  style="overflow:visible;"/>
			</clipPath>
			<rect x="-5" y="73.66" class="st89" width="14.37" height="11.83"/>
		</g>
	</g>
	<g>
		<defs>
			<path id="SVGID_183_" d="M53.5,154.09c-1.59,0-2.88-1.29-2.88-2.88c0-1.59,1.29-2.88,2.88-2.88c1.59,0,2.88,1.29,2.88,2.88
				C56.38,152.8,55.09,154.09,53.5,154.09z M53.5,148.9c-1.27,0-2.31,1.04-2.31,2.31c0,1.27,1.04,2.31,2.31,2.31
				c1.27,0,2.31-1.04,2.31-2.31C55.81,149.94,54.78,148.9,53.5,148.9z"/>
		</defs>
		<clipPath id="SVGID_184_">
			<use xlink:href="#SVGID_183_"  style="overflow:visible;"/>
		</clipPath>
		<g class="st90">
			<defs>
				<rect id="SVGID_185_" x="-210" y="-180" width="1200" height="1131"/>
			</defs>
			<clipPath id="SVGID_186_">
				<use xlink:href="#SVGID_185_"  style="overflow:visible;"/>
			</clipPath>
			<rect x="45.63" y="143.33" class="st91" width="15.76" height="15.76"/>
		</g>
	</g>
	<g>
		<defs>
			<rect id="SVGID_187_" x="99.39" y="128.02" width="29.05" height="3.79"/>
		</defs>
		<clipPath id="SVGID_188_">
			<use xlink:href="#SVGID_187_"  style="overflow:visible;"/>
		</clipPath>
		<g class="st92">
			<defs>
				<rect id="SVGID_189_" x="-210" y="-180" width="1200" height="1131"/>
			</defs>
			<clipPath id="SVGID_190_">
				<use xlink:href="#SVGID_189_"  style="overflow:visible;"/>
			</clipPath>
			<rect x="94.39" y="123.02" class="st93" width="39.05" height="13.79"/>
		</g>
	</g>
	<g>
		<defs>
			<rect id="SVGID_191_" x="96.84" y="125.47" width="34.15" height="8.89"/>
		</defs>
		<clipPath id="SVGID_192_">
			<use xlink:href="#SVGID_191_"  style="overflow:visible;"/>
		</clipPath>
		<g class="st94">
			<defs>
				<rect id="SVGID_193_" x="-210" y="-180" width="1200" height="1131"/>
			</defs>
			<clipPath id="SVGID_194_">
				<use xlink:href="#SVGID_193_"  style="overflow:visible;"/>
			</clipPath>
			<rect x="91.84" y="120.47" class="st95" width="44.15" height="18.89"/>
		</g>
	</g>
	<g>
		<defs>
			
				<rect id="SVGID_195_" x="70.37" y="108.68" transform="matrix(0.8342 -0.5515 0.5515 0.8342 -54.7259 62.7889)" width="13.37" height="27.46"/>
		</defs>
		<clipPath id="SVGID_196_">
			<use xlink:href="#SVGID_195_"  style="overflow:visible;"/>
		</clipPath>
		<g class="st96">
			<defs>
				<rect id="SVGID_197_" x="-210" y="-180" width="1200" height="1131"/>
			</defs>
			<clipPath id="SVGID_198_">
				<use xlink:href="#SVGID_197_"  style="overflow:visible;"/>
			</clipPath>
			<rect x="58.91" y="102.26" class="st97" width="36.3" height="40.29"/>
		</g>
	</g>
	<g>
		<defs>
			
				<rect id="SVGID_199_" x="67.82" y="106.13" transform="matrix(0.8342 -0.5515 0.5515 0.8342 -54.7262 62.7894)" width="18.47" height="32.56"/>
		</defs>
		<clipPath id="SVGID_200_">
			<use xlink:href="#SVGID_199_"  style="overflow:visible;"/>
		</clipPath>
		<g class="st98">
			<defs>
				<rect id="SVGID_201_" x="-210" y="-180" width="1200" height="1131"/>
			</defs>
			<clipPath id="SVGID_202_">
				<use xlink:href="#SVGID_201_"  style="overflow:visible;"/>
			</clipPath>
			<rect x="55.38" y="98.73" class="st99" width="43.36" height="47.35"/>
		</g>
	</g>
	<g>
		<defs>
			<path id="SVGID_203_" d="M114.77,127.22c-1.82,0-3.3,1.48-3.3,3.3c0,1.82,1.48,3.3,3.3,3.3c1.82,0,3.3-1.48,3.3-3.3
				C118.07,128.7,116.59,127.22,114.77,127.22z"/>
		</defs>
		<clipPath id="SVGID_204_">
			<use xlink:href="#SVGID_203_"  style="overflow:visible;"/>
		</clipPath>
		<g class="st100">
			<defs>
				<rect id="SVGID_205_" x="-210" y="-180" width="1200" height="1131"/>
			</defs>
			<clipPath id="SVGID_206_">
				<use xlink:href="#SVGID_205_"  style="overflow:visible;"/>
			</clipPath>
			<rect x="106.47" y="122.22" class="st101" width="16.6" height="16.6"/>
		</g>
	</g>
	<g>
		<defs>
			<path id="SVGID_207_" d="M114.77,135.86c-2.94,0-5.34-2.4-5.34-5.34c0-2.94,2.4-5.34,5.34-5.34c2.94,0,5.34,2.4,5.34,5.34
				C120.11,133.47,117.71,135.86,114.77,135.86z"/>
		</defs>
		<clipPath id="SVGID_208_">
			<use xlink:href="#SVGID_207_"  style="overflow:visible;"/>
		</clipPath>
		<g class="st102">
			<defs>
				<rect id="SVGID_209_" x="-210" y="-180" width="1200" height="1131"/>
			</defs>
			<clipPath id="SVGID_210_">
				<use xlink:href="#SVGID_209_"  style="overflow:visible;"/>
			</clipPath>
			<rect x="104.43" y="120.18" class="st103" width="20.68" height="20.68"/>
		</g>
	</g>
	<g>
		<defs>
			<rect id="SVGID_211_" x="98.11" y="126.74" width="31.6" height="6.34"/>
		</defs>
		<clipPath id="SVGID_212_">
			<use xlink:href="#SVGID_211_"  style="overflow:visible;"/>
		</clipPath>
		<g class="st104">
			<defs>
				<rect id="SVGID_213_" x="-210" y="-180" width="1200" height="1131"/>
			</defs>
			<clipPath id="SVGID_214_">
				<use xlink:href="#SVGID_213_"  style="overflow:visible;"/>
			</clipPath>
			<rect x="93.11" y="121.74" class="st105" width="41.6" height="16.34"/>
		</g>
	</g>
	<g>
		<defs>
			<rect id="SVGID_215_" x="111.48" y="133.08" width="7.08" height="31.28"/>
		</defs>
		<clipPath id="SVGID_216_">
			<use xlink:href="#SVGID_215_"  style="overflow:visible;"/>
		</clipPath>
		<g class="st106">
			<defs>
				<rect id="SVGID_217_" x="-210" y="-180" width="1200" height="1131"/>
			</defs>
			<clipPath id="SVGID_218_">
				<use xlink:href="#SVGID_217_"  style="overflow:visible;"/>
			</clipPath>
			<rect x="106.48" y="128.08" class="st107" width="17.08" height="41.28"/>
		</g>
	</g>
	<g>
		<defs>
			<polyline id="SVGID_219_" points="103.14,117.16 108.95,113.12 119.06,127.66 113.26,131.7 103.14,117.16 			"/>
		</defs>
		<clipPath id="SVGID_220_">
			<use xlink:href="#SVGID_219_"  style="overflow:visible;"/>
		</clipPath>
		<g class="st108">
			<defs>
				<rect id="SVGID_221_" x="-210" y="-180" width="1200" height="1131"/>
			</defs>
			<clipPath id="SVGID_222_">
				<use xlink:href="#SVGID_221_"  style="overflow:visible;"/>
			</clipPath>
			<rect x="98.14" y="108.12" class="st109" width="25.93" height="28.58"/>
		</g>
	</g>
	<g>
		<defs>
			<polyline id="SVGID_223_" points="141.87,164.36 136,164.36 118.38,132.39 122.89,129.92 141.87,164.36 			"/>
		</defs>
		<clipPath id="SVGID_224_">
			<use xlink:href="#SVGID_223_"  style="overflow:visible;"/>
		</clipPath>
		<g class="st110">
			<defs>
				<rect id="SVGID_225_" x="-210" y="-180" width="1200" height="1131"/>
			</defs>
			<clipPath id="SVGID_226_">
				<use xlink:href="#SVGID_225_"  style="overflow:visible;"/>
			</clipPath>
			<rect x="113.38" y="124.92" class="st111" width="33.49" height="44.44"/>
		</g>
	</g>
	<g>
		<defs>
			<polyline id="SVGID_227_" points="111.93,132.39 111.54,133.08 111.48,133.21 94.31,164.36 88.43,164.36 107.42,129.92 
				111.93,132.39 			"/>
		</defs>
		<clipPath id="SVGID_228_">
			<use xlink:href="#SVGID_227_"  style="overflow:visible;"/>
		</clipPath>
		<g class="st112">
			<defs>
				<rect id="SVGID_229_" x="-210" y="-180" width="1200" height="1131"/>
			</defs>
			<clipPath id="SVGID_230_">
				<use xlink:href="#SVGID_229_"  style="overflow:visible;"/>
			</clipPath>
			<rect x="83.43" y="124.92" class="st113" width="33.49" height="44.44"/>
		</g>
	</g>
	<g>
		<defs>
			<polyline id="SVGID_231_" points="119.84,73.06 107.8,81.02 99.75,86.34 95.98,80.65 104.27,75.17 108.61,72.29 116.07,67.36 
				119.84,73.06 			"/>
		</defs>
		<clipPath id="SVGID_232_">
			<use xlink:href="#SVGID_231_"  style="overflow:visible;"/>
		</clipPath>
		<g class="st114">
			<defs>
				<rect id="SVGID_233_" x="-210" y="-180" width="1200" height="1131"/>
			</defs>
			<clipPath id="SVGID_234_">
				<use xlink:href="#SVGID_233_"  style="overflow:visible;"/>
			</clipPath>
			<rect x="90.98" y="62.36" class="st115" width="33.86" height="28.99"/>
		</g>
	</g>
	<g>
		<defs>
			<polyline id="SVGID_235_" points="115.15,83.11 110.69,85.8 107.8,81.02 104.27,75.17 108.61,72.29 112.15,78.14 115.15,83.11 
							"/>
		</defs>
		<clipPath id="SVGID_236_">
			<use xlink:href="#SVGID_235_"  style="overflow:visible;"/>
		</clipPath>
		<g class="st116">
			<defs>
				<rect id="SVGID_237_" x="-210" y="-180" width="1200" height="1131"/>
			</defs>
			<clipPath id="SVGID_238_">
				<use xlink:href="#SVGID_237_"  style="overflow:visible;"/>
			</clipPath>
			<rect x="99.27" y="67.29" class="st117" width="20.88" height="23.51"/>
		</g>
	</g>
	<g>
		<defs>
			<polyline id="SVGID_239_" points="142.84,93.88 90.45,128.53 76.62,107.61 129.01,72.96 142.84,93.88 			"/>
		</defs>
		<clipPath id="SVGID_240_">
			<use xlink:href="#SVGID_239_"  style="overflow:visible;"/>
		</clipPath>
		<g class="st118">
			<defs>
				<rect id="SVGID_241_" x="-210" y="-180" width="1200" height="1131"/>
			</defs>
			<clipPath id="SVGID_242_">
				<use xlink:href="#SVGID_241_"  style="overflow:visible;"/>
			</clipPath>
			<rect x="71.62" y="67.96" class="st119" width="76.22" height="65.57"/>
		</g>
	</g>
	<g>
		<defs>
			<polyline id="SVGID_243_" points="157.51,87.52 144.23,96.3 127.68,71.27 140.96,62.49 157.51,87.52 			"/>
		</defs>
		<clipPath id="SVGID_244_">
			<use xlink:href="#SVGID_243_"  style="overflow:visible;"/>
		</clipPath>
		<g class="st120">
			<defs>
				<rect id="SVGID_245_" x="-210" y="-180" width="1200" height="1131"/>
			</defs>
			<clipPath id="SVGID_246_">
				<use xlink:href="#SVGID_245_"  style="overflow:visible;"/>
			</clipPath>
			<rect x="122.68" y="57.49" class="st121" width="39.83" height="43.82"/>
		</g>
	</g>
	<g>
		<defs>
			<polyline id="SVGID_247_" points="91.98,130.54 78.69,139.32 62.14,114.28 75.42,105.5 91.98,130.54 			"/>
		</defs>
		<clipPath id="SVGID_248_">
			<use xlink:href="#SVGID_247_"  style="overflow:visible;"/>
		</clipPath>
		<g class="st122">
			<defs>
				<rect id="SVGID_249_" x="-210" y="-180" width="1200" height="1131"/>
			</defs>
			<clipPath id="SVGID_250_">
				<use xlink:href="#SVGID_249_"  style="overflow:visible;"/>
			</clipPath>
			<rect x="57.14" y="100.5" class="st123" width="39.83" height="43.82"/>
		</g>
	</g>
	<g>
		<defs>
			<path id="SVGID_251_" d="M90.84,99.48c-0.41,0-0.82-0.2-1.06-0.57c-0.39-0.59-0.23-1.38,0.36-1.77l2.38-1.57
				c0.59-0.39,1.38-0.23,1.77,0.36c0.39,0.59,0.23,1.38-0.36,1.77l-2.38,1.57C91.33,99.41,91.08,99.48,90.84,99.48"/>
		</defs>
		<clipPath id="SVGID_252_">
			<use xlink:href="#SVGID_251_"  style="overflow:visible;"/>
		</clipPath>
		<g class="st124">
			<defs>
				<rect id="SVGID_253_" x="-210" y="-180" width="1200" height="1131"/>
			</defs>
			<clipPath id="SVGID_254_">
				<use xlink:href="#SVGID_253_"  style="overflow:visible;"/>
			</clipPath>
			<rect x="84.57" y="90.36" class="st125" width="14.93" height="14.12"/>
		</g>
	</g>
	<g>
		<defs>
			<path id="SVGID_255_" d="M90.09,130.29l-15.24-23.05l11.72-7.75c0.59-0.39,1.38-0.23,1.77,0.36c0.39,0.59,0.23,1.38-0.36,1.77
				l-9.6,6.35l12.42,18.79l50.27-33.24l-12.42-18.79L98.37,94.76c-0.59,0.39-1.38,0.23-1.77-0.36c-0.39-0.59-0.23-1.38,0.36-1.77
				l32.41-21.43l15.24,23.05L90.09,130.29"/>
		</defs>
		<clipPath id="SVGID_256_">
			<use xlink:href="#SVGID_255_"  style="overflow:visible;"/>
		</clipPath>
		<g class="st126">
			<defs>
				<rect id="SVGID_257_" x="-210" y="-180" width="1200" height="1131"/>
			</defs>
			<clipPath id="SVGID_258_">
				<use xlink:href="#SVGID_257_"  style="overflow:visible;"/>
			</clipPath>
			<rect x="69.86" y="66.19" class="st127" width="79.75" height="69.1"/>
		</g>
	</g>
	<g>
		<defs>
			<path id="SVGID_259_" d="M150.81,78.66c-0.41,0-0.82-0.2-1.06-0.57l-9.15-13.84l-11.06,7.31l0.48,0.61
				c0.44,0.55,0.34,1.36-0.21,1.79c-0.55,0.44-1.35,0.34-1.79-0.21l-2.19-2.78l15.5-10.25l10.55,15.96
				c0.39,0.59,0.23,1.38-0.36,1.77C151.3,78.59,151.05,78.66,150.81,78.66"/>
		</defs>
		<clipPath id="SVGID_260_">
			<use xlink:href="#SVGID_259_"  style="overflow:visible;"/>
		</clipPath>
		<g class="st128">
			<defs>
				<rect id="SVGID_261_" x="-210" y="-180" width="1200" height="1131"/>
			</defs>
			<clipPath id="SVGID_262_">
				<use xlink:href="#SVGID_261_"  style="overflow:visible;"/>
			</clipPath>
			<rect x="120.82" y="55.72" class="st129" width="36.26" height="27.94"/>
		</g>
	</g>
	<g>
		<defs>
			<path id="SVGID_263_" d="M153.43,82.63c-0.41,0-0.82-0.2-1.06-0.57l-0.97-1.46c-0.39-0.59-0.23-1.38,0.36-1.77
				c0.59-0.39,1.38-0.23,1.77,0.36l0.97,1.46c0.39,0.59,0.23,1.38-0.36,1.77C153.92,82.56,153.68,82.63,153.43,82.63"/>
		</defs>
		<clipPath id="SVGID_264_">
			<use xlink:href="#SVGID_263_"  style="overflow:visible;"/>
		</clipPath>
		<g class="st130">
			<defs>
				<rect id="SVGID_265_" x="-210" y="-180" width="1200" height="1131"/>
			</defs>
			<clipPath id="SVGID_266_">
				<use xlink:href="#SVGID_265_"  style="overflow:visible;"/>
			</clipPath>
			<rect x="146.19" y="73.62" class="st131" width="13.52" height="14.01"/>
		</g>
	</g>
	<g>
		<defs>
			<path id="SVGID_267_" d="M143.87,98.07l-1.89-2.85c-0.39-0.59-0.23-1.38,0.36-1.77c0.59-0.39,1.38-0.23,1.77,0.36l0.48,0.73
				l11.15-7.38l-1.73-2.61c-0.39-0.59-0.23-1.38,0.36-1.77c0.59-0.39,1.38-0.23,1.77,0.36l3.13,4.74L143.87,98.07"/>
		</defs>
		<clipPath id="SVGID_268_">
			<use xlink:href="#SVGID_267_"  style="overflow:visible;"/>
		</clipPath>
		<g class="st132">
			<defs>
				<rect id="SVGID_269_" x="-210" y="-180" width="1200" height="1131"/>
			</defs>
			<clipPath id="SVGID_270_">
				<use xlink:href="#SVGID_269_"  style="overflow:visible;"/>
			</clipPath>
			<rect x="136.77" y="77.57" class="st133" width="27.5" height="25.5"/>
		</g>
	</g>
	<g>
		<defs>
			<path id="SVGID_271_" d="M118.56,128.2c-0.4,0-0.8-0.19-1.05-0.55l-8.1-11.64c-0.4-0.58-0.26-1.37,0.32-1.77
				c0.58-0.4,1.37-0.26,1.77,0.32l8.1,11.64c0.4,0.58,0.26,1.37-0.32,1.77C119.07,128.13,118.81,128.2,118.56,128.2"/>
		</defs>
		<clipPath id="SVGID_272_">
			<use xlink:href="#SVGID_271_"  style="overflow:visible;"/>
		</clipPath>
		<g class="st134">
			<defs>
				<rect id="SVGID_273_" x="-210" y="-180" width="1200" height="1131"/>
			</defs>
			<clipPath id="SVGID_274_">
				<use xlink:href="#SVGID_273_"  style="overflow:visible;"/>
			</clipPath>
			<rect x="104.19" y="109.02" class="st135" width="20.65" height="24.19"/>
		</g>
	</g>
	<g>
		<defs>
			<path id="SVGID_275_" d="M109.43,127.48c-0.4,0-0.8-0.19-1.05-0.55l-4.87-7c-0.4-0.58-0.26-1.37,0.32-1.78
				c0.58-0.4,1.37-0.26,1.77,0.32l4.87,7c0.4,0.58,0.26,1.37-0.32,1.77C109.94,127.4,109.68,127.48,109.43,127.48"/>
		</defs>
		<clipPath id="SVGID_276_">
			<use xlink:href="#SVGID_275_"  style="overflow:visible;"/>
		</clipPath>
		<g class="st136">
			<defs>
				<rect id="SVGID_277_" x="-210" y="-180" width="1200" height="1131"/>
			</defs>
			<clipPath id="SVGID_278_">
				<use xlink:href="#SVGID_277_"  style="overflow:visible;"/>
			</clipPath>
			<rect x="98.28" y="112.92" class="st137" width="17.42" height="19.55"/>
		</g>
	</g>
	<g>
		<defs>
			<path id="SVGID_279_" d="M95.07,165.63h-8.79l18.29-33.17c0.34-0.62,1.12-0.84,1.73-0.5c0.62,0.34,0.84,1.12,0.5,1.73
				l-16.2,29.38h2.97l4.7-8.53c0.34-0.62,1.12-0.84,1.73-0.5c0.62,0.34,0.84,1.12,0.5,1.73L95.07,165.63"/>
		</defs>
		<clipPath id="SVGID_280_">
			<use xlink:href="#SVGID_279_"  style="overflow:visible;"/>
		</clipPath>
		<g class="st138">
			<defs>
				<rect id="SVGID_281_" x="-210" y="-180" width="1200" height="1131"/>
			</defs>
			<clipPath id="SVGID_282_">
				<use xlink:href="#SVGID_281_"  style="overflow:visible;"/>
			</clipPath>
			<rect x="81.28" y="126.81" class="st139" width="30.68" height="43.83"/>
		</g>
	</g>
	<g>
		<defs>
			<path id="SVGID_283_" d="M101.23,153.08c-0.21,0-0.42-0.05-0.61-0.16c-0.62-0.34-0.84-1.12-0.5-1.73l0.65-1.18
				c0.34-0.62,1.12-0.84,1.73-0.5c0.62,0.34,0.84,1.12,0.5,1.73l-0.65,1.18C102.12,152.84,101.68,153.08,101.23,153.08"/>
		</defs>
		<clipPath id="SVGID_284_">
			<use xlink:href="#SVGID_283_"  style="overflow:visible;"/>
		</clipPath>
		<g class="st140">
			<defs>
				<rect id="SVGID_285_" x="-210" y="-180" width="1200" height="1131"/>
			</defs>
			<clipPath id="SVGID_286_">
				<use xlink:href="#SVGID_285_"  style="overflow:visible;"/>
			</clipPath>
			<rect x="94.96" y="144.35" class="st141" width="13.2" height="13.73"/>
		</g>
	</g>
	<g>
		<defs>
			<path id="SVGID_287_" d="M103.89,148.25c-0.21,0-0.42-0.05-0.61-0.16c-0.62-0.34-0.84-1.11-0.51-1.73l7.59-13.89
				c0.34-0.62,1.11-0.85,1.73-0.51c0.62,0.34,0.84,1.11,0.51,1.73l-7.59,13.89C104.78,148.01,104.34,148.25,103.89,148.25"/>
		</defs>
		<clipPath id="SVGID_288_">
			<use xlink:href="#SVGID_287_"  style="overflow:visible;"/>
		</clipPath>
		<g class="st142">
			<defs>
				<rect id="SVGID_289_" x="-210" y="-180" width="1200" height="1131"/>
			</defs>
			<clipPath id="SVGID_290_">
				<use xlink:href="#SVGID_289_"  style="overflow:visible;"/>
			</clipPath>
			<rect x="97.62" y="126.81" class="st143" width="20.14" height="26.44"/>
		</g>
	</g>
	<g>
		<defs>
			<path id="SVGID_291_" d="M119.83,165.63h-9.63v-30.91c0-0.7,0.57-1.28,1.27-1.28c0.7,0,1.27,0.57,1.27,1.28v28.36h4.53v-29.38
				c0-0.7,0.57-1.28,1.27-1.28c0.7,0,1.27,0.57,1.27,1.28V165.63"/>
		</defs>
		<clipPath id="SVGID_292_">
			<use xlink:href="#SVGID_291_"  style="overflow:visible;"/>
		</clipPath>
		<g class="st144">
			<defs>
				<rect id="SVGID_293_" x="-210" y="-180" width="1200" height="1131"/>
			</defs>
			<clipPath id="SVGID_294_">
				<use xlink:href="#SVGID_293_"  style="overflow:visible;"/>
			</clipPath>
			<rect x="105.21" y="127.43" class="st145" width="19.63" height="43.2"/>
		</g>
	</g>
	<g>
		<defs>
			<path id="SVGID_295_" d="M144.03,165.63h-8.78l-17.3-31.39c-0.34-0.62-0.12-1.39,0.5-1.73c0.62-0.34,1.39-0.12,1.73,0.5
				l16.57,30.07h2.96l-8.18-14.84c-0.34-0.62-0.12-1.39,0.5-1.73c0.62-0.34,1.39-0.12,1.73,0.5L144.03,165.63"/>
		</defs>
		<clipPath id="SVGID_296_">
			<use xlink:href="#SVGID_295_"  style="overflow:visible;"/>
		</clipPath>
		<g class="st146">
			<defs>
				<rect id="SVGID_297_" x="-210" y="-180" width="1200" height="1131"/>
			</defs>
			<clipPath id="SVGID_298_">
				<use xlink:href="#SVGID_297_"  style="overflow:visible;"/>
			</clipPath>
			<rect x="112.79" y="127.35" class="st147" width="36.24" height="43.28"/>
		</g>
	</g>
	<g>
		<defs>
			<path id="SVGID_299_" d="M130.87,145.68c-0.45,0-0.89-0.24-1.12-0.66l-0.5-0.9c-0.34-0.62-0.12-1.39,0.5-1.73
				c0.62-0.34,1.39-0.12,1.73,0.5l0.5,0.9c0.34,0.62,0.12,1.39-0.5,1.73C131.29,145.63,131.08,145.68,130.87,145.68"/>
		</defs>
		<clipPath id="SVGID_300_">
			<use xlink:href="#SVGID_299_"  style="overflow:visible;"/>
		</clipPath>
		<g class="st148">
			<defs>
				<rect id="SVGID_301_" x="-210" y="-180" width="1200" height="1131"/>
			</defs>
			<clipPath id="SVGID_302_">
				<use xlink:href="#SVGID_301_"  style="overflow:visible;"/>
			</clipPath>
			<rect x="124.1" y="137.23" class="st149" width="13.05" height="13.45"/>
		</g>
	</g>
	<g>
		<defs>
			<path id="SVGID_303_" d="M128.93,142.15c-0.45,0-0.89-0.24-1.12-0.66l-4-7.25c-0.34-0.62-0.12-1.39,0.5-1.73
				c0.62-0.34,1.39-0.12,1.73,0.5l4,7.25c0.34,0.62,0.12,1.39-0.5,1.73C129.35,142.1,129.14,142.15,128.93,142.15"/>
		</defs>
		<clipPath id="SVGID_304_">
			<use xlink:href="#SVGID_303_"  style="overflow:visible;"/>
		</clipPath>
		<g class="st150">
			<defs>
				<rect id="SVGID_305_" x="-210" y="-180" width="1200" height="1131"/>
			</defs>
			<clipPath id="SVGID_306_">
				<use xlink:href="#SVGID_305_"  style="overflow:visible;"/>
			</clipPath>
			<rect x="118.66" y="127.35" class="st151" width="16.55" height="19.8"/>
		</g>
	</g>
	<g>
		<defs>
			<path id="SVGID_307_" d="M86.12,108.63c-0.42,0-0.83-0.2-1.07-0.58c-0.38-0.59-0.22-1.38,0.37-1.76l22.86-14.87
				c0.59-0.38,1.38-0.22,1.76,0.37c0.38,0.59,0.22,1.38-0.37,1.76l-22.86,14.88C86.6,108.57,86.36,108.63,86.12,108.63"/>
		</defs>
		<clipPath id="SVGID_308_">
			<use xlink:href="#SVGID_307_"  style="overflow:visible;"/>
		</clipPath>
		<g class="st152">
			<defs>
				<rect id="SVGID_309_" x="-210" y="-180" width="1200" height="1131"/>
			</defs>
			<clipPath id="SVGID_310_">
				<use xlink:href="#SVGID_309_"  style="overflow:visible;"/>
			</clipPath>
			<rect x="79.85" y="86.21" class="st153" width="35.41" height="27.42"/>
		</g>
	</g>
	<g>
		<defs>
			<path id="SVGID_311_" d="M112.04,91.89c-0.43,0-0.85-0.22-1.09-0.62c-0.36-0.6-0.17-1.39,0.43-1.75l2.74-1.66
				c0.6-0.36,1.39-0.17,1.75,0.43c0.36,0.6,0.17,1.39-0.43,1.75l-2.74,1.66C112.49,91.83,112.27,91.89,112.04,91.89"/>
		</defs>
		<clipPath id="SVGID_312_">
			<use xlink:href="#SVGID_311_"  style="overflow:visible;"/>
		</clipPath>
		<g class="st154">
			<defs>
				<rect id="SVGID_313_" x="-210" y="-180" width="1200" height="1131"/>
			</defs>
			<clipPath id="SVGID_314_">
				<use xlink:href="#SVGID_313_"  style="overflow:visible;"/>
			</clipPath>
			<rect x="105.77" y="82.68" class="st155" width="15.29" height="14.21"/>
		</g>
	</g>
	<g>
		<defs>
			<path id="SVGID_315_" d="M110.19,86.24c-0.43,0-0.85-0.22-1.09-0.62l-6.55-10.85l6.47-4.29l6.62,10.97
				c0.36,0.6,0.17,1.39-0.43,1.75c-0.6,0.36-1.39,0.17-1.75-0.43l-5.25-8.69l-2.22,1.47l5.29,8.75c0.36,0.6,0.17,1.39-0.43,1.75
				C110.64,86.18,110.41,86.24,110.19,86.24"/>
		</defs>
		<clipPath id="SVGID_316_">
			<use xlink:href="#SVGID_315_"  style="overflow:visible;"/>
		</clipPath>
		<g class="st156">
			<defs>
				<rect id="SVGID_317_" x="-210" y="-180" width="1200" height="1131"/>
			</defs>
			<clipPath id="SVGID_318_">
				<use xlink:href="#SVGID_317_"  style="overflow:visible;"/>
			</clipPath>
			<rect x="97.55" y="65.49" class="st157" width="23.28" height="25.75"/>
		</g>
	</g>
	<g>
		<defs>
			<path id="SVGID_319_" d="M99.39,88.11l-5.17-7.82l22.22-14.7l5.17,7.83l-8.21,5.43c-0.59,0.39-1.38,0.23-1.77-0.36
				c-0.39-0.59-0.23-1.38,0.36-1.77l6.09-4.03l-2.36-3.57L97.75,81.01l2.36,3.57l6.54-4.32c0.59-0.39,1.38-0.23,1.77,0.36
				c0.39,0.59,0.23,1.38-0.36,1.77L99.39,88.11"/>
		</defs>
		<clipPath id="SVGID_320_">
			<use xlink:href="#SVGID_319_"  style="overflow:visible;"/>
		</clipPath>
		<g class="st158">
			<defs>
				<rect id="SVGID_321_" x="-210" y="-180" width="1200" height="1131"/>
			</defs>
			<clipPath id="SVGID_322_">
				<use xlink:href="#SVGID_321_"  style="overflow:visible;"/>
			</clipPath>
			<rect x="89.21" y="60.59" class="st159" width="37.4" height="32.52"/>
		</g>
	</g>
	<g>
		<defs>
			<path id="SVGID_323_" d="M126.93,168.72H73.79c-0.7,0-1.27-0.57-1.27-1.27c0-0.7,0.57-1.27,1.27-1.27h53.14
				c0.7,0,1.27,0.57,1.27,1.27C128.21,168.15,127.64,168.72,126.93,168.72"/>
		</defs>
		<clipPath id="SVGID_324_">
			<use xlink:href="#SVGID_323_"  style="overflow:visible;"/>
		</clipPath>
		<g class="st160">
			<defs>
				<rect id="SVGID_325_" x="-210" y="-180" width="1200" height="1131"/>
			</defs>
			<clipPath id="SVGID_326_">
				<use xlink:href="#SVGID_325_"  style="overflow:visible;"/>
			</clipPath>
			<rect x="67.52" y="161.17" class="st161" width="65.69" height="12.55"/>
		</g>
	</g>
	<g>
		<defs>
			<path id="SVGID_327_" d="M135.24,168.72h-3.57c-0.7,0-1.27-0.57-1.27-1.27c0-0.7,0.57-1.27,1.27-1.27h3.57
				c0.7,0,1.27,0.57,1.27,1.27C136.51,168.15,135.94,168.72,135.24,168.72"/>
		</defs>
		<clipPath id="SVGID_328_">
			<use xlink:href="#SVGID_327_"  style="overflow:visible;"/>
		</clipPath>
		<g class="st162">
			<defs>
				<rect id="SVGID_329_" x="-210" y="-180" width="1200" height="1131"/>
			</defs>
			<clipPath id="SVGID_330_">
				<use xlink:href="#SVGID_329_"  style="overflow:visible;"/>
			</clipPath>
			<rect x="125.39" y="161.17" class="st163" width="16.12" height="12.55"/>
		</g>
	</g>
	<g>
		<defs>
			<path id="SVGID_331_" d="M150.62,168.72H138.8c-0.7,0-1.27-0.57-1.27-1.27c0-0.7,0.57-1.27,1.27-1.27h11.81
				c0.7,0,1.27,0.57,1.27,1.27C151.89,168.15,151.32,168.72,150.62,168.72"/>
		</defs>
		<clipPath id="SVGID_332_">
			<use xlink:href="#SVGID_331_"  style="overflow:visible;"/>
		</clipPath>
		<g class="st164">
			<defs>
				<rect id="SVGID_333_" x="-210" y="-180" width="1200" height="1131"/>
			</defs>
			<clipPath id="SVGID_334_">
				<use xlink:href="#SVGID_333_"  style="overflow:visible;"/>
			</clipPath>
			<rect x="132.53" y="161.17" class="st165" width="24.36" height="12.55"/>
		</g>
	</g>
	<g>
		<defs>
			<path id="SVGID_335_" d="M104.56,173.23H78.89c-0.7,0-1.27-0.57-1.27-1.28c0-0.7,0.57-1.27,1.27-1.27h25.67
				c0.7,0,1.27,0.57,1.27,1.27C105.83,172.65,105.26,173.23,104.56,173.23"/>
		</defs>
		<clipPath id="SVGID_336_">
			<use xlink:href="#SVGID_335_"  style="overflow:visible;"/>
		</clipPath>
		<g class="st166">
			<defs>
				<rect id="SVGID_337_" x="-210" y="-180" width="1200" height="1131"/>
			</defs>
			<clipPath id="SVGID_338_">
				<use xlink:href="#SVGID_337_"  style="overflow:visible;"/>
			</clipPath>
			<rect x="72.62" y="165.68" class="st167" width="38.21" height="12.55"/>
		</g>
	</g>
	<g>
		<defs>
			<path id="SVGID_339_" d="M109.43,173.23h-1.74c-0.7,0-1.27-0.57-1.27-1.28c0-0.7,0.57-1.27,1.27-1.27h1.74
				c0.7,0,1.27,0.57,1.27,1.27C110.71,172.65,110.13,173.23,109.43,173.23"/>
		</defs>
		<clipPath id="SVGID_340_">
			<use xlink:href="#SVGID_339_"  style="overflow:visible;"/>
		</clipPath>
		<g class="st168">
			<defs>
				<rect id="SVGID_341_" x="-210" y="-180" width="1200" height="1131"/>
			</defs>
			<clipPath id="SVGID_342_">
				<use xlink:href="#SVGID_341_"  style="overflow:visible;"/>
			</clipPath>
			<rect x="101.41" y="165.68" class="st169" width="14.29" height="12.55"/>
		</g>
	</g>
	<g>
		<defs>
			<path id="SVGID_343_" d="M119.09,130.52c0,2.39-1.93,4.32-4.32,4.32c-2.39,0-4.32-1.93-4.32-4.32c0-2.39,1.93-4.32,4.32-4.32
				C117.15,126.2,119.09,128.14,119.09,130.52"/>
		</defs>
		<clipPath id="SVGID_344_">
			<use xlink:href="#SVGID_343_"  style="overflow:visible;"/>
		</clipPath>
		<g class="st170">
			<defs>
				<rect id="SVGID_345_" x="-210" y="-180" width="1200" height="1131"/>
			</defs>
			<clipPath id="SVGID_346_">
				<use xlink:href="#SVGID_345_"  style="overflow:visible;"/>
			</clipPath>
			<rect x="105.45" y="121.2" class="st171" width="18.64" height="18.64"/>
		</g>
	</g>
</g>
<g>
	<defs>
		<rect id="SVGID_347_" x="-210" y="-180" width="1200" height="1131"/>
	</defs>
	<clipPath id="SVGID_348_">
		<use xlink:href="#SVGID_347_"  style="overflow:visible;"/>
	</clipPath>
</g>
<g>
	<g>
		<defs>
			<rect id="SVGID_349_" x="-210" y="-180" width="1200" height="1131"/>
		</defs>
		<clipPath id="SVGID_350_">
			<use xlink:href="#SVGID_349_"  style="overflow:visible;"/>
		</clipPath>
	</g>
</g>
<g>
	<defs>
		<rect id="SVGID_351_" x="-210" y="-180" width="1200" height="1131"/>
	</defs>
	<clipPath id="SVGID_352_">
		<use xlink:href="#SVGID_351_"  style="overflow:visible;"/>
	</clipPath>
</g>
</svg>
