<?xml version="1.0" encoding="utf-8"?>
<!-- Generator: Adobe Illustrator 19.0.0, SVG Export Plug-In . SVG Version: 6.00 Build 0)  -->
<svg version="1.1" id="Layer_1" xmlns="http://www.w3.org/2000/svg" xmlns:xlink="http://www.w3.org/1999/xlink" x="0px" y="0px"
	 viewBox="0 0 21.9 25" style="enable-background:new 0 0 21.9 25;" xml:space="preserve">
<style type="text/css">
	.st0{fill:#FFFFFF;}
</style>
<g id="XMLID_187_">
	<path id="XMLID_189_" class="st0" d="M15.5,14.8c1.2,0,2.3,0.3,3.2,0.9s1.8,1.4,2.3,2.4s0.9,2.1,0.9,3.2v1.3c0,0.7-0.2,1.2-0.7,1.7
		s-1,0.7-1.7,0.7H2.4c-0.7,0-1.2-0.2-1.7-0.7s-0.7-1-0.7-1.7v-1.3c0-1.2,0.3-2.3,0.9-3.2s1.4-1.8,2.3-2.4s2.1-0.9,3.2-0.9l2,6.7
		l1.7-5l-1.2-1.2c-0.3-0.2-0.3-0.5-0.2-0.8s0.4-0.5,0.7-0.5h3.1c0.4,0,0.6,0.2,0.7,0.5s0.1,0.6-0.2,0.8l-1.2,1.2l1.7,5L15.5,14.8z
		 M2.4,23.4h5l-2-6.9c-1.1,0.3-2,0.9-2.7,1.8s-1,1.9-1,3.1v1.3c0,0.2,0.1,0.4,0.2,0.6S2.2,23.4,2.4,23.4z M11,12.5
		c-1.1,0-2.2-0.3-3.1-0.8s-1.7-1.3-2.3-2.3s-0.8-2-0.8-3.1S5,4.1,5.6,3.1s1.3-1.7,2.3-2.3S9.9,0,11,0s2.2,0.3,3.1,0.8
		s1.7,1.3,2.3,2.3c0.6,1,0.8,2,0.8,3.1S17,8.4,16.4,9.4c-0.6,1-1.3,1.7-2.3,2.3S12.1,12.5,11,12.5z M11,1.6C9.7,1.6,8.6,2,7.7,2.9
		s-1.4,2-1.4,3.3s0.5,2.4,1.4,3.3s2,1.4,3.3,1.4s2.4-0.5,3.3-1.4s1.4-2,1.4-3.3s-0.5-2.4-1.4-3.3S12.3,1.6,11,1.6z M9.5,23.4h3
		L11,18.9L9.5,23.4z M20.4,22.7v-1.3c0-1.1-0.4-2.2-1.1-3.1s-1.6-1.5-2.7-1.8l-2,6.9h4.9c0.2,0,0.4-0.1,0.6-0.2S20.4,22.9,20.4,22.7
		z"/>
</g>
</svg>
