<?xml version="1.0" encoding="utf-8"?>
<!-- Generator: Adobe Illustrator 19.0.0, SVG Export Plug-In . SVG Version: 6.00 Build 0)  -->
<svg version="1.1" id="Layer_1" xmlns="http://www.w3.org/2000/svg" xmlns:xlink="http://www.w3.org/1999/xlink" x="0px" y="0px"
	 viewBox="0 0 22 19.2" style="enable-background:new 0 0 22 19.2;" xml:space="preserve">
<style type="text/css">
	.st0{fill:#FFFFFF;}
</style>
<path id="XMLID_496_" class="st0" d="M19.9,0c0.6,0,1.1,0.2,1.5,0.6S22,1.5,22,2.1v15.1c0,0.6-0.2,1.1-0.6,1.5s-0.9,0.6-1.5,0.6H2.1
	c-0.6,0-1.1-0.2-1.5-0.6S0,17.8,0,17.2V2.1C0,1.5,0.2,1,0.6,0.6S1.5,0,2.1,0H19.9z M10.3,17.9V2.8H1.4v14.4c0,0.2,0.1,0.4,0.2,0.5
	s0.3,0.2,0.5,0.2H10.3z M20.6,17.2V2.8h-8.9v15.1h8.3c0.2,0,0.4-0.1,0.5-0.2S20.6,17.4,20.6,17.2z"/>
</svg>
