<?xml version="1.0" encoding="utf-8"?>
<!-- Generator: Adobe Illustrator 19.0.0, SVG Export Plug-In . SVG Version: 6.00 Build 0)  -->
<svg version="1.1" id="Layer_1" xmlns="http://www.w3.org/2000/svg" xmlns:xlink="http://www.w3.org/1999/xlink" x="0px" y="0px"
	 viewBox="0 0 31.7 21.9" style="enable-background:new 0 0 31.7 21.9;" xml:space="preserve">
<style type="text/css">
	.st0{fill:#FFFFFF;}
</style>
<g id="XMLID_187_">
	<path id="XMLID_191_" class="st0" d="M7.9,11.6c-0.5,0.3-0.9,0.7-1.2,1.1c-0.3-0.1-0.5-0.1-0.8-0.1H4c-0.6,0-1.1,0.2-1.5,0.7
		s-0.6,1-0.6,1.7c0,0.2-0.1,0.4-0.2,0.6S1.2,15.6,1,15.6s-0.4-0.1-0.6-0.2s-0.2-0.3-0.2-0.6c0-1.1,0.4-2,1.1-2.8s1.6-1.1,2.6-1.1h2
		C6.6,10.9,7.3,11.1,7.9,11.6z M4.9,9.4c-1.1,0-2-0.4-2.8-1.1S1,6.5,1,5.5s0.4-2,1.1-2.8s1.7-1.1,2.8-1.1s2,0.4,2.8,1.1
		s1.1,1.7,1.1,2.8s-0.4,2-1.1,2.8S6,9.4,4.9,9.4z M4.9,3.1c-0.7,0-1.2,0.2-1.7,0.7s-0.7,1-0.7,1.7s0.2,1.2,0.7,1.7s1,0.7,1.7,0.7
		s1.2-0.2,1.7-0.7s0.7-1,0.7-1.7S7,4.3,6.6,3.8S5.6,3.1,4.9,3.1z M19.8,11.9c0.9,0,1.8,0.2,2.6,0.6s1.4,1,1.9,1.7c0.7,0.9,1,2,1,3.1
		v2.2c0,0.7-0.2,1.2-0.7,1.7s-1,0.7-1.7,0.7H8.8c-0.7,0-1.2-0.2-1.7-0.7s-0.7-1-0.7-1.7v-2.2c0-1.1,0.3-2.2,1-3.1
		c0.5-0.7,1.1-1.3,1.9-1.7s1.7-0.6,2.6-0.6c0.5,0,1.1,0.1,1.8,0.3c0.7,0.2,1.4,0.3,2.1,0.3c0.7,0,1.4-0.1,2.1-0.3
		C18.6,12,19.3,11.9,19.8,11.9z M23.7,19.5v-2.2c0-0.8-0.2-1.6-0.7-2.2c-0.4-0.5-0.8-0.9-1.4-1.2s-1.2-0.4-1.9-0.4
		c-0.4,0-0.9,0.1-1.5,0.2c-0.8,0.2-1.7,0.3-2.4,0.3c-0.8,0-1.6-0.1-2.4-0.3c-0.6-0.2-1.1-0.2-1.5-0.2c-0.7,0-1.3,0.1-1.9,0.4
		s-1,0.7-1.3,1.2c-0.5,0.7-0.7,1.4-0.7,2.2v2.2c0,0.2,0.1,0.4,0.2,0.6s0.3,0.2,0.6,0.2h14.1c0.2,0,0.4-0.1,0.6-0.2
		S23.7,19.8,23.7,19.5z M15.9,10.9c-1,0-1.9-0.2-2.7-0.7s-1.5-1.2-2-2s-0.7-1.8-0.7-2.7s0.2-1.9,0.7-2.7s1.2-1.5,2-2S14.9,0,15.9,0
		s1.9,0.2,2.7,0.7s1.5,1.2,2,2s0.7,1.8,0.7,2.7s-0.2,1.9-0.7,2.7s-1.2,1.5-2,2S16.8,10.9,15.9,10.9z M15.9,1.6c-1.1,0-2,0.4-2.8,1.1
		S12,4.4,12,5.5s0.4,2,1.1,2.8s1.7,1.1,2.8,1.1s2-0.4,2.8-1.1s1.1-1.7,1.1-2.8s-0.4-2-1.1-2.8S16.9,1.6,15.9,1.6z M26.8,9.4
		c-1.1,0-2-0.4-2.8-1.1s-1.1-1.7-1.1-2.8s0.4-2,1.1-2.8s1.7-1.1,2.8-1.1s2,0.4,2.8,1.1s1.1,1.7,1.1,2.8s-0.4,2-1.1,2.8
		S27.9,9.4,26.8,9.4z M27.8,10.9c1,0,1.9,0.4,2.6,1.1s1.1,1.7,1.1,2.8c0,0.2-0.1,0.4-0.2,0.6s-0.3,0.2-0.6,0.2s-0.4-0.1-0.6-0.2
		s-0.2-0.3-0.2-0.6c0-0.7-0.2-1.2-0.6-1.7s-0.9-0.7-1.5-0.7h-2c-0.3,0-0.5,0-0.8,0.1c-0.4-0.4-0.8-0.7-1.2-1.1
		c0.6-0.4,1.3-0.6,2-0.6H27.8z M26.8,3.1c-0.7,0-1.2,0.2-1.7,0.7s-0.7,1-0.7,1.7s0.2,1.2,0.7,1.7s1,0.7,1.7,0.7s1.2-0.2,1.7-0.7
		s0.7-1,0.7-1.7s-0.2-1.2-0.7-1.7S27.5,3.1,26.8,3.1z"/>
</g>
</svg>
