<?xml version="1.0" encoding="utf-8"?>
<!-- Generator: Adobe Illustrator 19.0.0, SVG Export Plug-In . SVG Version: 6.00 Build 0)  -->
<svg version="1.1" id="Layer_1" xmlns="http://www.w3.org/2000/svg" xmlns:xlink="http://www.w3.org/1999/xlink" x="0px" y="0px"
	 viewBox="0 0 27.8 20.9" style="enable-background:new 0 0 27.8 20.9;" xml:space="preserve">
<style type="text/css">
	.st0{fill:none;stroke:#FFFFFF;stroke-miterlimit:10;}
	.st1{clip-path:url(#XMLID_359_);}
	.st2{clip-path:url(#XMLID_360_);fill:#FFFFFF;}
	.st3{fill:none;stroke:#FFFFFF;stroke-width:0.5556;stroke-miterlimit:10;}
	.st4{clip-path:url(#XMLID_361_);}
	.st5{clip-path:url(#XMLID_362_);fill:#FFFFFF;}
	.st6{fill:none;stroke:#FFFFFF;stroke-width:0.75;stroke-miterlimit:10;}
</style>
<g id="XMLID_48_">
	<path id="XMLID_200_" class="st0" d="M25.4,14H25c-0.2-5.3-3.9-9.6-8.8-10.6c0-0.1,0-0.3,0-0.4c0-1.3-1-2.3-2.3-2.3
		c-1.3,0-2.3,1-2.3,2.3c0,0.2,0,0.3,0,0.4C6.8,4.4,3.1,8.7,2.9,14H2.5c-1,0-1.8,0.8-1.8,1.9s0.8,1.9,1.8,1.9h22.9
		c1,0,1.8-0.8,1.8-1.9S26.4,14,25.4,14z M12.5,2.9c0-0.8,0.7-1.5,1.5-1.5c0.8,0,1.5,0.7,1.5,1.5c0,0.1,0,0.2,0,0.3
		c-0.5-0.1-1-0.1-1.4-0.1c-0.5,0-1,0-1.4,0.1C12.5,3.1,12.5,3,12.5,2.9z M25.4,16.9H2.5c-0.6,0-1-0.5-1-1c0-0.6,0.5-1,1-1h22.9
		c0.6,0,1,0.5,1,1C26.4,16.4,26,16.9,25.4,16.9z"/>
	<g id="XMLID_195_">
		<defs>
			<path id="XMLID_196_" d="M10.9,6.6c-2,0.8-3.6,2.4-4.5,4.4c-0.1,0.2,0,0.5,0.2,0.5c0.1,0,0.1,0,0.2,0c0.2,0,0.3-0.1,0.4-0.2
				c0.8-1.8,2.3-3.2,4-3.9c0.2-0.1,0.3-0.3,0.2-0.5C11.4,6.6,11.2,6.5,10.9,6.6"/>
		</defs>
		<clipPath id="XMLID_359_">
			<use xlink:href="#XMLID_196_"  style="overflow:visible;"/>
		</clipPath>
		<g id="XMLID_197_" class="st1">
			<defs>
				<rect id="XMLID_198_" x="-21.3" y="-307.5" width="1200" height="2190"/>
			</defs>
			<clipPath id="XMLID_360_">
				<use xlink:href="#XMLID_198_"  style="overflow:visible;"/>
			</clipPath>
			<rect id="XMLID_199_" x="1.4" y="1.5" class="st2" width="15.1" height="15"/>
		</g>
	</g>
	<g id="XMLID_185_">
		<path id="XMLID_194_" class="st3" d="M10.9,6.6c-2,0.8-3.6,2.4-4.5,4.4c-0.1,0.2,0,0.5,0.2,0.5c0.1,0,0.1,0,0.2,0
			c0.2,0,0.3-0.1,0.4-0.2c0.8-1.8,2.3-3.2,4-3.9c0.2-0.1,0.3-0.3,0.2-0.5C11.4,6.6,11.2,6.5,10.9,6.6"/>
	</g>
	<g id="XMLID_188_">
		<defs>
			<path id="XMLID_189_" d="M26.5,19.7h-25c-0.2,0-0.4,0.2-0.4,0.4s0.2,0.4,0.4,0.4h25c0.2,0,0.4-0.2,0.4-0.4S26.7,19.7,26.5,19.7"
				/>
		</defs>
		<clipPath id="XMLID_361_">
			<use xlink:href="#XMLID_189_"  style="overflow:visible;"/>
		</clipPath>
		<g id="XMLID_190_" class="st4">
			<defs>
				<rect id="XMLID_191_" x="-21.3" y="-307.5" width="1200" height="2190"/>
			</defs>
			<clipPath id="XMLID_362_">
				<use xlink:href="#XMLID_191_"  style="overflow:visible;"/>
			</clipPath>
			<rect id="XMLID_192_" x="-3.9" y="14.7" class="st5" width="35.8" height="10.8"/>
		</g>
	</g>
	<g id="XMLID_184_">
		<path id="XMLID_187_" class="st6" d="M26.5,19.7h-25c-0.2,0-0.4,0.2-0.4,0.4s0.2,0.4,0.4,0.4h25c0.2,0,0.4-0.2,0.4-0.4
			S26.7,19.7,26.5,19.7"/>
	</g>
</g>
</svg>
