<?xml version="1.0" encoding="utf-8"?>
<!-- Generator: Adobe Illustrator 19.0.0, SVG Export Plug-In . SVG Version: 6.00 Build 0)  -->
<svg version="1.1" id="Layer_1" xmlns="http://www.w3.org/2000/svg" xmlns:xlink="http://www.w3.org/1999/xlink" x="0px" y="0px"
	 viewBox="0 0 25.7 26.2" style="enable-background:new 0 0 25.7 26.2;" xml:space="preserve">
<style type="text/css">
	.st0{fill:none;stroke:#FFFFFF;stroke-width:1.0455;stroke-linecap:round;stroke-linejoin:round;stroke-miterlimit:10;}
	.st1{fill:none;stroke:#FFFFFF;stroke-width:1.0455;stroke-miterlimit:10;}
</style>
<g id="XMLID_497_">
	<path id="XMLID_564_" class="st0" d="M14.8,2l0.1,0.2L15,2c1.2-1.4,3.5-0.5,3.5,1.3l0,0.2l0.2-0.1c1.6-0.9,3.4,0.7,2.9,2.4L21.5,6
		l0.2,0c1.8-0.3,3,1.8,1.9,3.2l-0.1,0.2l0.2,0c1.8,0.4,2.2,2.7,0.7,3.7l-0.2,0.1l0.2,0.1c1.6,1,1.1,3.3-0.7,3.7l-0.2,0l0.1,0.2
		c1.1,1.4-0.1,3.5-1.9,3.2l-0.2,0l0.1,0.2c0.6,1.7-1.3,3.3-2.9,2.4l-0.2-0.1l0,0.2c-0.1,1.8-2.3,2.6-3.5,1.3l-0.1-0.1l-0.1,0.2
		c-0.7,1.7-3.1,1.7-3.7,0L11,24.2l-0.1,0.1c-1.2,1.4-3.5,0.5-3.5-1.3l0-0.2L7.1,23c-1.6,0.9-3.4-0.7-2.9-2.4l0.1-0.2l-0.2,0
		c-1.8,0.3-3-1.8-1.9-3.2L2.4,17l-0.2,0c-1.8-0.4-2.2-2.7-0.7-3.7l0.2-0.1l-0.2-0.1c-1.6-1-1.1-3.3,0.7-3.7l0.2,0L2.3,9.2
		C1.1,7.8,2.3,5.7,4.1,6l0.2,0L4.3,5.8C3.7,4.1,5.5,2.5,7.1,3.4l0.2,0.1l0-0.2C7.4,1.5,9.6,0.6,10.8,2L11,2.2L11,2
		C11.7,0.3,14.1,0.3,14.8,2z"/>
	<path id="XMLID_499_" class="st1" d="M11.8,15.5c1.7-0.6,2.6-2.1,2.6-3.8c0,0,0-1.3,0-1.5c0-0.3,0.4-0.7,0.4-1.9
		c0-1.1-0.2-1.6-0.7-2.2c-0.5-0.6-1.4-0.5-1.4,0.1v0.5c0,1.4-0.8,2-1.7,3.1c0,0-1.2,1.1-1.7,1.1s-2.3,0-2.3,0v6.8l1.7,0
		c1.1,0,0.7,1.1,2.3,1.1c0.3,0,6.2,0,6.2,0c0.5,0,1.1-0.6,1.1-1.2l0.8-4.7c0.2-1.1-0.8-2-1.9-2h-1.7"/>
</g>
</svg>
