<?xml version="1.0" encoding="utf-8"?>
<!-- Generator: Adobe Illustrator 19.0.0, SVG Export Plug-In . SVG Version: 6.00 Build 0)  -->
<svg version="1.1" id="Layer_1" xmlns="http://www.w3.org/2000/svg" xmlns:xlink="http://www.w3.org/1999/xlink" x="0px" y="0px"
	 viewBox="0 0 16.5 22" style="enable-background:new 0 0 16.5 22;" xml:space="preserve">
<style type="text/css">
	.st0{fill:#FFFFFF;}
</style>
<path id="XMLID_3_" class="st0" d="M14.4,2.8c0.6,0,1.1,0.2,1.5,0.6c0.4,0.4,0.6,0.9,0.6,1.5v15.1c0,0.6-0.2,1.1-0.6,1.5
	C15.5,21.8,15,22,14.4,22H2.1c-0.6,0-1.1-0.2-1.5-0.6S0,20.5,0,19.9V4.8c0-0.6,0.2-1.1,0.6-1.5s0.9-0.6,1.5-0.6h3.8
	c0-0.1,0-0.2,0-0.3c0-0.7,0.2-1.2,0.7-1.7S7.6,0,8.2,0s1.2,0.2,1.7,0.7s0.7,1,0.7,1.7c0,0.1,0,0.2,0,0.3H14.4z M15.1,19.9V4.8
	c0-0.2-0.1-0.4-0.2-0.5s-0.3-0.2-0.5-0.2h-2.1V5c0,0.1-0.1,0.3-0.2,0.4S12,5.5,11.9,5.5H4.6c-0.1,0-0.3-0.1-0.4-0.2S4.1,5.1,4.1,5
	V4.1H2.1c-0.2,0-0.4,0.1-0.5,0.2S1.4,4.6,1.4,4.8v15.1c0,0.2,0.1,0.4,0.2,0.5s0.3,0.2,0.5,0.2h12.4c0.2,0,0.4-0.1,0.5-0.2
	S15.1,20.1,15.1,19.9z M4.8,10c0.3,0,0.5,0.1,0.7,0.3s0.3,0.4,0.3,0.7s-0.1,0.5-0.3,0.7S5.1,12,4.8,12s-0.5-0.1-0.7-0.3
	c-0.2-0.2-0.3-0.4-0.3-0.7s0.1-0.5,0.3-0.7C4.3,10.1,4.5,10,4.8,10z M4.8,14.1c0.3,0,0.5,0.1,0.7,0.3s0.3,0.4,0.3,0.7
	s-0.1,0.5-0.3,0.7c-0.2,0.2-0.4,0.3-0.7,0.3s-0.5-0.1-0.7-0.3c-0.2-0.2-0.3-0.4-0.3-0.7s0.1-0.5,0.3-0.7C4.3,14.2,4.5,14.1,4.8,14.1
	z M12,10.3c0.1,0,0.2,0,0.2,0.1s0.1,0.2,0.1,0.2v0.7c0,0.1,0,0.2-0.1,0.2s-0.2,0.1-0.2,0.1H7.2c-0.1,0-0.2,0-0.2-0.1
	s-0.1-0.2-0.1-0.2v-0.7c0-0.1,0-0.2,0.1-0.2s0.2-0.1,0.2-0.1H12z M12,14.4c0.1,0,0.2,0,0.2,0.1s0.1,0.2,0.1,0.2v0.7
	c0,0.1,0,0.2-0.1,0.2s-0.2,0.1-0.2,0.1H7.2c-0.1,0-0.2,0-0.2-0.1s-0.1-0.2-0.1-0.2v-0.7c0-0.1,0-0.2,0.1-0.2s0.2-0.1,0.2-0.1H12z
	 M8.2,1.4C8,1.4,7.7,1.5,7.5,1.7S7.2,2.1,7.2,2.4s0.1,0.5,0.3,0.7S8,3.4,8.2,3.4c0.3,0,0.5-0.1,0.7-0.3s0.3-0.4,0.3-0.7
	S9.2,1.9,9,1.7S8.5,1.4,8.2,1.4z"/>
</svg>
