<?xml version="1.0" encoding="UTF-8"?>
<svg width="17px" height="23px" viewBox="0 0 17 23" version="1.1" xmlns="http://www.w3.org/2000/svg" xmlns:xlink="http://www.w3.org/1999/xlink">
    <!-- Generator: Sketch 54.1 (76490) - https://sketchapp.com -->
    <title>Group 103</title>
    <desc>Created with Sketch.</desc>
    <g id="Page-1" stroke="none" stroke-width="1" fill="none" fill-rule="evenodd">
        <g id="Group-103" fill="#FFFFFF">
            <path d="M7.35401092,3 C7.54690008,3.4414762 7.98742024,3.75 8.5,3.75 C9.01257976,3.75 9.45309992,3.4414762 9.64598908,3 C9.71288812,2.84688441 9.75,2.67777618 9.75,2.5 C9.75,1.80964406 9.19035594,1.25 8.5,1.25 C7.80964406,1.25 7.25,1.80964406 7.25,2.5 C7.25,2.67777618 7.28711188,2.84688441 7.35401092,3 Z M10.9499909,3 L15,3 C16.1045695,3 17,3.8954305 17,5 L17,21 C17,22.1045695 16.1045695,23 15,23 L2,23 C0.8954305,23 1.3527075e-16,22.1045695 0,21 L0,5 C-1.3527075e-16,3.8954305 0.8954305,3 2,3 L6.05000906,3 C6.01721513,2.83844503 6,2.67123292 6,2.5 C6,1.11928813 7.11928813,0 8.5,0 C9.88071187,0 11,1.11928813 11,2.5 C11,2.67123292 10.9827849,2.83844503 10.9499909,3 Z M4.50879313,4 L2.5,4 C1.67157288,4 1,4.67157288 1,5.5 L1,20.5 C1,21.3284271 1.67157288,22 2.5,22 L14.5,22 C15.3284271,22 16,21.3284271 16,20.5 L16,5.5 C16,4.67157288 15.3284271,4 14.5,4 L12.4217994,4 C12.4610512,4.06151884 12.4873876,4.13262554 12.4965366,4.20995201 C12.4988435,4.22944987 12.5,4.24906669 12.5,4.26870056 L12.5,5.5 C12.5,5.77614237 12.2761424,6 12,6 L5,6 C4.72385763,6 4.5,5.77614237 4.5,5.5 L4.5,4.09384692 C4.5,4.06176945 4.50302069,4.0303975 4.50879313,4 Z" id="Combined-Shape"></path>
            <circle id="Oval" cx="4" cy="11" r="1"></circle>
            <circle id="Oval-Copy-2" cx="4" cy="16" r="1"></circle>
            <rect id="Rectangle" x="6.5" y="10.3" width="7" height="1.5" rx="0.5"></rect>
            <rect id="Rectangle-Copy-15" x="6.5" y="15.3" width="7" height="1.5" rx="0.5"></rect>
        </g>
    </g>
</svg>