<?xml version="1.0" encoding="utf-8"?>
<!-- Generator: Adobe Illustrator 19.0.0, SVG Export Plug-In . SVG Version: 6.00 Build 0)  -->
<svg version="1.1" id="Layer_1" xmlns="http://www.w3.org/2000/svg" xmlns:xlink="http://www.w3.org/1999/xlink" x="0px" y="0px"
	 viewBox="0 0 27.5 22" style="enable-background:new 0 0 27.5 22;" xml:space="preserve">
<style type="text/css">
	.st0{fill:#FFFFFF;}
</style>
<g id="XMLID_48_">
	<path id="XMLID_187_" class="st0" d="M27.3,7.6c0.3,0.5,0.3,0.9,0,1.4s-0.7,0.7-1.2,0.7h-1.4v12c0,0.1,0,0.2-0.1,0.2
		S24.5,22,24.4,22h-0.7c-0.1,0-0.2,0-0.2-0.1s-0.1-0.2-0.1-0.2v-12h-6.9v10.9c0,0.4-0.1,0.7-0.4,1c-0.3,0.3-0.6,0.4-1,0.4h-11
		c-0.4,0-0.7-0.1-1-0.4s-0.4-0.6-0.4-1V9.6H1.4c-0.5,0-0.9-0.2-1.2-0.7s-0.3-0.9,0-1.4l4-6.9c0.1-0.2,0.3-0.4,0.5-0.5S5.1,0,5.3,0
		h16.9c0.2,0,0.5,0.1,0.7,0.2s0.4,0.3,0.5,0.5L27.3,7.6z M1.4,8.2h24.8l-3.9-6.9H5.3L1.4,8.2z M15.1,13.7V9.6h-11v4.1H15.1z
		 M15.1,20.5v-5.4h-11v5.5l0,0L15.1,20.5L15.1,20.5z"/>
</g>
</svg>
