<?xml version="1.0" standalone="no"?>
<!DOCTYPE svg PUBLIC "-//W3C//DTD SVG 1.1//EN" "http://www.w3.org/Graphics/SVG/1.1/DTD/svg11.dtd" >
<svg xmlns="http://www.w3.org/2000/svg" xmlns:xlink="http://www.w3.org/1999/xlink" version="1.1">
<metadata>
Created by FontForge 20170731 at Tue Jun 23 17:25:07 2015
 By Aleksey,,,
Copyright (c) 2015 by Svet Simov. All rights reserved.
</metadata>
<defs>
<font id="IntroHeadR-Base" horiz-adv-x="416" >
  <font-face 
    font-family="Intro Head R Base"
    font-weight="400"
    font-stretch="normal"
    units-per-em="1000"
    panose-1="0 0 5 0 0 0 0 0 0 0"
    ascent="750"
    descent="-250"
    x-height="474"
    cap-height="701"
    bbox="-122 -262 699 872"
    underline-thickness="50"
    underline-position="-200"
    unicode-range="U+0020-25CA"
  />
<missing-glyph horiz-adv-x="500" 
d="M410 750v-1000h-317v1000h317zM333 683h-165v-33h65v-37h-66v-33h166v33h-66v37h66v33zM267 554h-100v-104h166v34h-66v70zM233 520v-36h-33v36h33zM333 423h-166v-33h66v-37h-66v-33h100v70h66v33zM333 363h-33v-66h-133v-34h166v100zM333 241h-100v-56h34v23h33v-47
h-100v80h-33v-113h166v113zM333 68h-166v-113h166v113zM300 35v-47h-100v47h100zM333 -68h-166v-33h70l-70 -47v-33h166v33h-102l70 47h32v33z" />
    <glyph glyph-name=".notdef" horiz-adv-x="500" 
d="M410 750v-1000h-317v1000h317zM333 683h-165v-33h65v-37h-66v-33h166v33h-66v37h66v33zM267 554h-100v-104h166v34h-66v70zM233 520v-36h-33v36h33zM333 423h-166v-33h66v-37h-66v-33h100v70h66v33zM333 363h-33v-66h-133v-34h166v100zM333 241h-100v-56h34v23h33v-47
h-100v80h-33v-113h166v113zM333 68h-166v-113h166v113zM300 35v-47h-100v47h100zM333 -68h-166v-33h70l-70 -47v-33h166v33h-102l70 47h32v33z" />
    <glyph glyph-name=".null" horiz-adv-x="0" 
 />
    <glyph glyph-name="nonmarkingreturn" horiz-adv-x="333" 
 />
    <glyph glyph-name="space" unicode=" " horiz-adv-x="140" 
 />
    <glyph glyph-name="exclam" unicode="!" horiz-adv-x="166" 
d="M78 158l-15 5l-7 19l-3 13l1 15l-3 16l3 14l-5 33l2 17l-5 37l1 31l-1 17l3 39l-1 14l1 48l-2 15l2 16l-1 14l2 49l-3 17v29l1 29l-1 15l-1 16l4 16l13 10l17 -3l17 -5l9 -14l2 -13l-1 -17l1 -18v-13l2 -14l1 -79l-2 -19l2 -32l-1 -45l2 -20l-2 -31l1 -29l-4 -61l1 -15
l-4 -49l1 -46l-11 -13zM82 -8l-24 6l-12 10l-2 25l2 20l12 12l24 8l25 -5l9 -11l5 -23l-5 -27l-10 -12z" />
    <glyph glyph-name="quotedbl" unicode="&#x22;" horiz-adv-x="234" 
d="M67 509l-16 5l-6 17v15l-1 18l-2 15l-1 16v15l1 18l1 15l-1 17l-2 15l9 15l19 11l16 -9l9 -16v-18l-1 -16l-2 -15v-78l-2 -15l-5 -17zM167 506l-16 10l-6 15l-2 15v80l-1 16l-1 18l-2 16l8 17l20 6l15 -9l9 -22l-1 -26l1 -14l-1 -18l-2 -16l1 -13v-35l-2 -15l-6 -16z" />
    <glyph glyph-name="numbersign" unicode="#" horiz-adv-x="472" 
d="M130 41l-14 9l-9 15l3 15l5 18l5 24l2 25l2 13l-5 20l-14 6h-16l-16 1l-16 -2l-15 7l-5 17l11 14l19 11l14 -3l15 -1l16 1l15 7l11 14l2 19l7 28l1 16l4 16l-1 16l8 32l-7 14l-12 8l-16 -1l-17 3h-14l-15 5l-5 15l11 15l14 10l17 -3l23 2l24 6l11 18l3 14l2 16l2 18l4 18
l1 15l4 14l11 18l17 7l17 -6l5 -17l-2 -14l-2 -19l-4 -17l-4 -15l-2 -18v-17l5 -14l11 -10l17 1l12 1l16 12l10 15l6 22l8 55l4 17l8 19l18 6l17 -7l4 -17l-2 -17l-15 -79l6 -18l14 -8l17 2l30 -4l16 -6l5 -15l-9 -16l-17 -7h-17l-15 4l-17 -4l-14 -6l-13 -16v-17l-7 -46
l-7 -24l-2 -23l-3 -14l6 -17l14 -7l16 2l17 -2h14l16 -7l5 -13l-12 -15l-16 -7l-32 -2l-15 3l-15 -10l-12 -17l-2 -17l-1 -14l-9 -33v-15l-3 -19l-11 -15l-20 -5l-15 6l-7 15l4 16l5 25l4 25l3 14l1 17l-5 15l-13 8l-14 1l-14 -1l-16 -8l-11 -16l-4 -16l-2 -17v-14l-5 -17
l-3 -16l-1 -17l-10 -12zM216 229l13 2l24 6l8 17l2 14l2 18l5 17v16l5 14l3 31l3 12l-5 17l-14 7l-28 -1l-16 -7l-11 -15l-2 -32l-4 -15l-13 -74l6 -17z" />
    <glyph glyph-name="dollar" unicode="$" horiz-adv-x="431" 
d="M207 -73l-16 7l-4 15l-2 17l-7 13l-15 11l-15 6l-17 2l-16 5l-14 6l-13 4l-25 19l-7 15l3 20l16 11l17 -2l53 -28l17 -5h38l25 3l15 4l14 1l13 11l12 7l10 12l17 28l5 10l6 18l2 61l-3 17l-10 32l-9 12l-8 17l-14 11l-10 11l-19 12l-21 17l-20 11l-24 12l-14 9l-27 20
l-25 20l-11 11l-18 26l-15 28l-10 32l-3 18l1 23l7 55l9 15l10 15l9 11l10 11l16 12l41 19l16 12l9 19l-1 14l9 12l15 9l10 -7l7 -17l2 -13l7 -15l14 -8l17 -3l13 -1l30 -8l27 -17l7 -18l-7 -19l-18 -11l-18 3l-15 9l-14 5l-16 2l-17 5h-47l-15 -7l-15 -9l-13 -10l-11 -11
l-7 -14l-8 -39l2 -24l5 -20l3 -13l6 -14l9 -10l9 -15l14 -10l23 -18l16 -8l12 -12l22 -11l18 -11l16 -6l13 -9l11 -11l14 -8l10 -12l23 -22l7 -14l8 -12l6 -14l4 -16l10 -29l2 -38l-2 -26l-5 -31l-3 -14l-11 -32l-8 -12l-10 -13l-12 -15l-12 -11l-11 -9l-15 -7l-15 -8
l-16 -6l-15 -3l-14 -12l-8 -17l-2 -13l-6 -17z" />
    <glyph glyph-name="percent" unicode="%" horiz-adv-x="402" 
d="M66 -3l-14 1l-13 9l1 13l6 17l7 15l5 16l7 12l6 15l7 15l5 15l8 14l5 16l5 14l9 13l6 15l5 15l9 19l5 14l9 11l6 20l3 13l8 13l7 14l5 19l7 11l6 16l15 29l6 16l7 14l4 14l7 17l6 13l7 14l7 16l6 17l7 16l5 12l5 15l6 13l7 18l9 14l5 13l5 16l6 12l6 18l16 17l18 8l14 -2
l12 -8l-1 -18l-6 -13l-5 -16l-8 -12l-5 -16l-8 -12l-4 -18l-15 -30l-11 -27l-8 -16l-6 -16l-28 -59l-4 -15l-8 -13l-4 -16l-6 -16l-14 -30l-5 -14l-8 -14l-7 -15l-7 -14l-4 -16l-7 -14l-7 -15l-4 -17l-9 -14l-13 -26l-6 -18l-7 -13l-5 -15l-22 -46l-4 -15l-8 -15l-11 -30
l-15 -13zM150 483l-49 1l-16 8l-12 7l-11 12l-8 13l-6 16l-5 20l-2 23l1 24l5 17l7 14l6 15l26 19l15 6l25 4l23 -6l17 -6l14 -8l10 -11l8 -13l8 -15l4 -18v-24l-1 -23l-4 -19l-6 -13l-10 -12l-9 -13zM127 531l18 6l10 11l6 11l5 25l-4 22l-6 11l-9 9l-21 5l-21 -5l-9 -8
l-7 -15l-2 -23v-22l8 -13l10 -11zM283 0l-22 3l-16 6l-14 6l-13 13l-15 29l-3 17v24l1 23l3 19l6 14l9 16l12 11l29 13l25 6l24 -4l29 -14l11 -14l9 -14l6 -17l4 -17l1 -22l-2 -23l-3 -18l-7 -17l-7 -12l-12 -11l-16 -9l-14 -5zM285 50l18 1l13 11l7 12l1 25l-2 20l-6 16
l-12 11l-22 5l-17 -3l-10 -14l-7 -14l-2 -21l1 -25l8 -10l8 -12z" />
    <glyph glyph-name="ampersand" unicode="&#x26;" horiz-adv-x="527" 
d="M215 -14l-17 3l-15 4l-16 3l-15 6l-15 5l-14 5l-13 9l-12 12l-11 8l-9 12l-15 27l-6 17l-5 30v17l-2 23l1 36l3 19l6 15l2 16l20 42l11 12l6 14l15 20l16 16l9 22l3 20l-8 50l-1 16l1 68l4 18l4 16l12 26l9 15l33 35l14 7l31 8l32 -2l16 -4l12 -2l26 -22l8 -14l8 -12
l3 -19l3 -16l-6 -43l-4 -17l-7 -13l-6 -16l-9 -13l-20 -25l-21 -20l-11 -13l-25 -21l-10 -12l-10 -18v-20l3 -15l14 -31l16 -30l18 -27l31 -39l9 -13l11 -9l12 -13l14 -8l14 -3l11 11l5 14l10 47l3 32v16l10 16l17 9l21 -8l9 -18l-3 -33l1 -18l-5 -17l-2 -13l-2 -17l-3 -14
l-12 -33l1 -20l10 -13l13 -11l15 -5l13 -6l14 -9l13 -13l2 -17l-7 -12l-14 -11l-19 3l-30 12l-27 20h-22l-19 -8l-13 -9l-14 -6l-28 -16l-18 -2l-14 -5zM202 434l14 5l24 18l12 14l9 10l19 26l6 16l4 22l1 24l-6 13l-8 12l-10 8l-16 5l-15 -3l-14 -10l-10 -12l-8 -13l-6 -15
l-4 -13l-1 -50l-1 -17l1 -14l3 -16zM236 46h23l16 4l15 3l15 6l12 7l6 15l-6 18l-12 9l-12 13l-14 10l-21 23l-10 12l-8 12l-11 13l-8 16l-10 10l-9 15l-23 41l-3 17l-11 7l-14 -4l-8 -13l-6 -15l-7 -14l-12 -30l-4 -57v-24l4 -15l11 -29l10 -15l13 -9l13 -10l15 -8l31 -6z
" />
    <glyph glyph-name="quotesingle" unicode="'" horiz-adv-x="135" 
d="M66 700l17 -10l10 -16l-1 -22l-2 -22v-16l2 -17l-3 -18v-15l1 -16v-17l-9 -16l-15 -5l-14 7l-7 16l-2 14l-1 17l-1 19l2 15l-2 14l-1 14v16l1 19v15l9 15z" />
    <glyph glyph-name="parenleft" unicode="(" horiz-adv-x="255" 
d="M193 -76l-15 1l-20 7l-15 14l-7 13l-8 11l-7 17l-6 12l-7 15l-8 14l-22 62l-5 16l-5 15l-9 47l-6 13l-2 34l-5 16v14l-3 16l-2 16l1 19l-2 94l5 81l3 16l5 15l6 32l2 16l7 29l6 14l6 17l2 17l6 13l8 14l5 13l4 18l10 14l20 43l9 13l15 13l20 9l14 -1l8 -10l-1 -15l-7 -13
l-5 -14l-8 -13l-7 -14l-4 -16l-6 -14l-6 -13l-6 -19l-10 -26l-2 -16l-6 -18l-11 -44l-2 -18l-3 -15l-2 -31l-4 -17l-2 -12l1 -17l-1 -19l-3 -16l2 -61l-2 -16l3 -17l1 -13l-1 -19l2 -16l3 -12l2 -15v-17l3 -14l3 -18l3 -17l11 -29l2 -13l9 -32l3 -17l11 -29l8 -14l4 -16
l6 -10l22 -47l1 -14z" />
    <glyph glyph-name="parenright" unicode=")" horiz-adv-x="255" 
d="M61 -77l-11 7l1 15l8 12l27 59l3 15l6 15l7 16l4 15l6 17l6 26l6 15v18l6 17l2 13l1 15l4 15l3 16v15l4 48l1 81l1 15l-3 32l-1 15l-4 33v16l-3 14l-3 13l-1 20l-4 16l-4 11l-2 20l-5 14l-6 12l-4 18l-7 15l-5 14l-4 17l-6 12l-17 44l-9 16l-6 13l-1 14l18 7l24 -7
l16 -13l9 -14l7 -16l14 -27l13 -30l4 -14l14 -28l3 -18l6 -15l8 -31l4 -15l5 -33l4 -13l6 -30v-15l4 -16l1 -21l-1 -16l2 -12l1 -18l-1 -47l-1 -16l1 -17l-1 -14l-3 -16v-17l-3 -16l-2 -16l-3 -16l-2 -15l-3 -14l-6 -19l-10 -46l-7 -13l-5 -16l-4 -15l-6 -18l-12 -26
l-12 -30l-26 -42l-14 -11l-18 -8z" />
    <glyph glyph-name="asterisk" unicode="*" horiz-adv-x="343" 
d="M171 439l-16 8l-6 14v15l3 17l-1 19l-8 18h-10l-14 -10l-10 -9l-13 -12l-13 -7l-17 -3l-13 5l-4 12l11 16l12 11l12 9l13 7l12 9l8 17l-7 11l-13 13l-19 14l-19 13l-8 11l2 17l13 8l16 -5l18 -13l20 -16l13 -10h11l7 10v22l-1 14v15l7 23l13 7l13 -7l7 -16v-21l1 -25
l1 -13l6 -10h12l12 9l10 12l13 9l12 9l16 7l16 -6l2 -16l-16 -19l-31 -26l-14 -5l-7 -15l8 -17l13 -10l14 -8l11 -9l13 -8l7 -17l-1 -17l-14 -4l-16 5l-12 10l-13 11l-19 13l-16 8l-6 -12v-44l1 -14l-8 -17z" />
    <glyph glyph-name="plus" unicode="+" horiz-adv-x="308" 
d="M153 196l-16 9l-10 15l1 23l-1 12l1 15l1 26l-11 13l-15 6l-16 4l-14 -2l-15 -1l-16 7l-8 18l8 19l16 10l16 -1l15 2l15 -1l15 6l7 15l2 17l-1 16l-2 18l2 12v18l10 16l16 7l15 -7l11 -24l-2 -15l3 -24l-1 -18l1 -15l6 -15l22 -6l18 -2l21 -1l17 -8l8 -18l-8 -17l-14 -6
h-15l-17 1l-15 -1l-15 -9l-7 -17l-1 -14l-1 -15l1 -14l-1 -18l1 -14l-11 -16z" />
    <glyph glyph-name="comma" unicode="," horiz-adv-x="185" 
d="M74 -115l-16 2l-5 19l2 16l10 13l11 15l9 15l-2 22l-12 15l-9 12l-6 12v17l7 14l9 11l23 2l24 -4l11 -4l7 -15l4 -22l1 -24l-2 -17l-3 -14l-7 -13l-5 -16l-6 -15l-11 -12l-9 -14l-9 -11z" />
    <glyph glyph-name="hyphen" unicode="-" horiz-adv-x="304" 
d="M73 261l-15 8l-7 19l7 17l15 7l16 4l33 -4l13 4l34 -1h14l15 1l29 -2l17 -8l9 -16l-10 -19l-16 -7l-16 -2h-28l-16 1l-18 -2l-16 1l-15 -1l-13 1l-17 2z" />
    <glyph glyph-name="period" unicode="." horiz-adv-x="164" 
d="M80 -7l-23 6l-11 11l-5 20l4 25l13 10l24 5l22 -5l13 -9l3 -26l-5 -21l-11 -14z" />
    <glyph glyph-name="slash" unicode="/" horiz-adv-x="331" 
d="M60 0l-16 6l-3 15l3 17l6 15l3 15l6 13l5 18l5 16l2 12l19 63l7 14l16 62l3 17l6 15l4 11l5 15l3 19l11 29l12 45l4 13l7 18l3 17l10 27l4 15l9 29l4 16l11 31l5 26l5 23l7 12l8 34l13 15l22 5l14 -6l4 -16l-4 -14l-4 -15l-6 -16l-4 -17l-3 -15l-4 -14l-9 -22l-6 -23
l-6 -16l-7 -32l-6 -14l-2 -14l-4 -16l-6 -15l-9 -32l-5 -13l-17 -62l-5 -14l-4 -17l-14 -43l-6 -17l-4 -17l-6 -14l-4 -13l-3 -19l-4 -13l-7 -15l-6 -34l-14 -44l-6 -15l-4 -24l-16 -23z" />
    <glyph glyph-name="zero" unicode="0" 
d="M207 -13l-23 3l-14 3l-13 6l-14 3l-13 7l-14 11l-29 30l-5 18l-8 12l-5 17l-16 44l-12 98v19l-3 73l3 58l-2 15l3 16l-1 16l3 14v18l2 16l4 13l7 49l13 44l22 44l34 32l28 15l15 5l14 1l24 4l24 -3l14 -6l15 -3l14 -5l12 -6l24 -22l8 -13l9 -11l8 -14l12 -30l16 -63
l10 -88l-1 -16l3 -18l1 -16l-2 -18l-1 -96l1 -17l-3 -17l-1 -15l-9 -60l-6 -18l-1 -18l-11 -30l-8 -15l-8 -12l-7 -14l-10 -11l-9 -12l-15 -12l-12 -7l-14 -7l-15 -5l-14 -4zM186 48h22l19 3l15 4l10 6l8 11l11 10l7 13l8 31l6 16l5 15l1 17l3 17v16l2 15l3 53l3 14l-2 85
l1 17l-4 50l-3 15l-2 17l1 14l-12 66l-13 29l-9 16l-22 26l-16 5l-23 1h-21l-13 -5l-10 -8l-8 -12l-10 -12l-7 -14l-8 -15l-2 -17l-5 -15l-10 -66v-21l-2 -17l-2 -15l-1 -105l-2 -15l4 -17l-1 -13l1 -30l9 -81l11 -33l3 -14l8 -15l16 -27l15 -6z" />
    <glyph glyph-name="one" unicode="1" horiz-adv-x="289" 
d="M198 0l-17 2l-15 6l-11 17l3 29l-3 13l3 51l-1 16l-2 15l2 15l-1 15l1 19l-2 16v45l1 16l-1 18v32l3 14l-3 17l2 16l-1 12l1 81l-1 15l1 16l-1 24l5 60l-6 10l-7 -8l-13 -11l-30 -41l-11 -12l-9 -13l-17 -8h-16l-13 11l-4 15l2 14l11 12l14 23l25 29l9 15l11 12l20 25
l28 24l23 6l18 1l17 -9l10 -17l1 -16l-3 -31l2 -16l-1 -50l-1 -12l1 -257l2 -16l-4 -30l3 -16l-2 -15l2 -15l1 -19l-1 -29l1 -33l-3 -14l2 -66l-9 -18z" />
    <glyph glyph-name="two" unicode="2" horiz-adv-x="377" 
d="M134 -4l-17 3l-39 -1l-25 7l-8 20l2 93l5 18l3 14l7 15l4 17l5 15l9 12l6 14l10 16l6 12l10 13l8 15l11 10l8 16l32 35l10 15l10 11l10 12l7 12l11 13l7 14l10 12l7 15l6 17l8 11l3 17l2 13l3 16l-1 51l-5 16l-17 25l-11 8l-12 4l-15 8l-22 4l-24 -3l-13 -4l-17 -4
l-13 -10l-26 -15l-15 -4l-20 5l-5 22l6 20l15 10l11 10l12 7l13 4l15 7l18 3l15 4l42 3l39 -4l13 -6l16 -5l15 -10l22 -20l17 -22l4 -15l6 -16l3 -15v-66l-3 -18l-7 -28l-8 -16l-4 -15l-7 -15l-35 -53l-8 -11l-9 -15l-11 -12l-19 -25l-13 -13l-6 -13l-11 -10l-37 -52
l-33 -73l-8 -33l-2 -28l6 -17l15 -10l24 -1l26 3h66l17 -3l24 3l22 -1l18 -8l8 -21l-8 -16l-18 -11l-16 3l-15 -3l-33 2l-48 -3l-15 4l-33 -2z" />
    <glyph glyph-name="three" unicode="3" horiz-adv-x="363" 
d="M134 -12l-33 9l-16 1l-15 5l-31 18l-8 17l4 18l16 13l19 -2l38 -15l26 -5l23 -3l24 1l28 13l11 7l11 11l9 12l7 16l5 15l2 13l4 18l2 12l1 27l-3 22v16l-4 16l-4 13l-7 14l-8 14l-35 28l-29 13h-25l-21 10l-9 15l1 14l4 13l20 6l18 4l41 22l10 12l9 14l16 31l7 31l-2 64
l-5 18l-9 16l-9 11l-10 11l-14 9l-41 3l-37 -2l-16 -7l-12 -2l-12 -10l-16 -3l-14 3l-10 13l-2 16l8 17l41 18l14 8l15 3l16 4l16 1l25 -3l20 2l16 -2l30 -12l12 -9l15 -6l12 -10l28 -56l5 -16v-15l3 -25v-22l-4 -16l-2 -17l-5 -16l-3 -17l-5 -12l-8 -16l-18 -27l-13 -9
l-11 -13l-4 -10l7 -10l27 -17l20 -22l17 -27l12 -27l4 -18l2 -12l2 -45l-2 -23l-3 -15l-1 -14l-3 -15l-5 -18l-8 -13l-4 -17l-10 -15l-9 -11l-25 -21l-13 -7l-13 -11l-15 -4l-14 -7l-17 -3z" />
    <glyph glyph-name="four" unicode="4" horiz-adv-x="390" 
d="M272 -2l-17 8l-11 11l-1 15l-2 13l1 20l-3 12l2 33l-2 15v25l-8 20l-15 6l-18 -1l-13 3l-82 -2l-15 2l-18 -2l-16 1l-16 -3l-14 9l-7 17l-2 16l6 47l8 11l4 16l7 14l4 17l7 15l4 14l7 14l16 43l6 13l20 63l9 15l58 160l15 18l20 5h17l13 -8l3 -15l-6 -13l-5 -15l-12 -30
l-10 -33l-19 -42l-4 -19l-7 -11l-37 -104l-7 -15l-17 -50l-30 -72l5 -14l13 -8l22 -1l18 2l24 -4l33 4l15 -1l17 7l9 17l1 16l-3 13l2 112l-2 13l2 48l6 13l18 12l16 -4l16 -8l10 -14v-18l-3 -13l2 -32l-3 -70l2 -21l-2 -31l3 -20l7 -12l17 -9h16l14 -4l9 -16l2 -15l-11 -15
l-23 -7l-25 -5l-7 -19v-65l1 -17v-35l3 -14l-5 -13l-17 -6z" />
    <glyph glyph-name="five" unicode="5" horiz-adv-x="376" 
d="M181 -11l-23 3h-39l-13 6l-18 2l-12 6l-22 13l-15 21l3 19l16 8l17 2l21 -11l21 -9l16 -4l25 2l21 -1l16 6l36 27l9 10l8 18l9 12l7 31l5 16l4 30l-2 45l1 18l-10 61l-5 18l-7 14l-9 11l-14 8l-15 7l-24 5h-16l-24 -2l-38 -10l-34 -3l-16 6l-5 18v15l3 44l-1 18l1 16
l-1 15v19l2 15l1 14l1 31l2 15l-1 32l3 16l-2 18l9 13l26 7h73l14 3l83 1l24 -2l25 -7l8 -22l-10 -16l-16 -9h-32l-18 -2h-17l-16 3l-15 -2l-18 1l-17 -2l-16 1l-16 -6l-9 -16l1 -19l-2 -13v-18l-3 -14l2 -34l-2 -13l-1 -30l-2 -20l6 -12l15 -3l13 5l31 6l21 -4h23l17 -7
l13 -2l13 -9l35 -33l13 -24l7 -18l4 -16l5 -13v-19l5 -16l-3 -111l-5 -15l-1 -16l-4 -17l-20 -44l-19 -24l-9 -15l-11 -7l-13 -10l-26 -17l-16 -6l-14 -3z" />
    <glyph glyph-name="six" unicode="6" horiz-adv-x="393" 
d="M221 -12l-25 1l-26 3h-14l-17 4l-42 24l-9 14l-22 24l-8 14l-4 16l-8 15l-7 32l-2 32l-5 32l1 18l-4 16l1 16l-2 40l2 23l-2 17l6 33v35l3 12l2 19l3 14l1 15l13 47l2 16l19 47l10 12l19 27l20 24l10 8l14 12l15 10l14 3l28 11l16 6l17 4h15l17 2l15 -6l11 -17l-6 -20
l-17 -11l-13 -1l-18 -2l-13 -7l-17 -3l-15 -10l-13 -11l-12 -9l-11 -9l-10 -15l-9 -10l-29 -61l-8 -33l-3 -31l-4 -18l6 -12h11l14 12l15 5l17 7l14 4l19 3l48 2l16 -1l14 -4l12 -9l14 -5l15 -8l10 -10l8 -14l7 -17l7 -12l11 -49l5 -37l-3 -49l1 -15l-1 -16l-3 -18v-16
l-5 -14l-2 -17l-4 -17l-7 -19l-8 -10l-6 -15l-15 -22l-17 -19l-13 -9l-14 -6l-14 -5l-17 -7zM196 46l22 2l16 6l21 18l11 11l8 16l6 16l9 49l4 13l4 35v24l-7 69l-4 15l-12 31l-13 11l-21 12l-29 4l-24 -1l-16 -7l-16 -3l-31 -16l-12 -11l-12 -21l-6 -21l1 -18l-2 -30l5 -83
l12 -50l13 -30l7 -12l27 -22z" />
    <glyph glyph-name="seven" unicode="7" horiz-adv-x="327" 
d="M84 0l-12 9l-5 15l6 14l2 14l4 15l3 17l5 13l5 15l3 19l7 14l4 16l2 16l7 15l4 13l3 17l6 13l4 15l3 17l10 28l5 26l7 19l5 19l2 14l6 18l3 15l6 13l7 31l6 18l5 11l9 31l3 18l10 29l10 46l-4 16l-11 9h-64l-25 -4h-23l-40 3l-25 -3l-17 8l-8 16l2 12l7 14l16 9l17 -2
l15 4l17 -3l31 -2l49 4l29 -3l27 2l22 -3l33 5l17 -9l6 -16l-5 -65l-16 -42l-15 -65l-5 -15l-6 -14l-2 -18l-11 -30l-6 -32l-6 -12l-4 -20l-5 -14l-12 -46l-7 -17l-4 -13l-2 -14l-4 -17l-6 -18l-20 -77l-7 -14l-5 -16l-2 -16l-7 -17l-3 -13l-3 -17l-3 -14l-14 -17l-18 -6z
" />
    <glyph glyph-name="eight" unicode="8" horiz-adv-x="414" 
d="M205 -11l-34 4l-38 9l-14 8l-17 6l-11 9l-13 12l-19 27l-20 44l-3 16l-2 16l-5 17l-1 24l3 23l1 18l3 13l5 17l21 41l10 14l11 11l12 7l10 13l15 8l7 11l-5 13l-24 22l-9 11l-18 25l-7 15l-7 17l-7 31l-4 39l5 41l3 14l7 19l16 26l19 21l14 10l12 7l17 5l13 10l17 4
l13 -1l24 3l40 -5l30 -8l27 -12l34 -35l22 -44l5 -12l3 -41l-1 -25l-3 -15l-2 -15l-9 -33l-24 -37l-23 -25l-10 -12l-7 -13l6 -11l13 -10l11 -6l23 -22l11 -15l6 -13l10 -13l5 -16l6 -13l5 -34l-2 -23l2 -24l-16 -67l-33 -52l-26 -23l-43 -18l-19 -4zM208 387l20 4l28 19
l12 12l9 12l9 16l7 16l5 32v48l-2 18l-6 14l-8 15l-11 12l-11 10l-15 10l-13 4l-27 4l-23 -3l-30 -12l-21 -26l-7 -12l-8 -16l-3 -44l4 -40l8 -29l9 -16l11 -15l26 -18l12 -10zM230 47l16 5l15 7l13 9l22 26l6 12l14 47l1 27l-2 37l-4 18l-4 13l-9 14l-9 11l-8 16l-44 32
l-30 7l-24 -4l-14 -10l-14 -6l-12 -9l-21 -22l-8 -12l-9 -18l-8 -28l-1 -42l5 -39l8 -33l8 -10l9 -16l12 -13l11 -6l25 -9z" />
    <glyph glyph-name="nine" unicode="9" horiz-adv-x="393" 
d="M119 -9l-15 8l-11 16l6 19l16 11l30 3l17 5l27 11l27 19l23 24l16 23l7 17l7 11l6 17l4 17l5 14l3 32l6 32v17l-5 12l-10 -5l-12 -7l-44 -19l-15 -6l-26 -2l-23 4l-14 1l-31 14l-25 16l-11 11l-25 41l-13 32l-7 34l-2 16v67l7 45l11 33l3 15l8 15l6 14l20 26l14 13l14 8
l14 9l27 12l18 2l50 -1l31 -8l35 -17l18 -16l10 -15l9 -10l14 -32l6 -14l2 -17l5 -14l6 -49l1 -17l4 -33v-14l1 -20l-9 -144l1 -17l-3 -17l-3 -14l-6 -32l-4 -15l-7 -15l-3 -15l-7 -19l-8 -14l-5 -12l-12 -16l-8 -13l-11 -10l-9 -12l-42 -28l-15 -8l-15 -3l-15 -6l-14 -3
l-16 -6zM167 319h22l25 3l32 6l14 7l24 20l9 22l5 22l1 50l-2 16l-2 13l-1 33l-3 19l-4 14l-18 45l-10 15l-19 15l-20 12h-25l-22 -3l-13 -6l-26 -17l-9 -11l-8 -15l-6 -18l-5 -14l-6 -33l-4 -78l4 -15l3 -18l1 -14l5 -17l16 -24l11 -13l14 -10z" />
    <glyph glyph-name="colon" unicode=":" horiz-adv-x="164" 
d="M80 310l-25 5l-11 14l-2 22l3 24l13 11l22 3l24 -2l13 -10l5 -26l-6 -24l-12 -10zM82 -7l-25 5l-11 11l-4 24l5 22l11 10l22 6l24 -3l13 -14l3 -22l-3 -26l-12 -12z" />
    <glyph glyph-name="semicolon" unicode=";" horiz-adv-x="185" 
d="M95 312l-23 6l-11 11l-5 20l4 25l13 10l24 5l22 -5l13 -9l3 -26l-5 -21l-11 -14zM74 -115l-16 2l-5 19l2 16l10 13l11 15l9 15l-2 22l-12 15l-9 12l-6 12v17l7 14l9 11l23 2l24 -4l11 -4l7 -15l4 -22l1 -24l-2 -17l-3 -14l-7 -13l-5 -16l-6 -15l-11 -12l-9 -14l-9 -11z
" />
    <glyph glyph-name="less" unicode="&#x3c;" horiz-adv-x="308" 
d="M251 217l-14 8l-13 6l-15 5l-27 14l-15 8l-15 7l-12 5l-13 8l-14 5l-14 6l-16 9l-12 7l-17 7l-14 12l-8 20l9 18l15 15l15 5l11 9l15 4l13 6l16 9l14 6l12 8l15 7l16 5l12 8l13 8l14 3l15 10l14 5l14 -1l6 -12l2 -15l-10 -16l-21 -19l-23 -8l-13 -9l-14 -3l-13 -9l-15 -6
l-15 -4l-16 -10l-16 -3l-6 -12l8 -12l30 -9l14 -7l14 -10l15 -3l15 -9l14 -8l22 -8l20 -15l10 -18v-16l-6 -9z" />
    <glyph glyph-name="equal" unicode="=" horiz-adv-x="308" 
d="M90 369l-17 1l-13 3l-18 7l-7 18l8 16l24 7l23 2h14l16 -2l33 2l16 3l15 -2l17 1l17 -3l15 1l15 -1l15 -6l9 -21l-6 -16l-19 -10l-15 4l-17 -1l-13 1l-16 -3l-16 2l-17 -3l-17 1l-14 2l-17 -2zM234 259l-18 4l-15 -2h-22l-26 -2l-17 4l-14 -1l-26 1l-22 -3l-16 3l-18 6
l-6 16l7 17l19 10l21 2l25 1l14 -3l49 2l18 1h15l14 -4h17l14 1l16 -9l9 -14l-8 -20l-15 -6z" />
    <glyph glyph-name="greater" unicode="&#x3e;" horiz-adv-x="308" 
d="M54 218l-12 1l-9 9l-1 16l7 15l15 15l15 7l16 6l14 6l15 9l15 5l22 12l23 7l14 7l5 9l-7 9l-15 9l-13 4l-14 6l-15 11l-15 4l-13 9l-17 5l-15 8l-12 5l-15 15l-8 17v15l7 10h13l38 -18l20 -10l14 -6l14 -7l14 -6l11 -5l16 -7l13 -7l15 -7l20 -10l21 -11l16 -12l6 -21
l-6 -18l-13 -16l-16 -3l-12 -9l-16 -5l-16 -7l-12 -4l-14 -7l-14 -11l-13 -4l-13 -7l-30 -17l-14 -5l-15 -7z" />
    <glyph glyph-name="question" unicode="?" horiz-adv-x="369" 
d="M172 157l-16 9l-9 13l-3 16l1 15l-2 24l3 26v17l10 30l12 29l17 28l9 12l6 15l18 26l6 13l16 31l18 46l4 16l-2 20v26l-3 13l-10 11l-6 15l-12 7l-14 8l-15 4l-46 5l-13 -7l-15 -3l-16 -7l-11 -8l-12 -11l-15 -3l-18 7l-8 20l5 20l24 17l14 7l29 15l15 3l14 4h18l22 1
l25 -2l30 -3l14 -5l28 -13l11 -14l10 -9l11 -27l8 -15l3 -15v-64l-7 -35l-14 -29l-6 -17l-17 -25l-8 -14l-10 -14l-9 -13l-7 -17l-29 -38l-6 -15l-9 -28l-4 -16l-4 -47l1 -18l-1 -14l-8 -17zM173 -8l-23 3l-10 13l-4 22l3 26l10 12l25 3l25 -4l11 -11l4 -26l-6 -25l-10 -9z
" />
    <glyph glyph-name="at" unicode="@" horiz-adv-x="709" 
d="M340 -200l-33 5l-18 4l-29 4l-16 8l-15 3l-28 13l-27 17l-14 12l-24 19l-10 13l-12 12l-19 28l-5 10l-10 13l-14 30l-7 18l-4 13l-3 17l-5 14l-8 33l-1 17l-4 14l-4 48l2 17l-1 27l-2 21l2 17v15l4 36l3 14l3 18l1 15l4 15l13 51l19 44l22 41l11 11l9 16l11 10l10 15
l13 9l12 11l13 10l13 6l13 9l15 7l13 8l17 7l14 5l48 9l14 3l17 2l23 -1l24 1l17 -4l24 -1l32 -9l20 -7l15 -8l15 -3l14 -7l15 -9l13 -9l12 -10l10 -10l13 -10l29 -37l16 -32l4 -13l8 -12l8 -17l2 -15l4 -16l10 -31l6 -49l2 -56l-2 -24v-19l-5 -45l-12 -63l-5 -15l-4 -14
l-14 -21l-11 -20l-18 -17l-21 -16l-35 -8l-25 2l-16 5l-13 10l-13 5l-18 26l-16 7l-21 -9l-16 -18l-13 -5l-15 -8l-30 -9l-26 -2l-25 4l-14 3l-15 8l-27 22l-7 9l-9 14l-3 16l-7 17v47l2 19l7 13l5 16l15 29l10 9l11 13l27 17l13 6l31 10l17 2h23l39 4l7 14l1 18l-2 17
l-2 15l-5 13l-9 16l-10 11l-15 6l-49 4l-33 -13l-13 -10h-18l-15 6l-1 21l9 17l13 8l14 6l50 12l24 -2l25 1l17 -5l15 -6l12 -5l13 -12l11 -14l7 -12l12 -32l4 -34l2 -101l-2 -15l3 -16l-2 -41l1 -27l3 -18l6 -17l7 -15l12 -11l14 -8l25 1l21 7l11 9l14 28l6 13l4 15l2 18
l7 29l2 17l-1 17l3 15l1 15v24l-2 26v16l-2 12v18l-1 17l-3 14l-6 17l-2 16l-6 15l-7 15l-4 13l-9 16l-17 25l-8 15l-11 8l-13 12l-12 9l-13 11l-14 7l-12 9l-23 5l-23 9l-15 3l-77 5l-15 -4l-17 -3l-14 1l-14 -3l-23 -9l-34 -18l-24 -19l-24 -23l-11 -8l-34 -56l-6 -16
l-6 -11l-5 -15l-3 -16l-10 -34l-7 -32l-2 -17l-1 -18l-2 -14l2 -16l-3 -14l-1 -50l3 -16l2 -50l6 -35l10 -31l4 -11l5 -20l11 -27l18 -30l8 -15l10 -11l10 -13l24 -24l12 -9l14 -6l28 -17l13 -5l26 -4l53 -11l32 -3l19 2l30 6l16 1l19 -2l8 -16l-4 -20l-14 -9l-17 -5l-33 -5
h-16l-17 1h-15zM342 59l22 3l14 3l14 10l12 7l12 9l11 23l5 53l-3 18l2 33l-6 16l-17 9h-22l-23 -3l-29 -10l-13 -5l-14 -10l-11 -13l-6 -12l-7 -32l-1 -24l1 -25l3 -13l8 -16l8 -10l15 -7z" />
    <glyph glyph-name="A" unicode="A" horiz-adv-x="434" 
d="M32 -2l-15 11l-4 16l18 76l6 14l2 16l5 14l20 97l14 45l3 15l15 66l2 14l10 30l2 14l21 80l1 14l7 16l5 32l9 32l5 12l3 16l2 16l10 32l10 15l18 9l16 2l15 -3l16 -7l11 -14l6 -17l3 -18l13 -46l5 -31l18 -58l9 -49l6 -14l2 -18l17 -60l2 -16l16 -63l3 -18l5 -13l1 -16
l15 -47l4 -30l6 -19l1 -12l18 -62l10 -49l-5 -16l-13 -6h-18l-19 10l-13 13l-5 32l-4 16l-6 14l-6 35l-5 16l-3 17l-8 29l-12 18l-16 8h-46l-24 3h-21l-15 -2h-34l-18 -8l-10 -18l-32 -146l-6 -13l-12 -15l-16 -11h-20zM224 263l18 2h31l13 5l3 16l-8 33l-2 17l-4 16l-2 12
l-6 14l-2 18l-4 15l-7 14l-4 32l-7 27l-3 23l-10 44l-4 33l-9 32l-3 3l-7 -32l-10 -69l-5 -11l-10 -51l-1 -15l-5 -16l-4 -14l-9 -29l-1 -19l-4 -15l-10 -28l-1 -19l-3 -13l2 -18l14 -6h17l15 1z" />
    <glyph glyph-name="B" unicode="B" horiz-adv-x="438" 
d="M132 -3l-16 3h-30l-13 8l-8 14l-1 15v114l1 13l-2 17l1 13l-1 17l2 34l-2 16l2 15l-2 16l1 16l-1 15l2 20l-2 11l1 15l-1 38l2 13l1 15l-3 15l-1 18l3 14l-3 16l3 144l-2 15l-1 16l10 17l16 7l14 1l15 2h18l15 1l15 -3l100 -5l37 -12l23 -12l11 -8l14 -16l17 -25l11 -31
l2 -14l3 -16l2 -51l-4 -17l-9 -32l-8 -13l-9 -11l-9 -13l-12 -14l-27 -19l-7 -9l9 -6l14 -11l13 -7l11 -12l13 -11l24 -40l6 -16l4 -17l3 -19l4 -13l1 -51l-9 -49l-10 -29l-10 -14l-9 -15l-8 -10l-13 -12l-12 -8l-12 -11l-13 -9l-64 -18zM206 400l15 2l17 7l16 4l27 17
l10 10l23 46l4 17v47l-4 13l-3 16l-7 16l-10 12l-10 10l-27 17l-15 4l-17 3h-43l-23 3l-20 -8l-9 -18l1 -196l8 -16l17 -5zM194 53l69 11l15 6l11 8l13 11l9 10l7 13l6 18l3 15l6 12l-1 83l-6 32l-17 29l-9 12l-26 19l-48 15l-24 -1l-21 2l-30 -3l-14 -9l-8 -18l3 -12
l-3 -18l2 -13l-3 -44l2 -30l-1 -42l1 -16l-1 -31l2 -16l-1 -16l10 -20l14 -5l15 -1z" />
    <glyph glyph-name="C" unicode="C" horiz-adv-x="404" 
d="M211 -11l-47 11l-27 13l-22 18l-12 13l-7 12l-9 12l-8 14l-11 30l-2 17l-4 16l-4 12l-10 52l2 17l-5 47l2 20l-3 15l1 15l-2 26l2 26l-2 14l3 26l-1 21l6 50v16l3 13l2 18l4 16l6 13l3 16l6 17l3 12l7 17l19 27l9 10l25 24l13 7l14 5l16 8l16 1l15 2l48 1l34 -7l30 -12
l16 -4l14 -10l9 -17l-3 -17l-9 -13l-17 -2l-15 3l-14 9l-16 4l-15 6l-15 3l-24 2l-26 -5l-13 -1l-12 -6l-11 -7l-12 -11l-10 -10l-5 -16l-15 -27l-3 -14l-14 -83l-4 -150l2 -16l-1 -14l2 -13l1 -19l-2 -16l3 -14l4 -48l5 -32l6 -15l3 -18l5 -12l8 -18l8 -12l12 -10l14 -10
l13 -7l14 -5l25 1l22 3l25 2l21 5l28 10l13 10h18l15 -12l1 -21l-12 -20l-66 -28l-37 -6l-24 3z" />
    <glyph glyph-name="D" unicode="D" horiz-adv-x="455" 
d="M96 -2l-23 8l-8 18l-1 15l2 13l-2 19l2 14v34l-3 15v49l3 17l-2 12l1 17l-1 18l2 15l-2 23l1 24l-2 15l2 24l-1 25v23l-1 27l1 13l-1 15l3 16l-2 20l2 14l-3 17l3 77l-4 33l4 47l6 14l15 11l66 -1l17 3l22 -4l41 -1l15 -2l16 -1l30 -9l28 -13l34 -35l7 -11l6 -13l6 -12
l16 -47l3 -18l3 -15l5 -14l1 -17v-17l4 -19l-1 -15l4 -16v-98l-2 -17v-32l-2 -49l-3 -14l-5 -19l-3 -27l-5 -19l-3 -16l-17 -45l-9 -12l-9 -13l-12 -12l-11 -12l-12 -7l-15 -11l-13 -6l-23 -8l-24 -5l-15 -1l-16 1l-63 -3l-15 2zM210 55l15 2l16 5l28 15l13 3l11 10l9 14
l9 12l11 28l9 30l7 34v35l2 13l4 118l-6 95l-2 17l-1 16l-5 15l-2 15l-8 32l-13 26l-11 14l-13 8l-10 11l-14 9l-13 5l-17 2l-13 6l-47 1l-16 -3l-17 -9l-6 -13l1 -15l-2 -20v-14l3 -15l-3 -19l1 -32l1 -12l-1 -108l-2 -16l1 -22l1 -13l1 -80l-3 -16l2 -17l-2 -51l3 -13v-16
l-2 -15v-42l9 -20l13 -7l35 -1z" />
    <glyph glyph-name="E" unicode="E" horiz-adv-x="403" 
d="M329 -4l-16 4h-31l-16 1l-16 -3l-15 2l-32 -2l-16 3l-14 -2l-15 2l-32 -4l-31 1l-16 8l-9 16l2 114l-3 49l1 17l2 14l-2 18l2 13l1 16l-3 18l-1 18l1 28l1 16l-1 18l3 18l-2 17l2 45l-1 20v14l-1 31l1 18l-2 23l3 40l-3 13v16l1 12l-1 18l-1 17l-2 13l7 18l15 7l17 -4
l14 4l16 -4l48 4l81 -3l48 1l16 -1l14 -8l10 -11l1 -15l-10 -14l-26 -9l-23 2l-16 2l-18 -1l-15 -2l-17 4l-34 -1l-32 -4l-17 -9l-9 -23l-1 -57l2 -33l-2 -14l2 -48l-2 -17l2 -14l-1 -16l7 -20l17 -6l14 -1l16 2l25 -1l30 1l25 -2l29 -1l16 2l17 -8l7 -17l-8 -20l-15 -9
l-30 -3l-15 4l-34 -1l-14 2l-17 -2l-31 -1l-17 2l-15 -11l-8 -14l2 -15l-1 -18l2 -18v-17l-2 -13l2 -18l-3 -102l1 -18l8 -23l18 -8l32 1l17 -3l17 2h34l17 -3l15 2l16 -1l16 1l17 -6l9 -15l-1 -15l-7 -15z" />
    <glyph glyph-name="F" unicode="F" horiz-adv-x="399" 
d="M95 -1l-17 11l-8 16l2 238l-2 16l3 32l-2 20l2 12l-1 16l1 16l-2 15l1 17l-2 18v18l3 16l-1 15v15l-2 18l2 13v47l-3 35l2 14v27l-3 31l5 16l15 9l17 1l77 -4l22 3l71 -1l19 1l16 -2l14 3l15 -10l9 -19l-9 -19l-14 -9l-25 -1l-23 3l-16 -2h-19l-16 2l-15 -3l-17 2l-32 -2
l-17 -9l-6 -14v-15l-2 -32l1 -30l-1 -19l1 -13l-2 -33l2 -16l-2 -16l-1 -17l3 -32l9 -16l13 -7l34 3l63 -3l15 2l33 -2l15 -9l8 -16l-9 -21l-14 -8h-17l-17 2l-16 -3l-13 2l-19 -2l-31 4h-17l-29 -10l-8 -17l-2 -14l2 -17l-1 -82l2 -14l-3 -15v-19l3 -34l-3 -31l1 -17
l-1 -14v-15l-7 -16l-18 -9h-16z" />
    <glyph glyph-name="G" unicode="G" horiz-adv-x="443" 
d="M231 -13l-22 1l-25 3l-36 13l-12 11l-13 7l-12 10l-25 36l-13 29l-9 28l-2 16l-4 16l-2 17l-4 16l-2 19l-7 113l2 27l-2 21l3 52l-1 14l3 34l4 17v17l1 13l8 34l1 14l24 65l9 15l12 9l7 12l15 12l15 10l25 10l16 5l31 5l66 -3l30 -9l23 -11l18 -11l7 -16l-1 -17l-8 -11
l-15 -5l-16 2l-15 7l-13 7l-15 6l-15 3h-50l-27 -9l-11 -7l-21 -19l-11 -15l-6 -15l-8 -27l-7 -36l-1 -14l-3 -18l-4 -51l1 -17l-3 -14l1 -18l-1 -17l5 -141l-2 -17l6 -34l4 -13l1 -19l10 -30l3 -15l7 -11l21 -24l13 -13l14 -7l13 -4l26 -2l23 2l27 16l12 10l11 12l9 13
l5 16l12 59l-2 18l3 49l-2 20l1 26l1 14l-9 16l-15 7l-18 -4l-15 1l-18 4l-13 -2h-16l-15 8l-9 17l7 20l16 7l32 -1l18 1l15 3l16 1l16 -3h32l18 3l15 -12l8 -13l2 -34l-3 -34v-17l1 -14v-64l-3 -19l-2 -11l-4 -34l-14 -45l-5 -13l-11 -12l-20 -27l-10 -11l-15 -6l-14 -10
l-12 -4l-17 -2l-15 -6z" />
    <glyph glyph-name="H" unicode="H" horiz-adv-x="495" 
d="M97 -2l-19 11l-8 14l3 62l-3 18v19l2 16l-2 63l2 14l-1 58l-2 13l2 59l-1 16l2 31l-1 49l2 40l-2 106v30l-1 14v16l-2 11l-1 17l8 16l15 6l17 3l17 -9l8 -9l4 -16l-1 -17l3 -18l-1 -27l1 -16l-1 -175l7 -15l17 -9l16 -3h17l15 1l23 -1l23 2l15 -1l16 2l14 -1l15 2h18
l15 9l8 13l1 34l-2 23l3 41l-3 131l3 34l5 14l17 11l16 -2l18 -8l10 -15v-15l-2 -16v-66l1 -15v-51l-2 -13l2 -26l-1 -15l2 -27l-1 -16l-2 -15l1 -18l-1 -16v-14l2 -32l-2 -15l1 -18l-1 -13l2 -18v-17l-2 -19l2 -31l-1 -38l2 -22l-3 -31v-31l2 -13v-20l2 -15l-7 -12l-12 -8
l-18 -1l-18 9l-9 12l-1 11l-5 32l2 34l-2 16l3 14v26l-3 22l2 132l-9 16l-16 10l-15 1l-30 -2l-26 4l-84 -3l-16 -2l-16 -9l-7 -16l1 -13l-2 -32l1 -18l-2 -15v-29l2 -19l-1 -27l2 -17l-3 -33l3 -16l-3 -63l-9 -14l-14 -11h-16z" />
    <glyph glyph-name="I" unicode="I" horiz-adv-x="210" 
d="M118 -1l-15 1l-18 5l-11 15l-3 28l-1 16l2 15l-1 14l2 19l-2 13l1 25l-2 23l3 16l-3 112l2 15l-2 33l2 15l-1 17l1 70l-1 26l2 13l-1 77l-2 18v14l3 17l-1 15l-2 14v18l-2 13l6 16l16 9l15 -2l18 -7l11 -13v-14l3 -47l-1 -17l2 -17v-36l-3 -33l3 -100l-2 -17l3 -161
l-4 -32l1 -14l3 -18l-3 -23l1 -21l-1 -17l4 -61l-1 -16l2 -13l-7 -17z" />
    <glyph glyph-name="J" unicode="J" horiz-adv-x="258" 
d="M14 -97l4 21l14 9l18 3l13 6l14 8l21 22l7 11l14 31l4 15l3 33l-1 24l1 42l1 12l-2 36l1 41l-2 20l3 16l-2 47l2 19l-2 15l2 15l1 252l-1 15l-3 15l1 46l5 14l13 9h17l19 -9l8 -12l5 -29l2 -126l-1 -16l-2 -15l3 -40l-2 -24l-1 -378l-4 -34l-10 -32l-14 -31l-8 -13
l-8 -11l-25 -23l-16 -8l-14 -11l-44 -8l-19 10z" />
    <glyph glyph-name="K" unicode="K" horiz-adv-x="443" 
d="M377 -2l-20 6l-11 17l-6 15l-8 13l-5 14l-8 17l-3 15l-6 17l-5 10l-8 13l-5 18l-6 15l-21 42l-3 13l-13 30l-11 29l-14 28l-4 16l-6 17l-16 12l-18 1l-16 -8l-17 -15l-11 -16l2 -33l-2 -130l2 -16l-2 -15l2 -49l-2 -35l2 -17l-8 -14l-18 -9h-16l-17 6l-7 18v17l-2 17v12
l2 20l-3 113l3 32l-2 30l1 15l-2 41l4 49l-2 16l1 27l-2 13l1 18l-1 17l2 14l-2 27l2 45l-2 41l1 12l-1 18l2 17l-3 13v16l-2 13l7 16l16 6l14 1l20 -9l10 -12l2 -11l-1 -17l2 -15l-1 -18l2 -12l-2 -18l3 -41l-3 -23v-61l2 -14l-2 -15l1 -14l7 -13l14 -5l43 23l10 10l12 13
l12 9l28 37l7 15l16 26l11 35l8 12l11 48l5 12l5 34l12 16l16 9l17 -1l15 -9l6 -14l-16 -65l-5 -13l-7 -31l-4 -16l-14 -29l-7 -15l-22 -42l-11 -11l-7 -12l-20 -24l-9 -18v-22l6 -16l7 -14l5 -16l26 -57l4 -16l8 -14l5 -14l8 -17l3 -12l9 -18l5 -15l6 -13l5 -18l12 -27
l9 -13l16 -49l8 -13l5 -13l-2 -18l-10 -7l-15 1z" />
    <glyph glyph-name="L" unicode="L" horiz-adv-x="364" 
d="M175 -4l-31 4h-17l-17 -1h-16l-14 8l-8 14l-2 18l1 180l1 12l-2 17l2 64l-2 79l2 34l-2 19l2 16l-3 24l1 99l2 15l-3 49v14l-1 16l7 16l13 6l18 -2l16 -6l12 -13l1 -11l-1 -18l2 -14l1 -33l-2 -16l2 -16v-23l2 -26l-1 -12v-43l-2 -24l2 -63l-2 -15l3 -80l-3 -30l3 -34
l-3 -38l2 -23l-3 -56l1 -26l9 -14l15 -9l33 3l15 -2h111l16 -6l10 -16v-14l-10 -11l-17 -7l-79 -4l-31 4l-17 -1z" />
    <glyph glyph-name="M" unicode="M" horiz-adv-x="624" 
d="M89 -4l-18 9l-8 17l2 112l-3 15l2 48l-1 16l1 64l-1 17l1 14l-2 15l3 130l-2 16l1 17l-1 46l1 16l-1 16l1 17l-1 29l1 18l-1 38l8 25l17 9l16 -2l18 1l16 -2l19 -7l13 -14l51 -184l6 -31l7 -18l3 -15l11 -29l2 -16l6 -17l37 -155l4 -28l6 -25l8 -7l39 173l11 31l2 12
l6 15l4 16l2 18l21 74l6 14l22 95l12 30l4 18l3 14l5 15l10 15l27 11l25 -1l15 -3l16 -7l11 -15l-3 -115l3 -17l-2 -31l1 -18l-2 -94l2 -18l-1 -16l3 -31l-3 -50l3 -78l-3 -19l2 -17l-3 -75l2 -16v-16l2 -13l-2 -13l3 -18l-6 -14l-13 -8l-16 -2l-17 9l-11 11v12l-1 16l-3 16
l1 17l-2 14l3 56l-3 25l2 18v17l-1 16l3 15l-3 17v17l2 34l-3 64l3 67l-1 46l1 15l-1 20l2 14l-2 20l2 62h-4l-7 -15l-2 -14l-2 -19l-5 -13l-3 -18l-58 -214l-7 -16l-2 -16l-6 -13l-3 -15l-30 -110l-6 -14l-3 -18l-5 -12l-14 -17l-18 -5l-15 -1l-19 7l-13 14l-10 30l-1 16
l-4 18l-6 15l-8 30l-7 13l-4 23l-8 24l-3 16l-10 31l-5 13l-3 17l-6 13l-6 32l-17 47l-40 173l-5 -2l-1 -33l1 -31l-1 -17l2 -16v-15l2 -68l-1 -14l1 -33l-2 -17l2 -16l-1 -12l1 -50l-1 -14l1 -16l-1 -240l-7 -17l-17 -9z" />
    <glyph glyph-name="N" unicode="N" horiz-adv-x="488" 
d="M352 -1l-18 9l-14 15l-6 14l-20 61l-4 17l-7 15l-3 14l-17 48l-3 12l-22 59l-8 35l-7 16l-4 16l-7 11l-9 33l-7 15l-2 16l-7 14l-38 123l-2 14l-13 46l-6 13l-4 1l1 -15l-1 -17l2 -17l-1 -16l2 -16l-1 -13l2 -17l-1 -25l2 -88l-3 -15l3 -64l-1 -17l2 -18l-1 -14l-2 -15
l1 -35l2 -24l-3 -22l2 -19l-1 -13v-16l2 -18l-3 -18l2 -63l-9 -15l-24 -6l-23 8l-8 13l-1 80l2 15l-2 19l1 65l-2 40l1 14v24l2 16l-3 38l1 41l-1 18l1 13l-1 19l2 15l-3 15l3 31v18l-2 13l1 51l-1 16l2 75l-1 18l8 17l23 8l25 -1l17 2l16 -9l15 -16l6 -14l4 -14l2 -17
l13 -28l55 -169l2 -14l5 -14l8 -16l15 -44l8 -31l33 -96l5 -24l5 -16l8 -18l4 -16l2 -16l9 -34l6 -15l4 1l1 50l-5 29l2 17v18l-3 23l3 23l-2 23l2 40l-2 13l1 206l-3 25l2 23l-2 13l2 15l-1 17l1 15l-3 48l7 15l13 5l17 -1l15 -5l10 -14l3 -14l2 -28l-2 -16l2 -18l-2 -16
l4 -81l-2 -12l2 -37l-1 -16l-2 -14l2 -83l-2 -14l2 -17l-1 -67l1 -16l-2 -14l2 -15v-16l-2 -17l2 -65l-2 -13v-18l2 -18l-2 -14v-14l-7 -20l-15 -6h-15l-18 1z" />
    <glyph glyph-name="O" unicode="O" horiz-adv-x="462" 
d="M206 -11l-15 1l-16 5l-15 3l-12 6l-24 18l-20 20l-9 13l-7 12l-11 30l-8 13l-9 31l-15 116l2 19l-3 17v14l2 14v100l2 13l-1 17l1 17v15l4 16l6 49l14 48l7 11l5 17l9 10l6 17l11 13l13 8l11 9l14 9l13 7l15 6l14 3l15 2l24 2l23 -2l18 -3l13 -4l13 -3l14 -7l26 -15
l10 -9l21 -24l14 -28l9 -28l6 -15l4 -17l16 -116v-16l-2 -16l3 -97l-3 -31v-33l-4 -16l-3 -49l-5 -30l-8 -33l-18 -46l-16 -25l-11 -15l-12 -11l-25 -17l-12 -6l-15 -1l-15 -5l-17 -2h-24zM252 45l13 5l15 4l10 10l11 9l17 23l10 30l7 15l2 16l2 20l5 32l4 46l-1 18l2 14
l-1 87l2 13l-3 32l1 18l-4 61l-6 31l-1 18l-7 13l-5 14l-4 18l-7 15l-9 13l-23 21l-14 5l-17 5l-21 -1l-23 2l-14 -5l-13 -4l-10 -8l-20 -23l-13 -24l-13 -51l-8 -47l-2 -35l-1 -15l-2 -48l2 -44l-2 -24v-15l2 -16l1 -65l3 -12l1 -31l12 -52l9 -28l6 -15l22 -23l13 -7l12 -9
l15 -5z" />
    <glyph glyph-name="P" unicode="P" horiz-adv-x="439" 
d="M107 -3l-17 3l-16 5l-10 18l2 94l-2 15l1 16l-1 18l2 15l-2 16l3 16l-3 16l-1 17l2 23l-1 62l1 26l-1 15l3 41l-1 23l-2 15l3 18l-3 17l1 16l-1 15l1 60l-2 19l1 17l-1 13l3 16l-1 30l9 19l16 10l16 -3h15l17 2h32l19 -3l25 3l23 -3l18 1l15 -5l16 -2l15 -6l16 -9l15 -6
l10 -9l23 -26l9 -13l6 -15l13 -29l4 -18l8 -74l-1 -24l-5 -17v-16l-3 -15l-15 -44l-7 -13l-19 -26l-11 -12l-13 -10l-13 -13l-27 -15l-45 -13l-95 -6l-13 -7l-8 -16l2 -15v-112l-2 -14l1 -69l-8 -23zM180 316l23 1l32 6l16 7l15 4l15 8l24 25l7 15l9 12l10 34l1 17l3 16
l-1 48l-3 30l-3 13l-7 22l-11 24l-10 15l-23 19l-14 3l-18 6l-38 3l-23 -2l-15 1l-16 3l-15 -10l-6 -18v-14l-2 -76l1 -23l-1 -16l1 -16l-1 -15l2 -32l-2 -19l3 -26l-4 -37l8 -17l17 -9z" />
    <glyph glyph-name="Q" unicode="Q" horiz-adv-x="477" 
d="M390 -80l-15 6l-14 8l-29 19l-20 9l-16 17l-20 6l-22 4l-48 -2l-17 4l-13 6l-15 3l-27 14l-9 8l-31 32l-8 13l-5 17l-7 11l-15 47l-2 16l-8 49l-1 17v19l-1 12l-3 20l-2 81l2 49l3 64l3 14l1 18l3 14l1 15l6 33l22 59l8 16l8 12l33 34l15 7l45 17l13 -1l24 3l24 -3l43 -9
l27 -13l12 -7l10 -9l35 -50l6 -16l22 -114l7 -63v-36l2 -19l-3 -47l1 -28l-3 -17l1 -17l-1 -15v-17l-6 -33v-15l-14 -63l-10 -26l-4 -17l-9 -16l-8 -11l-8 -13l-6 -14l7 -15l23 -19l14 -6l13 -8l14 -4l10 -16l-1 -17l-18 -15zM207 48l45 1l13 4l14 3l12 7l11 10l6 11l10 12
l19 64l3 15l1 17l3 15l2 33v31l3 39l-1 15l1 22l-2 27l1 15l1 13l-3 51l-2 14l-1 31l-13 64l-10 30l-8 16l-30 31l-29 11l-24 3l-21 -2l-14 -6l-15 -5l-11 -6l-11 -9l-21 -37l-12 -33l-12 -97l1 -17l-3 -61l-1 -54l1 -48l3 -14l6 -82l4 -15v-14l9 -34l8 -16l5 -12l10 -15
l10 -12l27 -14z" />
    <glyph glyph-name="R" unicode="R" horiz-adv-x="437" 
d="M373 -3l-22 3l-18 12l-11 19l-10 25l-4 16l-7 15l-4 16l-7 14l-4 14l-13 29l-4 13l-13 30l-7 13l-9 32l-6 13l-11 15l-13 13h-18l-34 2l-15 -1l-13 -12l-3 -18l2 -16v-15l1 -17l-1 -183l-5 -14l-12 -13l-17 -3l-16 5l-12 11l-3 16l-1 13l2 36l-3 29l-1 28l3 38v19l1 19
l-3 55l3 18v16l-2 17l3 30l-1 79l-3 16v32l3 16v17l-4 16l1 14l3 17v26l-3 22l3 16l1 15l-3 31l3 17l18 13l27 1l18 4l19 -1l17 -4l15 4l20 -3l26 -1l22 -3l13 2l18 -7l13 -4l16 -7l27 -15l12 -10l11 -13l11 -11l5 -11l11 -15l9 -33l3 -32l5 -20l-2 -24l-3 -18l-2 -15
l-1 -17l-3 -18l-11 -29l-8 -15l-10 -14l-7 -13l-12 -11l-13 -9l-14 -9l-13 -11l-7 -16l3 -18l22 -62l7 -13l4 -15l5 -13l7 -15l4 -13l6 -18l17 -38l6 -20l13 -28l6 -16l1 -14l-11 -14zM166 346h47l15 4l14 1l16 4l16 9l14 7l12 9l22 39l6 17v17l4 14l1 24l-3 64l-5 15
l-27 40l-14 12l-12 7l-14 5l-39 8l-43 3l-17 -2l-14 -5l-10 -9l-7 -19l1 -13l1 -33l-2 -20l-1 -23l2 -17l-2 -40l1 -23l-1 -19l2 -13l-1 -16l1 -15l5 -16l12 -13z" />
    <glyph glyph-name="S" unicode="S" horiz-adv-x="421" 
d="M200 -11l-23 3l-16 -1l-18 5l-14 1l-17 4l-18 7l-27 15l-14 12l-8 16l4 20l16 11l15 -4l14 -9l44 -18l17 -3l15 -1l26 -4l23 4l30 9l27 18l11 12l10 12l6 13l6 17l4 15l3 14v23l1 24l-1 19l-5 11l-6 18l-6 12l-19 24l-35 33l-14 8l-13 10l-55 31l-25 19l-15 7l-10 15
l-24 22l-22 36l-12 32l-4 30l-2 23l4 39l17 47l8 12l12 8l13 13l14 7l10 11l15 7l24 8h22l24 2l25 1l19 -2l32 -8l14 -6l31 -18l8 -16l-4 -20l-19 -14l-21 5l-12 9l-17 8h-17l-16 5l-25 2l-23 -4l-27 -12l-13 -10l-10 -10l-8 -15l-9 -11l-3 -18l1 -62l8 -14l5 -15l10 -12
l9 -14l41 -31l55 -31l53 -36l45 -42l9 -16l9 -14l8 -13l11 -31v-14l4 -17l1 -25l-2 -24l-3 -17l-3 -14l-3 -15l-5 -15l-7 -15l-5 -13l-10 -16l-13 -10l-9 -12l-12 -11l-26 -19l-15 -5l-32 -8z" />
    <glyph glyph-name="T" unicode="T" horiz-adv-x="384" 
d="M205 -1l-15 2l-19 4l-9 12l-4 28l1 19l-2 15l2 32l-1 40l2 56l-3 14l2 15l-1 16l1 17v14l1 19l-2 17v28l2 19v15l-2 17v221l-9 17l-15 8l-32 -1l-15 2l-18 -2l-30 4l-17 7l-7 19l7 15l17 10l23 -1l23 3l17 -2l35 2l15 -3l15 1l16 -1l16 3l16 -2l16 4l15 -3l34 -1l33 4
l31 -5l17 -6l6 -22l-7 -19l-23 -7l-42 2l-15 -1l-15 2l-18 -3l-14 -8l-9 -16l-1 -13l3 -16l-2 -18l2 -34l-2 -11l1 -36l-3 -15l4 -30l-3 -15l-1 -16l2 -16v-18l-1 -16l2 -18l-2 -15l1 -21v-55l2 -17l-3 -17l1 -15l-1 -31l2 -25l-1 -23l1 -18l-1 -14l1 -13v-15l-2 -15l3 -18
l1 -14l-5 -15z" />
    <glyph glyph-name="U" unicode="U" horiz-adv-x="457" 
d="M209 -11l-19 3l-16 1l-28 10l-15 8l-10 10l-11 13l-10 11l-7 15l-8 15l-7 31l-5 12l-1 18l-3 14l-1 34v16l-2 23v24l1 15l-1 81l2 18l-1 34l1 15l-3 50l3 62l-3 46l2 20l-2 43l1 16l-2 16v12l6 17l14 7l17 -1l17 -7l11 -13l2 -13l1 -13l-1 -18l2 -32l-1 -129l2 -15v-96
l-2 -16l2 -14v-19l-3 -30l3 -15l1 -16l-3 -49l1 -34l3 -14l1 -15l8 -34l11 -29l9 -13l13 -10l15 -2l15 -4l23 -2l23 -1l17 3l26 14l11 14l5 11l10 32l2 18l4 16v17l-1 16l2 14l-1 95l2 17l-1 16l2 66l-2 14l1 46l-1 16l1 33l-2 29l3 19l-2 13l2 96l-3 17l11 13l17 8l16 3
l15 -8l10 -19v-16l-2 -13l1 -33l1 -13l-2 -105l1 -24l-1 -14l2 -51l-3 -15l2 -17l-1 -17l1 -29l-2 -31l1 -16l-1 -16l1 -19l2 -21l-3 -24v-16l-2 -16v-17l-8 -46l-15 -47l-8 -13l-8 -12l-13 -11l-11 -10l-15 -7l-28 -10l-31 -5z" />
    <glyph glyph-name="V" unicode="V" horiz-adv-x="435" 
d="M201 -2l-18 11l-13 13l-1 16l-25 111l-9 27v16l-6 17l-32 140l-2 15l-9 33l-2 14l-5 16l-5 32l-14 62l-5 17l-16 74l-5 16l-2 17l-6 17l-2 16l7 14l14 5l18 4l18 -10l11 -14l3 -16l5 -16l2 -17l6 -15l1 -16l3 -13l6 -18l15 -75l2 -17l6 -14l4 -19l4 -14l1 -17l14 -60
l1 -18l11 -28l4 -34l6 -15l4 -14l10 -61l1 -19l5 -16v-11l4 -17l2 -17l6 -17l2 1l5 17l2 17l3 12l3 34l4 14l16 96l10 30l30 139l6 38l11 40l2 12l4 17l5 32l8 29l1 19l8 29l3 17l11 15l18 9h18l16 -8l5 -17l-5 -14l-12 -66l-8 -27l-8 -50l-4 -12l-3 -17l-6 -17l-1 -14
l-5 -14l-3 -17l-5 -15l-7 -33l-2 -16l-11 -45l-1 -17l-4 -15l-6 -13l-6 -34l-5 -15l-1 -14l-14 -61l-5 -16l-2 -16l-6 -34l-9 -29l-6 -34l-12 -15l-19 -6l-15 2z" />
    <glyph glyph-name="W" unicode="W" horiz-adv-x="681" 
d="M496 -4l-32 2l-17 8l-10 14l-27 159l-4 17l-6 31v18l-6 16l-1 15l-5 18l-3 15l-3 32l-11 44v18l-5 17l-1 13l-5 18l-12 95l-1 15l-6 50h-4l-5 -33v-18l-2 -14l-4 -18l-19 -133l-6 -24v-16l-9 -48l-5 -17l-11 -79l-4 -15l-1 -16l-4 -15l-1 -17l-5 -14l-4 -16l-1 -17
l-14 -79l-10 -15l-16 -8l-17 -2l-14 3l-17 8l-11 14l-11 59l-2 18l-8 31l-1 15l-6 23l-4 24l-1 17l-5 15l-2 15l-7 30l-3 19l-18 91l-6 48l-4 15l-5 14l-1 18l-6 30l-6 13l-1 18l-4 15l-16 95l-4 14l-3 18l4 13l17 10l19 -2l18 -7l10 -16l7 -48l5 -16l1 -14l5 -15v-18l5 -22
l7 -24l6 -49l8 -28v-19l8 -33l8 -47l1 -17l3 -15l5 -13l6 -33l1 -15l14 -76v-15l1 -15l4 -18l5 -46l3 1l1 15l5 30v19l3 14l-1 12l4 26l5 22l1 16l6 31l1 16l3 15l6 19l1 12l9 48l1 18l9 29l2 32l5 17l6 32l1 13l12 65l1 16l3 14l4 18l4 13l1 15l3 15l12 19l22 9l19 -2
l18 -8l10 -14l3 -16l4 -32l9 -30l3 -34l7 -30l1 -14l3 -16l4 -17l4 -18l1 -13l4 -18l10 -64l5 -16l3 -13l2 -17l12 -62l1 -18l20 -136l-1 -17l2 -15l4 -1l3 17l2 15v15l3 14l8 78l13 63v18l11 43l1 15l8 35l1 29l6 17l1 16l10 49v14l6 21l4 24l4 17l3 34l8 30l4 31l13 16
l16 9l17 -2l14 -9l7 -12l-1 -15l-6 -17l-2 -17l-4 -15l-1 -14l-8 -33l-1 -16l-5 -30l-5 -12l-4 -33l-4 -15l-1 -20l-5 -13l-2 -14l-4 -15l-3 -18l-1 -13l-4 -19l-1 -15l-5 -15l-22 -110v-14l-22 -111l-4 -30l-4 -16l-2 -14l-10 -17z" />
    <glyph glyph-name="X" unicode="X" horiz-adv-x="436" 
d="M51 -3l-15 10l-1 14l11 30l4 16l5 15l8 12l31 78l3 12l7 16l4 17l19 45l5 15l13 26l18 49l2 19l-4 25l-7 13l-16 44l-4 18l-7 11l-22 61l-20 45l-7 22l-11 21l-5 16l-6 13l-3 15v17l14 9l18 -1l22 -7l16 -16l6 -16l4 -15l7 -13l9 -32l7 -13l6 -16l8 -15l27 -71l3 -13
l7 -15l9 -25l6 -6l5 15l8 14l4 16l6 14l15 43l7 14l6 16l9 20l23 68l7 15l5 16l13 16l20 5h19l13 -7l3 -15l-4 -16l-7 -15l-6 -16l-7 -12l-23 -58l-3 -17l-5 -14l-10 -21l-14 -37l-7 -13l-4 -18l-8 -12l-4 -17l-8 -14l-3 -22l16 -52l7 -14l4 -18l7 -14l8 -31l7 -12l6 -15
l5 -19l14 -28l11 -31l7 -15l21 -62l18 -41l-4 -15l-12 -9l-20 -1l-20 8l-15 15l-4 15l-7 16l-5 12l-7 15l-6 15l-4 16l-6 14l-6 19l-31 77l-7 25l-7 13l-3 14l-7 15l-5 17l-5 12l-6 1l-5 -14l-8 -17l-4 -14l-12 -26l-6 -26l-36 -94l-15 -30l-4 -18l-7 -12l-5 -14l-9 -21
l-20 -22l-17 -11z" />
    <glyph glyph-name="Y" unicode="Y" horiz-adv-x="392" 
d="M205 -1l-16 3l-16 6l-8 14l-2 63l2 33l-1 17l2 23l-2 23l2 49l-3 70l-11 38l-6 15l-8 15l-8 19l-11 38l-6 16l-14 30l-4 14l-7 15l-9 32l-6 13l-5 13l-14 28l-15 47l-13 28l-5 15l3 14l15 9l19 -2l20 -4l13 -17l11 -30l7 -12l4 -24l43 -108l11 -39l16 -42l4 -15l7 -15
l5 -3l9 29l7 11l21 59l8 35l8 16l9 31l13 32l3 13l8 16l9 31l6 14l13 15l20 12h19l13 -11l3 -14l-26 -76l-7 -13l-4 -15l-24 -58l-13 -45l-8 -14l-6 -17l-3 -15l-11 -28l-10 -32l-6 -12l-12 -32l-5 -23l-3 -119l2 -27l-1 -17v-15l-2 -34l3 -16v-15l-2 -18v-14l-8 -16z" />
    <glyph glyph-name="Z" unicode="Z" horiz-adv-x="392" 
d="M63 -4l-15 9l-10 14l1 13l5 21l4 24l11 28l8 15l5 16l7 16l5 15l4 14l8 13l4 17l14 26l7 17l6 12l5 17l14 28l3 16l6 17l7 11l16 45l8 15l5 16l6 13l4 14l6 13l9 17l5 17l5 11l8 15l11 32l14 28l4 14l6 16l-2 17l-14 4h-15l-17 2h-17l-14 -2l-18 2l-17 -2l-34 -1l-30 3
h-18l-15 5l-9 22l9 24l14 6l17 -4l85 4l23 -4l46 1l16 3l16 -1l16 -2l14 1l17 -1l17 -7l8 -13l1 -14l-10 -45l-13 -27l-11 -30l-7 -14l-11 -32l-20 -44l-4 -14l-6 -12l-20 -44l-9 -33l-8 -12l-4 -17l-8 -14l-4 -16l-6 -11l-13 -31l-7 -14l-4 -17l-5 -13l-8 -13l-29 -77
l-6 -11l-17 -45l1 -12l11 -9l17 -3l17 4l22 -2l22 1l18 -3h15l30 4l16 -3l15 3l17 -1l29 -7l8 -17v-12l-9 -16l-14 -7h-41l-24 2l-14 -1l-18 -1l-16 2l-17 -2l-37 4l-18 -1l-14 1l-15 -2l-26 1l-15 -2z" />
    <glyph glyph-name="bracketleft" unicode="[" horiz-adv-x="202" 
d="M62 -78l-14 10l-8 16l1 17l-1 13l2 24l-2 59l2 24l-2 24v18l2 22l-3 24l1 14v50l2 16l-1 13l1 18l-2 27l1 15l-1 21l2 17l-2 16v15l2 19l-2 17l1 29l-1 15l2 32l-2 20v22l1 19l-1 39l1 15l-1 18l1 13l-2 16l2 35l-1 49l10 15l22 7l34 -1h31l16 -7l7 -14l-8 -19l-13 -6
h-14l-16 -7l-6 -28v-21l-1 -17l-1 -18l1 -13l-2 -14l2 -19l-1 -17l2 -14l-2 -19v-13l3 -26l-3 -24v-34l1 -16v-13l-2 -35l3 -16l-2 -31l2 -15l1 -16l-4 -32l1 -32l2 -18l-1 -33l-2 -13l2 -18v-19l-1 -13l2 -17l-2 -14l1 -17l-1 -19l1 -16v-14l-2 -25l9 -25l21 -8l24 -5
l7 -16l-8 -14l-14 -9l-22 -1h-40z" />
    <glyph glyph-name="backslash" unicode="\" horiz-adv-x="331" 
d="M272 -2l-19 9l-11 16l-6 13l-3 14l-6 18l-3 17l-4 13l-7 15l-3 16l-7 14l-4 17l-2 14l-11 30l-2 18l-6 12l-5 16l-3 15l-20 62l-3 14l-5 19l-11 26l-4 15l-2 17l-10 29l-4 18l-5 11l-5 16l-4 18l-5 14l-5 15l-2 16l-4 16l-11 28l-15 45l-2 15l-5 16l4 15l13 11l22 -11
l13 -15l7 -13l1 -16l6 -16l4 -17l4 -12l4 -16l5 -13l6 -15l5 -18l2 -13l8 -32l7 -18l4 -14l5 -14l2 -15l9 -30l7 -16l3 -15l5 -14l4 -14l6 -17l4 -17l6 -13l2 -15l5 -18l6 -13l3 -16l5 -15l6 -15l3 -17l7 -15l3 -14l5 -14l3 -15l6 -15l2 -19l9 -24l5 -21l7 -13l5 -16l-8 -16
z" />
    <glyph glyph-name="bracketright" unicode="]" horiz-adv-x="202" 
d="M109 -78l-18 4l-28 -1l-15 6l-7 17l5 16l15 6l13 1l17 7l8 17l1 16l-2 16l1 14l1 68l-2 13l2 18l-2 15l-1 17l3 31v19l-1 15l1 15l-2 16l-1 39l3 34l-2 25v23l1 19v23l-1 15l1 15l-2 16l3 18l-3 15l3 17l1 16l-2 18v14l1 17l-2 33l2 14l-2 33l1 18l-1 14l-8 15l-13 12
l-14 -1l-15 6l-8 17l7 13l15 8h14l17 2l45 -1l15 -8l7 -15l2 -16l-1 -18l-3 -33l3 -22l-2 -17l1 -23l-1 -34l2 -15l-2 -66l1 -13l-1 -34l2 -17l-2 -13v-16l2 -17l-2 -30l2 -18l1 -18l-3 -16l-1 -17l3 -128l-1 -15l1 -15l-2 -18l2 -14l-3 -31l2 -16l-2 -19l2 -13v-16l-1 -18
l-1 -16l2 -30l-8 -15l-15 -12l-13 -1h-15z" />
    <glyph glyph-name="asciicircum" unicode="^" horiz-adv-x="322" 
d="M261 326l-18 10l-10 13l-6 18l-4 16l-15 44l-3 18l-12 32l-10 35l-7 17l-6 25l-5 13l-6 8l-7 -9l-5 -12l-13 -49l-8 -23l-6 -22l-5 -14l-5 -18l-19 -60l-4 -18l-12 -15l-23 -5l-19 5l-4 15l14 31l1 18l7 15l5 15l3 16l7 14l2 14l7 15l5 18l3 16l7 14l7 32l12 27l3 16
l16 45l12 16l21 10l19 -12l14 -11l5 -16l2 -13l12 -34l9 -36l6 -15l7 -24l4 -18l7 -13l4 -14l3 -18l7 -14l3 -14l6 -19l4 -13l6 -18l3 -14l5 -15l-1 -16l-12 -5z" />
    <glyph glyph-name="underscore" unicode="_" horiz-adv-x="354" 
d="M186 -4l-17 2h-17l-14 -1h-33l-22 3l-25 9l-7 17l5 17l18 6l24 2h41l14 -1l24 -1l24 1h15l14 3l16 -2l17 2l14 -1l17 -12l10 -14l-8 -17l-16 -8h-18l-30 -4l-23 2z" />
    <glyph glyph-name="grave" unicode="`" horiz-adv-x="173" 
d="M120 747l-24 10l-18 13l-9 10l-6 14l-12 11l-9 18l-1 11l11 7l19 2l19 -8l14 -15l14 -24l5 -14l10 -13l-1 -15z" />
    <glyph glyph-name="a" unicode="a" horiz-adv-x="396" 
d="M182 -11l-41 2l-14 2l-13 5l-13 4l-11 7l-11 8l-10 8l-14 23l-7 15l-7 25l-1 14v43l2 14l2 13l4 15l5 11l5 15l9 12l7 11l9 11l10 8l12 12l12 7l39 18l15 3l28 4l21 -1l19 2l13 -2l14 5l8 13l-3 29l-2 14l-2 13l-4 16l-5 11l-8 10l-11 8l-11 9l-13 3l-21 -1l-21 2l-22 -5
l-19 -7l-26 -16l-14 -3l-13 8l-6 8l-2 16l8 15l10 8l13 6l12 7l26 11l12 1l15 4l14 1l41 -1l15 -5l20 -5l18 -9l10 -6l11 -9l17 -25l6 -13l6 -15l6 -28l4 -28v-22l2 -20l-1 -28l-1 -12l1 -14l1 -43l-2 -29l2 -11l-2 -50l2 -34l-1 -15l1 -15l3 -26l-4 -16l-21 -7l-26 6
l-10 12l-2 15l-6 5l-8 -4l-19 -17l-13 -9l-23 -9zM171 44l21 1l12 4l25 12l21 13l10 11l8 16l5 18v13l-1 14l1 70v11l-7 17l-13 4l-52 2l-14 -5l-25 -7l-23 -16l-9 -10l-9 -12l-6 -10l-6 -13l-2 -13l-2 -36v-23l2 -12l10 -25l8 -9l12 -7l14 -6z" />
    <glyph glyph-name="b" unicode="b" horiz-adv-x="434" 
d="M236 -10l-21 3l-28 6l-12 8l-11 8l-12 6l-12 10l-11 2l-6 -10l-9 -16l-16 -6l-11 -3h-13l-11 9l-4 15l4 29l-1 38l2 20l-2 27v15l2 15l-2 97l1 15v55l-1 21l1 14l-1 13l1 69l-1 13v14l1 14l-1 14l1 42l-1 21v15l2 12l-2 43l-1 13v15l-2 13l5 14l10 6l13 -1l14 2l12 -7
l9 -14l4 -69l-1 -71l1 -16l-1 -19l2 -13l-1 -29l7 -12l10 1l12 8l14 7l13 6l14 4l13 5l16 3l20 1l21 -3h14l25 -10l21 -13l11 -11l17 -18l13 -25l4 -12l6 -13l3 -15l4 -13l7 -57l-1 -15l2 -13l-1 -57l-2 -13l-1 -15l-5 -42l-3 -15l-4 -12l-3 -13l-5 -15l-14 -26l-14 -21
l-20 -22l-11 -7l-12 -5l-13 -8l-12 -3l-14 -3h-22zM242 43l19 3l12 6l10 6l9 11l7 10l12 26l2 15l4 12l7 42v15l3 14l-1 14l2 21l-1 20l1 13l-2 30l-2 14l-2 30l-4 14l-10 28l-15 23l-11 6l-14 9l-12 4h-22l-20 1l-11 -4l-14 -3l-11 -5l-14 -6l-10 -9l-12 -7l-12 -12l-5 -19
v-15l1 -12l-1 -15l2 -15l-2 -13v-14l1 -28v-56l-1 -70l6 -20l9 -19l8 -11l12 -8l11 -7l24 -13l14 -4h13z" />
    <glyph glyph-name="c" unicode="c" horiz-adv-x="371" 
d="M229 -10l-42 1l-29 3l-26 9l-12 7l-21 19l-10 7l-8 12l-13 25l-5 12l-9 30l-4 12l-8 73l-1 36l2 22l-1 13l4 43l4 13l1 14l4 15l5 12l4 14l5 14l7 9l7 14l10 10l8 13l10 9l11 8l12 7l40 14l13 2l22 2l20 -1l30 -7l37 -16l13 -10l9 -8l8 -16l-3 -17l-6 -11l-13 -6l-14 5
l-22 16l-13 8l-12 4l-35 4l-21 -2l-12 -3l-13 -5l-10 -8l-9 -11l-8 -11l-7 -11l-5 -12l-3 -13l-5 -12l-4 -30l-2 -11l-2 -14v-15l-1 -14l1 -23v-33l5 -56l3 -12l2 -14l6 -11l11 -27l8 -11l9 -10l30 -15l26 -2l21 2l27 5l14 4l17 13l16 14l14 4l12 -7l6 -10l4 -14l-7 -19
l-12 -10l-11 -6l-24 -15l-13 -3l-14 -7l-13 -3z" />
    <glyph glyph-name="d" unicode="d" horiz-adv-x="438" 
d="M219 -10l-21 1h-19l-15 1l-12 3l-13 9l-25 12l-10 9l-10 10l-7 12l-9 13l-13 23l-3 13l-6 13l-6 31l-2 16l-5 26l-2 29v42l2 14l2 16v13l2 15l3 14l2 13l8 29l16 40l25 33l11 10l12 6l11 9l13 7l12 5l13 2l15 3l20 1h22l14 -4l12 -2l27 -11l10 -6h11l7 10l-1 13l2 23
l-3 89l2 12v15l-1 14l-2 16l1 12l-2 14l4 15l11 6h20l19 -6l8 -13l4 -26l-1 -14l2 -13l-1 -15l1 -34l-1 -57l1 -13v-35l-1 -15l1 -21l-1 -13l1 -38l-1 -39l2 -16l-2 -134l1 -16v-106l4 -55l-6 -14l-12 -8l-15 2l-17 5l-10 11l-2 12l-6 9l-9 -3l-10 -10l-11 -7l-22 -17
l-12 -2zM190 43l20 1l21 2l12 2l11 5l13 4l11 6l11 10l8 12l8 15l5 19l1 120l1 15l-2 20l1 86l-5 19l-8 17l-35 25l-28 7l-23 1l-20 -1l-20 -7l-18 -8l-19 -22l-6 -10l-6 -14l-4 -14l-11 -56l1 -12l-3 -28v-22l2 -37l1 -10l1 -28l6 -28l2 -16l5 -11l5 -13l6 -14l9 -10l10 -8
l23 -12z" />
    <glyph glyph-name="e" unicode="e" horiz-adv-x="388" 
d="M183 -11l-14 3l-40 13l-12 9l-20 19l-24 33l-6 13l-11 26l-4 13l-1 17l-5 12l-1 15l-2 14l-2 15l-1 55l5 57l5 28l10 43l5 14l6 13l15 22l18 24l10 8l13 8l38 16l29 5l20 -1l21 -2l26 -4l38 -20l21 -22l14 -24l4 -12l4 -36l-5 -36l-3 -12l-3 -14l-7 -14l-21 -36l-30 -29
l-12 -10l-35 -21l-13 -5l-15 -5l-26 -10l-14 -3l-14 -1l-15 -4l-12 -7l-6 -14l6 -22l8 -21l21 -35l23 -16l13 -3l22 -2l21 1l14 4l15 2l12 6l18 11l18 14l14 6l12 -6l6 -12l2 -16l-7 -15l-10 -10l-12 -10l-12 -7l-14 -5l-14 -7l-27 -7l-13 -2zM126 210l14 3l28 8l12 5l25 13
l35 23l9 11l7 12l7 14l5 13l4 12l3 15l1 21l-1 20l-3 15l-18 22l-10 5l-15 6h-19l-26 -3l-21 -5l-10 -7l-9 -8l-9 -10l-8 -14l-10 -27l-12 -69l1 -28l-2 -28l8 -14z" />
    <glyph glyph-name="f" unicode="f" horiz-adv-x="317" 
d="M118 -2l-18 8l-7 13l1 15v77l1 14v15l-2 22v13l2 14l-2 14v17l1 32l-1 42l1 23v15l-1 21l1 22v20l-8 22l-45 13l-7 12l1 14l7 11l44 14l7 13l2 54l-1 15l2 17l5 26l4 15l13 26l7 13l8 11l10 8l24 17l13 6l27 7h43l30 -5l14 -7l12 -9l-2 -22l-15 -17h-14l-13 5h-34l-20 -3
l-24 -12l-8 -8l-7 -10l-8 -28l-4 -27l1 -34l-2 -23v-13l8 -15l20 -8l35 1l33 -2l21 -7l7 -10l1 -12l-7 -16l-14 -5l-13 2l-15 -1h-13l-28 -1l-13 3l-15 -7l-6 -16l-1 -58l2 -14l-2 -12v-24l1 -18v-29l-1 -22v-192l1 -13l-7 -13l-12 -7z" />
    <glyph glyph-name="g" unicode="g" horiz-adv-x="432" 
d="M204 -262l-20 2l-15 1l-13 1l-14 4l-12 7l-12 4l-34 23l-6 16l3 15l7 13l11 5l13 -3l11 -9l12 -8l14 -6l26 -9h21l13 -2l22 3l13 5l24 13l11 8l7 11l8 14l6 13l8 26l3 70l-1 13v14l1 18l-1 21l-5 10l-10 -2l-10 -10l-30 -19l-20 -6l-15 -3l-20 -1l-22 2l-34 6l-20 11
l-10 7l-10 10l-10 8l-9 13l-8 9l-6 13l-6 15l-5 12l-8 30l-2 13l-4 14l-2 16v15l-2 28v23l-1 21v14l4 24l1 15l4 31l12 37l17 39l9 14l27 27l11 10l13 5l20 5l19 4l44 1l27 -7l14 -6l13 -7l12 -10l11 -7l9 -4l8 9l10 15l17 10l16 1l12 -9l6 -16l-3 -69l1 -34l-1 -36v-21
l-1 -34l1 -15l1 -14l-1 -13l-1 -36l2 -19v-15l-2 -22v-13l1 -14v-21l1 -14l-1 -13l1 -15l-1 -16l1 -12v-12l-2 -14l2 -14l-1 -59l-1 -11l-2 -14l-12 -40l-5 -12l-6 -12l-8 -12l-8 -11l-20 -20l-23 -16l-11 -6l-14 -4l-14 -3l-12 -6l-13 -1h-21zM209 43l20 2l13 2l12 4l13 6
l32 26l9 18l4 19v15l-1 14v122l-1 12l2 22v37l-5 27l-9 17l-10 10l-12 9l-23 14l-13 5l-15 3l-20 1l-21 -1l-12 -4l-13 -6l-10 -6l-10 -9l-15 -22l-9 -28l-2 -12l-2 -16l-1 -11l-2 -15l-1 -29v-14l-1 -22l1 -20v-14l2 -13v-13l4 -28l3 -13l2 -15l5 -13l12 -23l9 -13l8 -8
l11 -9l13 -3l13 -4z" />
    <glyph glyph-name="h" unicode="h" horiz-adv-x="419" 
d="M323 -3l-13 7l-9 14l-2 11v13l-2 28l1 14l-1 14l-1 31l2 22l-1 22v14l-1 28l2 12l-2 14v113l1 14l-1 13l-2 13l-12 24l-11 5l-12 3l-22 3l-20 -3h-15l-13 -4l-26 -14l-13 -8l-10 -9l-12 -18l-5 -20l1 -15l-1 -25l2 -59l-2 -13l1 -14v-40l-1 -15l1 -13l1 -133l-7 -19
l-19 -7l-12 -1l-19 7l-8 14v154l1 13l1 16l-2 14v42l2 15l-2 25l1 281l-1 16l1 14l-1 13l1 29l-3 14v13l3 12l11 7h19l22 -7l8 -9v-14l2 -14v-26l2 -145l-2 -34l6 -10l10 3l23 14l11 6l13 4l13 7l40 9h40l13 -3l25 -10l11 -9l21 -28l7 -19l3 -14l1 -17v-19l1 -20l-1 -16
l2 -12l-2 -15v-184l2 -26l-1 -15l3 -58l-3 -12l-12 -8h-26z" />
    <glyph glyph-name="i" unicode="i" horiz-adv-x="191" 
d="M93 555l-19 1l-13 8l-7 12l-4 21l4 19l9 12l10 9l22 1h20l10 -9l10 -12l3 -20l-4 -23l-9 -9l-11 -8zM89 -3l-14 8l-8 12l-3 12v12l-2 14l1 14l-2 59l1 23l-1 84l1 22l-1 86l1 14l-1 14v11l1 16l-2 13l1 15l-1 14l-2 13l5 16l11 4l13 2l13 -2l14 -5l8 -15l1 -27l2 -13v-45
l1 -23l-1 -35l1 -14v-64l1 -13l-2 -22l1 -48l-1 -20v-13l2 -13l-1 -16v-14l1 -12v-15l1 -14v-13l-2 -14l-12 -7z" />
    <glyph glyph-name="j" unicode="j" horiz-adv-x="212" 
d="M116 555l-22 2l-10 10l-9 10l-2 19l3 21l8 13l10 7l22 2l21 -2l10 -8l10 -12l1 -21l-2 -20l-9 -12l-10 -6zM30 -257l-15 4l-10 13l-3 14l4 15l13 11l14 4l11 8l18 21l12 25l3 14l5 31l1 26v59l1 16v34l1 16l-2 19v87l1 12l-1 43l1 17v27l-1 15v12l2 14l-2 22l1 20l-1 16
l1 12l-1 15l-1 13l1 15l-1 13v14l-1 14l3 13l13 8l13 -2l13 2l14 -7l8 -11l1 -28l2 -15l1 -181l-2 -13l1 -15l-1 -15l1 -38l-1 -50l1 -20v-28l-1 -14l1 -42l-1 -13l1 -56l-5 -42l-1 -16l-3 -13l-7 -26l-21 -41l-18 -19l-11 -9l-11 -7l-14 -6l-13 -2z" />
    <glyph glyph-name="k" unicode="k" horiz-adv-x="403" 
d="M370 -2l-23 1l-26 5l-15 12l-8 14l-15 22l-13 26l-9 13l-21 37l-24 34l-6 12l-15 25l-7 13l-8 11l-15 10h-17l-17 -10l-7 -24v-77l-1 -15l1 -44l-1 -14l1 -15v-13l-6 -16l-13 -6h-12l-13 1l-12 6l-6 14l-2 28l2 16l-2 14v41l1 13l-1 100l1 13v50l1 11l-2 22v155l2 21
l-1 16v27l-1 20l1 14l-1 16v56l-2 11l-1 15l5 14l10 5l13 1l12 -1l15 -5l9 -11v-13l2 -12l1 -58l1 -16l-1 -168l-1 -14v-13l1 -15l-1 -14l1 -14l-1 -37l6 -17l15 -1l36 19l12 8l11 9l27 31l17 22l7 11l18 40l4 12l6 13l10 14l17 6l14 -2l13 2l13 -7l2 -14l-14 -36l-26 -51
l-15 -22l-9 -10l-26 -33l-10 -8l-11 -8l-5 -14l2 -18l7 -13l6 -12l8 -9l7 -13l8 -12l13 -24l9 -12l6 -12l7 -12l8 -11l6 -13l9 -10l6 -14l8 -11l6 -11l30 -48v-13z" />
    <glyph glyph-name="l" unicode="l" horiz-adv-x="187" 
d="M86 -2l-12 5l-8 13l-3 13l-2 26l1 44l-1 15v13l-1 23v23l2 26l-2 14l1 184l-1 16v14l2 13l-2 87l1 20v63l-2 14l1 27l-2 27l5 14l10 7l11 -1l13 2l14 -8l10 -10l3 -72l-1 -12l2 -14l-2 -38l1 -27l-1 -14l1 -23l-1 -12v-46l2 -18l-2 -23l1 -12v-15l-1 -13l2 -15l-1 -199
v-14l-1 -27l2 -13l1 -13l-1 -16l1 -27l-2 -14l-11 -5l-13 1z" />
    <glyph glyph-name="m" unicode="m" horiz-adv-x="642" 
d="M91 -1l-13 1l-14 6l-5 15l-2 28l2 28v13l-1 13l-1 22l1 12v37l1 15l-1 12l1 28l-1 14l1 37l-1 118l-2 13v29l-3 12l4 15l17 8l19 -1l14 -9l11 -15l7 -9l11 2l24 15l13 6l41 17h14l21 2l23 -2l13 -1l11 -5l13 -7l11 -8l8 -8l9 -12l11 -6h12l23 18l25 16l25 9l21 4l27 4
l22 -1l25 -8l13 -9l12 -6l9 -10l12 -24l5 -14l3 -15v-15l2 -20v-28l-1 -15l2 -40l-1 -15l1 -231l2 -13l-4 -15l-12 -7l-26 2l-14 4l-7 12l-3 26l1 13l-2 14l-1 29l1 17v34l1 20l-1 15l1 14l-2 45l2 11l-2 59l2 53l-5 27l-5 11l-8 9l-9 10l-14 4l-19 1h-20l-14 -3l-14 -4
l-12 -7l-11 -8l-21 -16l-11 -18l-4 -26l-1 -35l1 -83l-2 -28l2 -42l-2 -14l2 -14l-1 -15v-39l1 -23v-36l-8 -13l-13 -6h-11l-13 1l-14 7l-6 18v15l1 16l-1 109l1 15l-1 42l1 35l-1 14v40l1 21l-2 33l1 14l-3 15l-6 11l-7 11l-23 12h-41l-12 -4l-14 -5l-13 -4l-22 -17
l-11 -10l-9 -15l-5 -18l-1 -13l-1 -29l2 -16v-80l-2 -17l2 -11v-71l-1 -14v-14l1 -15l-1 -15v-40l-7 -13l-11 -7z" />
    <glyph glyph-name="n" unicode="n" horiz-adv-x="419" 
d="M349 -2l-13 2l-12 1l-15 5l-8 10l-1 11l-2 29v16l-1 13v14l-1 15l2 16l-1 76l1 16v12l-2 35l2 84l-4 40l-5 14l-7 10l-11 6l-13 5h-20l-32 -2l-15 -4l-13 -7l-11 -7l-21 -16l-9 -12l-10 -17l-5 -25l1 -79l-2 -12l1 -50l-1 -13l1 -16l-1 -13l2 -58l-1 -13l1 -21l-2 -16
l2 -14v-14l-8 -12l-12 -8h-14l-11 2l-13 7l-8 14l2 14l-1 12l1 26l-1 16l1 15v14l-1 13l1 14l-1 12l1 28l-1 16l1 14l-1 14l1 22v12l-1 22l1 14l-1 13l1 15l-1 15l1 20l-1 21v13l-4 56l3 12l18 8h12l22 -7l9 -12v-14l7 -7l11 4l12 9l10 5l12 8l14 8l12 4l14 6l14 2l13 3
l35 -1l20 -2l15 -5l22 -15l9 -8l14 -27l5 -13l2 -11l3 -57l-1 -28l1 -15l-2 -22l1 -149l2 -96l3 -12l-6 -16z" />
    <glyph glyph-name="o" unicode="o" 
d="M186 -10l-14 3l-13 1l-24 12l-12 8l-13 7l-18 19l-8 11l-15 27l-10 24l-7 26l-8 43l-3 30v57l3 29l2 27l2 15l11 41l6 10l11 28l8 13l17 21l12 11l10 7l17 9l20 8l20 5l28 1h21l14 -2l27 -9l11 -5l11 -7l21 -17l17 -22l14 -25l5 -14l6 -11l3 -14l5 -15l2 -12l3 -15l2 -29
l4 -28l-2 -41l1 -17l-1 -14l-7 -43l-2 -11l-13 -40l-6 -15l-7 -10l-6 -15l-8 -10l-11 -10l-10 -10l-11 -9l-23 -14l-26 -6l-15 -3h-41zM186 44l42 1l13 5l12 4l12 8l9 11l9 14l6 13l5 13l4 14l3 14l1 13l3 17l2 13l1 15l-1 16v23l2 18l-3 41l-4 28l-4 14l-2 13l-10 26l-6 13
l-8 10l-10 11l-23 14l-13 2l-19 1l-21 -2l-25 -7l-13 -13l-13 -17l-13 -22l-2 -14l-5 -14l-5 -27l-1 -15l-2 -12l-2 -30l2 -42v-28l1 -16l2 -13l11 -43l5 -15l5 -10l8 -12l9 -12l12 -10l11 -6z" />
    <glyph glyph-name="p" unicode="p" horiz-adv-x="435" 
d="M90 -250l-14 6l-8 11l-3 26v13l-1 16l1 13l-1 14l1 15l-1 16l-1 44l1 12l-1 125l1 14l1 13l-2 16v41l1 15l1 12l-1 14l-1 15v13l2 16l-2 62l1 12v24l-1 13v71l-3 41l5 16l12 6l15 -1l18 -5l11 -12l3 -15l5 -10l11 4l12 7l12 10l12 7l51 21l22 1l14 2h21l28 -7l12 -5
l21 -16l9 -8l7 -14l6 -10l5 -15l4 -11l5 -16l5 -28l5 -45l1 -27l1 -14v-42l-2 -16l-1 -13l-6 -45l-6 -26l-15 -42l-14 -24l-9 -13l-15 -16l-14 -14l-14 -8l-12 -5l-11 -6l-20 -6l-51 -3l-13 3l-44 14l-13 -1l-6 -11v-29l-1 -16l1 -13v-35l-1 -21l2 -14l-1 -54l4 -44l-5 -13
l-12 -4zM196 42h14l19 2l21 4l12 5l11 7l11 10l9 10l14 23l10 26l6 30l4 58v70l-2 26v14l-3 14l-1 12l-7 29l-13 24l-8 11l-11 7l-34 4h-21l-13 -2l-14 -5l-26 -12l-11 -7l-22 -21l-10 -17l-4 -21v-177l1 -15v-15l-2 -19l1 -23l6 -25l11 -12l12 -7l13 -4l13 -2z" />
    <glyph glyph-name="q" unicode="q" horiz-adv-x="432" 
d="M336 -252l-13 5l-9 13l-2 27l1 14l-2 43v14l-1 16l2 22l-1 63l-1 13l2 29l-2 15l-4 9l-11 -2l-22 -20l-26 -13l-14 -3l-13 -2l-22 -2h-20l-28 6l-24 13l-32 29l-17 20l-13 25l-16 59l-2 28l-3 14l-2 14l1 87l1 12l9 56l4 12l10 28l7 12l5 13l18 23l9 9l22 16l12 6l39 12
l22 1l21 -2l22 -6l19 -8l14 -8l11 -6l12 -12h9l17 25l17 7l17 1l12 -8l5 -13l-1 -15l-2 -20l2 -36l-1 -70l-1 -13l1 -16v-20l1 -14l-1 -14v-15l1 -15l-2 -90l1 -13l-1 -36l1 -12v-58l-1 -14v-14l1 -14v-75l-1 -13l1 -16l1 -40l1 -16v-13l1 -11l-3 -15l-13 -7zM189 43l34 1
l20 3l24 9l10 8l20 19l9 18l5 20v14l-1 42l1 13l-1 31l1 13l-1 73l2 26l-1 17l-5 19l-8 18l-11 9l-12 10l-12 5l-11 9l-14 4l-12 5l-22 1l-20 -4l-13 -3l-12 -5l-12 -6l-11 -16l-11 -18l-4 -11l-5 -14l-7 -43l-1 -14l-2 -84l2 -28v-13l4 -27l5 -26l6 -15l11 -24l8 -10
l10 -10l11 -7l14 -7z" />
    <glyph glyph-name="r" unicode="r" horiz-adv-x="306" 
d="M102 -1l-20 1l-19 7l-7 20l1 48l1 16l-2 35v88l2 14l-1 14l-2 196l-3 16l4 13l10 7h20l21 -5l10 -15l1 -11l7 -10l9 6l10 10l10 9l12 6l26 12l15 5l27 5l27 -5l15 -4l10 -11l2 -17l-4 -15l-10 -11l-14 -2l-14 4h-15l-13 1l-14 -2l-13 -5l-13 -4l-12 -7l-11 -6l-20 -20
l-10 -19l-4 -19l1 -13l-1 -21l1 -16v-20l-2 -14l2 -15l-1 -13l1 -13l-1 -29l1 -27l-2 -28v-43l2 -14v-45l-2 -14l-6 -14z" />
    <glyph glyph-name="s" unicode="s" horiz-adv-x="338" 
d="M166 -10l-16 1l-13 3l-12 4l-14 2l-13 3l-12 7l-24 11l-10 9l-12 8l-7 12l2 19l6 11l11 6l14 -3l12 -6l39 -23l28 -6l35 -4l21 3l12 4l12 7l11 11l12 21l3 15l1 21l-2 24l-5 12l-8 14l-10 11l-18 14l-18 11l-11 6l-22 8l-19 9l-24 14l-35 24l-24 32l-6 15l-4 13l-3 13
l-2 41l3 14l3 12l6 12l6 15l20 19l11 5l10 9l47 11l15 -1h35l13 -2l28 -9l13 -2l13 -7l12 -7l9 -15v-17l-4 -11l-11 -8l-15 3l-14 4l-20 8l-21 5l-14 5l-43 -3l-12 -6l-12 -10l-7 -9l-3 -13l-2 -21l1 -23l5 -11l8 -13l10 -11l9 -5l12 -10l13 -6l19 -11l65 -34l20 -17l9 -9
l18 -22l11 -25l4 -12l2 -14l1 -42l-2 -13l-8 -27l-6 -13l-16 -24l-10 -10l-38 -18l-14 -4l-13 -3l-20 -1h-21z" />
    <glyph glyph-name="t" unicode="t" horiz-adv-x="319" 
d="M205 -10l-22 1l-14 4l-13 6l-12 3l-10 9l-11 6l-16 22l-6 12l-7 12l-8 27l-5 40v59l-2 12l1 16l-1 13l1 14v36l1 12l-2 38l1 28l-1 30l1 15l-8 12l-21 9l-24 5l-7 11l-1 14l8 13l22 6h23l7 9v16l1 14v14l-1 14v43l-3 28l4 11l10 10l26 -3l15 -6l8 -11l3 -28v-29l1 -11
l-2 -52l8 -15l14 -5l28 1l27 -1l28 1l13 -9l8 -12v-12l-7 -11l-15 -6l-12 -2l-15 1h-28l-14 1l-13 -1l-14 -6l-6 -14v-15l-1 -14l2 -15l-2 -142l2 -20v-52l4 -26l6 -28l13 -25l21 -17l20 -4l34 1l13 2l14 5l16 -1l11 -8l3 -12l-4 -16l-13 -10l-27 -8l-15 -3l-14 -4z" />
    <glyph glyph-name="u" unicode="u" horiz-adv-x="422" 
d="M169 -12l-20 2l-15 2l-13 4l-34 20l-16 22l-11 29l-2 12l-5 49v22l1 11l-1 120l1 12l-1 28l1 35l-1 13l1 13l-2 15l1 15l-3 40l5 15l11 7h12l14 1l13 -8l10 -12l1 -15v-13l1 -14l1 -72l-1 -15l1 -14l-1 -11l1 -16l-2 -49l1 -14v-12l-1 -15v-14l3 -41l-1 -22l2 -12l7 -29
l6 -11l10 -12l10 -5l13 -5h43l14 6l13 3l26 14l11 10l10 11l11 16l4 21v13l1 28l-2 37l2 51l-2 13l2 13l-1 16l1 14l-1 16l1 12l-1 14l1 15l-2 27l2 16v27l-1 14l6 15l15 7l12 -1l13 1l12 -5l6 -22l1 -12l-1 -50l1 -58l-2 -26l2 -14v-240l3 -26l-3 -15l-12 -6l-24 -1l-15 7
l-10 10l-1 15l-6 5l-9 -2l-33 -23l-24 -11l-12 -5l-13 -4z" />
    <glyph glyph-name="v" unicode="v" horiz-adv-x="362" 
d="M173 -2l-21 6l-9 14l-6 15l-3 13l-3 14l-13 40l-3 13l-16 55l-2 15l-5 11l-4 13l-3 15l-55 191l-4 12l-2 14l-4 14l2 15l13 5l12 1l14 -1l14 -6l12 -12l14 -57l4 -12l3 -14l5 -14l3 -15l4 -13l18 -67l3 -16l4 -12l25 -110l5 -12l3 -14h5l19 88l6 19l3 14l3 13l4 15l5 13
l7 37l22 74l7 34l7 20l7 27l11 15l14 6l28 -2l11 -7l2 -12l-6 -28l-21 -65l-2 -16l-8 -27l-5 -11l-2 -15l-13 -41l-3 -15l-4 -12l-4 -14l-3 -13l-5 -13l-3 -16l-9 -26l-2 -15l-8 -27l-4 -10l-4 -16l-4 -13l-5 -12l-6 -28l-12 -14l-13 -7z" />
    <glyph glyph-name="w" unicode="w" horiz-adv-x="560" 
d="M156 -1l-20 6l-11 15l-6 28l-4 13l-3 14l-1 12l-7 26l-3 14l-2 13l-4 13l-3 15l-2 14l-7 25l-3 15l-10 43l-3 12l-5 28l-10 38l-2 15l-6 26l-3 15l-7 27l-5 28l4 13l12 8l12 -3l15 2l14 -7l10 -13l3 -16l1 -11l6 -28l2 -14l7 -28l1 -12l4 -14l4 -15l1 -13l4 -19l5 -21
l3 -16l3 -11l12 -69l3 -27l7 -42l6 1l7 36l5 32l12 54l2 14l3 12l7 30l2 13l4 14l2 12l4 15l6 35l12 48l2 13l7 27l8 13l15 8l13 -1h13l15 -7l9 -14l4 -15l7 -41l4 -13l9 -41l4 -15l2 -12l8 -28l2 -16l20 -90l6 -43l4 -14l2 -14l3 -11l4 -1l3 14l1 14l5 25l1 14l5 21l2 21
l4 14l6 26l4 27l6 27l2 14l6 29l7 25l2 16l15 66l9 14l15 7l13 1h13l12 -8l3 -13l-13 -54l-4 -28l-4 -13l-9 -41l-3 -11l-12 -56l-4 -15l-2 -12l-7 -28l-4 -28l-8 -28l-2 -12l-4 -13l-9 -41l-1 -12l-5 -15l-2 -13l-3 -14l-11 -15l-13 -5h-15l-11 1l-15 4l-11 13l-3 15l-4 15
l-1 14l-13 49l-2 15l-8 27l-8 42l-4 13l-32 167l-5 -1l-4 -15l-2 -14l-4 -13l-1 -16l-14 -68l-8 -28l-14 -73l-6 -21l-2 -14l-5 -12l-7 -42l-3 -10l-7 -28l-9 -15l-16 -5h-19z" />
    <glyph glyph-name="x" unicode="x" horiz-adv-x="404" 
d="M44 -2l-10 7l2 18l18 33l6 15l12 25l8 11l12 25l7 12l5 15l7 13l8 10l12 28l14 25l4 19l-7 23l-16 32l-8 11l-6 15l-7 10l-7 11l-38 76l-7 12l-7 13v10l12 8l29 -2l19 -6l13 -11l9 -20l10 -17l8 -11l43 -89l4 -9l6 -12l7 -2l29 63l19 34l6 15l7 11l5 13l7 10l6 14l14 12
l25 6h22l11 -6l2 -12l-79 -144l-9 -19l-8 -12l-5 -13l-4 -19l2 -17l7 -11l6 -14l15 -25l12 -25l7 -11l10 -22l10 -18l11 -24l8 -12l6 -14l8 -11l6 -12l6 -16l-1 -12l-11 -4l-14 -2l-13 2l-17 5l-14 10l-6 13l-7 12l-6 13l-7 12l-7 11l-6 13l-39 71l-5 14l-5 10l-9 12l-10 -8
l-12 -20l-6 -15l-11 -18l-9 -20l-20 -36l-9 -19l-11 -19l-6 -12l-7 -12l-12 -12l-17 -6l-15 -1z" />
    <glyph glyph-name="y" unicode="y" horiz-adv-x="371" 
d="M88 -254l-16 1l-12 8l-8 14v17l7 15l12 10l26 29l6 15l7 11l21 52l4 14l5 12l3 16l5 13v23l-7 40l-14 46l-4 12l-3 15l-9 27l-5 10l-6 27l-5 14l-5 13l-2 13l-8 27l-6 13l-6 27l-6 16l-3 10l-4 13l-3 15l-5 14l-3 13l-6 13l-14 52l-5 13l-3 15l2 14l11 4l22 2l22 -5
l11 -14l12 -42l3 -14l5 -13l10 -40l6 -13l2 -13l7 -21l5 -21l4 -14l3 -12l5 -13l4 -15l4 -13l3 -14l7 -19l13 -49l3 -15l5 -15l4 1l5 15l32 136l3 16l8 27l2 14l18 64l3 14l8 26l2 15l4 14l3 11l12 15l13 7h22l18 -6l3 -14l-8 -26l-3 -15l-4 -12l-3 -13l-5 -15l-3 -15
l-7 -24l-5 -14l-7 -27l-4 -12l-6 -30l-6 -12l-7 -26l-5 -27l-10 -26l-2 -14l-4 -14l-5 -13l-2 -14l-5 -12l-3 -13l-4 -14l-4 -15l-9 -31l-6 -28l-8 -21l-3 -13l-4 -11l-3 -14l-5 -15l-3 -14l-5 -12l-4 -13l-5 -13l-12 -25l-6 -12l-6 -14l-33 -43l-10 -9l-11 -7z" />
    <glyph glyph-name="z" unicode="z" horiz-adv-x="349" 
d="M55 -2l-14 7l-7 18l2 13l3 21l6 21l7 13l7 10l8 14l8 11l8 13l6 10l22 37l11 15l7 14l25 41l7 13l7 11l23 38l7 11l43 70l-1 13l-10 7h-27l-15 -2h-44l-13 2l-13 -1l-43 -1l-15 7l-7 14l1 16l6 13l15 8l14 -2l13 3h14l14 -2l14 2l43 -1l12 -2l15 2l29 -2l13 3l14 -1h29
l13 -9l7 -14v-13l-5 -22l-7 -19l-7 -13l-7 -10l-8 -14l-8 -11l-6 -14l-23 -35l-6 -12l-16 -25l-15 -21l-22 -36l-6 -13l-23 -37l-8 -11l-6 -12l-16 -23l-21 -36v-13l11 -6l15 -1l14 2l13 -1l15 2l50 -3l15 1l20 -1l30 3l15 -9l6 -21l-6 -20l-15 -7l-13 -2l-21 1l-14 -2
l-14 2l-14 -2h-15l-13 1l-112 1z" />
    <glyph glyph-name="braceleft" unicode="{" horiz-adv-x="297" 
d="M200 -74l-16 2l-14 8l-11 12l-9 13l-7 13l-5 15l-4 42l1 33l-1 16v22l2 34l-3 13l3 17l-1 24l1 41l-3 15l-1 16l-6 14l-17 29l-12 7l-17 8l-15 4l-15 9l-10 16l7 15l16 10l17 3l14 8l12 8l12 14l9 14l7 32v16l2 15l-2 26l1 68l1 16l-2 20l3 91l5 19l5 14l9 12l15 10l12 7
l16 6l24 2l25 -9l7 -15l-5 -17l-20 -9l-22 -4l-7 -15l-6 -34l1 -81l-1 -17l1 -94l-2 -16l-1 -16l-4 -18l-2 -14l-6 -18l-9 -13l-7 -13l-13 -10l-5 -15l7 -11l10 -9l9 -13l6 -16l6 -13l2 -16l3 -17l4 -18l2 -13l-1 -17l2 -23l-1 -24l1 -50l-2 -14l1 -41l2 -27l-1 -16l6 -16
l9 -14l18 -8l19 -10l6 -15l-7 -13l-26 -7h-22z" />
    <glyph glyph-name="bar" unicode="|" horiz-adv-x="127" 
d="M77 -97l-16 1l-16 5l-11 16v29l-2 15l-1 31l2 16l-3 38l1 137l1 16l-1 13l1 18l-1 16l1 33l-1 16l1 11l-1 52l1 13l-1 19v22l2 16l-1 22v14l1 19l-2 18l2 13l-3 16l2 32v17l-2 14l1 16l-1 63l1 15v14l1 14l-2 19v13l-2 15l6 15l22 8l25 -8l8 -13l3 -12l2 -14l-1 -32
l2 -17l-2 -16l2 -17l1 -24l-1 -53l-2 -16v-176l3 -33l-2 -15v-47l2 -15l-2 -16l1 -13l-1 -16v-32l1 -18l-2 -16l1 -15l1 -16l-3 -17l3 -38l-1 -33l2 -20v-16l-1 -17l-2 -16l1 -17l3 -14l-1 -29l-4 -13z" />
    <glyph glyph-name="braceright" unicode="}" horiz-adv-x="297" 
d="M72 -75l-25 8l-8 15l8 16l36 14l10 13l5 17l1 18l-1 50l2 15l-1 64l2 25l-3 24v15l2 15l5 33l9 31l16 32l11 7l6 14l-3 8l-12 14l-9 14l-12 27l-9 33l-1 15l1 15l-4 68l2 28l-2 16l-1 19l2 39l-4 61l-9 13l-22 6l-18 10l-6 14l8 17l25 4h24l41 -18l7 -14l8 -17l4 -17
l4 -169l-2 -31l2 -22l-1 -16l3 -16l1 -13l5 -16l6 -16l10 -13l16 -10l30 -10l17 -8l6 -17l-8 -17l-16 -10l-16 -1l-13 -7l-13 -10l-12 -14l-8 -14l-3 -13l-2 -19l-3 -17l-2 -126l4 -30v-17l-3 -25v-22l-6 -32l-6 -17l-10 -9l-12 -13l-14 -6l-14 -4z" />
    <glyph glyph-name="asciitilde" unicode="~" horiz-adv-x="309" 
d="M204 304l-25 2l-16 6l-18 8l-13 6l-24 5l-27 -7l-19 -3l-15 7l-2 19l6 18l12 7l16 9l25 -1l24 -2l17 -6l15 -6l15 -8l25 -3l43 9l17 -4l2 -19l-6 -22l-11 -6l-18 -6z" />
    <glyph glyph-name="exclamdown" unicode="&#xa1;" horiz-adv-x="166" 
d="M82 378l-24 3l-12 11l-3 27l5 23l12 11l22 4l22 -7l12 -11l5 -22l-4 -25l-11 -7zM83 -252l-18 7l-8 14l-3 13l-1 80l1 14l-3 26l3 38v50l-2 15l1 16l1 14l-1 19l1 16v12l-3 18l1 23l3 21l-1 16l2 15l1 18v22l4 45l6 23l18 11l16 -9l8 -17v-13l3 -16v-64l3 -20l1 -58
l-1 -14l3 -49l-2 -95l-2 -12l3 -23l1 -25l-1 -16l-2 -16l1 -16l2 -12l-1 -19l3 -12l-1 -14l-4 -15l-17 -9z" />
    <glyph glyph-name="cent" unicode="&#xa2;" horiz-adv-x="404" 
d="M208 -2l-13 10l-7 13l2 17l-2 16l-8 21l-15 11l-29 7l-13 12l-26 17l-25 38l-13 28l-10 46v18l-6 48l2 25l-1 23l4 49l5 34l6 11l3 15l7 14l5 15l6 15l16 21l15 17l14 7l14 8l26 14l14 11l9 20v30l7 15l14 11l15 -8l5 -18l1 -17l-1 -13l9 -17l16 -12l19 -3l21 -8l22 -14
l13 -11l8 -20l-6 -20l-13 -8l-16 2l-28 21l-14 3l-15 5l-25 4l-24 -2l-14 -3l-15 -8l-14 -9l-10 -13l-9 -10l-6 -17l-6 -11l-4 -16l-3 -17l-6 -67l1 -24l-3 -23l2 -17l2 -31l8 -30l3 -16l5 -18l6 -11l12 -15l9 -9l12 -10l16 -7l38 -4l23 3h17l54 31l14 4l15 -7l5 -21l-7 -20
l-12 -9l-29 -19l-15 -3l-15 -6l-18 -5l-15 -10l-9 -16l2 -23l-6 -23z" />
    <glyph glyph-name="sterling" unicode="&#xa3;" horiz-adv-x="404" 
d="M144 -4l-16 4l-14 -1l-30 1h-16l-16 6l-8 18l-1 16l4 23l13 19l9 15l17 24l7 18l9 12l4 15l3 16l4 14l3 17l1 15l-1 34l-2 14v20l-11 14l-18 10l-16 1l-17 5l-6 15l7 17l14 8l14 -3l14 9l4 15l-3 15l-2 17l-3 16l-2 17l-8 25l-8 38l1 48l3 17l5 18l7 13l8 13l11 15l10 12
l10 7l16 7l15 7l16 3l16 4l46 4l16 -3l31 -8l15 -3l13 -9l14 -8l12 -13l4 -14v-15l-8 -11l-17 -6l-16 4l-30 17l-18 6l-16 5l-49 -2l-12 -7l-12 -8l-13 -11l-7 -13l-4 -14l-4 -19l-1 -15l3 -33l23 -113l11 -18l16 -7l19 -2l17 2l16 -1l16 3l17 -1l16 -10l8 -15l-9 -17
l-16 -6l-31 2l-48 -2l-13 -6l-7 -17l-1 -18l2 -29l-1 -17l-3 -16l-3 -32l-7 -26l-6 -16l-2 -18l-7 -15l-10 -12l-15 -25l-4 -13l13 -3h30l15 -2l65 -1l15 1l24 3l31 -2h16l25 -6l9 -13l-2 -17l-9 -11l-13 -11h-17l-17 2h-13l-17 -2l-16 3l-15 -2l-16 2h-16l-16 1l-17 -3h-15
z" />
    <glyph glyph-name="currency" unicode="&#xa4;" horiz-adv-x="426" 
d="M92 82l-18 2l-5 12v17l21 28l4 22l-5 18l-10 12l-7 12l-5 13l-6 18l-5 13l-5 16l-4 17l-3 79l3 16l1 14l4 13l2 18l4 15l7 15l9 12l6 16l8 15l5 16l-4 21l-9 13l-10 10l-2 18l7 16l17 -1l15 -9l20 -24l14 -10l17 1l18 2l12 4h48l29 -7l17 1l17 9l11 12l9 15l14 5h17
l6 -12v-21l-11 -10l-11 -13l-3 -21l8 -21l14 -21l6 -14l11 -30l9 -48l-2 -17l3 -22v-40l-4 -15l-2 -16l-4 -16l-5 -14l-4 -16l-7 -15l-8 -12l-9 -15l-6 -16l4 -18l14 -20l8 -22l-6 -16h-17l-15 6l-20 25l-15 9l-17 1l-16 -6l-62 -4l-15 5l-15 6h-18l-16 -10l-19 -27z
M211 171l25 2l16 7l13 9l12 10l9 16l6 14l9 16l12 51v40l3 23l-1 18l-3 18l-4 12l-7 17l-5 18l-9 15l-9 12l-13 14l-30 15l-23 2l-25 -4l-14 -6l-13 -7l-12 -11l-11 -13l-7 -14l-5 -17l-6 -16l-8 -32v-70l4 -32l4 -17l10 -29l9 -17l10 -13l25 -21l15 -6z" />
    <glyph glyph-name="yen" unicode="&#xa5;" horiz-adv-x="442" 
d="M209 -2l-17 6l-8 26l2 52l-3 31v32l2 14l-10 15l-17 8l-14 1l-16 2l-15 -2l-18 8l-9 14l8 11l18 8l15 3l19 -2l14 1l17 9l9 20l-11 17l-14 9l-16 2l-33 -4l-16 11l-8 13l8 14l15 4h18l15 2l14 8l2 13l-11 29l-4 16l-5 15l-8 16l-5 16l-6 13l-10 29l-7 14l-4 15l-12 32
l-8 15l-9 32l-13 26l-3 17l-8 15l-5 15l2 14l14 9l20 -1l19 -8l14 -12l9 -22l22 -69l7 -13l6 -18l9 -29l5 -13l5 -14l8 -17l16 -45l3 -18l6 -16l6 -18l7 1l6 13l18 52l2 13l8 22l5 18l8 15l9 30l6 14l18 47l3 18l5 15l6 14l7 14l14 17l19 9l17 -2l14 -7l3 -14l-7 -14l-4 -16
l-5 -15l-6 -12l-15 -49l-8 -16l-10 -27l-4 -17l-6 -13l-10 -31l-12 -28l-10 -31l-7 -14l-10 -31l2 -13l14 -9l24 2l24 -10l10 -11l-9 -15l-16 -9l-25 3h-24l-16 -10l-9 -18l11 -18l15 -9l49 -2l15 -8l8 -12l-8 -13l-17 -9l-30 -2l-16 1l-17 -6l-9 -14v-14l2 -17v-16l-2 -15
l-1 -18l2 -12l-1 -15v-19l2 -16l-10 -13l-17 -6z" />
    <glyph glyph-name="brokenbar" unicode="&#xa6;" horiz-adv-x="127" 
d="M69 432l-13 1l-17 8l-8 16l2 17v17l-2 14l2 47l-2 17l2 16l-2 13l1 19v45l-2 14l-1 16l3 16l-2 45l-3 17l7 17l15 7l15 -2l16 -8l11 -13l5 -107l-1 -22v-24l-1 -16l2 -18l-2 -13l2 -17v-20l-3 -31l1 -46l-7 -14zM78 -95l-17 1l-18 6l-9 12v14l-2 30v32l-1 30v144l2 14
l1 24l-1 28l6 15l16 6l16 3l15 -10l11 -18l-3 -13v-16l2 -17v-16l-2 -31l1 -30l-1 -23l-1 -102l2 -16l-1 -15l2 -16l1 -18l-5 -13z" />
    <glyph glyph-name="section" unicode="&#xa7;" horiz-adv-x="401" 
d="M192 -262l-25 1l-14 3h-17l-13 4l-32 9l-14 9l-14 5l-11 11l-7 15l5 22l15 10l15 -5l12 -9l13 -4l13 -10h16l31 -8l24 -1l23 4l29 9l14 7l15 12l9 12l6 17l7 11l4 19l4 15l3 25l-3 41l-4 14l-9 12l-6 17l-13 10l-10 14l-13 10l-13 8l-21 15l-35 22l-14 11l-14 8l-12 10
l-14 8l-44 50l-9 14l-7 14l-6 17l-6 30l-1 48l9 30l6 14l5 16l33 31l15 7l7 14l-6 10l-11 15l-13 9l-10 11l-23 42l-5 14l-6 14l-2 15l-1 25l2 27l5 15l4 15l15 29l9 12l13 12l10 10l15 5l28 15l18 4l13 4l24 1l23 -2l33 -5l21 -7l21 -10l16 -12l6 -13l-5 -20l-15 -9l-18 4
l-17 8l-15 4l-14 6l-16 -1h-22l-25 -1l-28 -12l-12 -12l-17 -30l-5 -15l-2 -45l5 -14l4 -15l6 -11l19 -27l10 -10l19 -15l34 -19l21 -10l22 -14l13 -6l13 -12l13 -8l12 -10l18 -26l13 -10l15 -30l6 -15l4 -13l4 -33l1 -50l-7 -28l-8 -34l-17 -30l-10 -13l-8 -18l8 -15
l10 -12l6 -13l10 -17l7 -14l2 -16l6 -16l2 -14l-2 -51l-3 -13l-5 -31l-13 -32l-6 -11l-12 -12l-11 -14l-9 -9l-14 -12l-18 -7l-23 -10l-33 -8zM258 110l17 7l11 14l6 13l5 15l2 16l3 14l2 23l-2 25l-3 15l-2 16l-5 14l-15 27l-10 12l-11 10l-10 8l-15 8l-14 9l-22 8l-24 -1
l-26 -15l-13 -12l-16 -27l-4 -17l-3 -25l1 -24l4 -13l7 -16l5 -13l19 -26l12 -7l13 -12l14 -8l13 -10l12 -9l30 -14z" />
    <glyph glyph-name="dieresis" unicode="&#xa8;" horiz-adv-x="253" 
d="M185 759l-23 4l-8 10l-5 20l4 20l11 10l20 7l22 -4l9 -12l4 -21l-3 -24l-13 -8zM67 761l-21 5l-11 6l-3 22l3 18l11 9l22 8l19 -2l10 -13l4 -19l-6 -22l-9 -8z" />
    <glyph glyph-name="copyright" unicode="&#xa9;" horiz-adv-x="641" 
d="M344 -9l-24 4h-26l-15 -1l-13 3h-17l-29 8l-44 20l-14 8l-12 6l-13 11l-14 7l-9 14l-20 24l-7 14l-10 10l-5 14l-9 15l-5 19l-10 27l-8 33l-3 16l-3 31l-4 18v17l-1 13l-1 24l3 41l-1 20l2 15l7 28l2 16l3 19l3 17l9 27l7 14l11 31l36 53l11 9l21 18l32 16l15 10l13 5
l16 4l13 5l18 4l15 4l15 2l24 -1l17 1l23 -2l15 2l16 -4l16 -1l14 -2l14 -6l30 -11l42 -21l11 -9l13 -8l33 -40l24 -39l6 -14l5 -17l5 -11l9 -34l3 -17l4 -16l7 -82v-25l1 -22l-2 -17v-16l-3 -15v-16l-5 -16l1 -17l-4 -14l-5 -13l-10 -34l-6 -14l-5 -15l-10 -15l-8 -14
l-9 -12l-9 -15l-10 -9l-22 -24l-13 -9l-14 -7l-20 -13l-22 -8l-12 -6l-17 -2l-15 -4l-24 -6zM343 41l15 5l15 1l33 11l14 4l39 24l14 11l11 9l9 15l11 13l16 26l5 14l12 34l13 65l2 16l1 34l3 25l-11 109l-5 14l-1 14l-13 34l-5 12l-27 46l-45 44l-13 9l-46 16l-14 6l-58 4
l-31 -2l-39 -7l-29 -10l-52 -37l-20 -24l-11 -11l-7 -14l-10 -15l-17 -45l-3 -19l-5 -15v-16l-9 -50l1 -99l13 -66l4 -12l2 -15l8 -15l5 -18l9 -17l18 -28l33 -32l12 -8l15 -11l15 -6l14 -7l14 -5l16 -5l17 -4l15 2zM329 156l-25 1l-32 6l-15 8l-25 19l-9 15l-10 11l-6 15
l-7 18l-6 30l-3 18l-3 14l1 19l-3 22l4 59l3 17l9 33l6 14l7 12l20 27l13 10l11 10l15 9l16 4l15 3l24 3l41 -5l16 -5l14 -7l14 -11l7 -17l-2 -21l-13 -7l-16 2l-13 10l-15 4l-14 4l-20 2l-24 -3l-15 -7l-11 -12l-9 -12l-6 -12l-6 -14l-4 -14l-7 -49l1 -66l4 -16l1 -16
l6 -13l3 -18l15 -24l13 -9l15 -5h23l22 -3l30 10l15 6l13 3l18 -5l4 -15l-7 -19l-14 -11l-24 -14l-16 -3l-17 -1z" />
    <glyph glyph-name="guillemotleft" unicode="&#xab;" horiz-adv-x="338" 
d="M166 228l-12 5l-12 7l-15 12l-13 11l-11 10l-14 8l-13 12l-11 11l-13 11l-11 17l1 28l11 18l11 9l12 13l15 9l11 7l13 12l13 9l12 10l13 14l13 2l6 -9v-15l-8 -20l-13 -16l-11 -10l-11 -13l-12 -9l-13 -13l-6 -11l5 -18l19 -13l19 -19l12 -9l13 -17l6 -19l-1 -14z
M298 228l-15 5l-14 11l-12 10l-22 18l-14 13l-14 7l-11 10l-15 12l-12 18l1 24l14 20l22 22l15 9l13 12l10 10l14 8l19 16l17 9l8 -9l2 -17l-7 -18l-14 -20l-26 -16l-11 -10l-12 -12l-6 -12l5 -17l13 -9l10 -11l13 -10l14 -13l13 -18l5 -18v-16z" />
    <glyph glyph-name="logicalnot" unicode="&#xac;" horiz-adv-x="308" 
d="M245 267l-16 10l-9 14l-7 17l-16 12l-16 -2l-15 -1l-17 3l-14 -2l-18 -2l-14 2h-15l-13 -1l-18 1l-16 7l-8 19l10 17l16 11l15 -1l22 -4h34l14 4l26 -3h47l16 1h15l16 -8l8 -18l1 -17l-2 -14l1 -18l-8 -16z" />
    <glyph glyph-name="registered" unicode="&#xae;" horiz-adv-x="512" 
d="M230 85l-12 4l-18 2l-27 7l-17 6l-26 13l-26 16l-10 14l-10 10l-10 14l-16 28l-7 17l-5 14l-2 14l-6 15l-3 16l-3 15l-3 19v14l2 25l-1 38l2 19l3 16l5 14v18l11 29l8 15l6 14l6 11l10 13l12 12l11 13l12 9l13 10l25 15l24 9l24 5h15l15 4l23 -2l24 3l54 -13l21 -6l15 -7
l13 -8l25 -17l11 -11l8 -13l11 -11l10 -15l7 -11l13 -31l5 -34l4 -14l1 -19l3 -14l1 -16l-2 -48l1 -17l-4 -32l-7 -30l-14 -47l-10 -13l-7 -11l-19 -27l-10 -9l-14 -14l-12 -9l-27 -12l-47 -13l-15 -1l-16 -5l-23 3zM232 135l25 3l21 -3l17 2l14 3l28 8l13 11l14 8l12 10
l11 13l7 10l7 15l8 14l4 15l12 63l2 42l-2 21v20l-1 16l-10 46l-5 12l-13 32l-8 11l-21 25l-14 7l-13 6l-14 9l-15 2l-17 5l-15 -1l-22 2l-23 -3l-17 2l-45 -14l-14 -8l-12 -10l-11 -7l-10 -15l-10 -10l-8 -13l-11 -32l-8 -44l-4 -36v-23l2 -22l1 -16l3 -32l3 -18l5 -14
l4 -17l12 -26l10 -18l11 -9l12 -8l11 -12l14 -9l14 -5l16 -2l15 -4zM206 207l-18 10l-7 15l1 17l-2 30v17l3 16l-3 33l3 18l-2 31l2 17l-3 30l1 17l-1 14l10 18l15 8l23 1l30 -3l27 -1l28 -16l11 -10l9 -16l3 -15l2 -24l1 -22l-5 -17l-20 -27l-8 -16l-3 -16l9 -29l6 -12
l10 -29l3 -13l-3 -17l-16 -7l-19 7l-13 16l-4 14l-7 17l-13 44l-10 16l-10 -1l-7 -18l2 -42l-2 -16l1 -14l-10 -15zM254 373l21 5l12 10l5 21l-3 23l-9 14l-22 5l-20 -8l-8 -14l-2 -17l1 -18l6 -15z" />
    <glyph glyph-name="macron" unicode="&#xaf;" horiz-adv-x="268" 
d="M84 763l-14 5h-17l-17 5l-6 17l8 13l17 6h30l17 1l16 -3l15 2l17 -1l17 3h45l19 -9l8 -13l-8 -15l-17 -7l-16 -1h-18l-14 -2l-50 2l-14 1z" />
    <glyph glyph-name="degree" unicode="&#xb0;" horiz-adv-x="219" 
d="M99 444l-32 7l-20 13l-12 9l-8 10l-10 18l-4 14l-4 16v27l2 25l4 13l2 16l7 17l10 12l12 11l16 8l14 4l24 3l22 -2l18 -6l11 -6l13 -12l7 -12l7 -16l6 -17l2 -14l1 -25l-1 -24l-1 -15l-6 -17l-5 -16l-11 -15l-11 -10l-16 -4l-15 -8zM98 492l20 2l10 10l7 14l3 15l3 26
l-1 26l-7 15l-11 17l-23 4l-20 -2l-11 -13l-7 -9l-4 -15l1 -23l1 -22l3 -17l6 -16l11 -7z" />
    <glyph glyph-name="plusminus" unicode="&#xb1;" horiz-adv-x="308" 
d="M153 287l-15 11l-10 14l-2 14v16l-9 17l-21 6h-24l-16 2l-14 4l-7 18l7 18l16 9l16 1l13 2l18 -1l14 5l7 15l2 16l-1 17l9 16l17 9l17 -9l8 -23l1 -22l7 -19l18 -4l14 -1l16 -2l16 3l16 -9l7 -19l-9 -18l-15 -8l-16 -1l-14 2l-15 -1l-19 -9l-5 -14l-1 -15l-1 -18l-9 -13z
M185 193l-18 4l-23 -1l-21 -2h-34l-16 2l-14 1l-17 7l-10 17l11 17l14 9l16 2h23l15 -1l27 -3l16 2h30l17 -1l15 2l30 -1l18 -11l10 -16l-11 -15l-15 -12l-15 2l-17 -1z" />
    <glyph glyph-name="uni00B2" unicode="&#xb2;" horiz-adv-x="233" 
d="M181 327l-16 2l-46 2l-17 -3l-45 2l-15 8l-8 16l-2 25l3 21l6 14l8 15l5 17l8 12l11 11l9 13l13 12l9 11l17 25l10 11l11 29l4 25l-4 24l-11 11l-21 9l-25 -1l-16 -5l-14 -13l-13 -6l-14 7v20l9 19l13 12l32 10l24 5l24 -5l13 -4l16 -6l11 -7l11 -13l6 -13l5 -13l4 -25
l1 -22l-4 -19l-6 -14l-7 -15l-10 -13l-9 -15l-59 -76l-8 -15l-5 -14l4 -16l17 -7l16 2l24 -4h18l25 -5l10 -15l-8 -16z" />
    <glyph glyph-name="uni00B3" unicode="&#xb3;" horiz-adv-x="221" 
d="M75 331l-14 5l-25 10l-6 21l11 13l18 -2l39 -6l23 7l11 11l8 17l2 22v22l-5 17l-11 10l-13 7l-18 4l-14 8l-3 13l2 13l10 8l17 5l14 12l6 14l7 14l3 26l-6 25l-12 10l-26 7l-22 -5l-13 -5l-15 -2l-5 17l7 21l13 9h19l22 5l24 -2l15 -4l25 -20l10 -10l4 -14l4 -22l-1 -24
l-4 -15l-4 -14l-8 -14l-7 -10l-5 -17l9 -16l8 -9l8 -11l7 -13l4 -17l2 -25l-3 -26l-6 -15l-5 -15l-11 -14l-12 -12l-15 -9l-23 -5l-16 -2z" />
    <glyph glyph-name="acute" unicode="&#xb4;" horiz-adv-x="173" 
d="M53 749l-13 7v13l13 26l8 13l6 13l17 12l18 9h17l8 -10v-12l-9 -13l-10 -14l-8 -10l-9 -13l-17 -16z" />
    <glyph glyph-name="paragraph" unicode="&#xb6;" horiz-adv-x="420" 
d="M181 -9l-20 5l-12 20l7 18l13 9l15 2l16 8l13 8l11 10l10 11l9 17l6 13l5 15l7 33v15l2 27l-1 23l-2 14v14l2 17l1 31l-2 19v14l2 15l-2 19v15l2 16l-2 16v48l2 15l-2 51l1 54l-1 25l-8 16l-13 6h-16l-15 -5l-9 -17l-1 -34l2 -63l-1 -18l1 -17v-13l1 -17l-3 -19l2 -14
l-2 -17l2 -17l-3 -40l3 -23l1 -19l-11 -14l-16 -9l-14 2l-16 1l-18 4l-15 8l-13 9l-14 9l-9 8l-10 14l-7 13l-8 14l-5 17l-4 15l-4 33l-1 16l-3 17l2 20l-2 27l2 15l3 16l2 15l1 13l4 17l10 33l15 26l10 13l12 9l11 10l14 6l15 6l24 3l17 -1l33 1l22 -2l33 -1l18 2l16 -3
l15 3l32 1l15 -3l17 -6l10 -17l-8 -20l-16 -5l-16 -2l-14 -6l-8 -18v-30l-3 -49l3 -13v-65l-2 -24l1 -41l-1 -18l2 -15v-44l-2 -37v-15l3 -28l-2 -17v-26l-2 -41l-6 -29l-5 -18l-4 -14l-9 -15l-9 -12l-9 -18l-12 -9l-11 -10l-12 -9l-15 -6l-15 -8l-15 -1z" />
    <glyph glyph-name="periodcentered" unicode="&#xb7;" horiz-adv-x="163" 
d="M79 285l-22 2l-10 13l-4 23l4 20l11 14l22 3l21 -5l13 -9l4 -24l-4 -21l-11 -12z" />
    <glyph glyph-name="cedilla" unicode="&#xb8;" horiz-adv-x="201" 
d="M89 -222l-15 1l-14 4l-16 9l-12 18l10 19h17l17 -4l16 -3l15 3l14 7l10 12l3 20l-5 26l-12 11l-14 4l-18 2l-19 6l-9 18l5 19l5 18l6 17l12 13l18 9l8 -7l3 -19l-6 -13l3 -18l15 -9l15 -5l15 -10l21 -23l7 -16l-1 -27v-25l-10 -13l-8 -11l-12 -14l-15 -7l-15 -4l-15 -6z
" />
    <glyph glyph-name="uni00B9" unicode="&#xb9;" horiz-adv-x="183" 
d="M99 348v17l-3 17l2 19l-2 60l1 17l-1 15l2 17l-2 12l-1 33l1 17l2 11v16l-5 8l-9 -3l-8 -16l-11 -12l-8 -13l-14 -10l-17 4l-6 15l2 14l9 12l8 17l8 13l10 11l9 12l9 8l16 16l18 6l16 -1l15 -8l8 -17l-1 -17l-1 -13l1 -16l-2 -35l2 -32l-1 -16l1 -13l1 -32l-2 -17l2 -65
l-2 -14v-17l1 -14l-4 -18l-16 -8l-18 7z" />
    <glyph glyph-name="guillemotright" unicode="&#xbb;" horiz-adv-x="338" 
d="M40 229l-6 15l5 26l12 17l22 15l10 13l21 18l5 13l-5 16l-13 8l-11 10l-15 13l-13 8l-12 16l-5 30l5 16l20 -12l29 -23l12 -7l15 -11l13 -11l11 -11l14 -11l12 -19l-2 -28l-12 -18l-12 -9l-11 -12l-14 -9l-13 -9l-11 -11l-13 -11l-15 -11l-10 -7zM169 227l-6 16l6 29
l13 16l13 13l15 9l11 9l13 12l6 15l-7 17l-11 8l-20 14l-18 17l-13 18l-7 19l-1 13l5 8l14 -3l13 -10l25 -20l24 -18l15 -9l12 -12l12 -11l12 -18l1 -29l-12 -16l-12 -12l-14 -8l-12 -10l-19 -17l-33 -28l-11 -9z" />
    <glyph glyph-name="onequarter" unicode="&#xbc;" horiz-adv-x="563" 
d="M139 -2l-12 2l-14 3l1 19l6 12l4 18l13 26l5 18l6 14l7 15l46 119l4 15l30 76l7 11l5 18l6 11l17 47l14 29l3 15l6 15l7 14l6 17l6 13l5 19l7 14l5 15l13 30l3 12l7 14l6 18l13 29l13 15l19 8l16 -2l11 -6l1 -14l-4 -17l-7 -14l-13 -31l-4 -16l-9 -11l-3 -15l-53 -137
l-7 -12l-5 -16l-7 -15l-10 -32l-32 -71l-22 -64l-8 -11l-22 -61l-7 -13l-7 -15l-16 -47l-25 -58l-14 -14zM147 328l-18 7l-8 15l-3 15l1 112l-2 24l2 21v49l-2 13l2 18l-4 5l-10 -4l-11 -14l-9 -14l-7 -16l-15 -8l-16 4l-8 13l1 18l30 39l7 13l11 11l7 10l17 16l19 4l13 2
l16 -9l7 -16l-1 -100l2 -15l-1 -60l2 -18l-3 -22l3 -43l-3 -16v-15l2 -15l-4 -16zM479 -2l-16 10l-8 14l-1 33l-11 21l-15 7h-17l-16 1l-18 -3l-15 -1l-18 2l-16 9l-9 17l8 43l8 16l8 13l3 16l41 86l10 17l11 31l15 12l18 8l14 -9v-15l-6 -15l-6 -16l-9 -12l-5 -16l-17 -29
l-4 -16l-15 -28l-5 -18l-7 -13l-7 -17l1 -15l10 -5l14 -3l18 3h16l14 10l7 16v51l8 17l12 5l16 -7l5 -17l1 -48l8 -18l19 -16l7 -16l-8 -15l-18 -13l-9 -20l3 -33l-5 -13z" />
    <glyph glyph-name="onehalf" unicode="&#xbd;" horiz-adv-x="563" 
d="M142 -1l-16 1l-10 6l-2 15l5 16l6 14l6 17l12 26l5 18l8 15l2 12l8 13l18 49l4 15l6 16l7 12l5 16l6 15l5 16l7 15l7 11l16 49l7 13l6 16l4 13l8 14l3 15l7 17l8 13l23 60l3 19l8 12l12 30l7 25l23 48l4 14l13 18l28 5l20 -6l2 -15l-30 -77l-14 -29l-4 -14l-5 -13l-6 -16
l-7 -13l-7 -16l-5 -16l-13 -28l-4 -18l-8 -13l-3 -15l-8 -18l-5 -15l-7 -11l-12 -30l-3 -15l-8 -18l-5 -15l-38 -86l-3 -16l-8 -14l-5 -15l-7 -14l-6 -15l-4 -16l-6 -17l-32 -72l-11 -14zM147 330l-17 7l-9 15l-3 14l1 16l-1 14v17l-2 23l2 132l2 16l-2 17l-6 8l-18 -21
l-8 -14l-10 -13l-15 -7l-15 1l-8 17l5 16l10 9l9 13l14 26l12 15l10 11l15 12l17 8h16l13 -8l8 -21l-2 -16l3 -15l1 -207l-3 -34l1 -14l4 -16l-7 -16zM416 -2l-30 1l-16 9l-6 17l4 45l4 15l8 15l5 13l10 16l18 22l14 19l17 16l26 40l7 40l-5 22l-8 13l-23 7l-22 1l-15 -7
l-16 -9l-16 -6l-12 7l-3 16l7 16l28 20l15 7l16 4l21 -1l39 -6l14 -12l10 -11l9 -14l8 -14l3 -27l-1 -22l-5 -19l-10 -29l-11 -12l-17 -30l-11 -13l-9 -12l-23 -22l-16 -31l-5 -15l4 -16l24 -8l25 2l19 -2l17 2l15 -7l8 -15l-6 -15l-15 -10l-39 2z" />
    <glyph glyph-name="threequarters" unicode="&#xbe;" horiz-adv-x="576" 
d="M146 -3l-17 10l-3 12l13 33l7 13l5 17l12 29l3 14l8 14l6 14l5 17l8 15l4 15l13 30l3 15l9 19l11 34l18 38l4 15l24 55l5 17l7 12l4 19l7 17l6 14l5 13l8 14l3 16l26 59l5 17l10 28l14 28l6 16l14 15l16 9l16 -2l12 -7l3 -12l-16 -48l-11 -22l-8 -20l-4 -16l-8 -13
l-6 -17l-7 -13l-75 -196l-7 -14l-55 -137l-6 -12l-6 -16l-9 -30l-7 -14l-5 -17l-9 -12l-21 -64l-15 -11zM86 327l-26 10l-13 8l-9 19l11 19l21 -4l13 -4l25 -2l22 8l14 10l8 17v43l-14 27l-14 10l-18 1l-16 9l-3 13l3 13l11 8l17 5l13 11l7 15l6 12l1 26l-4 26l-13 10l-23 6
h-24l-11 -7l-15 -4l-9 16l11 20l14 9l39 5l21 -2l16 -4l14 -7l12 -11l9 -11l6 -13l2 -47l-3 -15l-6 -15l-15 -24l-3 -16l5 -11l12 -13l14 -24l4 -16l2 -26l-3 -23l-5 -17l-7 -15l-9 -15l-28 -19l-15 -7zM490 2l-15 6l-9 16l1 16l-2 17l-7 15l-15 12l-36 2l-32 -6l-17 4
l-19 8l-6 17l7 46l13 28l9 15l19 41l6 17l35 72l13 15l17 4l13 -6l1 -13l-4 -17l-6 -14l-16 -30l-7 -16l-6 -12l-12 -31l-8 -14l-4 -17l-7 -14l-10 -16l2 -12l12 -6l15 -2h14l14 -2l17 9l8 16l-2 37l3 18l5 15l14 7l14 -8l7 -19v-50l10 -14l16 -18l9 -12l-9 -19l-17 -12
l-9 -14v-18l1 -17l-6 -20z" />
    <glyph glyph-name="questiondown" unicode="&#xbf;" horiz-adv-x="369" 
d="M174 358l-9 12l-6 27l5 22l12 13l25 4l22 -6l12 -11l3 -21l-3 -24l-13 -12l-24 -4h-24zM160 -261l-21 4l-36 15l-15 7l-9 9l-10 13l-8 14l-5 13l-8 30l-3 17l1 47l3 14l5 16l4 19l8 14l7 13l6 17l20 28l16 27l9 11l12 12l22 42l5 17l7 16l4 13v24l3 23l-2 26l10 23l16 7
l17 -5l10 -19l2 -17v-12l1 -24l-3 -42l-6 -16l-4 -14l-8 -14l-5 -17l-7 -13l-11 -13l-5 -15l-17 -29l-9 -12l-7 -13l-7 -15l-9 -13l-8 -16l-9 -26l-3 -18l-1 -50l5 -12l8 -14l9 -12l11 -9l13 -8l13 -6l23 1l25 -3l13 3l15 9l14 6l26 18l16 5l18 -7l7 -24l-5 -16l-13 -12
l-10 -6l-30 -15l-16 -4l-14 -5l-31 -7l-23 2z" />
    <glyph glyph-name="Agrave" unicode="&#xc0;" horiz-adv-x="434" 
d="M218 747l-24 10l-18 13l-9 10l-6 14l-12 11l-9 18l-1 11l11 7l19 2l19 -8l14 -15l14 -24l5 -14l10 -13l-1 -15zM32 -2l-15 11l-4 16l18 76l6 14l2 16l5 14l20 97l14 45l3 15l15 66l2 14l10 30l2 14l21 80l1 14l7 16l5 32l9 32l5 12l3 16l2 16l10 32l10 15l18 9l16 2
l15 -3l16 -7l11 -14l6 -17l3 -18l13 -46l5 -31l18 -58l9 -49l6 -14l2 -18l17 -60l2 -16l16 -63l3 -18l5 -13l1 -16l15 -47l4 -30l6 -19l1 -12l18 -62l10 -49l-5 -16l-13 -6h-18l-19 10l-13 13l-5 32l-4 16l-6 14l-6 35l-5 16l-3 17l-8 29l-12 18l-16 8h-46l-24 3h-21l-15 -2
h-34l-18 -8l-10 -18l-32 -146l-6 -13l-12 -15l-16 -11h-20zM224 263l18 2h31l13 5l3 16l-8 33l-2 17l-4 16l-2 12l-6 14l-2 18l-4 15l-7 14l-4 32l-7 27l-3 23l-10 44l-4 33l-9 32l-3 3l-7 -32l-10 -69l-5 -11l-10 -51l-1 -15l-5 -16l-4 -14l-9 -29l-1 -19l-4 -15l-10 -28
l-1 -19l-3 -13l2 -18l14 -6h17l15 1z" />
    <glyph glyph-name="Aacute" unicode="&#xc1;" horiz-adv-x="434" 
d="M197 749l-13 7v13l13 26l8 13l6 13l17 12l18 9h17l8 -10v-12l-9 -13l-10 -14l-8 -10l-9 -13l-17 -16zM32 -2l-15 11l-4 16l18 76l6 14l2 16l5 14l20 97l14 45l3 15l15 66l2 14l10 30l2 14l21 80l1 14l7 16l5 32l9 32l5 12l3 16l2 16l10 32l10 15l18 9l16 2l15 -3l16 -7
l11 -14l6 -17l3 -18l13 -46l5 -31l18 -58l9 -49l6 -14l2 -18l17 -60l2 -16l16 -63l3 -18l5 -13l1 -16l15 -47l4 -30l6 -19l1 -12l18 -62l10 -49l-5 -16l-13 -6h-18l-19 10l-13 13l-5 32l-4 16l-6 14l-6 35l-5 16l-3 17l-8 29l-12 18l-16 8h-46l-24 3h-21l-15 -2h-34l-18 -8
l-10 -18l-32 -146l-6 -13l-12 -15l-16 -11h-20zM224 263l18 2h31l13 5l3 16l-8 33l-2 17l-4 16l-2 12l-6 14l-2 18l-4 15l-7 14l-4 32l-7 27l-3 23l-10 44l-4 33l-9 32l-3 3l-7 -32l-10 -69l-5 -11l-10 -51l-1 -15l-5 -16l-4 -14l-9 -29l-1 -19l-4 -15l-10 -28l-1 -19
l-3 -13l2 -18l14 -6h17l15 1z" />
    <glyph glyph-name="Acircumflex" unicode="&#xc2;" horiz-adv-x="434" 
d="M289 748l-20 6l-17 14l-10 13l-12 11l-14 7l-17 -7l-7 -14l-12 -12l-18 -12l-19 -4l-15 -2l-11 3v15l12 14l8 9l10 12l11 8l9 15l20 10l20 6l17 1l21 -6l18 -11l10 -14l14 -16l16 -16l9 -12l4 -14l-12 -3zM32 -2l-15 11l-4 16l18 76l6 14l2 16l5 14l20 97l14 45l3 15
l15 66l2 14l10 30l2 14l21 80l1 14l7 16l5 32l9 32l5 12l3 16l2 16l10 32l10 15l18 9l16 2l15 -3l16 -7l11 -14l6 -17l3 -18l13 -46l5 -31l18 -58l9 -49l6 -14l2 -18l17 -60l2 -16l16 -63l3 -18l5 -13l1 -16l15 -47l4 -30l6 -19l1 -12l18 -62l10 -49l-5 -16l-13 -6h-18
l-19 10l-13 13l-5 32l-4 16l-6 14l-6 35l-5 16l-3 17l-8 29l-12 18l-16 8h-46l-24 3h-21l-15 -2h-34l-18 -8l-10 -18l-32 -146l-6 -13l-12 -15l-16 -11h-20zM224 263l18 2h31l13 5l3 16l-8 33l-2 17l-4 16l-2 12l-6 14l-2 18l-4 15l-7 14l-4 32l-7 27l-3 23l-10 44l-4 33
l-9 32l-3 3l-7 -32l-10 -69l-5 -11l-10 -51l-1 -15l-5 -16l-4 -14l-9 -29l-1 -19l-4 -15l-10 -28l-1 -19l-3 -13l2 -18l14 -6h17l15 1z" />
    <glyph glyph-name="Atilde" unicode="&#xc3;" horiz-adv-x="434" 
d="M256 762l-22 1l-15 9l-14 6l-14 4l-23 3l-22 -5l-18 -6l-13 14l4 20l10 8l15 11l21 1l24 -4l13 -1l13 -10l15 -5l22 -3l24 2l19 7l13 -13l-5 -17l-10 -10l-16 -7zM32 -2l-15 11l-4 16l18 76l6 14l2 16l5 14l20 97l14 45l3 15l15 66l2 14l10 30l2 14l21 80l1 14l7 16l5 32
l9 32l5 12l3 16l2 16l10 32l10 15l18 9l16 2l15 -3l16 -7l11 -14l6 -17l3 -18l13 -46l5 -31l18 -58l9 -49l6 -14l2 -18l17 -60l2 -16l16 -63l3 -18l5 -13l1 -16l15 -47l4 -30l6 -19l1 -12l18 -62l10 -49l-5 -16l-13 -6h-18l-19 10l-13 13l-5 32l-4 16l-6 14l-6 35l-5 16
l-3 17l-8 29l-12 18l-16 8h-46l-24 3h-21l-15 -2h-34l-18 -8l-10 -18l-32 -146l-6 -13l-12 -15l-16 -11h-20zM224 263l18 2h31l13 5l3 16l-8 33l-2 17l-4 16l-2 12l-6 14l-2 18l-4 15l-7 14l-4 32l-7 27l-3 23l-10 44l-4 33l-9 32l-3 3l-7 -32l-10 -69l-5 -11l-10 -51
l-1 -15l-5 -16l-4 -14l-9 -29l-1 -19l-4 -15l-10 -28l-1 -19l-3 -13l2 -18l14 -6h17l15 1z" />
    <glyph glyph-name="Adieresis" unicode="&#xc4;" horiz-adv-x="434" 
d="M273 759l-23 4l-8 10l-5 20l4 20l11 10l20 7l22 -4l9 -12l4 -21l-3 -24l-13 -8zM155 761l-21 5l-11 6l-3 22l3 18l11 9l22 8l19 -2l10 -13l4 -19l-6 -22l-9 -8zM32 -2l-15 11l-4 16l18 76l6 14l2 16l5 14l20 97l14 45l3 15l15 66l2 14l10 30l2 14l21 80l1 14l7 16l5 32
l9 32l5 12l3 16l2 16l10 32l10 15l18 9l16 2l15 -3l16 -7l11 -14l6 -17l3 -18l13 -46l5 -31l18 -58l9 -49l6 -14l2 -18l17 -60l2 -16l16 -63l3 -18l5 -13l1 -16l15 -47l4 -30l6 -19l1 -12l18 -62l10 -49l-5 -16l-13 -6h-18l-19 10l-13 13l-5 32l-4 16l-6 14l-6 35l-5 16
l-3 17l-8 29l-12 18l-16 8h-46l-24 3h-21l-15 -2h-34l-18 -8l-10 -18l-32 -146l-6 -13l-12 -15l-16 -11h-20zM224 263l18 2h31l13 5l3 16l-8 33l-2 17l-4 16l-2 12l-6 14l-2 18l-4 15l-7 14l-4 32l-7 27l-3 23l-10 44l-4 33l-9 32l-3 3l-7 -32l-10 -69l-5 -11l-10 -51
l-1 -15l-5 -16l-4 -14l-9 -29l-1 -19l-4 -15l-10 -28l-1 -19l-3 -13l2 -18l14 -6h17l15 1z" />
    <glyph glyph-name="Aring" unicode="&#xc5;" horiz-adv-x="434" 
d="M216 729l-25 1l-16 8l-13 8l-11 16l-6 15l-4 23l5 26l5 15l13 11l11 11l13 9h27l25 -1l15 -7l11 -9l13 -15l6 -15l2 -26v-21l-18 -32l-14 -9l-15 -5zM215 769l24 7l5 25l-5 23l-25 9l-22 -10l-7 -24l6 -23zM32 -2l-15 11l-4 16l18 76l6 14l2 16l5 14l20 97l14 45l3 15
l15 66l2 14l10 30l2 14l21 80l1 14l7 16l5 32l9 32l5 12l3 16l2 16l10 32l10 15l18 9l16 2l15 -3l16 -7l11 -14l6 -17l3 -18l13 -46l5 -31l18 -58l9 -49l6 -14l2 -18l17 -60l2 -16l16 -63l3 -18l5 -13l1 -16l15 -47l4 -30l6 -19l1 -12l18 -62l10 -49l-5 -16l-13 -6h-18
l-19 10l-13 13l-5 32l-4 16l-6 14l-6 35l-5 16l-3 17l-8 29l-12 18l-16 8h-46l-24 3h-21l-15 -2h-34l-18 -8l-10 -18l-32 -146l-6 -13l-12 -15l-16 -11h-20zM224 263l18 2h31l13 5l3 16l-8 33l-2 17l-4 16l-2 12l-6 14l-2 18l-4 15l-7 14l-4 32l-7 27l-3 23l-10 44l-4 33
l-9 32l-3 3l-7 -32l-10 -69l-5 -11l-10 -51l-1 -15l-5 -16l-4 -14l-9 -29l-1 -19l-4 -15l-10 -28l-1 -19l-3 -13l2 -18l14 -6h17l15 1z" />
    <glyph glyph-name="AE" unicode="&#xc6;" horiz-adv-x="616" 
d="M444 -3l-19 5l-16 -4l-33 3h-23l-25 -2l-17 8l-9 25l2 15l-2 93l2 14l-3 18l-6 19l-16 8l-14 -1l-17 1l-15 -2l-17 -1l-13 -1l-17 1l-16 4l-17 -12l-15 -11l-4 -18l-14 -28l-4 -20l-22 -57l-5 -19l-7 -16l-12 -13l-21 -6l-18 -2l-14 8l-4 14l9 14l4 16l7 16l2 15l8 13
l7 17l4 13l10 21l8 25l5 18l13 26l5 16l4 15l28 72l4 16l10 23l13 38l12 27l5 18l50 131l7 15l10 30l6 14l11 34l7 15l15 14l24 8l26 -3l15 2l17 -2l18 3h31l17 -4l64 5l52 -3l14 -5l9 -18l-1 -12l-8 -14l-14 -6l-16 2l-18 -3l-65 2l-16 -2h-15l-18 -2l-17 -7l-8 -17l2 -15
l-1 -138l2 -17l-3 -38l10 -14l16 -11l13 3h62l14 -2h15l16 -2l15 3l16 -13l10 -15l-10 -18l-15 -8l-22 -4l-41 3l-30 -2l-46 -1l-15 -7l-7 -15l1 -17l-3 -46l1 -128l2 -21l-1 -13l6 -14l18 -10l15 -1l32 1l35 -3l49 2l17 -1l15 -7l8 -14l2 -15l-10 -11l-16 -7l-34 -1h-16
l-16 -2h-30zM194 253l35 3l14 -3l18 2l16 -2l18 7l8 16l-1 23l2 39l-2 16v131l1 14l1 13l-2 42l1 15l-2 24l2 15l-3 9l-9 -23l-6 -13l-11 -32l-3 -17l-4 -12l-7 -16l-8 -21l-6 -26l-7 -15l-5 -16l-7 -15l-5 -15l-7 -14l-3 -14l-23 -62l-8 -15l-5 -17l4 -16z" />
    <glyph glyph-name="Ccedilla" unicode="&#xc7;" horiz-adv-x="404" 
d="M236 -222l-15 1l-14 4l-16 9l-12 18l10 19h17l17 -4l16 -3l15 3l14 7l10 12l3 20l-5 26l-12 11l-14 4l-18 2l-19 6l-9 18l5 19l5 18l8 22l-11 -1l-24 4l-23 7l-12 5l-15 8l-10 7l-12 11l-11 13l-8 12l-9 11l-8 15l-7 16l-4 14l-2 17l-4 16l-4 12l-4 18l-3 18l-3 16l2 17
l-2 14l-1 17l-2 16l2 20l-3 14l1 16l-2 26l2 26l-2 14l3 26l-1 21l2 16l2 14l2 20v16l3 13l3 18l3 16l6 13l3 16l6 17l3 12l7 17l9 13l10 14l9 10l12 12l13 12l13 7l14 5l16 8l16 1l15 2l23 1l25 -1l17 -2l17 -4l14 -5l16 -7l16 -4l14 -10l9 -17l-3 -17l-9 -13l-17 -2l-15 3
l-13 9l-17 4l-15 6l-39 5l-26 -5l-13 -1l-12 -6l-11 -7l-12 -11l-10 -10l-5 -16l-15 -27l-3 -14l-6 -36l-2 -14l-3 -18l-3 -16v-16l-1 -14v-39l-1 -13v-19l-2 -24v-24l2 -16l-1 -14l2 -14l1 -18l-2 -16l3 -14l2 -17l1 -16l1 -15l2 -16l3 -16l6 -15l3 -18l5 -12l8 -18l8 -12
l12 -10l14 -10l13 -7l14 -5l26 1l21 3l25 2l21 5l14 4l14 6l13 10h18l15 -12l1 -21l-12 -20l-12 -6l-15 -7l-14 -5l-25 -10l-22 -3l-14 -1l-6 -23l3 -18l15 -9l15 -5l15 -10l21 -23l7 -16l-1 -27v-25l-10 -13l-8 -11l-12 -14l-15 -7l-15 -4l-15 -6z" />
    <glyph glyph-name="Egrave" unicode="&#xc8;" horiz-adv-x="403" 
d="M217 747l-24 10l-18 13l-9 10l-6 14l-12 11l-9 18l-1 11l11 7l19 2l19 -8l14 -15l14 -24l5 -14l10 -13l-1 -15zM329 -4l-16 4h-31l-16 1l-16 -3l-15 2l-32 -2l-16 3l-14 -2l-15 2l-32 -4l-31 1l-16 8l-9 16l2 114l-3 49l1 17l2 14l-2 18l2 13l1 16l-3 18l-1 18l1 28l1 16
l-1 18l3 18l-2 17l2 45l-1 20v14l-1 31l1 18l-2 23l3 40l-3 13v16l1 12l-1 18l-1 17l-2 13l7 18l15 7l17 -4l14 4l16 -4l48 4l81 -3l48 1l16 -1l14 -8l10 -11l1 -15l-10 -14l-26 -9l-23 2l-16 2l-18 -1l-15 -2l-17 4l-34 -1l-32 -4l-17 -9l-9 -23l-1 -57l2 -33l-2 -14l2 -48
l-2 -17l2 -14l-1 -16l7 -20l17 -6l14 -1l16 2l25 -1l30 1l25 -2l29 -1l16 2l17 -8l7 -17l-8 -20l-15 -9l-30 -3l-15 4l-34 -1l-14 2l-17 -2l-31 -1l-17 2l-15 -11l-8 -14l2 -15l-1 -18l2 -18v-17l-2 -13l2 -18l-3 -102l1 -18l8 -23l18 -8l32 1l17 -3l17 2h34l17 -3l15 2
l16 -1l16 1l17 -6l9 -15l-1 -15l-7 -15z" />
    <glyph glyph-name="Eacute" unicode="&#xc9;" horiz-adv-x="403" 
d="M196 749l-13 7v13l13 26l8 13l6 13l17 12l18 9h17l8 -10v-12l-9 -13l-10 -14l-8 -10l-9 -13l-17 -16zM329 -4l-16 4h-31l-16 1l-16 -3l-15 2l-32 -2l-16 3l-14 -2l-15 2l-32 -4l-31 1l-16 8l-9 16l2 114l-3 49l1 17l2 14l-2 18l2 13l1 16l-3 18l-1 18l1 28l1 16l-1 18
l3 18l-2 17l2 45l-1 20v14l-1 31l1 18l-2 23l3 40l-3 13v16l1 12l-1 18l-1 17l-2 13l7 18l15 7l17 -4l14 4l16 -4l48 4l81 -3l48 1l16 -1l14 -8l10 -11l1 -15l-10 -14l-26 -9l-23 2l-16 2l-18 -1l-15 -2l-17 4l-34 -1l-32 -4l-17 -9l-9 -23l-1 -57l2 -33l-2 -14l2 -48
l-2 -17l2 -14l-1 -16l7 -20l17 -6l14 -1l16 2l25 -1l30 1l25 -2l29 -1l16 2l17 -8l7 -17l-8 -20l-15 -9l-30 -3l-15 4l-34 -1l-14 2l-17 -2l-31 -1l-17 2l-15 -11l-8 -14l2 -15l-1 -18l2 -18v-17l-2 -13l2 -18l-3 -102l1 -18l8 -23l18 -8l32 1l17 -3l17 2h34l17 -3l15 2
l16 -1l16 1l17 -6l9 -15l-1 -15l-7 -15z" />
    <glyph glyph-name="Ecircumflex" unicode="&#xca;" horiz-adv-x="403" 
d="M288 748l-20 6l-17 14l-10 13l-12 11l-14 7l-17 -7l-7 -14l-12 -12l-18 -12l-19 -4l-15 -2l-11 3v15l12 14l8 9l10 12l11 8l9 15l20 10l20 6l17 1l21 -6l18 -11l10 -14l14 -16l16 -16l9 -12l4 -14l-12 -3zM329 -4l-16 4h-31l-16 1l-16 -3l-15 2l-32 -2l-16 3l-14 -2
l-15 2l-32 -4l-31 1l-16 8l-9 16l2 114l-3 49l1 17l2 14l-2 18l2 13l1 16l-3 18l-1 18l1 28l1 16l-1 18l3 18l-2 17l2 45l-1 20v14l-1 31l1 18l-2 23l3 40l-3 13v16l1 12l-1 18l-1 17l-2 13l7 18l15 7l17 -4l14 4l16 -4l48 4l81 -3l48 1l16 -1l14 -8l10 -11l1 -15l-10 -14
l-26 -9l-23 2l-16 2l-18 -1l-15 -2l-17 4l-34 -1l-32 -4l-17 -9l-9 -23l-1 -57l2 -33l-2 -14l2 -48l-2 -17l2 -14l-1 -16l7 -20l17 -6l14 -1l16 2l25 -1l30 1l25 -2l29 -1l16 2l17 -8l7 -17l-8 -20l-15 -9l-30 -3l-15 4l-34 -1l-14 2l-17 -2l-31 -1l-17 2l-15 -11l-8 -14
l2 -15l-1 -18l2 -18v-17l-2 -13l2 -18l-3 -102l1 -18l8 -23l18 -8l32 1l17 -3l17 2h34l17 -3l15 2l16 -1l16 1l17 -6l9 -15l-1 -15l-7 -15z" />
    <glyph glyph-name="Edieresis" unicode="&#xcb;" horiz-adv-x="403" 
d="M272 759l-23 4l-8 10l-5 20l4 20l11 10l20 7l22 -4l9 -12l4 -21l-3 -24l-13 -8zM154 761l-21 5l-11 6l-3 22l3 18l11 9l22 8l19 -2l10 -13l4 -19l-6 -22l-9 -8zM329 -4l-16 4h-31l-16 1l-16 -3l-15 2l-32 -2l-16 3l-14 -2l-15 2l-32 -4l-31 1l-16 8l-9 16l2 114l-3 49
l1 17l2 14l-2 18l2 13l1 16l-3 18l-1 18l1 28l1 16l-1 18l3 18l-2 17l2 45l-1 20v14l-1 31l1 18l-2 23l3 40l-3 13v16l1 12l-1 18l-1 17l-2 13l7 18l15 7l17 -4l14 4l16 -4l48 4l81 -3l48 1l16 -1l14 -8l10 -11l1 -15l-10 -14l-26 -9l-23 2l-16 2l-18 -1l-15 -2l-17 4
l-34 -1l-32 -4l-17 -9l-9 -23l-1 -57l2 -33l-2 -14l2 -48l-2 -17l2 -14l-1 -16l7 -20l17 -6l14 -1l16 2l25 -1l30 1l25 -2l29 -1l16 2l17 -8l7 -17l-8 -20l-15 -9l-30 -3l-15 4l-34 -1l-14 2l-17 -2l-31 -1l-17 2l-15 -11l-8 -14l2 -15l-1 -18l2 -18v-17l-2 -13l2 -18
l-3 -102l1 -18l8 -23l18 -8l32 1l17 -3l17 2h34l17 -3l15 2l16 -1l16 1l17 -6l9 -15l-1 -15l-7 -15z" />
    <glyph glyph-name="Igrave" unicode="&#xcc;" horiz-adv-x="210" 
d="M104 747l-24 10l-18 13l-9 10l-6 14l-12 11l-9 18l-1 11l11 7l19 2l19 -8l14 -15l14 -24l5 -14l10 -13l-1 -15zM118 -1l-15 1l-18 5l-11 15l-3 28l-1 16l2 15l-1 14l2 19l-2 13l1 25l-2 23l3 16l-3 112l2 15l-2 33l2 15l-1 17l1 70l-1 26l2 13l-1 77l-2 18v14l3 17l-1 15
l-2 14v18l-2 13l6 16l16 9l15 -2l18 -7l11 -13v-14l3 -47l-1 -17l2 -17v-36l-3 -33l3 -100l-2 -17l3 -161l-4 -32l1 -14l3 -18l-3 -23l1 -21l-1 -17l4 -61l-1 -16l2 -13l-7 -17z" />
    <glyph glyph-name="Iacute" unicode="&#xcd;" horiz-adv-x="210" 
d="M83 749l-13 7v13l13 26l8 13l6 13l17 12l18 9h17l8 -10v-12l-9 -13l-10 -14l-8 -10l-9 -13l-17 -16zM118 -1l-15 1l-18 5l-11 15l-3 28l-1 16l2 15l-1 14l2 19l-2 13l1 25l-2 23l3 16l-3 112l2 15l-2 33l2 15l-1 17l1 70l-1 26l2 13l-1 77l-2 18v14l3 17l-1 15l-2 14v18
l-2 13l6 16l16 9l15 -2l18 -7l11 -13v-14l3 -47l-1 -17l2 -17v-36l-3 -33l3 -100l-2 -17l3 -161l-4 -32l1 -14l3 -18l-3 -23l1 -21l-1 -17l4 -61l-1 -16l2 -13l-7 -17z" />
    <glyph glyph-name="Icircumflex" unicode="&#xce;" horiz-adv-x="210" 
d="M175 748l-20 6l-17 14l-10 13l-12 11l-14 7l-17 -7l-7 -14l-12 -12l-18 -12l-19 -4l-15 -2l-11 3v15l12 14l8 9l10 12l11 8l9 15l20 10l20 6l17 1l21 -6l18 -11l10 -14l14 -16l16 -16l9 -12l4 -14l-12 -3zM118 -1l-15 1l-18 5l-11 15l-3 28l-1 16l2 15l-1 14l2 19l-2 13
l1 25l-2 23l3 16l-3 112l2 15l-2 33l2 15l-1 17l1 70l-1 26l2 13l-1 77l-2 18v14l3 17l-1 15l-2 14v18l-2 13l6 16l16 9l15 -2l18 -7l11 -13v-14l3 -47l-1 -17l2 -17v-36l-3 -33l3 -100l-2 -17l3 -161l-4 -32l1 -14l3 -18l-3 -23l1 -21l-1 -17l4 -61l-1 -16l2 -13l-7 -17z
" />
    <glyph glyph-name="Idieresis" unicode="&#xcf;" horiz-adv-x="210" 
d="M159 759l-23 4l-8 10l-5 20l4 20l11 10l20 7l22 -4l9 -12l4 -21l-3 -24l-13 -8zM41 761l-21 5l-11 6l-3 22l3 18l11 9l22 8l19 -2l10 -13l4 -19l-6 -22l-9 -8zM118 -1l-15 1l-18 5l-11 15l-3 28l-1 16l2 15l-1 14l2 19l-2 13l1 25l-2 23l3 16l-3 112l2 15l-2 33l2 15
l-1 17l1 70l-1 26l2 13l-1 77l-2 18v14l3 17l-1 15l-2 14v18l-2 13l6 16l16 9l15 -2l18 -7l11 -13v-14l3 -47l-1 -17l2 -17v-36l-3 -33l3 -100l-2 -17l3 -161l-4 -32l1 -14l3 -18l-3 -23l1 -21l-1 -17l4 -61l-1 -16l2 -13l-7 -17z" />
    <glyph glyph-name="Eth" unicode="&#xd0;" horiz-adv-x="476" 
d="M109 -3l-16 8l-8 20l-1 15l2 16l-2 16l3 49l-4 33l3 16l-2 66l3 40l-1 24l-8 18l-32 17l-6 14l7 12l15 7l15 9l8 14l1 69l-2 45l3 15l-3 46l1 36l-2 59l1 16l10 13l22 12l26 -4l16 2l32 -2l46 1l35 -3l30 -9l13 -1l16 -10l12 -6l23 -22l18 -23l11 -11l19 -59l2 -16l4 -16
l1 -15l4 -17l1 -18l3 -15l4 -84l-3 -83l-2 -12v-34l-3 -16l-5 -51l-3 -16l-8 -28l-6 -15l-5 -15l-8 -15l-7 -16l-19 -26l-12 -11l-14 -9l-13 -6l-16 -5l-13 -8l-16 -5l-95 -3l-13 -3l-38 2zM186 54l62 2l42 17l23 19l11 13l15 25l5 14l7 16l1 17l5 15l2 16l2 166l2 14v32
l-2 15v17l-3 18l1 16l-3 13l-2 16l-3 15l-7 16l-4 18l-8 11l-5 14l-12 13l-9 15l-11 10l-14 5l-14 3l-15 5l-16 1l-23 4h-40l-16 -9l-8 -18l4 -31l-3 -14l3 -32l-2 -16l1 -99l-2 -16l2 -17l5 -14l18 -12l17 4l16 -2l14 1l16 -7l9 -14l-7 -14l-17 -9h-31l-15 2l-16 -9
l-10 -15l-1 -18l2 -16l-1 -16l1 -63l-2 -17l2 -14l-3 -80l8 -16l14 -8z" />
    <glyph glyph-name="Ntilde" unicode="&#xd1;" horiz-adv-x="488" 
d="M293 762l-22 1l-15 9l-14 6l-14 4l-23 3l-22 -5l-18 -6l-13 14l4 20l10 8l15 11l21 1l24 -4l13 -1l13 -10l15 -5l22 -3l24 2l19 7l13 -13l-5 -17l-10 -10l-16 -7zM352 -1l-18 9l-14 15l-6 14l-20 61l-4 17l-7 15l-3 14l-17 48l-3 12l-22 59l-8 35l-7 16l-4 16l-7 11
l-9 33l-7 15l-2 16l-7 14l-38 123l-2 14l-13 46l-6 13l-4 1l1 -15l-1 -17l2 -17l-1 -16l2 -16l-1 -13l2 -17l-1 -25l2 -88l-3 -15l3 -64l-1 -17l2 -18l-1 -14l-2 -15l1 -35l2 -24l-3 -22l2 -19l-1 -13v-16l2 -18l-3 -18l2 -63l-9 -15l-24 -6l-23 8l-8 13l-1 80l2 15l-2 19
l1 65l-2 40l1 14v24l2 16l-3 38l1 41l-1 18l1 13l-1 19l2 15l-3 15l3 31v18l-2 13l1 51l-1 16l2 75l-1 18l8 17l23 8l25 -1l17 2l16 -9l15 -16l6 -14l4 -14l2 -17l13 -28l55 -169l2 -14l5 -14l8 -16l15 -44l8 -31l33 -96l5 -24l5 -16l8 -18l4 -16l2 -16l9 -34l6 -15l4 1
l1 50l-5 29l2 17v18l-3 23l3 23l-2 23l2 40l-2 13l1 206l-3 25l2 23l-2 13l2 15l-1 17l1 15l-3 48l7 15l13 5l17 -1l15 -5l10 -14l3 -14l2 -28l-2 -16l2 -18l-2 -16l4 -81l-2 -12l2 -37l-1 -16l-2 -14l2 -83l-2 -14l2 -17l-1 -67l1 -16l-2 -14l2 -15v-16l-2 -17l2 -65
l-2 -13v-18l2 -18l-2 -14v-14l-7 -20l-15 -6h-15l-18 1z" />
    <glyph glyph-name="Ograve" unicode="&#xd2;" horiz-adv-x="462" 
d="M231 747l-24 10l-18 13l-9 10l-6 14l-12 11l-9 18l-1 11l11 7l19 2l19 -8l14 -15l14 -24l5 -14l10 -13l-1 -15zM206 -11l-15 1l-16 5l-15 3l-12 6l-24 18l-20 20l-9 13l-7 12l-11 30l-8 13l-9 31l-15 116l2 19l-3 17v14l2 14v100l2 13l-1 17l1 17v15l4 16l6 49l14 48
l7 11l5 17l9 10l6 17l11 13l13 8l11 9l14 9l13 7l15 6l14 3l15 2l24 2l23 -2l18 -3l13 -4l13 -3l14 -7l26 -15l10 -9l21 -24l14 -28l9 -28l6 -15l4 -17l16 -116v-16l-2 -16l3 -97l-3 -31v-33l-4 -16l-3 -49l-5 -30l-8 -33l-18 -46l-16 -25l-11 -15l-12 -11l-25 -17l-12 -6
l-15 -1l-15 -5l-17 -2h-24zM252 45l13 5l15 4l10 10l11 9l17 23l10 30l7 15l2 16l2 20l5 32l4 46l-1 18l2 14l-1 87l2 13l-3 32l1 18l-4 61l-6 31l-1 18l-7 13l-5 14l-4 18l-7 15l-9 13l-23 21l-14 5l-17 5l-21 -1l-23 2l-14 -5l-13 -4l-10 -8l-20 -23l-13 -24l-13 -51
l-8 -47l-2 -35l-1 -15l-2 -48l2 -44l-2 -24v-15l2 -16l1 -65l3 -12l1 -31l12 -52l9 -28l6 -15l22 -23l13 -7l12 -9l15 -5z" />
    <glyph glyph-name="Oacute" unicode="&#xd3;" horiz-adv-x="462" 
d="M210 749l-13 7v13l13 26l8 13l6 13l17 12l18 9h17l8 -10v-12l-9 -13l-10 -14l-8 -10l-9 -13l-17 -16zM206 -11l-15 1l-16 5l-15 3l-12 6l-24 18l-20 20l-9 13l-7 12l-11 30l-8 13l-9 31l-15 116l2 19l-3 17v14l2 14v100l2 13l-1 17l1 17v15l4 16l6 49l14 48l7 11l5 17
l9 10l6 17l11 13l13 8l11 9l14 9l13 7l15 6l14 3l15 2l24 2l23 -2l18 -3l13 -4l13 -3l14 -7l26 -15l10 -9l21 -24l14 -28l9 -28l6 -15l4 -17l16 -116v-16l-2 -16l3 -97l-3 -31v-33l-4 -16l-3 -49l-5 -30l-8 -33l-18 -46l-16 -25l-11 -15l-12 -11l-25 -17l-12 -6l-15 -1
l-15 -5l-17 -2h-24zM252 45l13 5l15 4l10 10l11 9l17 23l10 30l7 15l2 16l2 20l5 32l4 46l-1 18l2 14l-1 87l2 13l-3 32l1 18l-4 61l-6 31l-1 18l-7 13l-5 14l-4 18l-7 15l-9 13l-23 21l-14 5l-17 5l-21 -1l-23 2l-14 -5l-13 -4l-10 -8l-20 -23l-13 -24l-13 -51l-8 -47
l-2 -35l-1 -15l-2 -48l2 -44l-2 -24v-15l2 -16l1 -65l3 -12l1 -31l12 -52l9 -28l6 -15l22 -23l13 -7l12 -9l15 -5z" />
    <glyph glyph-name="Ocircumflex" unicode="&#xd4;" horiz-adv-x="462" 
d="M302 748l-20 6l-17 14l-10 13l-12 11l-14 7l-17 -7l-7 -14l-12 -12l-18 -12l-19 -4l-15 -2l-11 3v15l12 14l8 9l10 12l11 8l9 15l20 10l20 6l17 1l21 -6l18 -11l10 -14l14 -16l16 -16l9 -12l4 -14l-12 -3zM206 -11l-15 1l-16 5l-15 3l-12 6l-24 18l-20 20l-9 13l-7 12
l-11 30l-8 13l-9 31l-15 116l2 19l-3 17v14l2 14v100l2 13l-1 17l1 17v15l4 16l6 49l14 48l7 11l5 17l9 10l6 17l11 13l13 8l11 9l14 9l13 7l15 6l14 3l15 2l24 2l23 -2l18 -3l13 -4l13 -3l14 -7l26 -15l10 -9l21 -24l14 -28l9 -28l6 -15l4 -17l16 -116v-16l-2 -16l3 -97
l-3 -31v-33l-4 -16l-3 -49l-5 -30l-8 -33l-18 -46l-16 -25l-11 -15l-12 -11l-25 -17l-12 -6l-15 -1l-15 -5l-17 -2h-24zM252 45l13 5l15 4l10 10l11 9l17 23l10 30l7 15l2 16l2 20l5 32l4 46l-1 18l2 14l-1 87l2 13l-3 32l1 18l-4 61l-6 31l-1 18l-7 13l-5 14l-4 18l-7 15
l-9 13l-23 21l-14 5l-17 5l-21 -1l-23 2l-14 -5l-13 -4l-10 -8l-20 -23l-13 -24l-13 -51l-8 -47l-2 -35l-1 -15l-2 -48l2 -44l-2 -24v-15l2 -16l1 -65l3 -12l1 -31l12 -52l9 -28l6 -15l22 -23l13 -7l12 -9l15 -5z" />
    <glyph glyph-name="Otilde" unicode="&#xd5;" horiz-adv-x="462" 
d="M269 762l-22 1l-15 9l-14 6l-14 4l-23 3l-22 -5l-18 -6l-13 14l4 20l10 8l15 11l21 1l24 -4l13 -1l13 -10l15 -5l22 -3l24 2l19 7l13 -13l-5 -17l-10 -10l-16 -7zM206 -11l-15 1l-16 5l-15 3l-12 6l-24 18l-20 20l-9 13l-7 12l-11 30l-8 13l-9 31l-15 116l2 19l-3 17v14
l2 14v100l2 13l-1 17l1 17v15l4 16l6 49l14 48l7 11l5 17l9 10l6 17l11 13l13 8l11 9l14 9l13 7l15 6l14 3l15 2l24 2l23 -2l18 -3l13 -4l13 -3l14 -7l26 -15l10 -9l21 -24l14 -28l9 -28l6 -15l4 -17l16 -116v-16l-2 -16l3 -97l-3 -31v-33l-4 -16l-3 -49l-5 -30l-8 -33
l-18 -46l-16 -25l-11 -15l-12 -11l-25 -17l-12 -6l-15 -1l-15 -5l-17 -2h-24zM252 45l13 5l15 4l10 10l11 9l17 23l10 30l7 15l2 16l2 20l5 32l4 46l-1 18l2 14l-1 87l2 13l-3 32l1 18l-4 61l-6 31l-1 18l-7 13l-5 14l-4 18l-7 15l-9 13l-23 21l-14 5l-17 5l-21 -1l-23 2
l-14 -5l-13 -4l-10 -8l-20 -23l-13 -24l-13 -51l-8 -47l-2 -35l-1 -15l-2 -48l2 -44l-2 -24v-15l2 -16l1 -65l3 -12l1 -31l12 -52l9 -28l6 -15l22 -23l13 -7l12 -9l15 -5z" />
    <glyph glyph-name="Odieresis" unicode="&#xd6;" horiz-adv-x="462" 
d="M286 759l-23 4l-8 10l-5 20l4 20l11 10l20 7l22 -4l9 -12l4 -21l-3 -24l-13 -8zM168 761l-21 5l-11 6l-3 22l3 18l11 9l22 8l19 -2l10 -13l4 -19l-6 -22l-9 -8zM206 -11l-15 1l-16 5l-15 3l-12 6l-24 18l-20 20l-9 13l-7 12l-11 30l-8 13l-9 31l-15 116l2 19l-3 17v14
l2 14v100l2 13l-1 17l1 17v15l4 16l6 49l14 48l7 11l5 17l9 10l6 17l11 13l13 8l11 9l14 9l13 7l15 6l14 3l15 2l24 2l23 -2l18 -3l13 -4l13 -3l14 -7l26 -15l10 -9l21 -24l14 -28l9 -28l6 -15l4 -17l16 -116v-16l-2 -16l3 -97l-3 -31v-33l-4 -16l-3 -49l-5 -30l-8 -33
l-18 -46l-16 -25l-11 -15l-12 -11l-25 -17l-12 -6l-15 -1l-15 -5l-17 -2h-24zM252 45l13 5l15 4l10 10l11 9l17 23l10 30l7 15l2 16l2 20l5 32l4 46l-1 18l2 14l-1 87l2 13l-3 32l1 18l-4 61l-6 31l-1 18l-7 13l-5 14l-4 18l-7 15l-9 13l-23 21l-14 5l-17 5l-21 -1l-23 2
l-14 -5l-13 -4l-10 -8l-20 -23l-13 -24l-13 -51l-8 -47l-2 -35l-1 -15l-2 -48l2 -44l-2 -24v-15l2 -16l1 -65l3 -12l1 -31l12 -52l9 -28l6 -15l22 -23l13 -7l12 -9l15 -5z" />
    <glyph glyph-name="multiply" unicode="&#xd7;" horiz-adv-x="319" 
d="M245 230l-15 7l-11 10l-14 12l-8 10l-11 9l-13 13l-14 5l-19 -7l-9 -12l-13 -10l-9 -8l-9 -13l-11 -11l-17 -2l-20 4l-6 19l6 19l9 8l11 11l11 10l11 12l10 9l7 21l-5 15l-12 7l-16 19l-17 14l-13 12l-4 18l9 19l17 5l18 -3l10 -14l13 -7l9 -14l11 -11l12 -8l15 -9l15 7
l11 12l13 12l27 27l23 11l19 -7l6 -17l-4 -21l-14 -10l-9 -11l-10 -10l-12 -11l-11 -9l-7 -17l6 -16l11 -12l10 -12l10 -10l12 -9l12 -13l4 -19l-5 -17z" />
    <glyph glyph-name="Oslash" unicode="&#xd8;" horiz-adv-x="503" 
d="M257 -12l-40 2l-15 4l-15 3l-15 11l-13 5l-12 9l-10 13l-10 10l-13 10l-13 -9l-5 -15l-9 -13l-16 -11l-16 11v18l7 14l6 14l8 14l8 16l6 17v21l-5 14l-1 18l-6 31l-2 32l-4 15l1 16l-2 18l1 16v14l-4 16l11 194l5 18l1 12l5 17l3 15l4 15l30 58l11 10l9 14l18 12l39 17
l13 -1l39 7l38 -3l16 -8l14 -3l14 -5l25 -16l10 -9l16 -5l38 36l17 -7l1 -18l-9 -15l-6 -18l-7 -11l-5 -23v-22l6 -12l1 -20l9 -45v-18l3 -14l2 -18l-1 -14l3 -19v-16l-1 -18l3 -39l-3 -42l2 -32l-4 -29v-18l-3 -18v-11l-15 -81l-6 -15l-6 -14l-5 -16l-8 -14l-19 -25
l-12 -13l-11 -9l-15 -8l-20 -9l-22 -4zM145 215l9 4l31 57l9 13l7 15l32 58l9 13l6 12l6 18l10 11l54 101l5 14l16 28l6 21l-2 23l-10 15l-10 9l-42 26l-23 -2h-24l-14 -3l-12 -8l-11 -4l-13 -11l-10 -14l-7 -12l-14 -44l-2 -16l-8 -47l-2 -18l-3 -17l2 -14l-5 -55l2 -17
v-65l2 -15l-2 -17l1 -19l3 -17l1 -14zM235 47h42l28 7l14 11l10 7l17 24l4 13l6 14l3 18l5 17v15l4 19v15l4 14v37l3 14v17l1 18l-3 63l2 17v18l-2 15l1 35l-3 16l-1 15l-4 17l-4 7l-8 -7l-9 -12l-9 -15l-10 -23l-13 -23l-5 -13l-71 -127l-7 -18l-11 -13l-13 -28l-9 -13
l-32 -59l-6 -20l2 -21l5 -18l7 -14l34 -27l12 -8z" />
    <glyph glyph-name="Ugrave" unicode="&#xd9;" horiz-adv-x="457" 
d="M234 747l-24 10l-18 13l-9 10l-6 14l-12 11l-9 18l-1 11l11 7l19 2l19 -8l14 -15l14 -24l5 -14l10 -13l-1 -15zM209 -11l-19 3l-16 1l-28 10l-15 8l-10 10l-11 13l-10 11l-7 15l-8 15l-7 31l-5 12l-1 18l-3 14l-1 34v16l-2 23v24l1 15l-1 81l2 18l-1 34l1 15l-3 50l3 62
l-3 46l2 20l-2 43l1 16l-2 16v12l6 17l14 7l17 -1l17 -7l11 -13l2 -13l1 -13l-1 -18l2 -32l-1 -129l2 -15v-96l-2 -16l2 -14v-19l-3 -30l3 -15l1 -16l-3 -49l1 -34l3 -14l1 -15l8 -34l11 -29l9 -13l13 -10l15 -2l15 -4l23 -2l23 -1l17 3l26 14l11 14l5 11l10 32l2 18l4 16
v17l-1 16l2 14l-1 95l2 17l-1 16l2 66l-2 14l1 46l-1 16l1 33l-2 29l3 19l-2 13l2 96l-3 17l11 13l17 8l16 3l15 -8l10 -19v-16l-2 -13l1 -33l1 -13l-2 -105l1 -24l-1 -14l2 -51l-3 -15l2 -17l-1 -17l1 -29l-2 -31l1 -16l-1 -16l1 -19l2 -21l-3 -24v-16l-2 -16v-17l-8 -46
l-15 -47l-8 -13l-8 -12l-13 -11l-11 -10l-15 -7l-28 -10l-31 -5z" />
    <glyph glyph-name="Uacute" unicode="&#xda;" horiz-adv-x="457" 
d="M213 749l-13 7v13l13 26l8 13l6 13l17 12l18 9h17l8 -10v-12l-9 -13l-10 -14l-8 -10l-9 -13l-17 -16zM209 -11l-19 3l-16 1l-28 10l-15 8l-10 10l-11 13l-10 11l-7 15l-8 15l-7 31l-5 12l-1 18l-3 14l-1 34v16l-2 23v24l1 15l-1 81l2 18l-1 34l1 15l-3 50l3 62l-3 46
l2 20l-2 43l1 16l-2 16v12l6 17l14 7l17 -1l17 -7l11 -13l2 -13l1 -13l-1 -18l2 -32l-1 -129l2 -15v-96l-2 -16l2 -14v-19l-3 -30l3 -15l1 -16l-3 -49l1 -34l3 -14l1 -15l8 -34l11 -29l9 -13l13 -10l15 -2l15 -4l23 -2l23 -1l17 3l26 14l11 14l5 11l10 32l2 18l4 16v17
l-1 16l2 14l-1 95l2 17l-1 16l2 66l-2 14l1 46l-1 16l1 33l-2 29l3 19l-2 13l2 96l-3 17l11 13l17 8l16 3l15 -8l10 -19v-16l-2 -13l1 -33l1 -13l-2 -105l1 -24l-1 -14l2 -51l-3 -15l2 -17l-1 -17l1 -29l-2 -31l1 -16l-1 -16l1 -19l2 -21l-3 -24v-16l-2 -16v-17l-8 -46
l-15 -47l-8 -13l-8 -12l-13 -11l-11 -10l-15 -7l-28 -10l-31 -5z" />
    <glyph glyph-name="Ucircumflex" unicode="&#xdb;" horiz-adv-x="457" 
d="M305 748l-20 6l-17 14l-10 13l-12 11l-14 7l-17 -7l-7 -14l-12 -12l-18 -12l-19 -4l-15 -2l-11 3v15l12 14l8 9l10 12l11 8l9 15l20 10l20 6l17 1l21 -6l18 -11l10 -14l14 -16l16 -16l9 -12l4 -14l-12 -3zM209 -11l-19 3l-16 1l-28 10l-15 8l-10 10l-11 13l-10 11l-7 15
l-8 15l-7 31l-5 12l-1 18l-3 14l-1 34v16l-2 23v24l1 15l-1 81l2 18l-1 34l1 15l-3 50l3 62l-3 46l2 20l-2 43l1 16l-2 16v12l6 17l14 7l17 -1l17 -7l11 -13l2 -13l1 -13l-1 -18l2 -32l-1 -129l2 -15v-96l-2 -16l2 -14v-19l-3 -30l3 -15l1 -16l-3 -49l1 -34l3 -14l1 -15
l8 -34l11 -29l9 -13l13 -10l15 -2l15 -4l23 -2l23 -1l17 3l26 14l11 14l5 11l10 32l2 18l4 16v17l-1 16l2 14l-1 95l2 17l-1 16l2 66l-2 14l1 46l-1 16l1 33l-2 29l3 19l-2 13l2 96l-3 17l11 13l17 8l16 3l15 -8l10 -19v-16l-2 -13l1 -33l1 -13l-2 -105l1 -24l-1 -14l2 -51
l-3 -15l2 -17l-1 -17l1 -29l-2 -31l1 -16l-1 -16l1 -19l2 -21l-3 -24v-16l-2 -16v-17l-8 -46l-15 -47l-8 -13l-8 -12l-13 -11l-11 -10l-15 -7l-28 -10l-31 -5z" />
    <glyph glyph-name="Udieresis" unicode="&#xdc;" horiz-adv-x="457" 
d="M289 759l-23 4l-8 10l-5 20l4 20l11 10l20 7l22 -4l9 -12l4 -21l-3 -24l-13 -8zM171 761l-21 5l-11 6l-3 22l3 18l11 9l22 8l19 -2l10 -13l4 -19l-6 -22l-9 -8zM209 -11l-19 3l-16 1l-28 10l-15 8l-10 10l-11 13l-10 11l-7 15l-8 15l-7 31l-5 12l-1 18l-3 14l-1 34v16
l-2 23v24l1 15l-1 81l2 18l-1 34l1 15l-3 50l3 62l-3 46l2 20l-2 43l1 16l-2 16v12l6 17l14 7l17 -1l17 -7l11 -13l2 -13l1 -13l-1 -18l2 -32l-1 -129l2 -15v-96l-2 -16l2 -14v-19l-3 -30l3 -15l1 -16l-3 -49l1 -34l3 -14l1 -15l8 -34l11 -29l9 -13l13 -10l15 -2l15 -4
l23 -2l23 -1l17 3l26 14l11 14l5 11l10 32l2 18l4 16v17l-1 16l2 14l-1 95l2 17l-1 16l2 66l-2 14l1 46l-1 16l1 33l-2 29l3 19l-2 13l2 96l-3 17l11 13l17 8l16 3l15 -8l10 -19v-16l-2 -13l1 -33l1 -13l-2 -105l1 -24l-1 -14l2 -51l-3 -15l2 -17l-1 -17l1 -29l-2 -31l1 -16
l-1 -16l1 -19l2 -21l-3 -24v-16l-2 -16v-17l-8 -46l-15 -47l-8 -13l-8 -12l-13 -11l-11 -10l-15 -7l-28 -10l-31 -5z" />
    <glyph glyph-name="Yacute" unicode="&#xdd;" horiz-adv-x="392" 
d="M175 749l-13 7v13l13 26l8 13l6 13l17 12l18 9h17l8 -10v-12l-9 -13l-10 -14l-8 -10l-9 -13l-17 -16zM205 -1l-16 3l-16 6l-8 14l-2 63l2 33l-1 17l2 23l-2 23l2 49l-3 70l-11 38l-6 15l-8 15l-8 19l-11 38l-6 16l-14 30l-4 14l-7 15l-9 32l-6 13l-5 13l-14 28l-15 47
l-13 28l-5 15l3 14l15 9l19 -2l20 -4l13 -17l11 -30l7 -12l4 -24l43 -108l11 -39l16 -42l4 -15l7 -15l5 -3l9 29l7 11l21 59l8 35l8 16l9 31l13 32l3 13l8 16l9 31l6 14l13 15l20 12h19l13 -11l3 -14l-26 -76l-7 -13l-4 -15l-24 -58l-13 -45l-8 -14l-6 -17l-3 -15l-11 -28
l-10 -32l-6 -12l-12 -32l-5 -23l-3 -119l2 -27l-1 -17v-15l-2 -34l3 -16v-15l-2 -18v-14l-8 -16z" />
    <glyph glyph-name="Thorn" unicode="&#xde;" horiz-adv-x="449" 
d="M97 -2l-26 8l-8 17l2 33l-2 22l2 264l-2 15l1 18l-2 55l3 21l-1 34l2 15l-2 16l-2 98l2 13v18l-1 18l2 12l6 16l16 9h17l19 -6l8 -20l-2 -15l1 -14v-31l7 -17l27 -7l24 -2l25 1l24 -2l17 2l47 -14l14 -6l15 -9l13 -10l22 -26l9 -13l7 -14l5 -14l7 -16l6 -49l3 -17l2 -47
l-5 -17l-2 -16l-1 -13l-4 -17l-12 -30l-16 -24l-33 -35l-15 -7l-12 -8l-14 -8l-16 -4l-16 -6l-15 -3h-14l-38 -5l-23 2h-17l-12 -10l-7 -21l-2 -27l1 -14l-2 -51l1 -15l-7 -17zM178 216l24 4l16 -2l18 3l45 19l11 9l19 25l15 28l4 17l2 18l5 14l-2 63l-12 50l-6 13l-8 14
l-9 11l-24 16l-15 7l-16 5l-37 6l-40 -3l-16 1l-14 -6l-9 -17l2 -18l-2 -23l1 -55l-1 -15l2 -17l-1 -12v-83l1 -14v-33l7 -13l17 -11z" />
    <glyph glyph-name="germandbls" unicode="&#xdf;" 
d="M240 -13l-15 3l-14 2l-15 4l-13 6l-15 4l-10 14l1 14l6 13l13 6h15l48 -9l14 -1l23 4l13 4l11 8l9 8l6 13l5 16l3 14l3 36l-5 34l-4 13l-4 12l-3 14l-6 13l-8 10l-5 12l-9 11l-16 25l-9 8l-9 13l-10 9l-11 9l-11 7l-11 16l-5 27l7 24l11 14l10 8l19 22l10 13l14 24l7 14
l6 13l11 42l1 21l-1 23l-7 27l-8 11l-12 9l-13 8l-35 1l-33 -5l-11 -6l-10 -10l-10 -7l-8 -13l-5 -12l-7 -11l-3 -13l-5 -13l-3 -15l-5 -28l-3 -59l-3 -27v-159l1 -16l-1 -12l1 -21l-1 -13v-57l1 -14v-14l-1 -21l1 -14v-16l-2 -20l1 -39l-7 -11l-11 -9l-19 2l-21 7l-4 14v40
l-1 14v11l1 16l-1 12l1 14l-2 21l2 20l-1 15v13l1 13v30l-2 22l1 12v21l1 11v85l-1 13v31l2 13v13l3 14l5 56l4 16l2 14l12 42l10 27l8 10l7 12l9 13l22 20l39 16l13 3l12 4l56 -1l15 -2l14 -4l24 -13l12 -9l8 -11l8 -10l8 -11l5 -12l11 -40l-2 -58l-13 -41l-6 -14l-5 -10
l-15 -25l-9 -10l-10 -11l-17 -23l-9 -11l-5 -15l4 -13l32 -29l18 -22l16 -23l9 -9l7 -12l14 -27l4 -12l5 -11l4 -14l6 -28l2 -34l-1 -36l-11 -42l-13 -26l-9 -12l-33 -24l-13 -5l-29 -10z" />
    <glyph glyph-name="agrave" unicode="&#xe0;" horiz-adv-x="396" 
d="M195 538l-24 10l-18 13l-9 10l-6 14l-12 11l-9 18l-1 11l11 7l19 2l19 -8l14 -15l14 -24l5 -14l10 -13l-1 -15zM182 -11l-41 2l-14 2l-13 5l-13 4l-11 7l-11 8l-10 8l-14 23l-7 15l-7 25l-1 14v43l2 14l2 13l4 15l5 11l5 15l9 12l7 11l9 11l10 8l12 12l12 7l39 18l15 3
l28 4l21 -1l19 2l13 -2l14 5l8 13l-3 29l-2 14l-2 13l-4 16l-5 11l-8 10l-11 8l-11 9l-13 3l-21 -1l-21 2l-22 -5l-19 -7l-26 -16l-14 -3l-13 8l-6 8l-2 16l8 15l10 8l13 6l12 7l26 11l12 1l15 4l14 1l41 -1l15 -5l20 -5l18 -9l10 -6l11 -9l17 -25l6 -13l6 -15l6 -28l4 -28
v-22l2 -20l-1 -28l-1 -12l1 -14l1 -43l-2 -29l2 -11l-2 -50l2 -34l-1 -15l1 -15l3 -26l-4 -16l-21 -7l-26 6l-10 12l-2 15l-6 5l-8 -4l-19 -17l-13 -9l-23 -9zM171 44l21 1l12 4l25 12l21 13l10 11l8 16l5 18v13l-1 14l1 70v11l-7 17l-13 4l-52 2l-14 -5l-25 -7l-23 -16
l-9 -10l-9 -12l-6 -10l-6 -13l-2 -13l-2 -36v-23l2 -12l10 -25l8 -9l12 -7l14 -6z" />
    <glyph glyph-name="aacute" unicode="&#xe1;" horiz-adv-x="396" 
d="M174 540l-13 7v13l13 26l8 13l6 13l17 12l18 9h17l8 -10v-12l-9 -13l-10 -14l-8 -10l-9 -13l-17 -16zM182 -11l-41 2l-14 2l-13 5l-13 4l-11 7l-11 8l-10 8l-14 23l-7 15l-7 25l-1 14v43l2 14l2 13l4 15l5 11l5 15l9 12l7 11l9 11l10 8l12 12l12 7l39 18l15 3l28 4l21 -1
l19 2l13 -2l14 5l8 13l-3 29l-2 14l-2 13l-4 16l-5 11l-8 10l-11 8l-11 9l-13 3l-21 -1l-21 2l-22 -5l-19 -7l-26 -16l-14 -3l-13 8l-6 8l-2 16l8 15l10 8l13 6l12 7l26 11l12 1l15 4l14 1l41 -1l15 -5l20 -5l18 -9l10 -6l11 -9l17 -25l6 -13l6 -15l6 -28l4 -28v-22l2 -20
l-1 -28l-1 -12l1 -14l1 -43l-2 -29l2 -11l-2 -50l2 -34l-1 -15l1 -15l3 -26l-4 -16l-21 -7l-26 6l-10 12l-2 15l-6 5l-8 -4l-19 -17l-13 -9l-23 -9zM171 44l21 1l12 4l25 12l21 13l10 11l8 16l5 18v13l-1 14l1 70v11l-7 17l-13 4l-52 2l-14 -5l-25 -7l-23 -16l-9 -10l-9 -12
l-6 -10l-6 -13l-2 -13l-2 -36v-23l2 -12l10 -25l8 -9l12 -7l14 -6z" />
    <glyph glyph-name="acircumflex" unicode="&#xe2;" horiz-adv-x="396" 
d="M266 539l-20 6l-17 14l-10 13l-12 11l-14 7l-17 -7l-7 -14l-12 -12l-18 -12l-19 -4l-15 -2l-11 3v15l12 14l8 9l10 12l11 8l9 15l20 10l20 6l17 1l21 -6l18 -11l10 -14l14 -16l16 -16l9 -12l4 -14l-12 -3zM182 -11l-41 2l-14 2l-13 5l-13 4l-11 7l-11 8l-10 8l-14 23
l-7 15l-7 25l-1 14v43l2 14l2 13l4 15l5 11l5 15l9 12l7 11l9 11l10 8l12 12l12 7l39 18l15 3l28 4l21 -1l19 2l13 -2l14 5l8 13l-3 29l-2 14l-2 13l-4 16l-5 11l-8 10l-11 8l-11 9l-13 3l-21 -1l-21 2l-22 -5l-19 -7l-26 -16l-14 -3l-13 8l-6 8l-2 16l8 15l10 8l13 6l12 7
l26 11l12 1l15 4l14 1l41 -1l15 -5l20 -5l18 -9l10 -6l11 -9l17 -25l6 -13l6 -15l6 -28l4 -28v-22l2 -20l-1 -28l-1 -12l1 -14l1 -43l-2 -29l2 -11l-2 -50l2 -34l-1 -15l1 -15l3 -26l-4 -16l-21 -7l-26 6l-10 12l-2 15l-6 5l-8 -4l-19 -17l-13 -9l-23 -9zM171 44l21 1l12 4
l25 12l21 13l10 11l8 16l5 18v13l-1 14l1 70v11l-7 17l-13 4l-52 2l-14 -5l-25 -7l-23 -16l-9 -10l-9 -12l-6 -10l-6 -13l-2 -13l-2 -36v-23l2 -12l10 -25l8 -9l12 -7l14 -6z" />
    <glyph glyph-name="atilde" unicode="&#xe3;" horiz-adv-x="396" 
d="M233 553l-22 1l-15 9l-14 6l-14 4l-23 3l-22 -5l-18 -6l-13 14l4 20l10 8l15 11l21 1l24 -4l13 -1l13 -10l15 -5l22 -3l24 2l19 7l13 -13l-5 -17l-10 -10l-16 -7zM182 -11l-41 2l-14 2l-13 5l-13 4l-11 7l-11 8l-10 8l-14 23l-7 15l-7 25l-1 14v43l2 14l2 13l4 15l5 11
l5 15l9 12l7 11l9 11l10 8l12 12l12 7l39 18l15 3l28 4l21 -1l19 2l13 -2l14 5l8 13l-3 29l-2 14l-2 13l-4 16l-5 11l-8 10l-11 8l-11 9l-13 3l-21 -1l-21 2l-22 -5l-19 -7l-26 -16l-14 -3l-13 8l-6 8l-2 16l8 15l10 8l13 6l12 7l26 11l12 1l15 4l14 1l41 -1l15 -5l20 -5
l18 -9l10 -6l11 -9l17 -25l6 -13l6 -15l6 -28l4 -28v-22l2 -20l-1 -28l-1 -12l1 -14l1 -43l-2 -29l2 -11l-2 -50l2 -34l-1 -15l1 -15l3 -26l-4 -16l-21 -7l-26 6l-10 12l-2 15l-6 5l-8 -4l-19 -17l-13 -9l-23 -9zM171 44l21 1l12 4l25 12l21 13l10 11l8 16l5 18v13l-1 14
l1 70v11l-7 17l-13 4l-52 2l-14 -5l-25 -7l-23 -16l-9 -10l-9 -12l-6 -10l-6 -13l-2 -13l-2 -36v-23l2 -12l10 -25l8 -9l12 -7l14 -6z" />
    <glyph glyph-name="adieresis" unicode="&#xe4;" horiz-adv-x="396" 
d="M250 550l-23 4l-8 10l-5 20l4 20l11 10l20 7l22 -4l9 -12l4 -21l-3 -24l-13 -8zM132 552l-21 5l-11 6l-3 22l3 18l11 9l22 8l19 -2l10 -13l4 -19l-6 -22l-9 -8zM182 -11l-41 2l-14 2l-13 5l-13 4l-11 7l-11 8l-10 8l-14 23l-7 15l-7 25l-1 14v43l2 14l2 13l4 15l5 11
l5 15l9 12l7 11l9 11l10 8l12 12l12 7l39 18l15 3l28 4l21 -1l19 2l13 -2l14 5l8 13l-3 29l-2 14l-2 13l-4 16l-5 11l-8 10l-11 8l-11 9l-13 3l-21 -1l-21 2l-22 -5l-19 -7l-26 -16l-14 -3l-13 8l-6 8l-2 16l8 15l10 8l13 6l12 7l26 11l12 1l15 4l14 1l41 -1l15 -5l20 -5
l18 -9l10 -6l11 -9l17 -25l6 -13l6 -15l6 -28l4 -28v-22l2 -20l-1 -28l-1 -12l1 -14l1 -43l-2 -29l2 -11l-2 -50l2 -34l-1 -15l1 -15l3 -26l-4 -16l-21 -7l-26 6l-10 12l-2 15l-6 5l-8 -4l-19 -17l-13 -9l-23 -9zM171 44l21 1l12 4l25 12l21 13l10 11l8 16l5 18v13l-1 14
l1 70v11l-7 17l-13 4l-52 2l-14 -5l-25 -7l-23 -16l-9 -10l-9 -12l-6 -10l-6 -13l-2 -13l-2 -36v-23l2 -12l10 -25l8 -9l12 -7l14 -6z" />
    <glyph glyph-name="aring" unicode="&#xe5;" horiz-adv-x="396" 
d="M193 520l-25 1l-16 8l-13 8l-11 16l-6 15l-4 23l5 26l5 15l13 11l11 11l13 9h27l25 -1l15 -7l11 -9l13 -15l6 -15l2 -26v-21l-18 -32l-14 -9l-15 -5zM192 560l24 7l5 25l-5 23l-25 9l-22 -10l-7 -24l6 -23zM182 -11l-41 2l-14 2l-13 5l-13 4l-11 7l-11 8l-10 8l-14 23
l-7 15l-7 25l-1 14v43l2 14l2 13l4 15l5 11l5 15l9 12l7 11l9 11l10 8l12 12l12 7l39 18l15 3l28 4l21 -1l19 2l13 -2l14 5l8 13l-3 29l-2 14l-2 13l-4 16l-5 11l-8 10l-11 8l-11 9l-13 3l-21 -1l-21 2l-22 -5l-19 -7l-26 -16l-14 -3l-13 8l-6 8l-2 16l8 15l10 8l13 6l12 7
l26 11l12 1l15 4l14 1l41 -1l15 -5l20 -5l18 -9l10 -6l11 -9l17 -25l6 -13l6 -15l6 -28l4 -28v-22l2 -20l-1 -28l-1 -12l1 -14l1 -43l-2 -29l2 -11l-2 -50l2 -34l-1 -15l1 -15l3 -26l-4 -16l-21 -7l-26 6l-10 12l-2 15l-6 5l-8 -4l-19 -17l-13 -9l-23 -9zM171 44l21 1l12 4
l25 12l21 13l10 11l8 16l5 18v13l-1 14l1 70v11l-7 17l-13 4l-52 2l-14 -5l-25 -7l-23 -16l-9 -10l-9 -12l-6 -10l-6 -13l-2 -13l-2 -36v-23l2 -12l10 -25l8 -9l12 -7l14 -6z" />
    <glyph glyph-name="ae" unicode="&#xe6;" horiz-adv-x="620" 
d="M141 -10l-13 2l-14 4l-25 11l-10 10l-9 12l-8 10l-8 11l-5 14l-5 12l-4 27l-2 21l3 35l4 12l3 16l10 27l9 10l8 13l14 16l16 14l11 7l26 13l15 3l13 5l14 4l37 2l22 -1l13 -2l15 4l7 14v16l-2 14l-1 15l-3 12l-4 15l-6 13l-9 8l-11 8l-11 7l-12 3l-21 3l-23 -1l-13 -1
l-27 -10l-23 -16l-16 -1l-11 5l-7 13l-2 16l8 15l10 4l11 8l12 7l12 2l14 5l14 2l13 4l13 3l21 -1l34 -4l24 -12l11 -6l10 -8l8 -10l8 -13l10 -22l7 -8l7 5l7 12l10 14l9 12l11 10l35 21l28 6l43 1l28 -6l25 -12l13 -8l20 -20l7 -12l11 -26l3 -13l-2 -43l-6 -27l-8 -25
l-6 -13l-24 -32l-10 -11l-10 -8l-23 -17l-11 -6l-12 -8l-13 -3l-13 -8l-12 -6l-13 -1l-14 -5l-14 -1l-26 -6l-12 -10l-5 -14l3 -13l5 -17l12 -24l8 -12l21 -19l12 -7l14 -4h21l22 -2l41 12l25 16l11 9l14 5l12 -6l7 -10l1 -15l-7 -15l-10 -11l-12 -9l-12 -8l-42 -17l-13 -3
l-20 -1h-37l-14 3l-12 3l-13 5l-13 7l-22 15l-9 10l-18 22l-11 7l-11 -6l-31 -32l-12 -7l-12 -9l-12 -7l-28 -7l-14 -2l-22 -2h-20zM354 210l15 4l13 2l15 6l13 3l12 5l25 15l23 18l8 12l9 10l7 14l6 13l4 13l4 12l1 23l-1 19l-4 15l-7 12l-21 18l-14 4h-41l-13 -5l-12 -6
l-10 -7l-10 -9l-15 -24l-5 -10l-10 -28l-5 -26l-6 -56l-2 -14l1 -14l6 -14zM172 45h20l14 4l26 13l12 7l11 10l20 22l6 19l1 22v12l-3 15v13l-1 16v13l-1 16l-7 14l-12 7l-14 1l-43 -1l-13 -3l-13 -2l-13 -5l-13 -6l-11 -11l-8 -9l-14 -24l-6 -13l-4 -14l-3 -33l2 -21l6 -28
l6 -10l20 -20l13 -3z" />
    <glyph glyph-name="ccedilla" unicode="&#xe7;" horiz-adv-x="371" 
d="M210 -221l-15 1l-14 4l-16 9l-12 18l10 19h17l33 -7l15 3l14 7l10 12l3 20l-5 26l-12 11l-14 4l-18 2l-19 6l-9 18l17 61h-9l-29 3l-26 9l-12 7l-21 18l-10 8l-8 12l-13 24l-5 13l-9 29l-4 13l-8 72l-1 37l2 21l-1 13l4 44l4 13l1 14l4 14l5 13l4 13l5 14l7 10l7 14l10 9
l8 14l10 8l11 8l12 8l40 14l13 2l22 1h20l30 -8l37 -15l13 -11l9 -8l8 -16l-3 -17l-6 -10l-13 -6l-14 5l-11 7l-11 9l-13 7l-12 5l-35 3l-21 -1l-12 -4l-13 -5l-10 -8l-9 -10l-8 -11l-7 -11l-5 -12l-3 -13l-5 -12l-2 -16l-2 -14l-2 -12l-2 -13v-16l-1 -13l1 -24v-33l5 -55
l3 -12l2 -14l6 -11l11 -27l8 -12l9 -9l12 -6l18 -10l26 -2l48 7l14 5l17 12l16 15l14 3l12 -6l6 -10l4 -15l-7 -18l-12 -10l-11 -6l-24 -15l-13 -4l-14 -6l-13 -4h-6l-8 -23l3 -18l15 -9l15 -5l15 -10l21 -23l7 -16l-1 -52l-18 -24l-12 -14l-15 -7l-15 -4l-15 -6z" />
    <glyph glyph-name="egrave" unicode="&#xe8;" horiz-adv-x="388" 
d="M209 538l-24 10l-18 13l-9 10l-6 14l-12 11l-9 18l-1 11l11 7l19 2l19 -8l14 -15l14 -24l5 -14l10 -13l-1 -15zM183 -11l-14 3l-40 13l-12 9l-20 19l-24 33l-6 13l-11 26l-4 13l-1 17l-5 12l-1 15l-2 14l-2 15l-1 55l5 57l5 28l10 43l5 14l6 13l15 22l18 24l10 8l13 8
l38 16l29 5l20 -1l21 -2l26 -4l38 -20l21 -22l14 -24l4 -12l4 -36l-5 -36l-3 -12l-3 -14l-7 -14l-21 -36l-30 -29l-12 -10l-35 -21l-13 -5l-15 -5l-26 -10l-14 -3l-14 -1l-15 -4l-12 -7l-6 -14l6 -22l8 -21l21 -35l23 -16l13 -3l22 -2l21 1l14 4l15 2l12 6l18 11l18 14l14 6
l12 -6l6 -12l2 -16l-7 -15l-10 -10l-12 -10l-12 -7l-14 -5l-14 -7l-27 -7l-13 -2zM126 210l14 3l28 8l12 5l25 13l35 23l9 11l7 12l7 14l5 13l4 12l3 15l1 21l-1 20l-3 15l-18 22l-10 5l-15 6h-19l-26 -3l-21 -5l-10 -7l-9 -8l-9 -10l-8 -14l-10 -27l-12 -69l1 -28l-2 -28
l8 -14z" />
    <glyph glyph-name="eacute" unicode="&#xe9;" horiz-adv-x="388" 
d="M188 540l-13 7v13l13 26l8 13l6 13l17 12l18 9h17l8 -10v-12l-9 -13l-10 -14l-8 -10l-9 -13l-17 -16zM183 -11l-14 3l-40 13l-12 9l-20 19l-24 33l-6 13l-11 26l-4 13l-1 17l-5 12l-1 15l-2 14l-2 15l-1 55l5 57l5 28l10 43l5 14l6 13l15 22l18 24l10 8l13 8l38 16l29 5
l20 -1l21 -2l26 -4l38 -20l21 -22l14 -24l4 -12l4 -36l-5 -36l-3 -12l-3 -14l-7 -14l-21 -36l-30 -29l-12 -10l-35 -21l-13 -5l-15 -5l-26 -10l-14 -3l-14 -1l-15 -4l-12 -7l-6 -14l6 -22l8 -21l21 -35l23 -16l13 -3l22 -2l21 1l14 4l15 2l12 6l18 11l18 14l14 6l12 -6
l6 -12l2 -16l-7 -15l-10 -10l-12 -10l-12 -7l-14 -5l-14 -7l-27 -7l-13 -2zM126 210l14 3l28 8l12 5l25 13l35 23l9 11l7 12l7 14l5 13l4 12l3 15l1 21l-1 20l-3 15l-18 22l-10 5l-15 6h-19l-26 -3l-21 -5l-10 -7l-9 -8l-9 -10l-8 -14l-10 -27l-12 -69l1 -28l-2 -28l8 -14z
" />
    <glyph glyph-name="ecircumflex" unicode="&#xea;" horiz-adv-x="388" 
d="M280 539l-20 6l-17 14l-10 13l-12 11l-14 7l-17 -7l-7 -14l-12 -12l-18 -12l-19 -4l-15 -2l-11 3v15l12 14l8 9l10 12l11 8l9 15l20 10l20 6l17 1l21 -6l18 -11l10 -14l14 -16l16 -16l9 -12l4 -14l-12 -3zM183 -11l-14 3l-40 13l-12 9l-20 19l-24 33l-6 13l-11 26l-4 13
l-1 17l-5 12l-1 15l-2 14l-2 15l-1 55l5 57l5 28l10 43l5 14l6 13l15 22l18 24l10 8l13 8l38 16l29 5l20 -1l21 -2l26 -4l38 -20l21 -22l14 -24l4 -12l4 -36l-5 -36l-3 -12l-3 -14l-7 -14l-21 -36l-30 -29l-12 -10l-35 -21l-13 -5l-15 -5l-26 -10l-14 -3l-14 -1l-15 -4
l-12 -7l-6 -14l6 -22l8 -21l21 -35l23 -16l13 -3l22 -2l21 1l14 4l15 2l12 6l18 11l18 14l14 6l12 -6l6 -12l2 -16l-7 -15l-10 -10l-12 -10l-12 -7l-14 -5l-14 -7l-27 -7l-13 -2zM126 210l14 3l28 8l12 5l25 13l35 23l9 11l7 12l7 14l5 13l4 12l3 15l1 21l-1 20l-3 15
l-18 22l-10 5l-15 6h-19l-26 -3l-21 -5l-10 -7l-9 -8l-9 -10l-8 -14l-10 -27l-12 -69l1 -28l-2 -28l8 -14z" />
    <glyph glyph-name="edieresis" unicode="&#xeb;" horiz-adv-x="388" 
d="M264 550l-23 4l-8 10l-5 20l4 20l11 10l20 7l22 -4l9 -12l4 -21l-3 -24l-13 -8zM146 552l-21 5l-11 6l-3 22l3 18l11 9l22 8l19 -2l10 -13l4 -19l-6 -22l-9 -8zM183 -11l-14 3l-40 13l-12 9l-20 19l-24 33l-6 13l-11 26l-4 13l-1 17l-5 12l-1 15l-2 14l-2 15l-1 55l5 57
l5 28l10 43l5 14l6 13l15 22l18 24l10 8l13 8l38 16l29 5l20 -1l21 -2l26 -4l38 -20l21 -22l14 -24l4 -12l4 -36l-5 -36l-3 -12l-3 -14l-7 -14l-21 -36l-30 -29l-12 -10l-35 -21l-13 -5l-15 -5l-26 -10l-14 -3l-14 -1l-15 -4l-12 -7l-6 -14l6 -22l8 -21l21 -35l23 -16l13 -3
l22 -2l21 1l14 4l15 2l12 6l18 11l18 14l14 6l12 -6l6 -12l2 -16l-7 -15l-10 -10l-12 -10l-12 -7l-14 -5l-14 -7l-27 -7l-13 -2zM126 210l14 3l28 8l12 5l25 13l35 23l9 11l7 12l7 14l5 13l4 12l3 15l1 21l-1 20l-3 15l-18 22l-10 5l-15 6h-19l-26 -3l-21 -5l-10 -7l-9 -8
l-9 -10l-8 -14l-10 -27l-12 -69l1 -28l-2 -28l8 -14z" />
    <glyph glyph-name="igrave" unicode="&#xec;" horiz-adv-x="178" 
d="M84 538l-24 10l-18 13l-9 10l-6 14l-12 11l-9 18l-1 11l11 7l19 2l19 -8l14 -15l14 -24l5 -14l10 -13l-1 -15zM59 16v12l-4 72l1 14l1 80l-1 14l1 15v13l-1 16l1 15l-1 13v21l-1 20l1 20l-1 14l1 14l-1 30l1 14l-2 13l-1 27l3 15l12 5l20 -1l20 -6l7 -11l3 -27l1 -16
l1 -15l1 -16l-1 -13l1 -52l-2 -36l1 -51l-1 -17l1 -110l-1 -14l2 -14l-1 -11v-14l2 -29l-3 -15l-17 -5l-21 -1l-14 6z" />
    <glyph glyph-name="iacute" unicode="&#xed;" horiz-adv-x="178" 
d="M63 540l-13 7v13l13 26l8 13l6 13l17 12l18 9h17l8 -10v-12l-9 -13l-10 -14l-8 -10l-9 -13l-17 -16zM59 16v12l-4 72l1 14l1 80l-1 14l1 15v13l-1 16l1 15l-1 13v21l-1 20l1 20l-1 14l1 14l-1 30l1 14l-2 13l-1 27l3 15l12 5l20 -1l20 -6l7 -11l3 -27l1 -16l1 -15l1 -16
l-1 -13l1 -52l-2 -36l1 -51l-1 -17l1 -110l-1 -14l2 -14l-1 -11v-14l2 -29l-3 -15l-17 -5l-21 -1l-14 6z" />
    <glyph glyph-name="icircumflex" unicode="&#xee;" horiz-adv-x="178" 
d="M155 539l-20 6l-17 14l-10 13l-12 11l-14 7l-17 -7l-7 -14l-12 -12l-18 -12l-19 -4l-15 -2l-11 3v15l12 14l8 9l10 12l11 8l9 15l20 10l20 6l17 1l21 -6l18 -11l10 -14l14 -16l16 -16l9 -12l4 -14l-12 -3zM59 16v12l-4 72l1 14l1 80l-1 14l1 15v13l-1 16l1 15l-1 13v21
l-1 20l1 20l-1 14l1 14l-1 30l1 14l-2 13l-1 27l3 15l12 5l20 -1l20 -6l7 -11l3 -27l1 -16l1 -15l1 -16l-1 -13l1 -52l-2 -36l1 -51l-1 -17l1 -110l-1 -14l2 -14l-1 -11v-14l2 -29l-3 -15l-17 -5l-21 -1l-14 6z" />
    <glyph glyph-name="idieresis" unicode="&#xef;" horiz-adv-x="178" 
d="M139 550l-23 4l-8 10l-5 20l4 20l11 10l20 7l22 -4l9 -12l4 -21l-3 -24l-13 -8zM21 552l-21 5l-11 6l-3 22l3 18l11 9l22 8l19 -2l10 -13l4 -19l-6 -22l-9 -8zM59 16v12l-4 72l1 14l1 80l-1 14l1 15v13l-1 16l1 15l-1 13v21l-1 20l1 20l-1 14l1 14l-1 30l1 14l-2 13
l-1 27l3 15l12 5l20 -1l20 -6l7 -11l3 -27l1 -16l1 -15l1 -16l-1 -13l1 -52l-2 -36l1 -51l-1 -17l1 -110l-1 -14l2 -14l-1 -11v-14l2 -29l-3 -15l-17 -5l-21 -1l-14 6z" />
    <glyph glyph-name="eth" unicode="&#xf0;" 
d="M206 -12l-19 1l-13 4l-15 3l-13 3l-12 7l-11 8l-12 6l-9 10l-17 21l-9 13l-6 10l-14 40l-8 28l-1 14l-3 15l-1 14v13l-2 18l1 20l-1 20v16l3 26l5 28l2 15l25 68l7 10l10 11l8 12l21 15l25 16l13 4l28 7l40 -2l12 -3l13 -4l13 -6l11 -7l21 -15l8 -4l1 8l-1 15l-3 14
l-2 14l-12 42l-13 25l-8 12l-8 11l-13 5l-15 -5l-9 -12l-19 -21l-16 -7l-16 3l-9 16l4 15l20 21l8 13l5 13l-8 10l-12 6l-38 11l-11 9l-6 14l3 13l8 13l16 4l12 -1l13 -5l27 -6l25 -10l16 -3l13 8l9 12l15 3l17 -3l7 -17l-2 -14l-8 -11l-3 -13l4 -17l7 -12l9 -11l7 -11
l6 -13l6 -11l6 -13l5 -14l3 -14l5 -12l4 -14l1 -14l10 -57l1 -13l3 -13l2 -55v-155l-5 -39l-4 -17l-2 -14l-3 -13l-5 -11l-4 -14l-12 -25l-8 -12l-18 -22l-9 -10l-16 -11l-19 -8l-26 -6l-13 -5zM207 44l20 2l15 3l23 14l9 10l8 13l6 11l10 28l3 16l3 29l3 14v72l1 12v17
l-5 38l-10 41l-6 12l-15 26l-9 7l-11 8l-13 7l-12 3l-19 3l-20 -2l-13 -3l-13 -5l-18 -19l-9 -10l-8 -13l-4 -11l-4 -12l-3 -16l-4 -13l-1 -16l-2 -12l-2 -13l-1 -49l2 -38l-1 -13l3 -15v-12l4 -16l2 -15l4 -14l5 -15l5 -12l9 -11l22 -20l11 -7z" />
    <glyph glyph-name="ntilde" unicode="&#xf1;" horiz-adv-x="419" 
d="M252 553l-22 1l-15 9l-14 6l-14 4l-23 3l-22 -5l-18 -6l-13 14l4 20l10 8l15 11l21 1l24 -4l13 -1l13 -10l15 -5l22 -3l24 2l19 7l13 -13l-5 -17l-10 -10l-16 -7zM349 -2l-13 2l-12 1l-15 5l-8 10l-1 11l-2 29v16l-1 13v14l-1 15l2 16l-1 76l1 16v12l-2 35l2 84l-4 40
l-5 14l-7 10l-11 6l-13 5h-20l-32 -2l-15 -4l-13 -7l-11 -7l-21 -16l-9 -12l-10 -17l-5 -25l1 -79l-2 -12l1 -50l-1 -13l1 -16l-1 -13l2 -58l-1 -13l1 -21l-2 -16l2 -14v-14l-8 -12l-12 -8h-14l-11 2l-13 7l-8 14l2 14l-1 12l1 26l-1 16l1 15v14l-1 13l1 14l-1 12l1 28
l-1 16l1 14l-1 14l1 22v12l-1 22l1 14l-1 13l1 15l-1 15l1 20l-1 21v13l-4 56l3 12l18 8h12l22 -7l9 -12v-14l7 -7l11 4l12 9l10 5l12 8l14 8l12 4l14 6l14 2l13 3l35 -1l20 -2l15 -5l22 -15l9 -8l14 -27l5 -13l2 -11l3 -57l-1 -28l1 -15l-2 -22l1 -149l2 -96l3 -12l-6 -16z
" />
    <glyph glyph-name="ograve" unicode="&#xf2;" 
d="M211 538l-24 10l-18 13l-9 10l-6 14l-12 11l-9 18l-1 11l11 7l19 2l19 -8l14 -15l14 -24l5 -14l10 -13l-1 -15zM186 -10l-14 3l-13 1l-24 12l-12 8l-13 7l-18 19l-8 11l-15 27l-10 24l-7 26l-8 43l-3 30v57l3 29l2 27l2 15l11 41l6 10l11 28l8 13l17 21l12 11l10 7l17 9
l20 8l20 5l28 1h21l14 -2l27 -9l11 -5l11 -7l21 -17l17 -22l14 -25l5 -14l6 -11l3 -14l5 -15l2 -12l3 -15l2 -29l4 -28l-2 -41l1 -17l-1 -14l-7 -43l-2 -11l-13 -40l-6 -15l-7 -10l-6 -15l-8 -10l-11 -10l-10 -10l-11 -9l-23 -14l-26 -6l-15 -3h-41zM186 44l42 1l13 5l12 4
l12 8l9 11l9 14l6 13l5 13l4 14l3 14l1 13l3 17l2 13l1 15l-1 16v23l2 18l-3 41l-4 28l-4 14l-2 13l-10 26l-6 13l-8 10l-10 11l-23 14l-13 2l-19 1l-21 -2l-25 -7l-13 -13l-13 -17l-13 -22l-2 -14l-5 -14l-5 -27l-1 -15l-2 -12l-2 -30l2 -42v-28l1 -16l2 -13l11 -43l5 -15
l5 -10l8 -12l9 -12l12 -10l11 -6z" />
    <glyph glyph-name="oacute" unicode="&#xf3;" 
d="M190 540l-13 7v13l13 26l8 13l6 13l17 12l18 9h17l8 -10v-12l-9 -13l-10 -14l-8 -10l-9 -13l-17 -16zM186 -10l-14 3l-13 1l-24 12l-12 8l-13 7l-18 19l-8 11l-15 27l-10 24l-7 26l-8 43l-3 30v57l3 29l2 27l2 15l11 41l6 10l11 28l8 13l17 21l12 11l10 7l17 9l20 8l20 5
l28 1h21l14 -2l27 -9l11 -5l11 -7l21 -17l17 -22l14 -25l5 -14l6 -11l3 -14l5 -15l2 -12l3 -15l2 -29l4 -28l-2 -41l1 -17l-1 -14l-7 -43l-2 -11l-13 -40l-6 -15l-7 -10l-6 -15l-8 -10l-11 -10l-10 -10l-11 -9l-23 -14l-26 -6l-15 -3h-41zM186 44l42 1l13 5l12 4l12 8l9 11
l9 14l6 13l5 13l4 14l3 14l1 13l3 17l2 13l1 15l-1 16v23l2 18l-3 41l-4 28l-4 14l-2 13l-10 26l-6 13l-8 10l-10 11l-23 14l-13 2l-19 1l-21 -2l-25 -7l-13 -13l-13 -17l-13 -22l-2 -14l-5 -14l-5 -27l-1 -15l-2 -12l-2 -30l2 -42v-28l1 -16l2 -13l11 -43l5 -15l5 -10
l8 -12l9 -12l12 -10l11 -6z" />
    <glyph glyph-name="ocircumflex" unicode="&#xf4;" 
d="M282 539l-20 6l-17 14l-10 13l-12 11l-14 7l-17 -7l-7 -14l-12 -12l-18 -12l-19 -4l-15 -2l-11 3v15l12 14l8 9l10 12l11 8l9 15l20 10l20 6l17 1l21 -6l18 -11l10 -14l14 -16l16 -16l9 -12l4 -14l-12 -3zM186 -10l-14 3l-13 1l-24 12l-12 8l-13 7l-18 19l-8 11l-15 27
l-10 24l-7 26l-8 43l-3 30v57l3 29l2 27l2 15l11 41l6 10l11 28l8 13l17 21l12 11l10 7l17 9l20 8l20 5l28 1h21l14 -2l27 -9l11 -5l11 -7l21 -17l17 -22l14 -25l5 -14l6 -11l3 -14l5 -15l2 -12l3 -15l2 -29l4 -28l-2 -41l1 -17l-1 -14l-7 -43l-2 -11l-13 -40l-6 -15l-7 -10
l-6 -15l-8 -10l-11 -10l-10 -10l-11 -9l-23 -14l-26 -6l-15 -3h-41zM186 44l42 1l13 5l12 4l12 8l9 11l9 14l6 13l5 13l4 14l3 14l1 13l3 17l2 13l1 15l-1 16v23l2 18l-3 41l-4 28l-4 14l-2 13l-10 26l-6 13l-8 10l-10 11l-23 14l-13 2l-19 1l-21 -2l-25 -7l-13 -13l-13 -17
l-13 -22l-2 -14l-5 -14l-5 -27l-1 -15l-2 -12l-2 -30l2 -42v-28l1 -16l2 -13l11 -43l5 -15l5 -10l8 -12l9 -12l12 -10l11 -6z" />
    <glyph glyph-name="otilde" unicode="&#xf5;" 
d="M249 553l-22 1l-15 9l-14 6l-14 4l-23 3l-22 -5l-18 -6l-13 14l4 20l10 8l15 11l21 1l24 -4l13 -1l13 -10l15 -5l22 -3l24 2l19 7l13 -13l-5 -17l-10 -10l-16 -7zM186 -10l-14 3l-13 1l-24 12l-12 8l-13 7l-18 19l-8 11l-15 27l-10 24l-7 26l-8 43l-3 30v57l3 29l2 27
l2 15l11 41l6 10l11 28l8 13l17 21l12 11l10 7l17 9l20 8l20 5l28 1h21l14 -2l27 -9l11 -5l11 -7l21 -17l17 -22l14 -25l5 -14l6 -11l3 -14l5 -15l2 -12l3 -15l2 -29l4 -28l-2 -41l1 -17l-1 -14l-7 -43l-2 -11l-13 -40l-6 -15l-7 -10l-6 -15l-8 -10l-11 -10l-10 -10l-11 -9
l-23 -14l-26 -6l-15 -3h-41zM186 44l42 1l13 5l12 4l12 8l9 11l9 14l6 13l5 13l4 14l3 14l1 13l3 17l2 13l1 15l-1 16v23l2 18l-3 41l-4 28l-4 14l-2 13l-10 26l-6 13l-8 10l-10 11l-23 14l-13 2l-19 1l-21 -2l-25 -7l-13 -13l-13 -17l-13 -22l-2 -14l-5 -14l-5 -27l-1 -15
l-2 -12l-2 -30l2 -42v-28l1 -16l2 -13l11 -43l5 -15l5 -10l8 -12l9 -12l12 -10l11 -6z" />
    <glyph glyph-name="odieresis" unicode="&#xf6;" 
d="M266 550l-23 4l-8 10l-5 20l4 20l11 10l20 7l22 -4l9 -12l4 -21l-3 -24l-13 -8zM148 552l-21 5l-11 6l-3 22l3 18l11 9l22 8l19 -2l10 -13l4 -19l-6 -22l-9 -8zM186 -10l-14 3l-13 1l-24 12l-12 8l-13 7l-18 19l-8 11l-15 27l-10 24l-7 26l-8 43l-3 30v57l3 29l2 27l2 15
l11 41l6 10l11 28l8 13l17 21l12 11l10 7l17 9l20 8l20 5l28 1h21l14 -2l27 -9l11 -5l11 -7l21 -17l17 -22l14 -25l5 -14l6 -11l3 -14l5 -15l2 -12l3 -15l2 -29l4 -28l-2 -41l1 -17l-1 -14l-7 -43l-2 -11l-13 -40l-6 -15l-7 -10l-6 -15l-8 -10l-11 -10l-10 -10l-11 -9
l-23 -14l-26 -6l-15 -3h-41zM186 44l42 1l13 5l12 4l12 8l9 11l9 14l6 13l5 13l4 14l3 14l1 13l3 17l2 13l1 15l-1 16v23l2 18l-3 41l-4 28l-4 14l-2 13l-10 26l-6 13l-8 10l-10 11l-23 14l-13 2l-19 1l-21 -2l-25 -7l-13 -13l-13 -17l-13 -22l-2 -14l-5 -14l-5 -27l-1 -15
l-2 -12l-2 -30l2 -42v-28l1 -16l2 -13l11 -43l5 -15l5 -10l8 -12l9 -12l12 -10l11 -6z" />
    <glyph glyph-name="divide" unicode="&#xf7;" horiz-adv-x="308" 
d="M153 418l-19 3l-11 12l-7 18l6 25l10 12l20 4l25 -6l10 -10l2 -24l-3 -23l-11 -8zM249 314l-17 2l-24 1l-38 1l-25 1l-24 -2l-15 -1l-23 1l-24 -1l-16 7l-8 17l6 21l26 9l24 1l14 -3l16 3l14 -2h18l33 -2l15 1l15 2l32 -2l16 -6l9 -18l-10 -20zM154 191l-21 7l-13 9
l-4 25l3 23l12 7l23 5l21 -4l11 -9l7 -26l-7 -20l-9 -10z" />
    <glyph glyph-name="oslash" unicode="&#xf8;" horiz-adv-x="411" 
d="M187 -10l-30 7l-12 3l-14 8l-13 7l-10 10l-13 4l-12 -4l-9 -11l-11 -10l-14 3l-7 15l3 13l15 24l3 17l1 21l-12 36l-2 15l-3 13l-1 13l-2 27l-2 13l1 23v33l2 16v13l6 29l1 13l4 12l14 41l7 13l16 24l11 11l10 7l10 10l23 13l21 6l41 4l21 1l40 -10l13 -5l16 -4l11 8
l8 13l12 5l14 -2l7 -12l-3 -17l-8 -13l-5 -18l4 -19l16 -38l9 -29l8 -43l1 -15l2 -49l-1 -36l-9 -67l-14 -43l-12 -24l-14 -23l-15 -17l-16 -12l-11 -7l-40 -14l-13 -2h-43zM116 163l8 4l9 11l7 15l7 9l7 14l8 12l7 13l9 11l21 37l9 12l28 48l9 11l6 14l8 11l3 17l-8 13
l-11 8l-13 6l-41 -2l-13 -3l-27 -19l-13 -15l-6 -12l-10 -23l-2 -16l-6 -28l-2 -12l-3 -63l1 -22v-15l4 -28zM209 43l20 2l14 2l24 17l9 9l8 12l10 26l6 15l5 27l4 59v70l-3 15v11l-3 12l-1 14l-3 15l-9 7l-8 -7l-15 -22l-29 -49l-6 -12l-7 -11l-15 -21l-13 -26l-7 -10
l-15 -26l-8 -12l-15 -23l-14 -24l-3 -17l3 -19l11 -12l10 -9l13 -6l14 -4z" />
    <glyph glyph-name="ugrave" unicode="&#xf9;" horiz-adv-x="422" 
d="M210 538l-24 10l-18 13l-9 10l-6 14l-12 11l-9 18l-1 11l11 7l19 2l19 -8l14 -15l14 -24l5 -14l10 -13l-1 -15zM169 -12l-20 2l-15 2l-13 4l-34 20l-16 22l-11 29l-2 12l-5 49v22l1 11l-1 120l1 12l-1 28l1 35l-1 13l1 13l-2 15l1 15l-3 40l5 15l11 7h12l14 1l13 -8
l10 -12l1 -15v-13l1 -14l1 -72l-1 -15l1 -14l-1 -11l1 -16l-2 -49l1 -14v-12l-1 -15v-14l3 -41l-1 -22l2 -12l7 -29l6 -11l10 -12l10 -5l13 -5h43l14 6l13 3l26 14l11 10l10 11l11 16l4 21v13l1 28l-2 37l2 51l-2 13l2 13l-1 16l1 14l-1 16l1 12l-1 14l1 15l-2 27l2 16v27
l-1 14l6 15l15 7l12 -1l13 1l12 -5l6 -22l1 -12l-1 -50l1 -58l-2 -26l2 -14v-240l3 -26l-3 -15l-12 -6l-24 -1l-15 7l-10 10l-1 15l-6 5l-9 -2l-33 -23l-24 -11l-12 -5l-13 -4z" />
    <glyph glyph-name="uacute" unicode="&#xfa;" horiz-adv-x="422" 
d="M189 540l-13 7v13l13 26l8 13l6 13l17 12l18 9h17l8 -10v-12l-9 -13l-10 -14l-8 -10l-9 -13l-17 -16zM169 -12l-20 2l-15 2l-13 4l-34 20l-16 22l-11 29l-2 12l-5 49v22l1 11l-1 120l1 12l-1 28l1 35l-1 13l1 13l-2 15l1 15l-3 40l5 15l11 7h12l14 1l13 -8l10 -12l1 -15
v-13l1 -14l1 -72l-1 -15l1 -14l-1 -11l1 -16l-2 -49l1 -14v-12l-1 -15v-14l3 -41l-1 -22l2 -12l7 -29l6 -11l10 -12l10 -5l13 -5h43l14 6l13 3l26 14l11 10l10 11l11 16l4 21v13l1 28l-2 37l2 51l-2 13l2 13l-1 16l1 14l-1 16l1 12l-1 14l1 15l-2 27l2 16v27l-1 14l6 15
l15 7l12 -1l13 1l12 -5l6 -22l1 -12l-1 -50l1 -58l-2 -26l2 -14v-240l3 -26l-3 -15l-12 -6l-24 -1l-15 7l-10 10l-1 15l-6 5l-9 -2l-33 -23l-24 -11l-12 -5l-13 -4z" />
    <glyph glyph-name="ucircumflex" unicode="&#xfb;" horiz-adv-x="422" 
d="M281 539l-20 6l-17 14l-10 13l-12 11l-14 7l-17 -7l-7 -14l-12 -12l-18 -12l-19 -4l-15 -2l-11 3v15l12 14l8 9l10 12l11 8l9 15l20 10l20 6l17 1l21 -6l18 -11l10 -14l14 -16l16 -16l9 -12l4 -14l-12 -3zM169 -12l-20 2l-15 2l-13 4l-34 20l-16 22l-11 29l-2 12l-5 49
v22l1 11l-1 120l1 12l-1 28l1 35l-1 13l1 13l-2 15l1 15l-3 40l5 15l11 7h12l14 1l13 -8l10 -12l1 -15v-13l1 -14l1 -72l-1 -15l1 -14l-1 -11l1 -16l-2 -49l1 -14v-12l-1 -15v-14l3 -41l-1 -22l2 -12l7 -29l6 -11l10 -12l10 -5l13 -5h43l14 6l13 3l26 14l11 10l10 11l11 16
l4 21v13l1 28l-2 37l2 51l-2 13l2 13l-1 16l1 14l-1 16l1 12l-1 14l1 15l-2 27l2 16v27l-1 14l6 15l15 7l12 -1l13 1l12 -5l6 -22l1 -12l-1 -50l1 -58l-2 -26l2 -14v-240l3 -26l-3 -15l-12 -6l-24 -1l-15 7l-10 10l-1 15l-6 5l-9 -2l-33 -23l-24 -11l-12 -5l-13 -4z" />
    <glyph glyph-name="udieresis" unicode="&#xfc;" horiz-adv-x="422" 
d="M265 550l-23 4l-8 10l-5 20l4 20l11 10l20 7l22 -4l9 -12l4 -21l-3 -24l-13 -8zM147 552l-21 5l-11 6l-3 22l3 18l11 9l22 8l19 -2l10 -13l4 -19l-6 -22l-9 -8zM169 -12l-20 2l-15 2l-13 4l-34 20l-16 22l-11 29l-2 12l-5 49v22l1 11l-1 120l1 12l-1 28l1 35l-1 13l1 13
l-2 15l1 15l-3 40l5 15l11 7h12l14 1l13 -8l10 -12l1 -15v-13l1 -14l1 -72l-1 -15l1 -14l-1 -11l1 -16l-2 -49l1 -14v-12l-1 -15v-14l3 -41l-1 -22l2 -12l7 -29l6 -11l10 -12l10 -5l13 -5h43l14 6l13 3l26 14l11 10l10 11l11 16l4 21v13l1 28l-2 37l2 51l-2 13l2 13l-1 16
l1 14l-1 16l1 12l-1 14l1 15l-2 27l2 16v27l-1 14l6 15l15 7l12 -1l13 1l12 -5l6 -22l1 -12l-1 -50l1 -58l-2 -26l2 -14v-240l3 -26l-3 -15l-12 -6l-24 -1l-15 7l-10 10l-1 15l-6 5l-9 -2l-33 -23l-24 -11l-12 -5l-13 -4z" />
    <glyph glyph-name="yacute" unicode="&#xfd;" horiz-adv-x="371" 
d="M168 534l-13 7v13l13 26l8 13l6 13l17 12l18 9h17l8 -10v-12l-9 -13l-10 -14l-8 -10l-9 -13l-17 -16zM88 -254l-16 1l-12 8l-8 14v17l7 15l12 10l26 29l6 15l7 11l21 52l4 14l5 12l3 16l5 13v23l-7 40l-14 46l-4 12l-3 15l-9 27l-5 10l-6 27l-5 14l-5 13l-2 13l-8 27
l-6 13l-6 27l-6 16l-3 10l-4 13l-3 15l-5 14l-3 13l-6 13l-14 52l-5 13l-3 15l2 14l11 4l22 2l22 -5l11 -14l12 -42l3 -14l5 -13l10 -40l6 -13l2 -13l7 -21l5 -21l4 -14l3 -12l5 -13l4 -15l4 -13l3 -14l7 -19l13 -49l3 -15l5 -15l4 1l5 15l32 136l3 16l8 27l2 14l18 64l3 14
l8 26l2 15l4 14l3 11l12 15l13 7h22l18 -6l3 -14l-8 -26l-3 -15l-4 -12l-3 -13l-5 -15l-3 -15l-7 -24l-5 -14l-7 -27l-4 -12l-6 -30l-6 -12l-7 -26l-5 -27l-10 -26l-2 -14l-4 -14l-5 -13l-2 -14l-5 -12l-3 -13l-4 -14l-4 -15l-9 -31l-6 -28l-8 -21l-3 -13l-4 -11l-3 -14
l-5 -15l-3 -14l-5 -12l-4 -13l-5 -13l-12 -25l-6 -12l-6 -14l-33 -43l-10 -9l-11 -7z" />
    <glyph glyph-name="thorn" unicode="&#xfe;" horiz-adv-x="433" 
d="M87 -252l-14 6l-8 10l-1 15l-2 13l1 15l-2 14l1 135l-2 21l1 15l-1 16l2 40l-2 15l1 12l-1 16l2 36l-1 13l1 47l-2 15v71l2 20l-2 35l1 16l-1 40l1 15l-1 14l1 15v155l1 12l-2 12l1 31l-2 12v14l-2 14l6 14l16 7l19 -1l13 -6l9 -11l3 -25l-1 -28l2 -15l-1 -101l1 -13
l-1 -43l2 -12l5 -11l10 2l34 27l12 3l40 15h14l21 3h21l26 -5l24 -13l9 -7l9 -12l7 -11l12 -25l6 -15l6 -27l1 -13l3 -15l1 -15l2 -14v-14l2 -15v-15l1 -19l-1 -22l-2 -30l-2 -15l-1 -13l-3 -15l-3 -13l-9 -27l-4 -15l-12 -26l-17 -26l-29 -29l-24 -14l-42 -13l-19 -1l-37 3
l-15 2l-13 4l-13 7l-14 -1l-8 -10v-45l1 -11l1 -16l-2 -41l1 -14v-16l1 -13l-1 -13v-16l2 -14l-1 -13l2 -14l-4 -13l-11 -7l-12 1zM179 44h20l27 2l20 2l14 5l21 16l24 35l7 20l5 21l2 12l3 15l3 44l-1 20v51l-1 13l1 13l-2 15l-1 15l-3 12l-3 15l-3 13l-6 12l-8 13l-21 17
l-31 4l-22 -3l-13 -3l-14 -2l-25 -12l-23 -17l-11 -12l-10 -16l-5 -19l2 -17l-2 -13l2 -37l-2 -20v-13l2 -22l-2 -37l1 -13v-15l-1 -21l1 -14l-1 -37l7 -17l12 -13l11 -6l14 -2z" />
    <glyph glyph-name="ydieresis" unicode="&#xff;" horiz-adv-x="371" 
d="M244 544l-23 4l-8 10l-5 20l4 20l11 10l20 7l22 -4l9 -12l4 -21l-3 -24l-13 -8zM126 546l-21 5l-11 6l-3 22l3 18l11 9l22 8l19 -2l10 -13l4 -19l-6 -22l-9 -8zM88 -254l-16 1l-12 8l-8 14v17l7 15l12 10l26 29l6 15l7 11l21 52l4 14l5 12l3 16l5 13v23l-7 40l-14 46
l-4 12l-3 15l-9 27l-5 10l-6 27l-5 14l-5 13l-2 13l-8 27l-6 13l-6 27l-6 16l-3 10l-4 13l-3 15l-5 14l-3 13l-6 13l-14 52l-5 13l-3 15l2 14l11 4l22 2l22 -5l11 -14l12 -42l3 -14l5 -13l10 -40l6 -13l2 -13l7 -21l5 -21l4 -14l3 -12l5 -13l4 -15l4 -13l3 -14l7 -19l13 -49
l3 -15l5 -15l4 1l5 15l32 136l3 16l8 27l2 14l18 64l3 14l8 26l2 15l4 14l3 11l12 15l13 7h22l18 -6l3 -14l-8 -26l-3 -15l-4 -12l-3 -13l-5 -15l-3 -15l-7 -24l-5 -14l-7 -27l-4 -12l-6 -30l-6 -12l-7 -26l-5 -27l-10 -26l-2 -14l-4 -14l-5 -13l-2 -14l-5 -12l-3 -13
l-4 -14l-4 -15l-9 -31l-6 -28l-8 -21l-3 -13l-4 -11l-3 -14l-5 -15l-3 -14l-5 -12l-4 -13l-5 -13l-12 -25l-6 -12l-6 -14l-33 -43l-10 -9l-11 -7z" />
    <glyph glyph-name="Amacron" unicode="&#x100;" horiz-adv-x="434" 
d="M163 763l-14 5h-17l-17 5l-6 17l8 13l17 6h30l17 1l16 -3l15 2l17 -1l17 3h45l19 -9l8 -13l-8 -15l-17 -7l-16 -1h-18l-14 -2l-50 2l-14 1zM32 -2l-15 11l-4 16l18 76l6 14l2 16l5 14l20 97l14 45l3 15l15 66l2 14l10 30l2 14l21 80l1 14l7 16l5 32l9 32l5 12l3 16l2 16
l10 32l10 15l18 9l16 2l15 -3l16 -7l11 -14l6 -17l3 -18l13 -46l5 -31l18 -58l9 -49l6 -14l2 -18l17 -60l2 -16l16 -63l3 -18l5 -13l1 -16l15 -47l4 -30l6 -19l1 -12l18 -62l10 -49l-5 -16l-13 -6h-18l-19 10l-13 13l-5 32l-4 16l-6 14l-6 35l-5 16l-3 17l-8 29l-12 18
l-16 8h-46l-24 3h-21l-15 -2h-34l-18 -8l-10 -18l-32 -146l-6 -13l-12 -15l-16 -11h-20zM224 263l18 2h31l13 5l3 16l-8 33l-2 17l-4 16l-2 12l-6 14l-2 18l-4 15l-7 14l-4 32l-7 27l-3 23l-10 44l-4 33l-9 32l-3 3l-7 -32l-10 -69l-5 -11l-10 -51l-1 -15l-5 -16l-4 -14
l-9 -29l-1 -19l-4 -15l-10 -28l-1 -19l-3 -13l2 -18l14 -6h17l15 1z" />
    <glyph glyph-name="amacron" unicode="&#x101;" horiz-adv-x="396" 
d="M140 554l-14 5h-17l-17 5l-6 17l8 13l17 6h30l17 1l16 -3l15 2l17 -1l17 3h45l19 -9l8 -13l-8 -15l-17 -7l-16 -1h-18l-14 -2l-50 2l-14 1zM182 -11l-41 2l-14 2l-13 5l-13 4l-11 7l-11 8l-10 8l-14 23l-7 15l-7 25l-1 14v43l2 14l2 13l4 15l5 11l5 15l9 12l7 11l9 11
l10 8l12 12l12 7l39 18l15 3l28 4l21 -1l19 2l13 -2l14 5l8 13l-3 29l-2 14l-2 13l-4 16l-5 11l-8 10l-11 8l-11 9l-13 3l-21 -1l-21 2l-22 -5l-19 -7l-26 -16l-14 -3l-13 8l-6 8l-2 16l8 15l10 8l13 6l12 7l26 11l12 1l15 4l14 1l41 -1l15 -5l20 -5l18 -9l10 -6l11 -9
l17 -25l6 -13l6 -15l6 -28l4 -28v-22l2 -20l-1 -28l-1 -12l1 -14l1 -43l-2 -29l2 -11l-2 -50l2 -34l-1 -15l1 -15l3 -26l-4 -16l-21 -7l-26 6l-10 12l-2 15l-6 5l-8 -4l-19 -17l-13 -9l-23 -9zM171 44l21 1l12 4l25 12l21 13l10 11l8 16l5 18v13l-1 14l1 70v11l-7 17l-13 4
l-52 2l-14 -5l-25 -7l-23 -16l-9 -10l-9 -12l-6 -10l-6 -13l-2 -13l-2 -36v-23l2 -12l10 -25l8 -9l12 -7l14 -6z" />
    <glyph glyph-name="Abreve" unicode="&#x102;" horiz-adv-x="434" 
d="M215 748l-23 5h-14l-16 5l-14 8l-11 9l-12 8l-10 13l-2 14l7 20l16 2l16 -10l11 -10l15 -11l13 -4l25 -3l24 2l13 4l16 10l9 12l16 6l14 2l7 -17l-2 -20l-8 -13l-14 -8l-12 -7l-13 -7l-14 -5l-13 -3zM32 -2l-15 11l-4 16l18 76l6 14l2 16l5 14l20 97l14 45l3 15l15 66
l2 14l10 30l2 14l21 80l1 14l7 16l5 32l9 32l5 12l3 16l2 16l10 32l10 15l18 9l16 2l15 -3l16 -7l11 -14l6 -17l3 -18l13 -46l5 -31l18 -58l9 -49l6 -14l2 -18l17 -60l2 -16l16 -63l3 -18l5 -13l1 -16l15 -47l4 -30l6 -19l1 -12l18 -62l10 -49l-5 -16l-13 -6h-18l-19 10
l-13 13l-5 32l-4 16l-6 14l-6 35l-5 16l-3 17l-8 29l-12 18l-16 8h-46l-24 3h-21l-15 -2h-34l-18 -8l-10 -18l-32 -146l-6 -13l-12 -15l-16 -11h-20zM224 263l18 2h31l13 5l3 16l-8 33l-2 17l-4 16l-2 12l-6 14l-2 18l-4 15l-7 14l-4 32l-7 27l-3 23l-10 44l-4 33l-9 32
l-3 3l-7 -32l-10 -69l-5 -11l-10 -51l-1 -15l-5 -16l-4 -14l-9 -29l-1 -19l-4 -15l-10 -28l-1 -19l-3 -13l2 -18l14 -6h17l15 1z" />
    <glyph glyph-name="abreve" unicode="&#x103;" horiz-adv-x="396" 
d="M192 539l-23 5h-14l-16 5l-14 8l-11 9l-12 8l-10 13l-2 14l7 20l16 2l16 -10l11 -10l15 -11l13 -4l25 -3l24 2l13 4l16 10l9 12l16 6l14 2l7 -17l-2 -20l-8 -13l-14 -8l-12 -7l-13 -7l-14 -5l-13 -3zM182 -11l-41 2l-14 2l-13 5l-13 4l-11 7l-11 8l-10 8l-14 23l-7 15
l-7 25l-1 14v43l2 14l2 13l4 15l5 11l5 15l9 12l7 11l9 11l10 8l12 12l12 7l39 18l15 3l28 4l21 -1l19 2l13 -2l14 5l8 13l-3 29l-2 14l-2 13l-4 16l-5 11l-8 10l-11 8l-11 9l-13 3l-21 -1l-21 2l-22 -5l-19 -7l-26 -16l-14 -3l-13 8l-6 8l-2 16l8 15l10 8l13 6l12 7l26 11
l12 1l15 4l14 1l41 -1l15 -5l20 -5l18 -9l10 -6l11 -9l17 -25l6 -13l6 -15l6 -28l4 -28v-22l2 -20l-1 -28l-1 -12l1 -14l1 -43l-2 -29l2 -11l-2 -50l2 -34l-1 -15l1 -15l3 -26l-4 -16l-21 -7l-26 6l-10 12l-2 15l-6 5l-8 -4l-19 -17l-13 -9l-23 -9zM171 44l21 1l12 4l25 12
l21 13l10 11l8 16l5 18v13l-1 14l1 70v11l-7 17l-13 4l-52 2l-14 -5l-25 -7l-23 -16l-9 -10l-9 -12l-6 -10l-6 -13l-2 -13l-2 -36v-23l2 -12l10 -25l8 -9l12 -7l14 -6z" />
    <glyph glyph-name="Aogonek" unicode="&#x104;" horiz-adv-x="452" 
d="M372 -219l-16 3l-13 8l-15 6l-12 13l-7 24l-4 21v14l8 29l5 13l5 16l11 20l22 31l7 13l-1 16l-9 12l-7 35l-11 32l-14 64l-5 16l-2 16l-13 16l-18 10l-46 -4l-14 3l-62 -3l-15 1l-18 -8l-11 -13l-1 -17l-4 -16l-4 -17l-13 -47l-3 -18l-5 -16l-8 -31l-12 -15l-19 -11h-14
l-17 10l-3 16l1 16l18 61l1 14l22 93l6 16l18 80l14 46l4 32l7 30l7 17l6 30l5 15l25 110l5 13l11 47l5 15l1 19l14 16l15 7l31 -2l19 -8l12 -14l9 -31l4 -34l14 -41l2 -17l10 -35l2 -13l4 -15l3 -19l5 -13l2 -15l5 -18l2 -11l6 -17l6 -34l4 -14l3 -17l11 -31l1 -14l6 -16
l3 -15l2 -18l6 -12l11 -50l2 -15l6 -12l6 -33l10 -31l2 -15l2 -18l10 -29l-3 -22l-6 -18l-11 -16l-22 -26l-5 -17l-16 -30l-1 -17l4 -22l8 -17l13 -11l16 -1l13 6l16 -2l11 -12l-3 -13l-13 -13l-15 -6l-17 -5h-17zM193 260l16 3l60 -2l17 10l3 17l-8 31l-5 14l-6 31l-2 15
l-5 15l-45 224l-5 -2l-4 -17l-2 -14l-8 -31l-2 -15l-2 -18l-1 -16l-10 -47l-5 -14l-2 -15l-7 -32l-6 -16l-3 -18l-4 -13l-6 -32l-6 -15l-4 -17l5 -15l14 -8z" />
    <glyph glyph-name="aogonek" unicode="&#x105;" horiz-adv-x="414" 
d="M291 -219l-13 2l-12 7l-12 5l-10 9l-8 9l-8 19l-4 20l1 14l2 16l8 26l5 14l7 11l6 13l17 25l8 10l9 13l-1 10l-6 11l-1 13l-7 10l-9 -5l-9 -9l-10 -7l-11 -10l-11 -7l-14 -5l-13 -4h-13l-20 -2l-21 1l-13 2l-14 4l-12 5l-11 7l-21 18l-14 22l-6 12l-5 13l-2 16l-3 13
l-1 43l3 13l2 16l4 12l18 40l9 11l10 9l21 22l38 17l13 5l14 6l27 2l21 -1l22 3l12 -1l13 3l6 13l2 19l-2 11l-5 28l-4 13l-5 11l-9 11l-9 8l-11 8l-35 5h-21l-41 -11l-13 -6l-13 -9l-14 -3l-12 6l-7 9l-3 17l8 14l13 7l11 8l12 6l33 10l28 6l27 1l34 -3l14 -3l13 -6l22 -15
l12 -12l8 -11l8 -12l12 -25l3 -13l4 -14l3 -30l1 -141l1 -12v-140l2 -12l2 -16l-2 -18l-7 -18l-9 -11l-8 -11l-8 -10l-21 -36l-9 -29v-13l3 -19l7 -17l9 -8l12 -3h12l13 4l15 -2l10 -7l-3 -19l-10 -10l-13 -7l-14 -3zM172 44l21 1l37 15l20 14l10 12l8 16l5 25v21l1 14
l-2 39l1 28l-7 13l-13 9l-12 -2l-40 -1l-20 -5l-31 -14l-11 -9l-9 -10l-7 -8l-7 -14l-5 -12l-4 -15l-1 -13l-1 -40l7 -27l6 -12l9 -11l18 -11z" />
    <glyph glyph-name="Cacute" unicode="&#x106;" horiz-adv-x="404" 
d="M220 749l-13 7v13l13 26l8 13l6 13l17 12l18 9h17l8 -10v-12l-9 -13l-10 -14l-8 -10l-9 -13l-17 -16zM211 -11l-47 11l-27 13l-22 18l-12 13l-7 12l-9 12l-8 14l-11 30l-2 17l-4 16l-4 12l-10 52l2 17l-5 47l2 20l-3 15l1 15l-2 26l2 26l-2 14l3 26l-1 21l6 50v16l3 13
l2 18l4 16l6 13l3 16l6 17l3 12l7 17l19 27l9 10l25 24l13 7l14 5l16 8l16 1l15 2l48 1l34 -7l30 -12l16 -4l14 -10l9 -17l-3 -17l-9 -13l-17 -2l-15 3l-14 9l-16 4l-15 6l-15 3l-24 2l-26 -5l-13 -1l-12 -6l-11 -7l-12 -11l-10 -10l-5 -16l-15 -27l-3 -14l-14 -83l-4 -150
l2 -16l-1 -14l2 -13l1 -19l-2 -16l3 -14l4 -48l5 -32l6 -15l3 -18l5 -12l8 -18l8 -12l12 -10l14 -10l13 -7l14 -5l25 1l22 3l25 2l21 5l28 10l13 10h18l15 -12l1 -21l-12 -20l-66 -28l-37 -6l-24 3z" />
    <glyph glyph-name="cacute" unicode="&#x107;" horiz-adv-x="371" 
d="M188 540l-13 7v13l13 26l8 13l6 13l17 12l18 9h17l8 -10v-12l-9 -13l-10 -14l-8 -10l-9 -13l-17 -16zM229 -10l-42 1l-29 3l-26 9l-12 7l-21 19l-10 7l-8 12l-13 25l-5 12l-9 30l-4 12l-8 73l-1 36l2 22l-1 13l4 43l4 13l1 14l4 15l5 12l4 14l5 14l7 9l7 14l10 10l8 13
l10 9l11 8l12 7l40 14l13 2l22 2l20 -1l30 -7l37 -16l13 -10l9 -8l8 -16l-3 -17l-6 -11l-13 -6l-14 5l-22 16l-13 8l-12 4l-35 4l-21 -2l-12 -3l-13 -5l-10 -8l-9 -11l-8 -11l-7 -11l-5 -12l-3 -13l-5 -12l-4 -30l-2 -11l-2 -14v-15l-1 -14l1 -23v-33l5 -56l3 -12l2 -14
l6 -11l11 -27l8 -11l9 -10l30 -15l26 -2l21 2l27 5l14 4l17 13l16 14l14 4l12 -7l6 -10l4 -14l-7 -19l-12 -10l-11 -6l-24 -15l-13 -3l-14 -7l-13 -3z" />
    <glyph glyph-name="Cdotaccent" unicode="&#x10a;" horiz-adv-x="404" 
d="M236 759l-22 4l-9 7l-6 23l5 21l9 11l21 5l23 -2l11 -15l3 -20l-4 -21l-11 -12zM211 -11l-47 11l-27 13l-22 18l-12 13l-7 12l-9 12l-8 14l-11 30l-2 17l-4 16l-4 12l-10 52l2 17l-5 47l2 20l-3 15l1 15l-2 26l2 26l-2 14l3 26l-1 21l6 50v16l3 13l2 18l4 16l6 13l3 16
l6 17l3 12l7 17l19 27l9 10l25 24l13 7l14 5l16 8l16 1l15 2l48 1l34 -7l30 -12l16 -4l14 -10l9 -17l-3 -17l-9 -13l-17 -2l-15 3l-14 9l-16 4l-15 6l-15 3l-24 2l-26 -5l-13 -1l-12 -6l-11 -7l-12 -11l-10 -10l-5 -16l-15 -27l-3 -14l-14 -83l-4 -150l2 -16l-1 -14l2 -13
l1 -19l-2 -16l3 -14l4 -48l5 -32l6 -15l3 -18l5 -12l8 -18l8 -12l12 -10l14 -10l13 -7l14 -5l25 1l22 3l25 2l21 5l28 10l13 10h18l15 -12l1 -21l-12 -20l-66 -28l-37 -6l-24 3z" />
    <glyph glyph-name="cdotaccent" unicode="&#x10b;" horiz-adv-x="371" 
d="M204 550l-22 4l-9 7l-6 23l5 21l9 11l21 5l23 -2l11 -15l3 -20l-4 -21l-11 -12zM229 -10l-42 1l-29 3l-26 9l-12 7l-21 19l-10 7l-8 12l-13 25l-5 12l-9 30l-4 12l-8 73l-1 36l2 22l-1 13l4 43l4 13l1 14l4 15l5 12l4 14l5 14l7 9l7 14l10 10l8 13l10 9l11 8l12 7l40 14
l13 2l22 2l20 -1l30 -7l37 -16l13 -10l9 -8l8 -16l-3 -17l-6 -11l-13 -6l-14 5l-22 16l-13 8l-12 4l-35 4l-21 -2l-12 -3l-13 -5l-10 -8l-9 -11l-8 -11l-7 -11l-5 -12l-3 -13l-5 -12l-4 -30l-2 -11l-2 -14v-15l-1 -14l1 -23v-33l5 -56l3 -12l2 -14l6 -11l11 -27l8 -11l9 -10
l30 -15l26 -2l21 2l27 5l14 4l17 13l16 14l14 4l12 -7l6 -10l4 -14l-7 -19l-12 -10l-11 -6l-24 -15l-13 -3l-14 -7l-13 -3z" />
    <glyph glyph-name="Ccaron" unicode="&#x10c;" horiz-adv-x="404" 
d="M229 748l-20 7l-15 11l-12 12l-12 16l-15 17l-12 10v13l14 8l23 -7l19 -11l11 -15l12 -10l17 -9l15 6l13 13l10 14l18 12l23 6l13 -4v-14l-10 -12l-10 -11l-7 -13l-10 -10l-10 -12l-19 -12l-19 -5h-17zM211 -11l-47 11l-27 13l-22 18l-12 13l-7 12l-9 12l-8 14l-11 30
l-2 17l-4 16l-4 12l-10 52l2 17l-5 47l2 20l-3 15l1 15l-2 26l2 26l-2 14l3 26l-1 21l6 50v16l3 13l2 18l4 16l6 13l3 16l6 17l3 12l7 17l19 27l9 10l25 24l13 7l14 5l16 8l16 1l15 2l48 1l34 -7l30 -12l16 -4l14 -10l9 -17l-3 -17l-9 -13l-17 -2l-15 3l-14 9l-16 4l-15 6
l-15 3l-24 2l-26 -5l-13 -1l-12 -6l-11 -7l-12 -11l-10 -10l-5 -16l-15 -27l-3 -14l-14 -83l-4 -150l2 -16l-1 -14l2 -13l1 -19l-2 -16l3 -14l4 -48l5 -32l6 -15l3 -18l5 -12l8 -18l8 -12l12 -10l14 -10l13 -7l14 -5l25 1l22 3l25 2l21 5l28 10l13 10h18l15 -12l1 -21
l-12 -20l-66 -28l-37 -6l-24 3z" />
    <glyph glyph-name="ccaron" unicode="&#x10d;" horiz-adv-x="371" 
d="M197 539l-20 7l-15 11l-12 12l-12 16l-15 17l-12 10v13l14 8l23 -7l19 -11l11 -15l12 -10l17 -9l15 6l13 13l10 14l18 12l23 6l13 -4v-14l-10 -12l-10 -11l-7 -13l-10 -10l-10 -12l-19 -12l-19 -5h-17zM229 -10l-42 1l-29 3l-26 9l-12 7l-21 19l-10 7l-8 12l-13 25l-5 12
l-9 30l-4 12l-8 73l-1 36l2 22l-1 13l4 43l4 13l1 14l4 15l5 12l4 14l5 14l7 9l7 14l10 10l8 13l10 9l11 8l12 7l40 14l13 2l22 2l20 -1l30 -7l37 -16l13 -10l9 -8l8 -16l-3 -17l-6 -11l-13 -6l-14 5l-22 16l-13 8l-12 4l-35 4l-21 -2l-12 -3l-13 -5l-10 -8l-9 -11l-8 -11
l-7 -11l-5 -12l-3 -13l-5 -12l-4 -30l-2 -11l-2 -14v-15l-1 -14l1 -23v-33l5 -56l3 -12l2 -14l6 -11l11 -27l8 -11l9 -10l30 -15l26 -2l21 2l27 5l14 4l17 13l16 14l14 4l12 -7l6 -10l4 -14l-7 -19l-12 -10l-11 -6l-24 -15l-13 -3l-14 -7l-13 -3z" />
    <glyph glyph-name="Dcaron" unicode="&#x10e;" horiz-adv-x="455" 
d="M192 748l-20 7l-15 11l-12 12l-12 16l-15 17l-12 10v13l14 8l23 -7l19 -11l11 -15l12 -10l17 -9l15 6l13 13l10 14l18 12l23 6l13 -4v-14l-10 -12l-10 -11l-7 -13l-10 -10l-10 -12l-19 -12l-19 -5h-17zM96 -2l-23 8l-8 18l-1 15l2 13l-2 19l2 14v34l-3 15v49l3 17l-2 12
l1 17l-1 18l2 15l-2 23l1 24l-2 15l2 24l-1 25v23l-1 27l1 13l-1 15l3 16l-2 20l2 14l-3 17l3 77l-4 33l4 47l6 14l15 11l66 -1l17 3l22 -4l41 -1l15 -2l16 -1l30 -9l28 -13l34 -35l7 -11l6 -13l6 -12l16 -47l3 -18l3 -15l5 -14l1 -17v-17l4 -19l-1 -15l4 -16v-98l-2 -17
v-32l-2 -49l-3 -14l-5 -19l-3 -27l-5 -19l-3 -16l-17 -45l-9 -12l-9 -13l-12 -12l-11 -12l-12 -7l-15 -11l-13 -6l-23 -8l-24 -5l-15 -1l-16 1l-63 -3l-15 2zM210 55l15 2l16 5l28 15l13 3l11 10l9 14l9 12l11 28l9 30l7 34v35l2 13l4 118l-6 95l-2 17l-1 16l-5 15l-2 15
l-8 32l-13 26l-11 14l-13 8l-10 11l-14 9l-13 5l-17 2l-13 6l-47 1l-16 -3l-17 -9l-6 -13l1 -15l-2 -20v-14l3 -15l-3 -19l1 -32l1 -12l-1 -108l-2 -16l1 -22l1 -13l1 -80l-3 -16l2 -17l-2 -51l3 -13v-16l-2 -15v-42l9 -20l13 -7l35 -1z" />
    <glyph glyph-name="dcaron" unicode="&#x10f;" horiz-adv-x="495" 
d="M219 -10l-21 1h-19l-15 1l-12 3l-13 9l-25 12l-10 9l-10 10l-7 12l-9 13l-13 23l-3 13l-6 13l-6 31l-2 16l-5 26l-2 29v42l2 14l2 16v13l2 15l3 14l2 13l8 29l16 40l25 33l11 10l12 6l11 9l13 7l12 5l13 2l15 3l20 1h22l14 -4l12 -2l27 -11l10 -6h11l7 10l-1 13l2 23
l-3 89l2 12v15l-1 14l-2 16l1 12l-2 14l4 15l11 6h20l19 -6l8 -13l4 -26l-1 -14l2 -13l-1 -15l1 -34l-1 -57l1 -13v-35l-1 -15l1 -21l-1 -13l1 -38l-1 -39l2 -16l-2 -134l1 -16v-106l4 -55l-6 -14l-12 -8l-15 2l-17 5l-10 11l-2 12l-6 9l-9 -3l-10 -10l-11 -7l-22 -17
l-12 -2zM423 576l3 14l1 16v13l5 28l2 28l9 15l17 9l15 -8l5 -13l-3 -13l-1 -13l-4 -14l-5 -39l-4 -13l-1 -15l-7 -10l-14 -8l-13 9zM190 43l20 1l21 2l12 2l11 5l13 4l11 6l11 10l8 12l8 15l5 19l1 120l1 15l-2 20l1 86l-5 19l-8 17l-35 25l-28 7l-23 1l-20 -1l-20 -7
l-18 -8l-19 -22l-6 -10l-6 -14l-4 -14l-11 -56l1 -12l-3 -28v-22l2 -37l1 -10l1 -28l6 -28l2 -16l5 -11l5 -13l6 -14l9 -10l10 -8l23 -12z" />
    <glyph glyph-name="Dcroat" unicode="&#x110;" horiz-adv-x="476" 
d="M109 -3l-16 8l-8 20l-1 15l2 16l-2 16l3 49l-4 33l3 16l-2 66l3 40l-1 24l-8 18l-32 17l-6 14l7 12l15 7l15 9l8 14l1 69l-2 45l3 15l-3 46l1 36l-2 59l1 16l10 13l22 12l26 -4l16 2l32 -2l46 1l35 -3l30 -9l13 -1l16 -10l12 -6l23 -22l18 -23l11 -11l19 -59l2 -16l4 -16
l1 -15l4 -17l1 -18l3 -15l4 -84l-3 -83l-2 -12v-34l-3 -16l-5 -51l-3 -16l-8 -28l-6 -15l-5 -15l-8 -15l-7 -16l-19 -26l-12 -11l-14 -9l-13 -6l-16 -5l-13 -8l-16 -5l-95 -3l-13 -3l-38 2zM186 54l62 2l42 17l23 19l11 13l15 25l5 14l7 16l1 17l5 15l2 16l2 166l2 14v32
l-2 15v17l-3 18l1 16l-3 13l-2 16l-3 15l-7 16l-4 18l-8 11l-5 14l-12 13l-9 15l-11 10l-14 5l-14 3l-15 5l-16 1l-23 4h-40l-16 -9l-8 -18l4 -31l-3 -14l3 -32l-2 -16l1 -99l-2 -16l2 -17l5 -14l18 -12l17 4l16 -2l14 1l16 -7l9 -14l-7 -14l-17 -9h-31l-15 2l-16 -9
l-10 -15l-1 -18l2 -16l-1 -16l1 -63l-2 -17l2 -14l-3 -80l8 -16l14 -8z" />
    <glyph glyph-name="dcroat" unicode="&#x111;" horiz-adv-x="433" 
d="M218 -11l-40 1l-14 3l-39 15l-23 16l-9 12l-9 11l-14 23l-6 14l-16 55l-1 16l-4 21l-3 37l1 20l1 49l4 30l9 43l3 13l11 25l8 13l6 13l18 22l9 10l24 17l26 8l27 6l42 3l14 -3l24 -8l13 -6l13 -8l12 -1l4 18l1 13l-1 65l-7 13l-14 6l-13 -1l-16 1h-29l-15 7l-7 15l8 16
l21 7l22 -3l15 3l14 -1l15 5l5 16l-2 27l1 13l4 14l10 6l14 1l12 -2l14 -4l7 -14l2 -13l1 -12v-15l7 -15l15 -8l14 -1l13 -4l7 -17l-8 -14l-12 -7h-15l-13 -6l-7 -20l1 -14v-164l-1 -11l1 -16l-1 -16l1 -12l-1 -168l2 -16v-68l1 -16l1 -15l2 -14l-6 -11l-12 -10h-15l-18 8
l-10 10l-3 15l-6 7l-9 -3l-20 -19l-11 -8l-23 -11l-13 -3zM208 43l26 5l19 5l12 5l11 9l12 8l8 10l10 16l4 21l-1 26l2 14l-1 28v14l-1 15l1 140l-5 19l-15 23l-15 12l-14 6l-13 4l-15 4l-21 3l-34 -4l-25 -12l-10 -9l-9 -13l-17 -36l-8 -58l-1 -14l-2 -13l-1 -16l1 -21
l-1 -21l2 -13l1 -14l-1 -14l6 -39l5 -14l3 -14l7 -13l7 -11l8 -10l10 -11l10 -8l13 -4l11 -4z" />
    <glyph glyph-name="Emacron" unicode="&#x112;" horiz-adv-x="403" 
d="M162 763l-14 5h-17l-17 5l-6 17l8 13l17 6h30l17 1l16 -3l15 2l17 -1l17 3h45l19 -9l8 -13l-8 -15l-17 -7l-16 -1h-18l-14 -2l-50 2l-14 1zM329 -4l-16 4h-31l-16 1l-16 -3l-15 2l-32 -2l-16 3l-14 -2l-15 2l-32 -4l-31 1l-16 8l-9 16l2 114l-3 49l1 17l2 14l-2 18l2 13
l1 16l-3 18l-1 18l1 28l1 16l-1 18l3 18l-2 17l2 45l-1 20v14l-1 31l1 18l-2 23l3 40l-3 13v16l1 12l-1 18l-1 17l-2 13l7 18l15 7l17 -4l14 4l16 -4l48 4l81 -3l48 1l16 -1l14 -8l10 -11l1 -15l-10 -14l-26 -9l-23 2l-16 2l-18 -1l-15 -2l-17 4l-34 -1l-32 -4l-17 -9
l-9 -23l-1 -57l2 -33l-2 -14l2 -48l-2 -17l2 -14l-1 -16l7 -20l17 -6l14 -1l16 2l25 -1l30 1l25 -2l29 -1l16 2l17 -8l7 -17l-8 -20l-15 -9l-30 -3l-15 4l-34 -1l-14 2l-17 -2l-31 -1l-17 2l-15 -11l-8 -14l2 -15l-1 -18l2 -18v-17l-2 -13l2 -18l-3 -102l1 -18l8 -23l18 -8
l32 1l17 -3l17 2h34l17 -3l15 2l16 -1l16 1l17 -6l9 -15l-1 -15l-7 -15z" />
    <glyph glyph-name="emacron" unicode="&#x113;" horiz-adv-x="388" 
d="M154 554l-14 5h-17l-17 5l-6 17l8 13l17 6h30l17 1l16 -3l15 2l17 -1l17 3h45l19 -9l8 -13l-8 -15l-17 -7l-16 -1h-18l-14 -2l-50 2l-14 1zM183 -11l-14 3l-40 13l-12 9l-20 19l-24 33l-6 13l-11 26l-4 13l-1 17l-5 12l-1 15l-2 14l-2 15l-1 55l5 57l5 28l10 43l5 14
l6 13l15 22l18 24l10 8l13 8l38 16l29 5l20 -1l21 -2l26 -4l38 -20l21 -22l14 -24l4 -12l4 -36l-5 -36l-3 -12l-3 -14l-7 -14l-21 -36l-30 -29l-12 -10l-35 -21l-13 -5l-15 -5l-26 -10l-14 -3l-14 -1l-15 -4l-12 -7l-6 -14l6 -22l8 -21l21 -35l23 -16l13 -3l22 -2l21 1l14 4
l15 2l12 6l18 11l18 14l14 6l12 -6l6 -12l2 -16l-7 -15l-10 -10l-12 -10l-12 -7l-14 -5l-14 -7l-27 -7l-13 -2zM126 210l14 3l28 8l12 5l25 13l35 23l9 11l7 12l7 14l5 13l4 12l3 15l1 21l-1 20l-3 15l-18 22l-10 5l-15 6h-19l-26 -3l-21 -5l-10 -7l-9 -8l-9 -10l-8 -14
l-10 -27l-12 -69l1 -28l-2 -28l8 -14z" />
    <glyph glyph-name="Edotaccent" unicode="&#x116;" horiz-adv-x="403" 
d="M212 759l-22 4l-9 7l-6 23l5 21l9 11l21 5l23 -2l11 -15l3 -20l-4 -21l-11 -12zM329 -4l-16 4h-31l-16 1l-16 -3l-15 2l-32 -2l-16 3l-14 -2l-15 2l-32 -4l-31 1l-16 8l-9 16l2 114l-3 49l1 17l2 14l-2 18l2 13l1 16l-3 18l-1 18l1 28l1 16l-1 18l3 18l-2 17l2 45l-1 20
v14l-1 31l1 18l-2 23l3 40l-3 13v16l1 12l-1 18l-1 17l-2 13l7 18l15 7l17 -4l14 4l16 -4l48 4l81 -3l48 1l16 -1l14 -8l10 -11l1 -15l-10 -14l-26 -9l-23 2l-16 2l-18 -1l-15 -2l-17 4l-34 -1l-32 -4l-17 -9l-9 -23l-1 -57l2 -33l-2 -14l2 -48l-2 -17l2 -14l-1 -16l7 -20
l17 -6l14 -1l16 2l25 -1l30 1l25 -2l29 -1l16 2l17 -8l7 -17l-8 -20l-15 -9l-30 -3l-15 4l-34 -1l-14 2l-17 -2l-31 -1l-17 2l-15 -11l-8 -14l2 -15l-1 -18l2 -18v-17l-2 -13l2 -18l-3 -102l1 -18l8 -23l18 -8l32 1l17 -3l17 2h34l17 -3l15 2l16 -1l16 1l17 -6l9 -15l-1 -15
l-7 -15z" />
    <glyph glyph-name="edotaccent" unicode="&#x117;" horiz-adv-x="388" 
d="M204 550l-22 4l-9 7l-6 23l5 21l9 11l21 5l23 -2l11 -15l3 -20l-4 -21l-11 -12zM183 -11l-14 3l-40 13l-12 9l-20 19l-24 33l-6 13l-11 26l-4 13l-1 17l-5 12l-1 15l-2 14l-2 15l-1 55l5 57l5 28l10 43l5 14l6 13l15 22l18 24l10 8l13 8l38 16l29 5l20 -1l21 -2l26 -4
l38 -20l21 -22l14 -24l4 -12l4 -36l-5 -36l-3 -12l-3 -14l-7 -14l-21 -36l-30 -29l-12 -10l-35 -21l-13 -5l-15 -5l-26 -10l-14 -3l-14 -1l-15 -4l-12 -7l-6 -14l6 -22l8 -21l21 -35l23 -16l13 -3l22 -2l21 1l14 4l15 2l12 6l18 11l18 14l14 6l12 -6l6 -12l2 -16l-7 -15
l-10 -10l-12 -10l-12 -7l-14 -5l-14 -7l-27 -7l-13 -2zM126 210l14 3l28 8l12 5l25 13l35 23l9 11l7 12l7 14l5 13l4 12l3 15l1 21l-1 20l-3 15l-18 22l-10 5l-15 6h-19l-26 -3l-21 -5l-10 -7l-9 -8l-9 -10l-8 -14l-10 -27l-12 -69l1 -28l-2 -28l8 -14z" />
    <glyph glyph-name="Eogonek" unicode="&#x118;" horiz-adv-x="423" 
d="M300 -218l-13 2l-16 4l-15 9l-8 13l-10 24l-5 20l5 32l1 15l6 10l7 17l6 13l28 38l1 15l-11 3l-19 3l-30 1l-16 -3h-16l-19 -1l-15 1h-17l-14 -1l-26 1l-27 8l-7 16l2 26l-3 22l2 27l-1 40l3 15l-3 17v71l2 18v37l-3 40l3 44l-2 13l-1 17l3 17l-2 16l1 18l-2 13v33l3 38
l-3 38v18l2 16l-2 14l1 34l-3 14l7 13l13 9l32 -2l16 4l17 -3l15 -2l146 5l31 -9l8 -22l-8 -20l-16 -7l-18 -4l-65 3l-17 2l-17 -2h-15l-16 -2l-19 1l-16 -7l-9 -18l1 -15l1 -22l-3 -28l1 -13l1 -99l-2 -13l2 -17l7 -19l23 -8h17l23 2l31 -1l16 2l15 -3l34 2l15 -1l13 -9
l9 -21l-8 -16l-16 -8l-15 -3h-110l-25 3l-22 -9l-9 -16l4 -75l-3 -38l2 -58l-2 -22l1 -22l9 -26l15 -8l17 -4l18 3l15 -1l18 3l17 -3h29l18 3l35 -3l16 -4l8 -21l-5 -28l-20 -35l-21 -27l-13 -27l-5 -17l-2 -16l2 -25l8 -20l14 -5l14 -3l32 2l9 -9l-1 -16l-15 -14l-17 -6
h-15z" />
    <glyph glyph-name="eogonek" unicode="&#x119;" horiz-adv-x="388" 
d="M268 -219l-13 1l-27 7l-11 6l-11 9l-7 11l-8 20l-5 18l1 30l5 24l10 29l20 38l1 12l-17 3l-23 1l-14 2l-26 8l-12 6l-12 10l-12 8l-10 10l-8 12l-9 9l-7 10l-6 14l-4 15l-5 14l-6 11l-3 14l-3 29l-3 15l-2 72l7 68l5 29l8 28l4 12l20 38l9 13l21 18l11 8l13 7l26 9l14 4
l57 1l14 -3l12 -5l14 -4l13 -8l21 -17l9 -10l9 -11l5 -13l5 -15l4 -35l-1 -21l-3 -14l-3 -15l-6 -11l-5 -14l-7 -14l-15 -21l-29 -32l-12 -9l-10 -8l-14 -7l-13 -6l-13 -3l-13 -6l-27 -8l-12 -6l-29 -4l-13 -8l-5 -16l7 -26l6 -15l13 -22l9 -12l11 -8l19 -10l28 -4l35 4
l13 4l26 13l12 7l10 10l14 4l13 -6l8 -12v-14l-6 -15l-10 -10l-9 -8l-10 -13l-9 -9l-7 -12l-17 -21l-13 -26l-10 -24l-2 -15l-4 -11v-13l2 -21l8 -19l8 -6l13 -2l13 -1l14 4l14 -2l9 -9l-2 -16l-10 -13l-26 -6zM126 208l14 6l42 11l12 6l23 16l12 9l10 10l10 8l14 26l10 25
l2 12l2 23l-1 22l-4 12l-7 13l-9 7l-13 8l-12 7l-20 2l-21 -1l-14 -4l-24 -14l-8 -7l-22 -36l-10 -42l-2 -13l-3 -28v-14l-2 -17v-13l1 -13l6 -14z" />
    <glyph glyph-name="Ecaron" unicode="&#x11a;" horiz-adv-x="403" 
d="M205 748l-20 7l-15 11l-12 12l-12 16l-15 17l-12 10v13l14 8l23 -7l19 -11l11 -15l12 -10l17 -9l15 6l13 13l10 14l18 12l23 6l13 -4v-14l-10 -12l-10 -11l-7 -13l-10 -10l-10 -12l-19 -12l-19 -5h-17zM329 -4l-16 4h-31l-16 1l-16 -3l-15 2l-32 -2l-16 3l-14 -2l-15 2
l-32 -4l-31 1l-16 8l-9 16l2 114l-3 49l1 17l2 14l-2 18l2 13l1 16l-3 18l-1 18l1 28l1 16l-1 18l3 18l-2 17l2 45l-1 20v14l-1 31l1 18l-2 23l3 40l-3 13v16l1 12l-1 18l-1 17l-2 13l7 18l15 7l17 -4l14 4l16 -4l48 4l81 -3l48 1l16 -1l14 -8l10 -11l1 -15l-10 -14l-26 -9
l-23 2l-16 2l-18 -1l-15 -2l-17 4l-34 -1l-32 -4l-17 -9l-9 -23l-1 -57l2 -33l-2 -14l2 -48l-2 -17l2 -14l-1 -16l7 -20l17 -6l14 -1l16 2l25 -1l30 1l25 -2l29 -1l16 2l17 -8l7 -17l-8 -20l-15 -9l-30 -3l-15 4l-34 -1l-14 2l-17 -2l-31 -1l-17 2l-15 -11l-8 -14l2 -15
l-1 -18l2 -18v-17l-2 -13l2 -18l-3 -102l1 -18l8 -23l18 -8l32 1l17 -3l17 2h34l17 -3l15 2l16 -1l16 1l17 -6l9 -15l-1 -15l-7 -15z" />
    <glyph glyph-name="ecaron" unicode="&#x11b;" horiz-adv-x="388" 
d="M197 539l-20 7l-15 11l-12 12l-12 16l-15 17l-12 10v13l14 8l23 -7l19 -11l11 -15l12 -10l17 -9l15 6l13 13l10 14l18 12l23 6l13 -4v-14l-10 -12l-10 -11l-7 -13l-10 -10l-10 -12l-19 -12l-19 -5h-17zM183 -11l-14 3l-40 13l-12 9l-20 19l-24 33l-6 13l-11 26l-4 13
l-1 17l-5 12l-1 15l-2 14l-2 15l-1 55l5 57l5 28l10 43l5 14l6 13l15 22l18 24l10 8l13 8l38 16l29 5l20 -1l21 -2l26 -4l38 -20l21 -22l14 -24l4 -12l4 -36l-5 -36l-3 -12l-3 -14l-7 -14l-21 -36l-30 -29l-12 -10l-35 -21l-13 -5l-15 -5l-26 -10l-14 -3l-14 -1l-15 -4
l-12 -7l-6 -14l6 -22l8 -21l21 -35l23 -16l13 -3l22 -2l21 1l14 4l15 2l12 6l18 11l18 14l14 6l12 -6l6 -12l2 -16l-7 -15l-10 -10l-12 -10l-12 -7l-14 -5l-14 -7l-27 -7l-13 -2zM126 210l14 3l28 8l12 5l25 13l35 23l9 11l7 12l7 14l5 13l4 12l3 15l1 21l-1 20l-3 15
l-18 22l-10 5l-15 6h-19l-26 -3l-21 -5l-10 -7l-9 -8l-9 -10l-8 -14l-10 -27l-12 -69l1 -28l-2 -28l8 -14z" />
    <glyph glyph-name="Gbreve" unicode="&#x11e;" horiz-adv-x="443" 
d="M235 748l-23 5h-14l-16 5l-14 8l-11 9l-12 8l-10 13l-2 14l7 20l16 2l16 -10l11 -10l15 -11l13 -4l25 -3l24 2l13 4l16 10l9 12l16 6l14 2l7 -17l-2 -20l-8 -13l-14 -8l-12 -7l-13 -7l-14 -5l-13 -3zM231 -13l-22 1l-25 3l-36 13l-12 11l-13 7l-12 10l-25 36l-13 29
l-9 28l-2 16l-4 16l-2 17l-4 16l-2 19l-7 113l2 27l-2 21l3 52l-1 14l3 34l4 17v17l1 13l8 34l1 14l24 65l9 15l12 9l7 12l15 12l15 10l25 10l16 5l31 5l66 -3l30 -9l23 -11l18 -11l7 -16l-1 -17l-8 -11l-15 -5l-16 2l-15 7l-13 7l-15 6l-15 3h-50l-27 -9l-11 -7l-21 -19
l-11 -15l-6 -15l-8 -27l-7 -36l-1 -14l-3 -18l-4 -51l1 -17l-3 -14l1 -18l-1 -17l5 -141l-2 -17l6 -34l4 -13l1 -19l10 -30l3 -15l7 -11l21 -24l13 -13l14 -7l13 -4l26 -2l23 2l27 16l12 10l11 12l9 13l5 16l12 59l-2 18l3 49l-2 20l1 26l1 14l-9 16l-15 7l-18 -4l-15 1
l-18 4l-13 -2h-16l-15 8l-9 17l7 20l16 7l32 -1l18 1l15 3l16 1l16 -3h32l18 3l15 -12l8 -13l2 -34l-3 -34v-17l1 -14v-64l-3 -19l-2 -11l-4 -34l-14 -45l-5 -13l-11 -12l-20 -27l-10 -11l-15 -6l-14 -10l-12 -4l-17 -2l-15 -6z" />
    <glyph glyph-name="gbreve" unicode="&#x11f;" horiz-adv-x="432" 
d="M210 539l-23 5h-14l-16 5l-14 8l-11 9l-12 8l-10 13l-2 14l7 20l16 2l16 -10l11 -10l15 -11l13 -4l25 -3l24 2l13 4l16 10l9 12l16 6l14 2l7 -17l-2 -20l-8 -13l-14 -8l-12 -7l-13 -7l-14 -5l-13 -3zM204 -262l-20 2l-15 1l-13 1l-14 4l-12 7l-12 4l-34 23l-6 16l3 15
l7 13l11 5l13 -3l11 -9l12 -8l14 -6l26 -9h21l13 -2l22 3l13 5l24 13l11 8l7 11l8 14l6 13l8 26l3 70l-1 13v14l1 18l-1 21l-5 10l-10 -2l-10 -10l-30 -19l-20 -6l-15 -3l-20 -1l-22 2l-34 6l-20 11l-10 7l-10 10l-10 8l-9 13l-8 9l-6 13l-6 15l-5 12l-8 30l-2 13l-4 14
l-2 16v15l-2 28v23l-1 21v14l4 24l1 15l4 31l12 37l17 39l9 14l27 27l11 10l13 5l20 5l19 4l44 1l27 -7l14 -6l13 -7l12 -10l11 -7l9 -4l8 9l10 15l17 10l16 1l12 -9l6 -16l-3 -69l1 -34l-1 -36v-21l-1 -34l1 -15l1 -14l-1 -13l-1 -36l2 -19v-15l-2 -22v-13l1 -14v-21l1 -14
l-1 -13l1 -15l-1 -16l1 -12v-12l-2 -14l2 -14l-1 -59l-1 -11l-2 -14l-12 -40l-5 -12l-6 -12l-8 -12l-8 -11l-20 -20l-23 -16l-11 -6l-14 -4l-14 -3l-12 -6l-13 -1h-21zM209 43l20 2l13 2l12 4l13 6l32 26l9 18l4 19v15l-1 14v122l-1 12l2 22v37l-5 27l-9 17l-10 10l-12 9
l-23 14l-13 5l-15 3l-20 1l-21 -1l-12 -4l-13 -6l-10 -6l-10 -9l-15 -22l-9 -28l-2 -12l-2 -16l-1 -11l-2 -15l-1 -29v-14l-1 -22l1 -20v-14l2 -13v-13l4 -28l3 -13l2 -15l5 -13l12 -23l9 -13l8 -8l11 -9l13 -3l13 -4z" />
    <glyph glyph-name="Gdotaccent" unicode="&#x120;" horiz-adv-x="443" 
d="M233 759l-22 4l-9 7l-6 23l5 21l9 11l21 5l23 -2l11 -15l3 -20l-4 -21l-11 -12zM231 -13l-22 1l-25 3l-36 13l-12 11l-13 7l-12 10l-25 36l-13 29l-9 28l-2 16l-4 16l-2 17l-4 16l-2 19l-7 113l2 27l-2 21l3 52l-1 14l3 34l4 17v17l1 13l8 34l1 14l24 65l9 15l12 9l7 12
l15 12l15 10l25 10l16 5l31 5l66 -3l30 -9l23 -11l18 -11l7 -16l-1 -17l-8 -11l-15 -5l-16 2l-15 7l-13 7l-15 6l-15 3h-50l-27 -9l-11 -7l-21 -19l-11 -15l-6 -15l-8 -27l-7 -36l-1 -14l-3 -18l-4 -51l1 -17l-3 -14l1 -18l-1 -17l5 -141l-2 -17l6 -34l4 -13l1 -19l10 -30
l3 -15l7 -11l21 -24l13 -13l14 -7l13 -4l26 -2l23 2l27 16l12 10l11 12l9 13l5 16l12 59l-2 18l3 49l-2 20l1 26l1 14l-9 16l-15 7l-18 -4l-15 1l-18 4l-13 -2h-16l-15 8l-9 17l7 20l16 7l32 -1l18 1l15 3l16 1l16 -3h32l18 3l15 -12l8 -13l2 -34l-3 -34v-17l1 -14v-64
l-3 -19l-2 -11l-4 -34l-14 -45l-5 -13l-11 -12l-20 -27l-10 -11l-15 -6l-14 -10l-12 -4l-17 -2l-15 -6z" />
    <glyph glyph-name="gdotaccent" unicode="&#x121;" horiz-adv-x="432" 
d="M208 550l-22 4l-9 7l-6 23l5 21l9 11l21 5l23 -2l11 -15l3 -20l-4 -21l-11 -12zM204 -262l-20 2l-15 1l-13 1l-14 4l-12 7l-12 4l-34 23l-6 16l3 15l7 13l11 5l13 -3l11 -9l12 -8l14 -6l26 -9h21l13 -2l22 3l13 5l24 13l11 8l7 11l8 14l6 13l8 26l3 70l-1 13v14l1 18
l-1 21l-5 10l-10 -2l-10 -10l-30 -19l-20 -6l-15 -3l-20 -1l-22 2l-34 6l-20 11l-10 7l-10 10l-10 8l-9 13l-8 9l-6 13l-6 15l-5 12l-8 30l-2 13l-4 14l-2 16v15l-2 28v23l-1 21v14l4 24l1 15l4 31l12 37l17 39l9 14l27 27l11 10l13 5l20 5l19 4l44 1l27 -7l14 -6l13 -7
l12 -10l11 -7l9 -4l8 9l10 15l17 10l16 1l12 -9l6 -16l-3 -69l1 -34l-1 -36v-21l-1 -34l1 -15l1 -14l-1 -13l-1 -36l2 -19v-15l-2 -22v-13l1 -14v-21l1 -14l-1 -13l1 -15l-1 -16l1 -12v-12l-2 -14l2 -14l-1 -59l-1 -11l-2 -14l-12 -40l-5 -12l-6 -12l-8 -12l-8 -11l-20 -20
l-23 -16l-11 -6l-14 -4l-14 -3l-12 -6l-13 -1h-21zM209 43l20 2l13 2l12 4l13 6l32 26l9 18l4 19v15l-1 14v122l-1 12l2 22v37l-5 27l-9 17l-10 10l-12 9l-23 14l-13 5l-15 3l-20 1l-21 -1l-12 -4l-13 -6l-10 -6l-10 -9l-15 -22l-9 -28l-2 -12l-2 -16l-1 -11l-2 -15l-1 -29
v-14l-1 -22l1 -20v-14l2 -13v-13l4 -28l3 -13l2 -15l5 -13l12 -23l9 -13l8 -8l11 -9l13 -3l13 -4z" />
    <glyph glyph-name="Gcommaaccent" unicode="&#x122;" horiz-adv-x="443" 
d="M231 -13l-22 1l-25 3l-36 13l-12 11l-13 7l-12 10l-25 36l-13 29l-9 28l-2 16l-4 16l-2 17l-4 16l-2 19l-7 113l2 27l-2 21l3 52l-1 14l3 34l4 17v17l1 13l8 34l1 14l24 65l9 15l12 9l7 12l15 12l15 10l25 10l16 5l31 5l66 -3l30 -9l23 -11l18 -11l7 -16l-1 -17l-8 -11
l-15 -5l-16 2l-15 7l-13 7l-15 6l-15 3h-50l-27 -9l-11 -7l-21 -19l-11 -15l-6 -15l-8 -27l-7 -36l-1 -14l-3 -18l-4 -51l1 -17l-3 -14l1 -18l-1 -17l5 -141l-2 -17l6 -34l4 -13l1 -19l10 -30l3 -15l7 -11l21 -24l13 -13l14 -7l13 -4l26 -2l23 2l27 16l12 10l11 12l9 13
l5 16l12 59l-2 18l3 49l-2 20l1 26l1 14l-9 16l-15 7l-18 -4l-15 1l-18 4l-13 -2h-16l-15 8l-9 17l7 20l16 7l32 -1l18 1l15 3l16 1l16 -3h32l18 3l15 -12l8 -13l2 -34l-3 -34v-17l1 -14v-64l-3 -19l-2 -11l-4 -34l-14 -45l-5 -13l-11 -12l-20 -27l-10 -11l-15 -6l-14 -10
l-12 -4l-17 -2l-15 -6zM234 -89h17l13 -9l3 -12l-8 -16l-3 -14l-6 -14l-6 -17l-4 -11l-5 -16l-3 -16l-6 -15l-14 -14l-17 -9l-11 10l-3 14l2 18l6 15l3 18l4 18l3 16l3 17l3 13l12 16z" />
    <glyph glyph-name="gcommaaccent" unicode="&#x123;" horiz-adv-x="431" 
d="M206 536l-14 5l-5 14l15 64l12 15l22 7l18 -8l1 -11l-11 -41l-5 -13l-4 -15l-12 -11zM204 -262l-20 2l-15 1l-13 1l-14 4l-12 7l-12 4l-34 23l-6 16l3 15l7 13l11 5l13 -3l11 -9l12 -8l14 -6l26 -9h21l13 -2l22 3l13 5l24 13l11 8l7 11l8 14l6 13l8 26l3 70l-1 13v14
l1 18l-1 21l-5 10l-10 -2l-10 -10l-30 -19l-20 -6l-15 -3l-20 -1l-22 2l-34 6l-20 11l-10 7l-10 10l-10 8l-9 13l-8 9l-6 13l-6 15l-5 12l-8 30l-2 13l-4 14l-2 16v15l-2 28v23l-1 21v14l4 24l1 15l4 31l12 37l17 39l9 14l27 27l11 10l13 5l20 5l19 4l44 1l27 -7l14 -6
l13 -7l12 -10l11 -7l9 -4l8 9l10 15l17 10l16 1l12 -9l6 -16l-3 -69l1 -34l-1 -36v-21l-1 -34l1 -15l1 -14l-1 -13l-1 -36l2 -19v-15l-2 -22v-13l1 -14v-21l1 -14l-1 -13l1 -15l-1 -16l1 -12v-12l-2 -14l2 -14l-1 -59l-1 -11l-2 -14l-12 -40l-5 -12l-6 -12l-8 -12l-8 -11
l-20 -20l-23 -16l-11 -6l-14 -4l-14 -3l-12 -6l-13 -1h-21zM209 43l20 2l13 2l12 4l13 6l32 26l9 18l4 19v15l-1 14v122l-1 12l2 22v37l-5 27l-9 17l-10 10l-12 9l-23 14l-13 5l-15 3l-20 1l-21 -1l-12 -4l-13 -6l-10 -6l-10 -9l-15 -22l-9 -28l-2 -12l-2 -16l-1 -11l-2 -15
l-1 -29v-14l-1 -22l1 -20v-14l2 -13v-13l4 -28l3 -13l2 -15l5 -13l12 -23l9 -13l8 -8l11 -9l13 -3l13 -4z" />
    <glyph glyph-name="Hbar" unicode="&#x126;" horiz-adv-x="545" 
d="M136 -2l-17 2l-14 8l-10 16l-1 14l2 26l-1 24l1 16l-1 16l1 25l-2 40l2 17l-2 16l2 96l-1 14l-1 19l3 17l-2 31l2 33v32l-10 17l-15 9l-18 6l-10 14l9 18l16 5l16 7l9 14l1 35l2 14l-1 16l1 17l-1 13l-2 14l-1 20l6 14l14 7l16 -2l18 -5l9 -11l3 -13l-1 -19l3 -16l-2 -30
l2 -16l1 -18l-2 -17l9 -13l16 -12l16 3l15 -4l16 -1l23 4l23 -1l32 1l14 -3h16l18 2l15 7l8 17l-1 31l2 31l-2 16l-1 31l2 15l9 14l15 9h16l17 -10l8 -16l2 -15l-3 -27v-48l2 -13l-1 -18l9 -14l16 -9l20 -8l7 -18l-9 -14l-16 -4l-19 -9l-7 -16v-18l-1 -13l1 -16l-2 -94
l4 -66l-3 -57l2 -15l-2 -54l2 -17l-3 -14l2 -16l2 -61l-5 -14l-16 -6l-15 -1l-18 7l-10 13l-2 15v13l-3 104l3 24l-2 50l1 17l-2 14l1 19v32l-8 16l-17 12l-22 -1l-18 -4h-21l-16 1l-14 3l-65 -2l-15 1l-17 -7l-5 -17l-2 -18l2 -13l-2 -34l2 -15v-31l-2 -19l-1 -78l2 -15
l-1 -31l2 -22l-9 -27zM341 386l14 2l18 7l7 28l1 31l-8 24l-16 6l-16 2l-17 -4l-14 2l-17 -2l-14 3l-16 2l-14 -4l-25 2l-15 -2h-22l-16 -8l-7 -14l-2 -31l2 -16l7 -18l12 -9l42 3l101 -1z" />
    <glyph glyph-name="hbar" unicode="&#x127;" horiz-adv-x="414" 
d="M79 -2l-13 10l-6 13v14l1 56l-2 14l2 14l-1 12l1 16l-1 14l1 12l-2 70l2 28l-1 14l-1 37l1 12l1 44l-1 13l1 13l-1 34l1 32l-1 14l-1 13l2 39l-8 17l-15 6l-13 1l-15 8l-7 13l8 13l14 8l14 1l15 6l6 13l-2 41l-2 14l4 16l11 6l14 1l13 -3l13 -5l10 -13l-1 -14l1 -14
l2 -13l-1 -15l8 -14l14 -7h14l37 1l22 -9l6 -14l-6 -14l-14 -7l-16 -1l-14 2l-22 1l-22 -10l-7 -14l2 -15v-13l-1 -15l1 -15l-1 -15l1 -14l4 -8l11 2l37 23l13 5l13 2l14 5l14 3l21 2l22 -2l13 -3l14 -3l22 -16l17 -21l6 -15l4 -13l3 -14l3 -32l-1 -43l1 -16l-1 -15l2 -20
l-1 -13l1 -13l-2 -37l1 -13l-1 -15l2 -51l2 -112l-5 -12l-18 -7l-11 1l-21 6l-8 11l-3 26v15l-1 15l1 12v15l-1 16l1 140l-1 14l1 16v12l-2 13v69l-2 13l-6 14l-17 19l-13 1l-19 4l-35 -5l-15 -5l-23 -14l-21 -17l-12 -17l-3 -18v-15l-1 -14l1 -12v-16l-1 -15v-55l1 -13
l-1 -14l1 -14l-1 -14l1 -14l-1 -15l1 -26l-1 -12l1 -59l-2 -20l-6 -21l-11 -5z" />
    <glyph glyph-name="Imacron" unicode="&#x12a;" horiz-adv-x="210" 
d="M49 763l-14 5h-17l-17 5l-7 17l9 13l17 6h30l17 1l16 -3l15 2l17 -1l17 3h45l19 -9l8 -13l-8 -15l-17 -7l-16 -1h-18l-14 -2l-50 2l-14 1zM118 -1l-15 1l-18 5l-11 15l-3 28l-1 16l2 15l-1 14l2 19l-2 13l1 25l-2 23l3 16l-3 112l2 15l-2 33l2 15l-1 17l1 70l-1 26l2 13
l-1 77l-2 18v14l3 17l-1 15l-2 14v18l-2 13l6 16l16 9l15 -2l18 -7l11 -13v-14l3 -47l-1 -17l2 -17v-36l-3 -33l3 -100l-2 -17l3 -161l-4 -32l1 -14l3 -18l-3 -23l1 -21l-1 -17l4 -61l-1 -16l2 -13l-7 -17z" />
    <glyph glyph-name="imacron" unicode="&#x12b;" horiz-adv-x="178" 
d="M29 554l-14 5h-17l-17 5l-7 17l8 13l17 6h31l17 1l16 -3l15 2l17 -1l17 3h45l19 -9l8 -13l-8 -15l-17 -7l-16 -1h-18l-14 -2l-50 2l-14 1zM59 16v12l-4 72l1 14l1 80l-1 14l1 15v13l-1 16l1 15l-1 13v21l-1 20l1 20l-1 14l1 14l-1 30l1 14l-2 13l-1 27l3 15l12 5l20 -1
l20 -6l7 -11l3 -27l1 -16l1 -15l1 -16l-1 -13l1 -52l-2 -36l1 -51l-1 -17l1 -110l-1 -14l2 -14l-1 -11v-14l2 -29l-3 -15l-17 -5l-21 -1l-14 6z" />
    <glyph glyph-name="Iogonek" unicode="&#x12e;" horiz-adv-x="269" 
d="M150 -218l-16 2l-33 6l-13 9l-10 14l-11 20l-4 23l4 32l9 29l17 25l8 17l19 23l6 11l-10 25l-4 44l2 17v33l-3 39l2 24l-2 30l1 42l-1 22l2 94l-2 18l2 14v15l-1 15l2 21l-2 15l1 109l-1 15l1 17l-4 76l8 14l12 6l17 4l20 -10l9 -12l5 -235l-3 -19l2 -30l-2 -15l4 -357
l-3 -25l-18 -31l-31 -43l-6 -12l-5 -18l-2 -17l3 -24l8 -20l12 -5l14 -1l33 3l12 -10l-2 -18l-14 -12z" />
    <glyph glyph-name="iogonek" unicode="&#x12f;" horiz-adv-x="239" 
d="M129 555l-19 1l-13 8l-7 12l-4 21l4 19l9 12l10 9l22 1h20l10 -9l10 -12l3 -20l-4 -23l-9 -9l-11 -8zM130 -220l-21 4l-19 6l-11 5l-11 8l-8 11l-7 20l-4 21l1 29l3 11l5 13l16 34l37 51l-8 24l-1 13l-2 29v14l-1 14l1 12l-1 17l1 14l-1 44v13l-1 14v42l2 21l-1 14l1 17
l-2 26l1 36v43l-2 13l1 12l-2 14v13l4 14l11 9l27 -1l12 -7l10 -13l3 -40v-33l-1 -12l1 -23l-1 -23l1 -14v-27l-1 -35l1 -19v-28l-1 -14l1 -15l-1 -21l1 -33v-15l1 -14l2 -67l-2 -19l-13 -23l-28 -41l-13 -23l-6 -15l-2 -12l-2 -11l3 -22l6 -18l12 -5l11 -5h14l12 4h15
l9 -12l-1 -15l-12 -12l-25 -10z" />
    <glyph glyph-name="Idotaccent" unicode="&#x130;" horiz-adv-x="210" 
d="M99 759l-22 4l-9 7l-6 23l5 21l9 11l21 5l23 -2l11 -15l3 -20l-4 -21l-11 -12zM118 -1l-15 1l-18 5l-11 15l-3 28l-1 16l2 15l-1 14l2 19l-2 13l1 25l-2 23l3 16l-3 112l2 15l-2 33l2 15l-1 17l1 70l-1 26l2 13l-1 77l-2 18v14l3 17l-1 15l-2 14v18l-2 13l6 16l16 9
l15 -2l18 -7l11 -13v-14l3 -47l-1 -17l2 -17v-36l-3 -33l3 -100l-2 -17l3 -161l-4 -32l1 -14l3 -18l-3 -23l1 -21l-1 -17l4 -61l-1 -16l2 -13l-7 -17z" />
    <glyph glyph-name="dotlessi" unicode="&#x131;" horiz-adv-x="178" 
d="M59 16v12l-4 72l1 14l1 80l-1 14l1 15v13l-1 16l1 15l-1 13v21l-1 20l1 20l-1 14l1 14l-1 30l1 14l-2 13l-1 27l3 15l12 5l20 -1l20 -6l7 -11l3 -27l1 -16l1 -15l1 -16l-1 -13l1 -52l-2 -36l1 -51l-1 -17l1 -110l-1 -14l2 -14l-1 -11v-14l2 -29l-3 -15l-17 -5l-21 -1
l-14 6z" />
    <glyph glyph-name="IJ" unicode="&#x132;" horiz-adv-x="396" 
d="M183 -121l-18 8l-12 16l4 22l14 11h16l30 14l18 21l10 15l12 27l5 35l-1 16l3 47l-1 18l2 13l-2 79l2 19l-3 14v25l2 39l-1 64l2 17l-1 14l-2 15l3 15v49l-2 16l1 16l-2 153l5 15l14 8h15l20 -6l10 -12l3 -29v-178l1 -14l-1 -15l2 -19l-2 -15l2 -77l-3 -17l2 -17l-1 -14
l-1 -17l3 -31l-1 -14l-1 -32l2 -15l-2 -18l2 -31v-14l-3 -18l2 -26l-3 -36l-3 -15l-3 -18l-6 -14l-5 -16l-27 -46l-13 -9l-10 -8l-17 -10l-12 -9l-14 -6l-17 -4zM119 -3l-35 9l-10 11l-2 16l1 14l-1 18l-2 15l1 13l-1 19l2 17v51l-2 26v33l2 14v31l-3 25v43l2 11v15l-1 21
l2 58l-2 19l2 25l-2 45l2 21l-3 32l2 17l-2 16l2 12l-4 35l8 14l14 6h16l16 -5l12 -15l2 -12l1 -15l-2 -31l2 -35l2 -16l-3 -45l3 -17l-2 -18v-77l3 -34l-1 -14l-3 -15l2 -15l-2 -17l1 -14l2 -16l-3 -60l2 -24l-1 -12l2 -16l-3 -26l2 -21l-1 -18l1 -16l-2 -15l1 -11l3 -18
v-14l2 -13l-6 -16z" />
    <glyph glyph-name="ij" unicode="&#x133;" horiz-adv-x="355" 
d="M259 554l-21 1l-11 9l-8 13l-3 19l2 21l9 12l11 8l21 5l21 -3l11 -10l7 -11l3 -22l-3 -20l-7 -12l-12 -6zM95 556l-21 3l-12 7l-7 12l-4 20l4 19l7 11l12 11l20 2l21 -3l11 -7l10 -13l3 -23l-4 -21l-9 -10l-11 -6zM89 -3l-14 8l-8 9l-2 15l-2 12l1 15l-2 29l1 187l-2 13
l2 16l-2 98l1 29l-2 10l-2 14l6 14l12 8l11 1l14 -1l13 -5l8 -14l3 -13l1 -13l-1 -16l2 -47l-1 -168l1 -15v-134l2 -15l1 -16l-4 -11l-11 -6l-13 -1zM175 -256l-16 3l-10 14l-2 12l3 16l14 9l12 6l11 8l11 10l8 11l6 12l5 13l4 16l1 14l3 14l2 14v14l1 24v21l-1 14l-1 93
l2 20v13l-2 16l2 15l-1 13l1 43l-2 13l2 29l-2 15v97l2 15l-1 13v29l-3 26v14l5 14l11 7l12 -1l14 2l13 -8l9 -12l3 -41l1 -12l-1 -17v-49l1 -14l-1 -21l-1 -41l2 -12v-16l-2 -19l2 -187l-1 -13l1 -15l-1 -12v-73l-5 -42l-11 -41l-7 -13l-13 -23l-9 -11l-10 -10l-10 -8
l-12 -8l-27 -11z" />
    <glyph glyph-name="Kcommaaccent" unicode="&#x136;" horiz-adv-x="443" 
d="M377 -2l-20 6l-11 17l-6 15l-8 13l-5 14l-8 17l-3 15l-6 17l-5 10l-8 13l-5 18l-6 15l-21 42l-3 13l-13 30l-11 29l-14 28l-4 16l-6 17l-16 12l-18 1l-16 -8l-17 -15l-11 -16l2 -33l-2 -130l2 -16l-2 -15l2 -49l-2 -35l2 -17l-8 -14l-18 -9h-16l-17 6l-7 18v17l-2 17v12
l2 20l-3 113l3 32l-2 30l1 15l-2 41l4 49l-2 16l1 27l-2 13l1 18l-1 17l2 14l-2 27l2 45l-2 41l1 12l-1 18l2 17l-3 13v16l-2 13l7 16l16 6l14 1l20 -9l10 -12l2 -11l-1 -17l2 -15l-1 -18l2 -12l-2 -18l3 -41l-3 -23v-61l2 -14l-2 -15l1 -14l7 -13l14 -5l43 23l10 10l12 13
l12 9l28 37l7 15l16 26l11 35l8 12l11 48l5 12l5 34l12 16l16 9l17 -1l15 -9l6 -14l-16 -65l-5 -13l-7 -31l-4 -16l-14 -29l-7 -15l-22 -42l-11 -11l-7 -12l-20 -24l-9 -18v-22l6 -16l7 -14l5 -16l26 -57l4 -16l8 -14l5 -14l8 -17l3 -12l9 -18l5 -15l6 -13l5 -18l12 -27
l9 -13l16 -49l8 -13l5 -13l-2 -18l-10 -7l-15 1zM234 -89h17l13 -9l3 -12l-8 -16l-3 -14l-6 -14l-6 -17l-4 -11l-5 -16l-3 -16l-6 -15l-14 -14l-17 -9l-11 10l-3 14l2 18l6 15l3 18l4 18l3 16l3 17l3 13l12 16z" />
    <glyph glyph-name="kcommaaccent" unicode="&#x137;" horiz-adv-x="403" 
d="M370 -2l-23 1l-26 5l-15 12l-8 14l-15 22l-13 26l-9 13l-21 37l-24 34l-6 12l-15 25l-7 13l-8 11l-15 10h-17l-17 -10l-7 -24v-77l-1 -15l1 -44l-1 -14l1 -15v-13l-6 -16l-13 -6h-12l-13 1l-12 6l-6 14l-2 28l2 16l-2 14v41l1 13l-1 100l1 13v50l1 11l-2 22v155l2 21
l-1 16v27l-1 20l1 14l-1 16v56l-2 11l-1 15l5 14l10 5l13 1l12 -1l15 -5l9 -11v-13l2 -12l1 -58l1 -16l-1 -168l-1 -14v-13l1 -15l-1 -14l1 -14l-1 -37l6 -17l15 -1l36 19l12 8l11 9l27 31l17 22l7 11l18 40l4 12l6 13l10 14l17 6l14 -2l13 2l13 -7l2 -14l-14 -36l-26 -51
l-15 -22l-9 -10l-26 -33l-10 -8l-11 -8l-5 -14l2 -18l7 -13l6 -12l8 -9l7 -13l8 -12l13 -24l9 -12l6 -12l7 -12l8 -11l6 -13l9 -10l6 -14l8 -11l6 -11l30 -48v-13zM214 -89h17l13 -9l3 -12l-8 -16l-3 -14l-6 -14l-6 -17l-4 -11l-5 -16l-3 -16l-6 -15l-14 -14l-17 -9l-11 10
l-3 14l2 18l6 15l3 18l4 18l3 16l3 17l3 13l12 16z" />
    <glyph glyph-name="Lacute" unicode="&#x139;" horiz-adv-x="364" 
d="M81 749l-13 7v13l13 26l8 13l6 13l17 12l18 9h17l8 -10v-12l-9 -13l-10 -14l-8 -10l-9 -13l-17 -16zM175 -4l-31 4h-17l-17 -1h-16l-14 8l-8 14l-2 18l1 180l1 12l-2 17l2 64l-2 79l2 34l-2 19l2 16l-3 24l1 99l2 15l-3 49v14l-1 16l7 16l13 6l18 -2l16 -6l12 -13l1 -11
l-1 -18l2 -14l1 -33l-2 -16l2 -16v-23l2 -26l-1 -12v-43l-2 -24l2 -63l-2 -15l3 -80l-3 -30l3 -34l-3 -38l2 -23l-3 -56l1 -26l9 -14l15 -9l33 3l15 -2h111l16 -6l10 -16v-14l-10 -11l-17 -7l-79 -4l-31 4l-17 -1z" />
    <glyph glyph-name="lacute" unicode="&#x13a;" horiz-adv-x="187" 
d="M69 749l-13 7v13l13 26l8 13l6 13l17 12l18 9h17l8 -10v-12l-9 -13l-10 -14l-8 -10l-9 -13l-17 -16zM86 -2l-12 5l-8 13l-3 13l-2 26l1 44l-1 15v13l-1 23v23l2 26l-2 14l1 184l-1 16v14l2 13l-2 87l1 20v63l-2 14l1 27l-2 27l5 14l10 7l11 -1l13 2l14 -8l10 -10l3 -72
l-1 -12l2 -14l-2 -38l1 -27l-1 -14l1 -23l-1 -12v-46l2 -18l-2 -23l1 -12v-15l-1 -13l2 -15l-1 -199v-14l-1 -27l2 -13l1 -13l-1 -16l1 -27l-2 -14l-11 -5l-13 1z" />
    <glyph glyph-name="Lcommaaccent" unicode="&#x13b;" horiz-adv-x="364" 
d="M175 -4l-31 4h-17l-17 -1h-16l-14 8l-8 14l-2 18l1 180l1 12l-2 17l2 64l-2 79l2 34l-2 19l2 16l-3 24l1 99l2 15l-3 49v14l-1 16l7 16l13 6l18 -2l16 -6l12 -13l1 -11l-1 -18l2 -14l1 -33l-2 -16l2 -16v-23l2 -26l-1 -12v-43l-2 -24l2 -63l-2 -15l3 -80l-3 -30l3 -34
l-3 -38l2 -23l-3 -56l1 -26l9 -14l15 -9l33 3l15 -2h111l16 -6l10 -16v-14l-10 -11l-17 -7l-79 -4l-31 4l-17 -1zM208 -89h17l13 -9l3 -12l-8 -16l-3 -14l-6 -14l-6 -17l-4 -11l-5 -16l-3 -16l-6 -15l-14 -14l-17 -9l-11 10l-3 14l2 18l6 15l3 18l4 18l3 16l3 17l3 13l12 16
z" />
    <glyph glyph-name="lcommaaccent" unicode="&#x13c;" horiz-adv-x="187" 
d="M86 -2l-12 5l-8 13l-3 13l-2 26l1 44l-1 15v13l-1 23v23l2 26l-2 14l1 184l-1 16v14l2 13l-2 87l1 20v63l-2 14l1 27l-2 27l5 14l10 7l11 -1l13 2l14 -8l10 -10l3 -72l-1 -12l2 -14l-2 -38l1 -27l-1 -14l1 -23l-1 -12v-46l2 -18l-2 -23l1 -12v-15l-1 -13l2 -15l-1 -199
v-14l-1 -27l2 -13l1 -13l-1 -16l1 -27l-2 -14l-11 -5l-13 1zM101 -89h17l13 -9l3 -12l-8 -16l-3 -14l-6 -14l-6 -17l-4 -11l-5 -16l-3 -16l-6 -15l-14 -14l-17 -9l-11 10l-3 14l2 18l6 15l3 18l4 18l3 16l3 17l3 13l12 16z" />
    <glyph glyph-name="Lcaron" unicode="&#x13d;" horiz-adv-x="364" 
d="M280 544l-21 2l-7 14l5 31v18l9 65l9 14l18 12l12 -11l5 -16l-11 -63l-1 -15l-2 -20l-5 -15zM175 -4l-31 4h-17l-17 -1h-16l-14 8l-8 14l-2 18l1 180l1 12l-2 17l2 64l-2 79l2 34l-2 19l2 16l-3 24l1 99l2 15l-3 49v14l-1 16l7 16l13 6l18 -2l16 -6l12 -13l1 -11l-1 -18
l2 -14l1 -33l-2 -16l2 -16v-23l2 -26l-1 -12v-43l-2 -24l2 -63l-2 -15l3 -80l-3 -30l3 -34l-3 -38l2 -23l-3 -56l1 -26l9 -14l15 -9l33 3l15 -2h111l16 -6l10 -16v-14l-10 -11l-17 -7l-79 -4l-31 4l-17 -1z" />
    <glyph glyph-name="lcaron" unicode="&#x13e;" horiz-adv-x="240" 
d="M65 14l-2 29l-2 13l-1 27l2 16l-2 14l1 37l-1 21l1 14l-1 15l1 14l-1 70l1 38l-1 19l-1 20l2 43l-1 14l1 50l-1 14l1 14l-1 16l1 12v56l-1 14l1 15l-2 12v16l1 14l-1 13l-2 15l4 13l10 7l26 -1l15 -6l8 -10l2 -29v-26l2 -14l-1 -15l1 -75l-1 -12v-56l1 -16l-1 -15l1 -11
l-1 -14l1 -17l-1 -27l1 -15l-1 -155l1 -15v-54l-1 -14l2 -28v-27l1 -13v-14l-4 -16l-11 -5l-13 -2l-11 3l-15 5zM171 575l2 16v13l2 14l3 14l4 43l9 15l18 8l14 -6l6 -14l-6 -27l-1 -12l-2 -13l-4 -12l-5 -27l-1 -15l-9 -12l-13 -8l-12 7z" />
    <glyph glyph-name="Ldot" unicode="&#x13f;" horiz-adv-x="364" 
d="M175 -4l-31 4h-17l-17 -1h-16l-14 8l-8 14l-2 18l1 180l1 12l-2 17l2 64l-2 79l2 34l-2 19l2 16l-3 24l1 99l2 15l-3 49v14l-1 16l7 16l13 6l18 -2l16 -6l12 -13l1 -11l-1 -18l2 -14l1 -33l-2 -16l2 -16v-23l2 -26l-1 -12v-43l-2 -24l2 -63l-2 -15l3 -80l-3 -30l3 -34
l-3 -38l2 -23l-3 -56l1 -26l9 -14l15 -9l33 3l15 -2h111l16 -6l10 -16v-14l-10 -11l-17 -7l-79 -4l-31 4l-17 -1zM236 285l-22 2l-10 13l-4 23l4 20l11 14l22 3l21 -5l13 -9l4 -24l-4 -21l-11 -12z" />
    <glyph glyph-name="ldot" unicode="&#x140;" horiz-adv-x="268" 
d="M65 15l-4 30v70l-1 15v113l2 14l-1 127l-1 15l1 14l-1 14l1 142l-1 13l1 43l-1 11l-1 30l-1 14l4 12l11 6l19 2l20 -6l9 -13l-1 -12l1 -15l2 -14v-28l1 -14l-1 -16l1 -62l1 -15l-2 -35l1 -13v-15l-1 -14l1 -17v-35l1 -15l-2 -20l1 -41l-1 -28l1 -16l-1 -13l1 -14v-100
l-1 -13l1 -14l-1 -15l1 -11v-14l1 -14l1 -13l1 -17l-4 -13l-11 -6h-25l-14 5zM179 290l-10 13l-4 20l4 18l9 11l21 6l21 -5l11 -11l3 -21l-4 -19l-11 -12l-20 -3z" />
    <glyph glyph-name="Lslash" unicode="&#x141;" horiz-adv-x="390" 
d="M137 -4l-16 3l-17 8l-7 17l1 16l-2 14l3 66l-2 17l1 15v14l-2 13l3 21l-3 61l1 17l-1 17l-6 12h-14l-12 -3l-16 2l-11 13l2 13l12 13l13 7l13 2l12 18l8 18l1 48l-2 15l3 20l-2 17l2 15l-4 40l2 25l-1 32l3 12l-2 14l-1 19l-3 13l2 14l5 18l15 8l17 -1l18 -5l8 -15l3 -14
l-1 -14l3 -18l-1 -142l2 -29l-2 -16v-18l3 -15l4 -11l22 -1l25 7l13 5l13 9l17 -2l13 -9l-2 -17l-10 -13l-31 -11l-28 -13l-15 -4l-17 -14l-6 -18v-19l2 -15l-2 -16l1 -18l-2 -14l2 -16l-1 -32l1 -34l-1 -12l2 -18v-16l-3 -25l9 -22l15 -9h25l15 3l25 -4l31 3l15 -4l18 1
l13 2l19 -2l16 -8l6 -12l2 -12l-9 -14l-19 -9l-15 2l-14 -2l-18 1l-33 -3h-45l-17 3h-15l-16 -2l-16 1z" />
    <glyph glyph-name="lslash" unicode="&#x142;" horiz-adv-x="251" 
d="M100 -1l-13 7l-9 9v12l-2 15l1 16l-1 12v29l-1 15l1 59l-1 14l1 69l-1 13v15l1 16l-7 11l-12 1l-14 -7l-15 3l-12 11l2 15l10 11l15 8l12 5l14 12l7 23l1 15l-2 22l2 75l-1 14v27l-1 36l-1 13l1 28l-1 30l-2 12l1 13l4 15l11 8l25 -2l14 -5l7 -11l3 -13l1 -15l-1 -41
l2 -32l-1 -11l1 -137l-1 -13l6 -18l14 -3l12 4l11 7l12 4l12 6l15 -1l12 -10l-2 -15l-10 -15l-12 -5l-13 -4l-12 -8l-12 -3l-13 -5l-14 -13l-5 -17l-1 -12l2 -21l-2 -36l1 -14l-1 -14l2 -22l-2 -103l1 -14l-1 -30l2 -13v-12l1 -14l-3 -15l-12 -5l-11 1z" />
    <glyph glyph-name="Nacute" unicode="&#x143;" horiz-adv-x="488" 
d="M234 749l-13 7v13l13 26l8 13l6 13l17 12l18 9h17l8 -10v-12l-9 -13l-10 -14l-8 -10l-9 -13l-17 -16zM352 -1l-18 9l-14 15l-6 14l-20 61l-4 17l-7 15l-3 14l-17 48l-3 12l-22 59l-8 35l-7 16l-4 16l-7 11l-9 33l-7 15l-2 16l-7 14l-38 123l-2 14l-13 46l-6 13l-4 1
l1 -15l-1 -17l2 -17l-1 -16l2 -16l-1 -13l2 -17l-1 -25l2 -88l-3 -15l3 -64l-1 -17l2 -18l-1 -14l-2 -15l1 -35l2 -24l-3 -22l2 -19l-1 -13v-16l2 -18l-3 -18l2 -63l-9 -15l-24 -6l-23 8l-8 13l-1 80l2 15l-2 19l1 65l-2 40l1 14v24l2 16l-3 38l1 41l-1 18l1 13l-1 19l2 15
l-3 15l3 31v18l-2 13l1 51l-1 16l2 75l-1 18l8 17l23 8l25 -1l17 2l16 -9l15 -16l6 -14l4 -14l2 -17l13 -28l55 -169l2 -14l5 -14l8 -16l15 -44l8 -31l33 -96l5 -24l5 -16l8 -18l4 -16l2 -16l9 -34l6 -15l4 1l1 50l-5 29l2 17v18l-3 23l3 23l-2 23l2 40l-2 13l1 206l-3 25
l2 23l-2 13l2 15l-1 17l1 15l-3 48l7 15l13 5l17 -1l15 -5l10 -14l3 -14l2 -28l-2 -16l2 -18l-2 -16l4 -81l-2 -12l2 -37l-1 -16l-2 -14l2 -83l-2 -14l2 -17l-1 -67l1 -16l-2 -14l2 -15v-16l-2 -17l2 -65l-2 -13v-18l2 -18l-2 -14v-14l-7 -20l-15 -6h-15l-18 1z" />
    <glyph glyph-name="nacute" unicode="&#x144;" horiz-adv-x="419" 
d="M193 540l-13 7v13l13 26l8 13l6 13l17 12l18 9h17l8 -10v-12l-9 -13l-10 -14l-8 -10l-9 -13l-17 -16zM349 -2l-13 2l-12 1l-15 5l-8 10l-1 11l-2 29v16l-1 13v14l-1 15l2 16l-1 76l1 16v12l-2 35l2 84l-4 40l-5 14l-7 10l-11 6l-13 5h-20l-32 -2l-15 -4l-13 -7l-11 -7
l-21 -16l-9 -12l-10 -17l-5 -25l1 -79l-2 -12l1 -50l-1 -13l1 -16l-1 -13l2 -58l-1 -13l1 -21l-2 -16l2 -14v-14l-8 -12l-12 -8h-14l-11 2l-13 7l-8 14l2 14l-1 12l1 26l-1 16l1 15v14l-1 13l1 14l-1 12l1 28l-1 16l1 14l-1 14l1 22v12l-1 22l1 14l-1 13l1 15l-1 15l1 20
l-1 21v13l-4 56l3 12l18 8h12l22 -7l9 -12v-14l7 -7l11 4l12 9l10 5l12 8l14 8l12 4l14 6l14 2l13 3l35 -1l20 -2l15 -5l22 -15l9 -8l14 -27l5 -13l2 -11l3 -57l-1 -28l1 -15l-2 -22l1 -149l2 -96l3 -12l-6 -16z" />
    <glyph glyph-name="Ncommaaccent" unicode="&#x145;" horiz-adv-x="488" 
d="M352 -1l-18 9l-14 15l-6 14l-20 61l-4 17l-7 15l-3 14l-17 48l-3 12l-22 59l-8 35l-7 16l-4 16l-7 11l-9 33l-7 15l-2 16l-7 14l-38 123l-2 14l-13 46l-6 13l-4 1l1 -15l-1 -17l2 -17l-1 -16l2 -16l-1 -13l2 -17l-1 -25l2 -88l-3 -15l3 -64l-1 -17l2 -18l-1 -14l-2 -15
l1 -35l2 -24l-3 -22l2 -19l-1 -13v-16l2 -18l-3 -18l2 -63l-9 -15l-24 -6l-23 8l-8 13l-1 80l2 15l-2 19l1 65l-2 40l1 14v24l2 16l-3 38l1 41l-1 18l1 13l-1 19l2 15l-3 15l3 31v18l-2 13l1 51l-1 16l2 75l-1 18l8 17l23 8l25 -1l17 2l16 -9l15 -16l6 -14l4 -14l2 -17
l13 -28l55 -169l2 -14l5 -14l8 -16l15 -44l8 -31l33 -96l5 -24l5 -16l8 -18l4 -16l2 -16l9 -34l6 -15l4 1l1 50l-5 29l2 17v18l-3 23l3 23l-2 23l2 40l-2 13l1 206l-3 25l2 23l-2 13l2 15l-1 17l1 15l-3 48l7 15l13 5l17 -1l15 -5l10 -14l3 -14l2 -28l-2 -16l2 -18l-2 -16
l4 -81l-2 -12l2 -37l-1 -16l-2 -14l2 -83l-2 -14l2 -17l-1 -67l1 -16l-2 -14l2 -15v-16l-2 -17l2 -65l-2 -13v-18l2 -18l-2 -14v-14l-7 -20l-15 -6h-15l-18 1zM234 -89h17l13 -9l3 -12l-8 -16l-3 -14l-6 -14l-6 -17l-4 -11l-5 -16l-3 -16l-6 -15l-14 -14l-17 -9l-11 10
l-3 14l2 18l6 15l3 18l4 18l3 16l3 17l3 13l12 16z" />
    <glyph glyph-name="ncommaaccent" unicode="&#x146;" horiz-adv-x="419" 
d="M349 -2l-13 2l-12 1l-15 5l-8 10l-1 11l-2 29v16l-1 13v14l-1 15l2 16l-1 76l1 16v12l-2 35l2 84l-4 40l-5 14l-7 10l-11 6l-13 5h-20l-32 -2l-15 -4l-13 -7l-11 -7l-21 -16l-9 -12l-10 -17l-5 -25l1 -79l-2 -12l1 -50l-1 -13l1 -16l-1 -13l2 -58l-1 -13l1 -21l-2 -16
l2 -14v-14l-8 -12l-12 -8h-14l-11 2l-13 7l-8 14l2 14l-1 12l1 26l-1 16l1 15v14l-1 13l1 14l-1 12l1 28l-1 16l1 14l-1 14l1 22v12l-1 22l1 14l-1 13l1 15l-1 15l1 20l-1 21v13l-4 56l3 12l18 8h12l22 -7l9 -12v-14l7 -7l11 4l12 9l10 5l12 8l14 8l12 4l14 6l14 2l13 3
l35 -1l20 -2l15 -5l22 -15l9 -8l14 -27l5 -13l2 -11l3 -57l-1 -28l1 -15l-2 -22l1 -149l2 -96l3 -12l-6 -16zM207 -89h17l13 -9l3 -12l-8 -16l-3 -14l-6 -14l-6 -17l-4 -11l-5 -16l-3 -16l-6 -15l-14 -14l-17 -9l-11 10l-3 14l2 18l6 15l3 18l4 18l3 16l3 17l3 13l12 16z
" />
    <glyph glyph-name="Ncaron" unicode="&#x147;" horiz-adv-x="488" 
d="M243 748l-20 7l-15 11l-12 12l-12 16l-15 17l-12 10v13l14 8l23 -7l19 -11l11 -15l12 -10l17 -9l15 6l13 13l10 14l18 12l23 6l13 -4v-14l-10 -12l-10 -11l-7 -13l-10 -10l-10 -12l-19 -12l-19 -5h-17zM352 -1l-18 9l-14 15l-6 14l-20 61l-4 17l-7 15l-3 14l-17 48l-3 12
l-22 59l-8 35l-7 16l-4 16l-7 11l-9 33l-7 15l-2 16l-7 14l-38 123l-2 14l-13 46l-6 13l-4 1l1 -15l-1 -17l2 -17l-1 -16l2 -16l-1 -13l2 -17l-1 -25l2 -88l-3 -15l3 -64l-1 -17l2 -18l-1 -14l-2 -15l1 -35l2 -24l-3 -22l2 -19l-1 -13v-16l2 -18l-3 -18l2 -63l-9 -15l-24 -6
l-23 8l-8 13l-1 80l2 15l-2 19l1 65l-2 40l1 14v24l2 16l-3 38l1 41l-1 18l1 13l-1 19l2 15l-3 15l3 31v18l-2 13l1 51l-1 16l2 75l-1 18l8 17l23 8l25 -1l17 2l16 -9l15 -16l6 -14l4 -14l2 -17l13 -28l55 -169l2 -14l5 -14l8 -16l15 -44l8 -31l33 -96l5 -24l5 -16l8 -18
l4 -16l2 -16l9 -34l6 -15l4 1l1 50l-5 29l2 17v18l-3 23l3 23l-2 23l2 40l-2 13l1 206l-3 25l2 23l-2 13l2 15l-1 17l1 15l-3 48l7 15l13 5l17 -1l15 -5l10 -14l3 -14l2 -28l-2 -16l2 -18l-2 -16l4 -81l-2 -12l2 -37l-1 -16l-2 -14l2 -83l-2 -14l2 -17l-1 -67l1 -16l-2 -14
l2 -15v-16l-2 -17l2 -65l-2 -13v-18l2 -18l-2 -14v-14l-7 -20l-15 -6h-15l-18 1z" />
    <glyph glyph-name="ncaron" unicode="&#x148;" horiz-adv-x="419" 
d="M202 539l-20 7l-15 11l-12 12l-12 16l-15 17l-12 10v13l14 8l23 -7l19 -11l11 -15l12 -10l17 -9l15 6l13 13l10 14l18 12l23 6l13 -4v-14l-10 -12l-10 -11l-7 -13l-10 -10l-10 -12l-19 -12l-19 -5h-17zM349 -2l-13 2l-12 1l-15 5l-8 10l-1 11l-2 29v16l-1 13v14l-1 15
l2 16l-1 76l1 16v12l-2 35l2 84l-4 40l-5 14l-7 10l-11 6l-13 5h-20l-32 -2l-15 -4l-13 -7l-11 -7l-21 -16l-9 -12l-10 -17l-5 -25l1 -79l-2 -12l1 -50l-1 -13l1 -16l-1 -13l2 -58l-1 -13l1 -21l-2 -16l2 -14v-14l-8 -12l-12 -8h-14l-11 2l-13 7l-8 14l2 14l-1 12l1 26
l-1 16l1 15v14l-1 13l1 14l-1 12l1 28l-1 16l1 14l-1 14l1 22v12l-1 22l1 14l-1 13l1 15l-1 15l1 20l-1 21v13l-4 56l3 12l18 8h12l22 -7l9 -12v-14l7 -7l11 4l12 9l10 5l12 8l14 8l12 4l14 6l14 2l13 3l35 -1l20 -2l15 -5l22 -15l9 -8l14 -27l5 -13l2 -11l3 -57l-1 -28
l1 -15l-2 -22l1 -149l2 -96l3 -12l-6 -16z" />
    <glyph glyph-name="Eng" unicode="&#x14a;" horiz-adv-x="488" 
d="M308 -257l-17 4l-11 14l-4 10l5 19l16 10l13 6l13 13l11 13l9 13l2 15l11 34l2 17v67l-9 14l-19 14l-13 13l-5 16l-6 15l-20 64l-3 15l-13 30l-2 16l-12 29l-13 47l-7 17l-8 31l-5 15l-7 15l-4 13l-3 17l-13 31l-4 13l-16 45l-18 62l-3 16l-10 31l-4 16l-2 13l-5 18
l-4 16l-4 -5v-29l1 -18l-3 -17l4 -33v-78l2 -15l-2 -18v-13l2 -16l-2 -33l2 -18v-31l-2 -15l-1 -19l2 -18l-2 -12l1 -34l-1 -14l2 -33l-2 -62l1 -36l-2 -13l2 -18l-8 -13l-16 -11h-15l-17 7l-7 19l-2 110l2 17v174l-2 15v16l3 48l-2 15l1 16l-2 15l2 19l-2 32l3 14l-2 23
l2 24l-2 19v14l-2 17l3 15l-2 33l2 16l8 15l15 9l18 -2h30l19 -8l14 -12l6 -25l7 -22l6 -14l4 -17l21 -59l13 -43l8 -16l4 -16l5 -14l5 -17l3 -13l6 -19l5 -11l14 -45l6 -15l9 -31l6 -15l10 -30l7 -13l7 -23l7 -43l5 -16l6 -15l5 -17l4 -16l10 -34l5 2l-1 18l1 30l-3 15v16
l-2 18l2 38l-1 24l1 25v23l-2 15v16l1 17l-1 11l1 19l-2 15l3 15l-1 32l-1 15l1 24l-2 26l2 30l-3 22v24l2 31v14l1 17l-1 16l-3 15v15l6 17l15 5l14 3l19 -10l8 -14l3 -12l-1 -18l5 -31l-2 -15l1 -30l-3 -24l3 -26v-17l-2 -15l-1 -56l3 -48l-1 -23l1 -36l-2 -17l1 -15
l-1 -14l1 -16l-1 -15l1 -99l2 -16l-3 -16l-1 -25l3 -23l-1 -17l2 -14l-2 -18l-1 -125l-5 -17v-16l-4 -16l-7 -16l-4 -16l-7 -13l-8 -12l-24 -23l-24 -17z" />
    <glyph glyph-name="eng" unicode="&#x14b;" horiz-adv-x="412" 
d="M243 -259l-16 6l-8 13l-3 15l4 14l12 9l24 13l19 21l11 28l9 39l1 16l-1 15l3 192l-1 14v49l-1 13l1 28v28l-1 15l2 28l-2 16l1 40l-2 26l-2 13l-5 12l-8 10l-10 7l-13 5l-20 4l-20 -2l-26 -7l-12 -7l-13 -6l-20 -19l-10 -7l-9 -19l-4 -19l-1 -29v-27l-1 -15v-49l1 -20
l-1 -17v-12l1 -14l-1 -22v-36l2 -12l-2 -17v-13l2 -28l-1 -12l-7 -17l-19 -8l-18 3l-14 8l-6 11l-1 16l2 13l-1 15l-1 12l2 93l-1 12l-1 35l1 14l-1 16l2 21v14l-2 21l1 13l-1 13v13l2 22l-1 36l-2 13l-1 15l-1 28l2 14l18 5l20 2l15 -8l8 -11l1 -14l6 -10l11 3l12 10l11 7
l12 6l12 7l14 8l61 12l36 -5l13 -3l11 -7l11 -9l10 -11l7 -11l6 -13l7 -26l3 -56l-1 -15l1 -15l-1 -108l2 -14l-2 -15v-39l1 -29l-1 -12l1 -14v-16l-1 -26l1 -15l-1 -25l1 -71l-2 -31l-7 -39l-4 -16l-9 -27l-14 -24l-9 -10l-10 -9l-12 -11l-11 -6l-12 -7z" />
    <glyph glyph-name="Omacron" unicode="&#x14c;" horiz-adv-x="462" 
d="M176 763l-14 5h-17l-17 5l-6 17l8 13l17 6h30l17 1l16 -3l15 2l17 -1l17 3h45l19 -9l8 -13l-8 -15l-17 -7l-16 -1h-18l-14 -2l-50 2l-14 1zM206 -11l-15 1l-16 5l-15 3l-12 6l-24 18l-20 20l-9 13l-7 12l-11 30l-8 13l-9 31l-15 116l2 19l-3 17v14l2 14v100l2 13l-1 17
l1 17v15l4 16l6 49l14 48l7 11l5 17l9 10l6 17l11 13l13 8l11 9l14 9l13 7l15 6l14 3l15 2l24 2l23 -2l18 -3l13 -4l13 -3l14 -7l26 -15l10 -9l21 -24l14 -28l9 -28l6 -15l4 -17l16 -116v-16l-2 -16l3 -97l-3 -31v-33l-4 -16l-3 -49l-5 -30l-8 -33l-18 -46l-16 -25l-11 -15
l-12 -11l-25 -17l-12 -6l-15 -1l-15 -5l-17 -2h-24zM252 45l13 5l15 4l10 10l11 9l17 23l10 30l7 15l2 16l2 20l5 32l4 46l-1 18l2 14l-1 87l2 13l-3 32l1 18l-4 61l-6 31l-1 18l-7 13l-5 14l-4 18l-7 15l-9 13l-23 21l-14 5l-17 5l-21 -1l-23 2l-14 -5l-13 -4l-10 -8
l-20 -23l-13 -24l-13 -51l-8 -47l-2 -35l-1 -15l-2 -48l2 -44l-2 -24v-15l2 -16l1 -65l3 -12l1 -31l12 -52l9 -28l6 -15l22 -23l13 -7l12 -9l15 -5z" />
    <glyph glyph-name="omacron" unicode="&#x14d;" 
d="M156 554l-14 5h-17l-17 5l-6 17l8 13l17 6h30l17 1l16 -3l15 2l17 -1l17 3h45l19 -9l8 -13l-8 -15l-17 -7l-16 -1h-18l-14 -2l-50 2l-14 1zM186 -10l-14 3l-13 1l-24 12l-12 8l-13 7l-18 19l-8 11l-15 27l-10 24l-7 26l-8 43l-3 30v57l3 29l2 27l2 15l11 41l6 10l11 28
l8 13l17 21l12 11l10 7l17 9l20 8l20 5l28 1h21l14 -2l27 -9l11 -5l11 -7l21 -17l17 -22l14 -25l5 -14l6 -11l3 -14l5 -15l2 -12l3 -15l2 -29l4 -28l-2 -41l1 -17l-1 -14l-7 -43l-2 -11l-13 -40l-6 -15l-7 -10l-6 -15l-8 -10l-11 -10l-10 -10l-11 -9l-23 -14l-26 -6l-15 -3
h-41zM186 44l42 1l13 5l12 4l12 8l9 11l9 14l6 13l5 13l4 14l3 14l1 13l3 17l2 13l1 15l-1 16v23l2 18l-3 41l-4 28l-4 14l-2 13l-10 26l-6 13l-8 10l-10 11l-23 14l-13 2l-19 1l-21 -2l-25 -7l-13 -13l-13 -17l-13 -22l-2 -14l-5 -14l-5 -27l-1 -15l-2 -12l-2 -30l2 -42
v-28l1 -16l2 -13l11 -43l5 -15l5 -10l8 -12l9 -12l12 -10l11 -6z" />
    <glyph glyph-name="Ohungarumlaut" unicode="&#x150;" horiz-adv-x="462" 
d="M182 750l-11 6l-3 12l4 19l5 18l7 14l13 14l21 10l16 -9v-18l-6 -12l-7 -16l-8 -17l-16 -17zM265 750l-12 5l-3 15l5 16l4 16l6 17l13 14l20 7l16 -9l1 -12l-6 -16l-14 -32l-12 -13zM206 -11l-15 1l-16 5l-15 3l-12 6l-24 18l-20 20l-9 13l-7 12l-11 30l-8 13l-9 31
l-15 116l2 19l-3 17v14l2 14v100l2 13l-1 17l1 17v15l4 16l6 49l14 48l7 11l5 17l9 10l6 17l11 13l13 8l11 9l14 9l13 7l15 6l14 3l15 2l24 2l23 -2l18 -3l13 -4l13 -3l14 -7l26 -15l10 -9l21 -24l14 -28l9 -28l6 -15l4 -17l16 -116v-16l-2 -16l3 -97l-3 -31v-33l-4 -16
l-3 -49l-5 -30l-8 -33l-18 -46l-16 -25l-11 -15l-12 -11l-25 -17l-12 -6l-15 -1l-15 -5l-17 -2h-24zM252 45l13 5l15 4l10 10l11 9l17 23l10 30l7 15l2 16l2 20l5 32l4 46l-1 18l2 14l-1 87l2 13l-3 32l1 18l-4 61l-6 31l-1 18l-7 13l-5 14l-4 18l-7 15l-9 13l-23 21l-14 5
l-17 5l-21 -1l-23 2l-14 -5l-13 -4l-10 -8l-20 -23l-13 -24l-13 -51l-8 -47l-2 -35l-1 -15l-2 -48l2 -44l-2 -24v-15l2 -16l1 -65l3 -12l1 -31l12 -52l9 -28l6 -15l22 -23l13 -7l12 -9l15 -5z" />
    <glyph glyph-name="ohungarumlaut" unicode="&#x151;" 
d="M162 541l-11 6l-3 12l4 19l5 18l7 14l13 14l21 10l16 -9v-18l-6 -12l-7 -16l-8 -17l-16 -17zM245 541l-12 5l-3 15l5 16l4 16l6 17l13 14l20 7l16 -9l1 -12l-6 -16l-14 -32l-12 -13zM186 -10l-14 3l-13 1l-24 12l-12 8l-13 7l-18 19l-8 11l-15 27l-10 24l-7 26l-8 43
l-3 30v57l3 29l2 27l2 15l11 41l6 10l11 28l8 13l17 21l12 11l10 7l17 9l20 8l20 5l28 1h21l14 -2l27 -9l11 -5l11 -7l21 -17l17 -22l14 -25l5 -14l6 -11l3 -14l5 -15l2 -12l3 -15l2 -29l4 -28l-2 -41l1 -17l-1 -14l-7 -43l-2 -11l-13 -40l-6 -15l-7 -10l-6 -15l-8 -10
l-11 -10l-10 -10l-11 -9l-23 -14l-26 -6l-15 -3h-41zM186 44l42 1l13 5l12 4l12 8l9 11l9 14l6 13l5 13l4 14l3 14l1 13l3 17l2 13l1 15l-1 16v23l2 18l-3 41l-4 28l-4 14l-2 13l-10 26l-6 13l-8 10l-10 11l-23 14l-13 2l-19 1l-21 -2l-25 -7l-13 -13l-13 -17l-13 -22
l-2 -14l-5 -14l-5 -27l-1 -15l-2 -12l-2 -30l2 -42v-28l1 -16l2 -13l11 -43l5 -15l5 -10l8 -12l9 -12l12 -10l11 -6z" />
    <glyph glyph-name="OE" unicode="&#x152;" horiz-adv-x="610" 
d="M323 -4l-17 2l-15 1l-15 2l-24 -4l-54 7l-59 22l-10 12l-12 8l-10 10l-8 16l-9 11l-6 15l-7 15l-14 45l-2 19l-5 15l-2 14l-3 17l-1 18l-3 16l1 16l-3 16l1 34l-2 27v20l2 17v19l2 17v29l2 17l4 14l7 51l5 13l3 16l19 45l18 24l8 15l25 23l12 6l31 13l15 3l13 5l39 4h24
l19 -3l17 1l16 -3l16 4l16 -1l17 1l15 -1l23 3l43 -5l14 2l17 -2l15 4l18 -2l15 1l17 -9l6 -14l3 -15l-9 -13l-13 -6l-18 -1h-15l-17 2l-29 -2l-18 3l-29 -4l-18 1l-14 -8l-8 -15l-3 -15l3 -17l-1 -18v-14l1 -18l-1 -15l1 -113l5 -19l18 -6l17 1l23 -3h24l18 4l30 -4l16 4
l18 -12l8 -16l-9 -21l-15 -9l-17 1l-18 -1l-15 1l-23 1l-18 -3l-24 2l-15 1l-17 -9l-8 -17v-15l1 -18v-46l-2 -18l3 -13l-1 -16l2 -20l-2 -15l2 -57l8 -23l16 -7h15l13 -4l17 4l17 -1l15 1l30 -2l15 1l19 -1l15 -8l7 -11v-16l-11 -12l-14 -7h-131l-17 -2h-14zM228 52h22
l22 3l17 -3l16 10l6 17l-1 13l2 31l-1 33l-2 18l3 18l-1 15l-1 173l2 17v16l-2 13l3 53l-3 15l-1 15l2 30l-2 19l1 16l2 14l-2 31l-7 18l-13 4l-16 3l-62 -4l-12 -7l-13 -4l-23 -22l-7 -11l-10 -12l-14 -30l-2 -17l-8 -29l-2 -19l-3 -14l-1 -20l-4 -14v-16l-3 -36l2 -65
l2 -17l-1 -31l3 -14l1 -15l-1 -17l5 -14l6 -52l7 -12l4 -17l13 -30l20 -22l14 -13l28 -14z" />
    <glyph glyph-name="oe" unicode="&#x153;" horiz-adv-x="656" 
d="M208 -12l-21 2l-40 9l-12 8l-13 4l-21 19l-12 15l-11 17l-23 53l-13 70v15l1 13l-2 24l1 20l5 54l4 29l13 42l6 14l13 24l39 41l14 5l12 6l33 11l27 2l21 -3l13 -1l13 -6l11 -3l13 -7l27 -20l19 -29l6 -14l3 -11l7 -9l6 6l7 16l7 11l6 14l30 28l25 15l12 5l15 4l34 1
l34 -1l14 -4l13 -6l24 -15l10 -11l10 -8l6 -13l8 -12l5 -15l3 -33l-1 -23l-2 -14l-3 -13l-5 -14l-6 -11l-6 -16l-7 -11l-28 -32l-11 -7l-10 -11l-13 -7l-12 -7l-13 -9l-39 -12l-13 -5l-13 -4l-15 -1l-14 -3l-14 -7l-4 -16l2 -14l10 -26l6 -13l7 -13l9 -11l11 -7l13 -7l20 -6
l14 1l21 -1l13 3l15 3l12 4l13 8l24 18l14 4l10 -4l7 -11l4 -17l-7 -15l-13 -10l-22 -14l-13 -7l-15 -6l-13 -6l-29 -5h-43l-41 11l-13 6l-31 31l-19 39l-7 7l-8 -3l-6 -13l-8 -12l-6 -14l-10 -11l-33 -27l-13 -6l-13 -5zM395 210l12 4l28 5l14 7l14 6l13 6l12 8l19 18
l10 10l8 12l13 27l7 26l1 22l-5 33l-8 12l-9 9l-13 8l-12 5l-21 1l-19 -2l-25 -7l-12 -7l-18 -20l-13 -23l-4 -12l-4 -14l-4 -13l-2 -16l-2 -15v-12l-2 -30v-30l7 -13zM207 43l21 2l13 4l14 6l20 19l7 12l7 13l4 15l5 12l9 59l1 100l-11 69l-10 25l-6 10l-9 11l-9 9l-11 9
l-11 6l-14 3h-19l-33 -2l-13 -6l-9 -9l-11 -6l-8 -13l-4 -11l-7 -12l-12 -57l-1 -12l-3 -14l1 -13l-2 -36l1 -22l1 -15v-14l5 -41l7 -30l6 -14l5 -14l17 -20l12 -10l12 -6l14 -6z" />
    <glyph glyph-name="Racute" unicode="&#x154;" horiz-adv-x="437" 
d="M173 749l-13 7v13l13 26l8 13l6 13l17 12l18 9h17l8 -10v-12l-9 -13l-10 -14l-8 -10l-9 -13l-17 -16zM373 -3l-22 3l-18 12l-11 19l-10 25l-4 16l-7 15l-4 16l-7 14l-4 14l-13 29l-4 13l-13 30l-7 13l-9 32l-6 13l-11 15l-13 13h-18l-34 2l-15 -1l-13 -12l-3 -18l2 -16
v-15l1 -17l-1 -183l-5 -14l-12 -13l-17 -3l-16 5l-12 11l-3 16l-1 13l2 36l-3 29l-1 28l3 38v19l1 19l-3 55l3 18v16l-2 17l3 30l-1 79l-3 16v32l3 16v17l-4 16l1 14l3 17v26l-3 22l3 16l1 15l-3 31l3 17l18 13l27 1l18 4l19 -1l17 -4l15 4l20 -3l26 -1l22 -3l13 2l18 -7
l13 -4l16 -7l27 -15l12 -10l11 -13l11 -11l5 -11l11 -15l9 -33l3 -32l5 -20l-2 -24l-3 -18l-2 -15l-1 -17l-3 -18l-11 -29l-8 -15l-10 -14l-7 -13l-12 -11l-13 -9l-14 -9l-13 -11l-7 -16l3 -18l22 -62l7 -13l4 -15l5 -13l7 -15l4 -13l6 -18l17 -38l6 -20l13 -28l6 -16l1 -14
l-11 -14zM166 346h47l15 4l14 1l16 4l16 9l14 7l12 9l22 39l6 17v17l4 14l1 24l-3 64l-5 15l-27 40l-14 12l-12 7l-14 5l-39 8l-43 3l-17 -2l-14 -5l-10 -9l-7 -19l1 -13l1 -33l-2 -20l-1 -23l2 -17l-2 -40l1 -23l-1 -19l2 -13l-1 -16l1 -15l5 -16l12 -13z" />
    <glyph glyph-name="racute" unicode="&#x155;" horiz-adv-x="306" 
d="M156 540l-13 7v13l13 26l8 13l6 13l17 12l18 9h17l8 -10v-12l-9 -13l-10 -14l-8 -10l-9 -13l-17 -16zM102 -1l-20 1l-19 7l-7 20l1 48l1 16l-2 35v88l2 14l-1 14l-2 196l-3 16l4 13l10 7h20l21 -5l10 -15l1 -11l7 -10l9 6l10 10l10 9l12 6l26 12l15 5l27 5l27 -5l15 -4
l10 -11l2 -17l-4 -15l-10 -11l-14 -2l-14 4h-15l-13 1l-14 -2l-13 -5l-13 -4l-12 -7l-11 -6l-20 -20l-10 -19l-4 -19l1 -13l-1 -21l1 -16v-20l-2 -14l2 -15l-1 -13l1 -13l-1 -29l1 -27l-2 -28v-43l2 -14v-45l-2 -14l-6 -14z" />
    <glyph glyph-name="Rcommaaccent" unicode="&#x156;" horiz-adv-x="437" 
d="M373 -3l-22 3l-18 12l-11 19l-10 25l-4 16l-7 15l-4 16l-7 14l-4 14l-13 29l-4 13l-13 30l-7 13l-9 32l-6 13l-11 15l-13 13h-18l-34 2l-15 -1l-13 -12l-3 -18l2 -16v-15l1 -17l-1 -183l-5 -14l-12 -13l-17 -3l-16 5l-12 11l-3 16l-1 13l2 36l-3 29l-1 28l3 38v19l1 19
l-3 55l3 18v16l-2 17l3 30l-1 79l-3 16v32l3 16v17l-4 16l1 14l3 17v26l-3 22l3 16l1 15l-3 31l3 17l18 13l27 1l18 4l19 -1l17 -4l15 4l20 -3l26 -1l22 -3l13 2l18 -7l13 -4l16 -7l27 -15l12 -10l11 -13l11 -11l5 -11l11 -15l9 -33l3 -32l5 -20l-2 -24l-3 -18l-2 -15
l-1 -17l-3 -18l-11 -29l-8 -15l-10 -14l-7 -13l-12 -11l-13 -9l-14 -9l-13 -11l-7 -16l3 -18l22 -62l7 -13l4 -15l5 -13l7 -15l4 -13l6 -18l17 -38l6 -20l13 -28l6 -16l1 -14l-11 -14zM166 346h47l15 4l14 1l16 4l16 9l14 7l12 9l22 39l6 17v17l4 14l1 24l-3 64l-5 15
l-27 40l-14 12l-12 7l-14 5l-39 8l-43 3l-17 -2l-14 -5l-10 -9l-7 -19l1 -13l1 -33l-2 -20l-1 -23l2 -17l-2 -40l1 -23l-1 -19l2 -13l-1 -16l1 -15l5 -16l12 -13zM221 -89h17l13 -9l3 -12l-8 -16l-3 -14l-6 -14l-6 -17l-4 -11l-5 -16l-3 -16l-6 -15l-14 -14l-17 -9l-11 10
l-3 14l2 18l6 15l3 18l4 18l3 16l3 17l3 13l12 16z" />
    <glyph glyph-name="rcommaaccent" unicode="&#x157;" horiz-adv-x="306" 
d="M102 -1l-20 1l-19 7l-7 20l1 48l1 16l-2 35v88l2 14l-1 14l-2 196l-3 16l4 13l10 7h20l21 -5l10 -15l1 -11l7 -10l9 6l10 10l10 9l12 6l26 12l15 5l27 5l27 -5l15 -4l10 -11l2 -17l-4 -15l-10 -11l-14 -2l-14 4h-15l-13 1l-14 -2l-13 -5l-13 -4l-12 -7l-11 -6l-20 -20
l-10 -19l-4 -19l1 -13l-1 -21l1 -16v-20l-2 -14l2 -15l-1 -13l1 -13l-1 -29l1 -27l-2 -28v-43l2 -14v-45l-2 -14l-6 -14zM92 -89h17l13 -9l3 -12l-8 -16l-3 -14l-6 -14l-6 -17l-4 -11l-5 -16l-3 -16l-6 -15l-14 -14l-17 -9l-11 10l-3 14l2 18l6 15l3 18l4 18l3 16l3 17l3 13
l12 16z" />
    <glyph glyph-name="Rcaron" unicode="&#x158;" horiz-adv-x="437" 
d="M182 748l-20 7l-15 11l-12 12l-12 16l-15 17l-12 10v13l14 8l23 -7l19 -11l11 -15l12 -10l17 -9l15 6l13 13l10 14l18 12l23 6l13 -4v-14l-10 -12l-10 -11l-7 -13l-10 -10l-10 -12l-19 -12l-19 -5h-17zM373 -3l-22 3l-18 12l-11 19l-10 25l-4 16l-7 15l-4 16l-7 14l-4 14
l-13 29l-4 13l-13 30l-7 13l-9 32l-6 13l-11 15l-13 13h-18l-34 2l-15 -1l-13 -12l-3 -18l2 -16v-15l1 -17l-1 -183l-5 -14l-12 -13l-17 -3l-16 5l-12 11l-3 16l-1 13l2 36l-3 29l-1 28l3 38v19l1 19l-3 55l3 18v16l-2 17l3 30l-1 79l-3 16v32l3 16v17l-4 16l1 14l3 17v26
l-3 22l3 16l1 15l-3 31l3 17l18 13l27 1l18 4l19 -1l17 -4l15 4l20 -3l26 -1l22 -3l13 2l18 -7l13 -4l16 -7l27 -15l12 -10l11 -13l11 -11l5 -11l11 -15l9 -33l3 -32l5 -20l-2 -24l-3 -18l-2 -15l-1 -17l-3 -18l-11 -29l-8 -15l-10 -14l-7 -13l-12 -11l-13 -9l-14 -9
l-13 -11l-7 -16l3 -18l22 -62l7 -13l4 -15l5 -13l7 -15l4 -13l6 -18l17 -38l6 -20l13 -28l6 -16l1 -14l-11 -14zM166 346h47l15 4l14 1l16 4l16 9l14 7l12 9l22 39l6 17v17l4 14l1 24l-3 64l-5 15l-27 40l-14 12l-12 7l-14 5l-39 8l-43 3l-17 -2l-14 -5l-10 -9l-7 -19l1 -13
l1 -33l-2 -20l-1 -23l2 -17l-2 -40l1 -23l-1 -19l2 -13l-1 -16l1 -15l5 -16l12 -13z" />
    <glyph glyph-name="rcaron" unicode="&#x159;" horiz-adv-x="306" 
d="M165 539l-20 7l-15 11l-12 12l-12 16l-15 17l-12 10v13l14 8l23 -7l19 -11l11 -15l12 -10l17 -9l15 6l13 13l10 14l18 12l23 6l13 -4v-14l-10 -12l-10 -11l-7 -13l-10 -10l-10 -12l-19 -12l-19 -5h-17zM102 -1l-20 1l-19 7l-7 20l1 48l1 16l-2 35v88l2 14l-1 14l-2 196
l-3 16l4 13l10 7h20l21 -5l10 -15l1 -11l7 -10l9 6l10 10l10 9l12 6l26 12l15 5l27 5l27 -5l15 -4l10 -11l2 -17l-4 -15l-10 -11l-14 -2l-14 4h-15l-13 1l-14 -2l-13 -5l-13 -4l-12 -7l-11 -6l-20 -20l-10 -19l-4 -19l1 -13l-1 -21l1 -16v-20l-2 -14l2 -15l-1 -13l1 -13
l-1 -29l1 -27l-2 -28v-43l2 -14v-45l-2 -14l-6 -14z" />
    <glyph glyph-name="Sacute" unicode="&#x15a;" horiz-adv-x="421" 
d="M196 749l-13 7v13l13 26l8 13l6 13l17 12l18 9h17l8 -10v-12l-9 -13l-10 -14l-8 -10l-9 -13l-17 -16zM200 -11l-23 3l-16 -1l-18 5l-14 1l-17 4l-18 7l-27 15l-14 12l-8 16l4 20l16 11l15 -4l14 -9l44 -18l17 -3l15 -1l26 -4l23 4l30 9l27 18l11 12l10 12l6 13l6 17l4 15
l3 14v23l1 24l-1 19l-5 11l-6 18l-6 12l-19 24l-35 33l-14 8l-13 10l-55 31l-25 19l-15 7l-10 15l-24 22l-22 36l-12 32l-4 30l-2 23l4 39l17 47l8 12l12 8l13 13l14 7l10 11l15 7l24 8h22l24 2l25 1l19 -2l32 -8l14 -6l31 -18l8 -16l-4 -20l-19 -14l-21 5l-12 9l-17 8h-17
l-16 5l-25 2l-23 -4l-27 -12l-13 -10l-10 -10l-8 -15l-9 -11l-3 -18l1 -62l8 -14l5 -15l10 -12l9 -14l41 -31l55 -31l53 -36l45 -42l9 -16l9 -14l8 -13l11 -31v-14l4 -17l1 -25l-2 -24l-3 -17l-3 -14l-3 -15l-5 -15l-7 -15l-5 -13l-10 -16l-13 -10l-9 -12l-12 -11l-26 -19
l-15 -5l-32 -8z" />
    <glyph glyph-name="sacute" unicode="&#x15b;" horiz-adv-x="338" 
d="M151 540l-13 7v13l13 26l8 13l6 13l17 12l18 9h17l8 -10v-12l-9 -13l-10 -14l-8 -10l-9 -13l-17 -16zM166 -10l-16 1l-13 3l-12 4l-14 2l-13 3l-12 7l-24 11l-10 9l-12 8l-7 12l2 19l6 11l11 6l14 -3l12 -6l39 -23l28 -6l35 -4l21 3l12 4l12 7l11 11l12 21l3 15l1 21
l-2 24l-5 12l-8 14l-10 11l-18 14l-18 11l-11 6l-22 8l-19 9l-24 14l-35 24l-24 32l-6 15l-4 13l-3 13l-2 41l3 14l3 12l6 12l6 15l20 19l11 5l10 9l47 11l15 -1h35l13 -2l28 -9l13 -2l13 -7l12 -7l9 -15v-17l-4 -11l-11 -8l-15 3l-14 4l-20 8l-21 5l-14 5l-43 -3l-12 -6
l-12 -10l-7 -9l-3 -13l-2 -21l1 -23l5 -11l8 -13l10 -11l9 -5l12 -10l13 -6l19 -11l65 -34l20 -17l9 -9l18 -22l11 -25l4 -12l2 -14l1 -42l-2 -13l-8 -27l-6 -13l-16 -24l-10 -10l-38 -18l-14 -4l-13 -3l-20 -1h-21z" />
    <glyph glyph-name="Scedilla" unicode="&#x15e;" horiz-adv-x="421" 
d="M198 -222l-15 1l-14 4l-16 9l-12 18l10 19h17l33 -7l15 3l14 7l10 12l3 20l-5 26l-12 11l-14 4l-18 2l-19 6l-9 18l18 60l-7 1l-16 -1l-18 5l-14 1l-17 4l-18 7l-27 15l-14 12l-8 16l4 20l16 11l15 -4l14 -9l44 -18l17 -3l15 -1l26 -4l23 4l30 9l27 18l11 12l10 12l6 13
l6 17l4 15l3 14v23l1 24l-1 19l-5 11l-6 18l-6 12l-19 24l-35 33l-14 8l-13 10l-55 31l-25 19l-15 7l-10 15l-24 22l-22 36l-12 32l-4 30l-2 23l4 39l17 47l8 12l12 8l13 13l14 7l10 11l15 7l24 8h22l24 2l25 1l19 -2l32 -8l14 -6l31 -18l8 -16l-4 -20l-19 -14l-21 5l-12 9
l-17 8h-17l-16 5l-25 2l-23 -4l-27 -12l-13 -10l-10 -10l-8 -15l-9 -11l-3 -18l1 -62l8 -14l5 -15l10 -12l9 -14l149 -98l45 -42l9 -16l9 -14l8 -13l11 -31v-14l4 -17l1 -25l-2 -24l-3 -17l-3 -14l-3 -15l-5 -15l-7 -15l-5 -13l-10 -16l-13 -10l-9 -12l-12 -11l-26 -19
l-15 -5l-32 -8l-16 -2l-8 -23l3 -18l15 -9l15 -5l15 -10l21 -23l7 -16l-1 -52l-30 -38l-15 -7l-15 -4l-15 -6z" />
    <glyph glyph-name="scedilla" unicode="&#x15f;" horiz-adv-x="338" 
d="M169 -221l-15 1l-14 4l-16 9l-12 18l10 19h17l33 -7l15 3l14 7l10 12l3 20l-5 26l-12 11l-14 4l-18 2l-19 6l-9 18l15 59h-3l-13 3l-12 4l-14 2l-13 3l-12 7l-24 11l-10 9l-12 8l-7 13l2 19l6 10l11 7l14 -4l12 -6l39 -22l28 -6l35 -5l21 3l12 4l12 8l11 10l12 21l3 15
l1 22l-2 23l-5 12l-8 15l-10 10l-18 14l-18 11l-11 6l-22 8l-19 10l-24 13l-35 24l-24 32l-6 15l-4 13l-3 14l-2 40l3 14l3 13l6 12l6 14l20 20l11 5l10 8l47 11l15 -1h35l13 -2l28 -8l13 -3l13 -7l12 -7l9 -15v-16l-4 -11l-11 -8l-15 3l-14 4l-20 8l-21 5l-14 4l-43 -2
l-12 -7l-12 -9l-7 -10l-3 -12l-2 -21l1 -24l5 -10l8 -14l10 -10l9 -6l12 -10l13 -5l19 -11l65 -34l20 -18l9 -9l18 -22l11 -25l4 -12l2 -13l1 -43l-2 -12l-8 -28l-6 -13l-16 -23l-10 -10l-38 -19l-14 -4l-13 -2l-13 -1l-5 -22l3 -18l15 -9l15 -5l15 -10l21 -23l7 -16l-1 -52
l-18 -24l-12 -14l-15 -7l-15 -4l-15 -6z" />
    </font>
</defs>
</svg>
