<?xml version="1.0" standalone="no"?>
<!DOCTYPE svg PUBLIC "-//W3C//DTD SVG 1.1//EN" "http://www.w3.org/Graphics/SVG/1.1/DTD/svg11.dtd" >
<svg xmlns="http://www.w3.org/2000/svg" xmlns:xlink="http://www.w3.org/1999/xlink" version="1.1">
<metadata>
Created by FontForge 20170731 at Sat Oct 17 12:48:26 2015
 By Aleksey,,,
Copyright (c) 2015 by DearType, Veneta Rangelova. All rights reserved.
</metadata>
<defs>
<font id="Lifehack-Regular" horiz-adv-x="0" >
  <font-face 
    font-family="Lifehack"
    font-weight="400"
    font-stretch="normal"
    units-per-em="1000"
    panose-1="0 0 5 0 0 0 0 0 0 0"
    ascent="730"
    descent="-270"
    x-height="431"
    cap-height="787"
    bbox="-648 -458 2332 1070"
    underline-thickness="50"
    underline-position="-200"
    unicode-range="U+0020-FB02"
  />
<missing-glyph horiz-adv-x="500" 
d="M410 730v-1000h-317v1000h317zM333 663h-165v-33h65v-37h-66v-33h166v33h-66v37h66v33zM267 534h-100v-104h166v34h-66v70zM233 500v-36h-33v36h33zM333 403h-166v-33h66v-37h-66v-33h100v70h66v33zM333 343h-33v-66h-133v-34h166v100zM333 221h-100v-56h34v23h33v-47
h-100v80h-33v-113h166v113zM333 48h-166v-113h166v113zM300 15v-47h-100v47h100zM333 -88h-166v-33h70l-70 -47v-33h166v33h-102l70 47h32v33z" />
    <glyph glyph-name="fi" unicode="fi" horiz-adv-x="560" 
d="M414 368q62 0 62 -63q0 -47 -3 -138.5t-3 -150.5q-24 -14 -43 -14q-32 0 -43 25t-11 98q0 23 2 77t2 83q-39 -56 -115 -56q-40 0 -66 13q33 -38 43.5 -81.5t10.5 -108.5q0 -118 -35.5 -199t-87.5 -81q-57 0 -86.5 101.5t-29.5 293.5q0 64 3 126.5t13 136t25 127.5
t42.5 90.5t62.5 36.5q37 0 63 -42q-6 -60 -35.5 -130t-63.5 -105q0 -55 -1 -81q74 -64 146 -64q50 0 74 28.5t36 73.5q26 4 38 4zM419 430q-21 0 -32.5 23.5t-11.5 46.5q0 14 18.5 24t44.5 10q21 0 34 -12t13 -30q0 -19 -23 -40.5t-43 -21.5zM143 -157q24 0 44 75t20 155
q0 150 -88 197q-2 -68 -2 -144q-1 -181 3.5 -232t22.5 -51z" />
    <glyph glyph-name="fl" unicode="fl" horiz-adv-x="770" 
d="M806 319q19 -2 19 -17q0 -10 -18.5 -41.5t-51.5 -71.5t-72 -78t-87 -64t-89 -26q-64 0 -101.5 69t-39.5 189q-42 -50 -100 -50q-43 0 -70 13q33 -38 43.5 -81.5t10.5 -108.5q0 -118 -35.5 -199t-87.5 -81q-57 0 -86.5 101.5t-29.5 293.5q0 64 3 126.5t13 136t25 127.5
t42.5 90.5t62.5 36.5q37 0 63 -42q-6 -60 -35.5 -130t-63.5 -105q0 -55 -1 -81q74 -64 146 -64q46 0 70 33t39 95q21 123 80 213.5t120 90.5q27 0 43.5 -19t16.5 -50q0 -37 -12.5 -82.5t-44 -110.5t-46.5 -94.5t-57 -105.5q5 -73 26.5 -113t55.5 -40q35 0 91.5 51.5
t94.5 100.5t63 88zM570 657q-36 0 -64.5 -117t-32.5 -230q48 78 82.5 170.5t34.5 145.5q0 31 -20 31zM143 -157q24 0 44 75t20 155q0 150 -88 197q-2 -68 -2 -144q-1 -181 3.5 -232t22.5 -51z" />
    <glyph glyph-name="a_z.liga" unicode="az" horiz-adv-x="1105" 
d="M1149 292q-111 -29 -268 -135q23 -37 24 -84q0 -75 -46 -148.5t-112 -117.5t-125 -44q-77 0 -77 78q0 59 66 139t168 158q-28 61 -138 83q-9 16 10 29q118 79 118 124q0 19 -22 19h-111q-24 0 -39 3q-47 -130 -113 -212.5t-137 -82.5q-62 0 -70 79q-23 -53 -74 -93
t-98 -40q-51 0 -84.5 36.5t-33.5 92.5q0 104 70 181.5t164 77.5q43 0 84 -27t52 -62q-16 -70 -16 -118q0 -75 43 -75q34 0 87.5 73t88.5 186q-21 16 -21 44q0 21 17 39t42 18q30 0 36 -21.5t-9 -46.5q27 -3 67 -3q89 0 123.5 -13.5t34.5 -47.5q0 -21 -24.5 -56.5
t-78.5 -79.5q22 0 52 -14t55 -39q181 119 277 124q11 1 14.5 -5t3.5 -19zM127 124q43 0 88.5 87.5t54.5 148.5q-7 38 -45 38q-40 0 -85 -76t-45 -141q0 -24 9 -40.5t23 -16.5zM791 66q0 17 -1 25q-187 -151 -188 -254q0 -15 7.5 -23.5t18.5 -8.5q23 0 61 38t70 101.5
t32 121.5z" />
    <glyph glyph-name="a_z_z.liga" unicode="azz" horiz-adv-x="1551" 
d="M1618 292q-111 -29 -268 -135q23 -37 24 -84q0 -75 -46 -148.5t-112 -117.5t-125 -44q-77 0 -77 78q0 59 66 139t168 158q-28 61 -138 83q-5 10 -3 15.5t13 13.5q118 79 118 124q0 19 -22 19h-111q-21 0 -43 4q-73 -135 -192 -237q25 -39 26 -87q0 -75 -46 -148.5
t-112 -117.5t-125 -44q-77 0 -77 78q0 58 66 138.5t168 158.5q-29 61 -138 83q-9 16 10 29q118 79 118 124q0 19 -22 19h-111q-13 0 -31 2q-46 -129 -112 -211.5t-137 -82.5q-62 0 -70 79q-23 -53 -74 -93t-98 -40q-51 0 -84.5 36.5t-33.5 92.5q0 104 70 181.5t164 77.5
q43 0 84 -27t52 -62q-16 -70 -16 -118q0 -75 43 -75q33 0 86 71.5t88 183.5q-28 13 -28 48q0 21 17 39t42 18q30 0 36 -21.5t-9 -46.5q27 -3 67 -3q89 0 123.5 -13.5t34.5 -47.5q0 -21 -24.5 -56.5t-78.5 -79.5q52 0 106 -52q62 47 103.5 95.5t82.5 122.5q-22 16 -22 45
q0 21 17 39t42 18q30 0 36 -21.5t-9 -46.5q27 -3 67 -3q89 0 123.5 -13.5t34.5 -47.5q0 -21 -24.5 -56.5t-78.5 -79.5q22 0 52 -14t55 -39q181 119 277 124q11 1 14.5 -5t3.5 -19zM127 124q43 0 88.5 87.5t54.5 148.5q-7 38 -45 38q-40 0 -85 -76t-45 -141q0 -24 9 -40.5
t23 -16.5zM1260 66q0 17 -1 25q-187 -151 -188 -254q0 -15 7.5 -23.5t18.5 -8.5q23 0 61 38t70 101.5t32 121.5zM782 66q0 17 -1 25q-187 -149 -188 -254q0 -15 7.5 -23.5t18.5 -8.5q23 0 61 38t70 101.5t32 121.5z" />
    <glyph glyph-name="b_z.liga" unicode="bz" horiz-adv-x="1074" 
d="M1149 292q-111 -29 -268 -135q23 -37 24 -84q0 -75 -46 -148.5t-112 -117.5t-125 -44q-77 0 -77 78q0 59 66 139t168 158q-28 61 -138 83q-9 16 10 29q118 79 118 124q0 19 -22 19h-111q-15 0 -33 2q-18 -47 -47.5 -98t-76 -98.5t-92.5 -58.5q-24 -74 -73.5 -126
t-111.5 -52q-92 0 -140.5 71t-48.5 209q0 119 22 214q23 103 74.5 165.5t113.5 62.5q66 0 66 -79q0 -73 -50 -181.5t-115 -186.5q8 -89 34 -146t61 -57q30 0 57 30.5t47 76.5q-48 11 -74 43.5t-26 70.5q0 35 24 60.5t69 25.5q39 0 63.5 -27t24.5 -76q0 -23 -5 -51
q81 28 175 217l-2 1l-2 1q-31 13 -31 50q0 21 17 39t42 18q30 0 36 -21.5t-9 -46.5q27 -3 67 -3q89 0 123.5 -13.5t34.5 -47.5q0 -21 -24.5 -56.5t-78.5 -79.5q22 0 52 -14t55 -39q181 119 277 124q11 1 14.5 -5t3.5 -19zM213 608q-38 0 -65 -106t-27 -197v-20
q47 67 82.5 149t35.5 137q0 37 -26 37zM269 266q0 -23 19.5 -46.5t49.5 -32.5q9 32 9 60q0 68 -38 68q-19 0 -29.5 -15.5t-10.5 -33.5zM791 66q0 17 -1 25q-187 -151 -188 -254q0 -15 7.5 -23.5t18.5 -8.5q23 0 61 38t70 101.5t32 121.5z" />
    <glyph glyph-name="c_z.liga" unicode="cz" horiz-adv-x="1051" 
d="M1132 292q-111 -29 -268 -135q23 -37 24 -84q0 -75 -46 -148.5t-112 -117.5t-125 -44q-77 0 -77 78q0 59 66 139t168 158q-28 61 -138 83q-5 10 -3 15.5t13 13.5q118 79 118 124q0 19 -22 19h-111q-20 0 -35 3q-12 -33 -36 -77t-62 -94t-81 -92t-97.5 -69.5t-107.5 -27.5
q-92 0 -142.5 57t-50.5 137q0 82 56.5 144t150.5 62q47 0 86 -23.5t39 -50.5q0 -17 -46 -38q-38 61 -76 61q-45 0 -71 -44.5t-26 -105.5t26 -105t73 -44t95.5 28t91.5 76.5t79 101.5t69 114h-1q-31 13 -31 50q0 21 17 39t42 18q30 0 36 -21.5t-9 -46.5q27 -3 67 -3
q89 0 123.5 -13.5t34.5 -47.5q0 -21 -24.5 -56.5t-78.5 -79.5q22 0 52 -14t55 -39q181 119 277 124q11 1 14.5 -5t3.5 -19zM774 66q0 17 -1 25q-187 -151 -188 -254q0 -15 7.5 -23.5t18.5 -8.5q23 0 61 38t70 101.5t32 121.5z" />
    <glyph glyph-name="d_d.liga" unicode="dd" horiz-adv-x="1192" 
d="M1226 323q23 -7 23 -21q0 -19 -19.5 -60.5t-50.5 -87t-77 -79.5t-91 -34q-89 0 -123 121q-17 -53 -54 -82.5t-88 -29.5q-62 0 -99.5 38.5t-48.5 97.5q-32 -60 -79.5 -102.5t-103.5 -42.5q-89 0 -119 131q-40 -92 -134 -92q-42 0 -75 19t-49.5 49.5t-24 68t1 74.5
t25.5 67.5t49 49.5t72 19q74 0 122 -64q1 12 1 30q0 148 20 211t65 63q22 0 48 -25q-47 -133 -47 -287q0 -260 78 -260q48 0 90.5 64t66.5 135l1 4q1 1 1 2q17 47 52 76.5t86 29.5q73 0 121 -63v46q0 160 21.5 228t70.5 68q24 0 51 -26q-50 -144 -50 -311q0 -121 22 -187
t63 -66q34 0 75 46.5t65.5 93t41.5 88.5zM183 134q36 0 62.5 47t34.5 123q-37 67 -90 67q-33 0 -53 -34t-20 -88q0 -53 17.5 -84t48.5 -31zM772 106q36 0 61 49t32 128q-33 66 -85 66q-33 0 -53.5 -35.5t-20.5 -90.5q0 -54 17.5 -85.5t48.5 -31.5z" />
    <glyph glyph-name="d_z.liga" unicode="dz" horiz-adv-x="1145" 
d="M1220 292q-111 -29 -268 -135q23 -37 24 -84q0 -75 -46 -148.5t-112 -117.5t-125 -44q-77 0 -77 78q0 59 66 139t168 158q-28 61 -138 83q-5 10 -3 15.5t13 13.5q118 79 118 124q0 19 -22 19h-111q-12 0 -30 2q-18 -62 -42.5 -120t-56.5 -113t-73 -88t-83 -33
q-92 0 -130 124q-16 -54 -53.5 -84.5t-88.5 -30.5q-42 0 -75 19.5t-49.5 51t-24 69.5t1 76t25 69.5t49 51t72.5 19.5q72 0 121 -63v46q0 160 21.5 228t70.5 68q24 0 51 -26q-50 -144 -50 -311q0 -121 22 -187t63 -66q47 0 102.5 96.5t90.5 214.5q-31 13 -31 50q0 21 17 39
t42 18q30 0 36 -21.5t-9 -46.5q27 -3 67 -3q89 0 123.5 -13.5t34.5 -47.5q0 -21 -24.5 -56.5t-78.5 -79.5q22 0 52 -14t55 -39q181 119 277 124q11 1 14.5 -5t3.5 -19zM176 106q36 0 61 49t32 128q-33 66 -85 66q-33 0 -53.5 -35.5t-20.5 -90.5q0 -54 17.5 -85.5t48.5 -31.5
zM862 66q0 17 -1 25q-187 -151 -188 -254q0 -15 7.5 -23.5t18.5 -8.5q23 0 61 38t70 101.5t32 121.5z" />
    <glyph glyph-name="e_z.liga" unicode="ez" horiz-adv-x="1056" 
d="M1130 292q-111 -29 -268 -135q23 -37 24 -84q0 -75 -46 -148.5t-112 -117.5t-125 -44q-77 0 -77 78q0 59 66 139t168 158q-28 61 -138 83q-9 16 10 29q118 79 118 124q0 19 -22 19h-111q-14 0 -32 2q-23 -61 -58 -122t-80.5 -117.5t-101.5 -91.5t-111 -35q-91 0 -156 62
t-65 155q0 92 49.5 155.5t120.5 63.5q48 0 74.5 -29.5t26.5 -83.5q0 -105 -132 -190q38 -72 105 -72q71 0 153 90t140 227q-30 13 -30 49q0 21 17 39t42 18q30 0 36 -21.5t-9 -46.5q27 -3 67 -3q89 0 123.5 -13.5t34.5 -47.5q0 -21 -24.5 -56.5t-78.5 -79.5q22 0 52 -14
t55 -39q181 119 277 124q11 1 14.5 -5t3.5 -19zM189 411q-26 0 -45 -35t-19 -84t13 -93q90 78 90 157q0 24 -11 39.5t-28 15.5zM772 66q0 17 -1 25q-187 -151 -188 -254q0 -15 7.5 -23.5t18.5 -8.5q23 0 61 38t70 101.5t32 121.5z" />
    <glyph glyph-name="e_z_z.liga" unicode="ezz" horiz-adv-x="1535" 
d="M1610 292q-111 -29 -268 -135q23 -37 24 -84q0 -75 -46 -148.5t-112 -117.5t-125 -44q-77 0 -77 78q0 59 66 139t168 158q-28 61 -138 83q-9 16 10 29q118 79 118 124q0 19 -22 19h-111q-21 0 -43 4q-73 -135 -192 -237q25 -39 26 -87q0 -75 -46 -148.5t-112 -117.5
t-125 -44q-77 0 -77 78q0 58 66 138.5t168 158.5q-29 61 -138 83q-5 10 -3 15.5t13 13.5q118 79 118 124q0 19 -22 19h-111q-21 0 -34 3q-23 -61 -58 -122.5t-80.5 -118t-101.5 -91.5t-111 -35q-91 0 -156 62t-65 155q0 92 49.5 155.5t120.5 63.5q48 0 74.5 -29.5
t26.5 -83.5q0 -105 -132 -190q38 -72 105 -72q71 0 153 90t141 227q-29 15 -29 49q0 21 17 39t42 18q30 0 36 -21.5t-9 -46.5q27 -3 67 -3q89 0 123.5 -13.5t34.5 -47.5q0 -21 -24.5 -56.5t-78.5 -79.5q52 0 106 -52q62 47 103.5 95.5t82.5 122.5q-22 16 -22 45q0 21 17 39
t42 18q30 0 36 -21.5t-9 -46.5q27 -3 67 -3q89 0 123.5 -13.5t34.5 -47.5q0 -21 -24.5 -56.5t-78.5 -79.5q22 0 52 -14t55 -39q181 119 277 124q11 1 14.5 -5t3.5 -19zM189 411q-26 0 -45 -35t-19 -84t13 -93q90 78 90 157q0 24 -11 39.5t-28 15.5zM1252 66q0 17 -1 25
q-187 -151 -188 -254q0 -15 7.5 -23.5t18.5 -8.5q23 0 61 38t70 101.5t32 121.5zM774 66q0 17 -1 25q-187 -149 -188 -254q0 -15 7.5 -23.5t18.5 -8.5q23 0 61 38t70 101.5t32 121.5z" />
    <glyph glyph-name="f_z.liga" unicode="fz" horiz-adv-x="943" 
d="M1020 292q-111 -29 -268 -135q23 -37 24 -84q0 -75 -46 -148.5t-112 -117.5t-125 -44q-77 0 -77 78q0 59 66 139t168 158q-28 61 -138 83q-5 10 -3 15.5t13 13.5q118 79 118 124q0 19 -22 19h-111q-21 0 -36 3q-83 -167 -210 -167q-38 0 -65 13q33 -38 43.5 -81.5
t10.5 -108.5q0 -118 -35.5 -199t-87.5 -81q-57 0 -86.5 101.5t-29.5 293.5q0 64 3 126.5t13 136t25 127.5t42.5 90.5t62.5 36.5q37 0 63 -42q-6 -60 -35.5 -130t-63.5 -105q0 -54 -1 -78q70 -59 151 -59q42 0 87.5 34t82.5 102q-31 13 -31 50q0 21 17 39t42 18
q30 0 36 -21.5t-9 -46.5q27 -3 67 -3q89 0 123.5 -13.5t34.5 -47.5q0 -21 -24.5 -56.5t-78.5 -79.5q22 0 52 -14t55 -39q181 119 277 124q11 1 14.5 -5t3.5 -19zM143 -157q24 0 44 75t20 155q0 150 -88 197q-2 -68 -2 -144q-1 -181 3.5 -232t22.5 -51zM662 66q0 17 -1 25
q-187 -151 -188 -254q0 -15 7.5 -23.5t18.5 -8.5q23 0 61 38t70 101.5t32 121.5z" />
    <glyph glyph-name="g_z.liga" unicode="gz" horiz-adv-x="1008" 
d="M1088 292q-111 -29 -268 -135q23 -37 24 -84q0 -75 -46 -148.5t-112 -117.5t-125 -44q-77 0 -77 78q0 59 66 139t168 158q-28 61 -138 83q-9 16 10 29q118 79 118 124q0 19 -22 19h-111q-15 0 -33 2q-13 -24 -30.5 -46.5t-31 -36.5t-39.5 -33.5t-36.5 -26.5t-42.5 -27
t-38 -24v-33q0 -62 -13.5 -132t-39 -135.5t-70 -108t-98.5 -42.5q-42 0 -65.5 30t-23.5 79q0 89 56.5 171t148.5 150q0 52 -6 82q-22 -46 -57 -72t-73 -26q-41 0 -63 27.5t-22 79.5q0 82 69.5 150.5t152.5 68.5q26 0 45.5 -8t19.5 -18q0 -3 -15 -12.5t-33 -16.5
q-10 12 -25 12q-52 0 -87 -64t-35 -121q0 -50 27 -50q33 0 59.5 49.5t19.5 95.5q52 34 68 34q48 0 57 -145q46 26 73 44t59.5 49.5t52.5 68.5q-28 13 -28 48q0 21 17 39t42 18q30 0 36 -21.5t-9 -46.5q27 -3 67 -3q89 0 123.5 -13.5t34.5 -47.5q0 -21 -24.5 -56.5
t-78.5 -79.5q22 0 52 -14t55 -39q181 119 277 124q11 1 14.5 -5t3.5 -19zM104 -222q30 0 56 66t38.5 137.5t18.5 136.5q-144 -135 -144 -275q0 -28 8.5 -46.5t22.5 -18.5zM730 66q0 17 -1 25q-187 -151 -188 -254q0 -15 7.5 -23.5t18.5 -8.5q23 0 61 38t70 101.5t32 121.5z
" />
    <glyph glyph-name="h_z.liga" unicode="hz" horiz-adv-x="1099" 
d="M1171 292q-111 -29 -268 -135q23 -37 24 -84q0 -75 -46 -148.5t-112 -117.5t-125 -44q-77 0 -77 78q0 59 66 139t168 158q-28 61 -138 83q-9 16 10 29q118 79 118 124q0 19 -22 19h-111q-13 0 -33 2q-47 -152 -123.5 -263t-142.5 -111q-47 0 -72 55.5t-23 133.5
q-35 -138 -83 -212t-93 -74q-76 0 -76 211q0 76 12.5 162t35 164.5t60 130t80.5 51.5q31 0 50.5 -28t19.5 -71q0 -126 -159 -242q-6 -70 -6 -112q0 -120 17 -120q13 0 34 39t41 86.5t47 86.5t50 39q32 0 60 -42q-11 -42 -11 -94q0 -89 43 -89q15 0 36 16t48 49.5t59.5 97
t62.5 147.5q-31 13 -31 50q0 21 17 39t42 18q30 0 36 -21.5t-9 -46.5q27 -3 67 -3q89 0 123.5 -13.5t34.5 -47.5q0 -21 -24.5 -56.5t-78.5 -79.5q22 0 52 -14t55 -39q181 119 277 124q11 1 14.5 -5t3.5 -19zM184 582q-44 0 -69 -229q38 27 65 80t27 102q0 47 -23 47zM813 66
q0 17 -1 25q-187 -151 -188 -254q0 -15 7.5 -23.5t18.5 -8.5q23 0 61 38t70 101.5t32 121.5z" />
    <glyph glyph-name="j_z.liga" unicode="jz" horiz-adv-x="957" 
d="M106 465q-31 0 -50.5 18.5t-19.5 46.5q0 19 26 33t60 14q48 0 48 -32t-19 -56t-45 -24zM1034 292q-111 -29 -268 -135q23 -37 24 -84q0 -75 -46 -148.5t-112 -117.5t-125 -44q-77 0 -77 78q0 59 66 139t168 158q-28 61 -138 83q-5 10 -3 15.5t13 13.5q118 79 118 124
q0 19 -22 19h-111q-21 0 -36 3q-31 -54 -75 -101.5t-111 -105t-90 -79.5q2 -42 2 -61q0 -147 -40 -219.5t-99 -72.5q-29 0 -48 22t-19 56q0 92 117 233q-8 83 -27.5 165.5t-44.5 131.5q42 33 75 33q24 0 46.5 -71.5t33.5 -169.5q19 17 60.5 50.5t68 56t61 62t58.5 81.5
q-29 15 -29 49q0 21 17 39t42 18q30 0 36 -21.5t-9 -46.5q27 -3 67 -3q89 0 123.5 -13.5t34.5 -47.5q0 -21 -24.5 -56.5t-78.5 -79.5q22 0 52 -14t55 -39q181 119 277 124q11 1 14.5 -5t3.5 -19zM676 66q0 17 -1 25q-187 -151 -188 -254q0 -15 7.5 -23.5t18.5 -8.5
q23 0 61 38t70 101.5t32 121.5zM75 -203q51 0 51 190q0 18 -1 28q-80 -106 -80 -170q0 -20 8.5 -34t21.5 -14z" />
    <glyph glyph-name="k_z.liga" unicode="kz" horiz-adv-x="1087" 
d="M1162 292q-111 -29 -268 -135q23 -37 24 -84q0 -75 -46 -148.5t-112 -117.5t-125 -44q-77 0 -77 78q0 59 66 139t168 158q-28 61 -138 83q-5 10 -3 15.5t13 13.5q118 79 118 124q0 19 -22 19h-111q-5 0 -13.5 0.5t-12.5 0.5q-19 -76 -40.5 -133.5t-51 -110t-69.5 -80.5
t-88 -28q-49 0 -93 36.5t-91 107.5q-22 -16 -82 -51l-6 -2v-43q0 -41 -13 -64t-36 -23q-22 0 -43 13q17 78 17 278q0 264 -22 373q43 23 72 23q25 0 36 -20t11 -66q0 -19 -3 -66.5t-7.5 -123t-7.5 -138.5q30 81 80.5 138.5t103.5 57.5q68 0 68 -71q0 -76 -108 -168
q24 -35 39.5 -55t45 -41.5t58.5 -21.5q35 0 64.5 21.5t53.5 65t41.5 88.5t38.5 112l-8 4q-31 13 -31 50q0 21 17 39t42 18q30 0 36 -21.5t-9 -46.5q27 -3 67 -3q89 0 123.5 -13.5t34.5 -47.5q0 -21 -24.5 -56.5t-78.5 -79.5q22 0 52 -14t55 -39q181 119 277 124
q11 1 14.5 -5t3.5 -19zM106 185q57 38 108.5 92t51.5 101q0 11 -6 19t-14 8q-27 0 -75 -74t-65 -146zM804 66q0 17 -1 25q-187 -151 -188 -254q0 -15 7.5 -23.5t18.5 -8.5q23 0 61 38t70 101.5t32 121.5z" />
    <glyph glyph-name="l_z.liga" unicode="lz" horiz-adv-x="977" 
d="M1059 292q-111 -29 -268 -135q23 -37 24 -84q0 -75 -46 -148.5t-112 -117.5t-125 -44q-77 0 -77 78q0 59 66 139t168 158q-28 61 -138 83q-9 16 10 29q118 79 118 124q0 19 -22 19h-111q-14 0 -32 2q-59 -157 -152 -265.5t-190 -108.5q-79 0 -120 70t-41 196q0 97 31 192
t80 155t98 60q27 0 43.5 -19t16.5 -50q0 -48 -29 -124.5t-55.5 -128t-75.5 -139.5q11 -154 87 -154q55 0 133.5 93t137.5 235q-29 15 -29 49q0 21 17 39t42 18q30 0 36 -21.5t-9 -46.5q27 -3 67 -3q89 0 123.5 -13.5t34.5 -47.5q0 -21 -24.5 -56.5t-78.5 -79.5q22 0 52 -14
t55 -39q181 119 277 124q11 1 14.5 -5t3.5 -19zM215 657q-36 0 -64.5 -117t-32.5 -230q48 78 82.5 170.5t34.5 145.5q0 31 -20 31zM701 66q0 17 -1 25q-187 -151 -188 -254q0 -15 7.5 -23.5t18.5 -8.5q23 0 61 38t70 101.5t32 121.5z" />
    <glyph glyph-name="m_z.liga" unicode="mz" horiz-adv-x="1402" 
d="M1481 292q-111 -29 -268 -135q23 -37 24 -84q0 -75 -46 -148.5t-112 -117.5t-125 -44q-77 0 -77 78q0 59 66 139t168 158q-28 61 -138 83q-9 16 10 29q118 79 118 124q0 19 -22 19h-111q-15 0 -33 2q-138 -343 -300 -343q-58 0 -85 35t-27 91q0 22 5.5 69t5.5 74
q0 10 -4.5 17t-11.5 7q-22 0 -55.5 -66t-65 -132t-50.5 -66q-33 0 -54 29q18 113 18 173q0 43 -4 61t-16 18q-15 0 -40.5 -47t-50.5 -103t-62.5 -103t-73.5 -47q-38 0 -63 25q2 20 8.5 85.5t8 94.5t-1.5 76.5t-14 83.5q24 19 53 19q65 0 65 -137q0 -65 -17 -154
q18 28 50.5 86t53.5 93t51 64.5t58 29.5q72 0 72 -125q0 -48 -9 -96q51 116 89.5 164t88.5 48q33 0 52 -20.5t19 -56.5q0 -24 -4 -70t-4 -69q0 -49 10.5 -71.5t39.5 -22.5q49 0 116.5 92t111.5 208q-27 13 -27 47q0 21 17 39t42 18q30 0 36 -21.5t-9 -46.5q27 -3 67 -3
q89 0 123.5 -13.5t34.5 -47.5q0 -21 -24.5 -56.5t-78.5 -79.5q22 0 52 -14t55 -39q181 119 277 124q11 1 14.5 -5t3.5 -19zM1123 66q0 17 -1 25q-187 -151 -188 -254q0 -15 7.5 -23.5t18.5 -8.5q23 0 61 38t70 101.5t32 121.5z" />
    <glyph glyph-name="n_z.liga" unicode="nz" horiz-adv-x="1211" 
d="M1293 292q-111 -29 -268 -135q23 -37 24 -84q0 -75 -46 -148.5t-112 -117.5t-125 -44q-77 0 -77 78q0 59 66 139t168 158q-28 61 -138 83q-9 16 10 29q118 79 118 124q0 19 -22 19h-111q-13 0 -31 2q-26 -76 -59 -142t-75 -122t-94.5 -88.5t-107.5 -32.5q-59 0 -85 45
t-26 116q0 37 7.5 104.5t7.5 76.5q0 37 -15 37q-16 0 -51 -48t-71 -123.5t-50 -139.5q-14 -6 -32 -6q-47 0 -61 29t-14 89q0 39 4 98t4 82q0 38 -8 75q30 24 64 24q50 0 50 -57q0 -1 -3.5 -78t-1.5 -114q113 210 204 210q50 0 67 -34.5t17 -101.5q0 -14 -2 -63.5t-2 -71.5
q0 -43 11 -63.5t37 -20.5q16 0 43 18.5t61.5 55t74 104.5t71.5 153q-31 13 -31 50q0 21 17 39t42 18q30 0 36 -21.5t-9 -46.5q27 -3 67 -3q89 0 123.5 -13.5t34.5 -47.5q0 -21 -24.5 -56.5t-78.5 -79.5q22 0 52 -14t55 -39q181 119 277 124q11 1 14.5 -5t3.5 -19zM935 66
q0 17 -1 25q-187 -151 -188 -254q0 -15 7.5 -23.5t18.5 -8.5q23 0 61 38t70 101.5t32 121.5z" />
    <glyph glyph-name="o_z.liga" unicode="oz" horiz-adv-x="1093" 
d="M1167 292q-111 -29 -268 -135q23 -37 24 -84q0 -75 -46 -148.5t-112 -117.5t-125 -44q-77 0 -77 78q0 59 66 139t168 158q-28 61 -138 83q-9 16 10 29q118 79 118 124q0 19 -22 19h-111q-22 0 -37 3q-32 -81 -86 -130.5t-117 -49.5q-34 0 -60 13q-14 -75 -62 -127
t-123 -53q-74 -1 -122 48.5t-48 127.5q0 53 23 87t61 37q4 51 42 80t90 29q69 0 106.5 -51.5t37.5 -125.5v-5q25 -17 55 -17q97 0 173 148q-30 13 -30 49q0 21 17 39t42 18q30 0 36 -21.5t-9 -46.5q27 -3 67 -3q89 0 123.5 -13.5t34.5 -47.5q0 -21 -24.5 -56.5t-78.5 -79.5
q22 0 52 -14t55 -39q181 119 277 124q11 1 14.5 -5t3.5 -19zM169 79q40 0 64 56t24 128q0 61 -19 103.5t-56 42.5q-42 0 -74 -62q40 -10 40 -64q0 -12 -3 -30q-41 -21 -41 -84q0 -36 17 -63t48 -27zM809 66q0 17 -1 25q-187 -151 -188 -254q0 -15 7.5 -23.5t18.5 -8.5
q23 0 61 38t70 101.5t32 121.5z" />
    <glyph glyph-name="o_z_z.liga" unicode="ozz" horiz-adv-x="1570" 
d="M1639 292q-111 -29 -268 -135q23 -37 24 -84q0 -75 -46 -148.5t-112 -117.5t-125 -44q-77 0 -77 78q0 59 66 139t168 158q-28 61 -138 83q-9 16 10 29q118 79 118 124q0 19 -22 19h-111q-21 0 -43 4q-73 -135 -192 -237q25 -39 26 -87q0 -75 -46 -148.5t-112 -117.5
t-125 -44q-77 0 -77 78q0 58 66 138.5t168 158.5q-29 61 -138 83q-9 16 10 29q118 79 118 124q0 19 -22 19h-111q-13 0 -31 2q-33 -81 -86.5 -130t-116.5 -49q-34 0 -60 13q-14 -75 -62 -127t-123 -53q-74 -1 -122 48.5t-48 127.5q0 53 23 87t61 37q4 51 42 80t90 29
q69 0 106.5 -51.5t37.5 -125.5v-5q25 -17 55 -17q96 0 172 145l-4 2q-31 13 -31 50q0 21 17 39t42 18q30 0 36 -21.5t-9 -46.5q27 -3 67 -3q89 0 123.5 -13.5t34.5 -47.5q0 -21 -24.5 -56.5t-78.5 -79.5q52 0 106 -52q62 47 103.5 95.5t82.5 122.5q-22 16 -22 45q0 21 17 39
t42 18q30 0 36 -21.5t-9 -46.5q27 -3 67 -3q89 0 123.5 -13.5t34.5 -47.5q0 -21 -24.5 -56.5t-78.5 -79.5q22 0 52 -14t55 -39q181 119 277 124q11 1 14.5 -5t3.5 -19zM169 79q40 0 64 56t24 128q0 61 -19 103.5t-56 42.5q-42 0 -74 -62q40 -10 40 -64q0 -12 -3 -30
q-41 -21 -41 -84q0 -36 17 -63t48 -27zM1281 66q0 17 -1 25q-187 -151 -188 -254q0 -15 7.5 -23.5t18.5 -8.5q23 0 61 38t70 101.5t32 121.5zM803 66q0 17 -1 25q-187 -149 -188 -254q0 -15 7.5 -23.5t18.5 -8.5q23 0 61 38t70 101.5t32 121.5z" />
    <glyph glyph-name="p_z.liga" unicode="pz" horiz-adv-x="1058" 
d="M1135 292q-111 -29 -268 -135q23 -37 24 -84q0 -75 -46 -148.5t-112 -117.5t-125 -44q-77 0 -77 78q0 59 66 139t168 158q-28 61 -138 83q-9 16 10 29q118 79 118 124q0 19 -22 19h-111q-31 0 -49 6q-65 -68 -219 -113q-30 -60 -78.5 -105t-86.5 -45q-30 0 -30 32
q0 89 137 138q10 30 10 49q0 45 -41 45q-18 0 -36.5 -11t-39 -39t-36.5 -70t-26.5 -110.5t-10.5 -153.5q0 -103 17 -235q-29 -7 -55 -7q-45 0 -59 34.5t-9 131.5q13 240 13 367v22v21.5v18.5t-0.5 20l-1.5 18t-2 19.5t-3 19t-4.5 22t-5.5 22.5q32 26 59 26t37.5 -21
t10.5 -66q0 -56 -6 -108q26 54 78 99t104 45q39 0 63 -19q27 -23 27 -63q0 -27 -9 -56q116 36 171 89q-16 14 -16 40q0 21 17 39t42 18q30 0 36 -21.5t-9 -46.5q27 -3 67 -3q89 0 123.5 -13.5t34.5 -47.5q0 -21 -24.5 -56.5t-78.5 -79.5q22 0 52 -14t55 -39q181 119 277 124
q11 1 14.5 -5t3.5 -19zM207 175q13 0 33.5 26t37.5 62q-35 -14 -56 -30q-24 -18 -24 -44q1 -13 9 -14zM777 66q0 17 -1 25q-187 -151 -188 -254q0 -15 7.5 -23.5t18.5 -8.5q23 0 61 38t70 101.5t32 121.5z" />
    <glyph glyph-name="q_z.liga" unicode="qz" horiz-adv-x="1104" 
d="M1183 292q-111 -29 -268 -135q23 -37 24 -84q0 -75 -46 -148.5t-112 -117.5t-125 -44q-77 0 -77 78q0 59 66 139t168 158q-28 61 -138 83q-9 16 10 29q118 79 118 124q0 19 -22 19h-111q-31 0 -52 7q-77 -91 -146.5 -229t-150.5 -387q-25 -18 -61 -18q-15 0 -27 7.5
t-18.5 24.5t-11 33t-6 43t-2 45t-0.5 48q0 132 19 218q-69 -74 -144 -74q-34 0 -55 26t-21 68q1 74 47 136t113 95t134 33q56 0 56 -33q0 -15 -14 -26q-18 9 -39 9q-68 0 -137.5 -69.5t-69.5 -138.5q0 -41 32 -41q33 0 72 41t59 96q18 20 54 20q22 0 35 -11t13 -30
q0 -13 -14.5 -51t-31 -102.5t-21.5 -138.5q-4 -42 7 -155q57 190 137.5 340t157.5 243q-11 14 -11 34q0 21 17 39t42 18q30 0 36 -21.5t-9 -46.5q27 -3 67 -3q89 0 123.5 -13.5t34.5 -47.5q0 -21 -24.5 -56.5t-78.5 -79.5q22 0 52 -14t55 -39q181 119 277 124q11 1 14.5 -5
t3.5 -19zM825 66q0 17 -1 25q-187 -151 -188 -254q0 -15 7.5 -23.5t18.5 -8.5q23 0 61 38t70 101.5t32 121.5z" />
    <glyph glyph-name="r_z.liga" unicode="rz" horiz-adv-x="1033" 
d="M1117 292q-111 -29 -268 -135q23 -37 24 -84q0 -75 -46 -148.5t-112 -117.5t-125 -44q-77 0 -77 78q0 59 66 139t168 158q-28 61 -138 83q-9 16 10 29q118 79 118 124q0 19 -22 19h-111q-13 0 -31 2q-30 -80 -65.5 -149.5t-80 -131t-97 -97t-106.5 -35.5q-57 0 -94.5 32
t-37.5 81q0 38 14 73.5t38 73t28 44.5q-196 5 -196 103q0 46 31.5 76.5t74.5 30.5q19 0 30 -12.5t11 -32.5q0 -37 -30 -89q27 -7 84 -12t89 -13t32 -28q0 -19 -22 -58t-44.5 -83t-22.5 -77q0 -60 47 -60q58 0 137.5 108.5t142.5 267.5q-29 15 -29 49q0 21 17 39t42 18
q30 0 36 -21.5t-9 -46.5q27 -3 67 -3q89 0 123.5 -13.5t34.5 -47.5q0 -21 -24.5 -56.5t-78.5 -79.5q22 0 52 -14t55 -39q181 119 277 124q11 1 14.5 -5t3.5 -19zM71 478q-12 0 -25 -21.5t-13 -43.5q0 -25 27 -39q22 47 22 79q0 25 -11 25zM759 66q0 17 -1 25
q-187 -151 -188 -254q0 -15 7.5 -23.5t18.5 -8.5q23 0 61 38t70 101.5t32 121.5z" />
    <glyph glyph-name="s_z.liga" unicode="sz" horiz-adv-x="954" 
d="M1033 292q-111 -29 -268 -135q23 -37 24 -84q0 -75 -46 -148.5t-112 -117.5t-125 -44q-77 0 -77 78q0 59 66 139t168 158q-28 61 -138 83q-9 16 10 29q118 79 118 124q0 19 -22 19h-111q-31 0 -49 6q-75 -82 -231 -174q33 -38 33 -83q0 -61 -55 -97.5t-120 -36.5
q-40 0 -65 15.5t-25 45.5q0 59 102 127q-3 3 -22 20t-25.5 24.5t-18.5 23t-16.5 30.5t-4.5 33q0 35 21 61.5t58 38.5q38 11 73.5 9.5t50.5 -15.5q-4 -50 -94 -46q-12 -14 -1.5 -39t35.5 -47q7 -6 21.5 -17.5t22.5 -18.5q158 91 228 164q-15 15 -15 39q0 21 17 39t42 18
q30 0 36 -21.5t-9 -46.5q27 -3 67 -3q89 0 123.5 -13.5t34.5 -47.5q0 -21 -24.5 -56.5t-78.5 -79.5q22 0 52 -14t55 -39q181 119 277 124q11 1 14.5 -5t3.5 -19zM82 47q22 0 45 23t23 53q0 21 -13 40q-78 -51 -78 -89q0 -27 23 -27zM675 66q0 17 -1 25q-187 -151 -188 -254
q0 -15 7.5 -23.5t18.5 -8.5q23 0 61 38t70 101.5t32 121.5z" />
    <glyph glyph-name="t_z.liga" unicode="tz" horiz-adv-x="993" 
d="M1067 292q-111 -29 -268 -135q23 -37 24 -84q0 -75 -46 -148.5t-112 -117.5t-125 -44q-77 0 -77 78q0 59 66 139t168 158q-28 61 -138 83q-9 16 10 29q118 79 118 124q0 19 -22 19h-111q-21 0 -36 3q-26 -70 -48.5 -121.5t-52.5 -104.5t-60 -86t-69 -54t-81 -21
q-80 0 -126 58t-46 162q0 76 21 204q-23 1 -67 1q-30 0 -30 29q0 11 5 29q30 -7 100 -12q26 151 28 212q62 -2 82 -18t20 -67q0 -28 -17 -130h141l-6 -18q-5 -13 -32.5 -19t-110.5 -7q-28 -172 -28 -246q0 -57 24.5 -93t64.5 -36q119 0 251 352q-24 14 -24 46q0 21 17 39
t42 18q30 0 36 -21.5t-9 -46.5q27 -3 67 -3q89 0 123.5 -13.5t34.5 -47.5q0 -21 -24.5 -56.5t-78.5 -79.5q22 0 52 -14t55 -39q181 119 277 124q11 1 14.5 -5t3.5 -19zM709 66q0 17 -1 25q-187 -151 -188 -254q0 -15 7.5 -23.5t18.5 -8.5q23 0 61 38t70 101.5t32 121.5z" />
    <glyph glyph-name="u_z.liga" unicode="uz" horiz-adv-x="1121" 
d="M1196 292q-111 -29 -268 -135q23 -37 24 -84q0 -75 -46 -148.5t-112 -117.5t-125 -44q-77 0 -77 78q0 59 66 139t168 158q-28 61 -138 83q-9 16 10 29q118 79 118 124q0 19 -22 19h-111q-19 0 -41 4q-65 -163 -130.5 -249t-140.5 -86q-48 0 -79.5 30t-35.5 88
q-79 -124 -158 -124q-42 0 -66 30t-24 86q0 12 3.5 70t3.5 97q0 47 -6 86q42 6 56 6q28 0 40.5 -14t12.5 -48q0 -12 -4.5 -73t-4.5 -92q0 -68 41 -68q44 0 106 87q1 11 3 36.5t3.5 51t1.5 49.5q0 34 -5 64q20 2 30 2q42 0 59 -20.5t17 -72.5q0 -9 -5.5 -61t-5.5 -79
q0 -84 40 -84t98 80t114 224q-20 15 -20 43q0 21 17 39t42 18q30 0 36 -21.5t-9 -46.5q27 -3 67 -3q89 0 123.5 -13.5t34.5 -47.5q0 -21 -24.5 -56.5t-78.5 -79.5q22 0 52 -14t55 -39q181 119 277 124q11 1 14.5 -5t3.5 -19zM838 66q0 17 -1 25q-187 -151 -188 -254
q0 -15 7.5 -23.5t18.5 -8.5q23 0 61 38t70 101.5t32 121.5z" />
    <glyph glyph-name="u_z_z.liga" unicode="uzz" horiz-adv-x="1595" 
d="M1666 292q-111 -29 -268 -135q23 -37 24 -84q0 -75 -46 -148.5t-112 -117.5t-125 -44q-77 0 -77 78q0 59 66 139t168 158q-28 61 -138 83q-9 16 10 29q118 79 118 124q0 19 -22 19h-111q-21 0 -43 4q-73 -135 -192 -237q25 -39 26 -87q0 -75 -46 -148.5t-112 -117.5
t-125 -44q-77 0 -77 78q0 58 66 138.5t168 158.5q-29 61 -138 83q-5 10 -3 15.5t13 13.5q118 79 118 124q0 19 -22 19h-111q-14 0 -34 2q-65 -162 -130 -247.5t-140 -85.5q-48 0 -79.5 30t-35.5 88q-79 -124 -158 -124q-42 0 -66 30t-24 86q0 12 3.5 70t3.5 97q0 47 -6 86
q42 6 56 6q28 0 40.5 -14t12.5 -48q0 -12 -4.5 -73t-4.5 -92q0 -68 41 -68q44 0 106 87q1 11 3 36.5t3.5 51t1.5 49.5q0 34 -5 64q20 2 30 2q42 0 59 -20.5t17 -72.5q0 -9 -5.5 -61t-5.5 -79q0 -84 40 -84t97.5 78.5t112.5 221.5q-26 13 -26 47q0 21 17 39t42 18
q30 0 36 -21.5t-9 -46.5q27 -3 67 -3q89 0 123.5 -13.5t34.5 -47.5q0 -21 -24.5 -56.5t-78.5 -79.5q52 0 106 -52q62 47 103.5 95.5t82.5 122.5q-22 16 -22 45q0 21 17 39t42 18q30 0 36 -21.5t-9 -46.5q27 -3 67 -3q89 0 123.5 -13.5t34.5 -47.5q0 -21 -24.5 -56.5
t-78.5 -79.5q22 0 52 -14t55 -39q181 119 277 124q11 1 14.5 -5t3.5 -19zM1308 66q0 17 -1 25q-187 -151 -188 -254q0 -15 7.5 -23.5t18.5 -8.5q23 0 61 38t70 101.5t32 121.5zM830 66q0 17 -1 25q-187 -149 -188 -254q0 -15 7.5 -23.5t18.5 -8.5q23 0 61 38t70 101.5
t32 121.5z" />
    <glyph glyph-name="v_z.liga" unicode="vz" horiz-adv-x="1098" 
d="M1176 292q-111 -29 -268 -135q23 -37 24 -84q0 -75 -46 -148.5t-112 -117.5t-125 -44q-77 0 -77 78q0 59 66 139t168 158q-28 61 -138 83q-5 10 -3 15.5t13 13.5q118 79 118 124q0 19 -22 19h-111q-20 0 -35 3q-30 -65 -76 -104t-98 -39t-99 28l-1 -4
q-35 -102 -89.5 -171.5t-100.5 -69.5q-22 0 -37.5 16t-29 50.5t-24.5 72.5t-30 98t-39 110q38 39 91 39q39 0 56 -23.5t17 -82.5q0 -19 -2.5 -62.5t-2.5 -63.5q0 -80 30 -80q57 0 91 219q-18 36 -18 69q0 29 14.5 53t42.5 24q25 0 39.5 -21.5t14.5 -61.5q0 -36 -11 -73
q42 -30 88 -30q81 0 141 118q-29 15 -29 49q0 21 17 39t42 18q30 0 36 -21.5t-9 -46.5q27 -3 67 -3q89 0 123.5 -13.5t34.5 -47.5q0 -21 -24.5 -56.5t-78.5 -79.5q22 0 52 -14t55 -39q181 119 277 124q11 1 14.5 -5t3.5 -19zM818 66q0 17 -1 25q-187 -151 -188 -254
q0 -15 7.5 -23.5t18.5 -8.5q23 0 61 38t70 101.5t32 121.5z" />
    <glyph glyph-name="w_i.liga" unicode="wi" horiz-adv-x="922" 
d="M780 430q-21 0 -32.5 23.5t-11.5 46.5q0 14 18.5 24t44.5 10q21 0 34 -12t13 -30q0 -19 -23 -40.5t-43 -21.5zM775 368q62 0 62 -63q0 -47 -3 -138.5t-3 -150.5q-24 -14 -43 -14q-32 0 -43 25t-11 98q0 22 2 83.5t2 101.5v5q-17 -18 -46.5 -33t-59.5 -15q-48 0 -77 26v-3
q0 -57 -17.5 -109t-57 -89.5t-92.5 -37.5q-82 0 -103 100q-42 -117 -138 -117q-58 0 -91.5 59.5t-33.5 163.5q0 105 20.5 151.5t67.5 46.5q24 0 51 -10q-26 -71 -26 -163q0 -192 55 -192q26 0 46.5 42.5t20.5 88.5q0 34 -5 71q15 9 36 9q30 0 39 -19t12 -75q8 -121 56 -121
q34 0 52.5 41t18.5 109q0 91 -36 163q19 16 48 16q45 0 63 -44q21 -37 44 -52t55 -15q50 0 97 57q26 4 38 4z" />
    <glyph glyph-name="w_z.liga" unicode="wz" horiz-adv-x="1256" 
d="M1335 292q-111 -29 -268 -135q23 -37 24 -84q0 -75 -46 -148.5t-112 -117.5t-125 -44q-77 0 -77 78q0 59 66 139t168 158q-28 61 -138 83q-9 16 10 29q118 79 118 124q0 19 -22 19h-111q-23 0 -38 3q-33 -57 -68.5 -88.5t-83.5 -31.5q-42 0 -77 29v-15q0 -57 -17.5 -109
t-57 -89.5t-92.5 -37.5q-82 0 -103 100q-42 -117 -138 -117q-58 0 -91.5 59.5t-33.5 163.5q0 105 20.5 151.5t67.5 46.5q24 0 51 -10q-26 -71 -26 -163q0 -192 55 -192q26 0 46.5 42.5t20.5 88.5q0 34 -5 71q15 9 36 9q30 0 39 -19t12 -75q8 -121 56 -121q34 0 52.5 41
t18.5 109q0 91 -36 163q19 16 48 16q44 0 63 -43q18 -32 42.5 -48.5t47.5 -16.5q37 0 64.5 26t55.5 73q-26 15 -26 47q0 21 17 39t42 18q30 0 36 -21.5t-9 -46.5q27 -3 67 -3q89 0 123.5 -13.5t34.5 -47.5q0 -21 -24.5 -56.5t-78.5 -79.5q22 0 52 -14t55 -39
q181 119 277 124q11 1 14.5 -5t3.5 -19zM977 66q0 17 -1 25q-187 -151 -188 -254q0 -15 7.5 -23.5t18.5 -8.5q23 0 61 38t70 101.5t32 121.5z" />
    <glyph glyph-name="y_z.liga" unicode="yz" horiz-adv-x="1015" 
d="M1093 292q-111 -29 -268 -135q23 -37 24 -84q0 -75 -46 -148.5t-112 -117.5t-125 -44q-77 0 -77 78q0 59 66 139t168 158q-28 61 -138 83q-9 16 10 29q118 79 118 124q0 19 -22 19h-111q-28 0 -46 5q-66 -90 -218 -209q-21 -195 -85.5 -317t-145.5 -122q-36 0 -56 28.5
t-20 72.5q0 161 214 321q4 33 4 68q0 8 -0.5 21t-0.5 17q-59 -108 -130 -108q-39 0 -62.5 41t-23.5 109q0 14 1 39t1 38q0 24 -3 51q18 8 43 8q56 0 56 -40q0 -5 -4 -42t-4 -64q0 -82 40 -82q36 0 56.5 59t20.5 159q24 14 52 14q35 0 45 -26t10 -90q0 -59 -4 -103
q115 82 182 172q-19 16 -19 43q0 21 17 39t42 18q30 0 36 -21.5t-9 -46.5q27 -3 67 -3q89 0 123.5 -13.5t34.5 -47.5q0 -21 -24.5 -56.5t-78.5 -79.5q22 0 52 -14t55 -39q181 119 277 124q11 1 14.5 -5t3.5 -19zM91 -210q31 0 66.5 98.5t55.5 217.5q-154 -140 -154 -268
q0 -48 32 -48zM735 66q0 17 -1 25q-187 -151 -188 -254q0 -15 7.5 -23.5t18.5 -8.5q23 0 61 38t70 101.5t32 121.5z" />
    <glyph glyph-name="z_z.liga" unicode="zz" horiz-adv-x="1027" 
d="M1106 292q-111 -29 -268 -135q23 -37 24 -84q0 -75 -46 -148.5t-112 -117.5t-125 -44q-77 0 -77 78q0 59 66 139t168 158q-28 61 -138 83q-5 10 -3 15.5t13 13.5q118 79 118 124q0 19 -22 19h-111q-21 0 -43 4q-73 -135 -192 -237q25 -39 26 -87q0 -75 -46 -148.5
t-112 -117.5t-125 -44q-77 0 -77 78q0 58 66 138.5t168 158.5q-29 61 -138 83q-5 10 -3 15.5t13 13.5q118 79 118 124q0 19 -22 19h-111q-49 1 -66 13q-31 13 -31 50q0 21 17 39t42 18q30 0 36 -21.5t-9 -46.5q27 -3 67 -3q89 0 123.5 -13.5t34.5 -47.5q0 -21 -24.5 -56.5
t-78.5 -79.5q52 0 106 -52q62 47 103.5 95.5t82.5 122.5q-22 16 -22 45q0 21 17 39t42 18q30 0 36 -21.5t-9 -46.5q27 -3 67 -3q89 0 123.5 -13.5t34.5 -47.5q0 -21 -24.5 -56.5t-78.5 -79.5q22 0 52 -14t55 -39q181 119 277 124q11 1 14.5 -5t3.5 -19zM748 66q0 17 -1 25
q-187 -151 -188 -254q0 -15 7.5 -23.5t18.5 -8.5q23 0 61 38t70 101.5t32 121.5zM270 66q0 17 -1 25q-187 -149 -188 -254q0 -15 7.5 -23.5t18.5 -8.5q23 0 61 38t70 101.5t32 121.5z" />
    <glyph glyph-name="uni04300437.liga" unicode="&#x430;&#x437;" horiz-adv-x="1105" 
d="M1149 292q-111 -29 -268 -135q23 -37 24 -84q0 -75 -46 -148.5t-112 -117.5t-125 -44q-77 0 -77 78q0 59 66 139t168 158q-28 61 -138 83q-9 16 10 29q118 79 118 124q0 19 -22 19h-111q-24 0 -39 3q-47 -130 -113 -212.5t-137 -82.5q-62 0 -70 79q-23 -53 -74 -93
t-98 -40q-51 0 -84.5 36.5t-33.5 92.5q0 104 70 181.5t164 77.5q43 0 84 -27t52 -62q-16 -70 -16 -118q0 -75 43 -75q34 0 87.5 73t88.5 186q-21 16 -21 44q0 21 17 39t42 18q30 0 36 -21.5t-9 -46.5q27 -3 67 -3q89 0 123.5 -13.5t34.5 -47.5q0 -21 -24.5 -56.5
t-78.5 -79.5q22 0 52 -14t55 -39q181 119 277 124q11 1 14.5 -5t3.5 -19zM127 124q43 0 88.5 87.5t54.5 148.5q-7 38 -45 38q-40 0 -85 -76t-45 -141q0 -24 9 -40.5t23 -16.5zM791 66q0 17 -1 25q-187 -151 -188 -254q0 -15 7.5 -23.5t18.5 -8.5q23 0 61 38t70 101.5
t32 121.5z" />
    <glyph glyph-name="uni04310437.liga" unicode="&#x431;&#x437;" horiz-adv-x="1078" 
d="M1124 292q-111 -29 -268 -135q23 -37 24 -84q0 -75 -46 -148.5t-112 -117.5t-125 -44q-77 0 -77 78q0 59 66 139t168 158q-28 61 -138 83q-9 16 10 29q118 79 118 124q0 19 -22 19h-111q-22 0 -44 4q-69 -128 -168 -128q-27 0 -56 12q1 -7 1 -21q0 -87 -49 -159t-137 -75
q-72 0 -117.5 49t-45.5 127q0 86 45.5 148.5t117.5 79.5q-15 12 -55.5 38t-59.5 47.5t-19 48.5q0 38 29.5 70.5t72.5 51.5t87.5 29t79.5 10q39 0 39 -29q0 -24 -25 -44q-70 5 -136 -21t-66 -61q0 -23 39 -54.5t91 -67t70 -58.5q5 -7 15 -23q10 -19 14 -34q33 -22 68 -22
q67 0 133 101q-21 16 -21 44q0 21 17 39t42 18q30 0 36 -21.5t-9 -46.5q27 -3 67 -3q89 0 123.5 -13.5t34.5 -47.5q0 -21 -24.5 -56.5t-78.5 -79.5q22 0 52 -14t55 -39q181 119 277 124q11 1 14.5 -5t3.5 -19zM168 73q31 0 50 44t19 114q0 66 -16.5 109.5t-41.5 43.5
q-29 0 -50 -49t-21 -115q0 -65 16.5 -106t43.5 -41zM766 66q0 17 -1 25q-187 -151 -188 -254q0 -15 7.5 -23.5t18.5 -8.5q23 0 61 38t70 101.5t32 121.5z" />
    <glyph glyph-name="uni04320437.liga" unicode="&#x432;&#x437;" horiz-adv-x="1074" 
d="M1149 292q-111 -29 -268 -135q23 -37 24 -84q0 -75 -46 -148.5t-112 -117.5t-125 -44q-77 0 -77 78q0 59 66 139t168 158q-28 61 -138 83q-9 16 10 29q118 79 118 124q0 19 -22 19h-111q-15 0 -33 2q-18 -47 -47.5 -98t-76 -98.5t-92.5 -58.5q-24 -74 -73.5 -126
t-111.5 -52q-92 0 -140.5 71t-48.5 209q0 119 22 214q23 103 74.5 165.5t113.5 62.5q66 0 66 -79q0 -73 -50 -181.5t-115 -186.5q8 -89 34 -146t61 -57q30 0 57 30.5t47 76.5q-48 11 -74 43.5t-26 70.5q0 35 24 60.5t69 25.5q39 0 63.5 -27t24.5 -76q0 -23 -5 -51
q81 28 175 217l-2 1l-2 1q-31 13 -31 50q0 21 17 39t42 18q30 0 36 -21.5t-9 -46.5q27 -3 67 -3q89 0 123.5 -13.5t34.5 -47.5q0 -21 -24.5 -56.5t-78.5 -79.5q22 0 52 -14t55 -39q181 119 277 124q11 1 14.5 -5t3.5 -19zM213 608q-38 0 -65 -106t-27 -197v-20
q47 67 82.5 149t35.5 137q0 37 -26 37zM269 266q0 -23 19.5 -46.5t49.5 -32.5q9 32 9 60q0 68 -38 68q-19 0 -29.5 -15.5t-10.5 -33.5zM791 66q0 17 -1 25q-187 -151 -188 -254q0 -15 7.5 -23.5t18.5 -8.5q23 0 61 38t70 101.5t32 121.5z" />
    <glyph glyph-name="uni04330437.liga" unicode="&#x433;&#x437;" horiz-adv-x="1021" 
d="M1097 292q-111 -29 -268 -135q23 -37 24 -84q0 -75 -46 -148.5t-112 -117.5t-125 -44q-77 0 -77 78q0 59 66 139t168 158q-28 61 -138 83q-9 16 10 29q118 79 118 124q0 19 -22 19h-111q-22 0 -38 3q-33 -65 -59 -112t-65 -104t-75 -93t-82.5 -61t-93.5 -25
q-53 0 -82.5 25t-29.5 69q0 32 20 68t43.5 61.5t43.5 52t20 43.5q0 14 -8 22t-22 8q-28 0 -65.5 -38t-53.5 -38t-22 16q49 74 89.5 104t90.5 30q46 0 73 -23.5t27 -62.5q0 -33 -18.5 -67t-41.5 -57.5t-41.5 -53t-18.5 -53.5q0 -22 13.5 -34.5t36.5 -12.5q26 0 57.5 23
t59.5 55.5t61.5 83.5t57 91.5t53.5 94.5q-27 15 -27 48q0 21 17 39t42 18q30 0 36 -21.5t-9 -46.5q27 -3 67 -3q89 0 123.5 -13.5t34.5 -47.5q0 -21 -24.5 -56.5t-78.5 -79.5q22 0 52 -14t55 -39q181 119 277 124q11 1 14.5 -5t3.5 -19zM739 66q0 17 -1 25
q-187 -151 -188 -254q0 -15 7.5 -23.5t18.5 -8.5q23 0 61 38t70 101.5t32 121.5z" />
    <glyph glyph-name="uni04340437.liga" unicode="&#x434;&#x437;" horiz-adv-x="1008" 
d="M1088 292q-111 -29 -268 -135q23 -37 24 -84q0 -75 -46 -148.5t-112 -117.5t-125 -44q-77 0 -77 78q0 59 66 139t168 158q-28 61 -138 83q-9 16 10 29q118 79 118 124q0 19 -22 19h-111q-15 0 -33 2q-13 -24 -30.5 -46.5t-31 -36.5t-39.5 -33.5t-36.5 -26.5t-42.5 -27
t-38 -24v-33q0 -62 -13.5 -132t-39 -135.5t-70 -108t-98.5 -42.5q-42 0 -65.5 30t-23.5 79q0 89 56.5 171t148.5 150q0 52 -6 82q-22 -46 -57 -72t-73 -26q-41 0 -63 27.5t-22 79.5q0 82 69.5 150.5t152.5 68.5q26 0 45.5 -8t19.5 -18q0 -3 -15 -12.5t-33 -16.5
q-10 12 -25 12q-52 0 -87 -64t-35 -121q0 -50 27 -50q33 0 59.5 49.5t19.5 95.5q52 34 68 34q48 0 57 -145q46 26 73 44t59.5 49.5t52.5 68.5q-28 13 -28 48q0 21 17 39t42 18q30 0 36 -21.5t-9 -46.5q27 -3 67 -3q89 0 123.5 -13.5t34.5 -47.5q0 -21 -24.5 -56.5
t-78.5 -79.5q22 0 52 -14t55 -39q181 119 277 124q11 1 14.5 -5t3.5 -19zM104 -222q30 0 56 66t38.5 137.5t18.5 136.5q-144 -135 -144 -275q0 -28 8.5 -46.5t22.5 -18.5zM730 66q0 17 -1 25q-187 -151 -188 -254q0 -15 7.5 -23.5t18.5 -8.5q23 0 61 38t70 101.5t32 121.5z
" />
    <glyph glyph-name="uni04350437.liga" unicode="&#x435;&#x437;" horiz-adv-x="1056" 
d="M1130 292q-111 -29 -268 -135q23 -37 24 -84q0 -75 -46 -148.5t-112 -117.5t-125 -44q-77 0 -77 78q0 59 66 139t168 158q-28 61 -138 83q-9 16 10 29q118 79 118 124q0 19 -22 19h-111q-14 0 -32 2q-23 -61 -58 -122t-80.5 -117.5t-101.5 -91.5t-111 -35q-91 0 -156 62
t-65 155q0 92 49.5 155.5t120.5 63.5q48 0 74.5 -29.5t26.5 -83.5q0 -105 -132 -190q38 -72 105 -72q71 0 153 90t140 227q-30 13 -30 49q0 21 17 39t42 18q30 0 36 -21.5t-9 -46.5q27 -3 67 -3q89 0 123.5 -13.5t34.5 -47.5q0 -21 -24.5 -56.5t-78.5 -79.5q22 0 52 -14
t55 -39q181 119 277 124q11 1 14.5 -5t3.5 -19zM189 411q-26 0 -45 -35t-19 -84t13 -93q90 78 90 157q0 24 -11 39.5t-28 15.5zM772 66q0 17 -1 25q-187 -151 -188 -254q0 -15 7.5 -23.5t18.5 -8.5q23 0 61 38t70 101.5t32 121.5z" />
    <glyph glyph-name="uni04360437.liga" unicode="&#x436;&#x437;" horiz-adv-x="1575" 
d="M1654 292q-111 -29 -268 -135q23 -37 24 -84q0 -75 -46 -148.5t-112 -117.5t-125 -44q-77 0 -77 78q0 59 66 139t168 158q-28 61 -138 83q-5 10 -3 15.5t13 13.5q118 79 118 124q0 19 -22 19h-111q-19 0 -43 4q-44 -75 -84 -133t-90.5 -113t-105.5 -85t-111 -30
q-74 0 -119.5 46.5t-49.5 124.5q-11 -15 -41 -49t-40 -49q0 -113 15 -160q-28 -20 -49 -20q-26 0 -37 19t-11 64q0 41 3.5 121.5t2.5 125.5q-64 -94 -111 -149q-49 -89 -157 -89q-47 0 -77.5 13.5t-30.5 34.5q0 11 9 26q39 -24 66 -24q54 0 84.5 37t30.5 101q0 58 -28 102.5
t-76 56.5q-1 -1 -5 -10t-14.5 -23.5t-25.5 -27.5q-19 1 -30.5 12.5t-11.5 30.5q0 29 29 50t71 22q83 0 136.5 -59.5t53.5 -150.5v-11q56 60 87 111l-1 144q0 44 -13 85q31 26 65 26q23 0 31.5 -15t8.5 -56q0 -36 -7.5 -151.5t-5.5 -172.5q25 22 84 97q15 72 68 119.5
t121 47.5q42 0 70 -21.5t28 -51.5q0 -23 -41 -35q-31 20 -46 49q-106 -31 -106 -159q0 -60 26 -96.5t69 -36.5q69 0 160 95.5t171 232.5q-19 16 -19 43q0 21 17 39t42 18q30 0 36 -21.5t-9 -46.5q27 -3 67 -3q89 0 123.5 -13.5t34.5 -47.5q0 -21 -24.5 -56.5t-78.5 -79.5
q22 0 52 -14t55 -39q181 119 277 124q11 1 14.5 -5t3.5 -19zM1296 66q0 17 -1 25q-187 -151 -188 -254q0 -15 7.5 -23.5t18.5 -8.5q23 0 61 38t70 101.5t32 121.5z" />
    <glyph glyph-name="uni04380437.liga" unicode="&#x438;&#x437;" horiz-adv-x="1121" 
d="M1196 292q-111 -29 -268 -135q23 -37 24 -84q0 -75 -46 -148.5t-112 -117.5t-125 -44q-77 0 -77 78q0 59 66 139t168 158q-28 61 -138 83q-9 16 10 29q118 79 118 124q0 19 -22 19h-111q-19 0 -41 4q-65 -163 -130.5 -249t-140.5 -86q-48 0 -79.5 30t-35.5 88
q-79 -124 -158 -124q-42 0 -66 30t-24 86q0 12 3.5 70t3.5 97q0 47 -6 86q42 6 56 6q28 0 40.5 -14t12.5 -48q0 -12 -4.5 -73t-4.5 -92q0 -68 41 -68q44 0 106 87q1 11 3 36.5t3.5 51t1.5 49.5q0 34 -5 64q20 2 30 2q42 0 59 -20.5t17 -72.5q0 -9 -5.5 -61t-5.5 -79
q0 -84 40 -84t98 80t114 224q-20 15 -20 43q0 21 17 39t42 18q30 0 36 -21.5t-9 -46.5q27 -3 67 -3q89 0 123.5 -13.5t34.5 -47.5q0 -21 -24.5 -56.5t-78.5 -79.5q22 0 52 -14t55 -39q181 119 277 124q11 1 14.5 -5t3.5 -19zM838 66q0 17 -1 25q-187 -151 -188 -254
q0 -15 7.5 -23.5t18.5 -8.5q23 0 61 38t70 101.5t32 121.5z" />
    <glyph glyph-name="uni04390437.liga" unicode="&#x439;&#x437;" horiz-adv-x="1121" 
d="M183 486q-28 0 -55.5 6.5t-52 27.5t-24.5 54q0 20 24 20q13 0 31 -8q4 -2 15 -16.5t26.5 -27t33.5 -12.5q35 0 51 9t16.5 20.5t9 20.5t30.5 9q14 0 24.5 -6.5t10.5 -14.5q0 -36 -40 -59t-100 -23zM1196 292q-111 -29 -268 -135q23 -37 24 -84q0 -75 -46 -148.5
t-112 -117.5t-125 -44q-77 0 -77 78q0 59 66 139t168 158q-28 61 -138 83q-9 16 10 29q118 79 118 124q0 19 -22 19h-111q-19 0 -41 4q-65 -163 -130.5 -249t-140.5 -86q-48 0 -79.5 30t-35.5 88q-79 -124 -158 -124q-42 0 -66 30t-24 86q0 12 3.5 70t3.5 97q0 47 -6 86
q42 6 56 6q28 0 40.5 -14t12.5 -48q0 -12 -4.5 -73t-4.5 -92q0 -68 41 -68q44 0 106 87q1 11 3 36.5t3.5 51t1.5 49.5q0 34 -5 64q20 2 30 2q42 0 59 -20.5t17 -72.5q0 -9 -5.5 -61t-5.5 -79q0 -84 40 -84t98 80t114 224q-20 15 -20 43q0 21 17 39t42 18q30 0 36 -21.5
t-9 -46.5q27 -3 67 -3q89 0 123.5 -13.5t34.5 -47.5q0 -21 -24.5 -56.5t-78.5 -79.5q22 0 52 -14t55 -39q181 119 277 124q11 1 14.5 -5t3.5 -19zM838 66q0 17 -1 25q-187 -151 -188 -254q0 -15 7.5 -23.5t18.5 -8.5q23 0 61 38t70 101.5t32 121.5z" />
    <glyph glyph-name="uni043A0437.liga" unicode="&#x43a;&#x437;" horiz-adv-x="1158" 
d="M1235 292q-111 -29 -268 -135q23 -37 24 -84q0 -75 -46 -148.5t-112 -117.5t-125 -44q-77 0 -77 78q0 59 66 139t168 158q-28 61 -138 83q-9 16 10 29q118 79 118 124q0 19 -22 19h-111q-14 0 -30 2q-23 -51 -38 -82t-40.5 -78.5t-47 -76.5t-48 -58.5t-55.5 -43.5
t-59 -14q-52 0 -111.5 39.5t-102.5 104.5q-22 -16 -82 -51l-6 -2v-43q0 -41 -13 -64t-36 -23q-22 0 -43 13q17 78 17 278q0 67 -6 105.5t-23 85.5q43 23 72 23q25 0 36 -20t11 -66q0 -20 -4 -65.5t-6 -78.5q29 80 79.5 137t103.5 57q68 0 68 -71q0 -76 -108 -168
q30 -44 80 -82.5t93 -38.5q38 0 83.5 49t79.5 110.5t67 136.5q-28 13 -28 48q0 21 17 39t42 18q30 0 36 -21.5t-9 -46.5q27 -3 67 -3q89 0 123.5 -13.5t34.5 -47.5q0 -21 -24.5 -56.5t-78.5 -79.5q22 0 52 -14t55 -39q181 119 277 124q11 1 14.5 -5t3.5 -19zM106 185
q57 38 108.5 92t51.5 101q0 11 -6 19t-14 8q-27 0 -75 -74t-65 -146zM877 66q0 17 -1 25q-187 -151 -188 -254q0 -15 7.5 -23.5t18.5 -8.5q23 0 61 38t70 101.5t32 121.5z" />
    <glyph glyph-name="uni043B0437.liga" unicode="&#x43b;&#x437;" horiz-adv-x="1090" 
d="M1167 292q-111 -29 -268 -135q23 -37 24 -84q0 -75 -46 -148.5t-112 -117.5t-125 -44q-77 0 -77 78q0 59 66 139t168 158q-28 61 -138 83q-9 16 10 29q118 79 118 124q0 19 -22 19h-111q-15 0 -33 2q-71 -194 -142 -280t-130 -86q-48 0 -79.5 37.5t-62.5 127.5
q-36 111 -46 123q-6 8 -13 9q-20 1 -46 -73.5t-34 -152.5q-4 -38 -1 -61q-40 -10 -68 -10q-26 0 -35.5 12t-6.5 42t47 149q24 64 98 208q55 13 78 0t42 -58q81 -196 94 -222q27 -51 57 -54h8q14 0 29 9.5t40 37t60 92.5t77 162q-30 13 -30 49q0 21 17 39t42 18
q30 0 36 -21.5t-9 -46.5q27 -3 67 -3q89 0 123.5 -13.5t34.5 -47.5q0 -21 -24.5 -56.5t-78.5 -79.5q22 0 52 -14t55 -39q181 119 277 124q11 1 14.5 -5t3.5 -19zM809 66q0 17 -1 25q-187 -151 -188 -254q0 -15 7.5 -23.5t18.5 -8.5q23 0 61 38t70 101.5t32 121.5z" />
    <glyph glyph-name="uni043C0437.liga" unicode="&#x43c;&#x437;" horiz-adv-x="1325" 
d="M1400 292q-111 -29 -268 -135q23 -37 24 -84q0 -75 -46 -148.5t-112 -117.5t-125 -44q-77 0 -77 78q0 59 66 139t168 158q-28 61 -138 83q-5 10 -3 15.5t13 13.5q118 79 118 124q0 19 -22 19h-111q-21 0 -38 3q-22 -53 -39 -91t-48.5 -92.5t-61.5 -89t-72 -60t-85 -25.5
t-71.5 20t-42 56t-18.5 73.5t-5 85.5q-45 -92 -81 -123.5t-72 -31.5q-66 0 -100 107q-12 33 -15 33q-2 -17 0.5 -54.5t2.5 -67t-5.5 -60.5t-26.5 -48.5t-58 -17.5q-17 0 -50 10q23 72 37.5 167.5t14.5 175.5q0 43 -4 71q20 9 41 9q37 0 55 -18.5t31 -74.5q26 -113 42 -142
q17 -29 37 -29q31 0 61.5 38.5t66 105.5t49.5 87q17 24 47 30.5t48 -8.5q-17 -70 -17 -151q0 -175 75 -175q47 0 106 80.5t122 224.5q-23 15 -23 45q0 21 17 39t42 18q30 0 36 -21.5t-9 -46.5q27 -3 67 -3q89 0 123.5 -13.5t34.5 -47.5q0 -21 -24.5 -56.5t-78.5 -79.5
q22 0 52 -14t55 -39q181 119 277 124q11 1 14.5 -5t3.5 -19zM1042 66q0 17 -1 25q-187 -151 -188 -254q0 -15 7.5 -23.5t18.5 -8.5q23 0 61 38t70 101.5t32 121.5z" />
    <glyph glyph-name="uni043D0437.liga" unicode="&#x43d;&#x437;" horiz-adv-x="1140" 
d="M1219 292q-111 -29 -268 -135q23 -37 24 -84q0 -75 -46 -148.5t-112 -117.5t-125 -44q-77 0 -77 78q0 59 66 139t168 158q-28 61 -138 83q-9 16 10 29q118 79 118 124q0 19 -22 19h-111q-24 0 -39 3q-20 -51 -48 -106.5t-66 -115t-83 -97.5t-87 -38q-57 0 -84 35t-27 109
q0 23 1 35q-69 -2 -153 -8v-21q0 -102 12 -142q-32 -8 -58 -8q-36 0 -51 26t-15 89q0 12 3.5 75t3.5 104q0 58 -6 92q44 6 61 6q33 0 45 -14t12 -52q0 -1 -5 -114q60 5 154 7q5 82 5 97q0 37 -5 69q22 2 32 2q44 0 62.5 -22.5t18.5 -77.5q0 -10 -6 -63t-6 -82q0 -90 36 -90
t106 103t113 217q-23 15 -23 45q0 21 17 39t42 18q30 0 36 -21.5t-9 -46.5q27 -3 67 -3q89 0 123.5 -13.5t34.5 -47.5q0 -21 -24.5 -56.5t-78.5 -79.5q22 0 52 -14t55 -39q181 119 277 124q11 1 14.5 -5t3.5 -19zM861 66q0 17 -1 25q-187 -151 -188 -254q0 -15 7.5 -23.5
t18.5 -8.5q23 0 61 38t70 101.5t32 121.5z" />
    <glyph glyph-name="uni043E0437.liga" unicode="&#x43e;&#x437;" horiz-adv-x="1093" 
d="M1167 292q-111 -29 -268 -135q23 -37 24 -84q0 -75 -46 -148.5t-112 -117.5t-125 -44q-77 0 -77 78q0 59 66 139t168 158q-28 61 -138 83q-9 16 10 29q118 79 118 124q0 19 -22 19h-111q-22 0 -37 3q-32 -81 -86 -130.5t-117 -49.5q-34 0 -60 13q-14 -75 -62 -127
t-123 -53q-74 -1 -122 48.5t-48 127.5q0 53 23 87t61 37q4 51 42 80t90 29q69 0 106.5 -51.5t37.5 -125.5v-5q25 -17 55 -17q97 0 173 148q-30 13 -30 49q0 21 17 39t42 18q30 0 36 -21.5t-9 -46.5q27 -3 67 -3q89 0 123.5 -13.5t34.5 -47.5q0 -21 -24.5 -56.5t-78.5 -79.5
q22 0 52 -14t55 -39q181 119 277 124q11 1 14.5 -5t3.5 -19zM169 79q40 0 64 56t24 128q0 61 -19 103.5t-56 42.5q-42 0 -74 -62q40 -10 40 -64q0 -12 -3 -30q-41 -21 -41 -84q0 -36 17 -63t48 -27zM809 66q0 17 -1 25q-187 -151 -188 -254q0 -15 7.5 -23.5t18.5 -8.5
q23 0 61 38t70 101.5t32 121.5z" />
    <glyph glyph-name="uni043F0437.liga" unicode="&#x43f;&#x437;" horiz-adv-x="1211" 
d="M1293 292q-111 -29 -268 -135q23 -37 24 -84q0 -75 -46 -148.5t-112 -117.5t-125 -44q-77 0 -77 78q0 59 66 139t168 158q-28 61 -138 83q-9 16 10 29q118 79 118 124q0 19 -22 19h-111q-13 0 -31 2q-26 -76 -59 -142t-75 -122t-94.5 -88.5t-107.5 -32.5q-59 0 -85 45
t-26 116q0 37 7.5 104.5t7.5 76.5q0 37 -15 37q-16 0 -51 -48t-71 -123.5t-50 -139.5q-14 -6 -32 -6q-47 0 -61 29t-14 89q0 39 4 98t4 82q0 38 -8 75q30 24 64 24q50 0 50 -57q0 -1 -3.5 -78t-1.5 -114q113 210 204 210q50 0 67 -34.5t17 -101.5q0 -14 -2 -63.5t-2 -71.5
q0 -43 11 -63.5t37 -20.5q16 0 43 18.5t61.5 55t74 104.5t71.5 153q-31 13 -31 50q0 21 17 39t42 18q30 0 36 -21.5t-9 -46.5q27 -3 67 -3q89 0 123.5 -13.5t34.5 -47.5q0 -21 -24.5 -56.5t-78.5 -79.5q22 0 52 -14t55 -39q181 119 277 124q11 1 14.5 -5t3.5 -19zM935 66
q0 17 -1 25q-187 -151 -188 -254q0 -15 7.5 -23.5t18.5 -8.5q23 0 61 38t70 101.5t32 121.5z" />
    <glyph glyph-name="uni04400437.liga" unicode="&#x440;&#x437;" horiz-adv-x="1058" 
d="M1135 292q-111 -29 -268 -135q23 -37 24 -84q0 -75 -46 -148.5t-112 -117.5t-125 -44q-77 0 -77 78q0 59 66 139t168 158q-28 61 -138 83q-9 16 10 29q118 79 118 124q0 19 -22 19h-111q-31 0 -49 6q-65 -68 -219 -113q-30 -60 -78.5 -105t-86.5 -45q-30 0 -30 32
q0 89 137 138q10 30 10 49q0 45 -41 45q-18 0 -36.5 -11t-39 -39t-36.5 -70t-26.5 -110.5t-10.5 -153.5q0 -103 17 -235q-29 -7 -55 -7q-45 0 -59 34.5t-9 131.5q13 240 13 367v22v21.5v18.5t-0.5 20l-1.5 18t-2 19.5t-3 19t-4.5 22t-5.5 22.5q32 26 59 26t37.5 -21
t10.5 -66q0 -56 -6 -108q26 54 78 99t104 45q39 0 63 -19q27 -23 27 -63q0 -27 -9 -56q116 36 171 89q-16 14 -16 40q0 21 17 39t42 18q30 0 36 -21.5t-9 -46.5q27 -3 67 -3q89 0 123.5 -13.5t34.5 -47.5q0 -21 -24.5 -56.5t-78.5 -79.5q22 0 52 -14t55 -39q181 119 277 124
q11 1 14.5 -5t3.5 -19zM207 175q13 0 33.5 26t37.5 62q-35 -14 -56 -30q-24 -18 -24 -44q1 -13 9 -14zM777 66q0 17 -1 25q-187 -151 -188 -254q0 -15 7.5 -23.5t18.5 -8.5q23 0 61 38t70 101.5t32 121.5z" />
    <glyph glyph-name="uni04410437.liga" unicode="&#x441;&#x437;" horiz-adv-x="1051" 
d="M1132 292q-111 -29 -268 -135q23 -37 24 -84q0 -75 -46 -148.5t-112 -117.5t-125 -44q-77 0 -77 78q0 59 66 139t168 158q-28 61 -138 83q-5 10 -3 15.5t13 13.5q118 79 118 124q0 19 -22 19h-111q-20 0 -35 3q-12 -33 -36 -77t-62 -94t-81 -92t-97.5 -69.5t-107.5 -27.5
q-92 0 -142.5 57t-50.5 137q0 82 56.5 144t150.5 62q47 0 86 -23.5t39 -50.5q0 -17 -46 -38q-38 61 -76 61q-45 0 -71 -44.5t-26 -105.5t26 -105t73 -44t95.5 28t91.5 76.5t79 101.5t69 114h-1q-31 13 -31 50q0 21 17 39t42 18q30 0 36 -21.5t-9 -46.5q27 -3 67 -3
q89 0 123.5 -13.5t34.5 -47.5q0 -21 -24.5 -56.5t-78.5 -79.5q22 0 52 -14t55 -39q181 119 277 124q11 1 14.5 -5t3.5 -19zM774 66q0 17 -1 25q-187 -151 -188 -254q0 -15 7.5 -23.5t18.5 -8.5q23 0 61 38t70 101.5t32 121.5z" />
    <glyph glyph-name="uni04420437.liga" unicode="&#x442;&#x437;" horiz-adv-x="1402" 
d="M1481 292q-111 -29 -268 -135q23 -37 24 -84q0 -75 -46 -148.5t-112 -117.5t-125 -44q-77 0 -77 78q0 59 66 139t168 158q-28 61 -138 83q-9 16 10 29q118 79 118 124q0 19 -22 19h-111q-15 0 -33 2q-138 -343 -300 -343q-58 0 -85 35t-27 91q0 22 5.5 69t5.5 74
q0 10 -4.5 17t-11.5 7q-22 0 -55.5 -66t-65 -132t-50.5 -66q-33 0 -54 29q18 113 18 173q0 43 -4 61t-16 18q-15 0 -40.5 -47t-50.5 -103t-62.5 -103t-73.5 -47q-38 0 -63 25q2 20 8.5 85.5t8 94.5t-1.5 76.5t-14 83.5q24 19 53 19q65 0 65 -137q0 -65 -17 -154
q18 28 50.5 86t53.5 93t51 64.5t58 29.5q72 0 72 -125q0 -48 -9 -96q51 116 89.5 164t88.5 48q33 0 52 -20.5t19 -56.5q0 -24 -4 -70t-4 -69q0 -49 10.5 -71.5t39.5 -22.5q49 0 116.5 92t111.5 208q-27 13 -27 47q0 21 17 39t42 18q30 0 36 -21.5t-9 -46.5q27 -3 67 -3
q89 0 123.5 -13.5t34.5 -47.5q0 -21 -24.5 -56.5t-78.5 -79.5q22 0 52 -14t55 -39q181 119 277 124q11 1 14.5 -5t3.5 -19zM1123 66q0 17 -1 25q-187 -151 -188 -254q0 -15 7.5 -23.5t18.5 -8.5q23 0 61 38t70 101.5t32 121.5z" />
    <glyph glyph-name="uni04430437.liga" unicode="&#x443;&#x437;" horiz-adv-x="1015" 
d="M1093 292q-111 -29 -268 -135q23 -37 24 -84q0 -75 -46 -148.5t-112 -117.5t-125 -44q-77 0 -77 78q0 59 66 139t168 158q-28 61 -138 83q-9 16 10 29q118 79 118 124q0 19 -22 19h-111q-28 0 -46 5q-66 -90 -218 -209q-21 -195 -85.5 -317t-145.5 -122q-36 0 -56 28.5
t-20 72.5q0 161 214 321q4 33 4 68q0 8 -0.5 21t-0.5 17q-59 -108 -130 -108q-39 0 -62.5 41t-23.5 109q0 14 1 39t1 38q0 24 -3 51q18 8 43 8q56 0 56 -40q0 -5 -4 -42t-4 -64q0 -82 40 -82q36 0 56.5 59t20.5 159q24 14 52 14q35 0 45 -26t10 -90q0 -59 -4 -103
q115 82 182 172q-19 16 -19 43q0 21 17 39t42 18q30 0 36 -21.5t-9 -46.5q27 -3 67 -3q89 0 123.5 -13.5t34.5 -47.5q0 -21 -24.5 -56.5t-78.5 -79.5q22 0 52 -14t55 -39q181 119 277 124q11 1 14.5 -5t3.5 -19zM91 -210q31 0 66.5 98.5t55.5 217.5q-154 -140 -154 -268
q0 -48 32 -48zM735 66q0 17 -1 25q-187 -151 -188 -254q0 -15 7.5 -23.5t18.5 -8.5q23 0 61 38t70 101.5t32 121.5z" />
    <glyph glyph-name="uni04440437.liga" unicode="&#x444;&#x437;" horiz-adv-x="1408" 
d="M1485 292q-111 -29 -268 -135q23 -37 24 -84q0 -75 -46 -148.5t-112 -117.5t-125 -44q-77 0 -77 78q0 59 66 139t168 158q-28 61 -138 83q-9 16 10 29q118 79 118 124q0 19 -22 19h-111q-28 0 -48 5q-10 -12 -22 -23t-28 -21.5t-27 -17.5t-31.5 -17t-29 -14t-32.5 -14.5
t-29 -12.5v-12q0 -80 -42 -128.5t-88 -48.5q-62 0 -62 64q0 81 107 134q-15 88 -65 88q-40 0 -75 -53.5t-57 -131.5t-34.5 -159t-12.5 -143q0 -59 11 -98q-31 -20 -55 -20q-26 0 -37.5 19.5t-10.5 63.5q0 16 2 143.5t2 216.5q-22 -57 -64.5 -97.5t-92.5 -40.5
q-61 0 -99.5 48t-38.5 125q0 78 43.5 128t113.5 50q37 0 64 -15.5t27 -36.5q0 -22 -32 -32q-20 33 -48 33q-36 0 -60 -38t-24 -94q0 -52 20.5 -83t55.5 -31q33 0 70 43.5t65 114.5q-1 265 -21 325q33 26 66 26q25 0 35.5 -16.5t10.5 -54.5q0 -8 -5.5 -170t-5.5 -262
q32 155 78 221t120 66q47 0 82 -28t49 -74q45 18 67 27.5t53.5 29t51.5 41.5q-14 14 -14 38q0 21 17 39t42 18q30 0 36 -21.5t-9 -46.5q27 -3 67 -3q89 0 123.5 -13.5t34.5 -47.5q0 -21 -24.5 -56.5t-78.5 -79.5q22 0 52 -14t55 -39q181 119 277 124q11 1 14.5 -5t3.5 -19z
M607 123q15 0 25 32t11 77q-55 -40 -55 -82q0 -11 5.5 -19t13.5 -8zM1127 66q0 17 -1 25q-187 -151 -188 -254q0 -15 7.5 -23.5t18.5 -8.5q23 0 61 38t70 101.5t32 121.5z" />
    <glyph glyph-name="uni044C0437.liga" unicode="&#x44c;&#x437;" horiz-adv-x="1044" 
d="M1122 292q-111 -29 -268 -135q23 -37 24 -84q0 -75 -46 -148.5t-112 -117.5t-125 -44q-77 0 -77 78q0 59 66 139t168 158q-28 61 -138 83q-5 10 -3 15.5t13 13.5q118 79 118 124q0 19 -22 19h-111q-21 0 -36 3q-38 -89 -110 -172.5t-146 -106.5q-13 -48 -54 -80.5
t-100 -32.5q-82 0 -130 52t-48 140q0 41 9 115t9 101q0 25 -6 43q67 0 93 -19.5t26 -66.5q0 -24 -10.5 -98.5t-10.5 -111.5q0 -49 19 -77.5t53 -28.5q46 0 66 60q-58 8 -88.5 36.5t-30.5 61.5q0 25 24.5 45.5t60.5 20.5q57 0 90 -36.5t33 -86.5q61 29 123.5 103.5
t94.5 150.5q-28 15 -28 48q0 21 17 39t42 18q30 0 36 -21.5t-9 -46.5q27 -3 67 -3q89 0 123.5 -13.5t34.5 -47.5q0 -21 -24.5 -56.5t-78.5 -79.5q22 0 52 -14t55 -39q181 119 277 124q11 1 14.5 -5t3.5 -19zM154 207q0 -28 24 -45t62 -22q2 18 2 27q0 29 -18.5 48.5
t-42.5 19.5q-27 0 -27 -28zM764 66q0 17 -1 25q-187 -151 -188 -254q0 -15 7.5 -23.5t18.5 -8.5q23 0 61 38t70 101.5t32 121.5z" />
    <glyph glyph-name="uni044A0436.liga" unicode="&#x44a;&#x436;" horiz-adv-x="1626" 
d="M1675 339q14 -7 8 -24q-5 -20 -39.5 -64t-84.5 -93t-116.5 -85.5t-124.5 -36.5q-74 0 -119.5 46.5t-49.5 124.5q-11 -15 -41 -49t-40 -49q0 -113 15 -160q-28 -20 -49 -20q-26 0 -37 19t-11 64q0 41 3.5 121.5t2.5 125.5q-64 -94 -111 -149q-49 -89 -157 -89
q-47 0 -77.5 13.5t-30.5 34.5q0 11 9 26q39 -24 66 -24q54 0 84.5 37t30.5 101q0 58 -28 102.5t-76 56.5l-1 -1q-10 -100 -96.5 -198t-181.5 -122q-21 -47 -69.5 -79t-113.5 -32q-60 0 -105.5 34.5t-45.5 85.5q0 85 76 212q-190 0 -190 100q0 33 34 60t73 27q52 0 52 -39
q0 -35 -40 -86q22 -2 38 -2q11 0 33.5 0.5t33.5 0.5q86 0 86 -38q0 -21 -40 -111t-40 -131q0 -29 15 -46.5t41 -17.5t48 16.5t35 43.5q-44 9 -73 34.5t-29 56.5q0 32 25.5 52.5t66.5 20.5q48 0 75 -30.5t27 -72.5q0 -8 -2 -24q69 23 132 86t87 139q-38 5 -38 43q0 29 29 50
t71 22q83 0 136.5 -59.5t53.5 -150.5v-11q52 55 87 111l-1 144q0 44 -13 85q31 26 65 26q23 0 31.5 -15t8.5 -56q0 -36 -7.5 -151.5t-5.5 -172.5q25 22 84 97q15 72 68 119.5t121 47.5q42 0 70 -21.5t28 -51.5q0 -23 -41 -35q-31 20 -46 49q-106 -31 -106 -159
q0 -61 27.5 -97t76.5 -36q68 0 165.5 82t157.5 172zM81 434q-15 0 -29 -17.5t-14 -41.5q0 -27 23 -37q32 46 32 78q0 18 -12 18zM286 131q1 -49 68 -59q4 16 4 36q-1 22 -14.5 38t-28.5 16q-12 0 -20.5 -9t-8.5 -22z" />
    <glyph glyph-name="uni044A0437.liga" unicode="&#x44a;&#x437;" horiz-adv-x="1156" 
d="M1232 292q-111 -29 -268 -135q23 -37 24 -84q0 -75 -46 -148.5t-112 -117.5t-125 -44q-77 0 -77 78q0 59 66 139t168 158q-28 61 -138 83q-5 10 -3 15.5t13 13.5q118 79 118 124q0 19 -22 19h-111q-14 0 -32 2q-133 -302 -263 -346q-21 -48 -69.5 -80.5t-114.5 -32.5
q-60 0 -105.5 34.5t-45.5 85.5q0 85 76 212q-190 0 -190 100q0 33 34 60t73 27q52 0 52 -39q0 -35 -40 -86q22 -2 38 -2q11 0 33.5 0.5t33.5 0.5q86 0 86 -38q0 -21 -40 -111t-40 -131q0 -29 15 -46.5t41 -17.5t48 16.5t35 43.5q-44 9 -73 34.5t-29 56.5q0 32 25.5 52.5
t66.5 20.5q48 0 75 -30.5t27 -72.5q0 -9 -1 -13q109 61 216 314q-29 15 -29 49q0 21 17 39t42 18q30 0 36 -21.5t-9 -46.5q27 -3 67 -3q89 0 123.5 -13.5t34.5 -47.5q0 -21 -24.5 -56.5t-78.5 -79.5q22 0 52 -14t55 -39q181 119 277 124q11 1 14.5 -5t3.5 -19zM81 434
q-15 0 -29 -17.5t-14 -41.5q0 -27 23 -37q32 46 32 78q0 18 -12 18zM286 131q1 -48 69 -54q3 15 3 31q-1 22 -14.5 38t-28.5 16q-12 0 -20.5 -9t-8.5 -22zM874 66q0 17 -1 25q-187 -151 -188 -254q0 -15 7.5 -23.5t18.5 -8.5q23 0 61 38t70 101.5t32 121.5z" />
    <glyph glyph-name="uni044B0437.liga" unicode="&#x44b;&#x437;" horiz-adv-x="1366" 
d="M1445 292q-111 -29 -268 -135q23 -37 24 -84q0 -75 -46 -148.5t-112 -117.5t-125 -44q-77 0 -77 78q0 59 66 139t168 158q-28 61 -138 83q-9 16 10 29q118 79 118 124q0 19 -22 19h-111q-14 0 -30 2q-18 -43 -29.5 -68.5t-33.5 -70.5t-39.5 -73t-44 -63.5t-50.5 -55.5
t-55 -34t-63 -14q-54 0 -92 30.5t-51 85.5q-7 35 -7 65q-59 -55 -110 -71q-13 -48 -54 -81t-100 -33q-82 0 -130 52t-48 140q0 41 9 115t9 101q0 25 -6 43q67 0 93 -19.5t26 -66.5q0 -24 -10.5 -98.5t-10.5 -111.5q0 -49 19 -77.5t53 -28.5q46 0 66 60q-58 8 -88.5 36.5
t-30.5 61.5q0 25 24.5 45.5t60.5 20.5q57 0 90 -36.5t33 -86.5q58 27 108 88q1 14 7.5 61t6.5 74q0 35 -9 67q25 5 46 5q77 0 77 -91q0 -36 -10.5 -110t-10.5 -100q0 -35 17 -61.5t49 -26.5q114 0 255 337l-1 1h-1q-31 13 -31 50q0 21 17 39t42 18q30 0 36 -21.5t-9 -46.5
q27 -3 67 -3q89 0 123.5 -13.5t34.5 -47.5q0 -21 -24.5 -56.5t-78.5 -79.5q22 0 52 -14t55 -39q181 119 277 124q11 1 14.5 -5t3.5 -19zM164 215q0 -29 25.5 -47t60.5 -20q2 16 2 27q0 29 -18.5 48.5t-42.5 19.5q-27 0 -27 -28zM1087 66q0 17 -1 25q-187 -151 -188 -254
q0 -15 7.5 -23.5t18.5 -8.5q23 0 61 38t70 101.5t32 121.5z" />
    <glyph glyph-name="uni044D0437.liga" unicode="&#x44d;&#x437;" horiz-adv-x="1053" 
d="M1125 292q-111 -29 -268 -135q23 -37 24 -84q0 -75 -46 -148.5t-112 -117.5t-125 -44q-77 0 -77 78q0 59 66 139t168 158q-28 61 -138 83q-9 16 10 29q118 79 118 124q0 19 -22 19h-111q-14 0 -34 2q-17 -34 -31 -57t-35 -49t-47 -41.5t-57 -19.5q-26 -4 -59 3v-12
q0 -85 -57.5 -139.5t-147.5 -54.5q-60 0 -97 24t-37 62q0 36 49 39q11 -36 35.5 -58t49.5 -22q40 0 67 42t30 102q-38 -9 -66 -9q-38 0 -51 10t-9 36q29 -3 126 5q-5 59 -31.5 99t-63.5 40q-57 0 -88 -66q-26 12 -35 19t-9 16q0 12 13 27.5t45.5 30t75.5 14.5
q70 0 122 -41.5t71 -109.5q33 -19 69 -14t68 35.5t68 99.5q-31 13 -31 50q0 21 17 39t42 18q30 0 36 -21.5t-9 -46.5q27 -3 67 -3q89 0 123.5 -13.5t34.5 -47.5q0 -21 -24.5 -56.5t-78.5 -79.5q22 0 52 -14t55 -39q181 119 277 124q11 1 14.5 -5t3.5 -19zM767 66q0 17 -1 25
q-187 -151 -188 -254q0 -15 7.5 -23.5t18.5 -8.5q23 0 61 38t70 101.5t32 121.5z" />
    <glyph glyph-name="uni044E0437.liga" unicode="&#x44e;&#x437;" horiz-adv-x="1284" 
d="M1362 292q-111 -29 -268 -135q23 -37 24 -84q0 -75 -46 -148.5t-112 -117.5t-125 -44q-77 0 -77 78q0 59 66 139t168 158q-28 61 -138 83q-9 16 10 29q118 79 118 124q0 19 -22 19h-111q-21 0 -36 3q-35 -78 -85 -128t-111 -50q-31 0 -63 12q-8 -87 -59.5 -144.5
t-124.5 -59.5q-161 0 -160 199v5q-49 -32 -83 -81q2 -62 10 -105q-18 -5 -43 -5q-47 0 -61 28.5t-14 87.5q0 39 4 97t4 81q0 39 -8 74q30 24 64 24q50 0 50 -56q0 -23 -2.5 -83t-3.5 -80q45 46 92 67q18 64 69 110t126 46q60 0 98 -41.5t43 -111.5q33 -24 68 -24
q38 0 81.5 38.5t77.5 110.5q-30 13 -30 49q0 21 17 39t42 18q30 0 36 -21.5t-9 -46.5q27 -3 67 -3q89 0 123.5 -13.5t34.5 -47.5q0 -21 -24.5 -56.5t-78.5 -79.5q22 0 52 -14t55 -39q181 119 277 124q11 1 14.5 -5t3.5 -19zM385 74q29 1 47 48.5t18 120.5q0 63 -15.5 102
t-40.5 39q-32 0 -52.5 -48t-20.5 -120q0 -64 17.5 -103.5t46.5 -38.5zM1004 66q0 17 -1 25q-187 -151 -188 -254q0 -15 7.5 -23.5t18.5 -8.5q23 0 61 38t70 101.5t32 121.5z" />
    <glyph glyph-name="uni044F0437.liga" unicode="&#x44f;&#x437;" horiz-adv-x="1069" 
d="M1147 292q-111 -29 -268 -135q23 -37 24 -84q0 -75 -46 -148.5t-112 -117.5t-125 -44q-77 0 -77 78q0 59 66 139t168 158q-28 61 -138 83q-9 16 10 29q118 79 118 124q0 19 -22 19h-111q-21 0 -36 3q-26 -65 -50.5 -115t-58.5 -102.5t-75 -81.5t-84 -29q-38 0 -61.5 45
t-20.5 105q-19 -81 -70 -140.5t-103 -59.5q-40 0 -58 50q121 33 193 165q-60 -48 -109 -48q-40 0 -63.5 28t-23.5 75q0 68 51.5 122t115.5 54t91 -60q8 22 35 22q22 0 43 -15q-24 -89 -24 -185q0 -98 42 -98q30 0 68 45.5t68.5 104t60.5 130.5q-28 13 -28 48q0 21 17 39
t42 18q30 0 36 -21.5t-9 -46.5q27 -3 67 -3q89 0 123.5 -13.5t34.5 -47.5q0 -21 -24.5 -56.5t-78.5 -79.5q22 0 52 -14t55 -39q181 119 277 124q11 1 14.5 -5t3.5 -19zM142 250q31 0 57.5 29.5t55.5 92.5q-21 50 -59 50t-63.5 -38t-25.5 -89q0 -19 10 -32t25 -13zM789 66
q0 17 -1 25q-187 -151 -188 -254q0 -15 7.5 -23.5t18.5 -8.5q23 0 61 38t70 101.5t32 121.5z" />
    <glyph glyph-name=".notdef" horiz-adv-x="500" 
d="M410 730v-1000h-317v1000h317zM333 663h-165v-33h65v-37h-66v-33h166v33h-66v37h66v33zM267 534h-100v-104h166v34h-66v70zM233 500v-36h-33v36h33zM333 403h-166v-33h66v-37h-66v-33h100v70h66v33zM333 343h-33v-66h-133v-34h166v100zM333 221h-100v-56h34v23h33v-47
h-100v80h-33v-113h166v113zM333 48h-166v-113h166v113zM300 15v-47h-100v47h100zM333 -88h-166v-33h70l-70 -47v-33h166v33h-102l70 47h32v33z" />
    <glyph glyph-name=".null" 
 />
    <glyph glyph-name="nonmarkingreturn" horiz-adv-x="333" 
 />
    <glyph glyph-name="space" unicode=" " horiz-adv-x="187" 
 />
    <glyph glyph-name="exclam" unicode="!" horiz-adv-x="330" 
d="M171 235q-26 0 -33.5 23t-15.5 94q-17 166 -17 263q0 30 0.5 44.5t4 36t11 31t22 17.5t35.5 8q56 0 69 -36q-1 -70 -15.5 -245.5t-30.5 -224.5q-11 -11 -30 -11zM171 23q-25 0 -45.5 24t-20.5 53q0 22 22.5 37t55.5 15q31 0 51 -12t20 -30q0 -29 -27.5 -58t-55.5 -29z
" />
    <glyph glyph-name="quotedbl" unicode="&#x22;" horiz-adv-x="355" 
d="M95 503q-16 0 -21 7t-10 37q-12 74 -12 129q0 25 8.5 32t39.5 7q32 0 39 -6t7 -33q0 -46 -18 -127q-7 -33 -11.5 -39.5t-21.5 -6.5zM249 503q-16 0 -21 7t-10 37q-12 74 -12 129q0 25 8.5 32t39.5 7q32 0 39 -6t7 -33q0 -46 -18 -127q-7 -33 -11.5 -39.5t-21.5 -6.5z" />
    <glyph glyph-name="numbersign" unicode="#" horiz-adv-x="838" 
d="M752 411q14 -29 -38 -52h-125q-7 -20 -22.5 -67t-24.5 -75q77 0 112 -4t42 -18t-5 -29t-35 -20q-16 1 -65 1.5t-72 0.5q-20 -58 -70 -210q-29 -23 -48 -23q-17 0 -23 16.5t2 47.5q16 64 50 169q-73 2 -143 0q-10 -30 -33.5 -100t-36.5 -110q-29 -23 -48 -23
q-17 0 -23 16.5t2 47.5q12 48 49 168q-101 -3 -119 -8q-24 18 -17.5 40.5t46.5 27.5q55 5 112 6q23 72 47 144q-113 -2 -130 -6q-26 21 -18.5 45t47.5 29q33 4 126 7q49 142 66 176q14 26 49 33.5t53 -2.5q-17 -35 -76 -205q18 0 65 0.5t76 0.5q52 147 65 173q14 26 48 33.5
t52 -2.5q-23 -50 -74 -204q127 -2 137 -24zM310 216q18 0 65 0.5t77 0.5l46 142q-94 0 -140 -1q-14 -40 -48 -142z" />
    <glyph glyph-name="dollar" unicode="$" horiz-adv-x="572" 
d="M531 132q0 -75 -60 -124.5t-160 -58.5q-3 -56 -10.5 -75.5t-32.5 -19.5q-16 0 -26 12q9 41 10 81q-88 3 -147 34.5t-59 75.5q0 26 26 44.5t53 13.5q20 -51 53 -82.5t74 -38.5q0 155 1 245q-39 16 -77 36q-61 35 -94 81t-33 96q0 78 57 131.5t149 63.5v43q0 29 8.5 40.5
t30.5 11.5q12 0 26 -7q-4 -27 -6 -87q72 -5 122 -34t50 -67q0 -20 -22.5 -34.5t-55.5 -14.5q-22 91 -95 103q-1 -51 -1 -188v-65q52 -22 64 -28q88 -38 121.5 -79t33.5 -109zM179 496q0 -71 75 -117q0 42 0.5 116t0.5 103q-35 -10 -55.5 -37.5t-20.5 -64.5zM313 -4
q42 9 67.5 37t25.5 67t-23 64t-69 47q0 -185 -1 -215z" />
    <glyph glyph-name="percent" unicode="%" horiz-adv-x="854" 
d="M210 372q-65 0 -110 38.5t-45 105.5q0 66 45.5 105t109.5 39q63 0 109 -40t46 -104q0 -66 -45.5 -105t-109.5 -39zM145 -71q-20 0 -32 11.5t-20 40.5q85 96 210.5 241.5t214.5 247t134 148.5q35 34 56 34q22 0 41 -36q-116 -155 -288.5 -365.5t-257.5 -292.5
q-31 -29 -58 -29zM210 452q23 0 35.5 21.5t12.5 48.5q0 70 -46 70q-24 0 -36.5 -19.5t-12.5 -50.5q0 -29 11.5 -49.5t35.5 -20.5zM643 -86q-65 0 -110 38.5t-45 105.5q0 66 45.5 105t109.5 39q63 0 109 -40t46 -104q0 -66 -45.5 -105t-109.5 -39zM643 -6q23 0 35.5 21.5
t12.5 48.5q0 70 -46 70q-24 0 -36.5 -19.5t-12.5 -50.5q0 -29 11.5 -49.5t35.5 -20.5z" />
    <glyph glyph-name="ampersand" unicode="&#x26;" horiz-adv-x="755" 
d="M550 162q73 -42 145 -62q-16 -84 -77 -84q-56 0 -141 58q-91 -84 -206 -84q-100 0 -165.5 62t-65.5 156q0 70 41.5 127t114.5 116q-16 59 -16 114q0 73 43 119.5t108 46.5q53 0 87.5 -33t34.5 -85q0 -18 -4 -35t-15 -35t-18.5 -30t-27 -31.5l-27 -27t-32 -29.5t-29.5 -27
q67 -115 200 -206q52 71 73 151q22 -1 31 -8.5t9 -25.5q0 -14 -17 -58t-46 -89zM246 591q0 -46 12 -91q58 48 87 82.5t29 72.5q0 20 -12 32.5t-32 12.5q-34 0 -58.5 -32t-25.5 -77zM288 55q66 0 138 58q-117 99 -184 225q-68 -86 -68 -145q0 -61 31.5 -99.5t82.5 -38.5z" />
    <glyph glyph-name="quotesingle" unicode="'" horiz-adv-x="200" 
d="M101 503q-16 0 -21 7t-10 37q-12 74 -12 129q0 25 8.5 32t39.5 7q32 0 39 -6t7 -33q0 -46 -18 -127q-7 -33 -11.5 -39.5t-21.5 -6.5z" />
    <glyph glyph-name="parenleft" unicode="(" horiz-adv-x="375" 
d="M258 -62q-51 0 -97 67t-72.5 164t-26.5 189t32 191.5t80 165t93 65.5q32 0 42 -36q-2 -4 -15.5 -29t-17.5 -33t-16.5 -34.5t-17.5 -42.5t-13.5 -46t-13 -56.5t-8.5 -63t-5 -75.5q-1 -38 2 -76t7.5 -67t13.5 -62t15.5 -53t18.5 -47.5t17.5 -38.5t17 -33t12.5 -24
q-17 -25 -48 -25z" />
    <glyph glyph-name="parenright" unicode=")" horiz-adv-x="317" 
d="M71 -62q-31 0 -48 25q1 2 12.5 24t17 33t17.5 38.5t18.5 47.5t15.5 53t13.5 62t7.5 67t2 76q-1 39 -5 75.5t-8.5 63t-13 56.5t-13.5 46t-17.5 42.5t-16.5 34.5t-17.5 33t-15.5 29q10 36 42 36q45 0 93 -65.5t80 -165t32 -191.5t-26.5 -189t-72.5 -164t-97 -67z" />
    <glyph glyph-name="asterisk" unicode="*" horiz-adv-x="550" 
d="M478 561q0 -30 -123 -42q79 -94 97 -119q-1 -16 -13 -25t-29 -9q-28 0 -62 33q-31 30 -77 91q-84 -122 -121 -122q-34 0 -40 46l73 97h-46q-92 0 -92 30q0 16 23 41q49 0 136 5q-13 19 -31.5 46.5t-30.5 45t-19 27.5q0 11 8 19.5t18 8.5q20 0 38 -19q1 -1 81 -92
q15 20 80 108q9 13 33 8t31 -21q-6 -9 -31.5 -52.5t-41.5 -69.5q22 1 49.5 3t44.5 3t25 1q20 -26 20 -42z" />
    <glyph glyph-name="plus" unicode="+" horiz-adv-x="585" 
d="M517 248q0 -14 -14 -31q-56 -5 -165 -7q-1 -112 -12 -146t-43 -34q-11 0 -20 4q-7 80 -8 176q-114 1 -148 12t-34 43q0 11 4 20q80 7 177 8q-1 122 8 154q11 36 38 36q14 0 31 -14q7 -62 7 -175q35 1 67.5 0t57 -4t39.5 -13.5t15 -28.5z" />
    <glyph glyph-name="comma" unicode="," horiz-adv-x="312" 
d="M113 -76q-14 0 -22 17q47 50 51 94q-51 19 -51 66q0 29 19 45.5t51 16.5q29 0 47 -23.5t18 -61.5q0 -44 -40.5 -99t-72.5 -55z" />
    <glyph glyph-name="hyphen" unicode="-" horiz-adv-x="610" 
d="M326 155q-91 0 -133.5 4.5t-58 16t-15.5 35.5q0 9 3 20q81 8 206 9h30t30 0.5t27.5 0t26.5 -1.5t22.5 -3t19.5 -6t14 -8.5t10 -12t3 -16.5q0 -13 -12 -30q-69 -8 -173 -8z" />
    <glyph glyph-name="period" unicode="." horiz-adv-x="299" 
d="M139 25q-23 0 -43.5 24.5t-20.5 50.5q0 23 21.5 38.5t53.5 15.5t53 -11.5t21 -28.5q0 -32 -27 -60.5t-58 -28.5z" />
    <glyph glyph-name="slash" unicode="/" horiz-adv-x="628" 
d="M78 -17q-35 0 -60 61q54 99 139.5 260t144 268.5t89.5 157.5q25 35 42 35q20 0 48 -42q-74 -170 -186.5 -396.5t-172.5 -313.5q-21 -30 -44 -30z" />
    <glyph glyph-name="zero" unicode="0" horiz-adv-x="578" 
d="M285 -81q-71 0 -127 34.5t-88 88.5t-48 114.5t-13 119.5q7 165 85 268t194 103q71 0 126 -34t86.5 -88.5t47.5 -114.5t16 -120q1 -163 -80 -267t-199 -104zM283 -33q70 0 115.5 94t46.5 238q-3 126 -48 213t-107 87q-67 0 -113 -88t-48 -220q-1 -137 43.5 -230.5
t110.5 -93.5z" />
    <glyph glyph-name="one" unicode="1" horiz-adv-x="469" 
d="M300 -86q-26 0 -36 22.5t-10 82.5q0 55 13.5 213.5t13.5 242.5q0 46 -6 65.5t-21 19.5q-27 0 -61.5 -55t-54.5 -129q-26 -4 -41 5.5t-15 30.5q0 64 92.5 158.5t155.5 94.5q31 0 48.5 -40t17.5 -116q0 -39 -10.5 -167.5t-10.5 -215.5q0 -94 14 -155q-44 -57 -89 -57z" />
    <glyph glyph-name="two" unicode="2" horiz-adv-x="626" 
d="M553 58q32 -26 32 -54q0 -27 -24 -45.5t-59 -18.5q-59 0 -196 53q-84 -50 -175 -50q-36 0 -58.5 16t-22.5 42q0 33 35 55.5t88 22.5q42 0 103 -18q67 70 111.5 177t44.5 216q0 70 -37 116t-94 46q-55 0 -90.5 -45t-38.5 -116q-40 -7 -66 6t-26 40q0 62 74 114t164 52
q109 0 172 -61t63 -167q0 -104 -51 -216t-137 -187q107 -25 188 22zM137 -14q44 0 94 36q-51 18 -78 18q-46 0 -46 -30q0 -24 30 -24z" />
    <glyph glyph-name="three" unicode="3" horiz-adv-x="624" 
d="M359 367q101 -6 162.5 -62.5t61.5 -150.5q0 -102 -83.5 -168.5t-214.5 -66.5q-82 0 -151.5 39.5t-69.5 86.5q0 19 18 35t48 23q0 -1 8.5 -20.5t12 -25t13.5 -22.5t20 -24t25.5 -17t36 -14t45.5 -4q74 0 125.5 52t51.5 126q0 65 -43 109.5t-107 44.5q-13 0 -35.5 -2.5
t-36.5 -2.5q-40 0 -40 22q0 10 16 51q63 3 113 52t50 108q0 31 -21 52t-52 21q-65 0 -115 -89q-27 1 -42.5 12.5t-15.5 29.5q0 41 51.5 68t128.5 27q78 0 127.5 -40t49.5 -102q0 -45 -38 -86t-99 -62z" />
    <glyph glyph-name="four" unicode="4" horiz-adv-x="611" 
d="M545 142q0 -27 -0.5 -60t-0.5 -49.5t0.5 -35.5t2.5 -31t5 -22q-28 -13 -60 -13q-63 0 -63 60q1 70 7 182l-271 -3q-39 0 -70 20t-33 65q72 111 108 201t55 202q53 9 77.5 -8.5t24.5 -61.5q0 -112 -157 -362l269 -1q4 108 4 175q0 105 -11 164q28 12 48 12q76 0 76 -75
q0 -93 -5.5 -193.5t-5.5 -165.5z" />
    <glyph glyph-name="five" unicode="5" horiz-adv-x="591" 
d="M289 -77q-95 -2 -161 34.5t-66 89.5q0 20 19.5 38t44.5 20q29 -64 63 -91t84 -27q69 0 113 54t44 137q0 73 -49.5 121t-123.5 48q-28 0 -101 -11q-40 65 -40 177q0 83 34 111t136 28q16 0 61.5 -2t71.5 -2q55 0 98 8q15 -16 15 -31q0 -22 -13.5 -36t-33.5 -14
q-49 0 -118 10t-87 10q-71 0 -71 -94q0 -42 16 -98q50 5 61 5q115 0 188 -66t73 -170q0 -103 -74.5 -175t-183.5 -74z" />
    <glyph glyph-name="six" unicode="6" horiz-adv-x="601" 
d="M374 351q89 0 142.5 -51t53.5 -136q0 -103 -69.5 -171t-173.5 -68q-126 0 -199 81.5t-73 220.5q0 105 42 201.5t128.5 162.5t198.5 66q34 0 57 -15.5t23 -37.5q0 -11 -30 -41q-33 20 -67 20q-70 0 -125.5 -49.5t-84 -121t-33.5 -152.5q91 91 210 91zM328 -10
q65 0 103.5 41t38.5 111t-34.5 110.5t-94.5 40.5q-48 0 -95 -25t-82 -67q7 -94 52 -152.5t112 -58.5z" />
    <glyph glyph-name="seven" unicode="7" horiz-adv-x="548" 
d="M547 603q0 -19 -59 -41q-160 -263 -160 -490q0 -57 14 -110q-38 -20 -80 -20q-32 0 -53.5 27.5t-21.5 73.5q0 54 37.5 145t75 159t111.5 194q-64 -14 -126 -14q-236 0 -236 103q0 17 17 34q160 -74 279 -74q90 0 169 38q33 -11 33 -25z" />
    <glyph glyph-name="eight" unicode="8" horiz-adv-x="558" 
d="M358 331q98 -63 131 -97q57 -59 57 -129q0 -78 -77.5 -135.5t-185.5 -57.5q-112 0 -180.5 53t-68.5 140q0 65 42 114.5t118 100.5q-95 72 -95 154q0 78 54.5 128.5t142.5 50.5q20 0 41 -2.5t49.5 -11.5t50 -23.5t37 -42t15.5 -63.5q0 -47 -34 -89t-97 -90zM201 516
q0 -70 84 -136q53 36 81 68t28 69q0 47 -23 70t-61 23q-52 0 -80.5 -25.5t-28.5 -68.5zM284 -32q56 0 93.5 36.5t37.5 90.5q0 36 -22 69.5t-48 53.5t-71 49q-59 -46 -91 -87.5t-32 -86.5q0 -51 40 -88t93 -37z" />
    <glyph glyph-name="nine" unicode="9" horiz-adv-x="598" 
d="M291 650q123 0 193 -75.5t70 -207.5q0 -190 -100.5 -316.5t-251.5 -126.5q-46 0 -72 13t-26 35q0 25 25 47q46 -29 92 -29q87 0 144 87t68 232q-74 -87 -189 -87q-91 0 -148 55t-57 143q0 99 71.5 164.5t180.5 65.5zM269 276q45 0 89 25t77 69q0 108 -40.5 172t-106.5 64
q-63 0 -104 -48.5t-41 -125.5q0 -69 34.5 -112.5t91.5 -43.5z" />
    <glyph glyph-name="colon" unicode=":" horiz-adv-x="298" 
d="M139 323q-23 0 -43.5 24.5t-20.5 50.5q0 23 21.5 38.5t53.5 15.5t53 -11.5t21 -28.5q0 -32 -27 -60.5t-58 -28.5zM139 63q-23 0 -43.5 24.5t-20.5 50.5q0 23 21.5 38.5t53.5 15.5t53 -11.5t21 -28.5q0 -32 -27 -60.5t-58 -28.5z" />
    <glyph glyph-name="semicolon" unicode=";" horiz-adv-x="299" 
d="M139 322q-23 0 -43.5 24.5t-20.5 50.5q0 23 21.5 38.5t53.5 15.5t53 -11.5t21 -28.5q0 -32 -27 -60.5t-58 -28.5zM104 -60q-14 0 -22 17q47 50 51 94q-51 19 -51 66q0 29 19 45.5t51 16.5q29 0 47 -23.5t18 -61.5q0 -44 -40.5 -99t-72.5 -55z" />
    <glyph glyph-name="less" unicode="&#x3c;" horiz-adv-x="477" 
d="M392 -42q-104 40 -231 128t-127 121q0 34 105 117.5t248 162.5q37 -11 37 -51q0 -20 -17 -42.5t-49 -46.5t-63 -44t-74 -46.5t-66 -42.5q260 -173 260 -224q0 -18 -23 -32z" />
    <glyph glyph-name="equal" unicode="=" horiz-adv-x="560" 
d="M300 203q-75 0 -116 1.5t-66 7.5t-32.5 14.5t-7.5 24.5q0 9 3 17q74 7 221 8h32t32 0.5t29.5 0t28.5 -1.5t24 -2.5t21 -4.5t15 -7.5t10.5 -10.5t3.5 -14q0 -12 -13 -26q-64 -7 -185 -7zM300 34q-75 0 -116 1.5t-66 7.5t-32.5 14.5t-7.5 24.5q0 10 3 17q74 7 221 8h32
t32 0.5t29.5 0t28.5 -1.5t24 -2.5t21 -4.5t15 -7.5t10.5 -10.5t3.5 -14q0 -12 -13 -26q-64 -7 -185 -7z" />
    <glyph glyph-name="greater" unicode="&#x3e;" horiz-adv-x="497" 
d="M87 506q104 -40 231 -128t127 -121q0 -34 -105 -117.5t-248 -162.5q-37 11 -37 51q0 20 17 42.5t49 46.5t63 44t74 46.5t66 42.5q-260 173 -260 224q0 18 23 32z" />
    <glyph glyph-name="question" unicode="?" horiz-adv-x="468" 
d="M202 236q-50 0 -50 64q0 40 17.5 74.5t42.5 60t49.5 51t42 60.5t17.5 76q0 37 -22 62t-55 25q-40 0 -62.5 -26.5t-23 -60.5t7.5 -67q-27 -21 -54 -21q-24 0 -38.5 15t-14.5 40q2 73 51 116.5t127 43.5q72 0 125.5 -44.5t53.5 -105.5q0 -42 -18.5 -77.5t-42.5 -57
t-53 -52.5t-44 -59q-24 -47 -15 -104q-23 -13 -41 -13zM197 23q-23 0 -43.5 24.5t-20.5 50.5q0 23 21.5 38.5t53.5 15.5t53 -11.5t21 -28.5q0 -32 -27 -60.5t-58 -28.5z" />
    <glyph glyph-name="at" unicode="@" horiz-adv-x="810" 
d="M695 170q9 -4 14 -14.5t3 -18.5q-9 -29 -105.5 -81.5t-199.5 -52.5q-141 0 -229 75.5t-88 196.5q0 124 92.5 204t234.5 80q123 0 203.5 -66t80.5 -167q0 -62 -42.5 -99.5t-87.5 -37.5q-35 0 -57 31t-24 82q-38 -66 -73 -94.5t-77 -28.5q-32 0 -51.5 21.5t-19.5 57.5
q0 54 49 103.5t119 49.5q29 0 53 -15t35 -40q0 -52 13.5 -85t35.5 -33q21 0 36 24t15 56q0 87 -60 147t-146 60q-103 0 -169 -65.5t-66 -168.5q0 -104 66.5 -170t171.5 -66q146 0 273 115zM354 227q25 0 60.5 38.5t61.5 92.5q-12 22 -44 22q-37 0 -69.5 -42t-32.5 -77
q0 -14 7 -24t17 -10z" />
    <glyph glyph-name="A" unicode="A" horiz-adv-x="899" 
d="M774 186q0 -152 72 -249q-34 -37 -80 -37q-55 0 -85 52t-30 146q0 25 4 97q-137 -39 -359 -1q-74 -176 -102 -346q-6 -39 3 -119q-78 7 -109 28t-31 77q0 108 124 387q-38 13 -62 24q-42 19 -50.5 46t-1.5 85q72 -45 153 -78q27 46 64 101t87.5 117t101.5 113.5t107 89
t102 45.5q56 -10 76.5 -71.5t20.5 -168.5q0 -40 -2.5 -153t-2.5 -185zM327 263q164 -42 333 -11q3 31 10.5 117t11.5 141t4 96q0 25 -2.5 43.5t-9.5 32t-18 12.5q-62 -26 -156.5 -146.5t-172.5 -284.5z" />
    <glyph glyph-name="B" unicode="B" horiz-adv-x="788" 
d="M484 305q108 -1 178.5 -66t70.5 -162q0 -91 -73 -149t-188 -58q-70 0 -119.5 24.5t-55.5 61.5v29q79 -33 147 -33q82 0 134 49t52 126q0 73 -48 107.5t-121 34.5q-51 0 -101 -16q-24 0 -39 10.5t-15 24.5q0 16 20 27.5t59 11.5q21 0 42 -4q73 35 136 98t63 133
q0 77 -62 121.5t-168 44.5q-57 0 -119 -14q21 -19 24 -41q-51 -102 -78 -252.5t-27 -302.5q0 -231 54 -342q-33 -12 -78 -12q-24 0 -42.5 7.5t-30.5 18t-20.5 30.5t-12.5 35.5t-6 43.5t-2.5 44.5t-0.5 47.5q0 143 30.5 310t69.5 281q23 75 47 111q-104 -35 -165 -92
q-38 16 -25 42q20 37 137 84t263 47q161 0 259 -55.5t98 -146.5q0 -38 -20 -75.5t-51.5 -67t-70 -54t-76 -40.5t-69.5 -22z" />
    <glyph glyph-name="C" unicode="C" horiz-adv-x="909" 
d="M500 -142q-189 0 -314.5 113t-125.5 284q0 90 35 177t99.5 157.5t165 113.5t221.5 43q125 0 208.5 -61t83.5 -151q0 -96 -60 -96q-30 0 -54 11t-24 23q0 3 18 41t18 67q0 52 -42.5 80.5t-117.5 28.5q-121 0 -216 -65.5t-142.5 -162.5t-47.5 -202q0 -147 86 -242t220 -95
q53 0 101.5 14t81.5 33.5t61.5 45t42.5 43.5t24 34q18 0 27 -13t9 -30q0 -39 -56 -84.5t-141 -76t-161 -30.5z" />
    <glyph glyph-name="D" unicode="D" horiz-adv-x="837" 
d="M303 730q220 -23 350.5 -122.5t130.5 -251.5q0 -85 -41 -164t-106 -136t-143.5 -100.5t-155 -65t-139.5 -21.5q-97 0 -120 57q153 3 285 62.5t209 159t77 213.5q0 137 -101.5 224.5t-265.5 96.5q-100 -260 -100 -564q0 -56 5 -129q-57 -5 -85.5 32.5t-28.5 129.5
q0 123 35.5 267t82.5 261q-34 -4 -77 -18t-64 -14q-36 0 -47.5 16.5t-9.5 46.5q109 26 185 26q25 0 37 -1q15 31 24 45q22 -5 31.5 -8t20.5 -14t11 -28z" />
    <glyph glyph-name="E" unicode="E" horiz-adv-x="760" 
d="M447 781q132 0 240 -48t109 -106q0 -23 -35 -36q-48 68 -120.5 99.5t-177.5 31.5q-134 0 -213 -58t-77 -154q3 -112 149 -216q47 16 115 16q121 0 121 -50q0 -47 -86 -47q-101 0 -160 26q-68 -13 -108.5 -56t-39.5 -95q1 -69 69 -110.5t169 -41.5q158 0 288 117
q10 0 17.5 -17t4.5 -28q-2 -8 -16 -23.5t-42.5 -36.5t-65.5 -40t-91.5 -32t-113.5 -13q-140 0 -232 58t-94 141q-1 67 50 122.5t139 85.5q-95 38 -157.5 99t-63.5 141q-2 112 121.5 191.5t300.5 79.5z" />
    <glyph glyph-name="F" unicode="F" horiz-adv-x="753" 
d="M917 800q0 -56 -53 -76t-202 -28q-227 -11 -321 -29q33 -14 33 -77q0 -84 -12 -197q36 10 55 14q104 22 166 22q91 0 91 -34q0 -29 -33 -55q-57 20 -142 8q-79 -10 -146 -32q-21 -195 -21 -267q0 -125 32 -195q-45 -10 -87 -8q-40 3 -58.5 29.5t-18.5 81.5q0 21 5 60
t10 70t15.5 94t15.5 91q-51 -25 -98 -59q-8 26 0.5 55t29.5 44q33 22 81 44q21 134 17 197q0 16 -2.5 30.5t-5 22.5t-6.5 20.5t-5 15.5q6 4 8 6q-149 -47 -149 -158q0 -29 18 -53q-28 -33 -66.5 -24t-38.5 60q0 100 95.5 168t270.5 97q50 8 134 19.5t130.5 20t88.5 22.5
q55 18 130 82q39 -31 39 -82z" />
    <glyph glyph-name="G" unicode="G" horiz-adv-x="998" 
d="M509 -124q-195 0 -317 113t-122 293q0 88 31.5 169.5t92.5 149t161 108t226 40.5q89 0 170.5 -25.5t125 -57.5t44.5 -57q1 -22 -20.5 -41t-54.5 -26q-47 73 -119.5 113t-156.5 39q-66 0 -124 -25t-100.5 -66t-73.5 -94t-46.5 -111.5t-15.5 -116.5q0 -150 83 -244t216 -94
t239 75.5t106 169.5q0 39 -40 57.5t-102 9.5q-120 -15 -149 -15q-34 0 -53 12.5t-19 34.5q0 29 27 65q59 -19 157 -19q60 0 103.5 -4.5t82 -16.5t58 -37t19.5 -63q0 -78 -43 -144t-108.5 -106.5t-138.5 -63t-139 -22.5z" />
    <glyph glyph-name="H" unicode="H" horiz-adv-x="815" 
d="M753 707q0 -60 -25.5 -258t-25.5 -310q0 -136 32 -215q-53 -13 -90 -9q-37 3 -56 28.5t-19.5 71.5t4.5 86t15 97q4 22 6 32l9 58q-101 22 -166 26q-116 8 -219 -15l-20 -153q-16 -122 -16 -242q0 -28 4 -66q-25 6 -37.5 10t-32.5 13.5t-29.5 20t-17 29.5t-7.5 44
q0 38 6 82.5t19.5 117t19.5 111.5q-64 -25 -103 -54q-20 12 -20 29q0 38 134 91q21 144 21 225q0 109 -50 168q53 65 89 65q72 0 72 -174q0 -62 -23 -248q119 33 210 33q51 0 96 -6t51 -14q19 -14 28 -31q19 128 28 219q8 74 8 90q0 52 -36 131q27 38 74 38q35 0 51 -28.5
t16 -92.5z" />
    <glyph glyph-name="I" unicode="I" horiz-adv-x="678" 
d="M736 786q3 -23 -8 -52q-11 -26 -40.5 -41.5t-70.5 -15.5q-54 0 -125.5 4.5t-98.5 5.5q1 -18 -3 -58q-30 -242 -32 -342q-6 -229 25 -350q42 -3 91 -1q109 5 136 27q13 -8 22 -20.5t9 -27t-8 -27t-31.5 -22t-59.5 -11.5q-47 -3 -155.5 2.5t-136.5 5.5q-110 0 -211 -24
q-22 20 -27 45.5t14.5 45.5t61.5 21q85 1 185 -6q-8 19 -13 51q-9 45 -4.5 214.5t19.5 281.5q16 127 18 193q-207 -9 -238 -84q-19 2 -31 19.5t-11 39.5q21 116 369 116q53 0 145 -2.5t99 -2.5q67 0 110 15z" />
    <glyph glyph-name="J" unicode="J" horiz-adv-x="885" 
d="M849 748q-27 -47 -56 -67q-24 -47 -24 -127q0 -73 8 -199t8 -179q0 -151 -114 -251t-285 -100q-110 0 -208 61.5t-98 129.5q0 36 54 84q56 -83 136 -132.5t160 -49.5q119 0 191 83t72 220q0 54 -8.5 166t-8.5 162q0 54 11 100q-34 -2 -56 -2q-32 0 -93 4.5t-89 4.5
q-83 0 -126.5 -34t-32.5 -92q-30 -18 -63 -18q-31 0 -49 17t-18 46q0 62 62 108.5t146 46.5q46 0 136 -12.5t130 -12.5q43 0 76 6q31 61 81 61q36 0 58 -24z" />
    <glyph glyph-name="K" unicode="K" horiz-adv-x="724" 
d="M369 391q39 -133 144 -245.5t230 -154.5q-35 -79 -97 -80q-47 -2 -149.5 94.5t-165.5 235.5q-27 62 -32 103q-107 -77 -120 -172q0 -131 30 -258q-60 -3 -74 0q-48 9 -59 53.5t-11 174.5q0 118 21 310.5t21 243.5q0 58 -10 114q56 4 85 -25.5t29 -82.5q0 -34 -4 -92
t-11 -140t-10 -133q84 89 161 141q98 66 175 146t112 140q37 -10 60 -32.5t23 -48.5q0 -14 -15 -39t-38 -47q-11 -10 -25 -21.5t-38 -28t-40.5 -28t-56.5 -38.5t-62 -42q-14 -10 -73 -48z" />
    <glyph glyph-name="L" unicode="L" horiz-adv-x="820" 
d="M776 -99q40 -43 40 -81q0 -36 -39.5 -57t-110.5 -21q-65 0 -149 23.5t-175.5 56.5t-140.5 44q-19 -27 -52 -41t-63 -14q-37 0 -62.5 22.5t-25.5 61.5q51 17 120 17q50 96 76 253q-62 -13 -123 -13q-46 0 -74 21.5t-28 55.5q132 1 240 33l9 78q8 64 16.5 114t22 104
t32.5 92.5t44 70.5t60 48.5t78 16.5q63 0 98.5 -46t35.5 -116q0 -120 -83.5 -241t-221.5 -183q-35 -224 -81 -290q22 -2 131.5 -24t207.5 -22q106 0 218 37zM319 335l-4 -31q103 54 159.5 139t56.5 196q0 91 -60 91t-92 -89.5t-60 -305.5z" />
    <glyph glyph-name="M" unicode="M" horiz-adv-x="1162" 
d="M1069 244q0 -77 3.5 -135.5t7 -92t12 -62t13 -37.5t16 -26.5t14.5 -22.5q-36 -36 -95 -36q-82 0 -82 179q0 59 17 216t17 196q0 78 -22 78q-20 0 -65.5 -119.5t-96 -259t-76.5 -171.5q-31 -41 -70 -41q-52 0 -84.5 62.5t-32.5 165.5q0 34 13 199t13 280q0 49 -30 49
q-52 0 -128 -155.5t-132.5 -348.5t-65.5 -310q-5 -50 5 -120q-39 5 -60.5 9t-45.5 14t-34.5 27t-10.5 43q0 62 33 183t83 251q24 61 55.5 129.5t81.5 160t107 150t106 58.5q31 0 53.5 -16.5t35 -50t19.5 -72t9.5 -94.5t3 -105t1.5 -116t4 -115q5 -128 29 -170q32 81 84 214
q103 260 142 334.5t85 74.5q30 0 52 -45t22 -110q0 -27 -3 -116t-3 -126z" />
    <glyph glyph-name="N" unicode="N" horiz-adv-x="832" 
d="M123 -122q-33 5 -48 46t-15 134q0 97 22.5 274.5t22.5 266.5q0 58 -10 125q94 25 132 -10q27 -27 41 -100q13 -65 79.5 -234.5t116.5 -250.5q86 -140 127 -140q29 0 43 73t16 229q1 66 2 110t5 97.5t10 88t17 70.5t26.5 56t37.5 32.5t51 12.5q30 0 50 -25.5t22 -66.5
q-6 -4 -24.5 -12.5t-27 -16.5t-21.5 -28.5t-21.5 -59t-14.5 -96.5q-5 -47 -6.5 -119t-1.5 -126t-6.5 -115.5t-20 -102.5t-43 -71t-74.5 -36q-57 -8 -119 54.5t-111 156.5t-92 202t-67.5 187.5t-31.5 115.5v-486q0 -134 25 -225q-40 -18 -91 -10z" />
    <glyph glyph-name="O" unicode="O" horiz-adv-x="888" 
d="M416 -138q-174 0 -275.5 120t-101.5 328q0 56 10 118t28.5 119.5t50.5 95t71 37.5q30 0 47 -22q-44 -50 -68.5 -136t-24.5 -186q0 -190 69 -300.5t185 -110.5q128 0 207.5 116t79.5 309q0 164 -53 258.5t-143 94.5q-67 0 -111 -50.5t-44 -130.5q0 -71 36 -118.5t96 -55.5
q-8 -39 -31 -61.5t-55 -22.5q-59 0 -95 52.5t-36 138.5q0 75 26 143t84 116t138 48q70 0 125.5 -28.5t88.5 -71.5t55 -100t30 -108.5t8 -101.5q0 -120 -33 -216t-89 -154.5t-126 -89t-149 -30.5z" />
    <glyph glyph-name="P" unicode="P" horiz-adv-x="946" 
d="M491 785q181 0 302.5 -82t121.5 -204q0 -66 -34 -129t-95.5 -114t-159.5 -82.5t-215 -31.5h-26q-7 -70 -7 -132q0 -106 29 -172q-47 -11 -83 -7q-74 4 -74 98q0 42 34 223l-9 3q-88 24 -90 55q-1 12 4.5 21.5t13 14.5t22.5 14q5 3 7 4q23 -30 63 -49q30 175 28 243
q-3 60 -31 95q34 24 65 24q30 0 48.5 -23t18.5 -63q0 -41 -3.5 -84.5t-7.5 -70.5t-11.5 -75t-10.5 -70h15q156 0 262 85t108 214v4q0 106 -89 170t-236 64q-121 0 -209 -52t-88 -125q0 -48 48 -83q-21 -33 -73 -33q-38 0 -64 27.5t-26 67.5q0 39 28 82t81 82.5t143 65
t200 25.5z" />
    <glyph glyph-name="Q" unicode="Q" horiz-adv-x="870" 
d="M945 -157q18 -73 -6.5 -117t-83.5 -44q-42 0 -115 39t-156 85t-139 57q-9 -1 -28 -1q-179 0 -284 119.5t-109 328.5q-1 59 10 122t31.5 119t55 92t75.5 36q28 0 40 -20q-46 -53 -75.5 -156.5t-27.5 -202.5q4 -182 74.5 -277.5t198.5 -95.5q90 0 156.5 64.5t95.5 158.5
t27 200q-4 153 -55.5 251.5t-129.5 98.5q-76 0 -120 -140q-39 -1 -62.5 19.5t-23.5 55.5q0 50 52 86.5t126 36.5q153 0 238.5 -108t87.5 -305q2 -154 -57 -278.5t-176 -175.5q14 -5 72.5 -29.5t103 -35t99.5 -10.5q51 0 105 27z" />
    <glyph glyph-name="R" unicode="R" horiz-adv-x="883" 
d="M695 114q167 -235 261 -272q-13 -47 -39.5 -70.5t-60.5 -17.5q-33 7 -69.5 45.5t-60 77t-60.5 105.5t-53 93q-6 9 -19 30.5t-20.5 33t-18.5 27.5t-21 27t-20 20q-70 -15 -157 -15h-21q-14 -98 -14 -188q0 -106 29 -173q-49 -10 -83 -6q-29 2 -46 17.5t-22.5 38t-4 54.5
t6.5 61.5t12 63.5q3 12 4 18q3 21 11 63.5t11 59.5q-10 2 -17 4q-86 21 -88 49q-3 33 47 60q23 -29 68 -48q8 50 11 84q7 45 6 101q-1 58 -30 96q27 19 59 22.5t47 -13.5q25 -21 25 -71q0 -83 -23 -238h7q156 0 258.5 73.5t104.5 193.5q0 98 -87 157t-232 59
q-118 0 -205 -48t-87 -115q0 -43 47 -76q-13 -15 -36 -25t-44 -10q-38 0 -58.5 19.5t-20.5 54.5q0 42 27.5 85t80 80t140 60.5t195.5 23.5q178 0 297 -74.5t119 -186.5q0 -85 -65 -163t-182 -122q16 -18 91 -125z" />
    <glyph glyph-name="S" unicode="S" horiz-adv-x="885" 
d="M414 -181q-141 0 -212.5 33.5t-71.5 74.5q0 27 26 58q150 -97 295 -97q95 0 168 45.5t73 105.5q0 26 -14.5 46.5t-36.5 34.5t-58.5 27t-69 22t-80 22t-80.5 24q-141 48 -205 111t-64 154q0 133 111.5 211.5t299.5 78.5q133 0 237 -44t104 -100q0 -24 -33 -42.5t-64 -18.5
q-9 20 -30 43.5t-53.5 48.5t-82 41.5t-104.5 16.5q-106 0 -189.5 -56t-83.5 -132q0 -36 15 -67t37 -52t59 -41t70.5 -33t80.5 -28q15 -5 54.5 -17t56.5 -18l51 -18t51 -20.5t42.5 -22.5t38.5 -27.5t27 -31t19.5 -37.5t5.5 -43q0 -80 -59 -139t-146 -86t-185 -27z" />
    <glyph glyph-name="T" unicode="T" horiz-adv-x="699" 
d="M925 859q24 -10 38 -24t14 -29q0 -34 -64.5 -47.5t-226.5 -15.5q-66 0 -125 -3q3 -5 4 -11q-23 -103 -41.5 -253t-18.5 -287q0 -218 50 -320q-33 -11 -75 -11q-43 0 -70 24.5t-32 67.5q-8 56 -8 114q0 162 31 370.5t72 299.5q-284 -23 -284 -123q0 -39 40 -67
q-35 -30 -80 -30q-43 0 -69 25t-26 66q0 74 92 126.5t255 70.5q91 11 234.5 12.5t197.5 7.5q66 7 92 37z" />
    <glyph glyph-name="U" unicode="U" horiz-adv-x="871" 
d="M741 363q-4 -118 15 -242.5t65 -186.5q-38 -30 -89 -30q-50 0 -73 51q-26 64 -29 218q-62 -144 -154 -245t-183 -101q-105 0 -162 102t-50 280q3 76 16.5 214.5t15.5 194.5q1 58 -19 107q28 34 89 34q32 0 50 -22.5t18 -65.5q0 -46 -26.5 -213t-29.5 -272
q-9 -265 106 -265q66 0 139 81.5t125.5 199.5t72.5 233q15 167 36 244q15 56 73 56q28 0 62 -13q-63 -179 -68 -359z" />
    <glyph glyph-name="V" unicode="V" horiz-adv-x="911" 
d="M440 -174q-19 0 -63.5 41t-53.5 67q-15 52 -42.5 169.5t-58.5 222.5q-28 98 -60.5 162t-59.5 91.5t-64 49.5q3 34 24 53t55 19q28 0 53.5 -13t46.5 -40t39 -59t34.5 -79t29 -89.5t26.5 -101.5t24 -104.5t23.5 -109t23.5 -105.5q9 -50 45 -69q38 11 86 65t90 130.5
t71 178.5t29 197q0 191 -101 309q28 21 61 21q45 0 77 -30t47.5 -79t21.5 -93t6 -88q0 -122 -46.5 -256t-111.5 -232.5t-135 -163t-117 -64.5z" />
    <glyph glyph-name="W" unicode="W" horiz-adv-x="1067" 
d="M180 -130q-59 0 -85.5 37t-36.5 101q-13 89 -13 336q0 51 -16 108t-46 96q11 8 32 25t34 26.5t30.5 17.5t31.5 8q57 0 57 -132q0 -50 -14.5 -202t-14.5 -210q0 -48 14.5 -77t39.5 -29q55 0 98.5 162t43.5 366q0 40 28 69.5t56 40.5t45 11q20 0 28 -14.5t14 -47.5
q7 -40 11 -123.5t10 -152.5t19 -139.5t44 -111.5t79 -41q10 0 28.5 6.5t50.5 35.5t58.5 75.5t46.5 139t21 213.5q0 81 -18.5 197t-46.5 186q33 6 44 6q77 0 108 -70t31 -247q-2 -72 -12.5 -151t-35.5 -169t-61.5 -160t-96.5 -116.5t-133 -46.5q-135 0 -193 259
q-7 32 -34 198q-13 80 -27 80q-3 0 -8 -5q-12 -143 -44 -296q-19 -117 -64 -188t-103 -71z" />
    <glyph glyph-name="X" unicode="X" horiz-adv-x="804" 
d="M730 638q-64 0 -120.5 -65t-185.5 -261q-9 -14 -14 -21q-2 -2 -13 -19q70 -120 159.5 -190t173.5 -93q7 -56 -9.5 -91.5t-50.5 -35.5q-71 0 -203 167q-74 95 -121 168q-80 -120 -143 -210q-4 -6 -17.5 -24.5t-17.5 -24t-15.5 -20.5t-16 -19.5l-15.5 -15.5t-18 -14.5
t-18 -10.5t-21 -9t-23 -4t-27 -2q-37 0 -61 30t-13 59q39 -4 69.5 6t70.5 48q65 64 210 303q-63 109 -97 197t-34 133q0 46 29 76t72 29q20 -192 83 -345q115 185 201 272t154 87q52 0 79 -30.5t20 -80.5q-37 11 -67 11z" />
    <glyph glyph-name="Y" unicode="Y" horiz-adv-x="721" 
d="M544 577q-1 96 32 135.5t107 31.5q-16 -45 -19.5 -116.5t-3.5 -274.5q0 -229 -109 -369.5t-290 -140.5q-58 0 -125 20t-68 59q-2 41 52 76q36 -48 82.5 -71.5t77.5 -23.5q68 0 118 27t78.5 69t45 106.5t21.5 126t4 140.5q-44 -112 -109.5 -169.5t-133.5 -57.5
q-66 0 -114 31t-74 83t-38 110.5t-12 123.5q0 81 9.5 127t35.5 70q37 36 137 36q-26 -56 -43.5 -134t-17.5 -151q0 -111 32 -170t93 -59q32 0 65.5 20t67.5 60t61 114t38 171z" />
    <glyph glyph-name="Z" unicode="Z" horiz-adv-x="786" 
d="M567 -139q-84 0 -263.5 23.5t-221.5 24.5q-30 51 -30 96q0 42 26.5 80.5t117.5 139.5q186 205 367 394q-63 -1 -149.5 1.5t-107.5 2.5q-61 0 -95 -10.5t-57 -38.5q-49 28 -49 68q0 38 45 64t114 26q70 0 179 -35.5t144 -29.5q57 43 101 43q24 0 36 -17t17 -62
q-21 -8 -49.5 -27t-77.5 -58.5t-120 -116.5t-152 -180q-144 -181 -196 -256q33 -9 144.5 -20.5t201.5 -11.5q117 0 222 45q34 -84 -8 -114.5t-139 -30.5z" />
    <glyph glyph-name="bracketleft" unicode="[" horiz-adv-x="397" 
d="M221 -46q-74 0 -124 13q-3 83 -5.5 237.5t3 342t23.5 221.5q39 13 108 13q46 0 74 -10.5t28 -25.5q0 -8 -9 -27h-117q-8 -78 -6 -318q2 -339 -3 -380l128 -2q16 -32 -12 -49q-21 -15 -88 -15z" />
    <glyph glyph-name="backslash" unicode="\" horiz-adv-x="555" 
d="M502 8q-9 0 -17 1.5t-15 5.5t-11.5 7t-11 10.5t-8.5 10.5t-8.5 13t-8.5 12q-147 223 -389 632q17 40 42 40q23 0 51 -38q81 -113 425 -666q-16 -28 -49 -28z" />
    <glyph glyph-name="bracketright" unicode="]" horiz-adv-x="376" 
d="M149 -46q-67 0 -88 15q-28 17 -12 49l128 2q-5 41 -3 380q2 240 -6 318h-117q-9 19 -9 27q0 15 28 25.5t74 10.5q69 0 108 -13q18 -34 23.5 -221.5t3 -342t-5.5 -237.5q-50 -13 -124 -13z" />
    <glyph glyph-name="asciicircum" unicode="^" horiz-adv-x="490" 
d="M-3 248q37 98 118 215.5t112 117.5t108 -97.5t150 -230.5q-10 -35 -47 -35q-18 0 -39 16t-43 46t-40.5 58.5t-43 68.5t-39.5 62q-160 -242 -207 -242q-17 0 -29 21z" />
    <glyph glyph-name="underscore" unicode="_" horiz-adv-x="842" 
d="M454 -128q-113 0 -175 2t-100 8.5t-49 16.5t-11 28q0 11 5 20q111 7 332 8q19 0 48.5 0.5t48.5 0.5t45 -0.5t42.5 -1.5t36 -3t31.5 -5.5t23 -8.5t16 -12t5 -16q0 -13 -20 -30q-97 -7 -278 -7z" />
    <glyph glyph-name="grave" unicode="`" horiz-adv-x="253" 
d="M208 511q-23 0 -44 8q-20 5 -69.5 57t-69.5 89q-5 9 -5 14q0 6 16.5 11t42.5 5q25 0 38 -3q18 -3 51 -52.5t65 -119.5q-3 -9 -25 -9z" />
    <glyph glyph-name="a" unicode="a" horiz-adv-x="513" 
d="M555 321q7 9 19 7q7 -1 5 -8q-6 -21 -40 -70.5t-89.5 -99t-102.5 -49.5q-62 0 -70 79q-23 -53 -74 -93t-98 -40q-51 0 -84.5 36.5t-33.5 92.5q0 104 70 181.5t164 77.5q43 0 84 -27t52 -62q-16 -70 -16 -118q0 -75 43 -75q29 0 78 50.5t93 117.5zM127 124q43 0 88.5 87.5
t54.5 148.5q-7 38 -45 38q-40 0 -85 -76t-45 -141q0 -24 9 -40.5t23 -16.5z" />
    <glyph glyph-name="b" unicode="b" horiz-adv-x="542" 
d="M613 340q13 -6 13 -16q0 -4 -17 -36q-39 -61 -99 -101.5t-123 -47.5q-25 -74 -74 -125.5t-111 -51.5q-92 0 -140.5 71t-48.5 209q0 119 22 214q23 103 74.5 165.5t113.5 62.5q66 0 66 -79q0 -73 -50 -181.5t-115 -186.5q8 -89 34 -146t61 -57q30 0 57 30.5t47 76.5
q-48 11 -74 43.5t-26 70.5q0 35 24 60.5t69 25.5q39 0 63.5 -27t24.5 -76q0 -24 -5 -54q117 15 214 156zM213 608q-38 0 -65 -106t-27 -197v-20q47 67 82.5 149t35.5 137q0 37 -26 37zM269 266q0 -23 19.5 -46.5t49.5 -32.5q9 32 9 60q0 68 -38 68q-19 0 -29.5 -15.5
t-10.5 -33.5z" />
    <glyph glyph-name="c" unicode="c" horiz-adv-x="490" 
d="M200 36q-92 0 -142.5 57t-50.5 137q0 82 56.5 144t150.5 62q47 0 86 -23.5t39 -50.5q0 -17 -46 -38q-38 61 -76 61q-45 0 -71 -44.5t-26 -105.5t26 -105t73 -44q70 0 167 82t146 163q16 -3 16 -20q0 -18 -31.5 -62t-79 -92t-113 -84.5t-124.5 -36.5z" />
    <glyph glyph-name="d" unicode="d" horiz-adv-x="596" 
d="M630 323q23 -7 23 -21q0 -19 -19.5 -60.5t-50.5 -87t-77 -79.5t-91 -34q-88 0 -123 122q-17 -53 -54 -83t-88 -30q-42 0 -75 19.5t-49.5 51t-24 69.5t1 76t25 69.5t49 51t72.5 19.5q72 0 121 -63v46q0 160 21.5 228t70.5 68q24 0 51 -26q-50 -144 -50 -311
q0 -121 22 -187t63 -66q34 0 75 46.5t65.5 93t41.5 88.5zM176 106q36 0 61 49t32 128q-33 66 -85 66q-33 0 -53.5 -35.5t-20.5 -90.5q0 -54 17.5 -85.5t48.5 -31.5z" />
    <glyph glyph-name="e" unicode="e" horiz-adv-x="498" 
d="M531 330q29 8 29 -16q0 -18 -26 -63t-67 -95.5t-102 -88.5t-121 -38q-98 0 -164.5 61.5t-66.5 155.5q0 92 49.5 155.5t120.5 63.5q48 0 74.5 -29.5t26.5 -83.5q0 -106 -133 -190q34 -72 105 -72q73 0 150 75t125 165zM189 411q-26 0 -45 -35t-19 -84q0 -52 12 -94
q91 81 91 158q0 24 -11 39.5t-28 15.5z" />
    <glyph glyph-name="f" unicode="f" horiz-adv-x="355" 
d="M401 333q11 -3 11 -21q0 -22 -48 -52.5t-98 -30.5q-43 0 -70 13q33 -38 43.5 -81.5t10.5 -108.5q0 -118 -35.5 -199t-87.5 -81q-57 0 -86.5 101.5t-29.5 293.5q0 64 3 126.5t13 136t25 127.5t42.5 90.5t62.5 36.5q37 0 63 -42q-6 -60 -35.5 -130t-63.5 -105q0 -55 -1 -81
q74 -64 146 -64q15 0 30 3t27.5 8.5t22 11t19.5 14t15 13t13 12.5zM143 -157q24 0 44 75t20 155q0 150 -88 197q-2 -68 -2 -144q-1 -181 3.5 -232t22.5 -51z" />
    <glyph glyph-name="g" unicode="g" horiz-adv-x="502" 
d="M554 322q32 0 25 -26q-114 -8 -245 -95v-33q0 -62 -13.5 -132t-39 -135.5t-70 -108t-98.5 -42.5q-42 0 -65.5 30t-23.5 79q0 170 205 321q-2 62 -6 82q-22 -46 -57 -72t-73 -26q-41 0 -63 27.5t-22 79.5q0 82 69.5 150.5t152.5 68.5q26 0 45.5 -8t19.5 -18
q0 -3 -15 -12.5t-33 -16.5q-11 12 -25 12q-52 0 -87 -64t-35 -121q0 -50 27 -50q33 0 59.5 49.5t19.5 95.5q52 34 68 34q48 0 57 -146q141 77 223 77zM114 -222q30 0 56 66.5t38.5 136.5t18.5 137q-144 -135 -144 -275q0 -28 8.5 -46.5t22.5 -18.5z" />
    <glyph glyph-name="h" unicode="h" horiz-adv-x="554" 
d="M613 324q15 -3 15 -25q0 -16 -48.5 -83t-118 -131t-114.5 -64q-39 0 -62 56.5t-21 132.5q-35 -138 -83 -212t-93 -74q-76 0 -76 211q0 76 12.5 162t35 164.5t60 130t80.5 51.5q31 0 50.5 -28t19.5 -71q0 -126 -159 -242q-6 -70 -6 -112q0 -120 17 -120q13 0 34 39
t41 86.5t47 86.5t50 39q32 0 60 -42q-11 -42 -11 -94q0 -89 43 -89q24 0 52.5 19.5t62 59.5t53 66t52.5 73q1 1 1.5 2t1.5 2.5l2 3t2 2.5zM184 582q-44 0 -69 -229q38 27 65 80t27 102q0 47 -23 47z" />
    <glyph glyph-name="i" unicode="i" horiz-adv-x="205" 
d="M64 430q-21 0 -32.5 23.5t-11.5 46.5q0 14 18.5 24t44.5 10q21 0 34 -12t13 -30q0 -19 -23 -40.5t-43 -21.5zM72 2q-32 0 -43 25t-11 98q0 22 2 83.5t2 101.5q0 31 -1 54q26 4 38 4q62 0 62 -63q0 -47 -3 -138.5t-3 -150.5q-24 -14 -43 -14z" />
    <glyph glyph-name="j" unicode="j" horiz-adv-x="382" 
d="M106 465q-31 0 -50.5 18.5t-19.5 46.5q0 19 26 33t60 14q48 0 48 -32t-19 -56t-45 -24zM454 339q-8 -7 -59.5 -52.5t-98 -89.5t-87.5 -87q2 -40 2 -61q0 -147 -40 -219.5t-99 -72.5q-29 0 -48 22t-19 56q0 92 117 233q-8 83 -27.5 165.5t-44.5 131.5q42 33 75 33
q23 0 46 -71t34 -168q50 52 105.5 101t89.5 74.5t39 25.5q14 0 15 -21zM126 -13q0 18 -1 28q-80 -106 -80 -170q0 -20 8.5 -34t21.5 -14q51 0 51 190z" />
    <glyph glyph-name="k" unicode="k" horiz-adv-x="621" 
d="M655 312q17 -4 17 -16q0 -15 -23 -55t-59 -85t-89.5 -79.5t-103.5 -34.5q-52 0 -107.5 39t-99.5 105q-22 -16 -82 -51l-6 -2v-43q0 -41 -13 -64t-36 -23q-22 0 -43 13q17 78 17 278q0 264 -22 373q43 23 72 23q25 0 36 -20t11 -66q0 -19 -3 -66.5t-7.5 -123t-7.5 -138.5
q30 81 80.5 138.5t103.5 57.5q68 0 68 -71q0 -76 -108 -168q30 -44 77 -81t89 -37q20 0 40 6.5t35.5 14.5t35 24.5t31 27.5t29.5 33t25 31.5t23.5 32.5t19.5 27zM106 185q57 38 108.5 92t51.5 101q0 11 -6 19t-14 8q-27 0 -75 -74t-65 -146z" />
    <glyph glyph-name="l" unicode="l" horiz-adv-x="415" 
d="M451 319q19 -2 19 -17q0 -10 -18.5 -41.5t-51.5 -71.5t-72 -78t-87 -64t-89 -26q-65 0 -103 71t-38 195q0 97 31 192t80 155t98 60q27 0 43.5 -19t16.5 -50q0 -48 -29 -124.5t-55.5 -128t-75.5 -139.5q5 -74 26.5 -114t55.5 -40q35 0 91.5 51.5t94.5 100.5t63 88z
M215 657q-36 0 -64.5 -117t-32.5 -230q48 78 82.5 170.5t34.5 145.5q0 31 -20 31z" />
    <glyph glyph-name="m" unicode="m" horiz-adv-x="871" 
d="M950 312q19 -1 19 -11q0 -16 -28 -55t-72 -83t-111 -77.5t-133 -33.5q-103 0 -103 114q0 34 6 85.5t6 69.5q0 10 -4.5 17t-11.5 7q-22 0 -55.5 -66t-65 -132t-50.5 -66q-33 0 -54 29q18 113 18 173q0 43 -4 61t-16 18q-15 0 -40.5 -47t-50.5 -103t-62.5 -103t-73.5 -47
q-38 0 -63 25q2 20 8.5 85.5t8 94.5t-1.5 76.5t-14 83.5q24 19 53 19q65 0 65 -137q0 -65 -17 -154q18 28 50.5 86t53.5 93t51 64.5t58 29.5q72 0 72 -125q0 -48 -9 -96q51 116 89.5 164t88.5 48q33 0 52 -20.5t19 -56.5q0 -24 -4 -70t-4 -69q0 -94 60 -94t139.5 62.5
t130.5 140.5z" />
    <glyph glyph-name="n" unicode="n" horiz-adv-x="676" 
d="M396 10q-50 0 -72 37.5t-22 123.5q0 37 7.5 104.5t7.5 76.5q0 37 -15 37q-16 0 -51 -48t-71 -123.5t-50 -139.5q-14 -6 -32 -6q-47 0 -61 29t-14 89q0 39 4 98t4 82q0 38 -8 75q30 24 64 24q50 0 50 -57q0 -1 -3.5 -78t-1.5 -114q113 210 204 210q50 0 67 -34.5
t17 -101.5q0 -14 -2 -63.5t-2 -71.5q0 -84 39 -84q35 0 123.5 70t134.5 162q29 6 29 -9q0 -20 -32 -66.5t-79.5 -96t-112.5 -87.5t-122 -38z" />
    <glyph glyph-name="o" unicode="o" horiz-adv-x="548" 
d="M586 329q15 -3 15 -18q0 -40 -61.5 -92.5t-131.5 -52.5q-36 0 -66 19q-21 -59 -65.5 -97t-107.5 -39q-74 -1 -122 48.5t-48 127.5q0 53 23 87t61 37q4 51 42 80t90 29q69 0 106.5 -51.5t37.5 -125.5q0 -26 -4 -47q29 -25 67 -25q97 0 164 120zM169 79q40 0 64 56t24 128
q0 61 -19 103.5t-56 42.5q-42 0 -74 -62q40 -10 40 -64q0 -12 -3 -30q-41 -21 -41 -84q0 -36 17 -63t48 -27z" />
    <glyph glyph-name="p" unicode="p" horiz-adv-x="480" 
d="M488 330q66 0 66 -14q0 -9 -10 -15q-86 8 -191 -16q-29 -60 -77.5 -104.5t-86.5 -44.5q-30 0 -30 32q0 86 135 131q12 36 12 56q0 45 -41 45q-18 0 -36.5 -11t-39 -39t-36.5 -70t-26.5 -110.5t-10.5 -153.5q0 -103 17 -235q-29 -7 -55 -7q-45 0 -59 34.5t-9 131.5
q13 240 13 367v22v21.5v18.5t-0.5 20l-1.5 18t-2 19.5t-3 19t-4.5 22t-5.5 22.5q32 26 59 26t37.5 -21t10.5 -66q0 -56 -6 -108q26 54 78 99t104 45q39 0 63 -19q27 -23 27 -63q0 -32 -12 -65q63 12 121 12zM207 175q13 0 33.5 26t37.5 62q-35 -14 -56 -30q-24 -18 -24 -44
q1 -13 9 -14z" />
    <glyph glyph-name="q" unicode="q" horiz-adv-x="540" 
d="M574 343q7 0 13.5 -7.5t3.5 -21.5q-77 -72 -153 -205t-127 -325q-25 -18 -51 -18q-15 0 -27 7.5t-18.5 24.5t-11 33t-6 43t-2 45t-0.5 48q0 132 19 218q-69 -74 -144 -74q-34 0 -55 26t-21 68q1 74 47 136t113 95t134 33q56 0 56 -33q0 -15 -14 -26q-18 9 -39 9
q-68 0 -137.5 -69.5t-69.5 -138.5q0 -41 32 -41q33 0 72 41t59 96q18 20 54 20q22 0 35 -11t13 -30q0 -13 -14.5 -51t-31 -102.5t-21.5 -138.5q-4 -42 6 -146q25 103 89 224t121 196t76 75z" />
    <glyph glyph-name="r" unicode="r" horiz-adv-x="460" 
d="M504 313q10 0 15.5 -5.5t5.5 -12.5q0 -14 -25.5 -62.5t-64.5 -105.5t-97.5 -101t-113.5 -44q-57 0 -94.5 32t-37.5 81q0 38 14 73.5t38 73t28 44.5q-196 5 -196 103q0 46 31.5 76.5t74.5 30.5q19 0 30 -12.5t11 -32.5q0 -37 -30 -89q27 -7 84 -12t89 -13t32 -28
q0 -19 -22 -58t-44.5 -83t-22.5 -77q0 -60 47 -60q57 0 125 86.5t123 195.5zM71 478q-12 0 -25 -21.5t-13 -43.5q0 -25 27 -39q22 47 22 79q0 25 -11 25z" />
    <glyph glyph-name="s" unicode="s" horiz-adv-x="376" 
d="M431 296q-69 -5 -194 -68q36 -39 36 -86q0 -61 -55 -97.5t-120 -36.5q-40 0 -65 15.5t-25 45.5q0 54 104 125q-4 4 -22.5 20.5t-26 24.5t-19.5 23.5t-16.5 31t-4.5 33.5q0 35 21 61.5t58 38.5q38 11 73.5 9.5t50.5 -15.5q-4 -50 -94 -46q-12 -14 -1.5 -39t35.5 -47
q8 -7 24.5 -20t21.5 -17q60 30 115 50t79 20q18 0 25 -26zM150 123q0 21 -15 43q-76 -54 -76 -92q0 -27 23 -27q22 0 45 23t23 53z" />
    <glyph glyph-name="t" unicode="t" horiz-adv-x="437" 
d="M471 322q23 -2 23 -20q0 -17 -20 -62t-54.5 -98t-92 -93t-120.5 -40q-80 0 -126 58t-46 162q0 76 21 204q-23 1 -67 1q-30 0 -30 29q0 11 5 29q30 -7 100 -12q26 151 28 212q62 -2 82 -18t20 -67q0 -28 -17 -130h141l-6 -18q-5 -13 -32.5 -19t-110.5 -7
q-28 -172 -28 -246q0 -57 24.5 -93t64.5 -36q121 0 241 264z" />
    <glyph glyph-name="u" unicode="u" horiz-adv-x="547" 
d="M571 346q21 -2 21 -16q0 -15 -21 -57t-52 -89t-75.5 -83.5t-84.5 -36.5q-96 0 -103 116q-79 -124 -158 -124q-42 0 -66 30t-24 86q0 12 3.5 70t3.5 97q0 47 -6 86q42 6 56 6q28 0 40.5 -14t12.5 -48q0 -12 -4.5 -73t-4.5 -92q0 -68 41 -68q44 0 106 87q1 11 3 36.5
t3.5 51t1.5 49.5q0 34 -5 64q20 2 30 2q42 0 59 -20.5t17 -72.5q0 -9 -5.5 -61t-5.5 -79q0 -84 36 -84q34 0 98.5 90.5t82.5 146.5z" />
    <glyph glyph-name="v" unicode="v" horiz-adv-x="567" 
d="M600 327q16 -4 16 -17q0 -8 -15.5 -25t-54 -34.5t-87.5 -17.5q-61 0 -110 30q-35 -99 -87.5 -163t-98.5 -64q-21 0 -36.5 16t-28.5 50.5t-24.5 72t-30.5 97.5t-39 111q38 39 90 39q41 0 57.5 -24t16.5 -83q0 -18 -2.5 -61t-2.5 -66q0 -78 32 -78q29 0 52 64.5t37 154.5
q-18 36 -18 72q0 27 15 50.5t40 23.5q26 0 41 -21.5t15 -60.5q0 -41 -16 -90q58 -36 108 -36q43 0 69.5 12.5t61.5 47.5z" />
    <glyph glyph-name="w" unicode="w" horiz-adv-x="736" 
d="M759 329q9 -3 9 -18q0 -16 -35.5 -35.5t-76.5 -19.5q-60 0 -101 38v-4q0 -57 -17.5 -109t-57 -89.5t-92.5 -37.5q-82 0 -103 100q-42 -117 -138 -117q-58 0 -91.5 59.5t-33.5 163.5q0 105 20.5 151.5t67.5 46.5q24 0 51 -10q-26 -71 -26 -163q0 -192 55 -192
q26 0 46.5 42.5t20.5 88.5q0 34 -5 71q15 9 36 9q30 0 39 -19t12 -75q8 -121 56 -121q34 0 52.5 41t18.5 109q0 91 -36 163q19 16 48 16q43 0 63 -43q48 -86 119 -86q52 0 99 40z" />
    <glyph glyph-name="x" unicode="x" horiz-adv-x="426" 
d="M227 221q70 -56 172 -111q-5 -17 -18 -29t-26 -12q-26 0 -74 23t-98 60q-49 -77 -85 -117t-70 -40q-37 0 -51 43q43 26 75.5 56.5t70.5 79.5q4 6 12 16q-108 95 -108 164q0 35 25 65t51 31q8 1 20 -4l-2 -3q2 2 2 3q14 -6 23 -21q-11 -32 -37 -65q16 -47 74 -100
q19 29 39 63t30 52t23 35.5t24.5 24.5t26.5 8q33 3 54 -21q-62 -57 -153 -201z" />
    <glyph glyph-name="y" unicode="y" horiz-adv-x="505" 
d="M598 336q-142 -51 -282 -149q-21 -193 -86 -315t-145 -122q-36 0 -56 28.5t-20 72.5q0 160 214 321q4 50 4 68q0 8 -0.5 21t-0.5 17q-59 -108 -130 -108q-39 0 -62.5 41t-23.5 109q0 14 1 39t1 38q0 24 -3 51q18 8 43 8q56 0 56 -40q0 -5 -4 -42t-4 -64q0 -82 40 -82
q36 0 56.5 59t20.5 159q24 14 52 14q35 0 45 -26t10 -90q0 -61 -4 -106q58 35 118.5 64.5t97 43.5t45.5 14q6 0 11.5 -7t5.5 -17zM91 -210q31 0 66.5 98.5t55.5 217.5q-154 -140 -154 -268q0 -48 32 -48z" />
    <glyph glyph-name="z" unicode="z" horiz-adv-x="551" 
d="M626 292q-112 -30 -268 -135q23 -37 24 -84q0 -75 -46 -148.5t-112 -117.5t-125 -44q-77 0 -77 78q0 59 66 139t168 158q-28 61 -138 83q-9 16 10 29q118 79 118 124q0 19 -22 19h-111q-77 0 -77 36q0 20 24 60q27 -21 73 -35t88 -14q49 0 77.5 -16t28.5 -43
q0 -21 -24.5 -56.5t-78.5 -79.5q22 0 52 -14t55 -39q181 119 277 124q11 1 14.5 -5t3.5 -19zM268 66q0 17 -1 25q-187 -151 -188 -254q0 -15 7.5 -23.5t18.5 -8.5q23 0 61 38t70 101.5t32 121.5z" />
    <glyph glyph-name="braceleft" unicode="{" horiz-adv-x="414" 
d="M277 -41q-36 0 -62 14.5t-39.5 34.5t-22 55.5t-11 61.5t-4.5 68q-3 58 -17 95.5t-29 49.5t-27.5 21t-12.5 16q0 11 5 16t12.5 6.5t19.5 10.5t23 26q23 34 34 107q3 21 6.5 58.5t6 60.5t11.5 52t22.5 45.5t39 28t61.5 11.5q32 0 50.5 -8t18.5 -20q0 -8 -8 -17q-13 5 -27 5
q-32 0 -46.5 -35.5t-18.5 -87.5t-10 -105.5t-30.5 -96t-71.5 -51.5l-1 -12q44 -10 66.5 -51t26.5 -93t6.5 -102.5t16.5 -84.5t46 -34q14 0 27 5q7 -10 7 -16q0 -15 -18 -24.5t-50 -9.5z" />
    <glyph glyph-name="bar" unicode="|" horiz-adv-x="348" 
d="M162 -63q-26 0 -35.5 12.5t-9.5 46.5q0 27 3.5 273.5t3.5 365.5q0 21 0.5 51t0.5 37v37q24 10 47 10q24 0 38.5 -14t15.5 -37v-49q0 -57 -4 -203.5t-4 -268.5v-206v-38q-27 -17 -56 -17z" />
    <glyph glyph-name="braceright" unicode="}" horiz-adv-x="414" 
d="M137 -41q-32 0 -50 9.5t-18 24.5q0 6 7 16q13 -5 27 -5q32 0 46 34t16.5 84.5t6.5 102.5t26.5 93t66.5 51l-1 12q-47 9 -71.5 51.5t-30.5 96t-10 105.5t-18.5 87.5t-46.5 35.5q-14 0 -27 -5q-8 9 -8 17q0 12 18.5 20t50.5 8q36 0 61.5 -11.5t39 -28t22.5 -45.5t11.5 -52
t6 -60.5t6.5 -58.5q11 -73 34 -107q11 -17 23 -26t19.5 -10.5t12.5 -6.5t5 -16q0 -7 -12.5 -16t-27.5 -21t-29 -49.5t-17 -95.5q-2 -42 -4.5 -68t-11 -61.5t-22 -55.5t-39.5 -34.5t-62 -14.5z" />
    <glyph glyph-name="asciitilde" unicode="~" horiz-adv-x="595" 
d="M395 171q-42 0 -108 38t-98 38t-59.5 -24t-42.5 -50q-48 3 -48 45q0 43 47.5 80t102.5 37q42 0 113.5 -37.5t96.5 -37.5q56 0 104 62q37 -13 37 -44q0 -40 -45 -73.5t-100 -33.5z" />
    <glyph glyph-name="exclamdown" unicode="&#xa1;" horiz-adv-x="318" 
d="M176 516q25 0 45.5 -24t20.5 -53q0 -22 -22.5 -37t-55.5 -15q-31 0 -51 12t-20 30q0 29 27.5 58t55.5 29zM176 304q26 0 33.5 -23t15.5 -94q17 -166 17 -263q0 -30 -0.5 -44.5t-4 -36t-11 -31t-22 -17.5t-35.5 -8q-56 0 -69 36q1 70 15.5 245.5t30.5 224.5q11 11 30 11z
" />
    <glyph glyph-name="cent" unicode="&#xa2;" horiz-adv-x="467" 
d="M403 139q0 -36 -40.5 -62.5t-104.5 -30.5q0 -68 -5 -84q-2 -8 -19 -10t-26 4q4 69 5 90q-77 6 -124.5 58t-47.5 131q0 87 48.5 148.5t125.5 74.5q0 27 -1 36q-2 29 8 39.5t37 6.5v-21.5v-28.5v-29q52 -2 89.5 -24.5t37.5 -51.5q0 -18 -15 -29.5t-41 -12.5q-23 52 -73 57
q0 -14 -0.5 -51.5t-0.5 -61.5q0 -40 0.5 -100.5t0.5 -81.5h6q61 0 89 71q23 -2 37 -12t14 -25zM145 248q0 -104 70 -134q1 58 0 150q0 13 0.5 58t0.5 71q-33 -14 -52 -52.5t-19 -92.5z" />
    <glyph glyph-name="sterling" unicode="&#xa3;" horiz-adv-x="663" 
d="M568 63q54 -13 54 -48q0 -30 -33 -53t-77 -23q-46 0 -85.5 17t-82.5 45.5t-72 40.5q-58 -109 -158 -109q-32 0 -52.5 20t-20.5 51q0 44 41 74t103 30h17q11 72 13 170q-67 0 -120 6q-7 42 34 49q35 5 88 6v98q0 93 49.5 153.5t123.5 60.5q59 0 93.5 -28t34.5 -71
q0 -13 -15.5 -23t-34.5 -10q-14 0 -26 6q-3 86 -45 86q-26 0 -40.5 -51.5t-14.5 -136.5q0 -26 -2 -80q124 0 154 -2q14 -25 -8 -42q-6 -11 -151 -18q-12 -115 -42 -192q28 -10 69 -30t73 -31.5t61 -11.5q22 0 37 11t35 36zM121 -38q48 0 72 101q-8 1 -27 1
q-35 0 -58.5 -17.5t-23.5 -42.5q0 -17 10.5 -29.5t26.5 -12.5z" />
    <glyph glyph-name="currency" unicode="&#xa4;" horiz-adv-x="652" 
d="M505 281q63 -50 84 -100q-1 -18 -14.5 -29t-35.5 -11q-35 0 -95 68q-48 -31 -113 -31q-68 0 -117 33q-44 -52 -92 -72q-45 2 -45 47q0 32 77 100q-13 29 -13 67t13 68q-61 47 -81 97q1 18 14.5 29t35.5 11q34 0 90 -63q53 35 120 35q68 0 116 -34q41 48 87 67
q45 -2 45 -47q0 -32 -72 -96q11 -31 11 -65q0 -41 -15 -74zM332 231q40 0 67 39t27 95q0 57 -24.5 86.5t-67.5 29.5t-69 -30.5t-26 -87.5q0 -59 25.5 -95.5t67.5 -36.5z" />
    <glyph glyph-name="yen" unicode="&#xa5;" horiz-adv-x="613" 
d="M515 246q-90 0 -143 -1q-2 -25 -4 -82q133 0 182 -7q3 -36 -35 -39q-94 0 -149 -1q-3 -54 -7 -141l-1 -31v3q-30 -32 -71 -32q-18 0 -24 14.5t-9 67.5q-4 71 -5 118l-173 -3q-7 17 5 30t37 15q68 4 129 5q0 32 -2 82l-169 -3q-7 17 5 30t37 15q69 4 126 5q0 6 -0.5 17
t-0.5 16l-194 313q30 19 76 19q35 0 56 -22q14 -14 30.5 -38.5t34 -56.5t29 -55.5t27.5 -57t19 -39.5q16 26 40 70.5t41.5 75t38.5 62t41.5 48t39.5 16.5q28 0 38 -17q-28 -38 -100 -167t-84 -163l-2 -20q139 -2 176 -7q3 -36 -35 -39z" />
    <glyph glyph-name="brokenbar" unicode="&#xa6;" horiz-adv-x="335" 
d="M166 410q-26 0 -35.5 12.5t-9.5 46.5q0 41 2 101.5t2 66.5q0 21 0.5 51t0.5 37v37q24 10 47 10q24 0 38.5 -14t15.5 -37v-49q0 -1 -2 -74t-2 -133v-38q-27 -17 -57 -17zM166 -61q-26 0 -35.5 12.5t-9.5 46.5q0 35 2 87t2 88q0 21 0.5 51t0.5 37v37q24 10 47 10
q24 0 38.5 -14t15.5 -37v-49q0 -30 -2 -95t-2 -119v-38q-27 -17 -57 -17z" />
    <glyph glyph-name="section" unicode="&#xa7;" horiz-adv-x="550" 
d="M449 301q0 -89 -84 -131q45 -57 45 -106q0 -62 -47 -99.5t-125 -37.5q-60 0 -100.5 26t-40.5 63q0 21 25 36.5t40 4.5q3 -40 24 -64.5t53 -24.5q35 0 54 21t18 59q0 31 -25 62t-60.5 58.5t-71 57.5t-61 73t-26.5 93q0 88 83 132q-44 58 -44 105q0 62 47 99.5t125 37.5
q60 0 100.5 -26t40.5 -63q0 -21 -25 -36.5t-40 -4.5q-3 40 -24 64.5t-53 24.5q-35 0 -54 -21.5t-18 -58.5q0 -31 25 -62t60.5 -58.5t71 -57.5t61 -73t26.5 -93zM166 421q0 -19 8.5 -38.5t27 -41.5t34.5 -38t44 -43t42 -41q28 22 28 53q0 19 -8.5 38.5t-27 41.5t-34.5 38
t-44 43t-42 41q-28 -22 -28 -53z" />
    <glyph glyph-name="dieresis" unicode="&#xa8;" horiz-adv-x="365" 
d="M78 526q-58 0 -58 65q0 8 1 10q8 17 24 27.5t24 12.5t12 2q36 -4 52 -16.5t16 -37.5q0 -63 -71 -63zM274 526q-58 0 -58 65q0 8 1 10q8 17 24 27.5t24 12.5t12 2q67 -7 67 -54q0 -63 -70 -63z" />
    <glyph glyph-name="copyright" unicode="&#xa9;" horiz-adv-x="906" 
d="M452 0q-157 0 -255 90t-98 233q0 147 102 242t261 95q149 0 244.5 -89.5t95.5 -228.5q0 -63 -22 -123t-63.5 -109.5t-110 -79.5t-154.5 -30zM452 45q47 0 93 19t84.5 54.5t62 93.5t23.5 129q0 117 -71 192t-181 75q-103 0 -186 -76.5t-83 -207.5q0 -120 74 -199.5
t184 -79.5zM462 170q-76 0 -123.5 46t-47.5 118q0 73 51.5 123.5t127.5 50.5q41 0 77.5 -20.5t36.5 -41.5q0 -13 -37 -30q-35 52 -69 52q-36 0 -62 -37.5t-26 -88.5q0 -61 24.5 -97t65.5 -36q36 0 77 55q35 -2 35 -28t-39.5 -46t-90.5 -20z" />
    <glyph glyph-name="ordfeminine" unicode="&#xaa;" horiz-adv-x="268" 
d="M214 618q0 -58 26 -84q-5 -20 -29 -20q-15 0 -26 23t-11 50q-44 -76 -98 -76q-26 0 -43.5 18.5t-17.5 46.5q0 55 45 103t96 48q21 0 40.5 -13t25.5 -30q-8 -27 -8 -66zM91 547q24 0 50.5 48t35.5 84q-10 13 -30 13q-26 0 -50.5 -42t-24.5 -77q0 -26 19 -26z" />
    <glyph glyph-name="guillemotleft" unicode="&#xab;" horiz-adv-x="833" 
d="M337 586q19 -13 19 -32q0 -51 -215 -224q19 -16 55 -42.5t61 -46.5t52 -44t41 -46.5t14 -42.5q0 -40 -31 -51q-118 79 -205 162.5t-87 117.5q0 33 105 121t191 128zM595 586q19 -13 19 -32q0 -51 -215 -224q19 -16 55 -42.5t61 -46.5t52 -44t41 -46.5t14 -42.5
q0 -40 -31 -51q-118 79 -205 162.5t-87 117.5q0 33 105 121t191 128z" />
    <glyph glyph-name="logicalnot" unicode="&#xac;" horiz-adv-x="656" 
d="M356 360h49q28 1 55 0.5t51 -1t44 -3t34.5 -7t22.5 -12t8 -17.5v-178q0 -6 -10 -11t-24 -5q-31 0 -48 20l-2 144q-77 -3 -182 -3q-99 0 -155 2t-90 7.5t-44 14t-10 24.5q0 11 5 17q100 7 296 8z" />
    <glyph glyph-name="registered" unicode="&#xae;" horiz-adv-x="833" 
d="M482 551q1 -79 -62.5 -138.5t-148.5 -59.5t-145 54.5t-60 131.5q0 95 56 147.5t156 52.5q84 0 143.5 -54.5t60.5 -133.5zM272 372q70 0 114.5 51t44.5 132q0 74 -43 121t-110 47q-71 0 -118 -50t-47 -127q0 -76 45 -125t114 -49zM307 542q5 -15 26.5 -41.5t35.5 -36.5
q-7 -12 -21 -12q-15 0 -35.5 27.5t-33.5 52.5q-17 -5 -31 -5l-6 -45q-4 -24 1 -35q-16 -2 -19 -2q-22 0 -22 17q0 6 3 19.5t3 16.5q1 5 2.5 14.5t2.5 14.5q-25 3 -25 11q0 6 9 15q7 -2 19 -4q6 57 3 82q-19 -13 -19 -34q0 -9 4 -15q-10 -6 -17 -6q-17 0 -17 21q0 23 27 42
t69 19q41 0 66 -15t25 -40q0 -38 -50 -61zM249 641q10 -18 1 -93q31 3 49.5 17.5t18.5 36.5q0 19 -14.5 29.5t-38.5 10.5q-11 0 -16 -1z" />
    <glyph glyph-name="macron" unicode="&#xaf;" horiz-adv-x="600" 
d="M425 552q-45 5 -77 5q-24 0 -62 -2.5t-64 -2.5q-58 0 -79 9.5t-21 33.5q0 6 4 20q33 -2 154 -2q10 0 44 2t52 2q34 0 47 -6t13 -20q0 -22 -11 -39z" />
    <glyph glyph-name="degree" unicode="&#xb0;" horiz-adv-x="255" 
d="M125 533q-50 0 -81.5 28t-31.5 74q0 45 31.5 73.5t81.5 28.5q49 0 81.5 -29t32.5 -73q0 -45 -32 -73.5t-82 -28.5zM125 571q21 0 35 20t14 49q0 69 -47 69q-22 0 -35.5 -18.5t-13.5 -50.5t12.5 -50.5t34.5 -18.5z" />
    <glyph glyph-name="plusminus" unicode="&#xb1;" horiz-adv-x="585" 
d="M228 316q-118 1 -152.5 10.5t-34.5 37.5q0 10 4 17q82 7 182 8v33q-1 21 -0.5 40.5t1 37t3.5 32.5t7 25.5t11.5 16.5t17.5 6q12 0 26 -13q7 -63 7 -178q123 1 154 -8q30 -11 31 -32q0 -12 -14 -26q-60 -7 -171 -7q-2 -97 -11.5 -126.5t-36.5 -29.5q-10 0 -17 3
q-6 60 -7 153zM278 89h34t34 0.5t31.5 0t29.5 -1.5t25 -2.5t22.5 -4.5t16 -7.5t11 -10.5t3.5 -14q0 -12 -14 -26q-67 -7 -195 -7q-79 0 -122.5 1.5t-70 7.5t-34.5 14.5t-8 24.5q0 10 4 17q78 7 233 8z" />
    <glyph glyph-name="uni00B2" unicode="&#xb2;" horiz-adv-x="283" 
d="M237 543q11 -9 11 -23q0 -10 -10.5 -17t-25.5 -7q-24 0 -76 20q-31 -18 -62 -18q-18 0 -30.5 9.5t-12.5 23.5q0 15 14.5 24.5t36.5 9.5q19 0 53 -12q40 44 40 106q0 31 -10.5 50.5t-27.5 19.5q-20 0 -34 -17t-16 -43q-37 -5 -37 25q0 26 25.5 45t59.5 19q41 0 64 -25.5
t23 -70.5q0 -70 -54 -122q39 -12 69 3zM76 521q13 0 27 7q-15 6 -25 6q-12 0 -12 -7q0 -6 10 -6z" />
    <glyph glyph-name="uni00B3" unicode="&#xb3;" horiz-adv-x="241" 
d="M151 647q28 -8 45 -25.5t17 -39.5q0 -40 -29 -65t-75 -25q-33 0 -58.5 13t-25.5 29q0 12 13.5 21t19.5 8q19 -45 54 -45q21 0 35 16t14 39q0 21 -13 34.5t-33 13.5h-21q-13 0 -18 8t1 20q24 -1 42.5 16t18.5 40q0 24 -23 24q-20 0 -43 -26q-19 4 -19 17q0 14 17.5 24.5
t42.5 10.5q31 0 50 -13.5t19 -36.5q0 -29 -31 -58z" />
    <glyph glyph-name="acute" unicode="&#xb4;" horiz-adv-x="270" 
d="M45 511q-22 0 -25 9q33 69 67 119t52 53q14 3 38 3q26 0 42.5 -5t16.5 -11q0 -5 -6 -15q-19 -35 -70 -87.5t-71 -58.5q-23 -7 -44 -7z" />
    <glyph glyph-name="uni00B5" unicode="&#xb5;" horiz-adv-x="573" 
d="M524 505q0 -21 -10.5 -150.5t-10.5 -213.5q0 -20 2 -41t5 -44t4 -34q-14 -7 -52 -7q-59 0 -59 101q0 23 3.5 67.5t3.5 60.5v45q-56 -119 -131 -119q-30 0 -63 20t-51 55q-6 -285 -6 -313q0 -38 3 -69q-17 -4 -34 -4q-37 0 -50 23t-15 68q-11 185 -11 347q0 148 10 197.5
t45 50.5q27 1 54 -19q9 -27 7 -127q4 -81 35.5 -127t64.5 -46q38 0 77 56t60 161q9 48 28 72.5t41 24.5q29 0 50 -35z" />
    <glyph glyph-name="paragraph" unicode="&#xb6;" horiz-adv-x="498" 
d="M413 765q1 -5 1 -65v-46q0 -54 -3.5 -192t-3.5 -253v-230q-22 -15 -44 -15q-20 0 -28 12t-8 43q0 4 3 244.5t3 357.5q0 20 0.5 48t0.5 34v2l-73 4q1 -3 1 -9v-46q0 -54 -3.5 -192t-3.5 -253v-230q-22 -15 -44 -15q-20 0 -28 12t-8 43q0 10 1 86t2.5 186.5t1.5 196.5
q-77 15 -109 46.5t-32 90.5q0 78 53 118.5t150 36.5q105 -5 171 -15z" />
    <glyph glyph-name="periodcentered" unicode="&#xb7;" horiz-adv-x="166" 
d="M81 253q-25 0 -43 22.5t-18 51.5q0 23 20 37t52 14q58 0 58 -43q0 -31 -21.5 -56.5t-47.5 -25.5z" />
    <glyph glyph-name="cedilla" unicode="&#xb8;" horiz-adv-x="221" 
d="M102 54q-33 0 -61 14t-28 30q0 6 14 6q6 0 21.5 -2.5t22.5 -2.5q25 0 39.5 14.5t14.5 40.5q0 48 -53 61l-4 8q6 15 14 32q5 16 0 17l60 4l-26 -54q43 -4 67.5 -26t24.5 -56q0 -35 -31.5 -60.5t-74.5 -25.5z" />
    <glyph glyph-name="uni00B9" unicode="&#xb9;" horiz-adv-x="201" 
d="M127 490q-18 0 -18 35q0 18 4 70t4 83q0 43 -4 43q-9 0 -26 -22t-24 -44q-13 -1 -22 5.5t-9 17.5q0 23 34 52.5t61 29.5q16 0 26 -16t10 -43q0 -14 -3.5 -60.5t-3.5 -77.5q0 -33 4 -56q-12 -17 -33 -17z" />
    <glyph glyph-name="ordmasculine" unicode="&#xba;" horiz-adv-x="266" 
d="M123 510q-48 0 -78.5 30.5t-30.5 79.5t31 80t78 31t78.5 -32t31.5 -79q0 -48 -31.5 -79t-78.5 -31zM123 537q22 0 36 22.5t14 59.5q0 83 -48 83q-24 0 -37.5 -22.5t-13.5 -60.5q0 -82 49 -82z" />
    <glyph glyph-name="guillemotright" unicode="&#xbb;" horiz-adv-x="682" 
d="M68 586q86 -40 191 -128t105 -121q0 -34 -87 -117.5t-205 -162.5q-31 11 -31 51q0 20 14 42.5t41 46.5t52 44t61 46.5t55 42.5q-215 173 -215 224q0 19 19 32zM326 586q86 -40 191 -128t105 -121q0 -34 -87 -117.5t-205 -162.5q-31 11 -31 51q0 20 14 42.5t41 46.5t52 44
t61 46.5t55 42.5q-215 173 -215 224q0 19 19 32z" />
    <glyph glyph-name="questiondown" unicode="&#xbf;" horiz-adv-x="469" 
d="M273 515q23 0 43.5 -24.5t20.5 -50.5q0 -23 -21.5 -38.5t-53.5 -15.5t-53 11.5t-21 28.5q0 32 27 60.5t58 28.5zM268 302q50 0 50 -64q0 -40 -17.5 -74.5t-42 -60t-49.5 -51t-42.5 -60.5t-17.5 -76q0 -37 22 -62t55 -25q40 0 62.5 26.5t23 60.5t-7.5 67q27 21 54 21
q24 0 38.5 -15t14.5 -40q-2 -73 -51 -116.5t-127 -43.5q-72 0 -125.5 44.5t-53.5 105.5q0 42 18.5 77.5t42.5 57t53 52.5t44 59q24 47 15 104q23 13 41 13z" />
    <glyph glyph-name="Agrave" unicode="&#xc0;" horiz-adv-x="899" 
d="M749 843q-48 0 -108.5 72.5t-60.5 115.5q0 6 15 11.5t36 5.5q32 0 57 -14q0 -1 3.5 -12t5 -16t6.5 -18t9 -21.5t11.5 -23t15.5 -27t19 -28t24 -31.5q-20 -14 -33 -14zM774 186q0 -152 72 -249q-34 -37 -80 -37q-55 0 -85 52t-30 146q0 25 4 97q-137 -39 -359 -1
q-74 -176 -102 -346q-6 -39 3 -119q-78 7 -109 28t-31 77q0 108 124 387q-38 13 -62 24q-42 19 -50.5 46t-1.5 85q72 -45 153 -78q27 46 64 101t87.5 117t101.5 113.5t107 89t102 45.5q56 -10 76.5 -71.5t20.5 -168.5q0 -40 -2.5 -153t-2.5 -185zM327 263q164 -42 333 -11
q3 31 10.5 117t11.5 141t4 96q0 25 -2.5 43.5t-9.5 32t-18 12.5q-62 -26 -156.5 -146.5t-172.5 -284.5z" />
    <glyph glyph-name="Aacute" unicode="&#xc1;" horiz-adv-x="899" 
d="M823 1031q0 -43 -60.5 -115.5t-108.5 -72.5q-13 0 -33 14q13 16 24 31.5t19 28t15.5 27t11.5 23t9 21.5t6.5 18t5 16t3.5 12q25 14 57 14q21 0 36 -5.5t15 -11.5zM774 186q0 -152 72 -249q-34 -37 -80 -37q-55 0 -85 52t-30 146q0 25 4 97q-137 -39 -359 -1
q-74 -176 -102 -346q-6 -39 3 -119q-78 7 -109 28t-31 77q0 108 124 387q-38 13 -62 24q-42 19 -50.5 46t-1.5 85q72 -45 153 -78q27 46 64 101t87.5 117t101.5 113.5t107 89t102 45.5q56 -10 76.5 -71.5t20.5 -168.5q0 -40 -2.5 -153t-2.5 -185zM327 263q164 -42 333 -11
q3 31 10.5 117t11.5 141t4 96q0 25 -2.5 43.5t-9.5 32t-18 12.5q-62 -26 -156.5 -146.5t-172.5 -284.5z" />
    <glyph glyph-name="Acircumflex" unicode="&#xc2;" horiz-adv-x="899" 
d="M689 1043q24 0 64 -36t124 -134q-18 -31 -39 -31q-26 0 -69 40t-80 100q-35 -60 -78 -100t-71 -40q-21 0 -39 31q85 98 124.5 134t63.5 36zM779 524q0 -40 -2.5 -153t-2.5 -185q0 -152 72 -249q-34 -37 -80 -37q-55 0 -85 52t-30 146q0 25 4 97q-137 -39 -359 -1
q-74 -176 -102 -346q-6 -39 3 -119q-78 7 -109 28t-31 77q0 108 124 387q-38 13 -62 24q-42 19 -50.5 46t-1.5 85q72 -45 153 -78q27 46 64 101t87.5 117t101.5 113.5t107 89t102 45.5q56 -10 76.5 -71.5t20.5 -168.5zM327 263q164 -42 333 -11q3 31 10.5 117t11.5 141t4 96
q0 25 -2.5 43.5t-9.5 32t-18 12.5q-62 -26 -156.5 -146.5t-172.5 -284.5z" />
    <glyph glyph-name="Atilde" unicode="&#xc3;" horiz-adv-x="899" 
d="M550 869q-43 3 -43 32q0 30 32.5 57t69.5 27q35 0 87 -29t68 -29q30 0 62 52q45 -2 45 -26q0 -31 -33 -60.5t-69 -29.5q-33 0 -86 29t-70 29t-34.5 -14.5t-28.5 -37.5zM779 524q0 -40 -2.5 -153t-2.5 -185q0 -152 72 -249q-34 -37 -80 -37q-55 0 -85 52t-30 146
q0 25 4 97q-137 -39 -359 -1q-74 -176 -102 -346q-6 -39 3 -119q-78 7 -109 28t-31 77q0 108 124 387q-38 13 -62 24q-42 19 -50.5 46t-1.5 85q72 -45 153 -78q27 46 64 101t87.5 117t101.5 113.5t107 89t102 45.5q56 -10 76.5 -71.5t20.5 -168.5zM327 263q164 -42 333 -11
q3 31 10.5 117t11.5 141t4 96q0 25 -2.5 43.5t-9.5 32t-18 12.5q-62 -26 -156.5 -146.5t-172.5 -284.5z" />
    <glyph glyph-name="Adieresis" unicode="&#xc4;" horiz-adv-x="899" 
d="M584 863q-27 0 -42.5 14.5t-15.5 40.5q0 28 18.5 45t48.5 17q28 0 45 -15.5t17 -40.5q0 -27 -20 -44t-51 -17zM780 863q-27 0 -42.5 14.5t-15.5 40.5q0 28 18.5 45t48.5 17q28 0 45 -15.5t17 -40.5q0 -27 -20 -44t-51 -17zM779 524q0 -40 -2.5 -153t-2.5 -185
q0 -152 72 -249q-34 -37 -80 -37q-55 0 -85 52t-30 146q0 25 4 97q-137 -39 -359 -1q-74 -176 -102 -346q-6 -39 3 -119q-78 7 -109 28t-31 77q0 108 124 387q-38 13 -62 24q-42 19 -50.5 46t-1.5 85q72 -45 153 -78q27 46 64 101t87.5 117t101.5 113.5t107 89t102 45.5
q56 -10 76.5 -71.5t20.5 -168.5zM327 263q164 -42 333 -11q3 31 10.5 117t11.5 141t4 96q0 25 -2.5 43.5t-9.5 32t-18 12.5q-62 -26 -156.5 -146.5t-172.5 -284.5z" />
    <glyph glyph-name="Aring" unicode="&#xc5;" horiz-adv-x="899" 
d="M686 853q-44 0 -71 25.5t-27 65.5t27.5 65.5t71.5 25.5t71 -25.5t27 -65.5t-27.5 -65.5t-71.5 -25.5zM687 1006q-20 0 -31.5 -16t-11.5 -45q0 -63 41 -63q20 0 31.5 17t11.5 46q0 61 -41 61zM774 186q0 -152 72 -249q-34 -37 -80 -37q-55 0 -85 52t-30 146q0 25 4 97
q-137 -39 -359 -1q-74 -176 -102 -346q-6 -39 3 -119q-78 7 -109 28t-31 77q0 108 124 387q-38 13 -62 24q-42 19 -50.5 46t-1.5 85q72 -45 153 -78q27 46 64 101t87.5 117t101.5 113.5t107 89t102 45.5q56 -10 76.5 -71.5t20.5 -168.5q0 -40 -2.5 -153t-2.5 -185zM327 263
q164 -42 333 -11q3 31 10.5 117t11.5 141t4 96q0 25 -2.5 43.5t-9.5 32t-18 12.5q-62 -26 -156.5 -146.5t-172.5 -284.5z" />
    <glyph glyph-name="AE" unicode="&#xc6;" horiz-adv-x="1396" 
d="M1254 -22q28 0 44 -15.5t16 -43.5q0 -50 -37 -95q-58 9 -117 -3t-128 -29.5t-136 -17.5q-138 0 -192 52t-54 186q0 65 17 189q-153 -44 -358 -15q-84 -190 -98 -338q-5 -55 4 -119q-82 8 -120 29t-38 76q0 108 120 378q-95 27 -105 55q-4 13 -5 32t0 37t0 40
q82 -40 159 -68q37 62 87.5 131.5t113.5 141.5t131.5 123t124.5 60q35 0 53 -18.5t45 -72.5q18 9 37.5 16t42.5 13t39.5 9.5t45 8t41.5 6.5t45.5 6t42.5 5q33 5 65 20t50 34q67 -24 67 -79q0 -15 -9 -26.5t-29.5 -18t-38.5 -10.5t-52 -5.5t-52 -2t-55 -0.5h-18
q-96 0 -147.5 -43.5t-69.5 -138.5q-10 -59 -12 -187q345 57 400 115q24 -13 39 -30.5t15 -31.5q0 -26 -29.5 -45t-82.5 -30t-108 -18.5t-124 -16.5t-112 -19q-7 -101 -7.5 -181t30 -129.5t95.5 -49.5q44 0 99 21t97 46t89 46t79 21zM675 259q39 276 38 326q-2 111 -56 109
q-52 -17 -139.5 -137t-168.5 -285q63 -17 154.5 -20.5t171.5 7.5z" />
    <glyph glyph-name="Ccedilla" unicode="&#xc7;" horiz-adv-x="909" 
d="M822 92q18 0 27 -13t9 -30q0 -58 -110.5 -120.5t-225.5 -69.5l-25 -52q43 -4 67.5 -26t24.5 -56q0 -37 -33 -61.5t-83 -24.5q-31 0 -55 12.5t-24 30.5q0 16 18 21q22 -18 44 -18t36.5 15t14.5 38t-15.5 33t-50.5 17v14l27 55l17 1q-183 5 -304 117.5t-121 279.5
q0 90 35 177t99.5 157.5t165 113.5t221.5 43q125 0 208.5 -61t83.5 -151q0 -96 -60 -96q-30 0 -54 11t-24 23q0 3 18 41t18 67q0 52 -42.5 80.5t-117.5 28.5q-121 0 -216 -65.5t-142.5 -162.5t-47.5 -202q0 -147 86 -242t220 -95q53 0 101.5 14t81.5 33.5t61.5 45t42.5 43.5
t24 34z" />
    <glyph glyph-name="Egrave" unicode="&#xc8;" horiz-adv-x="760" 
d="M505 851q-48 0 -108.5 72.5t-60.5 115.5q0 6 15 11.5t36 5.5q32 0 57 -14q0 -1 3.5 -12t5 -16t6.5 -18t9 -21.5t11.5 -23t15.5 -27t19 -28t24 -31.5q-20 -14 -33 -14zM447 781q132 0 240 -48t109 -106q0 -23 -35 -36q-48 68 -120.5 99.5t-177.5 31.5q-134 0 -213 -58
t-77 -154q3 -112 149 -216q47 16 115 16q121 0 121 -50q0 -47 -86 -47q-101 0 -160 26q-68 -13 -108.5 -56t-39.5 -95q1 -69 69 -110.5t169 -41.5q158 0 288 117q10 0 17.5 -17t4.5 -28q-2 -8 -16 -23.5t-42.5 -36.5t-65.5 -40t-91.5 -32t-113.5 -13q-140 0 -232 58t-94 141
q-1 67 50 122.5t139 85.5q-95 38 -157.5 99t-63.5 141q-2 112 121.5 191.5t300.5 79.5z" />
    <glyph glyph-name="Eacute" unicode="&#xc9;" horiz-adv-x="760" 
d="M410 851q-13 0 -33 14q13 16 24 31.5t19 28t15.5 27t11.5 23t9 21.5t6.5 18t5 16t3.5 12q25 14 57 14q21 0 36 -5.5t15 -11.5q0 -43 -60.5 -115.5t-108.5 -72.5zM447 781q132 0 240 -48t109 -106q0 -23 -35 -36q-48 68 -120.5 99.5t-177.5 31.5q-134 0 -213 -58t-77 -154
q3 -112 149 -216q47 16 115 16q121 0 121 -50q0 -47 -86 -47q-101 0 -160 26q-68 -13 -108.5 -56t-39.5 -95q1 -69 69 -110.5t169 -41.5q158 0 288 117q10 0 17.5 -17t4.5 -28q-2 -8 -16 -23.5t-42.5 -36.5t-65.5 -40t-91.5 -32t-113.5 -13q-140 0 -232 58t-94 141
q-1 67 50 122.5t139 85.5q-95 38 -157.5 99t-63.5 141q-2 112 121.5 191.5t300.5 79.5z" />
    <glyph glyph-name="Ecircumflex" unicode="&#xca;" horiz-adv-x="760" 
d="M296 850q-21 0 -39 31q85 98 124.5 134t63.5 36t64 -36t124 -134q-18 -31 -39 -31q-26 0 -69 40t-80 100q-35 -60 -78 -100t-71 -40zM447 781q132 0 240 -48t109 -106q0 -23 -35 -36q-48 68 -120.5 99.5t-177.5 31.5q-134 0 -213 -58t-77 -154q3 -112 149 -216
q47 16 115 16q121 0 121 -50q0 -47 -86 -47q-101 0 -160 26q-68 -13 -108.5 -56t-39.5 -95q1 -69 69 -110.5t169 -41.5q158 0 288 117q10 0 17.5 -17t4.5 -28q-2 -8 -16 -23.5t-42.5 -36.5t-65.5 -40t-91.5 -32t-113.5 -13q-140 0 -232 58t-94 141q-1 67 50 122.5t139 85.5
q-95 38 -157.5 99t-63.5 141q-2 112 121.5 191.5t300.5 79.5z" />
    <glyph glyph-name="Edieresis" unicode="&#xcb;" horiz-adv-x="760" 
d="M340 871q-27 0 -42.5 14.5t-15.5 40.5q0 28 18.5 45t48.5 17q28 0 45 -15.5t17 -40.5q0 -27 -20 -44t-51 -17zM536 871q-27 0 -42.5 14.5t-15.5 40.5q0 28 18.5 45t48.5 17q28 0 45 -15.5t17 -40.5q0 -27 -20 -44t-51 -17zM447 781q132 0 240 -48t109 -106q0 -23 -35 -36
q-48 68 -120.5 99.5t-177.5 31.5q-134 0 -213 -58t-77 -154q3 -112 149 -216q47 16 115 16q121 0 121 -50q0 -47 -86 -47q-101 0 -160 26q-68 -13 -108.5 -56t-39.5 -95q1 -69 69 -110.5t169 -41.5q158 0 288 117q10 0 17.5 -17t4.5 -28q-2 -8 -16 -23.5t-42.5 -36.5
t-65.5 -40t-91.5 -32t-113.5 -13q-140 0 -232 58t-94 141q-1 67 50 122.5t139 85.5q-95 38 -157.5 99t-63.5 141q-2 112 121.5 191.5t300.5 79.5z" />
    <glyph glyph-name="Igrave" unicode="&#xcc;" horiz-adv-x="678" 
d="M447 843q-48 0 -108.5 72.5t-60.5 115.5q0 6 15 11.5t36 5.5q32 0 57 -14q0 -1 3.5 -12t5 -16t6.5 -18t9 -21.5t11.5 -23t15.5 -27t19 -28t24 -31.5q-20 -14 -33 -14zM736 786q3 -23 -8 -52q-11 -26 -40.5 -41.5t-70.5 -15.5q-54 0 -125.5 4.5t-98.5 5.5q1 -18 -3 -58
q-30 -242 -32 -342q-6 -229 25 -350q42 -3 91 -1q109 5 136 27q13 -8 22 -20.5t9 -27t-8 -27t-31.5 -22t-59.5 -11.5q-47 -3 -155.5 2.5t-136.5 5.5q-110 0 -211 -24q-22 20 -27 45.5t14.5 45.5t61.5 21q85 1 185 -6q-8 19 -13 51q-9 45 -4.5 214.5t19.5 281.5
q16 127 18 193q-207 -9 -238 -84q-19 2 -31 19.5t-11 39.5q21 116 369 116q53 0 145 -2.5t99 -2.5q67 0 110 15z" />
    <glyph glyph-name="Iacute" unicode="&#xcd;" horiz-adv-x="678" 
d="M521 1031q0 -43 -60.5 -115.5t-108.5 -72.5q-13 0 -33 14q13 16 24 31.5t19 28t15.5 27t11.5 23t9 21.5t6.5 18t5 16t3.5 12q25 14 57 14q21 0 36 -5.5t15 -11.5zM736 786q3 -23 -8 -52q-11 -26 -40.5 -41.5t-70.5 -15.5q-54 0 -125.5 4.5t-98.5 5.5q1 -18 -3 -58
q-30 -242 -32 -342q-6 -229 25 -350q42 -3 91 -1q109 5 136 27q13 -8 22 -20.5t9 -27t-8 -27t-31.5 -22t-59.5 -11.5q-47 -3 -155.5 2.5t-136.5 5.5q-110 0 -211 -24q-22 20 -27 45.5t14.5 45.5t61.5 21q85 1 185 -6q-8 19 -13 51q-9 45 -4.5 214.5t19.5 281.5
q16 127 18 193q-207 -9 -238 -84q-19 2 -31 19.5t-11 39.5q21 116 369 116q53 0 145 -2.5t99 -2.5q67 0 110 15z" />
    <glyph glyph-name="Icircumflex" unicode="&#xce;" horiz-adv-x="678" 
d="M238 842q-21 0 -39 31q85 98 124.5 134t63.5 36t64 -36t124 -134q-18 -31 -39 -31q-26 0 -69 40t-80 100q-35 -60 -78 -100t-71 -40zM736 786q3 -23 -8 -52q-11 -26 -40.5 -41.5t-70.5 -15.5q-54 0 -125.5 4.5t-98.5 5.5q1 -18 -3 -58q-30 -242 -32 -342q-6 -229 25 -350
q42 -3 91 -1q109 5 136 27q13 -8 22 -20.5t9 -27t-8 -27t-31.5 -22t-59.5 -11.5q-47 -3 -155.5 2.5t-136.5 5.5q-110 0 -211 -24q-22 20 -27 45.5t14.5 45.5t61.5 21q85 1 185 -6q-8 19 -13 51q-9 45 -4.5 214.5t19.5 281.5q16 127 18 193q-207 -9 -238 -84q-19 2 -31 19.5
t-11 39.5q21 116 369 116q53 0 145 -2.5t99 -2.5q67 0 110 15z" />
    <glyph glyph-name="Idieresis" unicode="&#xcf;" horiz-adv-x="678" 
d="M282 863q-27 0 -42.5 14.5t-15.5 40.5q0 28 18.5 45t48.5 17q28 0 45 -15.5t17 -40.5q0 -27 -20 -44t-51 -17zM478 863q-27 0 -42.5 14.5t-15.5 40.5q0 28 18.5 45t48.5 17q28 0 45 -15.5t17 -40.5q0 -27 -20 -44t-51 -17zM736 786q3 -23 -8 -52q-11 -26 -40.5 -41.5
t-70.5 -15.5q-54 0 -125.5 4.5t-98.5 5.5q1 -18 -3 -58q-30 -242 -32 -342q-6 -229 25 -350q42 -3 91 -1q109 5 136 27q13 -8 22 -20.5t9 -27t-8 -27t-31.5 -22t-59.5 -11.5q-47 -3 -155.5 2.5t-136.5 5.5q-110 0 -211 -24q-22 20 -27 45.5t14.5 45.5t61.5 21q85 1 185 -6
q-8 19 -13 51q-9 45 -4.5 214.5t19.5 281.5q16 127 18 193q-207 -9 -238 -84q-19 2 -31 19.5t-11 39.5q21 116 369 116q53 0 145 -2.5t99 -2.5q67 0 110 15z" />
    <glyph glyph-name="Eth" unicode="&#xd0;" horiz-adv-x="837" 
d="M303 730q220 -23 350.5 -122.5t130.5 -251.5q0 -85 -41 -164t-106 -136t-143.5 -100.5t-155 -65t-139.5 -21.5q-97 0 -120 57q153 3 285 62.5t209 159t77 213.5q0 137 -101.5 224.5t-265.5 96.5q-54 -139 -80 -302q129 1 162 -8t33 -32q0 -21 -16 -42q-60 9 -188 9
q-11 -94 -11 -189q0 -56 5 -129q-57 -5 -85.5 32.5t-28.5 129.5q0 73 14 157q-96 1 -126.5 11t-30.5 36q0 9 8 27q75 -3 162 -2q31 147 91 299q-34 -4 -77 -18t-64 -14q-36 0 -47.5 16.5t-9.5 46.5q109 26 185 26q25 0 37 -1q15 31 24 45q22 -5 31.5 -8t20.5 -14t11 -28z
" />
    <glyph glyph-name="Ntilde" unicode="&#xd1;" horiz-adv-x="832" 
d="M544 825q-33 0 -86 29t-70 29t-34.5 -14.5t-28.5 -37.5q-43 3 -43 32q0 30 32.5 57t69.5 27q34 0 86 -29t69 -29q30 0 62 52q45 -2 45 -26q0 -31 -33 -60.5t-69 -29.5zM123 -122q-33 5 -48 46t-15 134q0 97 22.5 274.5t22.5 266.5q0 58 -10 125q94 25 132 -10
q27 -27 41 -100q13 -65 79.5 -234.5t116.5 -250.5q86 -140 127 -140q29 0 43 73t16 229q1 66 2 110t5 97.5t10 88t17 70.5t26.5 56t37.5 32.5t51 12.5q30 0 50 -25.5t22 -66.5q-6 -4 -24.5 -12.5t-27 -16.5t-21.5 -28.5t-21.5 -59t-14.5 -96.5q-5 -47 -6.5 -119t-1.5 -126
t-6.5 -115.5t-20 -102.5t-43 -71t-74.5 -36q-57 -8 -119 54.5t-111 156.5t-92 202t-67.5 187.5t-31.5 115.5v-486q0 -134 25 -225q-40 -18 -91 -10z" />
    <glyph glyph-name="Ograve" unicode="&#xd2;" horiz-adv-x="888" 
d="M484 843q-48 0 -108.5 72.5t-60.5 115.5q0 6 15 11.5t36 5.5q32 0 57 -14q0 -1 3.5 -12t5 -16t6.5 -18t9 -21.5t11.5 -23t15.5 -27t19 -28t24 -31.5q-20 -14 -33 -14zM416 -138q-174 0 -275.5 120t-101.5 328q0 56 10 118t28.5 119.5t50.5 95t71 37.5q30 0 47 -22
q-44 -50 -68.5 -136t-24.5 -186q0 -190 69 -300.5t185 -110.5q128 0 207.5 116t79.5 309q0 164 -53 258.5t-143 94.5q-67 0 -111 -50.5t-44 -130.5q0 -71 36 -118.5t96 -55.5q-8 -39 -31 -61.5t-55 -22.5q-59 0 -95 52.5t-36 138.5q0 75 26 143t84 116t138 48
q70 0 125.5 -28.5t88.5 -71.5t55 -100t30 -108.5t8 -101.5q0 -120 -33 -216t-89 -154.5t-126 -89t-149 -30.5z" />
    <glyph glyph-name="Oacute" unicode="&#xd3;" horiz-adv-x="888" 
d="M389 843q-13 0 -33 14q13 16 24 31.5t19 28t15.5 27t11.5 23t9 21.5t6.5 18t5 16t3.5 12q25 14 57 14q21 0 36 -5.5t15 -11.5q0 -43 -60.5 -115.5t-108.5 -72.5zM416 -138q-174 0 -275.5 120t-101.5 328q0 56 10 118t28.5 119.5t50.5 95t71 37.5q30 0 47 -22
q-44 -50 -68.5 -136t-24.5 -186q0 -190 69 -300.5t185 -110.5q128 0 207.5 116t79.5 309q0 164 -53 258.5t-143 94.5q-67 0 -111 -50.5t-44 -130.5q0 -71 36 -118.5t96 -55.5q-8 -39 -31 -61.5t-55 -22.5q-59 0 -95 52.5t-36 138.5q0 75 26 143t84 116t138 48
q70 0 125.5 -28.5t88.5 -71.5t55 -100t30 -108.5t8 -101.5q0 -120 -33 -216t-89 -154.5t-126 -89t-149 -30.5z" />
    <glyph glyph-name="Ocircumflex" unicode="&#xd4;" horiz-adv-x="888" 
d="M275 842q-21 0 -39 31q85 98 124.5 134t63.5 36t64 -36t124 -134q-18 -31 -39 -31q-26 0 -69 40t-80 100q-35 -60 -78 -100t-71 -40zM416 -138q-174 0 -275.5 120t-101.5 328q0 56 10 118t28.5 119.5t50.5 95t71 37.5q30 0 47 -22q-44 -50 -68.5 -136t-24.5 -186
q0 -190 69 -300.5t185 -110.5q128 0 207.5 116t79.5 309q0 164 -53 258.5t-143 94.5q-67 0 -111 -50.5t-44 -130.5q0 -71 36 -118.5t96 -55.5q-8 -39 -31 -61.5t-55 -22.5q-59 0 -95 52.5t-36 138.5q0 75 26 143t84 116t138 48q70 0 125.5 -28.5t88.5 -71.5t55 -100
t30 -108.5t8 -101.5q0 -120 -33 -216t-89 -154.5t-126 -89t-149 -30.5z" />
    <glyph glyph-name="Otilde" unicode="&#xd5;" horiz-adv-x="888" 
d="M504 863q-33 0 -86 29t-70 29t-34.5 -14.5t-28.5 -37.5q-43 3 -43 32q0 30 32.5 57t69.5 27q34 0 86 -29t69 -29q30 0 62 52q45 -2 45 -26q0 -31 -33 -60.5t-69 -29.5zM416 -138q-174 0 -275.5 120t-101.5 328q0 56 10 118t28.5 119.5t50.5 95t71 37.5q30 0 47 -22
q-44 -50 -68.5 -136t-24.5 -186q0 -190 69 -300.5t185 -110.5q128 0 207.5 116t79.5 309q0 164 -53 258.5t-143 94.5q-67 0 -111 -50.5t-44 -130.5q0 -71 36 -118.5t96 -55.5q-8 -39 -31 -61.5t-55 -22.5q-59 0 -95 52.5t-36 138.5q0 75 26 143t84 116t138 48
q70 0 125.5 -28.5t88.5 -71.5t55 -100t30 -108.5t8 -101.5q0 -120 -33 -216t-89 -154.5t-126 -89t-149 -30.5z" />
    <glyph glyph-name="Odieresis" unicode="&#xd6;" horiz-adv-x="888" 
d="M319 863q-27 0 -42.5 14.5t-15.5 40.5q0 28 18.5 45t48.5 17q28 0 45 -15.5t17 -40.5q0 -27 -20 -44t-51 -17zM515 863q-27 0 -42.5 14.5t-15.5 40.5q0 28 18.5 45t48.5 17q28 0 45 -15.5t17 -40.5q0 -27 -20 -44t-51 -17zM416 -138q-174 0 -275.5 120t-101.5 328
q0 56 10 118t28.5 119.5t50.5 95t71 37.5q30 0 47 -22q-44 -50 -68.5 -136t-24.5 -186q0 -190 69 -300.5t185 -110.5q128 0 207.5 116t79.5 309q0 164 -53 258.5t-143 94.5q-67 0 -111 -50.5t-44 -130.5q0 -71 36 -118.5t96 -55.5q-8 -39 -31 -61.5t-55 -22.5
q-59 0 -95 52.5t-36 138.5q0 75 26 143t84 116t138 48q70 0 125.5 -28.5t88.5 -71.5t55 -100t30 -108.5t8 -101.5q0 -120 -33 -216t-89 -154.5t-126 -89t-149 -30.5z" />
    <glyph glyph-name="multiply" unicode="&#xd7;" horiz-adv-x="463" 
d="M420 116q4 -19 -3 -31t-21 -12q-12 0 -30 10.5t-43.5 34.5t-41.5 40t-47 49q-102 -102 -129 -121q-39 -24 -65 2q-5 6 -13 18q17 21 34.5 38.5l51 51l66.5 66.5l-46.5 46.5t-36.5 36t-26 26.5t-27 31q8 12 13 18q14 14 27.5 16t36 -13.5t45 -36.5t68.5 -68q38 38 58 57.5
t47 39.5t42 20q14 0 21 -12t3 -31q-31 -43 -115 -130q86 -86 131 -146z" />
    <glyph glyph-name="Oslash" unicode="&#xd8;" horiz-adv-x="888" 
d="M731 647q82 -116 82 -295q0 -120 -33 -216t-89 -154.5t-126 -89t-149 -30.5q-112 0 -198 52q-32 -44 -53 -75q-61 34 -61 66q0 5 46 67q-111 120 -111 338q0 56 10 118t28.5 119.5t50.5 95t71 37.5q30 0 47 -22q-44 -50 -68.5 -136t-24.5 -186q0 -172 58 -282
q64 85 156 212q-50 10 -79.5 60.5t-29.5 128.5q0 75 26 143t84 116t138 48q97 0 165 -52q21 31 39 63q27 -6 45 -21.5t21 -34.5q0 -3 -45 -70zM498 703q-67 0 -111 -50.5t-44 -130.5q0 -57 24.5 -100t66.5 -62q95 134 189 276q-49 67 -125 67zM407 -75q128 0 207.5 116
t79.5 309q0 115 -28 201q-162 -241 -220 -324q-102 -143 -179 -247q60 -55 140 -55z" />
    <glyph glyph-name="Ugrave" unicode="&#xd9;" horiz-adv-x="871" 
d="M532 805q-48 0 -108.5 72.5t-60.5 115.5q0 6 15 11.5t36 5.5q32 0 57 -14q0 -1 3.5 -12t5 -16t6.5 -18t9 -21.5t11.5 -23t15.5 -27t19 -28t24 -31.5q-20 -14 -33 -14zM741 363q-4 -118 15 -242.5t65 -186.5q-38 -30 -89 -30q-50 0 -73 51q-26 64 -29 218
q-62 -144 -154 -245t-183 -101q-105 0 -162 102t-50 280q3 76 16.5 214.5t15.5 194.5q1 58 -19 107q28 34 89 34q32 0 50 -22.5t18 -65.5q0 -46 -26.5 -213t-29.5 -272q-9 -265 106 -265q66 0 139 81.5t125.5 199.5t72.5 233q15 167 36 244q15 56 73 56q28 0 62 -13
q-63 -179 -68 -359z" />
    <glyph glyph-name="Uacute" unicode="&#xda;" horiz-adv-x="871" 
d="M606 993q0 -43 -60.5 -115.5t-108.5 -72.5q-13 0 -33 14q13 16 24 31.5t19 28t15.5 27t11.5 23t9 21.5t6.5 18t5 16t3.5 12q25 14 57 14q21 0 36 -5.5t15 -11.5zM741 363q-4 -118 15 -242.5t65 -186.5q-38 -30 -89 -30q-50 0 -73 51q-26 64 -29 218q-62 -144 -154 -245
t-183 -101q-105 0 -162 102t-50 280q3 76 16.5 214.5t15.5 194.5q1 58 -19 107q28 34 89 34q32 0 50 -22.5t18 -65.5q0 -46 -26.5 -213t-29.5 -272q-9 -265 106 -265q66 0 139 81.5t125.5 199.5t72.5 233q15 167 36 244q15 56 73 56q28 0 62 -13q-63 -179 -68 -359z" />
    <glyph glyph-name="Ucircumflex" unicode="&#xdb;" horiz-adv-x="871" 
d="M323 804q-21 0 -39 31q85 98 124.5 134t63.5 36t64 -36t124 -134q-18 -31 -39 -31q-26 0 -69 40t-80 100q-35 -60 -78 -100t-71 -40zM741 363q-4 -118 15 -242.5t65 -186.5q-38 -30 -89 -30q-50 0 -73 51q-26 64 -29 218q-62 -144 -154 -245t-183 -101q-105 0 -162 102
t-50 280q3 76 16.5 214.5t15.5 194.5q1 58 -19 107q28 34 89 34q32 0 50 -22.5t18 -65.5q0 -46 -26.5 -213t-29.5 -272q-9 -265 106 -265q66 0 139 81.5t125.5 199.5t72.5 233q15 167 36 244q15 56 73 56q28 0 62 -13q-63 -179 -68 -359z" />
    <glyph glyph-name="Udieresis" unicode="&#xdc;" horiz-adv-x="871" 
d="M367 825q-27 0 -42.5 14.5t-15.5 40.5q0 28 18.5 45t48.5 17q28 0 45 -15.5t17 -40.5q0 -27 -20 -44t-51 -17zM563 825q-27 0 -42.5 14.5t-15.5 40.5q0 28 18.5 45t48.5 17q28 0 45 -15.5t17 -40.5q0 -27 -20 -44t-51 -17zM741 363q-4 -118 15 -242.5t65 -186.5
q-38 -30 -89 -30q-50 0 -73 51q-26 64 -29 218q-62 -144 -154 -245t-183 -101q-105 0 -162 102t-50 280q3 76 16.5 214.5t15.5 194.5q1 58 -19 107q28 34 89 34q32 0 50 -22.5t18 -65.5q0 -46 -26.5 -213t-29.5 -272q-9 -265 106 -265q66 0 139 81.5t125.5 199.5t72.5 233
q15 167 36 244q15 56 73 56q28 0 62 -13q-63 -179 -68 -359z" />
    <glyph glyph-name="Yacute" unicode="&#xdd;" horiz-adv-x="721" 
d="M535 993q0 -43 -60.5 -115.5t-108.5 -72.5q-13 0 -33 14q13 16 24 31.5t19 28t15.5 27t11.5 23t9 21.5t6.5 18t5 16t3.5 12q25 14 57 14q21 0 36 -5.5t15 -11.5zM544 577q-1 96 32 135.5t107 31.5q-16 -45 -19.5 -116.5t-3.5 -274.5q0 -229 -109 -369.5t-290 -140.5
q-58 0 -125 20t-68 59q-2 41 52 76q36 -48 82.5 -71.5t77.5 -23.5q68 0 118 27t78.5 69t45 106.5t21.5 126t4 140.5q-44 -112 -109.5 -169.5t-133.5 -57.5q-66 0 -114 31t-74 83t-38 110.5t-12 123.5q0 81 9.5 127t35.5 70q37 36 137 36q-26 -56 -43.5 -134t-17.5 -151
q0 -111 32 -170t93 -59q32 0 65.5 20t67.5 60t61 114t38 171z" />
    <glyph glyph-name="Thorn" unicode="&#xde;" horiz-adv-x="855" 
d="M408 560q169 0 281.5 -70.5t112.5 -176.5q0 -84 -61.5 -155t-169.5 -112t-237 -41h-37q3 -99 29 -166q-51 -12 -84 -8q-27 2 -44 18.5t-23.5 38.5t-6 58t4.5 64.5t11 69.5q0 4 1 6q1 8 3.5 21t3.5 19q35 231 43 314q4 35 5 55q-65 -21 -105 -57.5t-40 -79.5q0 -45 43 -72
q-21 -26 -66 -26q-35 0 -59 23t-24 57q0 56 66.5 115.5t185.5 86.5v15q-3 70 -32 111q27 23 60 27t48 -15q25 -25 25 -84q0 -26 -1 -39q33 3 67 3zM674 305v3q0 93 -83 149.5t-220 56.5q-21 0 -31 -1q-4 -58 -23.5 -209t-20.5 -259q22 -2 34 -2q145 0 243.5 74.5
t100.5 187.5z" />
    <glyph glyph-name="germandbls" unicode="&#xdf;" horiz-adv-x="592" 
d="M366 2q-52 0 -82 12.5t-30 32.5q0 29 25 47q42 -35 85 -35q37 0 66 29.5t29 66.5q0 31 -20.5 59.5t-49.5 51t-58.5 45t-50 49.5t-20.5 55q0 29 38.5 83.5t38.5 100.5q0 41 -18 67.5t-47 26.5q-113 0 -113 -399q0 -16 1.5 -65t1 -79.5t-3.5 -67.5t-14.5 -56t-29.5 -19
t-64 33q15 50 15 195q0 70 2.5 123.5t9.5 114.5t21.5 104t37 80t57 55.5t79.5 18.5q62 0 104 -42t42 -104q0 -30 -13.5 -56t-30 -40.5t-30 -30.5t-13.5 -30q0 -19 18.5 -37t66.5 -48q61 -39 93.5 -79.5t32.5 -103.5q0 -67 -51 -112.5t-125 -45.5z" />
    <glyph glyph-name="agrave" unicode="&#xe0;" horiz-adv-x="513" 
d="M241 500q-48 0 -108.5 72.5t-60.5 115.5q0 6 15 11.5t36 5.5q32 0 57 -14q0 -1 3.5 -12t5 -16t6.5 -18t9 -21.5t11.5 -23t15.5 -27t19 -28t24 -31.5q-20 -14 -33 -14zM555 321q7 9 19 7q7 -1 5 -8q-6 -21 -40 -70.5t-89.5 -99t-102.5 -49.5q-62 0 -70 79q-23 -53 -74 -93
t-98 -40q-51 0 -84.5 36.5t-33.5 92.5q0 104 70 181.5t164 77.5q43 0 84 -27t52 -62q-16 -70 -16 -118q0 -75 43 -75q29 0 78 50.5t93 117.5zM127 124q43 0 88.5 87.5t54.5 148.5q-7 38 -45 38q-40 0 -85 -76t-45 -141q0 -24 9 -40.5t23 -16.5z" />
    <glyph glyph-name="aacute" unicode="&#xe1;" horiz-adv-x="513" 
d="M355 688q0 -43 -60.5 -115.5t-108.5 -72.5q-13 0 -33 14q13 16 24 31.5t19 28t15.5 27t11.5 23t9 21.5t6.5 18t5 16t3.5 12q25 14 57 14q21 0 36 -5.5t15 -11.5zM555 321q7 9 19 7q7 -1 5 -8q-6 -21 -40 -70.5t-89.5 -99t-102.5 -49.5q-62 0 -70 79q-23 -53 -74 -93
t-98 -40q-51 0 -84.5 36.5t-33.5 92.5q0 104 70 181.5t164 77.5q43 0 84 -27t52 -62q-16 -70 -16 -118q0 -75 43 -75q29 0 78 50.5t93 117.5zM127 124q43 0 88.5 87.5t54.5 148.5q-7 38 -45 38q-40 0 -85 -76t-45 -141q0 -24 9 -40.5t23 -16.5z" />
    <glyph glyph-name="acircumflex" unicode="&#xe2;" horiz-adv-x="513" 
d="M81 504q-19 0 -35 31q76 97 112.5 133.5t57.5 36.5q22 0 58 -36.5t112 -133.5q-16 -31 -35 -31q-28 0 -67.5 46.5t-67.5 95.5q-25 -49 -65 -95.5t-70 -46.5zM555 321q7 9 19 7q7 -1 5 -8q-6 -21 -40 -70.5t-89.5 -99t-102.5 -49.5q-62 0 -70 79q-23 -53 -74 -93t-98 -40
q-51 0 -84.5 36.5t-33.5 92.5q0 104 70 181.5t164 77.5q43 0 84 -27t52 -62q-16 -70 -16 -118q0 -75 43 -75q29 0 78 50.5t93 117.5zM127 124q43 0 88.5 87.5t54.5 148.5q-7 38 -45 38q-40 0 -85 -76t-45 -141q0 -24 9 -40.5t23 -16.5z" />
    <glyph glyph-name="atilde" unicode="&#xe3;" horiz-adv-x="513" 
d="M79 531q-43 3 -43 32q0 30 32.5 57t69.5 27q34 0 86 -29t69 -29q30 0 62 52q45 -2 45 -26q0 -31 -33 -60.5t-69 -29.5q-33 0 -86 29t-70 29t-34.5 -14.5t-28.5 -37.5zM555 321q7 9 19 7q7 -1 5 -8q-6 -21 -40 -70.5t-89.5 -99t-102.5 -49.5q-62 0 -70 79q-23 -53 -74 -93
t-98 -40q-51 0 -84.5 36.5t-33.5 92.5q0 104 70 181.5t164 77.5q43 0 84 -27t52 -62q-16 -70 -16 -118q0 -75 43 -75q29 0 78 50.5t93 117.5zM127 124q43 0 88.5 87.5t54.5 148.5q-7 38 -45 38q-40 0 -85 -76t-45 -141q0 -24 9 -40.5t23 -16.5z" />
    <glyph glyph-name="adieresis" unicode="&#xe4;" horiz-adv-x="513" 
d="M114 521q-27 0 -42.5 14.5t-15.5 40.5q0 28 18.5 45t48.5 17q28 0 45 -15.5t17 -40.5q0 -27 -20 -44t-51 -17zM310 521q-27 0 -42.5 14.5t-15.5 40.5q0 28 18.5 45t48.5 17q28 0 45 -15.5t17 -40.5q0 -27 -20 -44t-51 -17zM555 321q7 9 19 7q7 -1 5 -8q-6 -21 -40 -70.5
t-89.5 -99t-102.5 -49.5q-62 0 -70 79q-23 -53 -74 -93t-98 -40q-51 0 -84.5 36.5t-33.5 92.5q0 104 70 181.5t164 77.5q43 0 84 -27t52 -62q-16 -70 -16 -118q0 -75 43 -75q29 0 78 50.5t93 117.5zM127 124q43 0 88.5 87.5t54.5 148.5q-7 38 -45 38q-40 0 -85 -76t-45 -141
q0 -24 9 -40.5t23 -16.5z" />
    <glyph glyph-name="aring" unicode="&#xe5;" horiz-adv-x="513" 
d="M217 510q-44 0 -71 25.5t-27 65.5t27.5 65.5t71.5 25.5t71 -25.5t27 -65.5t-27.5 -65.5t-71.5 -25.5zM218 660q-41 0 -41 -58q0 -60 39 -60q41 0 41 60q0 58 -39 58zM555 321q7 9 19 7q7 -1 5 -8q-6 -21 -40 -70.5t-89.5 -99t-102.5 -49.5q-62 0 -70 79q-23 -53 -74 -93
t-98 -40q-51 0 -84.5 36.5t-33.5 92.5q0 104 70 181.5t164 77.5q43 0 84 -27t52 -62q-16 -70 -16 -118q0 -75 43 -75q29 0 78 50.5t93 117.5zM127 124q43 0 88.5 87.5t54.5 148.5q-7 38 -45 38q-40 0 -85 -76t-45 -141q0 -24 9 -40.5t23 -16.5z" />
    <glyph glyph-name="ae" unicode="&#xe6;" horiz-adv-x="769" 
d="M802 330q29 8 29 -16q0 -18 -26 -63t-67 -95.5t-102 -88.5t-121 -38q-62 0 -114.5 27t-82.5 74q-25 -53 -66.5 -84.5t-94.5 -31.5q-56 0 -87 29t-31 72q0 74 69 119t164 47q-5 58 -35.5 90.5t-71.5 32.5q-39 0 -73 -31q-25 19 -25 40q0 29 30.5 44.5t72.5 15.5
q46 0 86 -24t64 -67q50 83 134 83q48 0 74.5 -29.5t26.5 -83.5q0 -105 -133 -190q35 -72 105 -72q73 0 150 75t125 165zM460 411q-26 0 -45 -35t-19 -84q0 -52 12 -94q91 79 91 158q0 24 -11 39.5t-28 15.5zM157 77q51 0 81.5 51t33.5 115q-64 -1 -112 -32q-51 -32 -51 -81
q0 -21 12 -37t36 -16z" />
    <glyph glyph-name="ccedilla" unicode="&#xe7;" horiz-adv-x="490" 
d="M548 311q0 -18 -31 -61t-77.5 -90.5t-111.5 -84.5t-123 -39l-17 -36q43 -4 67.5 -26t24.5 -56q0 -37 -33 -61.5t-83 -24.5q-31 0 -55 12.5t-24 30.5q0 16 18 21q22 -18 44 -18t36.5 15t14.5 38t-15.5 33t-50.5 17v14l22 45q-71 14 -109 67.5t-38 122.5q0 82 56.5 144
t150.5 62q47 0 86 -23.5t39 -50.5q0 -17 -46 -38q-38 61 -76 61q-45 0 -71 -44.5t-26 -105.5t26 -105t73 -44q70 0 167 82t146 163q16 -3 16 -20z" />
    <glyph glyph-name="egrave" unicode="&#xe8;" horiz-adv-x="498" 
d="M212 531q-48 0 -108.5 72.5t-60.5 115.5q0 6 15 11.5t36 5.5q32 0 57 -14q0 -1 3.5 -12t5 -16t6.5 -18t9 -21.5t11.5 -23t15.5 -27t19 -28t24 -31.5q-20 -14 -33 -14zM531 330q29 8 29 -16q0 -18 -26 -63t-67 -95.5t-102 -88.5t-121 -38q-98 0 -164.5 61.5t-66.5 155.5
q0 92 49.5 155.5t120.5 63.5q48 0 74.5 -29.5t26.5 -83.5q0 -106 -133 -190q34 -72 105 -72q73 0 150 75t125 165zM189 411q-26 0 -45 -35t-19 -84q0 -52 12 -94q91 81 91 158q0 24 -11 39.5t-28 15.5z" />
    <glyph glyph-name="eacute" unicode="&#xe9;" horiz-adv-x="498" 
d="M326 719q0 -43 -60.5 -115.5t-108.5 -72.5q-13 0 -33 14q13 16 24 31.5t19 28t15.5 27t11.5 23t9 21.5t6.5 18t5 16t3.5 12q25 14 57 14q21 0 36 -5.5t15 -11.5zM531 330q29 8 29 -16q0 -18 -26 -63t-67 -95.5t-102 -88.5t-121 -38q-98 0 -164.5 61.5t-66.5 155.5
q0 92 49.5 155.5t120.5 63.5q48 0 74.5 -29.5t26.5 -83.5q0 -106 -133 -190q34 -72 105 -72q73 0 150 75t125 165zM189 411q-26 0 -45 -35t-19 -84q0 -52 12 -94q91 81 91 158q0 24 -11 39.5t-28 15.5z" />
    <glyph glyph-name="ecircumflex" unicode="&#xea;" horiz-adv-x="498" 
d="M52 535q-19 0 -35 31q76 97 112.5 133.5t57.5 36.5q22 0 58 -36t112 -134q-16 -31 -35 -31q-28 0 -67.5 46.5t-67.5 95.5q-25 -49 -65 -95.5t-70 -46.5zM531 330q29 8 29 -16q0 -18 -26 -63t-67 -95.5t-102 -88.5t-121 -38q-98 0 -164.5 61.5t-66.5 155.5
q0 92 49.5 155.5t120.5 63.5q48 0 74.5 -29.5t26.5 -83.5q0 -106 -133 -190q34 -72 105 -72q73 0 150 75t125 165zM189 411q-26 0 -45 -35t-19 -84q0 -52 12 -94q91 81 91 158q0 24 -11 39.5t-28 15.5z" />
    <glyph glyph-name="edieresis" unicode="&#xeb;" horiz-adv-x="498" 
d="M85 552q-27 0 -42.5 14.5t-15.5 40.5q0 28 18.5 45t48.5 17q28 0 45 -15.5t17 -40.5q0 -27 -20 -44t-51 -17zM281 552q-27 0 -42.5 14.5t-15.5 40.5q0 28 18.5 45t48.5 17q28 0 45 -15.5t17 -40.5q0 -27 -20 -44t-51 -17zM531 330q29 8 29 -16q0 -18 -26 -63t-67 -95.5
t-102 -88.5t-121 -38q-98 0 -164.5 61.5t-66.5 155.5q0 92 49.5 155.5t120.5 63.5q48 0 74.5 -29.5t26.5 -83.5q0 -106 -133 -190q34 -72 105 -72q73 0 150 75t125 165zM189 411q-26 0 -45 -35t-19 -84q0 -52 12 -94q91 81 91 158q0 24 -11 39.5t-28 15.5z" />
    <glyph glyph-name="igrave" unicode="&#xec;" horiz-adv-x="196" 
d="M91 417q-48 0 -108.5 72.5t-60.5 115.5q0 6 15 11.5t36 5.5q32 0 57 -14q0 -1 3.5 -12t5 -16t6.5 -18t9 -21.5t11.5 -23t15.5 -27t19 -28t24 -31.5q-20 -14 -33 -14zM72 2q-32 0 -43 25t-11 98q0 22 2 83.5t2 101.5q0 31 -1 54q26 4 38 4q62 0 62 -63q0 -47 -3 -138.5
t-3 -150.5q-24 -14 -43 -14z" />
    <glyph glyph-name="iacute" unicode="&#xed;" horiz-adv-x="196" 
d="M36 417q-13 0 -33 14q13 16 24 31.5t19 28t15.5 27t11.5 23t9 21.5t6.5 18t5 16t3.5 12q25 14 57 14q21 0 36 -5.5t15 -11.5q0 -43 -60.5 -115.5t-108.5 -72.5zM72 2q-32 0 -43 25t-11 98q0 22 2 83.5t2 101.5q0 31 -1 54q26 4 38 4q62 0 62 -63q0 -47 -3 -138.5
t-3 -150.5q-24 -14 -43 -14z" />
    <glyph glyph-name="icircumflex" unicode="&#xee;" horiz-adv-x="196" 
d="M-69 421q-19 0 -35 31q76 97 112.5 133.5t57.5 36.5q22 0 58 -36.5t112 -133.5q-16 -31 -35 -31q-28 0 -67.5 46.5t-67.5 95.5q-25 -49 -65 -95.5t-70 -46.5zM72 2q-32 0 -43 25t-11 98q0 22 2 83.5t2 101.5q0 31 -1 54q26 4 38 4q62 0 62 -63q0 -47 -3 -138.5t-3 -150.5
q-24 -14 -43 -14z" />
    <glyph glyph-name="idieresis" unicode="&#xef;" horiz-adv-x="196" 
d="M-36 438q-27 0 -42.5 14.5t-15.5 40.5q0 28 18.5 45t48.5 17q28 0 45 -15.5t17 -40.5q0 -27 -20 -44t-51 -17zM160 438q-27 0 -42.5 14.5t-15.5 40.5q0 28 18.5 45t48.5 17q28 0 45 -15.5t17 -40.5q0 -27 -20 -44t-51 -17zM72 2q-32 0 -43 25t-11 98q0 22 2 83.5t2 101.5
q0 31 -1 54q26 4 38 4q62 0 62 -63q0 -47 -3 -138.5t-3 -150.5q-24 -14 -43 -14z" />
    <glyph glyph-name="eth" unicode="&#xf0;" horiz-adv-x="600" 
d="M352 588q95 -98 95 -266q0 -39 -4.5 -76t-19 -81t-38 -76.5t-66 -55t-97.5 -23.5q-75 -1 -126.5 51t-51.5 130q0 93 83.5 159t200.5 74q-15 70 -48 116q-80 -47 -103 -47q-24 2 -24 35q43 20 95 50q-45 40 -104 40q-29 0 -65 -11q-16 13 -16 28q0 20 25 32.5t64 12.5
q88 0 166 -61l85 49l6 -21q4 -13 -57 -59zM227 53q47 0 81.5 68.5t34.5 162.5q0 57 -7 100q-79 -3 -132.5 -58t-53.5 -135q0 -57 22.5 -97.5t54.5 -40.5z" />
    <glyph glyph-name="ntilde" unicode="&#xf1;" horiz-adv-x="676" 
d="M317 530q-33 0 -86 29t-70 29t-34.5 -14.5t-28.5 -37.5q-43 3 -43 32q0 30 32.5 57t69.5 27q35 0 87 -29t68 -29q30 0 62 52q45 -2 45 -26q0 -31 -33 -60.5t-69 -29.5zM396 10q-50 0 -72 37.5t-22 123.5q0 37 7.5 104.5t7.5 76.5q0 37 -15 37q-16 0 -51 -48t-71 -123.5
t-50 -139.5q-14 -6 -32 -6q-47 0 -61 29t-14 89q0 39 4 98t4 82q0 38 -8 75q30 24 64 24q50 0 50 -57q0 -1 -3.5 -78t-1.5 -114q113 210 204 210q50 0 67 -34.5t17 -101.5q0 -14 -2 -63.5t-2 -71.5q0 -84 39 -84q35 0 123.5 70t134.5 162q29 6 29 -9q0 -20 -32 -66.5
t-79.5 -96t-112.5 -87.5t-122 -38z" />
    <glyph glyph-name="ograve" unicode="&#xf2;" horiz-adv-x="548" 
d="M226 515q-48 0 -108.5 72.5t-60.5 115.5q0 6 15 11.5t36 5.5q32 0 57 -14q0 -1 3.5 -12t5 -16t6.5 -18t9 -21.5t11.5 -23t15.5 -27t19 -28t24 -31.5q-20 -14 -33 -14zM586 329q15 -3 15 -18q0 -40 -61.5 -92.5t-131.5 -52.5q-36 0 -66 19q-21 -59 -65.5 -97t-107.5 -39
q-74 -1 -122 48.5t-48 127.5q0 53 23 87t61 37q4 51 42 80t90 29q69 0 106.5 -51.5t37.5 -125.5q0 -26 -4 -47q29 -25 67 -25q97 0 164 120zM169 79q40 0 64 56t24 128q0 61 -19 103.5t-56 42.5q-42 0 -74 -62q40 -10 40 -64q0 -12 -3 -30q-41 -21 -41 -84q0 -36 17 -63
t48 -27z" />
    <glyph glyph-name="oacute" unicode="&#xf3;" horiz-adv-x="548" 
d="M340 703q0 -43 -60.5 -115.5t-108.5 -72.5q-13 0 -33 14q13 16 24 31.5t19 28t15.5 27t11.5 23t9 21.5t6.5 18t5 16t3.5 12q25 14 57 14q21 0 36 -5.5t15 -11.5zM586 329q15 -3 15 -18q0 -40 -61.5 -92.5t-131.5 -52.5q-36 0 -66 19q-21 -59 -65.5 -97t-107.5 -39
q-74 -1 -122 48.5t-48 127.5q0 53 23 87t61 37q4 51 42 80t90 29q69 0 106.5 -51.5t37.5 -125.5q0 -26 -4 -47q29 -25 67 -25q97 0 164 120zM169 79q40 0 64 56t24 128q0 61 -19 103.5t-56 42.5q-42 0 -74 -62q40 -10 40 -64q0 -12 -3 -30q-41 -21 -41 -84q0 -36 17 -63
t48 -27z" />
    <glyph glyph-name="ocircumflex" unicode="&#xf4;" horiz-adv-x="548" 
d="M66 519q-19 0 -35 31q76 97 112.5 133.5t57.5 36.5q22 0 58 -36.5t112 -133.5q-16 -31 -35 -31q-28 0 -67.5 46.5t-67.5 95.5q-25 -49 -65 -95.5t-70 -46.5zM586 329q15 -3 15 -18q0 -40 -61.5 -92.5t-131.5 -52.5q-36 0 -66 19q-21 -59 -65.5 -97t-107.5 -39
q-74 -1 -122 48.5t-48 127.5q0 53 23 87t61 37q4 51 42 80t90 29q69 0 106.5 -51.5t37.5 -125.5q0 -26 -4 -47q29 -25 67 -25q97 0 164 120zM169 79q40 0 64 56t24 128q0 61 -19 103.5t-56 42.5q-42 0 -74 -62q40 -10 40 -64q0 -12 -3 -30q-41 -21 -41 -84q0 -36 17 -63
t48 -27z" />
    <glyph glyph-name="otilde" unicode="&#xf5;" horiz-adv-x="548" 
d="M64 546q-43 3 -43 32q0 30 32.5 57t69.5 27q35 0 87 -29t68 -29q30 0 62 52q45 -2 45 -26q0 -31 -33 -60.5t-69 -29.5q-33 0 -86 29t-70 29t-34.5 -14.5t-28.5 -37.5zM586 329q15 -3 15 -18q0 -40 -61.5 -92.5t-131.5 -52.5q-36 0 -66 19q-21 -59 -65.5 -97t-107.5 -39
q-74 -1 -122 48.5t-48 127.5q0 53 23 87t61 37q4 51 42 80t90 29q69 0 106.5 -51.5t37.5 -125.5q0 -26 -4 -47q29 -25 67 -25q97 0 164 120zM169 79q40 0 64 56t24 128q0 61 -19 103.5t-56 42.5q-42 0 -74 -62q40 -10 40 -64q0 -12 -3 -30q-41 -21 -41 -84q0 -36 17 -63
t48 -27z" />
    <glyph glyph-name="odieresis" unicode="&#xf6;" horiz-adv-x="548" 
d="M99 536q-27 0 -42.5 14.5t-15.5 40.5q0 28 18.5 45t48.5 17q28 0 45 -15.5t17 -40.5q0 -27 -20 -44t-51 -17zM295 536q-27 0 -42.5 14.5t-15.5 40.5q0 28 18.5 45t48.5 17q28 0 45 -15.5t17 -40.5q0 -27 -20 -44t-51 -17zM586 329q15 -3 15 -18q0 -40 -61.5 -92.5
t-131.5 -52.5q-36 0 -66 19q-21 -59 -65.5 -97t-107.5 -39q-74 -1 -122 48.5t-48 127.5q0 53 23 87t61 37q4 51 42 80t90 29q69 0 106.5 -51.5t37.5 -125.5q0 -26 -4 -47q29 -25 67 -25q97 0 164 120zM169 79q40 0 64 56t24 128q0 61 -19 103.5t-56 42.5q-42 0 -74 -62
q40 -10 40 -64q0 -12 -3 -30q-41 -21 -41 -84q0 -36 17 -63t48 -27z" />
    <glyph glyph-name="divide" unicode="&#xf7;" horiz-adv-x="575" 
d="M276 344q-21 0 -39.5 22t-18.5 46q0 21 19.5 35t48.5 14q28 0 47.5 -11t19.5 -25q0 -29 -24.5 -55t-52.5 -26zM297 210q-83 0 -129 1.5t-74 7.5t-36 14.5t-8 24.5q0 10 4 17q83 7 245 8h35.5t36 0.5t33 0t31.5 -1.5t26.5 -2.5t23.5 -4.5t17 -7.5t11.5 -10.5t3.5 -14
q0 -12 -14 -26q-73 -7 -206 -7zM295 139q21 0 39.5 -22t18.5 -46q0 -21 -19.5 -35t-48.5 -14q-28 0 -47.5 11t-19.5 25q0 29 24.5 55t52.5 26z" />
    <glyph glyph-name="oslash" unicode="&#xf8;" horiz-adv-x="548" 
d="M586 329q15 -3 15 -18q0 -40 -61.5 -92.5t-131.5 -52.5q-36 0 -66 19q-21 -59 -65.5 -97t-107.5 -39q-46 -1 -82 19l-23 -27q-36 -45 -54 -12q23 23 50 56q-61 50 -61 140q0 53 23 87t61 37q4 51 42 80t90 29q59 0 98 -41q4 6 17 26t19 29q22 -5 22 -28q0 -9 -35 -60
q23 -46 23 -103q0 -26 -4 -47q29 -25 67 -25q97 0 164 120zM104 169q0 -15 3 -28q74 91 143 188q-17 80 -68 80q-42 0 -74 -62q40 -10 40 -64q0 -12 -3 -30q-41 -21 -41 -84zM169 79q40 0 64 56t24 128v15q-55 -72 -137 -170q19 -29 49 -29z" />
    <glyph glyph-name="ugrave" unicode="&#xf9;" horiz-adv-x="547" 
d="M216 505q-48 0 -108.5 72.5t-60.5 115.5q0 6 15 11.5t36 5.5q32 0 57 -14q0 -1 3.5 -12t5 -16t6.5 -18t9 -21.5t11.5 -23t15.5 -27t19 -28t24 -31.5q-20 -14 -33 -14zM571 346q21 -2 21 -16q0 -15 -21 -57t-52 -89t-75.5 -83.5t-84.5 -36.5q-96 0 -103 116
q-79 -124 -158 -124q-42 0 -66 30t-24 86q0 12 3.5 70t3.5 97q0 47 -6 86q42 6 56 6q28 0 40.5 -14t12.5 -48q0 -12 -4.5 -73t-4.5 -92q0 -68 41 -68q44 0 106 87q1 11 3 36.5t3.5 51t1.5 49.5q0 34 -5 64q20 2 30 2q42 0 59 -20.5t17 -72.5q0 -9 -5.5 -61t-5.5 -79
q0 -84 36 -84q34 0 98.5 90.5t82.5 146.5z" />
    <glyph glyph-name="uacute" unicode="&#xfa;" horiz-adv-x="547" 
d="M330 693q0 -43 -60.5 -115.5t-108.5 -72.5q-13 0 -33 14q13 16 24 31.5t19 28t15.5 27t11.5 23t9 21.5t6.5 18t5 16t3.5 12q25 14 57 14q21 0 36 -5.5t15 -11.5zM571 346q21 -2 21 -16q0 -15 -21 -57t-52 -89t-75.5 -83.5t-84.5 -36.5q-96 0 -103 116q-79 -124 -158 -124
q-42 0 -66 30t-24 86q0 12 3.5 70t3.5 97q0 47 -6 86q42 6 56 6q28 0 40.5 -14t12.5 -48q0 -12 -4.5 -73t-4.5 -92q0 -68 41 -68q44 0 106 87q1 11 3 36.5t3.5 51t1.5 49.5q0 34 -5 64q20 2 30 2q42 0 59 -20.5t17 -72.5q0 -9 -5.5 -61t-5.5 -79q0 -84 36 -84
q34 0 98.5 90.5t82.5 146.5z" />
    <glyph glyph-name="ucircumflex" unicode="&#xfb;" horiz-adv-x="547" 
d="M56 509q-19 0 -35 31q76 97 112.5 133.5t57.5 36.5q22 0 58 -36t112 -134q-16 -31 -35 -31q-28 0 -67.5 46.5t-67.5 95.5q-25 -49 -65 -95.5t-70 -46.5zM571 346q21 -2 21 -16q0 -15 -21 -57t-52 -89t-75.5 -83.5t-84.5 -36.5q-96 0 -103 116q-79 -124 -158 -124
q-42 0 -66 30t-24 86q0 12 3.5 70t3.5 97q0 47 -6 86q42 6 56 6q28 0 40.5 -14t12.5 -48q0 -12 -4.5 -73t-4.5 -92q0 -68 41 -68q44 0 106 87q1 11 3 36.5t3.5 51t1.5 49.5q0 34 -5 64q20 2 30 2q42 0 59 -20.5t17 -72.5q0 -9 -5.5 -61t-5.5 -79q0 -84 36 -84
q34 0 98.5 90.5t82.5 146.5z" />
    <glyph glyph-name="udieresis" unicode="&#xfc;" horiz-adv-x="547" 
d="M89 526q-27 0 -42.5 14.5t-15.5 40.5q0 28 18.5 45t48.5 17q28 0 45 -15.5t17 -40.5q0 -27 -20 -44t-51 -17zM285 526q-27 0 -42.5 14.5t-15.5 40.5q0 28 18.5 45t48.5 17q28 0 45 -15.5t17 -40.5q0 -27 -20 -44t-51 -17zM571 346q21 -2 21 -16q0 -15 -21 -57t-52 -89
t-75.5 -83.5t-84.5 -36.5q-96 0 -103 116q-79 -124 -158 -124q-42 0 -66 30t-24 86q0 12 3.5 70t3.5 97q0 47 -6 86q42 6 56 6q28 0 40.5 -14t12.5 -48q0 -12 -4.5 -73t-4.5 -92q0 -68 41 -68q44 0 106 87q1 11 3 36.5t3.5 51t1.5 49.5q0 34 -5 64q20 2 30 2q42 0 59 -20.5
t17 -72.5q0 -9 -5.5 -61t-5.5 -79q0 -84 36 -84q34 0 98.5 90.5t82.5 146.5z" />
    <glyph glyph-name="yacute" unicode="&#xfd;" horiz-adv-x="505" 
d="M303 718q0 -43 -60.5 -115.5t-108.5 -72.5q-13 0 -33 14q13 16 24 31.5t19 28t15.5 27t11.5 23t9 21.5t6.5 18t5 16t3.5 12q25 14 57 14q21 0 36 -5.5t15 -11.5zM598 336q-142 -51 -282 -149q-21 -193 -86 -315t-145 -122q-36 0 -56 28.5t-20 72.5q0 160 214 321
q4 50 4 68q0 8 -0.5 21t-0.5 17q-59 -108 -130 -108q-39 0 -62.5 41t-23.5 109q0 14 1 39t1 38q0 24 -3 51q18 8 43 8q56 0 56 -40q0 -5 -4 -42t-4 -64q0 -82 40 -82q36 0 56.5 59t20.5 159q24 14 52 14q35 0 45 -26t10 -90q0 -61 -4 -106q58 35 118.5 64.5t97 43.5t45.5 14
q6 0 11.5 -7t5.5 -17zM91 -210q31 0 66.5 98.5t55.5 217.5q-154 -140 -154 -268q0 -48 32 -48z" />
    <glyph glyph-name="thorn" unicode="&#xfe;" horiz-adv-x="482" 
d="M173 419q115 0 181.5 -47t66.5 -132q0 -78 -71 -131t-175 -53q-12 0 -34 2q0 -22 -0.5 -79.5t-0.5 -95.5q0 -12 2 -38q-25 -16 -49 -16q-23 0 -31.5 12.5t-8.5 45.5l9 695q0 19 -2 57q21 10 42 10q22 0 35 -13.5t13 -36.5q0 -130 -1 -181q3 0 11 0.5t13 0.5zM156 95
q75 0 118.5 38.5t43.5 100.5q0 67 -39.5 105.5t-116.5 38.5h-14q0 -50 -1 -97t-2.5 -100.5t-2.5 -85.5h14z" />
    <glyph glyph-name="ydieresis" unicode="&#xff;" horiz-adv-x="505" 
d="M62 551q-27 0 -42.5 14.5t-15.5 40.5q0 28 18.5 45t48.5 17q28 0 45 -15.5t17 -40.5q0 -27 -20 -44t-51 -17zM258 551q-27 0 -42.5 14.5t-15.5 40.5q0 28 18.5 45t48.5 17q28 0 45 -15.5t17 -40.5q0 -27 -20 -44t-51 -17zM598 336q-142 -51 -282 -149q-21 -193 -86 -315
t-145 -122q-36 0 -56 28.5t-20 72.5q0 160 214 321q4 50 4 68q0 8 -0.5 21t-0.5 17q-59 -108 -130 -108q-39 0 -62.5 41t-23.5 109q0 14 1 39t1 38q0 24 -3 51q18 8 43 8q56 0 56 -40q0 -5 -4 -42t-4 -64q0 -82 40 -82q36 0 56.5 59t20.5 159q24 14 52 14q35 0 45 -26
t10 -90q0 -61 -4 -106q58 35 118.5 64.5t97 43.5t45.5 14q6 0 11.5 -7t5.5 -17zM91 -210q31 0 66.5 98.5t55.5 217.5q-154 -140 -154 -268q0 -48 32 -48z" />
    <glyph glyph-name="Amacron" unicode="&#x100;" horiz-adv-x="899" 
d="M816 909q34 0 47 -6t13 -20q0 -22 -11 -39q-45 5 -77 5q-13 0 -87 -2q-59 -3 -99 -3q-58 0 -79 9.5t-21 33.5q0 6 4 20q33 -2 194 -2q22 0 61.5 2t54.5 2zM779 524q0 -40 -2.5 -153t-2.5 -185q0 -152 72 -249q-34 -37 -80 -37q-55 0 -85 52t-30 146q0 25 4 97
q-137 -39 -359 -1q-74 -176 -102 -346q-6 -39 3 -119q-78 7 -109 28t-31 77q0 108 124 387q-38 13 -62 24q-42 19 -50.5 46t-1.5 85q72 -45 153 -78q27 46 64 101t87.5 117t101.5 113.5t107 89t102 45.5q56 -10 76.5 -71.5t20.5 -168.5zM327 263q164 -42 333 -11
q3 31 10.5 117t11.5 141t4 96q0 25 -2.5 43.5t-9.5 32t-18 12.5q-62 -26 -156.5 -146.5t-172.5 -284.5z" />
    <glyph glyph-name="amacron" unicode="&#x101;" horiz-adv-x="513" 
d="M161 547q-58 0 -79 9.5t-21 33.5q0 6 4 20q33 -2 154 -2q10 0 44 2t52 2q34 0 47 -6t13 -20q0 -22 -11 -39q-45 5 -77 5q-24 0 -62 -2.5t-64 -2.5zM555 321q7 9 19 7q7 -1 5 -8q-6 -21 -40 -70.5t-89.5 -99t-102.5 -49.5q-62 0 -70 79q-23 -53 -74 -93t-98 -40
q-51 0 -84.5 36.5t-33.5 92.5q0 104 70 181.5t164 77.5q43 0 84 -27t52 -62q-16 -70 -16 -118q0 -75 43 -75q29 0 78 50.5t93 117.5zM127 124q43 0 88.5 87.5t54.5 148.5q-7 38 -45 38q-40 0 -85 -76t-45 -141q0 -24 9 -40.5t23 -16.5z" />
    <glyph glyph-name="Abreve" unicode="&#x102;" horiz-adv-x="899" 
d="M686 853q-62 0 -108 43.5t-46 101.5q0 20 10.5 28t36.5 8q24 0 42 -10q2 -57 20.5 -89.5t51.5 -32.5q73 0 73 122q14 10 43 10q26 0 36 -8t10 -28q0 -58 -50.5 -101.5t-118.5 -43.5zM779 524q0 -40 -2.5 -153t-2.5 -185q0 -152 72 -249q-34 -37 -80 -37q-55 0 -85 52
t-30 146q0 25 4 97q-137 -39 -359 -1q-74 -176 -102 -346q-6 -39 3 -119q-78 7 -109 28t-31 77q0 108 124 387q-38 13 -62 24q-42 19 -50.5 46t-1.5 85q72 -45 153 -78q27 46 64 101t87.5 117t101.5 113.5t107 89t102 45.5q56 -10 76.5 -71.5t20.5 -168.5zM327 263
q164 -42 333 -11q3 31 10.5 117t11.5 141t4 96q0 25 -2.5 43.5t-9.5 32t-18 12.5q-62 -26 -156.5 -146.5t-172.5 -284.5z" />
    <glyph glyph-name="abreve" unicode="&#x103;" horiz-adv-x="513" 
d="M216 501q-62 0 -108 43.5t-46 101.5q0 20 10.5 28t36.5 8q24 0 42 -10q2 -57 20.5 -89.5t51.5 -32.5q73 0 73 122q14 10 43 10q26 0 36 -8t10 -28q0 -58 -50.5 -101.5t-118.5 -43.5zM555 321q7 9 19 7q7 -1 5 -8q-6 -21 -40 -70.5t-89.5 -99t-102.5 -49.5q-62 0 -70 79
q-23 -53 -74 -93t-98 -40q-51 0 -84.5 36.5t-33.5 92.5q0 104 70 181.5t164 77.5q43 0 84 -27t52 -62q-16 -70 -16 -118q0 -75 43 -75q29 0 78 50.5t93 117.5zM127 124q43 0 88.5 87.5t54.5 148.5q-7 38 -45 38q-40 0 -85 -76t-45 -141q0 -24 9 -40.5t23 -16.5z" />
    <glyph glyph-name="Aogonek" unicode="&#x104;" horiz-adv-x="899" 
d="M866 -204q13 -7 13 -21q0 -19 -26 -34.5t-59 -15.5q-47 0 -77.5 25t-30.5 63q-1 53 54 90q-89 25 -89 195q0 25 4 97q-137 -39 -359 -1q-74 -176 -102 -346q-6 -39 3 -119q-78 7 -109 28t-31 77q0 108 124 387q-38 13 -62 24q-42 19 -50.5 46t-1.5 85q72 -45 153 -78
q27 46 64 101t87.5 117t101.5 113.5t107 89t102 45.5q56 -10 76.5 -71.5t20.5 -168.5q0 -40 -2.5 -153t-2.5 -185q0 -152 72 -249q-15 -17 -32 -25q-48 -52 -48 -86q0 -23 12 -37t32 -14q26 0 56 21zM327 263q164 -42 333 -11q3 31 10.5 117t11.5 141t4 96q0 25 -2.5 43.5
t-9.5 32t-18 12.5q-62 -26 -156.5 -146.5t-172.5 -284.5z" />
    <glyph glyph-name="aogonek" unicode="&#x105;" horiz-adv-x="513" 
d="M555 321q7 9 19 7q7 -1 5 -8q-10 -32 -70 -108t-119 -101q-50 -53 -50 -88q0 -23 12 -37t32 -14q26 0 56 21q13 -7 13 -21q0 -19 -26 -34.5t-59 -15.5q-47 0 -77.5 25t-30.5 63q-1 56 61 95q-38 13 -44 75q-23 -53 -74 -93t-98 -40q-51 0 -84.5 36.5t-33.5 92.5
q0 104 70 181.5t164 77.5q43 0 84 -27t52 -62q-16 -70 -16 -118q0 -75 43 -75q29 0 78 50.5t93 117.5zM127 124q43 0 88.5 87.5t54.5 148.5q-7 38 -45 38q-40 0 -85 -76t-45 -141q0 -24 9 -40.5t23 -16.5z" />
    <glyph glyph-name="Cacute" unicode="&#x106;" horiz-adv-x="909" 
d="M509 843q-13 0 -33 14q13 16 24 31.5t19 28t15.5 27t11.5 23t9 21.5t6.5 18t5 16t3.5 12q25 14 57 14q21 0 36 -5.5t15 -11.5q0 -43 -60.5 -115.5t-108.5 -72.5zM500 -142q-189 0 -314.5 113t-125.5 284q0 90 35 177t99.5 157.5t165 113.5t221.5 43q125 0 208.5 -61
t83.5 -151q0 -96 -60 -96q-30 0 -54 11t-24 23q0 3 18 41t18 67q0 52 -42.5 80.5t-117.5 28.5q-121 0 -216 -65.5t-142.5 -162.5t-47.5 -202q0 -147 86 -242t220 -95q53 0 101.5 14t81.5 33.5t61.5 45t42.5 43.5t24 34q18 0 27 -13t9 -30q0 -39 -56 -84.5t-141 -76
t-161 -30.5z" />
    <glyph glyph-name="cacute" unicode="&#x107;" horiz-adv-x="490" 
d="M179 505q-13 0 -33 14q13 16 24 31.5t19 28t15.5 27t11.5 23t9 21.5t6.5 18t5 16t3.5 12q25 14 57 14q21 0 36 -5.5t15 -11.5q0 -43 -60.5 -115.5t-108.5 -72.5zM200 36q-92 0 -142.5 57t-50.5 137q0 82 56.5 144t150.5 62q47 0 86 -23.5t39 -50.5q0 -17 -46 -38
q-38 61 -76 61q-45 0 -71 -44.5t-26 -105.5t26 -105t73 -44q70 0 167 82t146 163q16 -3 16 -20q0 -18 -31.5 -62t-79 -92t-113 -84.5t-124.5 -36.5z" />
    <glyph glyph-name="Cdotaccent" unicode="&#x10a;" horiz-adv-x="909" 
d="M543 865q-25 0 -40.5 13.5t-15.5 35.5q0 25 17 40.5t44 15.5q25 0 40 -14t15 -36q0 -23 -17.5 -39t-42.5 -16zM500 -142q-189 0 -314.5 113t-125.5 284q0 90 35 177t99.5 157.5t165 113.5t221.5 43q125 0 208.5 -61t83.5 -151q0 -96 -60 -96q-30 0 -54 11t-24 23
q0 3 18 41t18 67q0 52 -42.5 80.5t-117.5 28.5q-121 0 -216 -65.5t-142.5 -162.5t-47.5 -202q0 -147 86 -242t220 -95q53 0 101.5 14t81.5 33.5t61.5 45t42.5 43.5t24 34q18 0 27 -13t9 -30q0 -39 -56 -84.5t-141 -76t-161 -30.5z" />
    <glyph glyph-name="cdotaccent" unicode="&#x10b;" horiz-adv-x="490" 
d="M209 525q-25 0 -40.5 13.5t-15.5 35.5q0 25 17 40.5t44 15.5q25 0 40 -14t15 -36q0 -23 -17.5 -39t-42.5 -16zM200 36q-92 0 -142.5 57t-50.5 137q0 82 56.5 144t150.5 62q47 0 86 -23.5t39 -50.5q0 -17 -46 -38q-38 61 -76 61q-45 0 -71 -44.5t-26 -105.5t26 -105
t73 -44q70 0 167 82t146 163q16 -3 16 -20q0 -18 -31.5 -62t-79 -92t-113 -84.5t-124.5 -36.5z" />
    <glyph glyph-name="Ccaron" unicode="&#x10c;" horiz-adv-x="909" 
d="M540 844q-24 0 -63.5 36t-124.5 134q18 31 39 31q34 0 83 -48t74 -93q90 141 141 141q21 0 39 -31q-84 -98 -124 -134t-64 -36zM500 -142q-189 0 -314.5 113t-125.5 284q0 90 35 177t99.5 157.5t165 113.5t221.5 43q125 0 208.5 -61t83.5 -151q0 -96 -60 -96
q-30 0 -54 11t-24 23q0 3 18 41t18 67q0 52 -42.5 80.5t-117.5 28.5q-121 0 -216 -65.5t-142.5 -162.5t-47.5 -202q0 -147 86 -242t220 -95q53 0 101.5 14t81.5 33.5t61.5 45t42.5 43.5t24 34q18 0 27 -13t9 -30q0 -39 -56 -84.5t-141 -76t-161 -30.5z" />
    <glyph glyph-name="ccaron" unicode="&#x10d;" horiz-adv-x="490" 
d="M212 509q-22 0 -58 36t-112 134q16 31 35 31q26 0 70 -43.5t72 -98.5q83 142 128 142q19 0 35 -31q-76 -97 -112 -133.5t-58 -36.5zM200 36q-92 0 -142.5 57t-50.5 137q0 82 56.5 144t150.5 62q47 0 86 -23.5t39 -50.5q0 -17 -46 -38q-38 61 -76 61q-45 0 -71 -44.5
t-26 -105.5t26 -105t73 -44q70 0 167 82t146 163q16 -3 16 -20q0 -18 -31.5 -62t-79 -92t-113 -84.5t-124.5 -36.5z" />
    <glyph glyph-name="Dcaron" unicode="&#x10e;" horiz-adv-x="837" 
d="M438 790q-24 0 -63.5 36t-124.5 134q18 31 39 31q34 0 83 -48t74 -93q90 141 141 141q21 0 39 -31q-84 -98 -124 -134t-64 -36zM303 730q220 -23 350.5 -122.5t130.5 -251.5q0 -85 -41 -164t-106 -136t-143.5 -100.5t-155 -65t-139.5 -21.5q-97 0 -120 57q153 3 285 62.5
t209 159t77 213.5q0 137 -101.5 224.5t-265.5 96.5q-100 -260 -100 -564q0 -56 5 -129q-57 -5 -85.5 32.5t-28.5 129.5q0 123 35.5 267t82.5 261q-34 -4 -77 -18t-64 -14q-36 0 -47.5 16.5t-9.5 46.5q109 26 185 26q25 0 37 -1q15 31 24 45q22 -5 31.5 -8t20.5 -14t11 -28z
" />
    <glyph glyph-name="dcaron" unicode="&#x10f;" horiz-adv-x="596" 
d="M600 709q0 -52 -40.5 -110.5t-77.5 -58.5q-16 0 -29 13q50 78 58 176q31 12 60 5.5t29 -25.5zM630 323q23 -7 23 -21q0 -19 -19.5 -60.5t-50.5 -87t-77 -79.5t-91 -34q-88 0 -123 122q-17 -53 -54 -83t-88 -30q-42 0 -75 19.5t-49.5 51t-24 69.5t1 76t25 69.5t49 51
t72.5 19.5q72 0 121 -63v46q0 160 21.5 228t70.5 68q24 0 51 -26q-50 -144 -50 -311q0 -121 22 -187t63 -66q34 0 75 46.5t65.5 93t41.5 88.5zM176 106q36 0 61 49t32 128q-33 66 -85 66q-33 0 -53.5 -35.5t-20.5 -90.5q0 -54 17.5 -85.5t48.5 -31.5z" />
    <glyph glyph-name="Dcroat" unicode="&#x110;" horiz-adv-x="837" 
d="M303 730q220 -23 350.5 -122.5t130.5 -251.5q0 -85 -41 -164t-106 -136t-143.5 -100.5t-155 -65t-139.5 -21.5q-97 0 -120 57q153 3 285 62.5t209 159t77 213.5q0 137 -101.5 224.5t-265.5 96.5q-54 -139 -80 -302q129 1 162 -8t33 -32q0 -21 -16 -42q-60 9 -188 9
q-11 -94 -11 -189q0 -56 5 -129q-57 -5 -85.5 32.5t-28.5 129.5q0 73 14 157q-96 1 -126.5 11t-30.5 36q0 9 8 27q75 -3 162 -2q31 147 91 299q-34 -4 -77 -18t-64 -14q-36 0 -47.5 16.5t-9.5 46.5q109 26 185 26q25 0 37 -1q15 31 24 45q22 -5 31.5 -8t20.5 -14t11 -28z
" />
    <glyph glyph-name="dcroat" unicode="&#x111;" horiz-adv-x="596" 
d="M630 323q23 -7 23 -21q0 -17 -19.5 -58.5t-50.5 -87.5t-77 -80.5t-91 -34.5q-88 0 -123 122q-17 -53 -54 -83t-88 -30q-42 0 -75 19.5t-49.5 51t-24 69.5t1 76t25 69.5t49 51t72.5 19.5q72 0 121 -63v46q0 37 2 93q-22 1 -68 1q-22 0 -22 29q0 13 3 28q37 -9 90 -12
q8 83 29 120t58 37q24 0 51 -26q-23 -66 -34 -133h82l-5 -18q-3 -13 -19 -18.5t-65 -6.5q-9 -67 -9 -135q0 -121 22 -187t63 -66q78 0 182 228zM176 106q36 0 61 48.5t32 127.5q-33 64 -85 64q-34 0 -54 -34t-20 -89q0 -54 17.5 -85.5t48.5 -31.5z" />
    <glyph glyph-name="Emacron" unicode="&#x112;" horiz-adv-x="760" 
d="M621 852q-45 5 -77 5q-13 0 -87 -2q-59 -3 -99 -3q-58 0 -79 9.5t-21 33.5q0 6 4 20q33 -2 194 -2q22 0 61.5 2t54.5 2q34 0 47 -6t13 -20q0 -22 -11 -39zM447 781q132 0 240 -48t109 -106q0 -23 -35 -36q-48 68 -120.5 99.5t-177.5 31.5q-134 0 -213 -58t-77 -154
q3 -112 149 -216q47 16 115 16q121 0 121 -50q0 -47 -86 -47q-101 0 -160 26q-68 -13 -108.5 -56t-39.5 -95q1 -69 69 -110.5t169 -41.5q158 0 288 117q10 0 17.5 -17t4.5 -28q-2 -8 -16 -23.5t-42.5 -36.5t-65.5 -40t-91.5 -32t-113.5 -13q-140 0 -232 58t-94 141
q-1 67 50 122.5t139 85.5q-95 38 -157.5 99t-63.5 141q-2 112 121.5 191.5t300.5 79.5z" />
    <glyph glyph-name="emacron" unicode="&#x113;" horiz-adv-x="498" 
d="M132 578q-58 0 -79 9.5t-21 33.5q0 6 4 20q33 -2 154 -2q10 0 44 2t52 2q34 0 47 -6t13 -20q0 -22 -11 -39q-45 5 -77 5q-24 0 -62 -2.5t-64 -2.5zM531 330q29 8 29 -16q0 -18 -26 -63t-67 -95.5t-102 -88.5t-121 -38q-98 0 -164.5 61.5t-66.5 155.5q0 92 49.5 155.5
t120.5 63.5q48 0 74.5 -29.5t26.5 -83.5q0 -106 -133 -190q34 -72 105 -72q73 0 150 75t125 165zM189 411q-26 0 -45 -35t-19 -84q0 -52 12 -94q91 81 91 158q0 24 -11 39.5t-28 15.5z" />
    <glyph glyph-name="Edotaccent" unicode="&#x116;" horiz-adv-x="760" 
d="M444 873q-25 0 -40.5 13.5t-15.5 35.5q0 25 17 40.5t44 15.5q25 0 40 -13.5t15 -36.5t-17.5 -39t-42.5 -16zM447 781q132 0 240 -48t109 -106q0 -23 -35 -36q-48 68 -120.5 99.5t-177.5 31.5q-134 0 -213 -58t-77 -154q3 -112 149 -216q47 16 115 16q121 0 121 -50
q0 -47 -86 -47q-101 0 -160 26q-68 -13 -108.5 -56t-39.5 -95q1 -69 69 -110.5t169 -41.5q158 0 288 117q10 0 17.5 -17t4.5 -28q-2 -8 -16 -23.5t-42.5 -36.5t-65.5 -40t-91.5 -32t-113.5 -13q-140 0 -232 58t-94 141q-1 67 50 122.5t139 85.5q-95 38 -157.5 99t-63.5 141
q-2 112 121.5 191.5t300.5 79.5z" />
    <glyph glyph-name="edotaccent" unicode="&#x117;" horiz-adv-x="498" 
d="M187 551q-25 0 -40.5 13.5t-15.5 35.5q0 25 17 40.5t44 15.5q25 0 40 -14t15 -36q0 -23 -17.5 -39t-42.5 -16zM531 330q29 8 29 -16q0 -18 -26 -63t-67 -95.5t-102 -88.5t-121 -38q-98 0 -164.5 61.5t-66.5 155.5q0 92 49.5 155.5t120.5 63.5q48 0 74.5 -29.5t26.5 -83.5
q0 -106 -133 -190q34 -72 105 -72q73 0 150 75t125 165zM189 411q-26 0 -45 -35t-19 -84q0 -52 12 -94q91 81 91 158q0 24 -11 39.5t-28 15.5z" />
    <glyph glyph-name="Eogonek" unicode="&#x118;" horiz-adv-x="760" 
d="M447 781q132 0 240 -48t109 -106q0 -23 -35 -36q-48 68 -120.5 99.5t-177.5 31.5q-134 0 -213 -58t-77 -154q3 -112 149 -216q47 16 115 16q121 0 121 -50q0 -47 -86 -47q-101 0 -160 26q-68 -13 -108.5 -56t-39.5 -95q1 -69 69 -110.5t169 -41.5q158 0 288 117
q10 0 17.5 -17t4.5 -28q-2 -8 -18.5 -25.5t-45 -39t-75 -42t-99.5 -30.5q-52 -53 -52 -90q0 -23 12 -37t32 -14q26 0 56 21q13 -7 13 -21q0 -19 -26 -34.5t-59 -15.5q-47 0 -77.5 25t-30.5 63q-1 56 62 95h-21q-140 0 -232 58t-94 141q-1 67 50 122.5t139 85.5
q-95 38 -157.5 99t-63.5 141q-2 112 121.5 191.5t300.5 79.5z" />
    <glyph glyph-name="eogonek" unicode="&#x119;" horiz-adv-x="498" 
d="M560 314q0 -23 -33 -78.5t-96.5 -117t-130.5 -81.5q-58 -58 -58 -96q0 -23 12 -37t32 -14q26 0 56 21q13 -7 13 -21q0 -19 -26 -34.5t-59 -15.5q-47 0 -77.5 25t-30.5 63q-1 60 71 101q-94 4 -157 65t-63 152q0 92 49.5 155.5t120.5 63.5q48 0 74.5 -29.5t26.5 -83.5
q0 -106 -133 -190q34 -72 105 -72q73 0 150 75t125 165q29 8 29 -16zM189 411q-26 0 -45 -35t-19 -84q0 -52 12 -94q91 81 91 158q0 24 -11 39.5t-28 15.5z" />
    <glyph glyph-name="Ecaron" unicode="&#x11a;" horiz-adv-x="760" 
d="M441 852q-24 0 -63.5 36t-124.5 134q18 31 39 31q34 0 83 -48t74 -93q90 141 141 141q21 0 39 -31q-84 -98 -124 -134t-64 -36zM447 781q132 0 240 -48t109 -106q0 -23 -35 -36q-48 68 -120.5 99.5t-177.5 31.5q-134 0 -213 -58t-77 -154q3 -112 149 -216q47 16 115 16
q121 0 121 -50q0 -47 -86 -47q-101 0 -160 26q-68 -13 -108.5 -56t-39.5 -95q1 -69 69 -110.5t169 -41.5q158 0 288 117q10 0 17.5 -17t4.5 -28q-2 -8 -16 -23.5t-42.5 -36.5t-65.5 -40t-91.5 -32t-113.5 -13q-140 0 -232 58t-94 141q-1 67 50 122.5t139 85.5
q-95 38 -157.5 99t-63.5 141q-2 112 121.5 191.5t300.5 79.5z" />
    <glyph glyph-name="ecaron" unicode="&#x11b;" horiz-adv-x="498" 
d="M190 535q-22 0 -58 36t-112 134q16 31 35 31q26 0 70 -43.5t72 -98.5q83 142 128 142q19 0 35 -31q-76 -98 -112 -134t-58 -36zM531 330q29 8 29 -16q0 -18 -26 -63t-67 -95.5t-102 -88.5t-121 -38q-98 0 -164.5 61.5t-66.5 155.5q0 92 49.5 155.5t120.5 63.5
q48 0 74.5 -29.5t26.5 -83.5q0 -106 -133 -190q34 -72 105 -72q73 0 150 75t125 165zM189 411q-26 0 -45 -35t-19 -84q0 -52 12 -94q91 81 91 158q0 24 -11 39.5t-28 15.5z" />
    <glyph glyph-name="Gbreve" unicode="&#x11e;" horiz-adv-x="998" 
d="M569 853q-62 0 -108 43.5t-46 101.5q0 20 10.5 28t36.5 8q24 0 42 -10q2 -57 20.5 -89.5t51.5 -32.5q73 0 73 122q14 10 43 10q26 0 36 -8t10 -28q0 -58 -50.5 -101.5t-118.5 -43.5zM509 -124q-195 0 -317 113t-122 293q0 88 31.5 169.5t92.5 149t161 108t226 40.5
q89 0 170.5 -25.5t125 -57.5t44.5 -57q1 -22 -20.5 -41t-54.5 -26q-47 73 -119.5 113t-156.5 39q-66 0 -124 -25t-100.5 -66t-73.5 -94t-46.5 -111.5t-15.5 -116.5q0 -150 83 -244t216 -94t239 75.5t106 169.5q0 39 -40 57.5t-102 9.5q-120 -15 -149 -15q-34 0 -53 12.5
t-19 34.5q0 29 27 65q59 -19 157 -19q60 0 103.5 -4.5t82 -16.5t58 -37t19.5 -63q0 -78 -43 -144t-108.5 -106.5t-138.5 -63t-139 -22.5z" />
    <glyph glyph-name="gbreve" unicode="&#x11f;" horiz-adv-x="502" 
d="M179 556q-62 0 -108 43.5t-46 101.5q0 20 10.5 28t36.5 8q24 0 42 -10q2 -57 20.5 -89.5t51.5 -32.5q73 0 73 122q14 10 43 10q26 0 36 -8t10 -28q0 -58 -50.5 -101.5t-118.5 -43.5zM554 322q32 0 25 -26q-114 -8 -245 -95v-33q0 -62 -13.5 -132t-39 -135.5t-70 -108
t-98.5 -42.5q-42 0 -65.5 30t-23.5 79q0 170 205 321q-2 62 -6 82q-22 -46 -57 -72t-73 -26q-41 0 -63 27.5t-22 79.5q0 82 69.5 150.5t152.5 68.5q26 0 45.5 -8t19.5 -18q0 -3 -15 -12.5t-33 -16.5q-11 12 -25 12q-52 0 -87 -64t-35 -121q0 -50 27 -50q33 0 59.5 49.5
t19.5 95.5q52 34 68 34q48 0 57 -146q141 77 223 77zM114 -222q30 0 56 66.5t38.5 136.5t18.5 137q-144 -135 -144 -275q0 -28 8.5 -46.5t22.5 -18.5z" />
    <glyph glyph-name="Gdotaccent" unicode="&#x120;" horiz-adv-x="998" 
d="M571 865q-25 0 -40.5 13.5t-15.5 35.5q0 25 17 40.5t44 15.5q25 0 40 -14t15 -36q0 -23 -17.5 -39t-42.5 -16zM509 -124q-195 0 -317 113t-122 293q0 88 31.5 169.5t92.5 149t161 108t226 40.5q89 0 170.5 -25.5t125 -57.5t44.5 -57q1 -22 -20.5 -41t-54.5 -26
q-47 73 -119.5 113t-156.5 39q-66 0 -124 -25t-100.5 -66t-73.5 -94t-46.5 -111.5t-15.5 -116.5q0 -150 83 -244t216 -94t239 75.5t106 169.5q0 39 -40 57.5t-102 9.5q-120 -15 -149 -15q-34 0 -53 12.5t-19 34.5q0 29 27 65q59 -19 157 -19q60 0 103.5 -4.5t82 -16.5
t58 -37t19.5 -63q0 -78 -43 -144t-108.5 -106.5t-138.5 -63t-139 -22.5z" />
    <glyph glyph-name="gdotaccent" unicode="&#x121;" horiz-adv-x="502" 
d="M179 575q-25 0 -40.5 13.5t-15.5 35.5q0 25 17 40.5t44 15.5q25 0 40 -14t15 -36q0 -23 -17.5 -39t-42.5 -16zM554 322q32 0 25 -26q-114 -8 -245 -95v-33q0 -62 -13.5 -132t-39 -135.5t-70 -108t-98.5 -42.5q-42 0 -65.5 30t-23.5 79q0 170 205 321q-2 62 -6 82
q-22 -46 -57 -72t-73 -26q-41 0 -63 27.5t-22 79.5q0 82 69.5 150.5t152.5 68.5q26 0 45.5 -8t19.5 -18q0 -3 -15 -12.5t-33 -16.5q-11 12 -25 12q-52 0 -87 -64t-35 -121q0 -50 27 -50q33 0 59.5 49.5t19.5 95.5q52 34 68 34q48 0 57 -146q141 77 223 77zM114 -222
q30 0 56 66.5t38.5 136.5t18.5 137q-144 -135 -144 -275q0 -28 8.5 -46.5t22.5 -18.5z" />
    <glyph glyph-name="Gcommaaccent" unicode="&#x122;" horiz-adv-x="998" 
d="M509 -124q-195 0 -317 113t-122 293q0 88 31.5 169.5t92.5 149t161 108t226 40.5q89 0 170.5 -25.5t125 -57.5t44.5 -57q1 -22 -20.5 -41t-54.5 -26q-47 73 -119.5 113t-156.5 39q-66 0 -124 -25t-100.5 -66t-73.5 -94t-46.5 -111.5t-15.5 -116.5q0 -150 83 -244t216 -94
t239 75.5t106 169.5q0 39 -40 57.5t-102 9.5q-120 -15 -149 -15q-34 0 -53 12.5t-19 34.5q0 29 27 65q59 -19 157 -19q60 0 103.5 -4.5t82 -16.5t58 -37t19.5 -63q0 -78 -43 -144t-108.5 -106.5t-138.5 -63t-139 -22.5zM508 -377q-12 0 -20 15q42 44 45 81q-44 17 -44 57
q0 25 16 39.5t44 14.5q25 0 40.5 -20.5t15.5 -53.5q0 -37 -34.5 -85t-62.5 -48z" />
    <glyph glyph-name="gcommaaccent" unicode="&#x123;" horiz-adv-x="502" 
d="M150 563q-25 0 -40.5 20.5t-15.5 53.5q0 37 34.5 85t62.5 48q13 0 20 -15q-42 -44 -45 -81q44 -17 44 -57q0 -25 -16 -39.5t-44 -14.5zM554 322q32 0 25 -26q-114 -8 -245 -95v-33q0 -62 -13.5 -132t-39 -135.5t-70 -108t-98.5 -42.5q-42 0 -65.5 30t-23.5 79
q0 170 205 321q-2 62 -6 82q-22 -46 -57 -72t-73 -26q-41 0 -63 27.5t-22 79.5q0 82 69.5 150.5t152.5 68.5q26 0 45.5 -8t19.5 -18q0 -3 -15 -12.5t-33 -16.5q-11 12 -25 12q-52 0 -87 -64t-35 -121q0 -50 27 -50q33 0 59.5 49.5t19.5 95.5q52 34 68 34q48 0 57 -146
q141 77 223 77zM114 -222q30 0 56 66.5t38.5 136.5t18.5 137q-144 -135 -144 -275q0 -28 8.5 -46.5t22.5 -18.5z" />
    <glyph glyph-name="Hbar" unicode="&#x126;" horiz-adv-x="815" 
d="M745 589q61 -13 61 -35q0 -23 -26 -40q-36 6 -43 6q-35 -273 -35 -381q0 -136 32 -215q-53 -13 -90 -9q-37 3 -56 28.5t-19.5 71.5t4.5 86t15 97q4 22 6 32l9 58q-101 22 -166 26q-116 8 -219 -15l-20 -153q-16 -122 -16 -242q0 -28 4 -66q-25 6 -37.5 10t-32.5 13.5
t-29.5 20t-17 29.5t-7.5 44q0 38 6 82.5t19.5 117t19.5 111.5q-64 -25 -103 -54q-20 12 -20 29q0 38 134 91q18 128 21 205q-45 2 -63.5 9t-18.5 23q0 6 14 25q46 -2 67 -1q-6 80 -49 132q53 65 89 65q72 0 72 -174v-16q100 6 206 6q105 0 188 -5q4 44 4 58q0 52 -36 131
q27 38 74 38q35 0 51 -28.5t16 -92.5q0 -48 -8 -118zM612 350q13 83 24 180q-99 8 -202 8q-41 0 -103.5 -0.5t-84.5 -0.5q-6 -56 -19 -169q119 33 210 33q51 0 96 -6t51 -14q19 -14 28 -31z" />
    <glyph glyph-name="hbar" unicode="&#x127;" horiz-adv-x="554" 
d="M613 324q15 -3 15 -25q0 -16 -48.5 -83t-118 -131t-114.5 -64q-39 0 -62 56.5t-21 132.5q-35 -138 -83 -212t-93 -74q-76 0 -76 211q0 158 43 312q-55 4 -55 31q0 6 4 11h65q54 154 131 154q31 0 50.5 -28t19.5 -71q0 -28 -7 -52q48 -1 50 -18q0 -15 -12 -27q-20 1 -55 1
q-41 -78 -135 -146q-6 -70 -6 -112q0 -120 17 -120q13 0 34 39t41 86.5t47 86.5t50 39q32 0 60 -42q-11 -42 -11 -94q0 -89 43 -89q24 0 52.5 19.5t62 59.5t53 66t52.5 73q1 1 1.5 2t1.5 2.5l2 3t2 2.5zM184 582q-27 0 -48 -92h19q8 0 24 0.5t23 0.5q5 25 5 44q0 47 -23 47z
M115 353q45 32 72 95q-9 -1 -29 -1.5t-30 -0.5q-4 -23 -13 -93z" />
    <glyph glyph-name="Imacron" unicode="&#x12a;" horiz-adv-x="678" 
d="M300 844q-58 0 -79 9.5t-21 33.5q0 6 4 20q33 -2 194 -2q22 0 61.5 2t54.5 2q34 0 47 -6t13 -20q0 -22 -11 -39q-45 5 -77 5q-13 0 -87 -2q-59 -3 -99 -3zM736 786q3 -23 -8 -52q-11 -26 -40.5 -41.5t-70.5 -15.5q-54 0 -125.5 4.5t-98.5 5.5q1 -18 -3 -58
q-30 -242 -32 -342q-6 -229 25 -350q42 -3 91 -1q109 5 136 27q13 -8 22 -20.5t9 -27t-8 -27t-31.5 -22t-59.5 -11.5q-47 -3 -155.5 2.5t-136.5 5.5q-110 0 -211 -24q-22 20 -27 45.5t14.5 45.5t61.5 21q85 1 185 -6q-8 19 -13 51q-9 45 -4.5 214.5t19.5 281.5
q16 127 18 193q-207 -9 -238 -84q-19 2 -31 19.5t-11 39.5q21 116 369 116q53 0 145 -2.5t99 -2.5q67 0 110 15z" />
    <glyph glyph-name="imacron" unicode="&#x12b;" horiz-adv-x="196" 
d="M214 464q-45 5 -77 5q-24 0 -62 -2.5t-64 -2.5q-58 0 -79 9.5t-21 33.5q0 6 4 20q33 -2 154 -2q10 0 44 2t52 2q34 0 47 -6t13 -20q0 -22 -11 -39zM72 2q-32 0 -43 25t-11 98q0 22 2 83.5t2 101.5q0 31 -1 54q26 4 38 4q62 0 62 -63q0 -47 -3 -138.5t-3 -150.5
q-24 -14 -43 -14z" />
    <glyph glyph-name="Iogonek" unicode="&#x12e;" horiz-adv-x="678" 
d="M736 786q3 -23 -8 -52q-11 -26 -40.5 -41.5t-70.5 -15.5q-54 0 -125.5 4.5t-98.5 5.5q1 -18 -3 -58q-30 -242 -32 -342q-6 -229 25 -350q42 -3 91 -1q109 5 136 27q13 -8 22 -20.5t9 -27t-8 -27t-31.5 -22t-59.5 -11.5q-51 -4 -177 4q-48 -52 -48 -86q0 -23 12 -37
t32 -14q26 0 56 21q13 -7 13 -21q0 -19 -26 -34.5t-59 -15.5q-47 0 -77.5 25t-30.5 63q-1 60 72 102q-22 1 -59 1q-110 0 -211 -24q-22 20 -27 45.5t14.5 45.5t61.5 21q85 1 185 -6q-8 19 -13 51q-9 45 -4.5 214.5t19.5 281.5q16 127 18 193q-207 -9 -238 -84
q-19 2 -31 19.5t-11 39.5q21 116 369 116q53 0 145 -2.5t99 -2.5q67 0 110 15z" />
    <glyph glyph-name="iogonek" unicode="&#x12f;" horiz-adv-x="196" 
d="M156 -110q13 -7 13 -21q0 -19 -26 -34.5t-59 -15.5q-47 0 -77.5 25t-30.5 63q-1 60 70 100q-16 9 -22 35t-6 83q0 22 2 83.5t2 101.5q0 31 -1 54q26 4 38 4q62 0 62 -63q0 -47 -3 -138.5t-3 -150.5l-2 -1q-57 -57 -57 -95q0 -23 12 -37t32 -14q26 0 56 21z" />
    <glyph glyph-name="Idotaccent" unicode="&#x130;" horiz-adv-x="678" 
d="M386 865q-25 0 -40.5 13.5t-15.5 35.5q0 25 17 40.5t44 15.5q25 0 40 -14t15 -36q0 -23 -17.5 -39t-42.5 -16zM736 786q3 -23 -8 -52q-11 -26 -40.5 -41.5t-70.5 -15.5q-54 0 -125.5 4.5t-98.5 5.5q1 -18 -3 -58q-30 -242 -32 -342q-6 -229 25 -350q42 -3 91 -1
q109 5 136 27q13 -8 22 -20.5t9 -27t-8 -27t-31.5 -22t-59.5 -11.5q-47 -3 -155.5 2.5t-136.5 5.5q-110 0 -211 -24q-22 20 -27 45.5t14.5 45.5t61.5 21q85 1 185 -6q-8 19 -13 51q-9 45 -4.5 214.5t19.5 281.5q16 127 18 193q-207 -9 -238 -84q-19 2 -31 19.5t-11 39.5
q21 116 369 116q53 0 145 -2.5t99 -2.5q67 0 110 15z" />
    <glyph glyph-name="dotlessi" unicode="&#x131;" horiz-adv-x="196" 
d="M72 2q-32 0 -43 25t-11 98q0 22 2 83.5t2 101.5q0 31 -1 54q26 4 38 4q62 0 62 -63q0 -47 -3 -138.5t-3 -150.5q-24 -14 -43 -14z" />
    <glyph glyph-name="Kcommaaccent" unicode="&#x136;" horiz-adv-x="724" 
d="M369 391q39 -133 144 -245.5t230 -154.5q-35 -79 -97 -80q-47 -2 -149.5 94.5t-165.5 235.5q-27 62 -32 103q-107 -77 -120 -172q0 -131 30 -258q-60 -3 -74 0q-48 9 -59 53.5t-11 174.5q0 118 21 310.5t21 243.5q0 58 -10 114q56 4 85 -25.5t29 -82.5q0 -34 -4 -92
t-11 -140t-10 -133q84 89 161 141q98 66 175 146t112 140q37 -10 60 -32.5t23 -48.5q0 -14 -15 -39t-38 -47q-11 -10 -25 -21.5t-38 -28t-40.5 -28t-56.5 -38.5t-62 -42q-14 -10 -73 -48zM390 -128q25 0 40.5 -20.5t15.5 -53.5q0 -37 -34.5 -85t-62.5 -48q-13 0 -20 15
q42 44 45 81q-44 17 -44 57q0 25 16 39.5t44 14.5z" />
    <glyph glyph-name="kcommaaccent" unicode="&#x137;" horiz-adv-x="621" 
d="M655 312q17 -4 17 -16q0 -15 -23 -55t-59 -85t-89.5 -79.5t-103.5 -34.5q-52 0 -107.5 39t-99.5 105q-22 -16 -82 -51l-6 -2v-43q0 -41 -13 -64t-36 -23q-22 0 -43 13q17 78 17 278q0 264 -22 373q43 23 72 23q25 0 36 -20t11 -66q0 -19 -3 -66.5t-7.5 -123t-7.5 -138.5
q30 81 80.5 138.5t103.5 57.5q68 0 68 -71q0 -76 -108 -168q30 -44 77 -81t89 -37q20 0 40 6.5t35.5 14.5t35 24.5t31 27.5t29.5 33t25 31.5t23.5 32.5t19.5 27zM106 185q57 38 108.5 92t51.5 101q0 11 -6 19t-14 8q-27 0 -75 -74t-65 -146zM225 -46q25 0 40.5 -20.5
t15.5 -53.5q0 -37 -34.5 -85t-62.5 -48q-12 0 -20 15q42 44 45 81q-44 17 -44 57q0 25 16 39.5t44 14.5z" />
    <glyph glyph-name="Lacute" unicode="&#x139;" horiz-adv-x="820" 
d="M613 1010q0 -43 -60.5 -115.5t-108.5 -72.5q-13 0 -33 14q13 16 24 31.5t19 28t15.5 27t11.5 23t9 21.5t6.5 18t5 16t3.5 12q25 14 57 14q21 0 36 -5.5t15 -11.5zM776 -99q40 -43 40 -81q0 -36 -39.5 -57t-110.5 -21q-65 0 -149 23.5t-175.5 56.5t-140.5 44
q-19 -27 -52 -41t-63 -14q-37 0 -62.5 22.5t-25.5 61.5q51 17 120 17q50 96 76 253q-62 -13 -123 -13q-46 0 -74 21.5t-28 55.5q132 1 240 33l9 78q8 64 16.5 114t22 104t32.5 92.5t44 70.5t60 48.5t78 16.5q63 0 98.5 -46t35.5 -116q0 -120 -83.5 -241t-221.5 -183
q-35 -224 -81 -290q22 -2 131.5 -24t207.5 -22q106 0 218 37zM319 335l-4 -31q103 54 159.5 139t56.5 196q0 91 -60 91t-92 -89.5t-60 -305.5z" />
    <glyph glyph-name="lacute" unicode="&#x13a;" horiz-adv-x="415" 
d="M427 930q0 -43 -60.5 -115.5t-108.5 -72.5q-13 0 -33 14q13 16 24 31.5t19 28t15.5 27t11.5 23t9 21.5t6.5 18t5 16t3.5 12q25 14 57 14q21 0 36 -5.5t15 -11.5zM451 319q19 -2 19 -17q0 -10 -18.5 -41.5t-51.5 -71.5t-72 -78t-87 -64t-89 -26q-65 0 -103 71t-38 195
q0 97 31 192t80 155t98 60q27 0 43.5 -19t16.5 -50q0 -48 -29 -124.5t-55.5 -128t-75.5 -139.5q5 -74 26.5 -114t55.5 -40q35 0 91.5 51.5t94.5 100.5t63 88zM215 657q-36 0 -64.5 -117t-32.5 -230q48 78 82.5 170.5t34.5 145.5q0 31 -20 31z" />
    <glyph glyph-name="Lcommaaccent" unicode="&#x13b;" horiz-adv-x="820" 
d="M776 -99q40 -43 40 -81q0 -36 -39.5 -57t-110.5 -21q-65 0 -149 23.5t-175.5 56.5t-140.5 44q-19 -27 -52 -41t-63 -14q-37 0 -62.5 22.5t-25.5 61.5q51 17 120 17q50 96 76 253q-62 -13 -123 -13q-46 0 -74 21.5t-28 55.5q132 1 240 33l9 78q8 64 16.5 114t22 104
t32.5 92.5t44 70.5t60 48.5t78 16.5q63 0 98.5 -46t35.5 -116q0 -120 -83.5 -241t-221.5 -183q-35 -224 -81 -290q22 -2 131.5 -24t207.5 -22q106 0 218 37zM319 335l-4 -31q103 54 159.5 139t56.5 196q0 91 -60 91t-92 -89.5t-60 -305.5zM403 -251q25 0 40.5 -20.5
t15.5 -53.5q0 -37 -34.5 -85t-62.5 -48q-12 0 -20 15q42 44 45 81q-44 17 -44 57q0 25 16 39.5t44 14.5z" />
    <glyph glyph-name="lcommaaccent" unicode="&#x13c;" horiz-adv-x="415" 
d="M451 319q19 -2 19 -17q0 -10 -18.5 -41.5t-51.5 -71.5t-72 -78t-87 -64t-89 -26q-65 0 -103 71t-38 195q0 97 31 192t80 155t98 60q27 0 43.5 -19t16.5 -50q0 -48 -29 -124.5t-55.5 -128t-75.5 -139.5q5 -74 26.5 -114t55.5 -40q35 0 91.5 51.5t94.5 100.5t63 88z
M215 657q-36 0 -64.5 -117t-32.5 -230q48 78 82.5 170.5t34.5 145.5q0 31 -20 31zM210 -71q25 0 40.5 -20.5t15.5 -53.5q0 -37 -34.5 -85t-62.5 -48q-13 0 -20 15q42 44 45 81q-44 17 -44 57q0 25 16 39.5t44 14.5z" />
    <glyph glyph-name="Lcaron" unicode="&#x13d;" horiz-adv-x="820" 
d="M558 -136q106 0 218 37q40 -43 40 -81q0 -36 -39.5 -57t-110.5 -21q-65 0 -149 23.5t-175.5 56.5t-140.5 44q-19 -27 -52 -41t-63 -14q-37 0 -62.5 22.5t-25.5 61.5q51 17 120 17q50 96 76 253q-62 -13 -123 -13q-46 0 -74 21.5t-28 55.5q132 1 240 33l9 78
q8 64 16.5 114t22 104t32.5 92.5t44 70.5t60 48.5t78 16.5q63 0 98.5 -46t35.5 -116q0 -120 -83.5 -241t-221.5 -183q-35 -224 -81 -290q22 -2 131.5 -24t207.5 -22zM822 746q0 -52 -40.5 -110.5t-77.5 -58.5q-16 0 -29 13q50 78 58 176q31 12 60 5.5t29 -25.5zM319 335
l-4 -31q103 54 159.5 139t56.5 196q0 91 -60 91t-92 -89.5t-60 -305.5z" />
    <glyph glyph-name="lcaron" unicode="&#x13e;" horiz-adv-x="415" 
d="M473 709q0 -52 -40.5 -110.5t-77.5 -58.5q-16 0 -29 13q50 78 58 176q32 12 60.5 5.5t28.5 -25.5zM451 319q19 -2 19 -17q0 -10 -18.5 -41.5t-51.5 -71.5t-72 -78t-87 -64t-89 -26q-65 0 -103 71t-38 195q0 97 31 192t80 155t98 60q27 0 43.5 -19t16.5 -50
q0 -48 -29 -124.5t-55.5 -128t-75.5 -139.5q5 -74 26.5 -114t55.5 -40q35 0 91.5 51.5t94.5 100.5t63 88zM215 657q-36 0 -64.5 -117t-32.5 -230q48 78 82.5 170.5t34.5 145.5q0 31 -20 31z" />
    <glyph glyph-name="Lslash" unicode="&#x141;" horiz-adv-x="820" 
d="M776 -99q40 -43 40 -81q0 -36 -39.5 -57t-110.5 -21q-65 0 -149 23.5t-175.5 56.5t-140.5 44q-19 -27 -52 -41t-63 -14q-37 0 -62.5 22.5t-25.5 61.5q51 17 120 17q50 96 76 253q-62 -13 -123 -13q-46 0 -74 21.5t-28 55.5q132 1 240 33l9 78q8 66 18 125q-59 -5 -90 -13
q-29 17 -37 38q-3 11 6.5 19t30.5 13t45.5 8.5t59.5 5.5q29 118 81 184t139 66q63 0 98.5 -46t35.5 -116q0 -25 -5 -57q20 3 82 18q10 -10 12 -14q20 -34 -31 -57q-27 -13 -84 -22q-34 -91 -106.5 -169t-172.5 -123q-35 -224 -81 -290q22 -2 131.5 -24t207.5 -22
q106 0 218 37zM471 730q-43 0 -70.5 -45t-48.5 -143q4 0 12.5 1t12.5 1q85 6 145 12q9 39 9 83q0 91 -60 91zM319 335l-4 -31q129 67 182 178q-33 -4 -92 -7q-21 -2 -66 -4q-12 -67 -20 -136z" />
    <glyph glyph-name="lslash" unicode="&#x142;" horiz-adv-x="415" 
d="M451 319q19 -2 19 -17q0 -10 -18.5 -41.5t-51.5 -71.5t-72 -78t-87 -64t-89 -26q-65 0 -103 71t-38 195q0 59 13 124q-33 -11 -45 -14q-8 7 -8 13q0 9 16.5 21t42.5 22l5 2q28 102 80 170.5t105 68.5q27 0 43.5 -19t16.5 -50q0 -38 -16 -91q55 20 64 24q15 -7 15 -18
t-15.5 -18.5t-79.5 -30.5q-33 -87 -128 -258q5 -74 26.5 -114t55.5 -40q35 0 91.5 51.5t94.5 100.5t63 88zM215 657q-42 0 -75 -165l73 25q22 68 22 109q0 31 -20 31zM172 463q-6 -2 -19.5 -7t-19.5 -7q-12 -72 -15 -139q46 74 79 162z" />
    <glyph glyph-name="Nacute" unicode="&#x143;" horiz-adv-x="832" 
d="M429 805q-13 0 -33 14q13 16 24 31.5t19 28t15.5 27t11.5 23t9 21.5t6.5 18t5 16t3.5 12q25 14 57 14q21 0 36 -5.5t15 -11.5q0 -43 -60.5 -115.5t-108.5 -72.5zM123 -122q-33 5 -48 46t-15 134q0 97 22.5 274.5t22.5 266.5q0 58 -10 125q94 25 132 -10q27 -27 41 -100
q13 -65 79.5 -234.5t116.5 -250.5q86 -140 127 -140q29 0 43 73t16 229q1 66 2 110t5 97.5t10 88t17 70.5t26.5 56t37.5 32.5t51 12.5q30 0 50 -25.5t22 -66.5q-6 -4 -24.5 -12.5t-27 -16.5t-21.5 -28.5t-21.5 -59t-14.5 -96.5q-5 -47 -6.5 -119t-1.5 -126t-6.5 -115.5
t-20 -102.5t-43 -71t-74.5 -36q-57 -8 -119 54.5t-111 156.5t-92 202t-67.5 187.5t-31.5 115.5v-486q0 -134 25 -225q-40 -18 -91 -10z" />
    <glyph glyph-name="nacute" unicode="&#x144;" horiz-adv-x="676" 
d="M205 505q-13 0 -33 14q13 16 24 31.5t19 28t15.5 27t11.5 23t9 21.5t6.5 18t5 16t3.5 12q25 14 57 14q21 0 36 -5.5t15 -11.5q0 -43 -60.5 -115.5t-108.5 -72.5zM396 10q-50 0 -72 37.5t-22 123.5q0 37 7.5 104.5t7.5 76.5q0 37 -15 37q-16 0 -51 -48t-71 -123.5
t-50 -139.5q-14 -6 -32 -6q-47 0 -61 29t-14 89q0 39 4 98t4 82q0 38 -8 75q30 24 64 24q50 0 50 -57q0 -1 -3.5 -78t-1.5 -114q113 210 204 210q50 0 67 -34.5t17 -101.5q0 -14 -2 -63.5t-2 -71.5q0 -84 39 -84q35 0 123.5 70t134.5 162q29 6 29 -9q0 -20 -32 -66.5
t-79.5 -96t-112.5 -87.5t-122 -38z" />
    <glyph glyph-name="Ncommaaccent" unicode="&#x145;" horiz-adv-x="832" 
d="M123 -122q-33 5 -48 46t-15 134q0 97 22.5 274.5t22.5 266.5q0 58 -10 125q94 25 132 -10q27 -27 41 -100q13 -65 79.5 -234.5t116.5 -250.5q86 -140 127 -140q29 0 43 73t16 229q1 66 2 110t5 97.5t10 88t17 70.5t26.5 56t37.5 32.5t51 12.5q30 0 50 -25.5t22 -66.5
q-6 -4 -24.5 -12.5t-27 -16.5t-21.5 -28.5t-21.5 -59t-14.5 -96.5q-5 -47 -6.5 -119t-1.5 -126t-6.5 -115.5t-20 -102.5t-43 -71t-74.5 -36q-57 -8 -119 54.5t-111 156.5t-92 202t-67.5 187.5t-31.5 115.5v-486q0 -134 25 -225q-40 -18 -91 -10zM362 -399q-12 0 -20 15
q42 44 45 81q-44 17 -44 57q0 25 16 39.5t44 14.5q25 0 40.5 -20.5t15.5 -53.5q0 -37 -34.5 -85t-62.5 -48z" />
    <glyph glyph-name="ncommaaccent" unicode="&#x146;" horiz-adv-x="676" 
d="M396 10q-50 0 -72 37.5t-22 123.5q0 37 7.5 104.5t7.5 76.5q0 37 -15 37q-16 0 -51 -48t-71 -123.5t-50 -139.5q-14 -6 -32 -6q-47 0 -61 29t-14 89q0 39 4 98t4 82q0 38 -8 75q30 24 64 24q50 0 50 -57q0 -1 -3.5 -78t-1.5 -114q113 210 204 210q50 0 67 -34.5
t17 -101.5q0 -14 -2 -63.5t-2 -71.5q0 -84 39 -84q35 0 123.5 70t134.5 162q29 6 29 -9q0 -20 -32 -66.5t-79.5 -96t-112.5 -87.5t-122 -38zM192 -236q-12 0 -20 15q42 44 45 81q-44 17 -44 57q0 25 16 39.5t44 14.5q25 0 40.5 -20.5t15.5 -53.5q0 -37 -34.5 -85t-62.5 -48z
" />
    <glyph glyph-name="Ncaron" unicode="&#x147;" horiz-adv-x="832" 
d="M460 806q-24 0 -63.5 36t-124.5 134q18 31 39 31q34 0 83 -48t74 -93q90 141 141 141q21 0 39 -31q-84 -98 -124 -134t-64 -36zM123 -122q-33 5 -48 46t-15 134q0 97 22.5 274.5t22.5 266.5q0 58 -10 125q94 25 132 -10q27 -27 41 -100q13 -65 79.5 -234.5t116.5 -250.5
q86 -140 127 -140q29 0 43 73t16 229q1 66 2 110t5 97.5t10 88t17 70.5t26.5 56t37.5 32.5t51 12.5q30 0 50 -25.5t22 -66.5q-6 -4 -24.5 -12.5t-27 -16.5t-21.5 -28.5t-21.5 -59t-14.5 -96.5q-5 -47 -6.5 -119t-1.5 -126t-6.5 -115.5t-20 -102.5t-43 -71t-74.5 -36
q-57 -8 -119 54.5t-111 156.5t-92 202t-67.5 187.5t-31.5 115.5v-486q0 -134 25 -225q-40 -18 -91 -10z" />
    <glyph glyph-name="ncaron" unicode="&#x148;" horiz-adv-x="676" 
d="M238 509q-22 0 -58 36t-112 134q16 31 35 31q26 0 70 -43.5t72 -98.5q83 142 128 142q19 0 35 -31q-76 -97 -112 -133.5t-58 -36.5zM396 10q-50 0 -72 37.5t-22 123.5q0 37 7.5 104.5t7.5 76.5q0 37 -15 37q-16 0 -51 -48t-71 -123.5t-50 -139.5q-14 -6 -32 -6
q-47 0 -61 29t-14 89q0 39 4 98t4 82q0 38 -8 75q30 24 64 24q50 0 50 -57q0 -1 -3.5 -78t-1.5 -114q113 210 204 210q50 0 67 -34.5t17 -101.5q0 -14 -2 -63.5t-2 -71.5q0 -84 39 -84q35 0 123.5 70t134.5 162q29 6 29 -9q0 -20 -32 -66.5t-79.5 -96t-112.5 -87.5t-122 -38
z" />
    <glyph glyph-name="Eng" unicode="&#x14a;" horiz-adv-x="854" 
d="M799 758q30 0 50 -25.5t22 -66.5q-6 -4 -24.5 -12.5t-27 -16.5t-21.5 -28.5t-21.5 -59t-14.5 -96.5q-6 -56 -7 -175t-6 -171q-9 -112 -34.5 -196t-56 -129t-70 -72t-69.5 -34.5t-62 -7.5q-50 0 -82.5 22t-32.5 54q0 20 14.5 32t36.5 11q31 -51 80 -51q98 0 138 147h-1
q-57 -8 -118 51.5t-107 147t-85.5 183t-59.5 157t-21 71.5l-20 -3q-10 -211 -10 -377q0 -134 25 -225q-40 -18 -91 -10q-33 5 -48 46t-15 134q0 97 22.5 274.5t22.5 266.5q0 58 -10 125q94 25 132 -10q27 -27 41 -100q13 -65 79.5 -234.5t116.5 -250.5q39 -64 65.5 -91.5
t57.5 -27.5q33 0 47 63t16 218q1 66 2 110t5 97.5t10 88t17 70.5t26.5 56t37.5 32.5t51 12.5z" />
    <glyph glyph-name="eng" unicode="&#x14b;" horiz-adv-x="676" 
d="M713 306q29 6 29 -9q0 -31 -67 -111t-167 -138q-43 -25 -113 -48q-49 -195 -196 -195q-33 0 -54.5 19t-21.5 48q0 26 12.5 45.5t40.5 35.5t52.5 25.5t69.5 24.5q24 111 24 287q0 49 -4 69t-17 20q-10 0 -34 -29.5t-63 -102.5t-74 -169q-14 -6 -32 -6q-47 0 -61 29t-14 89
q0 39 4 98t4 82q0 38 -8 75q30 24 64 24q50 0 50 -57q0 -1 -3.5 -78t-1.5 -114q38 71 69.5 116t55 63.5t37.5 24t32 5.5q49 0 71.5 -41t22.5 -128q0 -126 -17 -222q51 20 82 38q75 41 129.5 94.5t98.5 135.5zM194 -160q62 0 96 127q-58 -20 -89 -42t-31 -55q0 -13 7 -21.5
t17 -8.5z" />
    <glyph glyph-name="Omacron" unicode="&#x14c;" horiz-adv-x="888" 
d="M600 844q-45 5 -77 5q-13 0 -87 -2q-58 -3 -99 -3q-58 0 -79 9.5t-21 33.5q0 6 4 20q33 -2 194 -2q22 0 61.5 2t54.5 2q34 0 47 -6t13 -20q0 -22 -11 -39zM416 -138q-174 0 -275.5 120t-101.5 328q0 56 10 118t28.5 119.5t50.5 95t71 37.5q30 0 47 -22
q-44 -50 -68.5 -136t-24.5 -186q0 -190 69 -300.5t185 -110.5q128 0 207.5 116t79.5 309q0 164 -53 258.5t-143 94.5q-67 0 -111 -50.5t-44 -130.5q0 -71 36 -118.5t96 -55.5q-8 -39 -31 -61.5t-55 -22.5q-59 0 -95 52.5t-36 138.5q0 75 26 143t84 116t138 48
q70 0 125.5 -28.5t88.5 -71.5t55 -100t30 -108.5t8 -101.5q0 -120 -33 -216t-89 -154.5t-126 -89t-149 -30.5z" />
    <glyph glyph-name="omacron" unicode="&#x14d;" horiz-adv-x="548" 
d="M146 562q-58 0 -79 9.5t-21 33.5q0 6 4 20q33 -2 154 -2q10 0 44 2t52 2q34 0 47 -6t13 -20q0 -22 -11 -39q-45 5 -77 5q-24 0 -62 -2.5t-64 -2.5zM586 329q15 -3 15 -18q0 -40 -61.5 -92.5t-131.5 -52.5q-36 0 -66 19q-21 -59 -65.5 -97t-107.5 -39q-74 -1 -122 48.5
t-48 127.5q0 53 23 87t61 37q4 51 42 80t90 29q69 0 106.5 -51.5t37.5 -125.5q0 -26 -4 -47q29 -25 67 -25q97 0 164 120zM169 79q40 0 64 56t24 128q0 61 -19 103.5t-56 42.5q-42 0 -74 -62q40 -10 40 -64q0 -12 -3 -30q-41 -21 -41 -84q0 -36 17 -63t48 -27z" />
    <glyph glyph-name="Ohungarumlaut" unicode="&#x150;" horiz-adv-x="888" 
d="M504 845q-13 0 -33 14q13 16 24 31.5t19 28t15.5 27t11.5 23t9 21.5t6.5 18t5 16t3.5 12q25 14 57 14q21 0 36 -5.5t15 -11.5q0 -43 -60.5 -115.5t-108.5 -72.5zM313 842q-13 0 -33 14q13 16 24 31.5t19 28t15.5 27t11.5 23t9 21.5t6.5 18t5 16t3.5 12q25 14 57 14
q21 0 36 -5.5t15 -11.5q0 -43 -60.5 -115.5t-108.5 -72.5zM416 -138q-174 0 -275.5 120t-101.5 328q0 56 10 118t28.5 119.5t50.5 95t71 37.5q30 0 47 -22q-44 -50 -68.5 -136t-24.5 -186q0 -190 69 -300.5t185 -110.5q128 0 207.5 116t79.5 309q0 164 -53 258.5t-143 94.5
q-67 0 -111 -50.5t-44 -130.5q0 -71 36 -118.5t96 -55.5q-8 -39 -31 -61.5t-55 -22.5q-59 0 -95 52.5t-36 138.5q0 75 26 143t84 116t138 48q70 0 125.5 -28.5t88.5 -71.5t55 -100t30 -108.5t8 -101.5q0 -120 -33 -216t-89 -154.5t-126 -89t-149 -30.5z" />
    <glyph glyph-name="ohungarumlaut" unicode="&#x151;" horiz-adv-x="548" 
d="M261 518q-13 0 -33 14q13 16 24 31.5t19 28t15.5 27t11.5 23t9 21.5t6.5 18t5 16t3.5 12q25 14 57 14q21 0 36 -5.5t15 -11.5q0 -43 -60.5 -115.5t-108.5 -72.5zM239 703q0 -43 -60.5 -115.5t-108.5 -72.5q-13 0 -33 14q13 16 24 31.5t19 28t15.5 27t11.5 23t9 21.5
t6.5 18t5 16t3.5 12q25 14 57 14q21 0 36 -5.5t15 -11.5zM586 329q15 -3 15 -18q0 -40 -61.5 -92.5t-131.5 -52.5q-36 0 -66 19q-21 -59 -65.5 -97t-107.5 -39q-74 -1 -122 48.5t-48 127.5q0 53 23 87t61 37q4 51 42 80t90 29q69 0 106.5 -51.5t37.5 -125.5q0 -26 -4 -47
q29 -25 67 -25q97 0 164 120zM169 79q40 0 64 56t24 128q0 61 -19 103.5t-56 42.5q-42 0 -74 -62q40 -10 40 -64q0 -12 -3 -30q-41 -21 -41 -84q0 -36 17 -63t48 -27z" />
    <glyph glyph-name="OE" unicode="&#x152;" horiz-adv-x="1443" 
d="M1291 51q50 0 50 -45q0 -41 -31 -80q-71 10 -187 -19.5t-190 -29.5q-109 0 -161.5 30.5t-67.5 105.5q-102 -151 -288 -151q-174 0 -275.5 120t-101.5 328q0 56 10 118t28.5 119.5t50.5 95t71 37.5q30 0 47 -22q-44 -50 -68.5 -136t-24.5 -186q0 -190 69 -300.5
t185 -110.5q128 0 207.5 116t79.5 309q0 164 -53 258.5t-143 94.5q-67 0 -111 -50.5t-44 -130.5q0 -71 36 -118.5t96 -55.5q-8 -39 -31 -61.5t-55 -22.5q-59 0 -95 52.5t-36 138.5q0 75 26 143t84 116t138 48q128 0 201 -95q39 39 121 53.5t188 15t126 3.5q72 10 115 52
q55 -21 55 -63q0 -26 -55.5 -37.5t-188.5 -11.5q-20 0 -54.5 1t-52 1t-43.5 -2t-40 -8.5t-29.5 -17.5t-23.5 -31t-12 -47q-12 -91 -12 -225q107 -7 236 18t176 72q32 -20 32 -45q0 -19 -14.5 -35t-44.5 -26.5t-60.5 -18t-79 -13t-81.5 -8.5t-87 -7t-78 -6q-5 -59 -7 -97
t-1.5 -85t8.5 -75t22.5 -54.5t41 -38.5t63.5 -12q57 0 128 33t134.5 66t101.5 33z" />
    <glyph glyph-name="oe" unicode="&#x153;" horiz-adv-x="778" 
d="M811 341q29 8 29 -16q0 -18 -26 -63t-67 -95.5t-102 -88.5t-121 -38q-119 0 -187 86q-54 -76 -143 -77q-74 -1 -122 48.5t-48 127.5q0 53 23 87t61 37q4 51 42 80t90 29q63 0 102 -46q50 64 121 64q48 0 74.5 -29.5t26.5 -83.5q0 -106 -137 -193q40 -69 109 -69
q73 0 150 75t125 165zM469 422q-27 0 -50 -36t-23 -83q0 -55 15 -99q97 81 97 163q0 24 -11 39.5t-28 15.5zM194 79q40 0 64 56t24 128q0 61 -19 103.5t-56 42.5q-42 0 -74 -62q40 -10 40 -64q0 -12 -3 -30q-41 -21 -41 -84q0 -36 17.5 -63t47.5 -27z" />
    <glyph glyph-name="Racute" unicode="&#x154;" horiz-adv-x="883" 
d="M589 1031q0 -43 -60.5 -115.5t-108.5 -72.5q-13 0 -33 14q13 16 24 31.5t19 28t15.5 27t11.5 23t9 21.5t6.5 18t5 16t3.5 12q25 14 57 14q21 0 36 -5.5t15 -11.5zM695 114q167 -235 261 -272q-13 -47 -39.5 -70.5t-60.5 -17.5q-33 7 -69.5 45.5t-60 77t-60.5 105.5
t-53 93q-6 9 -19 30.5t-20.5 33t-18.5 27.5t-21 27t-20 20q-70 -15 -157 -15h-21q-14 -98 -14 -188q0 -106 29 -173q-49 -10 -83 -6q-29 2 -46 17.5t-22.5 38t-4 54.5t6.5 61.5t12 63.5q3 12 4 18q3 21 11 63.5t11 59.5q-10 2 -17 4q-86 21 -88 49q-3 33 47 60
q23 -29 68 -48q8 50 11 84q7 45 6 101q-1 58 -30 96q27 19 59 22.5t47 -13.5q25 -21 25 -71q0 -83 -23 -238h7q156 0 258.5 73.5t104.5 193.5q0 98 -87 157t-232 59q-118 0 -205 -48t-87 -115q0 -43 47 -76q-13 -15 -36 -25t-44 -10q-38 0 -58.5 19.5t-20.5 54.5
q0 42 27.5 85t80 80t140 60.5t195.5 23.5q178 0 297 -74.5t119 -186.5q0 -85 -65 -163t-182 -122q16 -18 91 -125z" />
    <glyph glyph-name="racute" unicode="&#x155;" horiz-adv-x="460" 
d="M367 693q0 -43 -60.5 -115.5t-108.5 -72.5q-13 0 -33 14q13 16 24 31.5t19 28t15.5 27t11.5 23t9 21.5t6.5 18t5 16t3.5 12q25 14 57 14q21 0 36 -5.5t15 -11.5zM504 313q10 0 15.5 -5.5t5.5 -12.5q0 -14 -25.5 -62.5t-64.5 -105.5t-97.5 -101t-113.5 -44q-57 0 -94.5 32
t-37.5 81q0 38 14 73.5t38 73t28 44.5q-196 5 -196 103q0 46 31.5 76.5t74.5 30.5q19 0 30 -12.5t11 -32.5q0 -37 -30 -89q27 -7 84 -12t89 -13t32 -28q0 -19 -22 -58t-44.5 -83t-22.5 -77q0 -60 47 -60q57 0 125 86.5t123 195.5zM71 478q-12 0 -25 -21.5t-13 -43.5
q0 -25 27 -39q22 47 22 79q0 25 -11 25z" />
    <glyph glyph-name="Rcommaaccent" unicode="&#x156;" horiz-adv-x="883" 
d="M695 114q167 -235 261 -272q-13 -47 -39.5 -70.5t-60.5 -17.5q-33 7 -69.5 45.5t-60 77t-60.5 105.5t-53 93q-6 9 -19 30.5t-20.5 33t-18.5 27.5t-21 27t-20 20q-70 -15 -157 -15h-21q-14 -98 -14 -188q0 -106 29 -173q-49 -10 -83 -6q-29 2 -46 17.5t-22.5 38t-4 54.5
t6.5 61.5t12 63.5q3 12 4 18q3 21 11 63.5t11 59.5q-10 2 -17 4q-86 21 -88 49q-3 33 47 60q23 -29 68 -48q8 50 11 84q7 45 6 101q-1 58 -30 96q27 19 59 22.5t47 -13.5q25 -21 25 -71q0 -83 -23 -238h7q156 0 258.5 73.5t104.5 193.5q0 98 -87 157t-232 59
q-118 0 -205 -48t-87 -115q0 -43 47 -76q-13 -15 -36 -25t-44 -10q-38 0 -58.5 19.5t-20.5 54.5q0 42 27.5 85t80 80t140 60.5t195.5 23.5q178 0 297 -74.5t119 -186.5q0 -85 -65 -163t-182 -122q16 -18 91 -125zM523 -235q25 0 40.5 -20.5t15.5 -53.5q0 -37 -34.5 -85
t-62.5 -48q-12 0 -20 15q42 44 45 81q-44 17 -44 57q0 25 16 39.5t44 14.5z" />
    <glyph glyph-name="rcommaaccent" unicode="&#x157;" horiz-adv-x="460" 
d="M504 313q10 0 15.5 -5.5t5.5 -12.5q0 -14 -25.5 -62.5t-64.5 -105.5t-97.5 -101t-113.5 -44q-57 0 -94.5 32t-37.5 81q0 38 14 73.5t38 73t28 44.5q-196 5 -196 103q0 46 31.5 76.5t74.5 30.5q19 0 30 -12.5t11 -32.5q0 -37 -30 -89q27 -7 84 -12t89 -13t32 -28
q0 -19 -22 -58t-44.5 -83t-22.5 -77q0 -60 47 -60q57 0 125 86.5t123 195.5zM71 478q-12 0 -25 -21.5t-13 -43.5q0 -25 27 -39q22 47 22 79q0 25 -11 25zM232 -71q25 0 40.5 -20.5t15.5 -53.5q0 -37 -34.5 -85t-62.5 -48q-13 0 -20 15q42 44 45 81q-44 17 -44 57
q0 25 16 39.5t44 14.5z" />
    <glyph glyph-name="Rcaron" unicode="&#x158;" horiz-adv-x="883" 
d="M451 844q-24 0 -63.5 36t-124.5 134q18 31 39 31q34 0 83 -48t74 -93q90 141 141 141q21 0 39 -31q-84 -98 -124 -134t-64 -36zM695 114q167 -235 261 -272q-13 -47 -39.5 -70.5t-60.5 -17.5q-33 7 -69.5 45.5t-60 77t-60.5 105.5t-53 93q-6 9 -19 30.5t-20.5 33
t-18.5 27.5t-21 27t-20 20q-70 -15 -157 -15h-21q-14 -98 -14 -188q0 -106 29 -173q-49 -10 -83 -6q-29 2 -46 17.5t-22.5 38t-4 54.5t6.5 61.5t12 63.5q3 12 4 18q3 21 11 63.5t11 59.5q-10 2 -17 4q-86 21 -88 49q-3 33 47 60q23 -29 68 -48q8 50 11 84q7 45 6 101
q-1 58 -30 96q27 19 59 22.5t47 -13.5q25 -21 25 -71q0 -83 -23 -238h7q156 0 258.5 73.5t104.5 193.5q0 98 -87 157t-232 59q-118 0 -205 -48t-87 -115q0 -43 47 -76q-13 -15 -36 -25t-44 -10q-38 0 -58.5 19.5t-20.5 54.5q0 42 27.5 85t80 80t140 60.5t195.5 23.5
q178 0 297 -74.5t119 -186.5q0 -85 -65 -163t-182 -122q16 -18 91 -125z" />
    <glyph glyph-name="rcaron" unicode="&#x159;" horiz-adv-x="460" 
d="M231 509q-22 0 -58 36t-112 134q16 31 35 31q26 0 70 -43.5t72 -98.5q83 142 128 142q19 0 35 -31q-76 -97 -112 -133.5t-58 -36.5zM504 313q10 0 15.5 -5.5t5.5 -12.5q0 -14 -25.5 -62.5t-64.5 -105.5t-97.5 -101t-113.5 -44q-57 0 -94.5 32t-37.5 81q0 38 14 73.5
t38 73t28 44.5q-196 5 -196 103q0 46 31.5 76.5t74.5 30.5q19 0 30 -12.5t11 -32.5q0 -37 -30 -89q27 -7 84 -12t89 -13t32 -28q0 -19 -22 -58t-44.5 -83t-22.5 -77q0 -60 47 -60q57 0 125 86.5t123 195.5zM71 478q-12 0 -25 -21.5t-13 -43.5q0 -25 27 -39q22 47 22 79
q0 25 -11 25z" />
    <glyph glyph-name="Sacute" unicode="&#x15a;" horiz-adv-x="885" 
d="M454 843q-13 0 -33 14q13 16 24 31.5t19 28t15.5 27t11.5 23t9 21.5t6.5 18t5 16t3.5 12q25 14 57 14q21 0 36 -5.5t15 -11.5q0 -43 -60.5 -115.5t-108.5 -72.5zM414 -181q-141 0 -212.5 33.5t-71.5 74.5q0 27 26 58q150 -97 295 -97q95 0 168 45.5t73 105.5
q0 26 -14.5 46.5t-36.5 34.5t-58.5 27t-69 22t-80 22t-80.5 24q-141 48 -205 111t-64 154q0 133 111.5 211.5t299.5 78.5q133 0 237 -44t104 -100q0 -24 -33 -42.5t-64 -18.5q-9 20 -30 43.5t-53.5 48.5t-82 41.5t-104.5 16.5q-106 0 -189.5 -56t-83.5 -132q0 -36 15 -67
t37 -52t59 -41t70.5 -33t80.5 -28q15 -5 54.5 -17t56.5 -18l51 -18t51 -20.5t42.5 -22.5t38.5 -27.5t27 -31t19.5 -37.5t5.5 -43q0 -80 -59 -139t-146 -86t-185 -27z" />
    <glyph glyph-name="sacute" unicode="&#x15b;" horiz-adv-x="376" 
d="M285 693q0 -43 -60.5 -115.5t-108.5 -72.5q-13 0 -33 14q13 16 24 31.5t19 28t15.5 27t11.5 23t9 21.5t6.5 18t5 16t3.5 12q25 14 57 14q21 0 36 -5.5t15 -11.5zM431 296q-69 -5 -194 -68q36 -39 36 -86q0 -61 -55 -97.5t-120 -36.5q-40 0 -65 15.5t-25 45.5
q0 54 104 125q-4 4 -22.5 20.5t-26 24.5t-19.5 23.5t-16.5 31t-4.5 33.5q0 35 21 61.5t58 38.5q38 11 73.5 9.5t50.5 -15.5q-4 -50 -94 -46q-12 -14 -1.5 -39t35.5 -47q8 -7 24.5 -20t21.5 -17q60 30 115 50t79 20q18 0 25 -26zM150 123q0 21 -15 43q-76 -54 -76 -92
q0 -27 23 -27q22 0 45 23t23 53z" />
    <glyph glyph-name="Scedilla" unicode="&#x15e;" horiz-adv-x="885" 
d="M469 715q-106 0 -189.5 -56t-83.5 -132q0 -36 15 -67t37 -52t59 -41t70.5 -33t80.5 -28q15 -5 54.5 -17t56.5 -18l51 -18t51 -20.5t42.5 -22.5t38.5 -27.5t27 -31t19.5 -37.5t5.5 -43q0 -71 -47.5 -126t-119.5 -84.5t-159 -38.5l-23 -48q43 -4 67.5 -26t24.5 -56
q0 -37 -33 -61.5t-83 -24.5q-31 0 -55 12.5t-24 30.5q0 16 18 21q22 -18 44 -18t36.5 15t14.5 38t-15.5 33t-50.5 17v14l25 50h-10q-141 0 -212.5 33.5t-71.5 74.5q0 27 26 58q150 -97 295 -97q95 0 168 45.5t73 105.5q0 26 -14.5 46.5t-36.5 34.5t-58.5 27t-69 22t-80 22
t-80.5 24q-141 48 -205 111t-64 154q0 133 111.5 211.5t299.5 78.5q133 0 237 -44t104 -100q0 -24 -33 -42.5t-64 -18.5q-9 20 -30 43.5t-53.5 48.5t-82 41.5t-104.5 16.5z" />
    <glyph glyph-name="scedilla" unicode="&#x15f;" horiz-adv-x="376" 
d="M431 296q-69 -5 -194 -68q36 -39 36 -86q0 -46 -34 -79t-84 -47l-19 -39q43 -4 67.5 -26t24.5 -56q0 -37 -33 -61.5t-83 -24.5q-31 0 -55 12.5t-24 30.5q0 16 18 21q22 -18 44 -18t36.5 15t14.5 38t-15.5 33t-50.5 17v14l18 36q-40 0 -65 15.5t-25 45.5q0 54 104 125
q-4 4 -22.5 20.5t-26 24.5t-19.5 23.5t-16.5 31t-4.5 33.5q0 35 21 61.5t58 38.5q38 11 73.5 9.5t50.5 -15.5q-4 -50 -94 -46q-12 -14 -1.5 -39t35.5 -47q8 -7 24.5 -20t21.5 -17q60 30 115 50t79 20q18 0 25 -26zM150 123q0 21 -15 43q-76 -54 -76 -92q0 -27 23 -27
q22 0 45 23t23 53z" />
    <glyph glyph-name="Scaron" unicode="&#x160;" horiz-adv-x="885" 
d="M485 844q-24 0 -63.5 36t-124.5 134q18 31 39 31q34 0 83 -48t74 -93q90 141 141 141q21 0 39 -31q-84 -98 -124 -134t-64 -36zM414 -181q-141 0 -212.5 33.5t-71.5 74.5q0 27 26 58q150 -97 295 -97q95 0 168 45.5t73 105.5q0 26 -14.5 46.5t-36.5 34.5t-58.5 27t-69 22
t-80 22t-80.5 24q-141 48 -205 111t-64 154q0 133 111.5 211.5t299.5 78.5q133 0 237 -44t104 -100q0 -24 -33 -42.5t-64 -18.5q-9 20 -30 43.5t-53.5 48.5t-82 41.5t-104.5 16.5q-106 0 -189.5 -56t-83.5 -132q0 -36 15 -67t37 -52t59 -41t70.5 -33t80.5 -28
q15 -5 54.5 -17t56.5 -18l51 -18t51 -20.5t42.5 -22.5t38.5 -27.5t27 -31t19.5 -37.5t5.5 -43q0 -80 -59 -139t-146 -86t-185 -27z" />
    <glyph glyph-name="scaron" unicode="&#x161;" horiz-adv-x="376" 
d="M149 509q-22 0 -58 36t-112 134q16 31 35 31q26 0 70 -43.5t72 -98.5q83 142 128 142q19 0 35 -31q-76 -97 -112 -133.5t-58 -36.5zM431 296q-69 -5 -194 -68q36 -39 36 -86q0 -61 -55 -97.5t-120 -36.5q-40 0 -65 15.5t-25 45.5q0 54 104 125q-4 4 -22.5 20.5t-26 24.5
t-19.5 23.5t-16.5 31t-4.5 33.5q0 35 21 61.5t58 38.5q38 11 73.5 9.5t50.5 -15.5q-4 -50 -94 -46q-12 -14 -1.5 -39t35.5 -47q8 -7 24.5 -20t21.5 -17q60 30 115 50t79 20q18 0 25 -26zM150 123q0 21 -15 43q-76 -54 -76 -92q0 -27 23 -27q22 0 45 23t23 53z" />
    <glyph glyph-name="uni0162" unicode="&#x162;" horiz-adv-x="699" 
d="M925 859q24 -10 38 -24t14 -29q0 -34 -64.5 -47.5t-226.5 -15.5q-66 0 -125 -3q3 -5 4 -11q-23 -103 -41.5 -253t-18.5 -287q0 -218 50 -320q-33 -11 -72 -11l-13 -26q43 -4 67.5 -26t24.5 -56q0 -37 -33 -61.5t-83 -24.5q-31 0 -55 12.5t-24 30.5q0 16 18 21
q22 -18 44 -18t36.5 15t14.5 38t-15.5 33t-50.5 17v14l20 40q-49 22 -56 83q-8 56 -8 114q0 162 31 370.5t72 299.5q-284 -23 -284 -123q0 -39 40 -67q-35 -30 -80 -30q-43 0 -69 25t-26 66q0 74 92 126.5t255 70.5q91 11 234.5 12.5t197.5 7.5q66 7 92 37z" />
    <glyph glyph-name="uni0163" unicode="&#x163;" horiz-adv-x="437" 
d="M207 9q-12 0 -18 1l-18 -38q43 -4 67.5 -26t24.5 -56q0 -37 -33 -61.5t-83 -24.5q-31 0 -55 12.5t-24 30.5q0 16 18 21q22 -18 44 -18t36.5 15t14.5 38t-15.5 33t-50.5 17v14l26 54q-106 43 -106 208q0 76 21 204q-23 1 -67 1q-30 0 -30 29q0 11 5 29q30 -7 100 -12
q26 151 28 212q62 -2 82 -18t20 -67q0 -28 -17 -130h141l-6 -18q-5 -13 -32.5 -19t-110.5 -7q-28 -172 -28 -246q0 -57 24.5 -93t64.5 -36q121 0 241 264q23 -2 23 -20q0 -17 -20 -62t-54.5 -98t-92 -93t-120.5 -40z" />
    <glyph glyph-name="Tcaron" unicode="&#x164;" horiz-adv-x="699" 
d="M517 869q-24 0 -63.5 36t-124.5 134q18 31 39 31q34 0 83 -48t74 -93q90 141 141 141q21 0 39 -31q-84 -98 -124 -134t-64 -36zM925 859q24 -10 38 -24t14 -29q0 -34 -64.5 -47.5t-226.5 -15.5q-66 0 -125 -3q3 -5 4 -11q-23 -103 -41.5 -253t-18.5 -287q0 -218 50 -320
q-33 -11 -75 -11q-43 0 -70 24.5t-32 67.5q-8 56 -8 114q0 162 31 370.5t72 299.5q-284 -23 -284 -123q0 -39 40 -67q-35 -30 -80 -30q-43 0 -69 25t-26 66q0 74 92 126.5t255 70.5q91 11 234.5 12.5t197.5 7.5q66 7 92 37z" />
    <glyph glyph-name="tcaron" unicode="&#x165;" horiz-adv-x="437" 
d="M430 709q0 -52 -40.5 -110.5t-77.5 -58.5q-16 0 -29 13q50 78 58 176q31 12 60 5.5t29 -25.5zM471 322q23 -2 23 -20q0 -17 -20 -62t-54.5 -98t-92 -93t-120.5 -40q-80 0 -126 58t-46 162q0 76 21 204q-23 1 -67 1q-30 0 -30 29q0 11 5 29q30 -7 100 -12q26 151 28 212
q62 -2 82 -18t20 -67q0 -28 -17 -130h141l-6 -18q-5 -13 -32.5 -19t-110.5 -7q-28 -172 -28 -246q0 -57 24.5 -93t64.5 -36q121 0 241 264z" />
    <glyph glyph-name="Tbar" unicode="&#x166;" horiz-adv-x="699" 
d="M977 806q0 -34 -64.5 -47.5t-226.5 -15.5q-66 0 -125 -3q3 -5 4 -11q-38 -167 -54 -377q35 1 66.5 0t55.5 -4t38.5 -12t14.5 -24q0 -21 -16 -42q-60 9 -163 9q-2 -60 -2 -90q0 -218 50 -320q-33 -11 -75 -11q-43 0 -70 24.5t-32 67.5q-8 56 -8 114q0 99 12 216
q-101 1 -132 11t-31 36q0 9 8 27q75 -3 163 -2q33 273 83 382q-284 -23 -284 -123q0 -39 40 -67q-35 -30 -80 -30q-43 0 -69 25t-26 66q0 74 92 126.5t255 70.5q91 11 234.5 12.5t197.5 7.5q66 7 92 37q24 -10 38 -24t14 -29z" />
    <glyph glyph-name="tbar" unicode="&#x167;" horiz-adv-x="437" 
d="M471 322q23 -2 23 -20q0 -17 -20 -62t-54.5 -98t-92 -93t-120.5 -40q-80 0 -126 58t-46 162q0 27 1 41q-10 0 -30.5 -0.5t-29.5 -0.5q-12 -1 -18.5 6t-7.5 23q-1 13 3 28q36 -8 87 -9q4 42 16 116q-23 1 -67 1q-30 0 -30 29q0 11 5 29q30 -7 100 -12q26 151 28 212
q62 -2 82 -18t20 -67q0 -28 -17 -130h141l-6 -18q-5 -13 -32.5 -19t-110.5 -7q-15 -92 -18 -116q21 1 62 2.5t61 1.5q-1 -2 -2.5 -8t-3.5 -10q-3 -14 -26.5 -20t-95.5 -9q-5 -50 -5 -87q0 -57 24.5 -93t64.5 -36q121 0 241 264z" />
    <glyph glyph-name="Umacron" unicode="&#x16a;" horiz-adv-x="871" 
d="M385 806q-58 0 -79 9.5t-21 33.5q0 6 4 20q33 -2 194 -2q22 0 61.5 2t54.5 2q34 0 47 -6t13 -20q0 -22 -11 -39q-45 5 -77 5q-13 0 -87 -2q-58 -3 -99 -3zM741 363q-4 -118 15 -242.5t65 -186.5q-38 -30 -89 -30q-50 0 -73 51q-26 64 -29 218q-62 -144 -154 -245
t-183 -101q-105 0 -162 102t-50 280q3 76 16.5 214.5t15.5 194.5q1 58 -19 107q28 34 89 34q32 0 50 -22.5t18 -65.5q0 -46 -26.5 -213t-29.5 -272q-9 -265 106 -265q66 0 139 81.5t125.5 199.5t72.5 233q15 167 36 244q15 56 73 56q28 0 62 -13q-63 -179 -68 -359z" />
    <glyph glyph-name="umacron" unicode="&#x16b;" horiz-adv-x="547" 
d="M136 552q-58 0 -79 9.5t-21 33.5q0 6 4 20q33 -2 154 -2q10 0 44 2t52 2q34 0 47 -6t13 -20q0 -22 -11 -39q-45 5 -77 5q-24 0 -62 -2.5t-64 -2.5zM571 346q21 -2 21 -16q0 -15 -21 -57t-52 -89t-75.5 -83.5t-84.5 -36.5q-96 0 -103 116q-79 -124 -158 -124q-42 0 -66 30
t-24 86q0 12 3.5 70t3.5 97q0 47 -6 86q42 6 56 6q28 0 40.5 -14t12.5 -48q0 -12 -4.5 -73t-4.5 -92q0 -68 41 -68q44 0 106 87q1 11 3 36.5t3.5 51t1.5 49.5q0 34 -5 64q20 2 30 2q42 0 59 -20.5t17 -72.5q0 -9 -5.5 -61t-5.5 -79q0 -84 36 -84q34 0 98.5 90.5t82.5 146.5z
" />
    <glyph glyph-name="Uring" unicode="&#x16e;" horiz-adv-x="871" 
d="M469 815q-44 0 -71 25.5t-27 65.5t27.5 65.5t71.5 25.5t71 -25.5t27 -65.5t-27.5 -65.5t-71.5 -25.5zM470 968q-20 0 -31.5 -16t-11.5 -45q0 -63 41 -63q20 0 31.5 17t11.5 46q0 61 -41 61zM741 363q-4 -118 15 -242.5t65 -186.5q-38 -30 -89 -30q-50 0 -73 51
q-26 64 -29 218q-62 -144 -154 -245t-183 -101q-105 0 -162 102t-50 280q3 76 16.5 214.5t15.5 194.5q1 58 -19 107q28 34 89 34q32 0 50 -22.5t18 -65.5q0 -46 -26.5 -213t-29.5 -272q-9 -265 106 -265q66 0 139 81.5t125.5 199.5t72.5 233q15 167 36 244q15 56 73 56
q28 0 62 -13q-63 -179 -68 -359z" />
    <glyph glyph-name="uring" unicode="&#x16f;" horiz-adv-x="547" 
d="M192 515q-44 0 -71 25.5t-27 65.5t27.5 65.5t71.5 25.5t71 -25.5t27 -65.5t-27.5 -65.5t-71.5 -25.5zM193 665q-41 0 -41 -58q0 -60 39 -60q41 0 41 60q0 58 -39 58zM571 346q21 -2 21 -16q0 -15 -21 -57t-52 -89t-75.5 -83.5t-84.5 -36.5q-96 0 -103 116
q-79 -124 -158 -124q-42 0 -66 30t-24 86q0 12 3.5 70t3.5 97q0 47 -6 86q42 6 56 6q28 0 40.5 -14t12.5 -48q0 -12 -4.5 -73t-4.5 -92q0 -68 41 -68q44 0 106 87q1 11 3 36.5t3.5 51t1.5 49.5q0 34 -5 64q20 2 30 2q42 0 59 -20.5t17 -72.5q0 -9 -5.5 -61t-5.5 -79
q0 -84 36 -84q34 0 98.5 90.5t82.5 146.5z" />
    <glyph glyph-name="Uhungarumlaut" unicode="&#x170;" horiz-adv-x="871" 
d="M552 807q-13 0 -33 14q13 16 24 31.5t19 28t15.5 27t11.5 23t9 21.5t6.5 18t5 16t3.5 12q25 14 57 14q21 0 36 -5.5t15 -11.5q0 -43 -60.5 -115.5t-108.5 -72.5zM530 992q0 -43 -60.5 -115.5t-108.5 -72.5q-13 0 -33 14q13 16 24 31.5t19 28t15.5 27t11.5 23t9 21.5
t6.5 18t5 16t3.5 12q25 14 57 14q21 0 36 -5.5t15 -11.5zM741 363q-4 -118 15 -242.5t65 -186.5q-38 -30 -89 -30q-50 0 -73 51q-26 64 -29 218q-62 -144 -154 -245t-183 -101q-105 0 -162 102t-50 280q3 76 16.5 214.5t15.5 194.5q1 58 -19 107q28 34 89 34q32 0 50 -22.5
t18 -65.5q0 -46 -26.5 -213t-29.5 -272q-9 -265 106 -265q66 0 139 81.5t125.5 199.5t72.5 233q15 167 36 244q15 56 73 56q28 0 62 -13q-63 -179 -68 -359z" />
    <glyph glyph-name="uhungarumlaut" unicode="&#x171;" horiz-adv-x="547" 
d="M272 508q-13 0 -33 14q13 16 24 31.5t19 28t15.5 27t11.5 23t9 21.5t6.5 18t5 16t3.5 12q25 14 57 14q21 0 36 -5.5t15 -11.5q0 -43 -60.5 -115.5t-108.5 -72.5zM250 693q0 -43 -60.5 -115.5t-108.5 -72.5q-13 0 -33 14q13 16 24 31.5t19 28t15.5 27t11.5 23t9 21.5
t6.5 18t5 16t3.5 12q25 14 57 14q21 0 36 -5.5t15 -11.5zM571 346q21 -2 21 -16q0 -15 -21 -57t-52 -89t-75.5 -83.5t-84.5 -36.5q-96 0 -103 116q-79 -124 -158 -124q-42 0 -66 30t-24 86q0 12 3.5 70t3.5 97q0 47 -6 86q42 6 56 6q28 0 40.5 -14t12.5 -48q0 -12 -4.5 -73
t-4.5 -92q0 -68 41 -68q44 0 106 87q1 11 3 36.5t3.5 51t1.5 49.5q0 34 -5 64q20 2 30 2q42 0 59 -20.5t17 -72.5q0 -9 -5.5 -61t-5.5 -79q0 -84 36 -84q34 0 98.5 90.5t82.5 146.5z" />
    <glyph glyph-name="Uogonek" unicode="&#x172;" horiz-adv-x="871" 
d="M822 -208q13 -7 13 -21q0 -19 -26 -34.5t-59 -15.5q-47 0 -77.5 25t-30.5 63q-1 57 66 98q-32 10 -49 48q-26 64 -29 218q-62 -144 -154 -245t-183 -101q-105 0 -162 102t-50 280q3 76 16.5 214.5t15.5 194.5q1 58 -19 107q28 34 89 34q32 0 50 -22.5t18 -65.5
q0 -46 -26.5 -213t-29.5 -272q-9 -265 106 -265q66 0 139 81.5t125.5 199.5t72.5 233q15 167 36 244q15 56 73 56q28 0 62 -13q-63 -179 -68 -359q-4 -118 15 -242.5t65 -186.5q-23 -19 -50 -25q-49 -52 -49 -87q0 -23 12 -37t32 -14q26 0 56 21z" />
    </font>
</defs>
</svg>
